<?xml version="1.0" encoding="iso-8859-1"?>
<!-- Generator: Adobe Illustrator 16.0.0, SVG Export Plug-In . SVG Version: 6.00 Build 0)  -->
<!DOCTYPE svg PUBLIC "-//W3C//DTD SVG 1.1//EN" "http://www.w3.org/Graphics/SVG/1.1/DTD/svg11.dtd">
<svg version="1.1" xmlns="http://www.w3.org/2000/svg" xmlns:xlink="http://www.w3.org/1999/xlink" x="0px" y="0px" width="150px"
	 height="150px" viewBox="0 0 150 150" style="enable-background:new 0 0 150 150;" xml:space="preserve">
<g id="_x30_1_x5F_02">
	<rect style="fill:none;" width="150" height="150"/>
	<g>
		<path style="fill-rule:evenodd;clip-rule:evenodd;fill:#D28929;" d="M47.529,115.184c-1.187,3.403-3.106,7.098-6.002,9.933
			c-1.417,1.388-3.209,2.591-4.871,3.704c-0.548,0.358-0.978,0.705-1.391,0.979c-0.689,0.458-1.336,0.719-2.423,0.508
			c-4.261-0.824-2.882-4.431-4.571-4.569c-0.834-0.084-2.128,0.313-2.503,1.134c-0.432,0.933,0.096,2.434,3.094,2.842
			c0.705,0.093,1.218,0.652,1.72,1.176c0.345,0.373,0.442,0.653,0.359,0.887c-0.183,0.523-1.108,1.349-2.294,1.734
			c-0.876,0.216-7.1,0.847-7.773,2.236c-0.487,0.997,0.078,2.784,1.285,2.847c1.19,0.047,2.305-1.08,3.15-1.775
			c1.134-0.941,4.069-2.785,4.565-2.366c0.461,0.374,0.199,0.438-0.218,1.027c-0.422,0.603-3.25,3.225-3.736,3.631
			c-1.056,0.942-2.674,1.939-1.803,3.444c1.814,3.098,4.029-2.205,4.801-3.636c1.208-2.012,2.059-3.095,3.563-4.886
			c0.466-0.512,1.967-1.614,3.442-2.654c2.31-1.631,4.468-3.079,6.648-4.897c3.007-2.51,5.173-4.944,6.753-7.715
			c0.895,6.276,5.188,13.938,9.996,18.438c2.11,1.971,4.274,3.595,4.148,6.124c-0.173,3.265,0.04,4.325-3.072,4.691
			c-1.149,0.137-2.294-0.012-3.442-0.038c-0.853-0.041-1.71-0.051-2.577-0.051c-0.648,0.067-1.161,0.193-1.438,0.471
			c-0.661,0.633-0.387,1.019,0.1,1.232c0.518,0.247,1.044,0.225,1.572,0.119c0.522-0.098,0.993-0.161,1.459-0.19
			c0.059-0.005,0.117-0.008,0.176-0.013c0.073,0.052,0.157,0.105,0.252,0.159c0.43,0.19,0.861,0.172,1.296,0.088
			c0.434-0.078,0.819-0.122,1.2-0.163c0.646-0.042,1.301-0.063,1.969-0.063c1.042,0.073,2.07,0.183,3.051,0.32
			c0.624,0.088,1.303,0.161,1.851,0.062c0.679,0.077,1.383,0.1,1.75-0.243c0.632-0.619-0.444-1.25-0.721-1.648
			c-3.104-4.304,8.193-7.147,10.188-7.804c2.869-0.95,5.742-1.137,7.999,1.275c1.067,1.132,1.935,4.001,0.931,5.406
			c-0.402,0.573-1.97,1.51-1.051,2.397c0.612,0.596,1.906,0.451,3.021,0.287c3.063-0.428,6.458-0.612,9.534-0.387
			c0.56,0.042,1.107,0.109,1.738,0.226c0.634,0.119,1.265,0.14,1.892-0.137c0.588-0.261,0.91-0.731,0.12-1.488
			c-0.333-0.325-0.949-0.471-1.723-0.561c-1.04,0-2.064,0.01-3.1,0.054c-1.372,0.036-2.743,0.225-4.115,0.057
			c-3.74-0.438-3.479-1.724-3.685-5.632c-0.082-1.549,0.141-2.712,0.915-3.438c0.739-0.685,1.431-1.348,2.104-2.011
			c9.432-9.273,12.926-16.864,13.938-24.006c1.463,2.563,3.35,4.892,5.793,7.208c3.652,3.462,7.382,5.815,11.396,8.72
			c1.355,0.98,2.565,1.903,3.004,2.383c1.806,2.152,2.828,3.441,4.274,5.853c0.93,1.724,3.579,8.086,5.762,4.352
			c1.052-1.783-0.903-2.989-2.167-4.112c-0.573-0.497-3.959-3.642-4.474-4.357c-0.506-0.709-0.814-0.783-0.269-1.242
			c0.595-0.492,4.12,1.713,5.48,2.847c1.013,0.835,2.355,2.195,3.787,2.121c1.44-0.068,2.118-2.207,1.529-3.417
			c-0.811-1.651-8.266-2.417-9.318-2.675c-1.422-0.459-2.53-1.447-2.748-2.069c-0.105-0.276,0.014-0.621,0.43-1.069
			c0.593-0.611,1.22-1.296,2.061-1.401c3.597-0.479,4.232-2.294,3.71-3.427c-0.449-0.981-1.995-1.442-3.003-1.348
			c-2.016,0.173-0.367,4.487-5.482,5.49c-0.717,0.135-1.274,0.102-1.769-0.05c-3.061-0.936-8.942-6.346-10.584-8.413
			c-1.045-1.317-1.957-2.725-2.751-4.156c-3.264-5.888-2.416-6.479,0.539-7.938c20.091-1.705,35.871-18.556,35.871-39.087
			c0-21.664-17.568-39.232-39.229-39.232c-8.063,0-15.556,2.432-21.786,6.603C69.694,44.563,62.395,48.205,40.722,46.546
			c-3.749-0.287-7.612,0.099-11.427,1.245C12.68,52.784,3.253,70.307,8.248,86.924c4.798,15.972,21.18,25.299,37.201,21.56
			C49.83,109.506,50.76,108.359,47.529,115.184z"/>
		<path style="fill-rule:evenodd;clip-rule:evenodd;" d="M94.392,109.872c1.263,1.186,2.058,2.493,2.461,3.86
			c0.71,2.41,0.255,5.032-0.868,7.581c-6.219,14.059-29.104,0.796-40.606-2.312c0.075-0.5,0.235-0.961,0.493-1.372
			c1.565-2.523,4.308-4.717,7.721-6.227c3.426-1.521,7.376-2.661,11.186-3.417c4.42-0.878,8.646-1.243,11.641-1.114
			C89.514,107.025,92.349,107.966,94.392,109.872z"/>
		<path style="fill-rule:evenodd;clip-rule:evenodd;fill:#FFFFFF;" d="M94.392,109.872c0.071,0.065,0.139,0.132,0.208,0.2
			l0.088,0.384c0.183,0.827-0.341,1.642-1.16,1.835l-0.745,0.172c-0.82,0.188-1.642-0.334-1.835-1.148l-0.793-3.458l0.631-0.147
			C92.141,108.202,93.366,108.915,94.392,109.872L94.392,109.872z M58.234,114.827c0.977-0.894,2.111-1.708,3.374-2.425l0.714,3.111
			c0.188,0.831-0.33,1.657-1.154,1.84l-0.742,0.172c-0.826,0.193-1.651-0.323-1.84-1.15L58.234,114.827L58.234,114.827z
			 M71.696,108.678c1.029-0.258,2.061-0.489,3.083-0.691c0.223-0.044,0.443-0.087,0.664-0.128l0.555,2.414
			c0.188,0.815-0.33,1.643-1.151,1.825l-0.752,0.173c-0.82,0.192-1.647-0.324-1.835-1.15L71.696,108.678L71.696,108.678z
			 M78.195,107.4c1.335-0.193,2.624-0.333,3.836-0.426l0.505,2.223c0.194,0.821-0.324,1.648-1.149,1.839l-0.746,0.172
			c-0.821,0.185-1.646-0.333-1.836-1.158L78.195,107.4z"/>
		<circle style="fill-rule:evenodd;clip-rule:evenodd;fill:#FFFFFF;" cx="38.337" cy="77.881" r="25.464"/>
		<circle style="fill-rule:evenodd;clip-rule:evenodd;" cx="47.983" cy="86.433" r="5.785"/>
		<path style="fill-rule:evenodd;clip-rule:evenodd;fill:#FFFFFF;" d="M107.444,31.723c19.207,0,34.786,15.579,34.786,34.788
			c0,19.209-15.579,34.787-34.786,34.787c-19.21,0-34.789-15.578-34.789-34.787C72.656,47.301,88.234,31.723,107.444,31.723z"/>
		<circle style="fill-rule:evenodd;clip-rule:evenodd;" cx="85.993" cy="67.248" r="5.757"/>
	</g>
</g>
<g id="Layer_1">
</g>
</svg>
