<?xml version="1.0" encoding="iso-8859-1"?>
<!-- Generator: Adobe Illustrator 16.0.0, SVG Export Plug-In . SVG Version: 6.00 Build 0)  -->
<!DOCTYPE svg PUBLIC "-//W3C//DTD SVG 1.1//EN" "http://www.w3.org/Graphics/SVG/1.1/DTD/svg11.dtd">
<svg version="1.1" xmlns="http://www.w3.org/2000/svg" xmlns:xlink="http://www.w3.org/1999/xlink" x="0px" y="0px" width="150px"
	 height="150px" viewBox="0 0 150 150" style="enable-background:new 0 0 150 150;" xml:space="preserve">
<g id="_x30_2_x5F_01_x5F_black">
	<rect style="fill:none;" width="150" height="150"/>
	<g>
		<path d="M99.557,149c-1.204,0-2.076-0.276-2.665-0.845c-0.559-0.537-0.676-1.104-0.676-1.484c0.001-1.042,0.813-1.819,1.464-2.444
			c0.184-0.176,0.392-0.376,0.467-0.481c0.66-0.935-0.231-7.206-2.609-15.053c-0.662-2.19-1.166-3.416-1.697-4.061
			c-1.607,1.22-3.48,2.183-5.579,2.867c-4.18,1.361-8.938,1.911-12.192,2.134c-1.526,0.105-3.039,0.159-4.495,0.159
			c-2.741,0-5.35-0.189-7.752-0.563c-3.375-0.521-6.445-1.649-8.957-3.283c-0.293,0.674-0.605,1.565-0.962,2.747
			c-2.376,7.847-3.268,14.119-2.609,15.053c0.076,0.106,0.284,0.307,0.468,0.483c0.651,0.624,1.462,1.401,1.463,2.443
			c0,0.38-0.116,0.946-0.674,1.483c-0.592,0.569-1.464,0.845-2.667,0.845c-0.689,0-1.417-0.088-2.102-0.184
			c-2.943-0.413-5.966-0.632-8.745-0.632c-1.202,0-2.367,0.041-3.464,0.121c-0.72,0.057-1.41,0.148-2.163,0.289
			c-0.453,0.085-0.858,0.126-1.237,0.126c-0.659,0-1.253-0.123-1.815-0.375c-0.958-0.428-1.254-1.052-1.333-1.5
			c-0.121-0.69,0.177-1.388,0.888-2.073c0.69-0.67,1.764-0.88,2.821-1.008l0.06-0.007h0.06c1.393,0,2.722,0.021,4.064,0.067
			c0.519,0.017,1.035,0.049,1.551,0.08c0.757,0.046,1.473,0.09,2.194,0.09c0.543,0,1.028-0.025,1.48-0.078
			c3.638-0.43,3.667-1.071,3.859-5.244l0.056-1.151l0.049-0.846c0.086-1.456,0.251-4.243,0.374-7.181
			c0.077-1.891-0.533-5.44-1.238-9.55c-1.159-6.748-2.602-15.146-2.203-22.4c0.03-0.547,0.076-1.019,0.118-1.418
			c-0.256,0.156-0.541,0.334-0.831,0.515c-4.292,2.674-7.664,5.723-9.791,8.84c-0.28,0.406-0.536,0.75-0.764,1.056l-0.235,0.316
			c-0.036,0.046-0.965,1.203-1.381,1.801c-0.34,0.489-0.673,0.918-0.982,1.314c-1.095,1.408-1.644,2.115-1.362,3.841
			c0.571,3.504,2.487,4.194,4.178,4.803c1.189,0.429,2.669,0.962,2.763,2.652c0.088,1.532-0.625,4.048-2.486,4.838
			c-0.405,0.171-0.832,0.259-1.271,0.259c-0.89,0-3.84-0.437-4.417-6.042c-0.075-0.718-0.724-1.372-1.411-2.064l-0.071-0.071
			c-0.304-0.31-0.451-0.35-0.452-0.35c-0.351,0.138-1.487,1.255-2.057,2.875c-0.049,0.178-0.171,0.838-0.314,1.604
			c-1.178,6.339-2.223,10.172-4.072,11.006c-0.474,0.214-1.036,0.328-1.624,0.328c-1.976,0-4.135-1.279-4.178-3.347
			c-0.038-1.997,1.454-3.641,2.652-4.961c0.177-0.194,0.347-0.382,0.503-0.562c1.231-1.384,2.775-3.73,3.437-5.115
			c-1.057,0.84-4.72,4.523-5.505,5.382c-0.199,0.214-0.394,0.436-0.593,0.66c-1.138,1.292-2.429,2.755-4.227,2.755
			c-0.639,0-1.275-0.195-1.892-0.579c-1.338-0.835-1.98-1.823-1.911-2.938c0.148-2.357,3.508-4.101,6.937-5.684
			c0.379-0.176,0.709-0.328,0.962-0.454c3.05-1.712,4.741-2.967,7.613-5.228c1.151-0.994,4.891-6.081,6.688-8.525
			c0.466-0.634,0.836-1.138,1.059-1.432l0.387-0.494c3.844-4.952,7.242-8.547,10.692-11.311c0.693-0.556,1.233-0.945,1.641-1.239
			c0.191-0.138,0.387-0.279,0.525-0.387c-0.056-0.115-0.129-0.257-0.197-0.389c-0.247-0.478-0.619-1.198-1.044-2.262
			c-1.46-3.653-2.141-7.515-2.024-11.477c0.249-8.473,4.206-16.355,10.857-21.627c7.152-5.672,15.967-6.399,22.847-6.399
			c0.984,0,1.952,0.015,2.896,0.038l0.128,0.001c1.037,0,1.786,0,3.233-4.472c1.809-5.594,5.777-11.327,12.135-17.526
			c0.459-0.447,0.833-0.776,1.135-1.041c0.771-0.676,0.771-0.676,0.485-2.183c-0.271-1.421-0.033-2.903,0.672-4.169
			c1.096-1.964,3.171-3.183,5.418-3.183c1.049,0,2.091,0.271,3.012,0.785c1.446,0.804,2.493,2.125,2.946,3.716
			c0.453,1.592,0.26,3.266-0.546,4.713c-1.091,1.963-3.168,3.183-5.419,3.183c-0.122,0-0.244-0.004-0.365-0.011
			c-1.365-0.081-2.054-0.361-2.465-0.528c-0.009-0.003-0.017-0.007-0.024-0.01c-0.243,0.194-0.717,0.657-1.29,1.218l-0.522,0.509
			c-5.777,5.626-9.383,10.711-11.021,15.545c-1.389,4.094-0.905,4.814-0.011,5.446c1.549,1.096,2.734,1.628,3.628,1.628
			c1.26,0,2.199-1.091,3.887-3.182l0.109-0.136c3.689-4.575,9.448-8.508,17.604-12.022c0.589-0.254,1.058-0.428,1.435-0.568
			c0.958-0.355,0.958-0.355,1.229-1.864c0.258-1.424,1.012-2.721,2.123-3.651c1.114-0.932,2.526-1.445,3.976-1.445
			c1.842,0,3.574,0.81,4.755,2.221c1.062,1.27,1.566,2.877,1.42,4.527s-0.927,3.143-2.196,4.204
			c-1.114,0.931-2.526,1.444-3.976,1.444c-0.878,0-1.764-0.19-2.561-0.551c-1.247-0.564-1.79-1.073-2.114-1.376
			c-0.007-0.007-0.015-0.013-0.021-0.02c-0.28,0.091-0.892,0.355-1.633,0.676l-0.675,0.291c-7.302,3.138-12.637,6.695-15.855,10.571
			c-3.197,3.85-2.614,4.48-1.206,6.001c0.547,0.589,0.988,1.08,1.387,1.522c0.821,0.912,1.421,1.579,2.384,2.496
			c0.158-0.129,0.381-0.337,0.571-0.515c0.596-0.559,1.498-1.402,2.882-2.317c4.909-3.245,11.589-5.248,20.421-6.123
			c0.637-0.063,1.135-0.087,1.535-0.105c1.025-0.048,1.025-0.048,1.743-1.405c0.677-1.282,1.788-2.289,3.129-2.835
			c0.749-0.307,1.54-0.464,2.347-0.464c2.525,0,4.777,1.511,5.736,3.849c0.628,1.531,0.621,3.215-0.02,4.743
			c-0.64,1.527-1.836,2.714-3.367,3.341c-0.752,0.308-1.541,0.464-2.348,0.464c-1.535,0-3.01-0.566-4.15-1.593
			c-1.018-0.916-1.381-1.564-1.598-1.952c-0.004-0.007-0.015-0.021-0.016-0.021c-0.002,0-0.004,0-0.006,0
			c-0.319,0-0.892,0.058-1.759,0.145l-0.727,0.072c-7.91,0.778-14.071,2.551-18.312,5.27c-3.593,2.302-3.877,7.514-0.87,15.934
			c0.403,1.128,0.723,2.147,1.007,3.056c1.177,3.759,1.58,4.742,3.91,4.742c0.624,0,1.37-0.08,2.28-0.246l9.224-1.67l0.36,0.568
			c3.68,5.802,7.851,12.377,11.272,19.321c0.759,1.54,3.07,6.226,3.904,7.254c2.238,2.522,3.491,3.856,5.981,5.904
			c0.173,0.128,0.447,0.32,0.763,0.541c2.836,1.989,5.583,4.114,5.329,6.299c-0.122,1.045-0.876,1.852-2.243,2.398
			c-0.443,0.177-0.884,0.267-1.309,0.267c0,0,0,0-0.001,0c-1.977,0-3.066-1.802-3.942-3.249c-0.141-0.232-0.278-0.46-0.416-0.675
			c-0.495-0.791-2.762-4.082-3.788-5.381c0.437,1.37,1.333,3.418,2.115,4.702c0.114,0.191,0.235,0.384,0.36,0.584
			c0.872,1.395,1.958,3.129,1.593,4.948c-0.342,1.706-2.047,2.47-3.585,2.47c-0.847,0-1.644-0.228-2.245-0.642
			c-1.556-1.073-1.879-4.702-1.911-10.608c-0.004-0.707-0.008-1.317-0.029-1.534c-0.229-1.425-0.997-2.488-1.34-2.763
			c-0.061,0.023-0.179,0.079-0.357,0.205c-0.787,0.552-1.466,1.027-1.64,1.629c-1.256,4.349-3.565,4.818-4.5,4.818
			c-0.597,0-1.176-0.172-1.674-0.498c-1.578-1.034-1.82-3.453-1.487-4.84c0.372-1.559,1.818-1.803,2.98-1.999
			c1.67-0.281,3.396-0.573,4.456-3.575c0.521-1.469,0.149-2.18-0.592-3.594c-0.214-0.408-0.444-0.85-0.673-1.349
			c-2.391-5.198-5.434-9.635-10.106-14.715l-5.198,2.873c-3.754,2.075-4.142,2.761-4.228,4.258c0.504,6.537,0.124,8.932-0.63,13.685
			l-0.041,0.257c-0.961,6.063-1.966,13.009-1.732,18.734c0.115,2.787,0.271,5.438,0.359,6.947l0.062,1.08l0.056,1.146
			c0.191,4.177,0.222,4.818,3.86,5.248c0.451,0.053,0.936,0.078,1.479,0.078c0.722,0,1.438-0.044,2.196-0.09
			c0.515-0.031,1.03-0.063,1.548-0.08c1.343-0.046,2.673-0.067,4.065-0.067h0.061l0.06,0.007c1.055,0.128,2.127,0.338,2.821,1.009
			c0.709,0.686,1.007,1.383,0.886,2.073c-0.079,0.448-0.375,1.072-1.336,1.5c-0.562,0.251-1.154,0.374-1.813,0.374
			c-0.378,0-0.782-0.041-1.237-0.126c-0.754-0.141-1.443-0.232-2.167-0.289c-1.091-0.08-2.256-0.121-3.458-0.121
			c-2.778,0-5.802,0.219-8.743,0.632C100.975,148.912,100.245,149,99.557,149z"/>
		<path style="fill:#FFFFFF;" d="M97.908,16.502c0.856,0,1.725,0.212,2.525,0.658c2.508,1.395,3.41,4.56,2.013,7.069
			c-0.949,1.708-2.719,2.669-4.545,2.669c-0.102,0-0.204-0.003-0.307-0.009c-1.813-0.107-2.204-0.588-2.608-0.588
			c-0.386,0-0.785,0.438-2.449,2.059c-4.107,4-9.153,9.692-11.271,15.94c-1.373,4.049-1.177,5.499,0.36,6.583
			c1.795,1.27,3.112,1.811,4.204,1.811c1.835,0,3.03-1.53,4.774-3.69c4.498-5.578,11.665-9.337,17.222-11.731
			c2.743-1.184,2.783-0.56,3.252-3.173c0.209-1.156,0.808-2.247,1.78-3.062c0.974-0.814,2.157-1.211,3.334-1.211
			c1.485,0,2.96,0.633,3.987,1.862c1.843,2.202,1.551,5.482-0.65,7.321c-0.974,0.814-2.157,1.211-3.334,1.211
			c-0.737,0-1.471-0.156-2.148-0.462c-1.914-0.867-1.873-1.517-2.422-1.517c-0.38,0-1.041,0.312-2.828,1.08
			c-5.267,2.264-12.017,5.777-16.23,10.851c-3.313,3.991-3.099,5.237-1.17,7.32c1.697,1.83,2.369,2.694,3.9,4.146
			c0.208,0.196,0.389,0.286,0.57,0.286c0.712,0,1.451-1.38,4.038-3.091c5.979-3.952,13.947-5.365,19.968-5.962
			c2.973-0.295,2.822,0.309,4.063-2.038c0.549-1.04,1.45-1.899,2.622-2.376c0.646-0.265,1.313-0.39,1.97-0.39
			c2.046,0,3.986,1.217,4.812,3.229c1.088,2.654-0.186,5.692-2.841,6.779c-0.645,0.264-1.313,0.389-1.969,0.389
			c-1.286,0-2.53-0.48-3.481-1.336c-1.881-1.694-1.153-2.23-2.288-2.23c-0.458,0-1.221,0.088-2.583,0.222
			c-5.705,0.561-13.201,1.863-18.754,5.423c-4.995,3.201-3.582,10.642-1.271,17.111c1.994,5.588,1.91,8.462,5.858,8.462
			c0.688,0,1.496-0.087,2.459-0.262l8.561-1.551c3.995,6.299,7.922,12.535,11.22,19.229c1.362,2.762,3.219,6.447,4.025,7.441
			c2.213,2.496,3.548,3.93,6.123,6.047c1.864,1.396,8.877,5.633,4.112,7.537c-0.338,0.135-0.649,0.195-0.938,0.195
			c-1.671,0-2.593-2.027-3.518-3.465c-0.48-0.768-3.577-5.297-4.332-6.023c-0.5-0.479-0.681-0.807-0.933-0.807
			c-0.128,0-0.273,0.084-0.488,0.275c-0.682,0.609,1.287,5.135,2.386,6.938c0.8,1.338,2.16,3.15,1.826,4.814
			c-0.222,1.106-1.429,1.667-2.604,1.667c-0.617,0-1.227-0.154-1.679-0.466c-1.8-1.242-1.384-10.137-1.512-11.418
			c-0.281-1.756-1.248-3.227-1.938-3.596c-0.104-0.056-0.219-0.085-0.347-0.085c-0.266,0-0.588,0.126-0.984,0.405
			c-0.838,0.588-1.745,1.203-2.024,2.168c-0.887,3.07-2.344,4.097-3.539,4.097c-0.42,0-0.807-0.126-1.126-0.335
			c-1.07-0.701-1.343-2.602-1.063-3.77c0.56-2.346,5.346,0.361,7.407-5.475c0.845-2.383-0.256-3.414-1.299-5.691
			c-2.771-6.027-6.282-10.705-10.814-15.553l-5.883,3.252c-3.802,2.102-4.637,3.014-4.746,5.145
			c0.512,6.586,0.123,8.859-0.656,13.773c-1.026,6.475-1.977,13.242-1.744,18.932c0.152,3.697,0.376,7.156,0.421,8.037
			c0.27,5.088-0.067,6.762,4.798,7.336c0.533,0.063,1.065,0.085,1.597,0.085c1.258,0,2.514-0.128,3.777-0.171
			c1.339-0.045,2.676-0.066,4.032-0.066c1.004,0.121,1.806,0.309,2.246,0.734c1.024,0.99,0.601,1.602-0.162,1.941
			c-0.466,0.208-0.935,0.287-1.406,0.287c-0.35,0-0.701-0.044-1.054-0.109c-0.819-0.152-1.55-0.246-2.272-0.303
			c-1.15-0.084-2.336-0.124-3.536-0.124c-2.975,0-6.038,0.242-8.882,0.642c-0.641,0.089-1.328,0.174-1.965,0.174
			c-0.803,0-1.525-0.135-1.972-0.564c-1.193-1.148,0.844-2.361,1.377-3.111c1.183-1.668-0.659-9.955-2.468-15.922
			c-0.925-3.058-1.596-4.454-2.636-5.065c-1.714,1.444-3.748,2.507-5.908,3.212c-3.72,1.211-8.058,1.82-11.95,2.086
			c-1.459,0.102-2.94,0.157-4.426,0.157c-2.552,0-5.117-0.165-7.599-0.552c-3.346-0.517-6.736-1.719-9.475-3.769
			c-0.517,0.828-0.989,2.063-1.555,3.931c-1.807,5.967-3.65,14.256-2.467,15.922c0.531,0.75,2.571,1.963,1.379,3.111
			c-0.448,0.43-1.17,0.564-1.973,0.564c-0.637,0-1.324-0.085-1.964-0.174c-2.844-0.399-5.907-0.642-8.882-0.642
			c-1.2,0-2.386,0.04-3.537,0.124c-0.723,0.057-1.455,0.15-2.273,0.303c-0.352,0.065-0.703,0.109-1.054,0.109
			c-0.472,0-0.941-0.079-1.406-0.287c-0.761-0.34-1.186-0.951-0.16-1.941c0.438-0.426,1.24-0.613,2.246-0.734
			c1.356,0,2.693,0.021,4.03,0.066c1.266,0.043,2.521,0.171,3.778,0.171c0.531,0,1.063-0.022,1.596-0.085
			c4.867-0.574,4.528-2.248,4.797-7.336c0.048-0.881,0.269-4.34,0.423-8.037c0.209-5.119-4.086-20.225-3.441-31.938
			c0.111-2.019,0.446-2.99-0.033-2.99c-0.311,0-0.966,0.41-2.248,1.209c-4.167,2.596-7.757,5.742-10.047,9.1
			c-0.371,0.539-0.704,0.969-0.979,1.344c0,0-0.954,1.188-1.396,1.82c-1.566,2.25-2.957,3.156-2.511,5.889
			c1.091,6.699,6.783,4.711,6.929,7.35c0.076,1.313-0.584,3.313-1.878,3.861c-0.271,0.115-0.57,0.18-0.88,0.18
			c-1.395,0-3.026-1.298-3.422-5.145c-0.115-1.102-0.976-1.939-1.764-2.734c-0.441-0.449-0.812-0.646-1.134-0.646
			c-0.083,0-0.163,0.013-0.239,0.038c-0.819,0.264-2.146,1.666-2.792,3.502c-0.388,1.363-1.669,11.045-3.854,12.029
			c-0.36,0.163-0.779,0.24-1.213,0.24c-1.488,0-3.148-0.908-3.178-2.367c-0.035-1.865,1.786-3.555,2.91-4.846
			c1.537-1.727,4.543-6.23,3.926-7.018c-0.223-0.283-0.375-0.399-0.531-0.399c-0.253,0-0.518,0.304-1.108,0.696
			c-0.953,0.635-5.175,4.922-5.847,5.656c-1.185,1.27-2.464,3.09-4.082,3.09c-0.429,0-0.881-0.128-1.362-0.428
			c-4.774-2.98,3.622-6.191,5.906-7.332c3.19-1.789,4.909-3.072,7.785-5.336c1.582-1.365,6.838-8.707,7.946-10.168l0.012-0.014
			l0.005-0.008l0.004-0.008c0.061-0.078,0.108-0.139,0.139-0.176l0.002-0.002l0.192-0.246c3.64-4.689,7.014-8.33,10.53-11.146
			c3.633-2.908,2.94-1.146,1.229-5.428c-1.366-3.418-2.069-7.164-1.953-11.076c0.25-8.492,4.303-15.978,10.479-20.873
			c6.719-5.329,14.938-6.183,22.226-6.183c0.976,0,1.937,0.015,2.873,0.037c0.051,0.001,0.102,0.002,0.152,0.002
			c1.88,0,2.797-0.875,4.185-5.164c2.204-6.817,7.552-12.896,11.882-17.118c2.14-2.085,2.398-1.519,1.904-4.125
			c-0.221-1.155-0.053-2.39,0.563-3.497C94.316,17.464,96.085,16.502,97.908,16.502 M97.908,14.502L97.908,14.502
			c-2.608,0-5.02,1.416-6.291,3.695c-0.819,1.472-1.097,3.193-0.781,4.846c0.038,0.201,0.125,0.659,0.162,0.954
			c-0.097,0.088-0.218,0.195-0.324,0.288c-0.309,0.271-0.693,0.608-1.173,1.076c-6.478,6.316-10.529,12.183-12.39,17.936
			c-1.223,3.779-1.713,3.779-2.281,3.779l-0.106-0.001c-1.084-0.025-2.039-0.038-2.919-0.038c-7.042,0-16.074,0.751-23.469,6.616
			c-6.882,5.455-10.978,13.612-11.235,22.381c-0.122,4.1,0.583,8.096,2.095,11.877c0.343,0.858,0.652,1.5,0.893,1.976
			c-0.389,0.281-0.892,0.65-1.514,1.148c-3.514,2.815-6.964,6.463-10.86,11.481l-0.157,0.201c-0.037,0.044-0.087,0.107-0.148,0.187
			l-0.093,0.119l-0.01,0.017c-0.226,0.299-0.593,0.798-1.05,1.42c-1.623,2.207-5.404,7.352-6.542,8.365
			c-2.854,2.246-4.439,3.42-7.441,5.106c-0.24,0.118-0.545,0.259-0.894,0.42c-3.856,1.78-7.333,3.62-7.515,6.529
			c-0.065,1.037,0.295,2.547,2.379,3.848c0.778,0.485,1.593,0.731,2.421,0.731c1.246,0,2.266-0.526,3.134-1.229
			c-0.259,0.646-0.416,1.342-0.401,2.088c0.056,2.711,2.677,4.329,5.178,4.329c0.74,0,1.425-0.141,2.039-0.418
			c2.256-1.017,3.372-4.908,4.641-11.733c0.111-0.6,0.237-1.274,0.298-1.521c0.293-0.8,0.742-1.431,1.098-1.817
			c0.438,0.445,0.897,0.946,0.931,1.268c0.525,5.113,3.14,6.937,5.411,6.937c0.574,0,1.133-0.114,1.662-0.339
			c2.174-0.922,3.217-3.686,3.094-5.817c-0.13-2.348-2.19-3.09-3.422-3.533c-1.639-0.591-3.054-1.101-3.53-4.022
			c-0.212-1.297,0.135-1.742,1.164-3.066c0.307-0.395,0.654-0.841,1.014-1.358c0.329-0.471,1.059-1.395,1.313-1.71l0.027-0.034
			l0.025-0.035l0.23-0.311c0.235-0.314,0.499-0.668,0.784-1.083c1.92-2.813,4.9-5.574,8.658-8.025
			c-0.31,7.239,1.102,15.455,2.241,22.088c0.696,4.054,1.298,7.555,1.225,9.341c-0.122,2.927-0.285,5.684-0.372,7.164l-0.049,0.847
			c-0.021,0.41-0.04,0.796-0.056,1.161c-0.182,3.967-0.182,3.967-2.979,4.297c-0.411,0.048-0.857,0.071-1.361,0.071
			c-0.69,0-1.391-0.043-2.132-0.088c-0.525-0.032-1.051-0.064-1.579-0.082c-1.353-0.045-2.693-0.067-4.098-0.067h-0.12l-0.119,0.015
			c-1.231,0.147-2.495,0.406-3.4,1.285c-1.196,1.154-1.299,2.248-1.173,2.961c0.099,0.563,0.479,1.602,1.912,2.241
			c0.681,0.306,1.43,0.461,2.222,0.461c0.441,0,0.906-0.047,1.421-0.144c0.716-0.133,1.372-0.221,2.062-0.274
			c1.062-0.078,2.203-0.118,3.38-0.118c2.733,0,5.708,0.216,8.604,0.622c0.723,0.101,1.493,0.193,2.243,0.193
			c1.474,0,2.572-0.367,3.358-1.122c0.814-0.784,0.983-1.633,0.982-2.207c-0.001-1.468-1.066-2.488-1.771-3.164
			c-0.094-0.09-0.213-0.204-0.291-0.284c-0.369-1.391,0.603-7.327,2.696-14.24c0.181-0.599,0.348-1.116,0.505-1.564
			c2.417,1.37,5.244,2.326,8.305,2.799c2.451,0.382,5.111,0.575,7.904,0.575c1.479,0,3.015-0.055,4.565-0.162
			c3.31-0.226,8.155-0.787,12.431-2.18c1.826-0.596,3.491-1.394,4.973-2.38c0.443,0.945,0.846,2.275,1.038,2.911
			c2.096,6.916,3.067,12.855,2.696,14.243c-0.072,0.072-0.193,0.188-0.289,0.28c-0.704,0.676-1.77,1.696-1.771,3.165
			c0,0.575,0.17,1.425,0.982,2.207c0.784,0.756,1.883,1.123,3.358,1.123c0.75,0,1.52-0.093,2.24-0.193
			c2.898-0.406,5.874-0.622,8.606-0.622c1.178,0,2.318,0.04,3.39,0.119c0.678,0.053,1.334,0.14,2.054,0.274
			c0.514,0.096,0.979,0.143,1.419,0.143c0.791,0,1.539-0.155,2.224-0.462c1.431-0.638,1.812-1.676,1.91-2.238
			c0.126-0.714,0.024-1.807-1.176-2.966c-0.905-0.876-2.168-1.135-3.396-1.282l-0.119-0.015h-0.12c-1.404,0-2.745,0.022-4.1,0.067
			c-0.526,0.018-1.051,0.05-1.575,0.082c-0.742,0.045-1.443,0.088-2.135,0.088c-0.505,0-0.952-0.023-1.365-0.071
			c-2.793-0.33-2.793-0.33-2.977-4.301c-0.017-0.364-0.034-0.749-0.056-1.154c-0.011-0.215-0.033-0.589-0.062-1.085
			c-0.092-1.553-0.244-4.152-0.358-6.929c-0.229-5.634,0.768-12.522,1.722-18.536l0.04-0.257c0.765-4.815,1.15-7.248,0.645-13.854
			c0.056-0.961,0.219-1.44,3.71-3.37l4.507-2.491c4.301,4.759,7.151,8.976,9.405,13.878c0.241,0.526,0.482,0.986,0.695,1.393
			c0.751,1.435,0.897,1.773,0.536,2.795c-0.865,2.449-2.108,2.659-3.681,2.925c-1.22,0.206-3.262,0.55-3.787,2.754
			c-0.468,1.948,0.043,4.683,1.912,5.906c0.661,0.434,1.43,0.662,2.222,0.662c1.16,0,4.017-0.54,5.461-5.542
			c0.056-0.194,0.441-0.504,0.817-0.777c0.217,0.376,0.452,0.919,0.567,1.577c0.014,0.229,0.018,0.844,0.021,1.393
			c0.036,6.53,0.408,10.09,2.342,11.425c0.77,0.529,1.768,0.819,2.814,0.819c2.302,0,4.18-1.347,4.565-3.274
			c0.1-0.495,0.113-0.98,0.065-1.451c0.772,0.756,1.752,1.326,3.032,1.326c0.553,0,1.118-0.113,1.68-0.338
			c2.161-0.863,2.751-2.223,2.866-3.212c0.317-2.732-2.538-4.98-5.748-7.232c-0.288-0.202-0.541-0.379-0.738-0.525
			c-2.398-1.975-3.629-3.282-5.826-5.76c-0.365-0.468-1.316-2.08-3.762-7.038c-3.445-6.992-7.632-13.592-11.325-19.415l-0.721-1.137
			l-1.324,0.24l-8.561,1.551c-0.84,0.152-1.547,0.229-2.103,0.229c-1.5,0-1.738-0.149-2.956-4.041
			c-0.285-0.91-0.607-1.941-1.019-3.093c-2.788-7.807-2.631-12.771,0.467-14.755c4.107-2.633,10.119-4.355,17.87-5.117l0.729-0.073
			c0.447-0.045,0.825-0.083,1.12-0.108c0.28,0.426,0.725,0.998,1.488,1.685c1.324,1.193,3.036,1.85,4.819,1.85
			c0.937,0,1.854-0.181,2.727-0.538c1.778-0.729,3.168-2.106,3.911-3.88s0.751-3.73,0.022-5.509
			c-1.114-2.715-3.729-4.469-6.662-4.47c-0.938,0-1.855,0.182-2.729,0.54c-1.554,0.633-2.846,1.804-3.632,3.293
			c-0.097,0.182-0.315,0.595-0.471,0.849c-0.131,0.009-0.292,0.017-0.434,0.023c-0.411,0.02-0.921,0.043-1.588,0.109
			c-8.998,0.892-15.825,2.947-20.873,6.284c-1.352,0.893-2.257,1.714-2.877,2.292c-0.588-0.594-1.067-1.126-1.666-1.791
			c-0.4-0.445-0.846-0.939-1.396-1.534c-1.154-1.247-1.396-1.506,1.242-4.683c3.117-3.752,8.325-7.215,15.481-10.291l0.676-0.292
			c0.377-0.163,0.742-0.321,1.031-0.44c0.396,0.321,0.993,0.73,1.928,1.153c0.927,0.419,1.954,0.64,2.974,0.64
			c1.684,0,3.323-0.596,4.617-1.677c1.475-1.231,2.38-2.965,2.551-4.882c0.17-1.916-0.416-3.783-1.65-5.257
			c-1.369-1.638-3.382-2.579-5.521-2.579c-1.683,0-3.322,0.595-4.616,1.677c-1.292,1.082-2.167,2.587-2.466,4.241
			c-0.037,0.205-0.119,0.664-0.19,0.953c-0.121,0.047-0.271,0.103-0.402,0.152c-0.386,0.143-0.866,0.321-1.484,0.587
			c-8.308,3.58-14.191,7.607-17.985,12.313l-0.11,0.136c-1.447,1.794-2.306,2.81-3.107,2.81c-0.461,0-1.363-0.25-3.049-1.443
			c-0.391-0.276-0.874-0.617,0.379-4.309c1.564-4.616,5.188-9.713,10.772-15.149l0.523-0.511c0.294-0.288,0.58-0.568,0.809-0.784
			c0.484,0.158,1.188,0.327,2.212,0.388c0.142,0.008,0.283,0.013,0.425,0.013c2.614,0,5.025-1.417,6.293-3.697
			c0.935-1.679,1.16-3.623,0.634-5.472c-0.527-1.849-1.742-3.382-3.422-4.316C100.337,14.817,99.127,14.502,97.908,14.502
			L97.908,14.502L97.908,14.502z"/>
	</g>
</g>
<g id="Layer_1">
</g>
</svg>
