<?xml version="1.0" encoding="iso-8859-1"?>
<!-- Generator: Adobe Illustrator 16.0.0, SVG Export Plug-In . SVG Version: 6.00 Build 0)  -->
<!DOCTYPE svg PUBLIC "-//W3C//DTD SVG 1.1//EN" "http://www.w3.org/Graphics/SVG/1.1/DTD/svg11.dtd">
<svg version="1.1" xmlns="http://www.w3.org/2000/svg" xmlns:xlink="http://www.w3.org/1999/xlink" x="0px" y="0px" width="150px"
	 height="150px" viewBox="0 0 150 150" style="enable-background:new 0 0 150 150;" xml:space="preserve">
<g id="_x30_2_x5F_05_x5F_black">
	<rect style="fill:none;" width="150" height="150"/>
	<g>
		<path d="M115.827,149c-0.953,0-1.651-0.227-2.135-0.693c-0.476-0.458-0.575-0.948-0.575-1.279c0.002-0.879,0.67-1.519,1.158-1.986
			c0.124-0.118,0.242-0.221,0.31-0.314c0.578-0.817,0.013-3.021-0.809-3.896c-0.428-0.456-0.9-0.729-1.534-0.885
			c-3.508-0.86-7.171-1.959-11.05-3.122c-9.472-2.84-19.266-5.776-28.41-5.776c-8.554,0-15.198,2.651-20.313,8.105
			c-0.974,1.037-1.817,3.843-0.995,5c0.062,0.087,0.251,0.269,0.403,0.414c0.563,0.541,1.333,1.28,1.334,2.254
			c0,0.359-0.109,0.895-0.634,1.399c-0.548,0.525-1.348,0.78-2.447,0.78c-0.624,0-1.276-0.079-1.887-0.165
			c-2.621-0.367-5.307-0.562-7.768-0.562c-1.064,0-2.095,0.036-3.063,0.107c-0.617,0.05-1.23,0.131-1.92,0.256
			c-0.405,0.077-0.776,0.116-1.124,0.116c-0.598,0-1.137-0.111-1.649-0.342c-0.901-0.406-1.177-0.998-1.25-1.423
			c-0.112-0.651,0.165-1.303,0.824-1.937c0.633-0.617,1.609-0.81,2.57-0.927l0.06-0.007h0.061c1.218,0,2.418,0.016,3.618,0.059
			c0.458,0.016,0.916,0.043,1.373,0.071c0.651,0.039,1.301,0.08,1.951,0.08c0.48,0,0.908-0.023,1.306-0.069
			c3.143-0.369,3.164-0.847,3.332-4.56l0.049-1.026c0.089-1.635-0.146-2.652-0.74-3.204c-0.856-0.79-1.675-1.572-2.46-2.342
			c-2.099-2.064-3.184-7.449-4.333-13.149c-0.673-3.339-2.074-10.287-3.184-10.287c-0.003,0-0.323,0.024-0.955,0.865
			c-1.658,2.216-3.371,4.032-5.236,5.551l-0.379,0.312c-0.864,0.712-1.34,1.104-1.987,1.104c-0.928,0-1.363-0.826-1.682-1.431
			c-0.313-0.597-0.563-0.837-1.111-1.363c-2.392-2.294-4.532-5.153-6.736-8.998c-0.986-1.723-1.816-3.389-2.694-5.151l-0.39-0.782
			c-1.447-2.89-2.387-4.608-2.793-5.106c-1.749-1.962-2.804-3.081-4.799-4.716c-0.131-0.097-0.352-0.25-0.605-0.427
			c-2.333-1.628-4.594-3.374-4.382-5.239c0.072-0.631,0.465-1.507,1.925-2.094c0.381-0.153,0.761-0.23,1.129-0.23
			c1.694,0,2.644,1.557,3.336,2.694c0.114,0.187,0.225,0.369,0.337,0.541c0.297,0.473,1.376,2.043,2.247,3.242
			c-0.363-0.878-0.82-1.823-1.228-2.485c-0.094-0.157-0.191-0.312-0.293-0.473c-0.685-1.089-1.623-2.579-1.315-4.12
			c0.25-1.267,1.518-2.152,3.082-2.152c0.716,0,1.395,0.194,1.91,0.547c1.326,0.908,1.606,3.879,1.644,8.704
			c0.004,0.578,0.005,1.017,0.025,1.214c0.157,0.956,0.646,1.718,0.921,2.003c0.037-0.022,0.084-0.052,0.142-0.093
			c0.582-0.409,1.123-0.79,1.243-1.208c1.042-3.639,3.009-4.031,3.806-4.031c0.517,0,1.019,0.149,1.452,0.433
			c1.354,0.885,1.567,2.931,1.286,4.101c-0.324,1.379-1.612,1.601-2.552,1.762c-1.288,0.221-2.619,0.449-3.428,2.759
			c-0.37,1.051-0.142,1.563,0.366,2.53c0.417,0.798,0.811,1.61,1.204,2.423c0.538,1.109,1.094,2.256,1.693,3.325
			c1.605,2.858,3.767,5.339,6.592,7.561c1.491-1.47,2.946-3.133,4.428-5.062c0.464-0.604,0.753-1.528,1.032-2.423
			c0.118-0.378,0.234-0.748,0.36-1.092c0.48-1.311,1.053-2.165,2.559-2.655c1.862-0.61,1.399-6.828,1.247-8.872l-0.049-0.688
			c-0.318-4.746-1.875-7.188-3.382-9.551c-1.54-2.416-3.133-4.913-3.133-9.508c0-6.021,4.899-10.92,10.92-10.92
			c6.022,0,10.921,4.899,10.921,10.92c0,3.065-1.253,7.212-2.58,11.603c-1.363,4.512-2.773,9.176-3.153,13.449
			c-0.061,0.684,0.063,1.199,0.366,1.531c0.493,0.539,1.442,0.619,1.964,0.619c0.542,0,1.147-0.084,1.66-0.23
			c0.922-0.265,1.088-0.825,1.455-3.325c0.168-1.147,0.377-2.575,0.803-4.293c1.125-4.539,1.595-8.762,1.434-12.911
			c-0.203-5.213-1.392-9.504-2.646-13.365c-0.217-0.669-0.47-1.356-0.726-2.052c-1.436-3.902-3.222-8.759,1.068-12.362
			c1.827-1.533,4.21-2.413,6.539-2.413c5.079,0,9.21,4.132,9.21,9.21c0,7.112-2.597,14.3-4.889,20.641
			c-2.558,7.077-4.766,13.189-2.408,16.55c1.589,2.263,5.306,3.363,11.364,3.362c0.999,0,2.077-0.03,3.202-0.091
			c0.258-0.015,0.518-0.021,0.779-0.021c1.259,0,2.513,0.145,3.726,0.284c1.029,0.119,2.002,0.23,2.82,0.23
			c1.947,0,2.119-0.617,2.15-1.49c0.068-1.959,0.194-3.966,0.372-5.964c0.48-5.405-0.694-8.338-1.83-11.174
			c-0.886-2.21-1.722-4.298-1.722-7.276c0-4.513,3.67-8.185,8.182-8.185c4.513,0,8.185,3.672,8.185,8.185
			c0,2.798-0.767,6.475-1.578,10.367c-0.644,3.085-1.309,6.275-1.544,8.928c-0.164,1.845-0.28,3.691-0.346,5.489
			c-0.034,0.942,0.227,1.709,0.774,2.276c0.557,0.577,1.384,0.908,2.27,0.907c0.826,0,1.583-0.292,2.076-0.803
			c0.465-0.48,0.687-1.133,0.66-1.938c-0.142-4.164-0.012-8.523,0.384-12.96c0.494-5.559-0.622-8.877-1.701-12.086
			c-0.809-2.407-1.573-4.68-1.573-7.634c0-4.325,3.519-7.843,7.843-7.843c4.325,0,7.844,3.519,7.844,7.843
			c0,3.197-0.734,7.554-1.445,11.768c-0.514,3.046-1.044,6.196-1.275,8.797c-0.337,3.785-0.466,7.485-0.384,10.995
			c0.066,2.841,2.545,4.112,4.972,4.112c2.458,0,5.009-1.302,5.169-4.21c0.066-1.243,0.159-2.537,0.275-3.847
			c0.479-5.396-1.331-7.193-3.429-9.274c-1.982-1.967-4.229-4.196-4.229-9.519c0-7.153,5.819-12.973,12.973-12.973
			s12.973,5.819,12.973,12.973c0,3.168-2.313,7.891-4.354,12.056c-1.297,2.646-3.238,6.609-3.007,7.608
			c0.019,0.001,0.041,0.002,0.067,0.002c0.2,0,0.677-0.059,1.62-0.454c2.544-1.071,4.939-1.773,7.321-2.145l0.484-0.076
			c0.593-0.095,1.021-0.164,1.378-0.164c0.189,0,0.764,0,1.195,0.452c0.489,0.512,0.456,1.253,0.429,1.849
			c-0.031,0.674,0.063,1.007,0.271,1.736c0.906,3.195,1.309,6.744,1.268,11.171c-0.02,1.994-0.146,3.859-0.279,5.835l-0.057,0.842
			c-0.264,4.013-0.238,5.381-0.171,5.822c0.533,2.644,0.863,4.074,1.76,6.49c0.064,0.149,0.177,0.394,0.307,0.674
			c1.155,2.506,2.201,5.081,1.224,6.607c-0.297,0.465-0.904,1.02-2.105,1.02c0,0,0,0-0.001,0c-0.212-0.001-0.446-0.018-0.701-0.056
			c-2.54-0.379-2.584-2.886-2.61-4.384c-0.004-0.219-0.007-0.433-0.017-0.638c-0.018-0.542-0.156-2.443-0.301-3.924
			c-0.129,0.939-0.213,1.981-0.195,2.757c0.002,0.183,0.008,0.366,0.014,0.557c0.041,1.285,0.097,3.046-0.948,4.22
			c-0.469,0.528-1.148,0.821-1.914,0.821c-1.3,0-2.677-0.842-3.204-1.958c-0.684-1.453,0.571-4.154,2.971-8.329
			c0.292-0.508,0.515-0.89,0.598-1.071c0.349-0.906,0.312-1.811,0.219-2.196c-0.004-0.001-0.115,0.002-0.172,0.007
			c-0.707,0.061-1.366,0.117-1.68,0.417c-1.348,1.286-2.646,1.938-3.86,1.938c-1.098,0-2.031-0.557-2.495-1.488
			c-0.722-1.445,0.127-3.32,0.961-4.189c0.393-0.413,0.903-0.633,1.473-0.633c0.552,0,1.07,0.195,1.619,0.401
			c0.584,0.22,1.188,0.447,1.852,0.447c0.815,0,1.634-0.358,2.501-1.096c0.85-0.718,0.912-1.275,0.963-2.37
			c0.044-0.902,0.114-1.806,0.186-2.709c0.096-1.225,0.195-2.491,0.219-3.716c0.06-3.276-0.553-6.508-1.87-9.853
			c-2.034,0.516-4.129,1.216-6.378,2.131c-3.518,1.431-3.566,2.873-3.686,6.355c-0.423,12.526-1.39,25.301-8.012,31.812
			c-0.648,0.637-1.324,1.283-2.03,1.938c-0.442,0.41-0.624,1.229-0.556,2.5l0.041,0.851c0.141,3.05,0.151,3.299,2.594,3.586
			c0.317,0.037,0.66,0.055,1.047,0.055c0.53,0,1.062-0.033,1.594-0.065c0.381-0.023,0.763-0.046,1.145-0.059
			c0.992-0.032,1.983-0.049,2.99-0.049h0.063l0.062,0.008c0.818,0.103,1.652,0.271,2.213,0.808c0.59,0.57,0.834,1.161,0.729,1.76
			c-0.069,0.393-0.321,0.937-1.133,1.3c-0.446,0.199-0.915,0.296-1.436,0.296c-0.293,0-0.606-0.031-0.959-0.097
			c-0.561-0.106-1.053-0.172-1.552-0.207c-0.804-0.06-1.656-0.09-2.537-0.09c-2.01,0-4.207,0.158-6.354,0.458
			C116.902,148.933,116.356,149,115.827,149z"/>
		<path style="fill:#FFFFFF;" d="M58.761,48.66c4.532,0,8.21,3.677,8.21,8.21c0,20.215-21.693,41.553,5.068,41.553
			c1.014,0,2.099-0.03,3.256-0.093c0.24-0.013,0.481-0.019,0.725-0.019c2.282,0,4.697,0.515,6.546,0.515
			c1.812,0,3.081-0.495,3.149-2.455c0.065-1.855,0.184-3.828,0.369-5.91c0.872-9.815-3.548-11.985-3.548-18.539
			c0-3.967,3.217-7.185,7.182-7.185c3.969,0,7.185,3.218,7.185,7.185c0,4.938-2.588,13.24-3.118,19.206
			c-0.175,1.964-0.286,3.813-0.349,5.542c-0.102,2.815,1.999,4.22,4.043,4.22c1.936,0,3.82-1.26,3.735-3.775
			c-0.122-3.605-0.059-7.913,0.381-12.837c0.885-9.956-3.271-13.174-3.271-19.81c0-3.778,3.064-6.843,6.843-6.843
			c3.779,0,6.844,3.065,6.844,6.843c0,5.408-2.164,14.257-2.717,20.476c-0.379,4.258-0.461,7.975-0.388,11.107
			c0.08,3.388,3.01,5.089,5.972,5.089c2.973,0,5.979-1.714,6.167-5.155c0.065-1.225,0.156-2.497,0.273-3.813
			c0.999-11.235-7.653-8.621-7.653-18.882c0-6.612,5.361-11.973,11.973-11.973s11.973,5.361,11.973,11.973
			c0,6.417-10.707,20.667-6.294,20.667c0.479,0,1.138-0.168,2.007-0.532c2.438-1.026,4.752-1.714,7.089-2.078
			c0.813-0.126,1.354-0.229,1.708-0.229c0.6,0,0.669,0.293,0.625,1.256c-0.038,0.822,0.083,1.264,0.308,2.055
			c0.901,3.179,1.269,6.687,1.229,10.888c-0.021,2.249-0.185,4.376-0.334,6.62c-0.154,2.35-0.302,5.123-0.161,6.04
			c0.529,2.632,0.877,4.17,1.811,6.687c0.695,1.643,3.59,6.953,0.361,6.953c-0.168,0-0.353-0.015-0.555-0.045
			c-1.962-0.293-1.7-2.469-1.774-4.078c-0.023-0.731-0.344-5.137-0.572-5.945c-0.193-0.677-0.133-0.98-0.505-0.98
			c-0.072,0-0.16,0.012-0.271,0.034c-0.719,0.146-1.185,4.094-1.147,5.792c0.014,1.252,0.229,3.068-0.682,4.09
			c-0.302,0.341-0.721,0.486-1.167,0.486c-0.909,0-1.931-0.604-2.3-1.385c-0.75-1.594,3.143-7.611,3.574-8.56
			c0.515-1.33,0.439-2.746,0.109-3.285c-0.132-0.21-0.387-0.326-0.813-0.326c-0.076,0-0.157,0.004-0.245,0.012
			c-0.819,0.07-1.7,0.131-2.285,0.69c-1.277,1.219-2.352,1.66-3.169,1.66c-0.79,0-1.341-0.413-1.601-0.935
			c-0.461-0.924,0.121-2.355,0.788-3.052c0.225-0.235,0.474-0.324,0.751-0.324c0.857,0,1.983,0.849,3.471,0.849
			c0.908,0,1.951-0.316,3.148-1.333c1.151-0.974,1.258-1.871,1.314-3.086c0.104-2.146,0.364-4.31,0.405-6.452
			c0.07-3.874-0.787-7.552-2.27-11.046c-2.475,0.57-4.931,1.392-7.355,2.379c-4.013,1.632-4.182,3.539-4.308,7.247
			c-0.387,11.446-1.153,24.682-7.714,31.133c-0.642,0.63-1.311,1.27-2.009,1.917c-0.739,0.686-0.954,1.811-0.875,3.287
			c0.198,3.729-0.052,4.957,3.518,5.376c0.388,0.045,0.775,0.062,1.163,0.062c0.922,0,1.845-0.094,2.771-0.125
			c0.98-0.031,1.961-0.048,2.957-0.048c0.734,0.092,1.322,0.229,1.646,0.538c0.75,0.725,0.438,1.174-0.12,1.424
			c-0.34,0.152-0.683,0.209-1.027,0.209c-0.258,0-0.517-0.032-0.777-0.08c-0.599-0.113-1.135-0.184-1.663-0.221
			c-0.848-0.063-1.722-0.093-2.607-0.093c-2.174,0-4.414,0.178-6.492,0.468c-0.471,0.067-0.977,0.13-1.444,0.13
			c-0.587,0-1.114-0.099-1.44-0.413c-0.872-0.84,0.62-1.73,1.012-2.278c0.952-1.346,0.122-4.082-0.894-5.163
			c-0.626-0.668-1.298-0.992-2.023-1.171c-12.018-2.949-26.615-8.928-39.699-8.928c-7.856,0-15.168,2.157-21.042,8.422
			c-1.229,1.308-2.239,4.632-1.08,6.263c0.474,0.668,2.285,1.747,1.225,2.768c-0.397,0.382-1.04,0.501-1.753,0.501
			c-0.567,0-1.179-0.075-1.748-0.155c-2.531-0.354-5.259-0.571-7.907-0.571c-1.064,0-2.116,0.035-3.136,0.11
			c-0.645,0.052-1.293,0.137-2.024,0.269c-0.316,0.061-0.632,0.101-0.946,0.101c-0.416,0-0.829-0.07-1.239-0.254
			c-0.678-0.306-1.056-0.849-0.143-1.727c0.39-0.38,1.103-0.546,1.997-0.654c1.206,0,2.395,0.016,3.583,0.058
			c1.126,0.038,2.243,0.152,3.359,0.152c0.474,0,0.948-0.021,1.422-0.076c4.33-0.509,4.027-2,4.264-6.526
			c0.098-1.793-0.16-3.155-1.058-3.989c-0.851-0.785-1.663-1.561-2.44-2.323c-3.92-3.856-4.513-23.722-8.217-23.722
			c-0.518,0-1.097,0.389-1.754,1.264c-1.585,2.119-3.235,3.884-5.068,5.376c-0.943,0.769-1.398,1.19-1.735,1.19
			c-0.277,0-0.475-0.284-0.797-0.896c-0.381-0.729-0.71-1.05-1.303-1.619c-2.385-2.287-4.472-5.129-6.562-8.773
			c-1.118-1.952-2.052-3.871-3.058-5.884c-1.054-2.104-2.327-4.573-2.913-5.291c-1.786-2.006-2.863-3.156-4.94-4.857
			c-1.503-1.121-7.16-4.517-3.323-6.059c0.272-0.109,0.523-0.158,0.756-0.158c1.342,0,2.087,1.63,2.834,2.78
			c0.391,0.62,2.893,4.261,3.499,4.841c0.403,0.386,0.549,0.649,0.752,0.649c0.103,0,0.221-0.067,0.394-0.223
			c0.548-0.49-1.045-4.133-1.936-5.58c-0.644-1.072-1.747-2.531-1.479-3.872c0.176-0.894,1.152-1.349,2.102-1.349
			c0.494,0,0.981,0.123,1.345,0.372c1.452,0.995,1.134,8.156,1.239,9.193c0.229,1.407,1.009,2.591,1.567,2.889
			c0.083,0.043,0.173,0.066,0.275,0.066c0.214,0,0.474-0.103,0.795-0.33c0.673-0.474,1.403-0.97,1.625-1.749
			c0.708-2.475,1.881-3.306,2.845-3.306c0.336,0,0.647,0.102,0.905,0.27c0.864,0.564,1.085,2.094,0.86,3.03
			c-0.445,1.892-4.304-0.277-5.952,4.423c-0.501,1.422-0.141,2.25,0.425,3.326c0.994,1.904,1.863,3.905,2.911,5.772
			c1.897,3.379,4.495,6.12,7.54,8.388c1.846-1.742,3.551-3.693,5.146-5.769c0.787-1.025,1.096-2.572,1.539-3.779
			c0.419-1.144,0.807-1.684,1.93-2.049c2.828-0.927,2.057-7.993,1.885-10.577c-0.666-9.938-6.512-10.329-6.512-18.993
			c0-5.478,4.443-9.92,9.92-9.92c5.479,0,9.921,4.442,9.921,9.92c0,5.89-4.958,16.294-5.729,24.963
			c-0.225,2.538,1.588,3.239,3.327,3.239c0.704,0,1.396-0.115,1.935-0.27c2.406-0.688,1.67-3.161,2.953-8.339
			c1.244-5.015,1.611-9.355,1.462-13.19c-0.209-5.391-1.441-9.78-2.694-13.635c-1.44-4.435-4.399-9.616,0.034-13.339
			C54.463,49.497,56.635,48.66,58.761,48.66 M58.761,46.66c-2.561,0-5.178,0.964-7.182,2.646c-4.829,4.056-2.826,9.499-1.364,13.474
			c0.069,0.188,0.137,0.372,0.203,0.554c-2.18-2.363-5.301-3.846-8.763-3.846c-6.573,0-11.92,5.348-11.92,11.92
			c0,4.886,1.672,7.509,3.29,10.045c1.505,2.36,2.926,4.589,3.227,9.081c0.014,0.205,0.031,0.438,0.05,0.694
			c0.475,6.38-0.252,7.622-0.587,7.86c-1.85,0.598-2.605,1.733-3.161,3.25c-0.131,0.356-0.252,0.742-0.376,1.137
			c-0.253,0.811-0.515,1.648-0.871,2.112c-1.244,1.619-2.467,3.045-3.708,4.323c-2.385-1.993-4.241-4.199-5.648-6.704
			c-0.584-1.042-1.109-2.125-1.665-3.271c-0.39-0.804-0.792-1.635-1.217-2.447c-0.477-0.907-0.536-1.099-0.312-1.736
			c0.616-1.757,1.427-1.896,2.655-2.107c1.007-0.173,2.88-0.494,3.357-2.522c0.406-1.689-0.055-4.079-1.713-5.162
			c-0.596-0.39-1.287-0.596-1.999-0.596c-1.024,0-3.538,0.464-4.768,4.755c-0.021,0.032-0.072,0.081-0.141,0.14
			c-0.086-0.207-0.163-0.448-0.212-0.713c-0.01-0.187-0.014-0.656-0.017-1.075c-0.042-5.397-0.375-8.353-2.079-9.52
			c-0.681-0.467-1.56-0.723-2.476-0.723c-2.048,0-3.72,1.218-4.063,2.961c-0.028,0.14-0.048,0.276-0.062,0.413
			c-0.561-0.375-1.23-0.621-2.041-0.621c-0.497,0-1.002,0.102-1.502,0.303c-1.917,0.771-2.443,2.007-2.545,2.908
			c-0.275,2.413,2.115,4.297,4.803,6.173c0.226,0.157,0.425,0.296,0.581,0.41c1.912,1.569,2.895,2.608,4.641,4.57
			c0.189,0.244,0.802,1.198,2.654,4.896l0.389,0.78c0.885,1.776,1.721,3.454,2.721,5.202c2.253,3.93,4.45,6.86,6.913,9.223
			c0.55,0.528,0.688,0.67,0.916,1.104c0.338,0.643,1.038,1.969,2.569,1.969c1.005,0,1.684-0.559,2.623-1.332l0.375-0.308
			c1.929-1.571,3.698-3.445,5.406-5.729c0.011-0.015,0.021-0.028,0.031-0.041c0.836,1.678,1.715,6.039,2.325,9.063
			c1.18,5.854,2.295,11.385,4.611,13.663c0.831,0.814,1.667,1.61,2.487,2.367c0.34,0.316,0.486,1.151,0.417,2.41
			c-0.019,0.368-0.035,0.712-0.05,1.038c-0.061,1.338-0.118,2.602-0.372,3.007c-0.074,0.116-0.423,0.41-2.079,0.604
			c-0.357,0.042-0.747,0.063-1.188,0.063c-0.609,0-1.232-0.038-1.891-0.078c-0.466-0.029-0.933-0.057-1.4-0.073
			c-1.118-0.039-2.313-0.059-3.651-0.059h-0.121l-0.12,0.015c-1.134,0.138-2.301,0.379-3.151,1.207
			c-1.128,1.084-1.226,2.132-1.107,2.818c0.094,0.543,0.456,1.547,1.823,2.164c0.638,0.286,1.331,0.431,2.062,0.431
			c0.412,0,0.844-0.045,1.322-0.137c0.636-0.114,1.218-0.191,1.809-0.239c0.931-0.068,1.937-0.104,2.976-0.104
			c2.416,0,5.054,0.191,7.63,0.552c0.646,0.091,1.34,0.175,2.025,0.175c1.37,0,2.396-0.346,3.138-1.058
			c0.78-0.752,0.943-1.569,0.943-2.123c-0.001-1.399-0.989-2.347-1.642-2.974c-0.108-0.104-0.256-0.246-0.301-0.301
			c-0.385-0.543,0.073-2.796,0.928-3.707c4.916-5.243,11.322-7.791,19.584-7.791c8.998,0,18.72,2.915,28.123,5.734
			c3.891,1.166,7.566,2.269,11.1,3.136c0.45,0.111,0.743,0.278,1.041,0.596c0.548,0.584,0.924,2.161,0.726,2.625
			c-0.055,0.057-0.12,0.116-0.188,0.181c-0.548,0.525-1.465,1.403-1.467,2.708c-0.001,0.741,0.313,1.452,0.882,2.001
			c0.679,0.654,1.604,0.973,2.827,0.973c0.593,0,1.181-0.072,1.728-0.15c2.096-0.292,4.245-0.447,6.21-0.447
			c0.856,0,1.684,0.029,2.459,0.087c0.468,0.033,0.923,0.094,1.439,0.191c0.422,0.078,0.795,0.115,1.149,0.115
			c0.654,0,1.274-0.129,1.843-0.383c1.277-0.571,1.62-1.523,1.711-2.04c0.113-0.65,0.03-1.638-1.017-2.648
			c-0.779-0.746-1.846-0.967-2.787-1.084l-0.123-0.016h-0.125c-1,0-1.988,0.016-3.021,0.049c-0.395,0.014-0.785,0.037-1.175,0.061
			c-0.536,0.032-1.043,0.063-1.533,0.063c-0.348,0-0.653-0.016-0.934-0.048c-1.207-0.143-1.459-0.346-1.47-0.354
			c-0.145-0.233-0.196-1.371-0.238-2.284c-0.013-0.271-0.025-0.556-0.042-0.857c-0.074-1.383,0.206-1.685,0.238-1.714
			c0.685-0.636,1.375-1.294,2.05-1.957c6.886-6.771,7.881-19.764,8.312-32.492c0.117-3.455,0.146-4.275,3.062-5.462
			c1.889-0.769,3.665-1.383,5.385-1.859c1.052,2.925,1.54,5.766,1.487,8.638c-0.022,1.192-0.116,2.389-0.216,3.654
			c-0.07,0.894-0.143,1.816-0.188,2.736c-0.047,1.025-0.093,1.221-0.607,1.656c-1.014,0.86-1.648,0.86-1.857,0.86
			c-0.481,0-0.977-0.187-1.5-0.383c-0.608-0.229-1.237-0.466-1.971-0.466c-0.85,0-1.61,0.327-2.199,0.945
			c-1.205,1.257-2.013,3.554-1.13,5.323c0.628,1.26,1.927,2.042,3.391,2.042c1.479,0,3.011-0.745,4.55-2.213
			c0.034-0.019,0.103-0.035,0.191-0.05c-0.031,0.223-0.086,0.47-0.178,0.724c-0.086,0.165-0.323,0.578-0.534,0.946
			c-2.686,4.673-3.888,7.387-3.01,9.253c0.693,1.469,2.421,2.533,4.109,2.533c1.056,0,2.002-0.412,2.664-1.16
			c0.1-0.111,0.191-0.227,0.275-0.344c0.467,0.995,1.319,1.85,2.884,2.084c0.297,0.044,0.582,0.065,0.85,0.065
			c1.742,0,2.596-0.927,2.949-1.479c1.25-1.954,0.166-4.693-1.158-7.565c-0.115-0.25-0.218-0.47-0.294-0.647
			c-0.853-2.306-1.177-3.702-1.697-6.284c-0.039-0.313-0.085-1.458,0.186-5.571l0.057-0.84c0.135-1.989,0.262-3.868,0.281-5.892
			c0.042-4.525-0.373-8.164-1.306-11.453c-0.208-0.733-0.256-0.925-0.233-1.416c0.031-0.705,0.08-1.767-0.704-2.587
			c-0.483-0.505-1.129-0.762-1.919-0.762c-0.438,0-0.897,0.074-1.535,0.177l-0.479,0.075c-2.465,0.385-4.938,1.107-7.559,2.212
			c-0.005,0.002-0.009,0.004-0.014,0.006c0.542-1.56,1.746-4.017,2.62-5.801c2.191-4.472,4.457-9.096,4.457-12.497
			c0-7.705-6.269-13.973-13.973-13.973c-4.86,0-9.148,2.494-11.652,6.27c0.017-0.385,0.025-0.759,0.025-1.119
			c0-4.876-3.968-8.843-8.844-8.843s-8.843,3.967-8.843,8.843c0,0.382,0.013,0.753,0.035,1.117
			c-1.673-1.753-4.032-2.848-6.642-2.848c-5.063,0-9.182,4.121-9.182,9.185c0,3.171,0.911,5.447,1.793,7.648
			c1.093,2.727,2.222,5.547,1.763,10.714c-0.18,2.015-0.306,4.039-0.376,6.017c-0.008,0.223-0.039,0.337-0.056,0.383
			c-0.077,0.038-0.355,0.143-1.095,0.143c-0.761,0-1.705-0.108-2.705-0.224c-1.184-0.137-2.524-0.291-3.841-0.291
			c-0.279,0-0.557,0.007-0.833,0.021c-1.109,0.06-2.168,0.09-3.148,0.09c-5.629,0-9.178-0.988-10.546-2.938
			c-2.06-2.936,0.169-9.104,2.529-15.635c2.319-6.418,4.948-13.693,4.948-20.981C68.971,51.241,64.391,46.66,58.761,46.66
			L58.761,46.66z M49.175,97.611c-0.661,0-1.093-0.148-1.227-0.295c-0.099-0.107-0.14-0.402-0.108-0.768
			c0.371-4.171,1.765-8.785,3.114-13.247c0.939-3.107,1.841-6.094,2.304-8.706c0.131,1.058,0.224,2.153,0.269,3.295
			c0.157,4.054-0.302,8.186-1.405,12.631c-0.437,1.766-0.651,3.221-0.822,4.39c-0.335,2.288-0.445,2.424-0.74,2.508
			C50.133,97.541,49.628,97.611,49.175,97.611L49.175,97.611z M97.479,98.891c-0.606,0-1.187-0.225-1.55-0.602
			c-0.352-0.365-0.519-0.885-0.494-1.546c0.064-1.781,0.179-3.61,0.342-5.437c0.23-2.595,0.89-5.755,1.526-8.813
			c0.573-2.746,1.123-5.387,1.405-7.716c0.728,2.475,1.253,5.294,0.895,9.324c-0.399,4.476-0.53,8.877-0.388,13.081
			c0.019,0.532-0.106,0.928-0.38,1.211C98.534,98.705,98.027,98.891,97.479,98.891L97.479,98.891z M114.878,99.141
			c-1.448,0-3.914-0.661-3.973-3.136c-0.081-3.473,0.047-7.135,0.381-10.883c0.192-2.163,0.599-4.732,1.027-7.303
			c0.878,2.725,2.493,4.327,3.876,5.7c1.997,1.982,3.575,3.548,3.137,8.477c-0.117,1.32-0.211,2.627-0.278,3.883
			C118.906,98.453,116.36,99.141,114.878,99.141L114.878,99.141z"/>
	</g>
</g>
<g id="Layer_1">
</g>
</svg>
