<?xml version="1.0" encoding="iso-8859-1"?>
<!-- Generator: Adobe Illustrator 16.0.0, SVG Export Plug-In . SVG Version: 6.00 Build 0)  -->
<!DOCTYPE svg PUBLIC "-//W3C//DTD SVG 1.1//EN" "http://www.w3.org/Graphics/SVG/1.1/DTD/svg11.dtd">
<svg version="1.1" xmlns="http://www.w3.org/2000/svg" xmlns:xlink="http://www.w3.org/1999/xlink" x="0px" y="0px" width="150px"
	 height="150px" viewBox="0 0 150 150" style="enable-background:new 0 0 150 150;" xml:space="preserve">
<g id="_x30_2_x5F_03">
	<rect style="fill:none;" width="150" height="150"/>
	<g>
		<path style="fill-rule:evenodd;clip-rule:evenodd;fill:#228690;" d="M25.697,64.135c-0.948-0.941-3.016-0.972-4.834,2.497
			c-0.429,0.814-1.343,1.193-2.196,1.56c-0.599,0.266-0.991,0.257-1.24,0.049c-0.549-0.455-1.14-1.945-1.071-3.553
			c0.117-1.167,2.112-9.004,0.731-10.436c-1.004-1.042-3.423-1.149-4.026,0.289c-0.606,1.424,0.276,3.281,0.747,4.618
			c0.648,1.799,1.576,6.188,0.859,6.604c-0.674,0.394-0.629,0.051-1.169-0.73c-0.536-0.785-2.467-5.375-2.758-6.149
			c-0.662-1.694-1.165-4.112-3.371-3.718c-4.588,0.824,0.887,5.875,2.289,7.453c1.907,2.354,2.836,3.875,4.345,6.496
			c0.555,1.063,1.586,4.845,2.303,7.55c0.732,2.764,1.304,4.623,2.461,7.36c4.608,10.919,10.943,15.692,24.579,21.384
			c8.586,4.146,3.692,23.273,3.214,32.482c-0.315,5.912,0.079,7.854-5.579,8.523c-2.083,0.246-4.146-0.025-6.239-0.098
			c-1.559-0.057-3.108-0.076-4.682-0.076c-1.171,0.139-2.099,0.352-2.612,0.848c-1.19,1.152-0.695,1.857,0.19,2.258
			c0.945,0.422,1.897,0.379,2.854,0.207c0.954-0.176,1.799-0.289,2.641-0.354c4.655-0.344,9.79-0.049,14.43,0.598
			c1.686,0.238,3.645,0.443,4.573-0.451c1.385-1.33-0.988-2.746-1.602-3.615c-0.696-0.979-0.488-3.928,0.156-7.5
			c2.251-12.516,6.814-4.332,25.444-4.332c19.088,0,23.123-9.162,25.55,4.332c0.645,3.572,0.854,6.521,0.156,7.5
			c-0.613,0.869-2.988,2.285-1.602,3.615c0.929,0.895,2.888,0.689,4.572,0.451c4.64-0.646,9.774-0.941,14.43-0.598
			c0.842,0.064,1.688,0.178,2.642,0.354c0.957,0.172,1.91,0.215,2.854-0.207c0.885-0.4,1.381-1.105,0.19-2.258
			c-0.514-0.496-1.441-0.709-2.613-0.848c-1.572,0-3.123,0.02-4.681,0.076c-2.093,0.072-4.156,0.344-6.238,0.098
			c-5.658-0.67-5.265-2.611-5.579-8.523l1.424-24.945c0.639-11.203-1.356-7.289,7.788-11.811
			c9.354-4.625,14.357-9.453,18.173-18.498c1.158-2.736,1.729-4.598,2.462-7.359c0.718-2.705,1.748-6.487,2.303-7.55
			c1.509-2.621,2.438-4.142,4.346-6.496c1.402-1.578,6.876-6.629,2.288-7.453c-2.206-0.394-2.708,2.023-3.37,3.718
			c-0.291,0.774-2.223,5.364-2.758,6.149c-0.541,0.782-0.496,1.125-1.169,0.731c-0.718-0.417,0.211-4.805,0.859-6.604
			c0.47-1.337,1.353-3.193,0.746-4.617c-0.603-1.438-3.021-1.332-4.025-0.289c-1.381,1.432,0.615,9.27,0.731,10.436
			c0.068,1.609-0.521,3.098-1.07,3.553c-0.25,0.208-0.643,0.217-1.241-0.049c-0.853-0.366-1.768-0.745-2.196-1.56
			c-1.819-3.469-3.886-3.438-4.835-2.497c-0.825,0.825-0.72,2.565-0.256,3.55c0.922,1.984,4.687-1.297,7.586,3.521
			c1.184,1.967,0.39,3.085-0.125,5.302c-0.563,2.435-0.977,3.894-2.237,6.292c-4.225,8.033-12.577,13.566-17.127,15.488
			c-7.714,3.254-5.91-0.797-5.563-6.893l0.917-16.072c0.146-9.965,5.368-23.571,5.368-25.131c0-5.691-4.617-10.503-10.305-10.305
			c-15.75,0.549-11.251,15.983-6.007,21.438c7.86,8.175,7.716,25.057-4.088,26.429c-3.098,0.362-5.947-2.479-5.305-14.502
			c0.612-11.354-2.278-18.103-2.278-29.483c0-7.691-6.235-13.926-13.926-13.926C65.235,28.454,59,34.689,59,42.38
			c0,10.08,7.991,7.507,7.065,24.695c-0.201,3.745-0.757,8.174-1.825,13.509c-0.399,1.994-1.146,2.688-2.66,2.963
			c-4.599,0.849-4.109-19.211-3.988-22.256c0.131-3.167,0.156-8.26-1.652-11.007c-1.596-2.422-4.34-4.022-7.459-4.022
			c-4.929,0-8.924,3.995-8.924,8.924c0,3.247,1.734,6.088,4.326,7.65c4.361,2.626,4.669-0.324,5.585,7.462
			c0.648,9.199,3.489,19.902-3.464,27.652c-1.146,1.277-2.635,1.549-5.907,1.053C36.881,98.518,25.816,92.469,20.73,82.8
			c-1.261-2.399-1.675-3.858-2.238-6.292c-0.514-2.217-1.308-3.336-0.125-5.303c2.9-4.817,6.664-1.536,7.586-3.521
			C26.417,66.7,26.522,64.959,25.697,64.135z"/>
		<polygon style="fill-rule:evenodd;clip-rule:evenodd;fill:#FFFFFF;" points="58.459,101.758 62.696,102.879 58.562,105.92 		"/>
		<polygon style="fill-rule:evenodd;clip-rule:evenodd;fill:#FFFFFF;" points="59.926,114.469 65.766,113.59 62.492,119.168 		"/>
		<polygon style="fill-rule:evenodd;clip-rule:evenodd;fill:#FFFFFF;" points="67.963,123.707 71.148,118.5 72.271,125.424 		"/>
		<polygon style="fill-rule:evenodd;clip-rule:evenodd;fill:#FFFFFF;" points="80.087,125.357 78.695,116.564 85.1,122.861 		"/>
		<polygon style="fill-rule:evenodd;clip-rule:evenodd;fill:#FFFFFF;" points="88.961,119.016 85.809,113.227 91.257,113.959 		"/>
		<polygon style="fill-rule:evenodd;clip-rule:evenodd;fill:#FFFFFF;" points="92.267,108.584 89.894,106.5 92.434,104.623 		"/>
		<path style="fill-rule:evenodd;clip-rule:evenodd;" d="M75.524,128.057c-5.626,0-10.929-2.23-14.527-7.533
			c-1.818-2.689-2.995-5.879-3.596-9.252c-0.643-3.629-0.602-7.408-0.055-11.053c0.127-0.869,0.272-1.756,0.448-2.617
			c0.049-0.258,0.1-0.518,0.173-0.77c0.025-0.096,0.061-0.193,0.101-0.281c0.125-0.266,0.358-0.439,0.628-0.396
			c0.643,0.121,0.527,1.074,0.496,1.609c-0.063,0.963-0.169,1.939-0.267,2.895c-0.691,6.334,0.302,13.186,3.887,18.143
			c3.234,4.494,7.82,6.381,12.712,6.381c4.716,0,9.104-1.756,12.282-6.004c3.765-4.994,4.906-12.105,4.444-18.604
			c-0.069-1.049-0.143-2.102-0.158-3.143c-0.008-0.551-0.07-1.564,0.584-1.648c0.399-0.049,0.608,0.322,0.709,0.705
			c0.073,0.256,0.124,0.527,0.169,0.797c0.158,0.889,0.272,1.813,0.371,2.705c0.823,7.295-0.3,15.303-4.438,21.029
			C85.924,125.953,80.919,128.057,75.524,128.057z"/>
		<circle style="fill-rule:evenodd;clip-rule:evenodd;fill:#FFFFFF;" cx="72.58" cy="42.122" r="12.288"/>
		<circle style="fill-rule:evenodd;clip-rule:evenodd;" cx="71.9" cy="44.699" r="6.951"/>
		<circle style="fill-rule:evenodd;clip-rule:evenodd;fill:#FFFFFF;" cx="104.53" cy="48.804" r="8.925"/>
		<circle style="fill-rule:evenodd;clip-rule:evenodd;" cx="102.318" cy="51.969" r="3.661"/>
		<circle style="fill-rule:evenodd;clip-rule:evenodd;fill:#FFFFFF;" cx="48.481" cy="55.185" r="7.199"/>
		<circle style="fill-rule:evenodd;clip-rule:evenodd;" cx="48.481" cy="55.185" r="3.467"/>
	</g>
</g>
<g id="Layer_1">
</g>
</svg>
