<?xml version="1.0" encoding="iso-8859-1"?>
<!-- Generator: Adobe Illustrator 16.0.0, SVG Export Plug-In . SVG Version: 6.00 Build 0)  -->
<!DOCTYPE svg PUBLIC "-//W3C//DTD SVG 1.1//EN" "http://www.w3.org/Graphics/SVG/1.1/DTD/svg11.dtd">
<svg version="1.1" xmlns="http://www.w3.org/2000/svg" xmlns:xlink="http://www.w3.org/1999/xlink" x="0px" y="0px" width="150px"
	 height="150px" viewBox="0 0 150 150" style="enable-background:new 0 0 150 150;" xml:space="preserve">
<g id="_x30_3_x5F_01_x5F_black">
	<rect style="fill:none;" width="150" height="150"/>
	<g>
		<path d="M118.293,149c-0.741,0-1.291-0.186-1.683-0.568c-0.403-0.393-0.486-0.818-0.484-1.106c0.004-0.737,0.54-1.25,0.896-1.59
			c0.068-0.065,0.135-0.124,0.179-0.178c0.271-0.384-0.04-1.729-0.54-2.27c-0.25-0.262-0.521-0.416-0.892-0.503
			c-3.285-0.808-6.514-1.183-10.17-1.183c-2.713,0-5.313,0.2-8.064,0.412c-2.833,0.218-5.763,0.443-8.904,0.443
			c-0.855,0-1.729-0.017-2.619-0.055c-0.806,0.038-1.706,0.055-2.617,0.055c-3.231,0-6.644-0.215-9.943-0.422
			c-3.395-0.213-6.905-0.434-10.324-0.434c-4.493,0-8.111,0.375-11.388,1.18c-0.38,0.091-0.649,0.244-0.905,0.515
			c-0.494,0.531-0.804,1.875-0.519,2.275c0.038,0.046,0.104,0.104,0.172,0.17c0.353,0.339,0.886,0.85,0.889,1.586
			c0.001,0.287-0.083,0.713-0.488,1.105c-0.393,0.382-0.942,0.566-1.68,0.566c-0.213,0-0.437-0.016-0.658-0.039
			c-0.183,0.026-0.378,0.039-0.592,0.039c-0.455,0-0.926-0.06-1.332-0.114c-0.999-0.142-1.951-0.241-2.834-0.296l-0.158,0.001
			c-0.54,0-1.068,0.021-1.587,0.06c-0.327,0.027-0.662,0.067-1.042,0.136c-0.25,0.049-0.487,0.073-0.711,0.073
			c-0.397,0-0.772-0.079-1.115-0.236c-0.021-0.009-0.046-0.02-0.074-0.032c-0.39,0.036-0.759,0.087-1.127,0.154
			c-0.305,0.055-0.574,0.082-0.826,0.082c-0.458,0-0.871-0.085-1.264-0.26c-0.783-0.35-0.988-0.905-1.04-1.205
			c-0.067-0.383-0.007-0.973,0.656-1.611c0.497-0.484,1.229-0.634,1.944-0.721l0.061-0.008h0.061c0.838,0,1.667,0.015,2.495,0.045
			c0.329,0.009,0.664,0.029,1,0.05c0.427,0.025,0.854,0.052,1.281,0.052c0.282,0,0.565-0.012,0.848-0.045
			c1.887-0.223,1.892-0.32,2.007-2.826l0.035-0.711c0.164-3.127-1.153-5.956-2.546-8.951c-2.284-4.91-4.873-10.475-1.911-18.873
			c1.354-3.838,2.068-6.847,2.316-9.754c0,0,0.157-1.754,0.179-2.028c-0.334,0.222-0.841,0.684-1.523,1.645
			c-3.128,4.412-7.012,7.239-13.405,9.756c-1.672,0.656-3.272,1.179-4.967,1.732l-0.486,0.159c-2.639,0.872-4.21,1.455-4.669,1.73
			c-1.937,1.277-2.971,2.002-4.603,3.489c-0.095,0.096-0.254,0.266-0.437,0.461c-1.579,1.679-3.12,3.186-4.622,3.186
			c-0.623,0-1.731-0.269-2.165-2.068c-0.555-2.271,1.594-3.179,2.748-3.667c0.168-0.071,0.333-0.141,0.49-0.212
			c0.32-0.142,1.02-0.481,1.77-0.859c-0.335,0.111-0.642,0.225-0.892,0.331l-0.407,0.179c-0.795,0.354-1.785,0.796-2.794,0.796
			c-0.359,0-0.701-0.057-1.015-0.168c-0.737-0.263-1.278-0.898-1.486-1.745c-0.255-1.041,0.021-2.223,0.688-2.94
			c0.51-0.553,1.42-0.801,2.95-0.801c1.584,0,3.509,0.267,4.782,0.442c0.494,0.068,0.866,0.123,1.036,0.13
			c0.72-0.014,1.345-0.266,1.646-0.448c-0.003-0.006-0.006-0.013-0.009-0.019c-0.267-0.529-0.512-1.014-0.806-1.145
			c-2.177-0.985-2.841-2.178-3.016-3.005c-0.166-0.783,0.038-1.565,0.557-2.148c0.5-0.573,1.321-0.894,2.304-0.894
			c0.532,0,1.067,0.098,1.507,0.274c1.217,0.482,1.246,1.659,1.268,2.519c0.028,1.135,0.055,2.206,1.851,3.146
			c0.467,0.245,0.759,0.273,0.938,0.273c0.313,0,0.646-0.098,1.152-0.277c0.736-0.258,1.48-0.493,2.224-0.729
			c1.009-0.319,2.052-0.649,3.033-1.027c4.734-1.812,7.597-5.83,10.364-9.716l0.069-0.098l0.09-0.078
			c1.746-1.513,3.07-2.466,4.135-3.231c2.621-1.885,3.093-2.225,3.671-6.842c0.362-2.897,1.154-4.738,1.678-5.957
			c0.193-0.449,0.516-1.201,0.458-1.339c-0.034-0.081-0.281-0.397-2.055-1.093c-12.019-4.713-11.834-5.689-11.686-6.474
			c0.029-0.155,0.231-0.93,1.316-0.93c1.271,0,4.94,1.099,10.231,3.052c-7.147-4.08-6.855-5.226-6.726-5.738
			c0.108-0.426,0.494-0.881,1.253-0.881c1.168,0,3.916,1.255,6.668,2.686c-4.526-2.984-8.848-6.26-8.444-7.661
			c0.142-0.492,0.588-0.809,1.136-0.809c0.405,0,1.57,0,9.493,5.079c-6.89-5.962-6.484-7.088-6.323-7.533
			c0.164-0.452,0.595-0.744,1.099-0.744c0.38,0,1.451,0,7.448,4.892c-3.432-3.783-4.957-6.193-4.539-7.178
			c0.182-0.429,0.591-0.695,1.07-0.695c0.272,0,0.82,0,2.703,1.594c-2.2-2.856-4.022-5.628-3.613-6.532
			c0.179-0.396,0.564-0.642,1.004-0.642c0.562,0,1.485,0,9.685,9.472c-2.685-4.288-5.295-9.015-4.623-10.248
			c0.199-0.366,0.567-0.584,0.983-0.584c0.542,0,1.406,0,6.029,7.075c-5.955-10.442-5.402-11.409-5.183-11.792l0.288-0.503
			l0.651-0.042c0.548,0,1.334,0,6.481,8.39c-1.104-3.31-2.083-6.917-1.465-7.826c0.209-0.308,0.553-0.492,0.92-0.492
			c0.472,0,1.018,0,2.524,3.12c-0.728-2.987-1.175-5.669-0.673-6.375l0.299-0.421l0.591-0.044c0.747,0,1.406,0,4.525,9.367
			c-0.164-2.572-0.139-5.142,0.511-5.887c0.23-0.264,0.541-0.409,0.876-0.409c0.525,0,1.092,0,1.737,2.331
			c-0.042-3.091,0.1-6.029,0.733-6.718l0.297-0.323l0.525-0.046c0.949,0,1.715,0,2.59,11.266c0.787-9.603,2.206-9.603,2.706-9.603
			c0.314,0,0.609,0.131,0.832,0.37c0.014,0.016,0.029,0.032,0.045,0.05c0.78-5.061,1.601-5.061,2.078-5.061h0.436l0.372,0.357
			c0.304,0.327,0.965,1.038,0.345,11.904c1.177-3.458,2.615-6.715,3.858-6.715c0.359,0,0.69,0.169,0.909,0.463
			c0.192,0.258,0.481,0.647,0.09,2.907c1.437-3.512,3.113-6.892,4.244-6.892h0.519l0.377,0.467c0.319,0.455,0.741,1.052-2.148,9.628
			c1.515-2.355,3.018-4.202,4.003-4.202c0.414,0,0.785,0.213,0.994,0.569c0.208,0.356,0.549,0.937-1.076,4.413
			c2.138-3.036,4.788-6.413,6.006-6.413c0.414,0,0.792,0.225,0.986,0.587c0.321,0.601,0.763,1.424-6.212,11.898
			c-0.169,0.255-0.302,0.474-0.405,0.66c0.338-0.242,0.745-0.597,1.177-1.098c1.374-1.598,5.999-6.815,7.808-6.815
			c0.478,0,0.892,0.262,1.081,0.684c0.25,0.556,0.668,1.486-5.159,8.052c-0.597,0.672-0.83,1.124-0.922,1.38
			c0.458-0.105,1.226-0.493,2.102-1.472c3.169-3.548,10.159-10.504,11.957-10.504c0.46,0,0.854,0.256,1.029,0.668
			c0.306,0.72,0.622,1.463-9.41,11.871c-0.401,0.417-0.688,0.756-0.894,1.027c0.384-0.19,0.857-0.474,1.397-0.873
			c1.531-1.131,5.275-3.761,6.952-3.761c0.722,0,1.12,0.435,1.252,0.841c0.18,0.555,0.511,1.575-4.951,5.605
			c4.767-3.222,10.674-6.618,12.322-6.618c0.68,0,1.048,0.436,1.157,0.81c0.231,0.789,0.471,1.604-10.215,8.488
			c1.469-0.614,2.808-0.95,3.794-0.95c1.509,0,1.84,0.825,1.913,1.179c0.162,0.79-0.35,1.544-1.594,2.317
			c4.212-1.479,7.785-2.404,9.36-2.404c1.196,0,1.482,0.632,1.546,1.01c0.142,0.833,0.302,1.778-10.45,5.537
			c-0.572,0.201-0.903,0.381-1.09,0.51c0.2,0.079,0.512,0.155,0.922,0.155c0.22,0,0.439-0.022,0.653-0.067
			c1.921-0.4,3.462-0.611,4.455-0.611c0.445,0,1.8,0,2.014,1.102c0.191,0.986-0.508,1.809-4.855,3.562
			c0.178-0.014,0.365-0.033,0.563-0.059c2.541-0.324,4.847-0.495,6.668-0.495c2.449,0,3.98,0.245,4.049,1.466
			c0.047,0.821,0.103,1.839-8.552,2.874c2.835,0.05,5.975,0.488,5.973,2.186c-0.002,1.308-1.667,1.917-5.239,1.917
			c0,0-0.337-0.002-0.338-0.002c-0.341,0-0.583,0.024-0.753,0.054c0.202,0.142,0.513,0.285,0.896,0.313
			c11.487,0.838,11.425,2.541,11.404,3.101c-0.048,1.318-1.79,1.426-3.891,1.426c-1.685,0-3.936-0.129-6.692-0.382
			c-0.271-0.025-0.505-0.039-0.704-0.039c-0.1,0-0.178,0.004-0.239,0.009c0.021,0.225,0.082,0.561,0.134,0.848l0.08,0.448
			c0.475,2.738,0.475,2.738,4.229,4.577c2.675,1.301,5.17,2.32,7.598,3.103c1.895-3.957,2.912-7.824,3.104-11.798
			c0.073-1.459,0.057-2.971,0.042-4.433c-0.012-1.084-0.022-2.168-0.001-3.248c0.022-1.323-0.013-2.062-1.019-3.034
			c-1.1-1.069-2.136-1.566-3.262-1.566c-0.728,0-1.402,0.203-2.054,0.399c-0.591,0.178-1.148,0.346-1.71,0.346
			c-0.713,0-1.3-0.272-1.747-0.81c-0.884-1.056-1.716-3.258-0.788-4.838c0.541-0.929,1.537-1.486,2.664-1.486
			c1.007,0,2.613,0.444,4.549,2.562c0.393,0.432,1.172,0.55,1.996,0.676c0.199,0.03,0.3,0.04,0.39,0.04
			c0.026,0,0.049-0.001,0.066-0.002c0.163-0.379,0.355-1.604-0.063-2.946c-0.054-0.138-0.322-0.688-0.607-1.27
			c-2.498-5.112-3.771-8.384-2.876-9.982c0.641-1.148,2.134-1.983,3.55-1.983c0.959,0,1.779,0.378,2.31,1.066
			c1.103,1.423,0.897,3.472,0.747,4.968c-0.022,0.224-0.044,0.439-0.06,0.642c-0.121,1.362-0.037,3.367,0.149,4.733
			c0.327-1.65,0.831-5.174,0.916-6.021c0.029-0.26,0.052-0.517,0.074-0.779c0.156-1.83,0.393-4.594,3.28-4.824
			c0.17-0.014,0.332-0.02,0.485-0.02c1.512,0,2.224,0.665,2.555,1.223c1.069,1.803-0.379,4.771-1.955,7.656
			c-0.175,0.321-0.327,0.6-0.439,0.82c-1.244,2.781-1.753,4.461-2.613,7.623c-0.111,0.499-0.257,2.149-0.257,6.934v1.193
			c0,2.296,0.001,4.464-0.133,6.766c-0.306,5.247-1.068,9.421-2.398,13.135c-0.309,0.875-0.45,1.277-0.471,2.107
			c-0.016,0.843-0.046,2.424-1.715,2.424l0,0c-0.449,0-0.979-0.122-1.779-0.308l-0.578-0.133c-2.79-0.625-5.571-1.646-8.502-3.119
			l-0.076-0.038l-0.067-0.051c-2.27-1.671-3.122-1.863-3.389-1.866c-0.009,0.039-0.086,0.255-0.093,0.813
			c-0.088,7.049,1.106,11.477,2.16,15.384c0.844,3.127,1.641,6.08,1.641,9.813c0,4.004-0.876,6.327-1.649,8.376
			c-0.777,2.06-1.511,4.005-1.325,7.57l0.034,0.698c0.117,2.516,0.122,2.613,2.007,2.837c0.283,0.033,0.566,0.045,0.85,0.045
			c0.427,0,0.853-0.026,1.278-0.052c0.336-0.021,0.672-0.041,1.01-0.051c0.818-0.029,1.649-0.044,2.485-0.044h0.061l0.061,0.008
			c0.717,0.087,1.448,0.235,1.951,0.726c0.658,0.634,0.717,1.224,0.65,1.605c-0.053,0.301-0.257,0.855-1.038,1.205
			c-0.397,0.176-0.812,0.261-1.269,0.261c-0.252,0-0.521-0.027-0.82-0.081c-0.362-0.067-0.725-0.117-1.131-0.155
			c-0.026,0.014-0.052,0.024-0.074,0.035c-0.343,0.154-0.718,0.233-1.113,0.233c-0.226,0-0.462-0.025-0.725-0.076
			c-0.364-0.065-0.703-0.105-1.035-0.134c-0.511-0.037-1.041-0.059-1.58-0.059l-0.21,0.001c-0.835,0.054-1.785,0.152-2.773,0.293
			c-0.435,0.059-0.89,0.115-1.34,0.115c-0.214,0-0.408-0.013-0.59-0.039C118.731,148.984,118.508,149,118.293,149z"/>
		<path style="fill:#FFFFFF;" d="M81.381,39.272c0.504,0,0.653,4.839-0.184,16.351c-0.099,1.356-0.065,1.967,0.07,1.967
			c0.142,0,0.396-0.673,0.727-1.865c1.818-6.564,3.774-10.905,4.397-10.905c0.521,0,0.109,3.03-2.093,10.326
			c-0.551,1.824-0.521,2.709-0.217,2.709c0.306,0,0.887-0.89,1.436-2.613c2.29-7.19,5.438-13.943,6.117-13.943
			c0.506,0-0.357,3.743-3.961,13.831c-0.678,1.895-0.845,2.69-0.665,2.69c0.195,0,0.802-0.94,1.608-2.427
			c2.833-5.22,5.135-8.199,5.768-8.199c0.599,0-0.291,2.657-3.624,8.593c-1.028,1.831-1.134,2.64-0.757,2.64
			c0.384,0,1.27-0.841,2.191-2.295c3.932-6.203,7.412-10.369,8.113-10.368c0.612,0-0.892,3.172-6.058,10.931
			c-1.228,1.844-1.12,2.652-0.431,2.652c0.634,0,1.761-0.687,2.792-1.884c3.588-4.173,6.326-6.468,7.05-6.467
			c0.713,0-0.525,2.226-4.826,7.071c-1.716,1.934-1.444,3.08-0.373,3.08c0.756,0,1.911-0.572,3.046-1.841
			c4.815-5.391,10.335-10.171,11.212-10.171c0.688,0-1.484,2.944-9.101,10.845c-1.946,2.02-2.037,3.045-1.123,3.045
			c0.613,0,1.679-0.461,2.94-1.392c3.28-2.422,5.563-3.566,6.358-3.566c0.985,0-0.3,1.75-4.773,4.993
			c-2.019,1.464-1.977,2.352-0.988,2.352c0.585,0,1.502-0.312,2.519-1c5.866-3.975,10.821-6.517,11.866-6.517
			c0.991,0-1.537,2.288-10.146,7.809c-2.185,1.402-2.188,2.148-1.138,2.148c0.549,0,1.386-0.204,2.35-0.624
			c1.586-0.693,2.865-0.985,3.67-0.985c1.578,0,1.333,1.123-2.008,2.553c-2.539,1.087-2.424,1.926-1.091,1.926
			c0.536,0,1.269-0.136,2.105-0.445c5.3-1.968,9.262-2.942,10.673-2.942c1.777,0-0.492,1.546-9.234,4.603
			c-3.297,1.155-1.852,2.609,0.162,2.609c0.278,0,0.568-0.028,0.857-0.088c1.895-0.394,3.352-0.59,4.251-0.59
			c1.955,0,1.283,0.924-3.236,2.745c-2.198,0.884-2.39,1.943-0.193,1.943c0.36,0,0.786-0.028,1.277-0.091
			c2.692-0.344,4.915-0.487,6.541-0.487c4.953,0,4.365,1.336-5.419,2.439c-3.273,0.368-1.963,1.892,0.422,1.896
			c6.597,0.018,7.483,2.107,1.228,2.107c-0.106,0-0.214-0.001-0.324-0.002c-0.025,0-0.05,0-0.074,0
			c-3.255,0-1.824,2.223,0.131,2.364c9.371,0.684,13.82,2.529,7.586,2.529c-1.529,0-3.701-0.111-6.601-0.378
			c-0.307-0.028-0.57-0.043-0.796-0.043c-1.6,0-1.313,0.727-1.011,2.475c0.562,3.24,0.935,3.425,4.773,5.306
			c2.809,1.365,5.662,2.538,8.557,3.414c2.042-4.037,3.361-8.346,3.585-12.959c0.127-2.553-0.01-5.144,0.042-7.709
			c0.024-1.445-0.029-2.522-1.323-3.773c-1.478-1.436-2.799-1.848-3.957-1.848c-1.558,0-2.818,0.746-3.764,0.746
			c-0.376,0-0.703-0.119-0.978-0.449c-0.737-0.88-1.318-2.631-0.695-3.693c0.328-0.563,0.951-0.992,1.802-0.992
			c0.997,0,2.304,0.588,3.811,2.237c0.649,0.713,1.696,0.854,2.672,1.003c0.167,0.025,0.317,0.038,0.452,0.038
			c0.408,0,0.672-0.114,0.829-0.328c0.432-0.617,0.636-2.292,0.13-3.917c-0.438-1.16-4.59-8.636-3.565-10.466
			c0.476-0.854,1.636-1.472,2.677-1.471c0.595,0,1.151,0.202,1.518,0.677c1.001,1.291,0.601,3.437,0.482,4.919
			c-0.18,2.017,0.06,6.749,0.897,6.987c0.153,0.042,0.272,0.063,0.366,0.063c0.396,0,0.36-0.37,0.64-1.128
			c0.336-0.945,1.067-6.161,1.154-7.03c0.219-1.909,0.082-4.519,2.438-4.706c0.144-0.012,0.278-0.017,0.406-0.017
			c4.266,0,0.249,6.313-0.731,8.247c-1.309,2.921-1.846,4.722-2.687,7.812c-0.243,1.079-0.292,4.385-0.292,7.196
			c-0.004,2.681,0.024,5.229-0.131,7.901c-0.292,5.001-1.012,9.142-2.342,12.855c-0.325,0.922-0.505,1.44-0.529,2.419
			c-0.021,1.082-0.114,1.449-0.715,1.449c-0.418,0-1.082-0.178-2.137-0.416c-2.747-0.615-5.454-1.619-8.273-3.037
			c-1.999-1.473-3.235-2.062-3.987-2.062c-0.84,0-1.073,0.736-1.087,1.8c-0.16,12.812,3.801,17.006,3.801,25.21
			c0,7.795-3.358,8.594-2.974,15.998c0.166,3.101-0.037,4.126,2.923,4.477c0.323,0.038,0.646,0.052,0.967,0.052
			c0.772,0,1.541-0.08,2.316-0.103c0.814-0.029,1.633-0.044,2.457-0.044c0.615,0.075,1.106,0.188,1.374,0.449
			c0.625,0.603,0.365,0.975-0.098,1.182c-0.286,0.126-0.573,0.174-0.86,0.174c-0.214,0-0.428-0.026-0.642-0.065
			c-0.497-0.092-0.947-0.145-1.392-0.182c-0.054-0.003-0.108-0.008-0.163-0.014c-0.067,0.063-0.152,0.108-0.239,0.147
			c-0.233,0.105-0.469,0.146-0.703,0.146c-0.179,0-0.356-0.023-0.534-0.058c-0.411-0.074-0.78-0.118-1.143-0.148
			c-0.545-0.04-1.099-0.063-1.663-0.063c-0.073,0-0.147,0-0.221,0.001c-0.986,0.062-1.968,0.17-2.903,0.303
			c-0.393,0.053-0.812,0.105-1.199,0.105c-0.198,0-0.389-0.014-0.563-0.048c-0.23,0.027-0.466,0.048-0.688,0.048
			c-0.401,0-0.763-0.067-0.983-0.283c-0.596-0.581,0.425-1.191,0.695-1.565c0.651-0.921,0.08-2.796-0.61-3.542
			c-0.436-0.455-0.892-0.679-1.396-0.798c-3.738-0.919-7.128-1.209-10.399-1.209c-5.616,0-10.884,0.855-16.969,0.855
			c-0.842,0-1.7-0.017-2.576-0.054c-0.877,0.037-1.764,0.054-2.66,0.054c-6.481,0-13.451-0.855-20.267-0.855
			c-3.969,0-7.888,0.29-11.626,1.209c-0.5,0.119-0.961,0.343-1.393,0.798c-0.694,0.746-1.263,2.621-0.608,3.542
			c0.264,0.374,1.29,0.984,0.691,1.565c-0.223,0.216-0.583,0.283-0.983,0.283c-0.222,0-0.456-0.021-0.685-0.048
			c-0.176,0.034-0.367,0.048-0.565,0.048c-0.389,0-0.808-0.053-1.196-0.105c-0.939-0.133-1.919-0.241-2.907-0.303
			c-0.074-0.001-0.147-0.001-0.22-0.001c-0.564,0-1.117,0.022-1.661,0.063c-0.366,0.03-0.731,0.074-1.145,0.148
			c-0.179,0.034-0.357,0.058-0.535,0.058c-0.235,0-0.468-0.04-0.699-0.146c-0.092-0.039-0.175-0.084-0.238-0.147
			c-0.056,0.006-0.113,0.011-0.169,0.014c-0.443,0.037-0.892,0.09-1.39,0.182c-0.215,0.039-0.43,0.065-0.645,0.065
			c-0.287,0-0.573-0.048-0.857-0.174c-0.464-0.207-0.724-0.579-0.097-1.182c0.267-0.261,0.759-0.374,1.373-0.449
			c0.826,0,1.643,0.015,2.459,0.044c0.773,0.022,1.544,0.103,2.316,0.103c0.321,0,0.643-0.014,0.964-0.052
			c2.967-0.351,2.758-1.376,2.924-4.477c0.451-8.623-9.158-14.374-4.513-27.545h0c1.196-3.392,2.084-6.665,2.369-10.002
			c0.143-1.699,0.275-2.757,0.203-3.194c-0.167-0.08-0.345-0.123-0.536-0.123c-0.742,0-1.673,0.649-2.823,2.27
			c-3.061,4.317-6.905,7.022-12.956,9.404c-1.804,0.708-3.557,1.27-5.397,1.872c-1.927,0.637-4.192,1.414-4.874,1.824
			c-1.936,1.275-3.048,2.046-4.761,3.606c-0.833,0.831-2.964,3.386-4.385,3.386c-0.533,0-0.966-0.359-1.193-1.303
			c-0.407-1.663,1.422-2.161,2.68-2.734c0.579-0.257,3.995-1.936,4.566-2.387c0.569-0.443,0.833-0.421,0.503-0.922
			c-0.074-0.112-0.281-0.16-0.574-0.16c-1.089,0-3.365,0.658-4.425,1.11c-0.801,0.34-1.852,0.895-2.809,0.895
			c-0.234,0-0.462-0.033-0.68-0.11c-1.123-0.399-1.157-2.248-0.401-3.063c0.331-0.358,1.183-0.481,2.217-0.481
			c2.18,0,5.168,0.546,5.776,0.571c1.233-0.021,2.336-0.536,2.657-0.974c0.151-0.203,0.141-0.502-0.086-0.947
			c-0.321-0.636-0.652-1.32-1.292-1.604c-2.725-1.234-2.798-2.811-2.117-3.573c0.348-0.399,0.958-0.561,1.558-0.56
			c0.412,0,0.819,0.075,1.133,0.202c1.556,0.616-0.773,3.633,3.029,5.623c0.533,0.28,0.979,0.388,1.402,0.388
			c0.492,0,0.954-0.146,1.487-0.335c1.747-0.611,3.56-1.103,5.281-1.765c4.885-1.869,7.769-5.785,10.82-10.069
			c6.208-5.383,7.271-3.733,8.143-10.705c0.914-7.302,4.63-7.414-0.545-9.443c-8.557-3.355-12.261-5.474-10.735-5.473
			c1.146,0,5.24,1.194,12.442,3.954c0.696,0.267,1.233,0.383,1.6,0.383c1.047,0,0.698-0.948-1.334-2.051
			c-6.338-3.439-9.204-5.854-7.95-5.853c0.883,0,3.81,1.198,9.006,4.08c0.866,0.48,1.553,0.687,1.998,0.687
			c0.981,0,0.787-1.003-1.26-2.29c-7.116-4.481-11.529-8.261-10.383-8.261c0.788,0,4.204,1.788,11.177,6.363
			c1.237,0.811,2.113,1.177,2.553,1.177c0.721,0,0.271-0.983-1.675-2.602c-5.89-4.903-8.694-8.138-7.786-8.138
			c0.711,0,3.699,1.984,9.264,6.706c1.104,0.937,1.912,1.357,2.318,1.357c0.605,0,0.325-0.932-1.181-2.488
			c-4.952-5.12-7.251-8.557-6.422-8.557c0.632,0,3.082,1.999,7.561,6.773c1.169,1.245,2.066,1.87,2.419,1.87
			c0.408,0,0.086-0.838-1.391-2.521c-5.662-6.449-9.278-11.702-8.495-11.702c0.583,0,3.6,2.908,10.021,10.393
			c0.946,1.102,1.732,1.645,2.145,1.645c0.516,0,0.446-0.852-0.633-2.524c-4.19-6.499-6.181-10.875-5.487-10.875
			c0.56,0,2.866,2.848,7.173,9.725c0.699,1.118,1.402,1.646,1.84,1.646c0.591,0,0.698-0.961-0.342-2.73
			c-5.094-8.667-7.504-13.903-6.886-13.903c0.538,0,3.366,3.959,8.71,13.063c0.623,1.06,1.069,1.623,1.245,1.623
			c0.185,0,0.07-0.624-0.454-1.946c-2.898-7.316-4.209-12.667-3.566-12.667c0.506,0,2.224,3.318,5.332,11.604
			c0.481,1.284,0.964,1.954,1.21,1.954c0.259,0,0.257-0.739-0.281-2.28c-2.51-7.191-4.195-15-3.521-15
			c0.464,0.001,2.044,3.697,5.24,13.833c0.503,1.595,0.8,2.27,0.938,2.27c0.163,0,0.104-0.943-0.098-2.42
			c-0.888-6.482-0.758-10.612-0.167-10.611c0.493,0,1.305,2.862,2.116,9.607c0.219,1.811,0.547,2.708,0.787,2.708
			c0.248,0,0.401-0.955,0.243-2.845c-0.678-8.114-0.447-14.226,0.147-14.226c0.476,0,1.185,3.923,1.846,13.88
			c0.107,1.624,0.441,2.409,0.769,2.409c0.33,0,0.653-0.794,0.733-2.328c0.386-7.367,1.355-12.299,1.947-12.298
			c0.495,0,0.726,3.46,0.124,11.843c-0.106,1.488,0.014,2.241,0.181,2.241c0.164,0,0.374-0.731,0.456-2.211
			C79.745,45.717,80.8,39.272,81.381,39.272 M81.382,37.272L81.382,37.272c-1.813,0-2.376,1.659-2.855,4.644
			c-0.032-0.001-0.065-0.002-0.099-0.002c-0.001,0-0.002,0-0.003,0c-1.445,0-2.129,1.196-2.543,2.695
			c-0.342-2.311-0.783-4.358-2.75-4.359c0,0,0,0-0.001,0c-0.586,0-1.154,0.252-1.558,0.691c-0.464,0.504-0.836,1.167-0.959,4.2
			c-0.23-0.086-0.487-0.135-0.774-0.135c0,0-0.001,0-0.002,0c-0.619,0-1.212,0.273-1.629,0.751c-0.238,0.272-0.426,0.689-0.563,1.25
			c-0.089-0.237-0.176-0.464-0.261-0.681c-1.09-2.802-1.788-4.388-3.456-4.391c0,0-0.001,0-0.001,0
			c-0.677,0-1.314,0.331-1.708,0.886c-0.314,0.442-0.616,0.868-0.338,2.939c-0.216-0.07-0.446-0.104-0.696-0.104
			c0,0-0.001,0-0.001,0c-0.698,0-1.351,0.347-1.747,0.929c-0.359,0.528-0.526,1.142-0.337,2.458
			c-2.42-3.458-3.085-3.458-3.851-3.459c0,0,0,0-0.001,0c-0.745,0-1.437,0.401-1.807,1.048c-0.303,0.529-0.649,1.134,0.735,4.301
			c-0.266-0.085-0.488-0.085-0.713-0.086c0,0,0,0-0.001,0c-0.776,0-1.49,0.423-1.861,1.105c-0.242,0.443-0.603,1.106,0.446,3.625
			c-3.255-3.368-3.93-3.369-4.63-3.369c0,0,0,0-0.001,0c-0.825,0-1.577,0.482-1.915,1.229c-0.435,0.959-0.284,1.861,1.431,4.385
			c-0.71,0.127-1.316,0.597-1.601,1.269c-0.188,0.445-0.441,1.039,0.344,2.547c-1.454-0.869-1.97-0.869-2.332-0.869
			c-0.93,0-1.73,0.551-2.039,1.404c-0.207,0.571-0.44,1.215,0.771,2.849c-2.061-1.054-2.638-1.054-3.002-1.054
			c-0.99,0-1.833,0.615-2.097,1.532c-0.394,1.364,0.454,2.446,2.661,4.254c-1.284,0.033-1.958,0.894-2.146,1.634
			c-0.158,0.624-0.337,1.33,1.05,2.675c-1.563-0.455-2.845-0.743-3.586-0.743c-1.453,0-2.147,0.939-2.299,1.744
			c-0.356,1.881,1.574,2.834,3.808,3.938c2.059,1.018,4.997,2.281,8.496,3.653c0.633,0.248,1.028,0.43,1.273,0.558
			c-0.071,0.174-0.156,0.371-0.231,0.548c-0.546,1.27-1.371,3.189-1.751,6.228c-0.524,4.185-0.783,4.37-3.263,6.153
			c-1.024,0.737-2.427,1.746-4.206,3.289l-0.181,0.156l-0.138,0.194c-3.295,4.626-5.765,7.777-9.906,9.361
			c-0.956,0.368-1.938,0.679-2.979,1.009c-0.736,0.232-1.497,0.474-2.248,0.736c-0.322,0.114-0.642,0.223-0.827,0.223
			c-0.042,0-0.171,0-0.472-0.158c-1.278-0.669-1.292-1.209-1.318-2.286c-0.022-0.876-0.067-2.698-1.905-3.426
			c-0.545-0.22-1.213-0.343-1.87-0.343c-1.276-0.001-2.365,0.442-3.065,1.245c-0.718,0.805-1.006,1.906-0.774,3.003
			c0.202,0.956,0.88,2.277,2.908,3.377c-0.189-0.024-0.432-0.058-0.645-0.088c-1.301-0.18-3.267-0.451-4.919-0.451
			c-1.233,0-2.767,0.128-3.687,1.126c-0.895,0.963-1.258,2.478-0.921,3.854c0.286,1.169,1.049,2.056,2.094,2.438
			c-0.528,0.715-0.813,1.658-0.506,2.91c0.632,2.623,2.56,2.827,3.136,2.827c1.9,0,3.615-1.656,5.35-3.501
			c0.16-0.171,0.301-0.321,0.417-0.438c1.547-1.406,2.551-2.112,4.434-3.353c0.225-0.126,1.097-0.519,4.446-1.625l0.479-0.157
			c1.709-0.559,3.323-1.086,5.021-1.753c6.119-2.408,10.149-5.227,13.276-9.32c-0.313,2.499-0.992,5.153-2.15,8.439
			c-3.098,8.782-0.3,14.796,1.947,19.627c1.397,3.004,2.604,5.599,2.454,8.479c-0.014,0.25-0.024,0.489-0.035,0.716
			c-0.028,0.617-0.063,1.368-0.143,1.682c-0.124,0.048-0.405,0.129-0.983,0.197c-0.217,0.025-0.456,0.038-0.729,0.038
			c-0.387,0-0.792-0.024-1.221-0.051c-0.346-0.021-0.692-0.041-1.039-0.051c-0.822-0.029-1.673-0.045-2.516-0.045h-0.122
			l-0.121,0.015c-0.848,0.104-1.811,0.305-2.526,1.004c-1.022,0.982-1.027,1.984-0.938,2.493c0.087,0.496,0.413,1.408,1.618,1.946
			c0.518,0.229,1.08,0.347,1.672,0.347c0.312,0,0.639-0.032,1-0.098c0.266-0.049,0.521-0.086,0.798-0.117
			c0.421,0.164,0.872,0.247,1.343,0.247c0.289,0,0.588-0.031,0.915-0.094c0.293-0.053,0.589-0.091,0.931-0.119
			c0.508-0.037,1.003-0.056,1.496-0.056l0.151,0.001c0.842,0.054,1.749,0.149,2.696,0.283c0.448,0.061,0.959,0.125,1.477,0.125
			c0.214,0,0.414-0.011,0.605-0.032c0.237,0.021,0.446,0.032,0.645,0.032c0.996,0,1.795-0.285,2.375-0.847
			c0.514-0.499,0.795-1.148,0.793-1.829c-0.004-1.133-0.745-1.87-1.167-2.275c0.007-0.313,0.19-0.877,0.367-1.08
			c0.107-0.112,0.205-0.168,0.389-0.212c3.21-0.789,6.753-1.154,11.163-1.154c3.388,0,6.882,0.22,10.262,0.432
			c3.315,0.208,6.743,0.424,10.005,0.424c0.938,0,1.81-0.017,2.66-0.052c0.839,0.034,1.705,0.052,2.576,0.052
			c3.181,0,6.129-0.228,8.98-0.446c2.732-0.211,5.313-0.409,7.988-0.409c3.573,0,6.727,0.365,9.922,1.151
			c0.203,0.048,0.299,0.103,0.429,0.238c0.155,0.18,0.336,0.741,0.345,1.056c-0.427,0.408-1.162,1.144-1.168,2.271
			c-0.004,0.681,0.276,1.331,0.787,1.829c0.577,0.564,1.379,0.852,2.38,0.852c0.2,0,0.41-0.011,0.647-0.032
			c0.19,0.021,0.39,0.032,0.604,0.032c0.513,0,1.025-0.063,1.467-0.123c0.955-0.136,1.86-0.231,2.705-0.285l0.151-0.001
			c0.492,0,0.988,0.019,1.518,0.058c0.321,0.026,0.624,0.065,0.933,0.121c0.3,0.059,0.6,0.09,0.89,0.09
			c0.471,0,0.923-0.083,1.346-0.247c0.276,0.031,0.529,0.068,0.788,0.116c0.366,0.066,0.692,0.099,1.005,0.099
			c0.591,0,1.152-0.116,1.669-0.345c1.211-0.541,1.536-1.453,1.623-1.948c0.089-0.509,0.084-1.51-0.946-2.502
			c-0.709-0.691-1.672-0.892-2.52-0.995l-0.12-0.015h-0.122c-0.844,0-1.694,0.016-2.529,0.045c-0.333,0.01-0.68,0.03-1.026,0.052
			c-0.428,0.025-0.831,0.05-1.218,0.05c-0.274,0-0.515-0.013-0.734-0.038c-0.576-0.068-0.855-0.149-0.979-0.197
			c-0.081-0.313-0.116-1.071-0.145-1.693l-0.035-0.707c-0.174-3.353,0.492-5.117,1.263-7.161c0.804-2.13,1.714-4.543,1.714-8.729
			c0-3.866-0.813-6.882-1.675-10.074c-1.008-3.733-2.146-7.95-2.131-14.521c0.435,0.245,1.05,0.637,1.893,1.258l0.137,0.101
			l0.151,0.076c3.005,1.511,5.861,2.559,8.734,3.202l0.57,0.13c0.867,0.201,1.44,0.334,2.004,0.334c1.759,0,2.672-1.147,2.715-3.412
			c0.017-0.659,0.117-0.944,0.415-1.791c1.36-3.797,2.141-8.06,2.453-13.404c0.135-2.331,0.134-4.513,0.134-6.823v-1.191
			c0-4.964,0.159-6.348,0.235-6.726c0.833-3.059,1.334-4.706,2.548-7.422c0.105-0.207,0.246-0.461,0.404-0.752
			c1.785-3.268,3.276-6.388,1.938-8.645c-0.38-0.64-1.328-1.713-3.415-1.713c-0.179,0-0.368,0.007-0.568,0.023
			c-2.079,0.166-3.097,1.381-3.616,2.73c-0.155-0.37-0.357-0.729-0.619-1.067c-0.722-0.935-1.823-1.452-3.099-1.452
			c-1.785,0-3.604,1.027-4.424,2.498c-1.118,1.999,0.083,5.241,2.852,10.907c0.229,0.467,0.485,0.992,0.572,1.195
			c0.163,0.556,0.199,1.075,0.184,1.473c-0.389-0.069-0.796-0.163-0.899-0.277c-1.753-1.919-3.531-2.89-5.288-2.891
			c-0.36,0-0.71,0.043-1.044,0.127c-0.001-0.116-0.013-0.235-0.033-0.359c-0.053-0.308-0.42-1.842-2.532-1.842
			c-1.276,0-3.731,0.55-6.739,1.483c0.009-0.192-0.006-0.391-0.048-0.597c-0.163-0.795-0.786-1.635-2.045-1.896
			c1.424-0.97,2.617-1.821,3.568-2.547c2.094-1.598,3.431-2.764,2.965-4.354c-0.271-0.928-1.103-1.528-2.116-1.528
			c-1.234,0-3.78,1.25-6.295,2.683c0.04-0.36-0.027-0.673-0.126-0.979c-0.302-0.931-1.166-1.532-2.202-1.533
			c-0.647,0-1.484,0.275-2.405,0.712c1.233-1.344,2.258-2.501,3.063-3.462c1.938-2.314,2.79-3.553,2.215-4.905
			c-0.329-0.775-1.095-1.276-1.949-1.277c-0.002,0-0.004,0-0.005,0c-0.651,0-1.469,0.009-5.457,3.572
			c-0.511,0.457-1.034,0.938-1.563,1.437c0.366-0.969,0.162-1.424-0.039-1.873c-0.354-0.785-1.116-1.273-1.992-1.274
			c-0.001,0-0.001,0-0.001,0c-0.782,0-1.871,0.577-3.259,1.723c2.548-4.389,2.191-5.055,1.772-5.839
			c-0.368-0.688-1.083-1.115-1.866-1.116c0,0,0,0-0.001,0c-0.953,0-1.812,0.458-3.851,2.921c-0.062-0.161-0.14-0.295-0.217-0.427
			c-0.39-0.666-1.084-1.064-1.856-1.064c-0.005,0-0.01,0-0.016,0c-0.313,0-0.754,0.009-1.457,0.528
			c1.252-4.368,0.874-4.906,0.435-5.53c-0.393-0.558-1.032-0.891-1.711-0.892c-0.001,0-0.002,0-0.003,0
			c-1.221,0-2.031,0.671-3.696,4.189c-0.402-0.427-0.953-0.668-1.546-0.668c-0.563,0-1.397,0-2.616,2.13
			c0.133-5.938-0.4-6.512-0.854-7.001C82.521,37.52,81.96,37.273,81.382,37.272L81.382,37.272z M121.45,71.895
			c0.983-0.395,1.839-0.763,2.563-1.101c0.148-0.069,0.3-0.14,0.452-0.212c-0.34,1.679,0.333,3.593,1.339,4.794
			c0.202,0.244,0.43,0.451,0.679,0.621c-0.435-0.02-0.854-0.02-1.223-0.02c-0.687,0-1.44,0.023-2.247,0.07
			c0.739-0.667,1.025-1.381,0.854-2.268C123.74,73.129,123.255,72.08,121.45,71.895L121.45,71.895z M128.979,76.486
			c0.462-0.071,0.903-0.205,1.334-0.335c0.609-0.183,1.185-0.356,1.766-0.356c0.534,0,1.381,0.133,2.563,1.282
			c0.68,0.657,0.739,0.999,0.717,2.305c-0.021,1.094-0.011,2.201,0.001,3.271c0.016,1.514,0.03,2.943-0.04,4.372
			c-0.174,3.572-1.039,7.061-2.638,10.618c-2.12-0.728-4.305-1.641-6.633-2.772c-1.586-0.777-2.637-1.292-3.03-1.712
			c-0.257-0.273-0.414-0.793-0.646-2.137l-0.013-0.067c2.635,0.235,4.804,0.355,6.449,0.355c1.913,0,4.804,0,4.891-2.39
			c0.078-2.162-2.521-2.71-4.418-3.11c-0.745-0.157-1.581-0.305-2.485-0.438c0.565-0.426,0.932-1.025,0.933-1.869
			c0.001-0.884-0.416-1.58-1.263-2.094c0.11-0.025,0.218-0.051,0.322-0.076c1.271-0.309,3.635-0.882,3.52-2.947
			C130.253,77.412,129.718,76.832,128.979,76.486L128.979,76.486z"/>
	</g>
</g>
<g id="Layer_1">
</g>
</svg>
