<?xml version="1.0" encoding="iso-8859-1"?>
<!-- Generator: Adobe Illustrator 16.0.0, SVG Export Plug-In . SVG Version: 6.00 Build 0)  -->
<!DOCTYPE svg PUBLIC "-//W3C//DTD SVG 1.1//EN" "http://www.w3.org/Graphics/SVG/1.1/DTD/svg11.dtd">
<svg version="1.1" xmlns="http://www.w3.org/2000/svg" xmlns:xlink="http://www.w3.org/1999/xlink" x="0px" y="0px" width="150px"
	 height="150px" viewBox="0 0 150 150" style="enable-background:new 0 0 150 150;" xml:space="preserve">
<g id="_x30_4_x5F_03_x5F_black">
	<rect style="fill:none;" width="150" height="150"/>
	<g>
		<path d="M91.94,148.747c-0.417-0.021-0.864-0.029-1.321-0.029c-0.6,0-1.216,0.014-1.838,0.027
			c-0.648,0.014-1.305,0.027-1.955,0.027c-1.347,0-3.093-0.054-4.659-0.474c-1.239-0.333-4.137-1.322-4.307-3.315
			c-0.102-1.193,0.783-2.23,2.63-3.085c0.387-0.182,0.907-0.269,1.629-0.269c1.215,0,2.845,0.245,4.422,0.482
			c1.298,0.196,2.524,0.381,3.234,0.381c1.101,0,2.61-0.51,3.021-4.92c0.383-4.285,0.159-11.533-2.025-13.921
			c-0.471-0.516-0.981-0.755-1.605-0.755c-0.711,0-1.566,0.313-2.542,0.934c-5.38,3.409-12.399,5.287-19.766,5.287
			c-7.45,0-14.764-1.927-20.065-5.287c-1.217-0.771-1.928-0.934-2.31-0.934c-0.272,0-0.447,0.076-0.604,0.262
			c-1.264,1.508-0.225,7.374,0.396,10.879c0.253,1.428,0.472,2.661,0.55,3.539c0.412,4.406,1.921,4.916,3.021,4.916
			c0.71,0,1.937-0.185,3.235-0.381c1.576-0.237,3.206-0.482,4.42-0.482c0.722,0,1.242,0.087,1.636,0.272
			c1.839,0.851,2.724,1.889,2.623,3.082c-0.17,1.992-3.066,2.981-4.304,3.314c-1.568,0.42-3.314,0.474-4.661,0.474
			c-0.65,0-1.306-0.014-1.955-0.027c-0.622-0.014-1.238-0.027-1.837-0.027c-0.458,0-0.905,0.008-1.338,0.03
			c-0.754,0.051-1.522,0.097-2.292,0.144l-1.698,0.105c-3.178-0.028-4.21-1.334-4.549-2.109c-0.296-0.678-0.554-2.075,1.039-3.83
			c4.369-4.766-0.681-13.644-4.368-20.126c-1.298-2.283-2.419-4.255-3.073-5.878c-1.336-3.322-2.237-5.787-2.921-7.993
			c-0.378-1.22-0.634-2.252-0.859-3.164c-0.721-2.915-1.082-4.378-4.263-6.789c-1.626-1.232-3.369-2.368-5.214-3.569
			c-5.926-3.86-12.054-7.853-13.914-15.099c-0.947-3.69-1.105-6.738-0.469-9.058c0.403-1.474,0.886-2.803,1.396-4.21
			c0.269-0.741,0.552-1.521,0.847-2.384c0.775-2.268-0.474-3.792-1.795-5.405c-0.924-1.128-1.88-2.294-1.986-3.7
			c-0.116-0.767,0.271-1.616,1.098-2.318c0.629-0.535,1.44-0.918,2.168-1.025c0.146-0.022,0.292-0.032,0.436-0.032
			c1.449,0,2.704,1.082,2.918,2.516c0.134,0.892-0.002,1.563-0.123,2.154c-0.146,0.723-0.263,1.293,0.148,2.338
			c0.958,2.424,0.75,4.487,0.403,6.742c-0.093,0.599-0.39,1.156-0.705,1.746c-0.239,0.449-0.485,0.91-0.605,1.339
			c0.124,0.032,0.248,0.048,0.372,0.048c0.344,0,0.687-0.127,1.02-0.378c1.141-0.86,1.149-1.844,1.158-2.983
			c0.008-1.046,0.018-2.231,1.055-3.085c0.498-0.407,1.123-0.629,1.763-0.629c0.785,0,1.512,0.336,1.995,0.923
			c0.325,0.395,0.518,0.946,0.527,1.546c0.54-0.462,1.205-0.682,1.826-0.682c0.762,0,1.453,0.321,1.896,0.88l0.066,0.082
			c0.401,0.499,1.147,1.428,0.92,2.53c-0.138,0.669-0.592,1.213-1.351,1.615c-1.329,0.704-1.77,1.426-1.873,1.631
			c-0.418,0.823-1.406,1.459-2.653,2.206c-0.305,0.182-0.577,0.343-0.761,0.477c-1.313,0.954-2.544,2.134-3.734,3.276l-0.403,0.386
			c-0.563,0.539-0.828,1.462-0.786,2.743c0.179,5.476,6.785,8.979,13.174,12.367c0.915,0.485,1.822,0.967,2.702,1.449
			c1.55,0.878,2.796,1.319,3.713,1.319c0.737,0,1.068-0.302,1.252-0.528c0.523-0.642,1.23-2.538,0.093-8.022
			c-0.841-4.052-2.968-8.317-5.025-12.442c-2.793-5.6-5.681-11.391-5.446-16.861c0.286-6.724,5.571-11.991,12.032-11.991
			c0,0,0,0,0.001,0c6.636,0,12.034,5.398,12.034,12.034c0,2.38-0.354,5.183-0.73,8.15c-0.858,6.78-1.83,14.464,1.403,18.459
			c1.371,1.694,3.41,2.634,6.233,2.872c0.523,0.044,1.013,0.065,1.474,0.065c2.278,0,3.855-0.531,4.688-1.579
			c0.894-1.124,1.048-2.985,0.459-5.533c-0.478-2.071-1.345-4.339-2.183-6.532c-0.271-0.708-0.535-1.398-0.776-2.06
			c-1.394-3.814-1.119-7.517,0.776-10.428c1.729-2.658,4.637-4.371,7.777-4.58c0.316-0.021,0.625-0.032,0.93-0.032
			c3.43,0,6.315,1.335,8.125,3.759c2.119,2.838,2.572,6.805,1.277,11.168c-0.548,1.848-0.993,3.709-1.423,5.509
			c-0.223,0.935-0.438,1.837-0.657,2.687c-0.731,2.836-0.712,4.402,0.065,5.405c0.959,1.237,3.383,1.865,7.205,1.864
			c0.79,0,1.654-0.026,2.57-0.078c9.016-0.515,9.176-4.107,9.651-14.771c0.157-3.521,0.353-7.901,0.974-12.972
			c1.467-11.973,9.877-20.335,20.45-20.335c0.001,0,0,0,0.001,0c11.28,0,20.457,9.177,20.457,20.457
			c0,17.021-10.802,20.656-17.95,23.062c-0.816,0.275-1.595,0.537-2.315,0.804c-3.809,1.412-5.236,6.981-4.416,11.551
			c0.417,2.324,1.572,4.809,3.563,4.809c0.223,0,0.457-0.031,0.697-0.091c0.566-0.143,1.311-0.3,2.326-0.515
			c0.664-0.141,1.447-0.306,2.376-0.508c0.979-0.215,1.984-0.42,2.998-0.627c7.086-1.447,14.414-2.943,16.133-8.145
			c0.4-1.22,0.406-2.18,0.019-2.854l-0.241-0.42c-0.829-1.453-1.688-2.955-2.692-4.26c-0.138-0.179-0.354-0.409-0.593-0.669
			c-0.987-1.069-1.756-1.959-1.925-2.864c-0.041-0.23-0.259-1.047-1.335-2.098c-0.614-0.601-0.897-1.251-0.841-1.933
			c0.094-1.122,1.073-1.802,1.6-2.167l0.084-0.059c0.384-0.271,0.848-0.415,1.338-0.415c0.786,0,1.565,0.377,2.087,1.008
			c0.072,0.088,0.14,0.18,0.2,0.275c0.178-0.576,0.519-1.053,0.943-1.341c0.417-0.283,0.907-0.433,1.417-0.433
			c0.889,0,1.759,0.463,2.27,1.208c0.756,1.117,0.43,2.255,0.143,3.26c-0.313,1.096-0.584,2.042,0.27,3.189
			c0.337,0.456,0.753,0.694,1.238,0.711c0.006-0.462-0.098-0.964-0.198-1.454c-0.136-0.655-0.263-1.274-0.184-1.873
			c0.302-2.261,0.683-4.299,2.291-6.358c0.688-0.884,0.737-1.464,0.801-2.199c0.053-0.602,0.111-1.283,0.493-2.102
			c0.48-1.038,1.531-1.709,2.677-1.709c0.431,0,0.848,0.092,1.24,0.275c1.377,0.636,2.903,2.588,2.16,4.195
			c-0.47,1.252-1.716,2.101-2.921,2.922c-1.723,1.174-3.35,2.283-3.247,4.677c0.039,0.916,0.091,1.748,0.139,2.537
			c0.093,1.49,0.18,2.898,0.149,4.424c-0.044,2.4-1.055,5.279-3.006,8.555c-3.832,6.428-10.837,8.526-17.611,10.556
			c-2.109,0.632-4.103,1.229-6.011,1.952c-1.306,0.494-2.687,1.034-3.951,1.723c-8.803,4.792-14.09,21.669-14.38,31.502
			c-0.065,2.56,0.689,4.956,2.019,6.405c1.597,1.758,1.338,3.156,1.042,3.834c-0.339,0.775-1.37,2.08-4.475,2.11h-0.037
			C95.982,148.999,92.713,148.799,91.94,148.747z M133.084,75.122c-0.114,0.854,0.096,1.541,0.533,2.525
			c0.465,1.042,1.026,1.887,1.447,2.361c-0.335-0.631-0.662-1.268-0.976-1.915c-0.246-0.502-0.343-0.909-0.437-1.302
			C133.551,76.37,133.438,75.898,133.084,75.122z M14.062,67.063c-0.56,0.645-0.801,1.066-1.017,1.443
			c-0.201,0.351-0.409,0.714-0.789,1.129c-0.482,0.529-0.973,1.047-1.475,1.558c0.537-0.336,1.314-0.988,2.054-1.857
			C13.534,68.515,13.931,67.915,14.062,67.063z"/>
		<path style="fill:#FFFFFF;" d="M111.143,39.091c10.744,0,19.457,8.711,19.457,19.457c0,18.179-12.543,20.308-19.613,22.928
			c-7.412,2.748-6.509,18.297-0.505,18.297c0.301,0,0.614-0.04,0.94-0.121c0.93-0.233,2.346-0.508,4.672-1.016
			c8.004-1.752,17.703-2.885,19.867-9.435c0.473-1.438,0.498-2.69-0.064-3.667c-0.932-1.626-1.863-3.305-3.008-4.791
			c-0.543-0.704-2.146-2.143-2.326-3.106c-0.131-0.721-0.639-1.672-1.619-2.63c-1.334-1.303,0.117-2.202,0.719-2.625
			c0.223-0.157,0.488-0.233,0.763-0.233c0.962,0,2.028,0.933,1.714,2.559c-0.236,1.227,0.037,2.158,0.564,3.346
			c0.648,1.455,1.871,3.354,2.773,3.354c0.284,0,0.537-0.189,0.73-0.641c0.148-0.359,0.031-0.681-0.139-1.001
			c-0.373-0.696-0.734-1.396-1.08-2.108c-0.475-0.971-0.252-1.453-1.166-3.311c-0.49-1.001-0.17-2.045,0.395-2.428
			c0.262-0.178,0.559-0.26,0.855-0.26c0.555,0,1.111,0.287,1.445,0.773c1.135,1.678-1.586,3.762,0.434,6.48
			c0.58,0.782,1.331,1.115,2.097,1.115c0.269,0,0.539-0.041,0.804-0.118l0.002,0.071c0.035-0.124,0.066-0.251,0.086-0.38
			c0.26-1.288-0.467-2.795-0.338-3.77c0.277-2.075,0.615-3.988,2.088-5.874c1.467-1.887,0.658-2.875,1.412-4.494
			c0.33-0.712,1.035-1.131,1.771-1.131c0.274,0,0.554,0.058,0.819,0.182c0.979,0.453,2.127,1.889,1.674,2.869
			c-1,2.647-6.467,3.254-6.26,8.062c0.113,2.67,0.332,4.629,0.287,6.898c-0.043,2.372-1.117,5.128-2.865,8.063
			c-4.771,8.004-14.982,9.001-23.117,12.084c-1.191,0.451-2.699,1.031-4.074,1.779c-9.445,5.143-14.613,22.551-14.902,32.352
			c-0.078,3.068,0.908,5.613,2.281,7.11c2.023,2.229,0.902,4.233-2.705,4.269c-1.338-0.086-2.666-0.16-4.002-0.25
			c-0.449-0.023-0.914-0.031-1.389-0.031c-1.226,0-2.519,0.055-3.793,0.055c-1.545,0-3.063-0.081-4.4-0.439
			c-2.984-0.803-5.496-2.687-1.516-4.526c0.268-0.126,0.688-0.177,1.209-0.177c2.147,0,5.982,0.863,7.656,0.863
			c3.066,0,3.787-3.356,4.018-5.827c0.342-3.827,0.571-15.769-4.627-15.769c-0.867,0-1.885,0.332-3.078,1.089
			c-5.554,3.52-12.447,5.132-19.229,5.132c-7.222,0-14.319-1.829-19.53-5.132c-1.194-0.757-2.125-1.089-2.845-1.089
			c-4.315,0-0.996,11.942-0.653,15.769c0.231,2.471,0.95,5.827,4.017,5.827c1.674,0,5.509-0.863,7.655-0.863
			c0.521,0,0.941,0.051,1.208,0.177c3.98,1.84,1.47,3.724-1.514,4.526c-1.338,0.358-2.856,0.439-4.401,0.439
			c-1.274,0-2.567-0.055-3.792-0.055c-0.475,0-0.939,0.008-1.389,0.031c-1.335,0.09-2.666,0.164-4.002,0.25
			c-3.606-0.035-4.73-2.04-2.706-4.269c6.415-6.999-4.666-20.622-7.253-27.05c-1.158-2.879-2.133-5.461-2.894-7.916
			c-1.606-5.179-0.975-7.045-5.473-10.454C16.354,93.056,6.84,89.214,4.523,80.19c-0.85-3.31-1.101-6.256-0.473-8.544
			c0.599-2.189,1.362-4.009,2.225-6.536c1.557-4.555-3.518-6.681-3.73-9.503c-0.157-1.068,1.349-2.122,2.415-2.279
			c0.098-0.015,0.195-0.021,0.291-0.021c0.951,0,1.784,0.694,1.929,1.664c0.265,1.766-0.792,2.486,0.084,4.71
			c0.879,2.224,0.663,4.155,0.345,6.224c-0.152,0.972-1.275,2.212-1.388,3.522c-0.019,0.129-0.026,0.258-0.026,0.388l0.021-0.068
			c0.438,0.28,0.931,0.443,1.443,0.443c0.533,0,1.086-0.176,1.622-0.58c2.703-2.037,0.681-4.806,2.247-6.095
			c0.325-0.265,0.729-0.401,1.127-0.401c0.461,0,0.914,0.183,1.222,0.558c0.434,0.527,0.448,1.619-0.308,2.44
			c-1.4,1.524-1.322,2.05-2.052,2.848c-0.533,0.585-1.076,1.154-1.632,1.716C9.632,70.936,9.431,71.212,9.47,71.6
			c0.072,0.605,0.347,0.848,0.734,0.848c0.911,0,2.439-1.343,3.393-2.463c0.842-0.989,1.369-1.805,1.488-3.05
			c0.133-1.395,1.073-2.034,1.918-2.034c0.439,0,0.852,0.172,1.113,0.501c0.457,0.576,1.596,1.849-0.05,2.722
			c-1.212,0.642-1.967,1.411-2.297,2.064c-0.444,0.875-2.391,1.801-3.109,2.324c-1.517,1.102-2.883,2.451-4.24,3.748
			c-0.813,0.777-1.144,1.984-1.095,3.498c0.226,6.896,9.211,10.721,16.394,14.661c1.777,1.006,3.149,1.442,4.194,1.442
			c3.518,0,3.32-4.948,2.324-9.754c-2.014-9.711-10.844-19.906-10.452-29.057c0.259-6.088,4.939-11.035,11.034-11.034
			c6.096,0,11.034,4.94,11.034,11.034c0,10.165-6.769,29.247,7.823,30.478c0.553,0.047,1.071,0.069,1.558,0.069
			c6.332,0,7.162-3.836,6.121-8.338c-0.652-2.826-2.007-6.011-2.995-8.709c-2.856-7.814,2.251-13.304,7.681-13.667
			c0.293-0.02,0.581-0.029,0.863-0.029c6.964,0,10.751,5.865,8.444,13.643c-0.846,2.848-1.456,5.763-2.09,8.23
			c-1.287,4.993-1.076,8.519,8.238,8.519c0.806,0,1.681-0.026,2.627-0.08c13.299-0.759,9.137-8.826,11.561-28.619
			C92.99,47.885,100.398,39.091,111.143,39.091 M111.143,37.091L111.143,37.091c-11.096,0-19.913,8.723-21.444,21.213
			c-0.625,5.108-0.821,9.511-0.979,13.049c-0.491,11.021-0.868,13.369-8.71,13.816c-0.897,0.052-1.742,0.077-2.513,0.077
			c-4.585,0-5.987-0.925-6.414-1.477c-0.557-0.719-0.523-2.077,0.112-4.543c0.22-0.856,0.437-1.764,0.662-2.704
			c0.427-1.787,0.869-3.634,1.41-5.456c1.386-4.674,0.877-8.954-1.435-12.051c-2.002-2.683-5.172-4.161-8.926-4.161
			c-0.327,0-0.659,0.011-0.997,0.034c-3.453,0.231-6.648,2.112-8.549,5.033c-2.07,3.181-2.381,7.2-0.877,11.316
			c0.244,0.667,0.51,1.362,0.782,2.074c0.826,2.161,1.681,4.396,2.143,6.398c0.356,1.539,0.598,3.6-0.267,4.688
			c-0.789,0.993-2.559,1.201-3.905,1.201c-0.433,0-0.901-0.021-1.39-0.063c-2.538-0.214-4.35-1.033-5.54-2.504
			c-2.965-3.663-2.021-11.124-1.188-17.705c0.379-3,0.738-5.833,0.738-8.276c0-7.187-5.847-13.034-13.034-13.034
			c-6.999,0-12.724,5.688-13.032,12.949c-0.09,2.091,0.246,4.207,0.847,6.328c-0.489-0.256-1.046-0.393-1.631-0.393
			c-0.383,0-0.773,0.063-1.152,0.187c-0.113-0.245-0.256-0.476-0.43-0.687c-0.671-0.816-1.68-1.286-2.766-1.286
			c-0.87,0-1.719,0.302-2.392,0.852c-0.147,0.121-0.278,0.247-0.396,0.377c-0.059-1.083-0.272-2.204-0.744-3.397
			c-0.301-0.766-0.237-1.081-0.098-1.77c0.124-0.605,0.292-1.435,0.132-2.502C8.87,52.755,7.19,51.307,5.25,51.307
			c-0.195,0-0.391,0.015-0.584,0.043c-0.903,0.133-1.901,0.601-2.667,1.252c-1.059,0.9-1.582,2.068-1.443,3.217
			c0.149,1.689,1.194,2.964,2.205,4.197c1.416,1.729,2.19,2.788,1.623,4.447c-0.293,0.857-0.574,1.632-0.84,2.367
			c-0.518,1.427-1.007,2.775-1.421,4.289c-0.692,2.523-0.54,5.654,0.465,9.569c1.957,7.624,8.25,11.724,14.336,15.688
			c1.83,1.191,3.558,2.317,5.156,3.528c2.899,2.197,3.191,3.379,3.896,6.232c0.229,0.925,0.487,1.973,0.875,3.221
			c0.692,2.232,1.602,4.722,2.949,8.069c0.678,1.687,1.815,3.685,3.131,5.999c3.535,6.215,8.376,14.728,4.502,18.953
			c-1.446,1.593-1.889,3.379-1.221,4.909c0.436,0.997,1.714,2.675,5.382,2.711L41.667,150l0.074-0.005
			c0.565-0.036,1.13-0.071,1.694-0.105c0.771-0.046,1.542-0.093,2.314-0.146c0.345-0.017,0.766-0.026,1.255-0.026
			c0.592,0,1.201,0.014,1.815,0.026c0.656,0.015,1.319,0.028,1.977,0.028c1.408,0,3.239-0.058,4.919-0.508
			c1.792-0.481,4.826-1.667,5.042-4.195c0.098-1.14-0.38-2.771-3.207-4.078c-0.517-0.244-1.172-0.361-2.048-0.361
			c-1.29,0-2.957,0.251-4.569,0.494c-1.205,0.182-2.451,0.369-3.086,0.369c-0.408,0-1.65,0-2.025-4.014
			c-0.082-0.912-0.304-2.165-0.561-3.616c-0.42-2.372-1.519-8.568-0.688-9.957c0.22,0.03,0.738,0.168,1.685,0.77
			c5.458,3.459,12.967,5.442,20.601,5.442c7.553,0,14.763-1.933,20.3-5.442c1.015-0.644,1.651-0.778,2.008-0.778
			c0.246,0,0.522,0.052,0.868,0.43c1.74,1.903,2.209,8.201,1.767,13.161c-0.373,4.005-1.617,4.005-2.025,4.005
			c-0.635,0-1.881-0.188-3.086-0.369c-1.612-0.243-3.28-0.494-4.57-0.494c-0.875,0-1.53,0.117-2.063,0.368
			c-2.813,1.3-3.289,2.932-3.192,4.07c0.216,2.529,3.252,3.715,5.042,4.196c1.681,0.45,3.513,0.508,4.92,0.508
			c0.658,0,1.321-0.014,1.977-0.028c0.615-0.013,1.224-0.026,1.816-0.026c0.488,0,0.909,0.01,1.286,0.028
			c0.743,0.051,1.516,0.098,2.288,0.145c0.563,0.034,1.124,0.068,1.688,0.104L95.955,150l0.074-0.001
			c3.667-0.036,4.945-1.714,5.381-2.71c0.669-1.53,0.226-3.316-1.215-4.903c-1.165-1.271-1.821-3.403-1.763-5.715
			c0.283-9.591,5.382-26.03,13.859-30.646c1.31-0.713,2.824-1.286,3.826-1.666c1.876-0.711,3.852-1.303,5.944-1.929
			c6.957-2.084,14.151-4.239,18.183-11.001c2.07-3.476,3.1-6.437,3.147-9.051c0.03-1.563-0.058-2.991-0.151-4.503
			c-0.048-0.782-0.099-1.607-0.138-2.517c-0.075-1.753,0.966-2.55,2.812-3.808c1.316-0.897,2.678-1.825,3.298-3.403
			c0.94-2.175-0.912-4.631-2.682-5.45c-0.522-0.243-1.082-0.366-1.659-0.366c-1.533,0-2.94,0.899-3.585,2.291
			c-0.454,0.975-0.527,1.818-0.581,2.434c-0.059,0.68-0.088,1.021-0.596,1.673c-0.788,1.009-1.309,2.022-1.67,3.042
			c-0.075-0.153-0.163-0.307-0.266-0.459c-0.714-1.04-1.871-1.653-3.103-1.653c-0.711,0-1.396,0.209-1.979,0.604
			c-0.225,0.153-0.427,0.333-0.604,0.536c-0.611-0.416-1.334-0.649-2.063-0.65c1.349-3.009,2.173-6.792,2.173-11.601
			C132.6,46.717,122.974,37.091,111.143,37.091L111.143,37.091L111.143,37.091z M27.914,93.862c-0.418,0-1.391-0.153-3.209-1.183
			c-0.908-0.498-1.819-0.981-2.738-1.469c-6.137-3.255-12.482-6.62-12.643-11.518c-0.031-0.957,0.139-1.663,0.479-1.987l0.403-0.387
			c1.167-1.118,2.373-2.275,3.629-3.188c0.131-0.095,0.414-0.264,0.688-0.428c1.388-0.83,2.492-1.549,3.03-2.608
			c0.113-0.224,0.542-0.722,1.449-1.203c0.791-0.419,1.261-0.937,1.538-1.428c0.859,1.963,1.834,3.919,2.799,5.852
			c2.029,4.068,4.126,8.274,4.94,12.199c1.152,5.557,0.295,6.963,0.111,7.188C28.335,93.771,28.261,93.862,27.914,93.862
			L27.914,93.862z M110.481,97.772c-1.288,0-2.224-2.003-2.579-3.988c-0.731-4.072,0.506-9.22,3.779-10.434
			c0.701-0.26,1.472-0.519,2.287-0.793c3.966-1.335,9.015-3.034,12.856-7.036c0.172,0.3,0.405,0.608,0.721,0.916
			c0.735,0.719,1.005,1.316,1.049,1.557c0.22,1.177,1.076,2.18,2.175,3.369c0.215,0.233,0.438,0.475,0.535,0.602
			c0.963,1.249,1.804,2.721,2.616,4.145l0.24,0.419c0.236,0.41,0.199,1.136-0.101,2.049c-1.535,4.647-8.574,6.085-15.382,7.476
			c-1.019,0.208-2.028,0.414-3.013,0.629c-0.924,0.202-1.704,0.367-2.367,0.507c-1.027,0.217-1.77,0.374-2.364,0.523
			C110.775,97.752,110.622,97.772,110.481,97.772L110.481,97.772z"/>
	</g>
</g>
<g id="Layer_1">
</g>
</svg>
