<?xml version="1.0" encoding="iso-8859-1"?>
<!-- Generator: Adobe Illustrator 16.0.0, SVG Export Plug-In . SVG Version: 6.00 Build 0)  -->
<!DOCTYPE svg PUBLIC "-//W3C//DTD SVG 1.1//EN" "http://www.w3.org/Graphics/SVG/1.1/DTD/svg11.dtd">
<svg version="1.1" xmlns="http://www.w3.org/2000/svg" xmlns:xlink="http://www.w3.org/1999/xlink" x="0px" y="0px" width="150px"
	 height="150px" viewBox="0 0 150 150" style="enable-background:new 0 0 150 150;" xml:space="preserve">
<g id="_x30_4_x5F_04_x5F_black">
	<rect style="fill:none;" width="150" height="150"/>
	<g>
		<path d="M94.971,149c-0.945,0-1.639-0.225-2.12-0.687c-0.475-0.457-0.573-0.944-0.573-1.272c0.001-0.871,0.661-1.504,1.143-1.966
			c0.121-0.116,0.237-0.217,0.304-0.31c0.57-0.803,0.015-2.962-0.791-3.82c-0.145-0.153-1.098-0.915-5.809-0.915
			c-5.837,0-13.643,1.146-15.547,1.613c-0.484,0.117-0.827,0.315-1.152,0.662c-0.599,0.637-1.052,2.347-0.639,2.93
			c0.052,0.067,0.139,0.144,0.229,0.23c0.396,0.379,0.994,0.952,0.995,1.744c0,0.306-0.091,0.757-0.525,1.176
			C70.051,148.8,69.441,149,68.618,149c-0.438,0-0.888-0.055-1.309-0.114c-1.729-0.242-3.502-0.37-5.125-0.37
			c-0.712,0-1.402,0.024-2.049,0.072c-0.398,0.028-0.793,0.08-1.246,0.163c-0.289,0.056-0.556,0.084-0.81,0.084
			c-0.442,0-0.861-0.088-1.244-0.26c-0.772-0.344-0.975-0.896-1.027-1.193c-0.066-0.38-0.008-0.964,0.647-1.593
			c0.491-0.48,1.209-0.625,1.911-0.709l0.059-0.007h0.06c0.817,0,1.624,0.011,2.433,0.038c0.312,0.01,0.623,0.029,0.933,0.048
			c0.428,0.026,0.855,0.054,1.283,0.054c0.277,0,0.554-0.012,0.831-0.044c1.824-0.214,1.826-0.262,1.939-2.742l0.033-0.684
			c0.052-0.976-0.076-1.591-0.391-1.882c-1.542-1.426-2.882-2.877-3.981-4.314c-5.262-6.885-1.109-13.939,2.906-20.762
			c2.063-3.505,4.196-7.129,5.272-10.887c0.072-0.252,0.13-0.465,0.178-0.646c-0.188,0.072-0.39,0.148-0.608,0.223
			c-3.004,1.024-6.41,1.518-11.042,1.601l-0.696,0.019l-0.01-0.014l-0.764-0.004c-0.593-0.005-1.336-0.011-2.112-0.011
			c-3.067,0-3.972,0.099-4.238,0.157c-2.1,0.563-3.237,0.903-5.126,1.744c-0.104,0.053-0.29,0.153-0.502,0.269
			c-1.181,0.64-2.964,1.605-4.347,1.605c-0.839,0-1.335-0.349-1.604-0.641c-0.436-0.475-0.62-1.158-0.546-2.029
			c0.188-2.237,2.4-2.415,3.588-2.512c0.174-0.014,0.544-0.049,0.564-0.051c-0.268,0.021-0.544,0.038-0.819,0.038
			c-0.991,0-1.753-0.218-2.329-0.667c-0.593-0.462-0.897-1.204-0.832-2.036c0.08-1.024,0.687-2.02,1.512-2.477
			c0.281-0.154,0.62-0.232,1.01-0.232c1.473,0,3.91,1.143,6.078,2.213c0.408,0.202,0.715,0.356,0.861,0.412
			c0.274,0.084,0.639,0.14,0.993,0.14c0.219,0,0.393-0.021,0.518-0.046c-0.078-0.523-0.153-1.003-0.358-1.19
			c-1.661-1.53-1.904-2.81-1.816-3.614c0.084-0.769,0.506-1.427,1.159-1.806c0.357-0.208,0.773-0.313,1.238-0.313
			c0.824,0,1.774,0.351,2.418,0.893c0.977,0.819,0.633,1.945,0.405,2.69c-0.307,1.004-0.597,1.953,0.702,3.3
			c0.525,0.546,0.889,0.603,1.595,0.603l0.943-0.012c0.153,0,0.741,0.012,0.741,0.012c0.454,0,1.031-0.019,1.035-0.019h0.242
			c0.241,0,0.514,0,0.827,0.015c0.292,0.013,0.581,0.02,0.87,0.02c0.001,0,0.002,0,0.002,0c8.473-0.002,13.716-5.488,13.716-10.571
			c0-3.39-2.587-7.011-9.848-7.011c-3.173,0-5.755-2.582-5.755-5.756c0-3.173,2.582-5.755,5.755-5.755
			c0.453,0,1.168,0.179,2.5,0.522c1.199,0.31,2.841,0.733,3.553,0.733c0.819-0.039,1.517-0.458,2.134-1.245
			c1.217-1.554,1.663-3.94,1.39-5.35c-0.361-1.87-1.432-2.667-3.58-2.667c-1.974,0-4.494,0.718-6.718,1.352
			c-2.047,0.583-3.98,1.134-5.433,1.134c-3.964,0-7.189-3.225-7.189-7.188s3.225-7.188,7.189-7.188c0.366,0,0.703-0.005,1.027-0.01
			c0.31-0.004,0.608-0.009,0.909-0.009c0.716,0,1.613,0.022,2.841,0.187c2.812,0.378,4.843,0.555,6.392,0.555
			c2.193,0,3.536-0.342,4.229-1.076c0.552-0.586,0.779-1.559,0.696-2.974c-0.023-0.386-0.093-1.561-4.009-1.561
			c-1.494,0-3.097,0.17-4.511,0.321c-1.055,0.112-1.966,0.209-2.621,0.209c-3.337,0-6.052-2.715-6.052-6.052
			c0-0.617,0.093-1.228,0.277-1.813c0.181-0.824,0.64-1.625,1.341-2.302c0.418-0.464,0.96-0.888,1.564-1.213
			c1.235-0.666,2.976-0.834,4.515-0.91c0.79-0.039,1.598-0.048,2.397-0.056c2.656-0.028,5.165-0.054,6.252-1.218
			c0.5-0.536,0.711-1.347,0.645-2.479c-0.272-4.661-1.881-4.732-7.867-5c-1.981-0.088-4.446-0.199-7.306-0.549
			c-6.941-0.851-11.789-5.746-11.789-11.904c0-6.567,5.343-11.911,11.91-11.911c12.454,0,22.658,11.434,22.745,25.489
			c0.029,4.685-0.229,10.086-0.505,15.805c-0.871,18.149-1.956,40.738,6.604,49.717c2.641,2.771,6.005,4.118,10.28,4.118
			c0.002,0,0.002,0,0.003,0c2.378,0,5.059-0.435,7.967-1.29c0.361-0.105,0.676-0.185,0.955-0.254l0.242-0.061
			c0.045-0.011,1.077-0.229,1.587-0.372c0.418-0.12,0.806-0.209,1.164-0.291c1.213-0.276,1.767-0.403,2.338-1.393
			c1.201-2.076,0.521-3.213-0.138-4.312c-0.484-0.809-1.147-1.916-0.317-3.054c0.641-0.878,1.945-1.768,3.201-1.768
			c0.243,0,0.479,0.033,0.702,0.098c0.814,0.238,1.453,0.843,1.752,1.659c0.321,0.874,0.397,2.381-1.062,4.595
			c-0.233,0.355-0.171,1.002-0.111,1.628c0.009,0.093,0.019,0.162,0.028,0.215c0.026,0.001,0.056,0.002,0.088,0.002
			c0.459,0,1.266-0.165,2.028-0.629c0.105-0.076,0.429-0.353,0.858-0.717c3.229-2.729,5.539-4.421,7.073-4.421
			c0.175,0,0.343,0.021,0.499,0.063c1.038,0.277,1.985,1.214,2.358,2.331c0.299,0.893,0.172,1.786-0.348,2.448
			c-0.963,1.223-2.683,1.479-3.938,1.665c-0.183,0.027-0.358,0.054-0.523,0.082c-0.719,0.114-1.654,0.358-2.507,0.632
			c1.473-0.123,3.256-0.32,3.699-0.384c0.207-0.028,0.414-0.063,0.624-0.098c0.55-0.09,1.173-0.192,1.774-0.192
			c1.889,0,2.647,1.065,2.951,1.959c0.359,1.062,0.302,1.934-0.17,2.592c-0.492,0.686-1.367,1.033-2.603,1.033l0,0
			c-1.424,0-3.159-0.448-4.307-0.745c-0.29-0.074-0.543-0.14-0.741-0.185c-2.464-0.433-3.973-0.504-6.591-0.551
			c-1.047,0.028-5.584,1.191-7.521,1.688c-0.421,0.108-0.778,0.199-1.044,0.266l-0.007,0.014l-0.238,0.053l-0.073,0.028
			l-0.063,0.002l-0.316,0.068c-4.286,0.98-7.749,1.438-10.889,1.438c-0.849,0-1.688-0.034-2.498-0.104
			c-0.448-0.038-0.852-0.088-1.203-0.132c-0.046-0.006-0.09-0.012-0.133-0.017c0.119,0.217,0.28,0.493,0.495,0.845
			c0.94,1.541,2.404,3.056,3.82,4.521c0.938,0.972,1.909,1.977,2.722,2.984c6.906,8.575,4.121,15.305,1.663,21.242
			c-1.315,3.178-2.558,6.18-2.389,9.326l0.039,0.831c0.138,3.001,0.148,3.246,2.541,3.527c0.317,0.037,0.658,0.056,1.042,0.056
			c0.526,0,1.053-0.033,1.58-0.065c0.368-0.023,0.736-0.046,1.106-0.059c0.98-0.032,1.956-0.049,2.947-0.049h0.062l0.061,0.008
			c0.811,0.099,1.638,0.266,2.195,0.806c0.581,0.562,0.823,1.148,0.72,1.742c-0.068,0.39-0.318,0.93-1.123,1.29
			c-0.441,0.198-0.906,0.294-1.423,0.294c-0.289,0-0.599-0.031-0.944-0.095c-0.546-0.103-1.033-0.166-1.532-0.203
			c-0.791-0.059-1.632-0.089-2.5-0.089c-1.979,0-4.142,0.156-6.257,0.453C96.025,148.935,95.49,149,94.971,149z"/>
		<path style="fill:#FFFFFF;" d="M58.023,3.776c12.209,0,21.664,11.45,21.745,24.495c0.157,24.814-7.881,70.634,17.382,70.634
			c2.429,0,5.168-0.424,8.249-1.331c0.455-0.133,0.837-0.222,1.162-0.305c0,0,1.079-0.229,1.611-0.379
			c1.905-0.543,3.096-0.413,4.097-2.145c2.452-4.242-1.639-5.734-0.514-7.276c0.481-0.661,1.498-1.357,2.394-1.357
			c0.145,0,0.286,0.019,0.422,0.058c1.121,0.328,2.015,1.893,0.136,4.743c-0.438,0.668-0.343,1.529-0.266,2.334
			c0.053,0.567,0.226,0.865,0.49,0.97c0.154,0.061,0.366,0.092,0.615,0.092c0.688,0,1.667-0.238,2.548-0.774
			c0.801-0.561,5.535-4.992,7.412-4.992c0.087,0,0.168,0.01,0.241,0.029c1.222,0.327,2.321,2.125,1.481,3.197
			c-0.833,1.057-2.625,1.171-3.841,1.377c-1.65,0.264-5.39,1.407-5.404,2.129c-0.014,0.681,0.227,0.502,1.053,0.584
			c0.064,0.006,0.15,0.009,0.255,0.009c1.224,0,4.944-0.403,5.599-0.498c0.711-0.097,1.522-0.279,2.255-0.279
			c0.888,0,1.661,0.268,2.005,1.28c0.605,1.787-0.397,2.304-1.825,2.304c-1.648,0-3.863-0.688-4.827-0.905
			c-2.602-0.458-4.148-0.527-6.793-0.575c-1.506,0.039-7.8,1.739-9.089,2.048l-0.013,0.005h-0.006l-0.004,0.003
			c-0.073,0.017-0.125,0.028-0.159,0.035l-0.001,0.002l-0.222,0.048c-4.05,0.927-7.508,1.416-10.678,1.416
			c-0.822,0-1.625-0.033-2.414-0.1c-0.967-0.082-1.718-0.225-2.19-0.225c-0.836,0-0.808,0.443,0.412,2.438
			c1.642,2.688,4.616,5.13,6.617,7.612c10.077,12.512-1.461,20.4-0.946,29.994c0.193,3.677-0.05,4.885,3.462,5.298
			c0.387,0.046,0.772,0.063,1.159,0.063c0.905,0,1.811-0.093,2.722-0.125c0.967-0.031,1.932-0.048,2.912-0.048
			c0.725,0.089,1.304,0.224,1.621,0.531c0.739,0.715,0.435,1.155-0.116,1.402c-0.335,0.15-0.673,0.206-1.014,0.206
			c-0.253,0-0.508-0.031-0.762-0.078c-0.592-0.11-1.12-0.179-1.643-0.217c-0.837-0.063-1.699-0.092-2.572-0.092
			c-2.142,0-4.348,0.176-6.396,0.463C95.925,147.939,95.43,148,94.971,148c-0.581,0-1.104-0.098-1.428-0.408
			c-0.86-0.828,0.611-1.705,0.996-2.247c0.939-1.323,0.122-4.02-0.878-5.084c-0.853-0.909-3.418-1.23-6.537-1.23
			c-5.903,0-13.788,1.151-15.786,1.643c-0.59,0.143-1.136,0.407-1.644,0.95c-0.825,0.877-1.498,3.1-0.724,4.19
			c0.315,0.446,1.53,1.168,0.82,1.852C69.524,147.92,69.095,148,68.618,148c-0.379,0-0.788-0.051-1.169-0.104
			c-1.687-0.236-3.501-0.38-5.265-0.38c-0.72,0-1.432,0.023-2.123,0.075c-0.431,0.03-0.864,0.087-1.353,0.177
			c-0.21,0.041-0.42,0.066-0.629,0.066c-0.28,0-0.559-0.047-0.835-0.171c-0.453-0.202-0.705-0.567-0.096-1.153
			c0.261-0.255,0.738-0.365,1.336-0.437c0.806,0,1.602,0.011,2.4,0.037c0.752,0.025,1.5,0.103,2.249,0.103
			c0.315,0,0.63-0.014,0.946-0.051c2.896-0.34,2.696-1.339,2.855-4.366c0.063-1.199-0.109-2.113-0.71-2.669
			c-1.599-1.477-2.861-2.873-3.866-4.188c-7.352-9.62,5.075-19.349,8.345-30.766c0.504-1.759,0.53-2.279,0.115-2.279
			c-0.333,0-0.948,0.335-1.829,0.635c-3,1.022-6.424,1.47-10.738,1.547l-0.186,0.005l-0.001-0.002l-0.001,0.002
			c-0.028,0.001-0.074,0.003-0.133,0.003h-0.005h-0.005l-0.011-0.002c-0.043,0-0.094,0.001-0.15,0.001
			c-0.57,0-1.776-0.017-3.071-0.017c-1.801,0-3.776,0.031-4.453,0.181c-2.104,0.563-3.329,0.922-5.317,1.807
			c-0.876,0.441-3.073,1.788-4.442,1.788c-0.751,0-1.253-0.405-1.153-1.586c0.134-1.604,1.909-1.505,3.207-1.646
			c0.588-0.058,4.136-0.543,4.778-0.77c0.642-0.229,0.871-0.135,0.724-0.676c-0.125-0.464-2.24-0.666-3.773-0.666
			c-0.368,0-0.704,0.012-0.969,0.034c-0.48,0.036-1.059,0.115-1.629,0.115c-0.633,0-1.253-0.097-1.714-0.456
			c-0.884-0.688-0.362-2.344,0.55-2.849c0.134-0.074,0.313-0.107,0.525-0.107c1.766,0,5.88,2.289,6.58,2.559
			c0.463,0.146,0.933,0.206,1.353,0.206c0.582,0,1.068-0.117,1.311-0.287c0.191-0.138,0.27-0.406,0.201-0.872
			c-0.099-0.66-0.192-1.369-0.675-1.813c-2.07-1.906-1.661-3.338-0.833-3.819c0.214-0.124,0.468-0.178,0.735-0.178
			c0.638,0,1.352,0.303,1.774,0.658c1.206,1.011-1.771,3.014,1.031,5.919c0.776,0.807,1.451,0.908,2.315,0.908
			c0.29,0,0.6-0.012,0.943-0.012c0.142,0,0.289,0.002,0.443,0.008c0.086,0.003,0.189,0.004,0.298,0.004
			c0.469,0,1.067-0.02,1.067-0.02c0.276,0.002,0.599-0.004,0.988,0.015c0.312,0.014,0.617,0.021,0.92,0.021
			c16.497,0,20.946-19.582,3.868-19.582c-2.627,0-4.755-2.127-4.755-4.756c0-2.627,2.128-4.755,4.755-4.755
			c0.812,0,4.588,1.255,6.053,1.255c0.038,0,0.074,0,0.109-0.002c3.235-0.162,4.927-5.047,4.397-7.783
			c-0.51-2.642-2.29-3.478-4.562-3.478c-3.917,0-9.298,2.486-12.151,2.486c-3.418,0-6.189-2.771-6.189-6.188
			c0-3.418,2.771-6.188,6.189-6.188c0.715,0,1.321-0.019,1.935-0.019c0.802,0,1.618,0.032,2.708,0.178
			c2.618,0.353,4.779,0.563,6.525,0.563c4.383,0,6.146-1.333,5.922-5.109c-0.119-1.997-2.394-2.501-5.007-2.501
			c-2.676,0-5.706,0.53-7.132,0.53c-2.79,0-5.052-2.262-5.052-5.052c0-0.528,0.081-1.036,0.231-1.515
			c0.152-0.679,0.503-1.323,1.081-1.881c0.383-0.422,0.838-0.78,1.344-1.052c1.098-0.592,2.826-0.729,4.09-0.792
			c4.933-0.246,10.567,0.733,10.243-4.811c-0.437-7.457-4.95-5.124-16.05-6.483c-5.979-0.732-10.91-4.885-10.91-10.911
			C47.113,8.661,51.999,3.776,58.023,3.776 M58.023,1.776c-7.119,0-12.91,5.792-12.91,12.911c0,6.68,5.209,11.982,12.667,12.896
			c2.898,0.355,5.385,0.466,7.383,0.555c6.126,0.274,6.7,0.404,6.914,4.06c0.049,0.833-0.079,1.417-0.378,1.738
			c-0.794,0.852-3.311,0.878-5.532,0.901c-0.796,0.008-1.62,0.017-2.437,0.058c-1.65,0.082-3.529,0.268-4.94,1.029
			c-0.684,0.369-1.3,0.846-1.831,1.42c-0.785,0.774-1.329,1.724-1.577,2.753c-0.198,0.659-0.299,1.344-0.299,2.036
			c0,3.888,3.164,7.052,7.052,7.052c0.708,0,1.644-0.1,2.727-0.215c1.39-0.147,2.964-0.315,4.405-0.315
			c2.541,0,2.998,0.538,3.001,0.543c-0.001,0,0.006,0.027,0.009,0.077c0.066,1.109-0.077,1.86-0.425,2.229
			c-0.328,0.348-1.201,0.762-3.5,0.762c-1.503,0-3.492-0.173-6.258-0.545c-1.286-0.173-2.225-0.196-2.975-0.196
			c-0.305,0-0.608,0.004-0.923,0.009c-0.319,0.005-0.651,0.01-1.012,0.01c-4.516,0-8.189,3.673-8.189,8.188s3.673,8.188,8.189,8.188
			c1.593,0,3.591-0.57,5.707-1.172c2.161-0.616,4.609-1.314,6.444-1.314c1.882,0,2.365,0.652,2.598,1.857
			c0.227,1.169-0.2,3.273-1.195,4.543c-0.43,0.549-0.88,0.839-1.338,0.862l0,0c-0.595,0-2.296-0.439-3.313-0.701
			c-1.451-0.374-2.174-0.554-2.749-0.554c-3.725,0-6.755,3.03-6.755,6.755c0,3.726,3.03,6.756,6.755,6.756
			c3.011,0,5.417,0.677,6.958,1.956c1.562,1.297,1.889,2.921,1.889,4.056c0,4.603-4.861,9.57-12.715,9.57
			c-0.275,0-0.552-0.007-0.834-0.019c-0.322-0.016-0.61-0.016-0.865-0.017h-0.196h-0.039l-0.04,0.001
			c-0.008,0-0.564,0.019-1.002,0.019c-0.087,0-0.169-0.001-0.238-0.003c-0.167-0.006-0.338-0.009-0.503-0.009
			c-0.191,0-0.373,0.004-0.547,0.007c-0.137,0.002-0.269,0.005-0.396,0.005c-0.571,0-0.618-0.029-0.874-0.295
			c-0.892-0.925-0.759-1.36-0.467-2.314c0.249-0.813,0.766-2.505-0.72-3.75c-0.824-0.693-1.998-1.126-3.06-1.126
			c-0.644,0-1.229,0.151-1.74,0.448c-0.93,0.54-1.531,1.475-1.65,2.563c-0.093,0.849,0.079,2.088,1.232,3.508
			c-2.372-1.171-4.827-2.313-6.514-2.313c-0.56,0-1.061,0.119-1.489,0.354c-1.129,0.626-1.924,1.911-2.03,3.277
			c-0.086,1.11,0.306,2.117,1.081,2.792c-0.651,0.5-1.155,1.262-1.253,2.43c-0.098,1.16,0.173,2.1,0.807,2.789
			c0.404,0.439,1.138,0.964,2.34,0.964c1.509,0,3.21-0.853,4.823-1.726c0.184-0.1,0.346-0.188,0.479-0.256
			c1.78-0.789,2.882-1.12,4.917-1.666c0.202-0.036,1.011-0.128,3.994-0.128c0.773,0,1.514,0.006,2.105,0.011
			c0.096,0,0.188,0.001,0.276,0.002l0.02,0.026l0.897-0.021c0.055-0.001,0.098-0.002,0.13-0.004h0.002l0.186-0.005
			c4.111-0.073,7.295-0.469,10.101-1.269c-1.122,3.227-2.987,6.396-4.797,9.471c-4.184,7.107-8.509,14.457-2.839,21.877
			c1.133,1.482,2.511,2.977,4.096,4.439c0,0,0,0,0,0c-0.009,0,0.116,0.261,0.072,1.097l-0.034,0.69
			c-0.027,0.587-0.06,1.3-0.132,1.615c-0.127,0.045-0.397,0.117-0.925,0.18c-0.212,0.024-0.446,0.037-0.713,0.037
			c-0.387,0-0.792-0.025-1.222-0.052c-0.319-0.02-0.639-0.039-0.959-0.05c-0.78-0.025-1.586-0.038-2.467-0.038h-0.119l-0.118,0.014
			c-0.835,0.1-1.785,0.296-2.498,0.992c-1.011,0.973-1.015,1.968-0.927,2.475c0.086,0.493,0.409,1.401,1.605,1.936
			c0.51,0.229,1.067,0.346,1.651,0.346c0.318,0,0.648-0.034,1.008-0.104c0.398-0.073,0.758-0.12,1.114-0.146
			c0.631-0.047,1.295-0.07,1.983-0.07c1.579,0,3.303,0.124,4.987,0.36c0.456,0.064,0.947,0.124,1.447,0.124
			c1.078,0,1.938-0.3,2.555-0.89c0.542-0.521,0.837-1.195,0.837-1.901c-0.001-1.218-0.848-2.029-1.303-2.466
			c-0.025-0.024-0.05-0.048-0.075-0.07c-0.063-0.406,0.225-1.367,0.519-1.68c0.192-0.206,0.369-0.307,0.656-0.376
			c1.878-0.462,9.558-1.587,15.316-1.587c3.956,0,4.968,0.541,5.105,0.628c0.512,0.583,0.865,2.07,0.681,2.518
			c-0.053,0.056-0.116,0.114-0.183,0.178c-0.542,0.52-1.449,1.39-1.45,2.687c-0.001,0.739,0.312,1.446,0.879,1.993
			c0.679,0.651,1.599,0.967,2.814,0.967c0.581,0,1.158-0.07,1.694-0.146c2.068-0.29,4.184-0.443,6.116-0.443
			c0.844,0,1.659,0.029,2.423,0.086c0.466,0.034,0.917,0.094,1.426,0.188c0.408,0.076,0.776,0.112,1.128,0.112
			c0.651,0,1.268-0.128,1.832-0.381c1.268-0.569,1.608-1.517,1.698-2.03c0.113-0.646,0.03-1.629-1.01-2.635
			c-0.77-0.746-1.831-0.964-2.769-1.079l-0.121-0.015h-0.122c-0.985,0-1.959,0.016-2.977,0.049c-0.385,0.014-0.762,0.037-1.14,0.061
			c-0.531,0.032-1.032,0.063-1.518,0.063c-0.345,0-0.647-0.016-0.926-0.049c-1.172-0.138-1.423-0.334-1.434-0.342
			c-0.133-0.228-0.184-1.342-0.225-2.238c-0.012-0.264-0.024-0.542-0.04-0.837c-0.156-2.922,1.044-5.821,2.314-8.892
			c2.564-6.194,5.471-13.215-1.808-22.252c-0.841-1.043-1.828-2.064-2.782-3.053c-1.103-1.141-2.234-2.313-3.095-3.476
			c0.621,0.038,1.256,0.057,1.895,0.057c3.216,0,6.751-0.466,11.124-1.467l0.174-0.037h0.136l0.181-0.068l0.645-0.139l0.018-0.035
			c0.181-0.046,0.383-0.098,0.602-0.154c1.557-0.398,6.258-1.604,7.31-1.655c2.572,0.047,3.975,0.114,6.38,0.535
			c0.183,0.042,0.409,0.102,0.667,0.168c1.196,0.31,3.006,0.776,4.557,0.776c1.575,0,2.725-0.488,3.415-1.45
			c0.461-0.644,0.889-1.772,0.305-3.495c-0.266-0.782-0.919-1.983-2.481-2.446c0.081-0.087,0.16-0.179,0.236-0.275
			c0.734-0.937,0.92-2.17,0.513-3.388c-0.482-1.443-1.678-2.613-3.047-2.979c-0.242-0.064-0.497-0.098-0.758-0.098
			c-1.856,0-4.146,1.637-7.72,4.657c-0.308,0.26-0.651,0.551-0.8,0.666c-0.201,0.116-0.411,0.208-0.612,0.277
			c0.003-0.072,0.011-0.133,0.023-0.171c1.666-2.52,1.543-4.356,1.144-5.447c-0.41-1.117-1.288-1.945-2.41-2.274
			c-0.315-0.092-0.646-0.138-0.983-0.138c-1.663,0-3.244,1.13-4.01,2.18c-1.22,1.671-0.252,3.287,0.268,4.155
			c0.646,1.079,1.037,1.73,0.131,3.298c-0.342,0.592-0.486,0.642-1.695,0.918c-0.375,0.086-0.779,0.179-1.218,0.304
			c-0.379,0.107-1.195,0.286-1.478,0.346l-0.041,0.009l-0.04,0.011l-0.235,0.059c-0.29,0.072-0.618,0.154-0.992,0.264
			c-2.821,0.83-5.407,1.251-7.688,1.251c-3.989,0-7.117-1.246-9.56-3.81c-8.264-8.67-7.19-31.02-6.328-48.978
			c0.275-5.733,0.535-11.147,0.506-15.859C81.677,13.656,71.025,1.776,58.023,1.776L58.023,1.776z"/>
	</g>
</g>
<g id="Layer_1">
</g>
</svg>
