<?xml version="1.0" encoding="iso-8859-1"?>
<!-- Generator: Adobe Illustrator 16.0.0, SVG Export Plug-In . SVG Version: 6.00 Build 0)  -->
<!DOCTYPE svg PUBLIC "-//W3C//DTD SVG 1.1//EN" "http://www.w3.org/Graphics/SVG/1.1/DTD/svg11.dtd">
<svg version="1.1" xmlns="http://www.w3.org/2000/svg" xmlns:xlink="http://www.w3.org/1999/xlink" x="0px" y="0px" width="150px"
	 height="150px" viewBox="0 0 150 150" style="enable-background:new 0 0 150 150;" xml:space="preserve">
<g id="_x30_5_x5F_03_x5F_black">
	<rect style="fill:none;" width="150" height="150"/>
	<g>
		<path d="M88.324,149c-1.255,0-2.161-0.284-2.773-0.87c-0.577-0.559-0.697-1.141-0.696-1.531c0.003-1.074,0.847-1.884,1.525-2.534
			c0.195-0.188,0.417-0.399,0.5-0.516c1.023-1.443-0.254-8.586-1.495-9.904c-0.686-0.73-1.432-1.163-2.422-1.404
			c-0.846-0.207-1.694-0.304-2.675-0.304c-0.881,0-1.754,0.078-2.678,0.159c-1,0.089-2.034,0.181-3.157,0.181
			c-1.101,0-2.116-0.09-3.099-0.177c-0.91-0.08-1.77-0.156-2.636-0.156c-0.961,0-1.792,0.095-2.615,0.296
			c-0.994,0.242-1.74,0.675-2.421,1.402c-1.246,1.321-2.522,8.463-1.496,9.906c0.083,0.118,0.305,0.331,0.501,0.519
			c0.677,0.65,1.52,1.459,1.522,2.533c0.001,0.39-0.118,0.972-0.691,1.526C62.9,148.716,61.993,149,60.741,149
			c-0.727,0-1.489-0.093-2.204-0.192c-3.111-0.437-6.299-0.667-9.221-0.667c-1.271,0-2.501,0.044-3.658,0.129
			c-0.716,0.051-1.442,0.146-2.29,0.304c-0.491,0.09-0.904,0.132-1.302,0.132c-0.686,0-1.303-0.128-1.886-0.392
			c-0.989-0.442-1.292-1.084-1.373-1.544c-0.123-0.707,0.187-1.424,0.92-2.13c0.715-0.692,1.836-0.914,2.941-1.05l0.061-0.008h0.062
			c1.396,0,2.835,0.022,4.279,0.067c0.541,0.02,1.074,0.053,1.607,0.086c0.811,0.051,1.577,0.099,2.349,0.099
			c0.574,0,1.085-0.027,1.563-0.083c3.71-0.438,4.147-3.904,4.427-9.561l0.05-0.978c0.104-2.001-0.193-3.254-0.938-3.942
			c-1.082-1-2.036-1.909-2.917-2.78c-6.626-6.516-15.438-16.81-15.438-30.894c0-8.251,1.594-12.392,2.45-14.616
			c0.24-0.622,0.511-1.328,0.478-1.526c0,0.001,0,0.002-0.001,0.002c-0.011,0-0.152-0.144-0.776-0.391
			c-2.998-1.187-6.094-3.111-9.745-6.057l-0.162-0.127l-0.021-0.009c0,0-0.571-0.484-0.941-0.799
			c-1.328-1.13-4.438-3.775-5.272-4.211c-2.073-0.958-3.217-1.45-5.306-2.047c-0.125-0.028-0.344-0.073-0.597-0.124
			c-2.418-0.492-4.819-1.106-5.307-2.713c-0.169-0.556-0.162-1.428,0.83-2.429c0.52-0.524,1.124-0.789,1.798-0.789
			c1.035,0,1.924,0.629,2.709,1.185c0.151,0.107,0.299,0.212,0.444,0.308c0.25,0.171,0.803,0.523,1.429,0.911
			c-0.193-0.157-0.379-0.299-0.55-0.419l-0.385-0.268c-0.921-0.632-2.184-1.497-2.478-2.861c-0.146-0.674,0.033-1.366,0.503-1.947
			c0.595-0.737,1.588-1.213,2.529-1.213c0.17,0,0.336,0.016,0.497,0.047c1.413,0.275,2.611,2.434,4.328,6.32
			c0.195,0.442,0.34,0.777,0.421,0.922c0.376,0.583,0.9,0.973,1.21,1.134c0.001-0.001,0.002-0.003,0.003-0.005
			c0.307-0.501,0.584-0.955,0.543-1.262c-0.283-2.172,0.277-3.332,0.796-3.923c0.487-0.555,1.147-0.861,1.856-0.861
			c0.138,0,0.274,0.012,0.407,0.035c1.419,0.246,2.322,1.834,2.51,2.883c0.23,1.287-0.789,1.951-1.463,2.39
			c-0.935,0.609-1.818,1.185-1.677,3.17c0.066,0.926,0.409,1.202,1.238,1.87c0.25,0.201,0.518,0.417,0.801,0.671
			c0.34,0.303,1.054,0.86,1.058,0.864l0.151,0.126c0.203,0.169,0.435,0.363,0.693,0.599c2.18,1.988,5.042,3.418,8.505,4.25
			c1.067,0.256,1.714,0.366,2.162,0.366c0.65,0,0.837-0.185,1.842-1.469c0.263-0.336,0.564-0.721,0.925-1.156
			c2.559-3.078,4.542-8.056,3.287-10.731c-0.676-1.442-2.297-2.173-4.815-2.173c-5.398,0-9.79-4.392-9.79-9.79
			c0-5.39,4.391-9.782,9.789-9.79c3.217,0,6.222,1.539,8.047,4.118c2.065,2.917,3.571,5.818,5.315,9.176
			c0.384,0.739,0.78,1.502,1.196,2.292c0.432,0.819,0.767,1.595,1.063,2.28c0.899,2.083,1.271,2.803,2.469,2.803
			c0.406,0,0.909-0.086,1.497-0.255c1.45-0.418,2.318-1.031,2.58-1.822c0.317-0.958-0.191-2.383-1.431-4.012
			c-1.529-2.008-3.42-3.284-5.421-4.635c-1.183-0.798-2.405-1.624-3.581-2.625c-5.395-4.599-8.489-11.297-8.489-18.376
			c0-13.308,10.828-24.135,24.137-24.135c13.308,0,24.135,10.827,24.135,24.135c0,5.658-2.298,9.304-4.325,12.522
			c-0.41,0.65-0.816,1.295-1.2,1.949c-3.285,5.6-4.094,14.73-0.062,19.395c0.31,0.359,0.581,0.405,0.784,0.405
			c0.09,0,0.188-0.011,0.292-0.033c3.203-0.673,8.439-7.656,12.262-12.755c1.838-2.451,3.574-4.766,4.951-6.26
			c1.055-1.144,2.283-2.381,4.121-3.679c1.654-1.169,3.605-1.787,5.641-1.787c5.397,0,9.789,4.392,9.789,9.79
			c0,5.397-4.392,9.789-9.789,9.789c-1.482,0-2.526-0.124-3.364-0.224c-0.537-0.064-0.961-0.114-1.349-0.114
			c-1.016,0-1.97,0.353-4.645,2.358c-2.353,1.768-4.348,3.733-5.928,5.844c-2.723,3.625-2.61,3.762-0.737,6.05
			c0.521,0.638,1.17,1.431,1.884,2.449c2.4,3.431,4.18,7.208,5.291,11.223c0.188,0.68,0.344,1.267,0.483,1.793
			c0.643,2.424,0.937,3.53,2.564,6.714c1.75,3.427,3.979,6.021,6.624,7.714c0.382,0.246,0.747,0.514,1.112,0.781
			c0.302,0.222,0.604,0.443,0.915,0.649c0.315,0.205,0.596,0.409,0.855,0.599c0.726,0.529,1.069,0.764,1.621,0.764
			c0.153,0,0.319-0.018,0.504-0.054c1.952-0.378,2.279-1.38,2.626-2.44c0.25-0.766,0.628-1.922,1.931-2.032
			c0.092-0.008,0.187-0.012,0.285-0.012c1.14,0,2.612,0.528,3.148,1.688c0.325,0.707,0.291,1.51-0.093,2.205
			c-0.404,0.732-1.373,1.671-3.699,1.98c-0.312,0.041-0.678,0.427-1.031,0.8c-0.021,0.022-0.04,0.042-0.056,0.061
			c0.232,0.249,0.758,0.661,1.47,0.888c0.101,0.023,0.46,0.077,0.936,0.15c4.201,0.654,6.597,1.253,7.229,2.544
			c0.427,0.877,0.351,2.078-0.189,2.991c-0.438,0.74-1.132,1.187-1.905,1.226l-0.138,0.003c-1.335,0-2.456-0.962-3.274-1.664
			l-0.345-0.293c-0.163-0.135-0.351-0.279-0.554-0.426c0.534,0.502,1.014,0.941,1.239,1.135c0.143,0.125,0.282,0.241,0.425,0.359
			c0.948,0.789,2.713,2.256,1.547,4.251c-0.69,1.183-1.506,1.432-2.067,1.432c-1.708,0-2.939-2.184-4.056-4.421
			c-0.115-0.232-0.216-0.434-0.299-0.588c-1.102-1.833-1.871-2.81-3.358-4.589c-0.604-0.655-3.945-2.964-5.373-3.949
			c-0.414-0.286-1.072-0.75-1.085-0.76l-0.15-0.113c-2.85-2.079-5.007-3.949-6.726-5.85c-1.037,9.204-6.099,18.325-15.075,27.15
			c-0.879,0.869-1.833,1.778-2.915,2.778c-0.743,0.688-1.041,1.941-0.934,3.943l0.048,0.964c0.276,5.664,0.712,9.135,4.427,9.573
			c0.477,0.056,0.988,0.083,1.562,0.083c0.772,0,1.539-0.048,2.35-0.099c0.533-0.033,1.066-0.066,1.601-0.085
			c1.427-0.045,2.849-0.068,4.284-0.068h0.062l0.061,0.008c1.105,0.136,2.227,0.357,2.943,1.053
			c0.731,0.702,1.041,1.419,0.919,2.127c-0.08,0.46-0.384,1.102-1.377,1.546c-0.58,0.262-1.196,0.39-1.882,0.39
			c-0.397,0-0.812-0.042-1.301-0.132c-0.848-0.157-1.574-0.253-2.288-0.303c-1.16-0.086-2.392-0.13-3.662-0.13
			c-2.922,0-6.11,0.23-9.221,0.667C89.813,148.907,89.053,149,88.324,149z"/>
		<path style="fill:#FFFFFF;" d="M72.059,5.75c12.774,0,23.135,10.361,23.135,23.135c0,6.463-3.09,10.049-5.388,13.964
			c-3.317,5.655-4.431,15.378,0.044,20.555c0.448,0.52,0.968,0.751,1.541,0.751c0.161,0,0.327-0.019,0.497-0.054
			c5.135-1.079,13.328-14.53,17.743-19.315c1.125-1.221,2.272-2.347,3.963-3.541c1.431-1.011,3.178-1.604,5.063-1.604
			c4.851,0,8.789,3.936,8.789,8.79c0,4.853-3.938,8.789-8.789,8.789c-2.392,0-3.607-0.338-4.713-0.338
			c-1.312,0-2.468,0.476-5.244,2.559c-2.535,1.904-4.542,3.925-6.129,6.044c-4.021,5.353-2.231,4.876,1.128,9.673
			c2.292,3.276,4.052,6.958,5.146,10.916c1.072,3.878,1.091,4.725,3.121,8.695c1.585,3.104,3.848,6.101,6.976,8.102
			c0.691,0.444,1.33,0.971,2.017,1.423c1.219,0.794,1.826,1.527,3.026,1.527c0.211,0,0.439-0.022,0.693-0.071
			c4.153-0.805,2.807-4.319,4.452-4.459c0.064-0.006,0.131-0.008,0.199-0.008c0.811,0,1.903,0.375,2.242,1.108
			c0.42,0.914-0.093,2.385-3.017,2.774c-0.683,0.09-1.188,0.644-1.671,1.151c-0.34,0.354-0.434,0.636-0.354,0.866
			c0.18,0.505,1.077,1.306,2.235,1.675c0.854,0.215,6.913,0.839,7.571,2.182c0.479,0.983-0.071,2.719-1.247,2.777
			c-0.029,0.001-0.059,0.002-0.088,0.002c-1.126,0-2.181-1.067-2.983-1.729c-1.002-0.833-3.431-2.374-4.247-2.374
			c-0.088,0-0.157,0.018-0.204,0.056c-0.45,0.379-0.195,0.433,0.216,1.017s3.165,3.14,3.636,3.542
			c1.026,0.905,2.61,1.888,1.758,3.346c-0.389,0.667-0.797,0.937-1.204,0.937c-1.444,0-2.886-3.391-3.474-4.482
			c-1.175-1.957-2.009-3.006-3.472-4.757c-0.882-0.96-5.555-4.102-6.485-4.765l-0.01-0.007l-0.004-0.005l-0.004-0.004
			c-0.052-0.034-0.088-0.061-0.113-0.08h-0.002l-0.156-0.119c-3.57-2.605-6.198-5-8.143-7.614
			c-0.398,12.287-8.062,22.218-14.961,29.001c-0.92,0.909-1.885,1.825-2.893,2.757c-1.062,0.982-1.367,2.602-1.254,4.73
			c0.282,5.362,0.228,10.872,5.356,11.478c0.561,0.065,1.119,0.09,1.679,0.09c1.326,0,2.651-0.137,3.986-0.185
			c1.411-0.044,2.823-0.067,4.248-0.067c1.063,0.131,1.905,0.328,2.369,0.778c1.082,1.039,0.633,1.683-0.17,2.042
			c-0.488,0.221-0.98,0.303-1.474,0.303c-0.372,0-0.745-0.047-1.12-0.115c-0.864-0.16-1.632-0.264-2.398-0.317
			c-1.214-0.09-2.465-0.132-3.732-0.132c-3.132,0-6.36,0.256-9.359,0.677c-0.672,0.094-1.395,0.183-2.064,0.183
			c-0.848,0-1.61-0.142-2.082-0.593c-1.255-1.214,0.893-2.489,1.453-3.28c1.371-1.933-0.124-9.619-1.583-11.168
			c-0.903-0.964-1.866-1.436-2.913-1.69c-1.015-0.249-1.971-0.332-2.911-0.332c-1.898,0-3.73,0.34-5.835,0.34
			c-2.062,0-3.868-0.333-5.734-0.333c-0.923,0-1.862,0.082-2.854,0.325c-1.047,0.255-2.012,0.727-2.913,1.69
			c-1.461,1.549-2.954,9.235-1.581,11.168c0.559,0.791,2.706,2.066,1.452,3.28C62.35,147.858,61.587,148,60.741,148
			c-0.67,0-1.393-0.089-2.066-0.183c-3-0.421-6.227-0.677-9.359-0.677c-1.267,0-2.518,0.042-3.732,0.132
			c-0.767,0.054-1.533,0.157-2.398,0.317c-0.375,0.068-0.748,0.115-1.12,0.115c-0.494,0-0.985-0.082-1.474-0.303
			c-0.803-0.359-1.252-1.003-0.172-2.042c0.465-0.45,1.308-0.647,2.37-0.778c1.427,0,2.839,0.023,4.248,0.067
			c1.336,0.048,2.661,0.185,3.987,0.185c0.559,0,1.119-0.024,1.679-0.09c5.129-0.605,5.073-6.115,5.359-11.478
			c0.111-2.129-0.195-3.748-1.258-4.73c-1.008-0.932-1.973-1.848-2.893-2.757c-7.516-7.391-15.141-17.226-15.141-30.183
			c0-15.144,5.415-15.922,1.518-17.461c-3.035-1.202-6.035-3.123-9.484-5.905l-0.155-0.122v-0.001
			c-0.025-0.019-0.062-0.048-0.108-0.087l-0.004-0.003l-0.007-0.003l-0.009-0.008c-0.882-0.729-5.125-4.429-6.279-5.031
			c-2.071-0.959-3.3-1.495-5.493-2.122c-1.549-0.365-7.105-1.108-4.638-3.601c0.351-0.354,0.717-0.493,1.087-0.493
			c0.885,0,1.796,0.791,2.599,1.325c0.51,0.35,3.692,2.347,4.363,2.594c0.371,0.137,0.573,0.268,0.722,0.268
			c0.12,0,0.206-0.086,0.316-0.324c0.257-0.565-2.213-2.866-3.394-3.697c-0.865-0.62-2.216-1.385-2.461-2.522
			c-0.225-1.045,1.02-1.949,2.054-1.949c0.104,0,0.207,0.009,0.305,0.028c1.47,0.287,3.638,5.978,4.067,6.748
			c0.657,1.024,1.662,1.682,2.196,1.725c0.012,0.001,0.025,0.001,0.037,0.001c0.233,0,0.468-0.167,0.709-0.565
			c0.364-0.597,0.77-1.231,0.679-1.913c-0.351-2.697,0.716-3.652,1.662-3.652c0.081,0,0.16,0.007,0.238,0.021
			c0.863,0.15,1.55,1.264,1.695,2.074c0.291,1.624-3.453,1.232-3.153,5.454c0.123,1.725,1.097,2.074,2.369,3.214
			c0.359,0.32,1.109,0.907,1.109,0.907c0.221,0.186,0.484,0.4,0.785,0.675c2.559,2.333,5.76,3.719,8.946,4.484
			c1.071,0.257,1.82,0.394,2.395,0.394c1.485,0,1.813-0.909,3.537-2.987c3.972-4.779,7.205-14.543-2.298-14.543
			c-4.854,0-8.79-3.937-8.79-8.79c0-4.854,3.87-8.782,8.79-8.79c0.003,0,0.006,0,0.009,0c2.994,0,5.636,1.458,7.221,3.695
			c2.477,3.499,4.151,7.007,6.442,11.356c1.634,3.103,1.851,5.617,4.417,5.617c0.495,0,1.077-0.094,1.774-0.294
			c4.628-1.334,3.843-4.543,1.668-7.4c-2.571-3.375-6.057-4.781-9.149-7.416c-4.979-4.244-8.138-10.56-8.138-17.615
			C48.922,16.11,59.282,5.75,72.059,5.75 M72.059,3.75c-13.86,0-25.137,11.276-25.137,25.135c0,3.935,0.918,7.757,2.628,11.193
			c-1.487-0.737-3.149-1.137-4.862-1.137c-5.96,0.009-10.799,4.849-10.799,10.79c0,5.949,4.84,10.79,10.79,10.79
			c2.097,0,3.413,0.538,3.91,1.598c1.054,2.247-0.778,6.813-3.15,9.667c-0.369,0.445-0.676,0.836-0.944,1.18
			c-0.358,0.457-0.763,0.975-0.928,1.082c0,0-0.002,0-0.004,0c-0.014,0-0.054,0.004-0.122,0.004c-0.466,0-1.323-0.193-1.927-0.338
			c-3.297-0.792-6.011-2.144-8.066-4.018c-0.269-0.245-0.512-0.449-0.724-0.626l-0.122-0.102l-0.027-0.023l-0.028-0.022
			c-0.195-0.152-0.756-0.597-1.011-0.824c-0.293-0.263-0.575-0.49-0.837-0.701c-0.833-0.671-0.835-0.708-0.868-1.162
			c-0.1-1.398,0.343-1.687,1.226-2.261c0.73-0.476,2.249-1.465,1.901-3.404c-0.28-1.56-1.54-3.383-3.322-3.692
			c-0.193-0.033-0.387-0.05-0.58-0.05c-1.001,0-1.928,0.427-2.608,1.201c-0.576,0.655-1.194,1.832-1.113,3.828
			c-0.063-0.141-0.132-0.297-0.194-0.438c-1.896-4.291-3.198-6.536-5.052-6.897c-0.222-0.043-0.454-0.065-0.688-0.065
			c-1.231,0-2.529,0.622-3.307,1.584c-0.649,0.804-0.902,1.77-0.715,2.725c-0.059-0.003-0.118-0.004-0.178-0.004
			c-0.937,0-1.804,0.375-2.507,1.084c-1.41,1.424-1.28,2.756-1.077,3.424c0.702,2.312,3.801,2.942,6.064,3.402
			c0.22,0.045,0.414,0.084,0.569,0.119c1.974,0.566,3.086,1.042,5.101,1.975c0.799,0.447,3.996,3.167,5.056,4.069
			c0.354,0.302,0.638,0.543,0.813,0.688l0.217,0.193l0.06,0.026l0.072,0.057c3.706,2.99,6.878,4.959,9.963,6.185
			c-0.074,0.204-0.162,0.432-0.24,0.637c-0.879,2.285-2.517,6.538-2.517,14.975c0,14.46,8.982,24.965,15.738,31.608
			c0.885,0.875,1.847,1.792,2.938,2.8c0.496,0.458,0.704,1.521,0.618,3.157l-0.05,0.979c-0.283,5.733-0.705,8.282-3.547,8.617
			c-0.437,0.051-0.91,0.076-1.445,0.076c-0.741,0-1.492-0.047-2.287-0.097c-0.542-0.033-1.084-0.067-1.628-0.087
			c-1.464-0.045-2.914-0.068-4.32-0.068h-0.123l-0.122,0.015c-1.277,0.157-2.588,0.428-3.517,1.327
			c-1.226,1.179-1.333,2.292-1.207,3.018c0.1,0.572,0.486,1.63,1.953,2.286c0.708,0.32,1.46,0.478,2.291,0.478
			c0.454,0,0.938-0.049,1.481-0.148c0.813-0.15,1.504-0.242,2.177-0.289c1.141-0.084,2.347-0.127,3.592-0.127
			c2.875,0,6.016,0.228,9.081,0.657c0.752,0.105,1.555,0.202,2.344,0.202c1.522,0,2.655-0.375,3.463-1.146
			c0.836-0.81,1.008-1.673,1.006-2.257c-0.003-1.5-1.103-2.555-1.83-3.253c-0.121-0.115-0.297-0.284-0.37-0.367
			c-0.693-1.405,0.442-7.515,1.404-8.654c0.545-0.583,1.121-0.916,1.924-1.111c0.746-0.184,1.501-0.269,2.38-0.269
			c0.822,0,1.66,0.074,2.548,0.152c1.004,0.089,2.042,0.181,3.187,0.181c1.168,0,2.224-0.094,3.245-0.185
			c0.901-0.079,1.754-0.155,2.59-0.155c0.897,0,1.672,0.088,2.436,0.274c0.804,0.196,1.38,0.529,1.93,1.115
			c0.957,1.137,2.094,7.243,1.402,8.651c-0.073,0.083-0.248,0.251-0.368,0.365c-0.729,0.698-1.829,1.754-1.833,3.254
			c-0.001,0.584,0.171,1.449,0.997,2.248c0.814,0.78,1.948,1.155,3.473,1.155c0.79,0,1.592-0.097,2.342-0.202
			c3.065-0.43,6.205-0.657,9.082-0.657c1.246,0,2.452,0.043,3.585,0.126c0.683,0.048,1.373,0.14,2.182,0.29
			c0.547,0.1,1.03,0.148,1.484,0.148c0.83,0,1.581-0.157,2.297-0.479c1.461-0.654,1.848-1.713,1.946-2.285
			c0.127-0.726,0.019-1.839-1.214-3.022c-0.921-0.894-2.232-1.164-3.511-1.321l-0.121-0.015h-0.123
			c-1.404,0-2.854,0.023-4.311,0.068c-0.553,0.02-1.095,0.054-1.636,0.087c-0.795,0.05-1.547,0.097-2.288,0.097
			c-0.534,0-1.008-0.025-1.447-0.076c-2.842-0.336-3.262-2.887-3.542-8.628l-0.049-0.969c-0.087-1.637,0.12-2.699,0.615-3.157
			c1.09-1.007,2.052-1.924,2.94-2.802c8.482-8.34,13.536-16.968,15.07-25.707c1.51,1.465,3.303,2.947,5.448,4.513l0.062,0.048
			l0.012,0.015l0.106,0.075l0.479,0.366h0.042c0.155,0.107,0.339,0.234,0.543,0.376c1.14,0.786,4.576,3.159,5.212,3.813
			c1.417,1.696,2.163,2.646,3.229,4.416c0.074,0.141,0.163,0.318,0.264,0.521c0.988,1.98,2.481,4.975,4.95,4.975
			c0.824,0,2.002-0.335,2.932-1.929c0.636-1.087,0.643-2.053,0.356-2.874c1.085-0.078,2.046-0.698,2.645-1.711
			c0.715-1.208,0.805-2.753,0.23-3.935c-0.833-1.699-3.34-2.376-7.977-3.098c-0.151-0.023-0.318-0.049-0.469-0.073
			c2.129-0.478,3.114-1.506,3.57-2.334c0.539-0.977,0.585-2.107,0.128-3.104c-0.728-1.572-2.563-2.273-4.06-2.273
			c-0.127,0-0.25,0.005-0.368,0.015c-1.964,0.167-2.526,1.891-2.797,2.719c-0.327,1.001-0.491,1.504-1.867,1.77
			c-0.119,0.023-0.225,0.035-0.313,0.035c-0.214,0-0.358-0.08-1.031-0.571c-0.273-0.199-0.567-0.413-0.904-0.632
			c-0.289-0.19-0.576-0.403-0.864-0.614c-0.367-0.27-0.747-0.549-1.162-0.815c-2.497-1.598-4.607-4.063-6.275-7.328
			c-1.58-3.09-1.846-4.093-2.488-6.516c-0.141-0.53-0.298-1.12-0.486-1.804c-1.142-4.126-2.97-8.005-5.436-11.529
			c-0.735-1.05-1.397-1.859-1.93-2.51c-0.54-0.66-1.151-1.408-1.145-1.642c0.014-0.439,0.655-1.507,1.907-3.174
			c1.524-2.037,3.452-3.936,5.73-5.646c2.665-1.999,3.382-2.158,4.043-2.158c0.328,0,0.727,0.047,1.23,0.107
			c0.864,0.103,1.94,0.231,3.482,0.231c5.949,0,10.789-4.84,10.789-10.789c0-5.949-4.84-10.79-10.789-10.79
			c-2.243,0-4.394,0.681-6.218,1.97c-1.914,1.352-3.188,2.634-4.279,3.818c-1.411,1.53-3.162,3.865-5.016,6.337
			c-3.518,4.691-8.832,11.781-11.668,12.377c-0.025,0.005-0.045,0.008-0.06,0.009c-0.013-0.012-0.03-0.029-0.053-0.055
			c-3.698-4.278-2.88-13.043,0.167-18.236c0.372-0.635,0.766-1.26,1.183-1.922c2.1-3.332,4.479-7.108,4.479-13.055
			C97.193,15.025,85.918,3.75,72.059,3.75L72.059,3.75z M62.767,59.61c-0.467,0-0.642-0.094-1.551-2.199
			c-0.303-0.701-0.646-1.497-1.096-2.35c-0.416-0.789-0.811-1.55-1.194-2.288c-0.697-1.342-1.356-2.612-2.029-3.841
			c0.849,0.645,1.702,1.22,2.535,1.783c1.932,1.304,3.756,2.535,5.186,4.413c1.181,1.552,1.434,2.614,1.276,3.091
			c-0.146,0.44-0.841,0.868-1.908,1.176C63.489,59.538,63.079,59.61,62.767,59.61L62.767,59.61z"/>
	</g>
</g>
<g id="Layer_1">
</g>
</svg>
