<?xml version="1.0" encoding="iso-8859-1"?>
<!-- Generator: Adobe Illustrator 16.0.0, SVG Export Plug-In . SVG Version: 6.00 Build 0)  -->
<!DOCTYPE svg PUBLIC "-//W3C//DTD SVG 1.1//EN" "http://www.w3.org/Graphics/SVG/1.1/DTD/svg11.dtd">
<svg version="1.1" xmlns="http://www.w3.org/2000/svg" xmlns:xlink="http://www.w3.org/1999/xlink" x="0px" y="0px" width="150px"
	 height="150px" viewBox="0 0 150 150" style="enable-background:new 0 0 150 150;" xml:space="preserve">
<g id="_x30_5_x5F_05">
	<rect style="fill:none;" width="150" height="150"/>
	<g>
		<g>
			<path style="fill-rule:evenodd;clip-rule:evenodd;fill:#2A72B8;" d="M51.23,92.752c-2.302,3.819-3.571,6.571-5.356,10.64
				c-0.631,0.752-1.499,0.606-3.767,0.196c-5.812-1.054-8.421-1.199-9.166-0.854h-0.056l-0.021,0.037
				c-0.121,0.075-0.168,0.171-0.156,0.28c-0.771,1.382-1.513,2.782-2.218,4.211c-1.014,2.062-2.401,4.813-3.003,5.553
				c-1.653,1.866-2.65,2.937-4.575,4.522c-1.392,1.037-6.631,4.205-3.072,5.625c1.714,0.684,2.519-1.183,3.329-2.439
				c0.36-0.574,2.674-3.957,3.236-4.501c0.562-0.538,0.583-0.82,1.06-0.395c0.51,0.454-0.958,3.835-1.78,5.18
				c-0.598,1.001-1.614,2.353-1.366,3.597c0.254,1.262,2.218,1.57,3.2,0.897c1.343-0.927,1.034-7.572,1.132-8.529
				c0.208-1.309,0.929-2.408,1.443-2.685c0.238-0.126,0.558-0.068,0.996,0.24c0.625,0.439,1.302,0.896,1.511,1.619
				c0.894,3.096,2.566,3.41,3.485,2.811c0.8-0.527,1-1.943,0.792-2.816c-0.416-1.751-3.992,0.266-5.532-4.09
				c-0.629-1.778,0.193-2.551,0.969-4.248c0.538-1.171,1.114-2.272,1.731-3.326c2.342,1.445,6.987,3.335,7.584,3.667
				c2.838,1.57,3.466,2.251,3.546,3.841c-0.386,4.921-0.092,6.617,0.49,10.287c0.768,4.837,1.474,9.89,1.302,14.14
				c-0.116,2.762-0.282,5.345-0.316,6c-0.202,3.803,0.052,5.052-3.583,5.479c-1.34,0.157-2.67-0.017-4.015-0.062
				c-0.998-0.036-1.997-0.052-3.009-0.052c-0.752,0.093-1.35,0.233-1.679,0.551c-0.764,0.737-0.449,1.193,0.121,1.45
				c0.607,0.271,1.22,0.244,1.838,0.133c0.611-0.113,1.158-0.187,1.697-0.227c2.99-0.221,6.295-0.033,9.274,0.385
				c1.083,0.15,2.342,0.287,2.942-0.291c0.89-0.856-0.633-1.764-1.031-2.322c-0.883-1.246,0.493-7.438,1.842-11.893
				c1.572-5.19,2.16-3.977,7.24-4.011c3.017-0.02,6.022-0.036,9.023-0.052c2.676,0.014,5.356,0.028,8.047,0.046
				c2.69-0.018,5.373-0.032,8.047-0.046c3.002,0.016,6.008,0.032,9.024,0.052c5.08,0.034,5.668-1.18,7.24,4.011
				c1.35,4.455,2.726,10.646,1.842,11.893c-0.397,0.559-1.92,1.466-1.03,2.322c0.6,0.578,1.859,0.441,2.942,0.291
				c2.979-0.418,6.284-0.605,9.274-0.385c0.54,0.04,1.086,0.113,1.696,0.227c0.618,0.111,1.23,0.139,1.838-0.133
				c0.57-0.257,0.886-0.713,0.121-1.45c-0.329-0.317-0.927-0.458-1.679-0.551c-1.013,0-2.011,0.016-3.009,0.052
				c-1.345,0.045-2.675,0.219-4.015,0.062c-3.635-0.428-3.381-1.677-3.583-5.479c-0.033-0.655-0.2-3.238-0.315-6
				c-0.173-4.25,0.534-9.303,1.302-14.14c0.583-3.67,0.876-5.366,0.491-10.287c0.08-1.59,0.706-2.271,3.545-3.841l4.394-2.429
				c3.384,3.622,6.009,7.115,8.079,11.618c0.775,1.695,1.598,2.468,0.968,4.246c-1.54,4.357-5.115,2.339-5.531,4.092
				c-0.209,0.871-0.009,2.287,0.791,2.814c0.919,0.602,2.592,0.287,3.485-2.811c0.21-0.722,0.886-1.18,1.512-1.617
				c0.438-0.311,0.758-0.368,0.996-0.24c0.514,0.276,1.234,1.375,1.443,2.683c0.098,0.959-0.212,7.603,1.131,8.531
				c0.982,0.673,2.946,0.362,3.2-0.897c0.249-1.244-0.768-2.598-1.365-3.597c-0.822-1.347-2.29-4.726-1.782-5.182
				c0.478-0.426,0.499-0.144,1.062,0.396c0.562,0.542,2.876,3.927,3.235,4.501c0.811,1.257,1.615,3.121,3.33,2.439
				c3.559-1.42-1.681-4.588-3.072-5.625c-1.925-1.587-2.922-2.656-4.575-4.522c-0.602-0.739-1.989-3.493-3.003-5.554
				c-2.465-5-5.398-9.661-8.382-14.363l-6.392,1.16c-2.269,0.41-3.137,0.556-3.767-0.196c-1.786-4.068-3.771-8.029-6.073-11.849
				c-1.411-2.335-0.808-2.226,1.842-3.218c1.878-0.708,3.998-1.07,6.537-0.83c2.229,0.216,4.492,0.81,6.706,1.745
				c3.229,1.362,1.608,2.43,1.608,5.377c0,7.21,5.846,13.055,13.057,13.055s13.056-5.845,13.056-13.055
				c0-11.675-9.491-13.15-18.396-12.728c-5.395,0.257-11.646,0.751-15.539,0.374c-4.188-0.398-7.935,1.377-11.468,3.438
				c-1.549,0.9-3.035-1.171-2.015-2.448c1.602-2,5.483-4.134,9.528-5.731c5.687-2.245,13.091-2.064,16.992-4.514
				c3.678-2.31,6.122-6.402,6.122-11.065c0-7.209-5.846-13.055-13.056-13.055c-7.212,0-13.057,5.845-13.057,13.055
				c0,6.964,7.045,9.687-0.597,11.932c-3.097,0.907-6.523,1.91-9.521,5.388c-1.304,1.509-4.097-0.948-5.788-1.889
				c-1.108-0.615-1.383-0.662-1.406-2.055c-0.041-2.599-0.146-4.954-0.237-7.098c-0.003,0.003-0.003,0.003-0.005,0.003
				c-0.469-10.858,3.979-18.335,9.182-24.979c5.155-6.585,2.612-5.076,9.244-5.076c8.025,0,14.532-6.506,14.532-14.532
				c0-8.026-6.507-14.532-14.532-14.532c-22.831,0-5.315,19.085-16.791,36.272c-4.222,6.321-7.378,11.563-6.879,23.068
				c-0.003,0.004-0.003,0.004-0.004,0.007c0.239,5.589-1.041,5.875-2.479,5.625c-1.316-0.23-2.805-0.515-2.586-5.625
				c-0.002-0.003-0.002-0.003-0.004-0.007c0.348-8.012,2.763-20.837,2.763-23.416c0-7.211-5.846-13.057-13.057-13.057
				c-7.21,0-13.056,5.846-13.056,13.057c0,5.761,3.733,10.65,8.911,12.384c7.26,2.427,9.853-4.39,9.194,10.812
				c-0.001,0-0.001,0-0.004-0.003c-0.091,2.145-0.196,4.5-0.238,7.098c-0.023,1.393-0.298,1.439-1.405,2.055l-3.017,1.677
				c-1.261,0.7-1.684,1.472-2.772,0.212c-2.997-3.479-6.423-4.481-9.521-5.388c-5.106-1.5-6.997-7.346-9.743-12.779
				c-4.525-8.948-8.463-21.257-18.407-21.257c-7.763,0-14.057,6.292-14.057,14.055c0,7.764,6.293,14.057,14.057,14.057
				c3.109,0,5.984-1.011,8.313-2.721c5.422-3.983,4.021-8.852,8.741,3.618c1.614,4.268,3.431,8.256,9.616,10.072
				c2.44,0.711,5.153,1.509,7.415,4.333c0.561,0.703,0.835,0.761,0.259,1.442c-0.186,0.221-0.374,0.445-0.56,0.677L51.23,92.752z"/>
			<circle style="fill-rule:evenodd;clip-rule:evenodd;fill:#FFFFFF;" cx="21.82" cy="53.889" r="11.495"/>
			<circle style="fill-rule:evenodd;clip-rule:evenodd;fill:#FFFFFF;" cx="62.321" cy="44.955" r="11.495"/>
			<circle style="fill-rule:evenodd;clip-rule:evenodd;fill:#FFFFFF;" cx="102.226" cy="23.037" r="11.495"/>
			<circle style="fill-rule:evenodd;clip-rule:evenodd;fill:#FFFFFF;" cx="102.226" cy="23.037" r="11.495"/>
			<circle style="fill-rule:evenodd;clip-rule:evenodd;fill:#FFFFFF;" cx="113.543" cy="61.869" r="11.495"/>
			<circle style="fill-rule:evenodd;clip-rule:evenodd;fill:#FFFFFF;" cx="128.432" cy="94.508" r="11.495"/>
			<circle style="fill-rule:evenodd;clip-rule:evenodd;" cx="135.878" cy="93.853" r="1.906"/>
			<circle style="fill-rule:evenodd;clip-rule:evenodd;" cx="115.152" cy="68.839" r="1.906"/>
			<circle style="fill-rule:evenodd;clip-rule:evenodd;" cx="54.878" cy="44.776" r="1.906"/>
			<circle style="fill-rule:evenodd;clip-rule:evenodd;" cx="18.785" cy="60.857" r="1.906"/>
			<circle style="fill-rule:evenodd;clip-rule:evenodd;" cx="103.479" cy="27.742" r="1.906"/>
		</g>
		<g>
			<path style="fill-rule:evenodd;clip-rule:evenodd;" d="M54.396,97.631c-1.258,1.457-1.974,2.99-2.262,4.548
				c-0.508,2.744,0.311,5.576,1.852,8.263c2.303,4.003,6.157,7.161,9.792,8.536c3.114,1.176,6.58,1.68,9.987,2.065
				c3.119,0.364,5.684,0.359,8.163-0.077c2.41-0.423,4.734-1.254,7.409-2.548c2.436-1.293,4.431-2.847,5.952-4.751
				c1.723-2.159,2.834-4.766,3.279-7.947c0.225-1.608,0.028-3.024-0.783-4.063c-2.023-2.588-5.308-4.681-9.252-5.948
				c-3.948-1.272-8.44-2.067-12.732-2.455c-4.976-0.456-9.684-0.366-12.968,0.146C59.435,93.925,56.415,95.292,54.396,97.631z"/>
			<path style="fill-rule:evenodd;clip-rule:evenodd;fill:#FFFFFF;" d="M95.11,96.693l-4.22-0.504l-0.468,3.909
				c-0.112,0.93,0.557,1.78,1.485,1.892l0.843,0.099c0.93,0.111,1.779-0.557,1.891-1.482L95.11,96.693z"/>
			<path style="fill-rule:evenodd;clip-rule:evenodd;fill:#FFFFFF;" d="M65.214,92.638l-4.218-0.508l-0.471,3.914
				c-0.111,0.926,0.556,1.777,1.484,1.888l0.845,0.103c0.928,0.111,1.78-0.556,1.889-1.485L65.214,92.638z"/>
			<path style="fill-rule:evenodd;clip-rule:evenodd;fill:#FFFFFF;" d="M64.833,120.268l-4.22-0.502l0.47-3.913
				c0.112-0.928,0.964-1.597,1.891-1.485l0.843,0.1c0.929,0.111,1.597,0.963,1.486,1.893L64.833,120.268z"/>
			<path style="fill-rule:evenodd;clip-rule:evenodd;fill:#FFFFFF;" d="M88.906,120.876l-4.218-0.508l0.469-3.91
				c0.111-0.93,0.961-1.6,1.89-1.486l0.845,0.101c0.93,0.113,1.596,0.964,1.486,1.888L88.906,120.876z"/>
			<path style="fill-rule:evenodd;clip-rule:evenodd;fill:#2A72B8;" d="M62.833,93.398c3.285-0.512,7.993-0.602,12.968-0.146
				c4.292,0.388,8.784,1.183,12.732,2.455c3.944,1.268,7.229,3.36,9.252,5.948c0.812,1.039,1.007,2.455,0.783,4.063
				c-0.445,3.182-1.557,5.788-3.279,7.947c-1.521,1.904-3.517,3.458-5.952,4.751c-2.675,1.294-4.999,2.125-7.409,2.548
				c-2.479,0.437-5.044,0.441-8.163,0.077c-3.407-0.386-6.873-0.89-9.987-2.065c-3.635-1.375-7.49-4.533-9.792-8.536
				c-1.542-2.687-2.36-5.519-1.852-8.263c0.289-1.558,1.004-3.091,2.262-4.548C56.415,95.292,59.434,93.925,62.833,93.398
				L62.833,93.398z M52.711,96.179c-1.396,1.617-2.379,3.487-2.767,5.598c-0.634,3.43,0.408,6.808,2.113,9.771
				c2.367,4.123,6.473,7.829,10.937,9.513c3.355,1.269,6.968,1.793,10.519,2.195c2.95,0.344,5.86,0.421,8.801-0.098
				c2.817-0.493,5.428-1.495,7.995-2.736l0.036-0.021l0.038-0.016c2.539-1.348,4.844-3.071,6.645-5.327
				c2.108-2.64,3.279-5.7,3.746-9.031c0.28-2.007,0.052-4.096-1.232-5.736c-2.545-3.259-6.44-5.452-10.325-6.701
				c-4.228-1.36-8.79-2.15-13.214-2.554c-4.313-0.392-9.218-0.503-13.51,0.161C58.793,91.771,55.197,93.296,52.711,96.179
				L52.711,96.179z"/>
		</g>
	</g>
</g>
<g id="Layer_1">
</g>
</svg>
