<?xml version="1.0" encoding="iso-8859-1"?>
<!-- Generator: Adobe Illustrator 16.0.0, SVG Export Plug-In . SVG Version: 6.00 Build 0)  -->
<!DOCTYPE svg PUBLIC "-//W3C//DTD SVG 1.1//EN" "http://www.w3.org/Graphics/SVG/1.1/DTD/svg11.dtd">
<svg version="1.1" xmlns="http://www.w3.org/2000/svg" xmlns:xlink="http://www.w3.org/1999/xlink" x="0px" y="0px" width="150px"
	 height="150px" viewBox="0 0 150 150" style="enable-background:new 0 0 150 150;" xml:space="preserve">
<g id="_x30_5_x5F_04">
	<rect style="fill:none;" width="150" height="150"/>
	<g>
		<path style="fill-rule:evenodd;clip-rule:evenodd;fill:#255ACE;" d="M61.54,77.427c0.313,1.309,0.815,2.563,1.483,3.721
			c-0.648,0.812-1.151,1.726-1.459,2.748c-0.596,1.973-0.399,2.743-1.8,4.155c-0.707,0.713-1.573,1.355-2.696,1.96
			c-0.416,0.225-1.105,0.633-1.704,1.009c-1.554,0.98-1.08,0.686-1.415,2.453c-1.355,7.168-2.711,14.338-4.065,21.506
			c-0.245,1.306,0.139,2.761,0.071,3.264c-0.264,1.581-0.442,2.498-0.915,4.022c-0.368,1.051-1.964,4.596,0.104,4.072
			c0.994-0.253,0.857-1.526,0.895-2.479c0.011-0.43,0.172-3.045,0.286-3.533c0.117-0.482,0.05-0.641,0.392-0.589
			c0.365,0.059,0.604,2.371,0.586,3.373c-0.005,0.742-0.112,1.82,0.344,2.386c0.467,0.576,1.479,0.039,1.758-0.67
			c0.376-0.97-1.598-4.367-1.815-4.906c-0.258-0.766-0.221-1.604-0.056-1.935c0.077-0.152,0.239-0.239,0.533-0.229
			c0.414,0.01,0.862,0.008,1.156,0.316c1.274,1.313,2.151,0.883,2.416,0.233c0.233-0.563-0.064-1.383-0.399-1.77
			c-0.679-0.774-1.807,1.57-3.732-0.178c-0.493-0.448-0.771-0.894-0.649-1.442c1.279-5.81,2.558-11.618,3.837-17.429
			c0.277-1.257,0.214-2.866,1.141-3.677c0.671-0.587,1.666-0.726,2.692,0.116c0.646,0.392,0.868,1.035,0.905,1.766
			c0.039,0.73-0.378,5.193-0.418,5.975c-0.251,4.969-2.805,7.339-2.182,11.349c0.593,3.778,2.03,3.294,2.03,8.429
			c0.135,2.766,0.3,5.482,0.462,8.108c1.218,6.39,0.91,12.395,0.91,19.619c0,0.457,0.313,0.83,0.703,0.83c1.445,0,4.797,0,6.937,0
			c2.177,0,2.572-2.192,0.396-2.192c-1.666,0-4.477,0.312-6.959,0.514c-0.369-4.893-0.337-9.442-0.006-14.137
			c0.452-6.388-1.44-1.343,3.314-2.278c4.725-0.933,7.493-1.585,10.438-1.735c2.946,0.15,5.714,0.803,10.439,1.735
			c4.755,0.936,2.863-4.109,3.313,2.278c0.332,4.694,0.365,9.244-0.005,14.137c-2.482-0.202-5.292-0.514-6.959-0.514
			c-2.176,0-1.782,2.192,0.397,2.192c2.138,0,5.491,0,6.935,0c0.39,0,0.702-0.373,0.702-0.83c0-7.225-0.308-13.229,0.913-19.619
			c0.16-2.626,0.326-5.343,0.46-8.108c0-4.517,0.259-2.505,2.78-5.571c1.22-1.486,1.541-3.362,1.332-5.229
			c-0.287-2.624-1.147-5.058-2.732-7.181c-2.146-2.864-2.183-3.357-1.949-7.771c0.038-0.73,0.258-1.374,0.905-1.766
			c0.602-0.365,1.488-0.45,2.693-0.214c0.553,0.105,1.104,0.215,1.659,0.323c2.017,0.394,1.556,0.495,1.519-2.111
			c-0.107-7.295-0.215-14.59-0.32-21.884c-0.023-1.33-0.69-2.678-0.725-3.186c-0.058-1.601-0.067-2.536,0.089-4.124
			c0.153-1.102,1.007-4.895-0.916-3.968c-0.923,0.446-0.534,1.667-0.379,2.607c0.075,0.424,0.44,3.018,0.426,3.521
			c-0.018,0.496,0.08,0.636-0.266,0.655c-0.369,0.013-1.066-2.202-1.25-3.188c-0.143-0.729-0.254-1.807-0.814-2.269
			c-0.574-0.47-1.456,0.257-1.589,1.008c-0.174,1.026,2.44,3.959,2.762,4.442c0.406,0.7,0.538,1.529,0.443,1.887
			c-0.047,0.164-0.188,0.281-0.478,0.329c-0.408,0.075-0.847,0.166-1.195-0.077c-1.512-1.031-2.285-0.436-2.415,0.252
			c-0.116,0.601,0.341,1.344,0.747,1.653c0.82,0.624,1.455-1.898,3.69-0.571c0.574,0.339,0.936,0.72,0.927,1.284
			c-0.091,5.947-0.183,11.896-0.273,17.844c-0.046,3.008,0.556,3.473-1.782,2.409c-1.675-0.764-2.867-1.57-3.787-2.499
			c-1.401-1.412-1.205-2.183-1.801-4.155c-0.303-1.002-0.789-1.897-1.42-2.697c0.54-0.928,0.979-1.932,1.302-3.004
			c4.251-14.181-7.426-7.515-4.093-21.605c1.335-5.636,5.505-16.459,3.589-21.129c6.312,0.005,12.076-4.332,13.59-10.723
			c1.764-7.453-2.898-15.002-10.352-16.766c-7.454-1.763-15.002,2.897-16.765,10.35c-3.023,12.77-7.103,24.91-10.022,37.758
			C62.345,65.055,60.743,74.107,61.54,77.427z"/>
		<path style="fill-rule:evenodd;clip-rule:evenodd;" d="M61.362,115.798c-0.854-1.058-1.326-2.146-1.499-3.247
			c-0.297-1.939,0.331-3.921,1.47-5.773c1.701-2.771,4.475-4.919,7.063-5.809c2.211-0.767,4.661-1.051,7.063-1.253
			c2.203-0.193,4.008-0.14,5.737,0.218c1.692,0.347,3.308,0.975,5.164,1.942c1.689,0.956,3.06,2.089,4.089,3.459
			c1.17,1.556,1.9,3.405,2.152,5.66c0.123,1.131-0.045,2.123-0.634,2.837c-1.477,1.783-3.829,3.189-6.63,4.004
			c-2.807,0.81-5.979,1.281-9.005,1.468c-3.506,0.22-6.817,0.063-9.119-0.357C64.835,118.501,62.737,117.479,61.362,115.798z"/>
		<path style="fill-rule:evenodd;clip-rule:evenodd;fill:#FFFFFF;" d="M89.983,117.271l-2.976,0.266l-0.251-2.758
			c-0.06-0.651,0.425-1.233,1.083-1.298l0.596-0.051c0.648-0.063,1.237,0.423,1.301,1.078L89.983,117.271z"/>
		<path style="fill-rule:evenodd;clip-rule:evenodd;fill:#FFFFFF;" d="M84.132,119.182l-2.979,0.273l-0.249-2.76
			c-0.063-0.655,0.43-1.241,1.083-1.303l0.597-0.056c0.652-0.054,1.242,0.429,1.298,1.088L84.132,119.182z"/>
		<path style="fill-rule:evenodd;clip-rule:evenodd;fill:#FFFFFF;" d="M78.864,119.904l-2.978,0.271l-0.251-2.761
			c-0.063-0.652,0.423-1.242,1.081-1.301l0.595-0.055c0.657-0.058,1.241,0.429,1.298,1.081L78.864,119.904z"/>
		<path style="fill-rule:evenodd;clip-rule:evenodd;fill:#FFFFFF;" d="M73.687,120.047l-2.975,0.269l-0.253-2.761
			c-0.058-0.647,0.425-1.239,1.084-1.302l0.594-0.047c0.652-0.066,1.241,0.422,1.299,1.079L73.687,120.047z"/>
		<path style="fill-rule:evenodd;clip-rule:evenodd;fill:#FFFFFF;" d="M68.874,119.525l-2.978,0.269l-0.252-2.761
			c-0.059-0.654,0.429-1.237,1.079-1.297l0.599-0.052c0.652-0.064,1.242,0.425,1.305,1.08L68.874,119.525z"/>
		<path style="fill-rule:evenodd;clip-rule:evenodd;fill:#FFFFFF;" d="M64.425,117.799l-2.978,0.276l-0.251-2.763
			c-0.057-0.661,0.432-1.245,1.086-1.304l0.592-0.053c0.656-0.063,1.244,0.427,1.305,1.079L64.425,117.799z"/>
		<circle style="fill-rule:evenodd;clip-rule:evenodd;fill:#FFFFFF;" cx="78.877" cy="39.179" r="6.598"/>
		<circle style="fill-rule:evenodd;clip-rule:evenodd;fill:#FFFFFF;" cx="74.816" cy="54.334" r="6.598"/>
		<circle style="fill-rule:evenodd;clip-rule:evenodd;fill:#FFFFFF;" cx="87.962" cy="21.53" r="10.049"/>
		<circle style="fill-rule:evenodd;clip-rule:evenodd;fill:#FFFFFF;" cx="75.09" cy="74.192" r="10.049"/>
		<circle style="fill-rule:evenodd;clip-rule:evenodd;" cx="81.11" cy="19.693" r="2.386"/>
		<circle style="fill-rule:evenodd;clip-rule:evenodd;" cx="79.263" cy="79.044" r="2.387"/>
		<circle style="fill-rule:evenodd;clip-rule:evenodd;" cx="75.431" cy="41.362" r="1.567"/>
		<circle style="fill-rule:evenodd;clip-rule:evenodd;" cx="78.173" cy="51.34" r="1.567"/>
		<path style="fill-rule:evenodd;clip-rule:evenodd;fill:#255ACE;" d="M59.911,116.979c1.737,2.131,4.301,3.316,6.963,3.808
			c3.029,0.559,6.509,0.576,9.576,0.385c3.14-0.195,6.385-0.663,9.406-1.539c2.822-0.816,5.655-2.316,7.552-4.608
			c0.991-1.197,1.219-2.73,1.053-4.235c-0.267-2.412-1.054-4.63-2.515-6.577c-1.249-1.663-2.866-2.946-4.666-3.964l-0.056-0.031
			c-1.809-0.941-3.646-1.704-5.649-2.115c-2.084-0.432-4.164-0.432-6.277-0.249c-2.528,0.217-5.102,0.516-7.513,1.349
			c-3.243,1.117-6.259,3.687-8.046,6.596c-1.296,2.111-2.109,4.546-1.725,7.038C58.253,114.383,58.927,115.77,59.911,116.979
			L59.911,116.979z M61.362,115.798c-0.854-1.058-1.325-2.146-1.5-3.247c-0.296-1.941,0.332-3.921,1.471-5.773
			c1.701-2.771,4.475-4.919,7.063-5.809c2.212-0.767,4.661-1.051,7.063-1.253c2.203-0.193,4.008-0.14,5.737,0.218
			c1.692,0.347,3.308,0.975,5.164,1.942c1.69,0.956,3.06,2.089,4.089,3.459c1.17,1.556,1.9,3.407,2.152,5.658
			c0.122,1.133-0.045,2.125-0.634,2.839c-1.477,1.783-3.829,3.189-6.63,4.004c-2.807,0.81-5.979,1.281-9.005,1.468
			c-3.506,0.22-6.817,0.063-9.119-0.357C64.835,118.501,62.738,117.479,61.362,115.798z"/>
	</g>
</g>
<g id="Layer_1">
</g>
</svg>
