<?xml version="1.0" encoding="iso-8859-1"?>
<!-- Generator: Adobe Illustrator 16.0.0, SVG Export Plug-In . SVG Version: 6.00 Build 0)  -->
<!DOCTYPE svg PUBLIC "-//W3C//DTD SVG 1.1//EN" "http://www.w3.org/Graphics/SVG/1.1/DTD/svg11.dtd">
<svg version="1.1" xmlns="http://www.w3.org/2000/svg" xmlns:xlink="http://www.w3.org/1999/xlink" x="0px" y="0px" width="150px"
	 height="150px" viewBox="0 0 150 150" style="enable-background:new 0 0 150 150;" xml:space="preserve">
<g id="_x30_5_x5F_02">
	<rect style="fill:none;" width="150" height="150"/>
	<g>
		<path style="fill-rule:evenodd;clip-rule:evenodd;fill:#2979AA;" d="M89.304,62.096c7.235-5.742,9.683-2.885,16.017-0.776
			c2.153,0.719,4.459,1.108,6.854,1.108c4.471,0,8.626-1.354,12.075-3.674c2.942-1.662,5.169-4.125,6.616-7.025
			c1.893-3.218,2.979-6.967,2.979-10.971c0-11.966-9.702-21.669-21.67-21.669c-11.967,0-21.669,9.703-21.669,21.669
			c0,4.081,2.477,7.79-0.29,10.609c-7.067,7.214-15.569,10.87-12.84,22.463c1.237,5.259,3.704,11.143-0.725,15.518
			c-4.438,4.378-4.69-0.486-4.275-5.838c0.68-8.771,0.393-5.355,0.621-13.892c0.382-14.666-5.362-27.662-22.027-27.662
			c-11.843,0-21.442,9.6-21.442,21.442c0,11.235,0.284,12.125-0.357,24.417c-0.363,6.949,0.114,14.249-2.361,17.794
			c-1.495,2.145-3.147,3.97-4.822,5.128c-2.501,1.72-6.915,3.923-12.05,5.222c-0.456-5.45,0.804-9.677,2.558-14.591
			c0.451-1.28,0.877-2.21,2.435-2.886c5.241-2.291,6.435,2.646,8.373,1.545c0.96-0.546,2.077-1.931,1.865-3.098
			c-0.229-1.345-1.928-2.584-5.479-0.772c-0.836,0.421-1.813,0.191-2.743,0c-2.186-0.441-0.67-3.222,0.146-4.271
			c0.784-0.901,7.058-6.237,6.751-8.237c-0.223-1.461-2.163-2.968-3.518-2.133c-1.332,0.825-1.705,2.892-2.095,4.279
			c-0.514,1.872-2.335,6.07-3.178,5.989c-0.785-0.071-0.549-0.328-0.537-1.293c0.018-0.97,1.118-5.925,1.327-6.729
			c0.447-1.803,1.458-4.106-0.608-5.076c-0.314-0.149-0.6-0.244-0.854-0.297h-0.802c-2.16,0.554-1.025,6.049-0.828,7.836
			c0.388,6.281-0.228,8.726-2.351,14.515c-1.831,4.939-3.242,9.313-3.608,14.831c-0.192,2.867-0.872,3.88,2.168,3.801
			c3.465-0.096,6.585-0.891,9.887-2.24c5.612-2.295,4.664-0.423,4.452,3.832c-0.195,3.988,0.044,8.646,0.852,14.197
			c0.358,2.442,3.444,9.666,1.363,11.729c-0.469,0.46-1.204,0.515-2.815,0.525c-0.688,0-1.373-0.002-2.066,0
			c-1.43,0.014-2.867,0.023-4.297,0.036c-0.827-0.098-3.083,0.23-2.13,1.605c0.203,0.297,0.702,0.212,1.437,0.366
			c3.462,0.106,6.935-0.067,10.373,0.226c0.969,0.261,1.55,0.566,2.509,0.141c0.767-0.34,0.51-0.688,0.168-1.23
			c-0.61-0.959-0.645-2.054-0.811-3.139c0-0.732-0.067-1.872-0.084-2.894c-0.042-2.554,0.229-2.263,2.165-1.821
			c9.853,2.251,33.962,0.859,45.568,1.284c3.174,0.116,7.47-0.74,8.499,2.48c0.342,1.068,0.408,2.285-0.123,3.036
			c-0.363,0.505-1.746,1.331-0.935,2.11c0.544,0.523,1.69,0.403,2.673,0.265c2.711-0.379,5.718-0.55,8.438-0.348
			c0.491,0.034,0.988,0.098,1.543,0.203c0.562,0.105,1.121,0.128,1.671-0.12c0.519-0.229,0.808-0.648,0.111-1.318
			c-0.301-0.289-0.844-0.415-1.528-0.499c-0.92,0-1.827,0.015-2.738,0.045c-1.222,0.041-2.433,0.199-3.651,0.06
			c-3.305-0.389-3.076-1.528-3.258-4.986c-0.074-1.371,0.123-2.413,0.811-3.048c0.646-0.601,1.269-1.192,1.863-1.776
			c13.17-9.52,14.935-17.498,12.621-31.912c4.198,6.628,8.728,10.057,16.584,12.544c2.654,0.84,4.597,1.253,7.263,1.876
			c2.086,0.488,4.478,1.086,5.232,1.446c2.189,1.179,3.457,1.898,5.437,3.402c1.331,1.111,5.604,5.475,6.167,1.689
			c0.27-1.813-1.728-2.171-3.133-2.668c-0.641-0.22-4.455-1.687-5.109-2.108c-0.655-0.421-0.934-0.378-0.629-0.943
			c0.323-0.599,3.943,0.057,5.438,0.545c1.106,0.348,2.655,1.025,3.806,0.498c1.164-0.533,1.018-2.513,0.138-3.311
			c-1.21-1.095-7.589,0.732-8.542,0.861c-1.317,0.093-2.55-0.353-2.938-0.79c-0.178-0.203-0.195-0.522,0.005-1.02
			c0.281-0.708,0.571-1.474,1.227-1.844c2.799-1.575,2.722-3.27,1.926-4.026c-0.694-0.653-2.118-0.527-2.915-0.121
			c-1.606,0.809,1.177,3.813-2.699,6.311c-1.132,0.727-1.935,0.617-2.968,0.362c-2.291-0.565-5.187-1.082-7.303-1.917
			c-6.7-2.647-11.69-8.854-13.924-12.785c-5.241-10.761-7.645-10.532-15.114-17.006C81.387,80.176,80.785,68.85,89.304,62.096z"/>
		<circle style="fill-rule:evenodd;clip-rule:evenodd;fill:#FFFFFF;" cx="50.883" cy="64.128" r="19.334"/>
		<circle style="fill-rule:evenodd;clip-rule:evenodd;" cx="47.396" cy="69.352" r="8.479"/>
		<circle style="fill-rule:evenodd;clip-rule:evenodd;fill:#FFFFFF;" cx="112.174" cy="40.758" r="18.59"/>
		<circle style="fill-rule:evenodd;clip-rule:evenodd;" cx="119.611" cy="48.619" r="4.673"/>
		<path style="fill-rule:evenodd;clip-rule:evenodd;" d="M34.896,113.151c-1.465-0.496-4.432-1.51-5.601,0.033
			c-0.256,0.333-0.326,0.83-0.302,1.607c0.089,3.072,1.812,6.729,3.413,9.315c1.943,3.132,4.237,5.01,6.899,6.643
			c7.909,4.855,16.179,5.59,25.163,3.493c7.263-1.692,13.554-4.92,19.344-11.148c3.311-3.565,6.857-8.549,8.273-13.671
			c0.436-1.565,0.674-3.148,0.644-4.703c-0.019-1.003-0.165-2.055-0.495-3.396c-0.643-1.577-1.119-2.479-1.713-2.849
			c-1.087-0.686-2.896,0.417-3.838,1.057c-1.268,0.86-2.432,1.895-3.569,2.967c-2.531,2.377-5.111,4.687-7.875,6.784
			c-5.599,4.239-11.444,7.037-19.124,7.766C49.238,117.704,41.32,115.524,34.896,113.151z"/>
		<polygon style="fill-rule:evenodd;clip-rule:evenodd;fill:#FFFFFF;" points="86.733,98.61 88.615,106.279 81.78,102.606 		"/>
		<polygon style="fill-rule:evenodd;clip-rule:evenodd;fill:#FFFFFF;" points="79.583,104.525 81.185,112.439 74.19,108.979 		"/>
		<polygon style="fill-rule:evenodd;clip-rule:evenodd;fill:#FFFFFF;" points="70.272,111.841 71.254,118.884 64.708,114.362 		"/>
		<polygon style="fill-rule:evenodd;clip-rule:evenodd;fill:#FFFFFF;" points="60.801,115.838 58.077,122.85 54.009,116.33 		"/>
		<polygon style="fill-rule:evenodd;clip-rule:evenodd;fill:#FFFFFF;" points="50.017,116.371 45.877,122.264 44.001,115.435 		"/>
		<polygon style="fill-rule:evenodd;clip-rule:evenodd;fill:#FFFFFF;" points="38.858,114.06 34.32,119.104 32.95,112.073 		"/>
		<polygon style="fill-rule:evenodd;clip-rule:evenodd;fill:#FFFFFF;" points="31.438,124.094 37.215,121.729 35.946,129.207 		"/>
		<polygon style="fill-rule:evenodd;clip-rule:evenodd;fill:#FFFFFF;" points="39.818,132.085 45.651,127.038 46.84,134.853 		"/>
		<polygon style="fill-rule:evenodd;clip-rule:evenodd;fill:#FFFFFF;" points="51.515,135.752 55.546,128.646 58.341,136.032 		"/>
		<polygon style="fill-rule:evenodd;clip-rule:evenodd;fill:#FFFFFF;" points="64.391,135.39 65.041,127.327 70.935,133.232 		"/>
		<polygon style="fill-rule:evenodd;clip-rule:evenodd;fill:#FFFFFF;" points="75.454,130.54 73.799,123.241 80.941,126.787 		"/>
		<polygon style="fill-rule:evenodd;clip-rule:evenodd;fill:#FFFFFF;" points="83.659,123.91 80.603,117.156 88.136,118.965 		"/>
		<polygon style="fill-rule:evenodd;clip-rule:evenodd;fill:#FFFFFF;" points="89.646,116.713 84.178,111.255 92.492,110.488 		"/>
		<path style="fill-rule:evenodd;clip-rule:evenodd;fill:#2979AA;" d="M34.896,113.151c6.425,2.373,14.342,4.553,21.22,3.897
			c7.681-0.729,13.523-3.526,19.124-7.766c2.764-2.098,5.344-4.407,7.875-6.784c1.14-1.074,2.3-2.106,3.569-2.967
			c0.942-0.642,2.751-1.742,3.838-1.057c0.595,0.37,1.07,1.271,1.713,2.849c0.33,1.34,0.476,2.394,0.495,3.396
			c0.03,1.555-0.208,3.14-0.644,4.703c-1.415,5.12-4.963,10.105-8.273,13.671c-5.79,6.229-12.087,9.456-19.344,11.148
			c-8.979,2.097-17.255,1.362-25.163-3.493c-2.662-1.635-4.956-3.511-6.899-6.643c-1.602-2.588-3.324-6.241-3.413-9.315
			c-0.024-0.777,0.046-1.274,0.302-1.607C30.465,111.64,33.432,112.657,34.896,113.151L34.896,113.151L34.896,113.151z
			 M95.036,100.175c-0.65-1.573-1.407-3.318-2.906-4.261c-2.364-1.487-5.083-0.283-7.138,1.117c-1.419,0.96-2.699,2.096-3.951,3.268
			c-2.439,2.302-4.949,4.542-7.631,6.573c-5.396,4.092-10.752,6.52-17.578,7.169c-6.397,0.61-13.924-1.521-19.887-3.724
			l-0.042-0.015l-0.034-0.013c-0.911-0.309-1.818-0.594-2.763-0.771c-2.284-0.426-4.708-0.15-6.217,1.835
			c-0.796,1.044-0.952,2.255-0.915,3.526c0.106,3.663,1.953,7.729,3.857,10.814c2.068,3.335,4.594,5.607,7.895,7.633
			c8.614,5.284,17.7,6.129,27.427,3.857c8.33-1.94,15.013-5.724,20.869-12.032c3.832-4.114,7.458-9.448,8.977-14.918
			c0.504-1.813,0.786-3.688,0.761-5.571c-0.031-1.376-0.257-2.713-0.581-4.056l-0.058-0.218L95.036,100.175z"/>
	</g>
</g>
<g id="Layer_1">
</g>
</svg>
