<?xml version="1.0" encoding="iso-8859-1"?>
<!-- Generator: Adobe Illustrator 16.0.0, SVG Export Plug-In . SVG Version: 6.00 Build 0)  -->
<!DOCTYPE svg PUBLIC "-//W3C//DTD SVG 1.1//EN" "http://www.w3.org/Graphics/SVG/1.1/DTD/svg11.dtd">
<svg version="1.1" xmlns="http://www.w3.org/2000/svg" xmlns:xlink="http://www.w3.org/1999/xlink" x="0px" y="0px" width="150px"
	 height="150px" viewBox="0 0 150 150" style="enable-background:new 0 0 150 150;" xml:space="preserve">
<g id="_x30_5_x5F_04_x5F_black">
	<rect style="fill:none;" width="150" height="150"/>
	<g>
		<path d="M82.244,149c-1.849,0-2.846-1.156-2.846-2.244c0-0.938,0.767-1.948,2.448-1.948c1.25,0,3.044,0.162,4.942,0.334
			c0.363,0.032,0.728,0.065,1.09,0.098c0.278-4.275,0.256-8.429-0.065-12.984c-0.035-0.49-0.059-0.945-0.07-1.36
			c-0.321,0.082-0.691,0.132-1.116,0.132c-0.409,0-0.854-0.047-1.322-0.139l-2.322-0.465c-3.359-0.678-5.587-1.127-7.924-1.251
			c-2.337,0.125-4.565,0.574-7.926,1.252l-2.318,0.464c-0.469,0.092-0.914,0.139-1.323,0.139c-0.425,0-0.795-0.05-1.118-0.133
			c-0.012,0.416-0.036,0.871-0.07,1.361c-0.321,4.552-0.343,8.706-0.065,12.984c0.362-0.032,0.726-0.065,1.089-0.098
			c1.899-0.172,3.694-0.334,4.944-0.334c1.682,0,2.448,1.01,2.448,1.948c0,1.088-0.997,2.244-2.844,2.244h-6.937
			c-0.939,0-1.703-0.821-1.703-1.83c0-1.245,0.009-2.455,0.018-3.636c0.043-5.689,0.08-10.603-0.91-15.796l-0.012-0.063
			l-0.004-0.063c-0.163-2.63-0.327-5.352-0.463-8.121c-0.001-2.853-0.435-3.789-0.938-4.872c-0.382-0.825-0.815-1.759-1.081-3.45
			c-0.375-2.409,0.267-4.251,0.946-6.201c0.549-1.575,1.116-3.205,1.225-5.354c0.013-0.265,0.069-0.94,0.136-1.754
			c0.114-1.383,0.305-3.696,0.283-4.117c-0.033-0.641-0.224-0.841-0.425-0.963l-0.061-0.037l-0.055-0.045
			c-0.293-0.24-0.582-0.367-0.835-0.367c-0.2,0-0.391,0.077-0.565,0.23c-0.404,0.354-0.523,1.203-0.638,2.024
			c-0.053,0.383-0.107,0.762-0.185,1.115l-3.837,17.428c-0.026,0.12,0.173,0.331,0.345,0.487c0.295,0.269,0.561,0.404,0.789,0.404
			c0.242,0,0.508-0.138,0.789-0.284c0.33-0.171,0.703-0.364,1.145-0.364c0.418,0,0.805,0.179,1.089,0.503
			c0.571,0.658,0.963,1.865,0.571,2.812c-0.311,0.762-1.006,1.238-1.814,1.238c-0.742,0-1.497-0.39-2.242-1.158
			c-0.012-0.001-0.053-0.003-0.105-0.004c0.002,0.224,0.034,0.529,0.137,0.836c0.02,0.044,0.127,0.247,0.265,0.516
			c1.294,2.519,1.922,4.072,1.535,5.071c-0.349,0.887-1.279,1.552-2.166,1.552c-0.518,0-0.98-0.218-1.301-0.613
			c-0.027-0.034-0.054-0.068-0.079-0.104c-0.212,0.577-0.618,1.087-1.401,1.286c-0.222,0.057-0.424,0.084-0.62,0.084
			c-0.568,0-1.045-0.239-1.344-0.673c-0.684-0.993-0.175-2.558,0.508-4.351c0.064-0.169,0.121-0.316,0.161-0.432
			c0.446-1.44,0.616-2.324,0.872-3.856c0-0.053-0.034-0.362-0.06-0.589c-0.081-0.724-0.192-1.714-0.008-2.695l4.066-21.507
			c0.072-0.382,0.103-0.659,0.127-0.871c0.14-1.234,0.478-1.448,1.736-2.242c0.615-0.387,1.323-0.806,1.762-1.043
			c0.999-0.538,1.804-1.121,2.461-1.784c0.836-0.843,0.947-1.314,1.189-2.348c0.094-0.401,0.201-0.854,0.364-1.393
			c0.27-0.896,0.683-1.748,1.231-2.541c-0.561-1.08-0.987-2.223-1.271-3.406c-0.72-2.998,0.236-10.333,2.842-21.802
			c1.536-6.76,3.419-13.42,5.241-19.862c1.647-5.825,3.35-11.849,4.784-17.905c1.575-6.659,7.695-11.493,14.55-11.493
			c1.146,0,2.296,0.135,3.418,0.4c3.864,0.915,7.15,3.293,9.253,6.697c2.102,3.404,2.756,7.408,1.841,11.272
			c-1.477,6.236-6.938,10.87-13.255,11.435c0.775,4.081-1.101,10.504-2.639,15.773c-0.502,1.719-0.977,3.343-1.285,4.645
			c-1.511,6.389,0.207,8.015,2.025,9.736c2.055,1.945,4.384,4.149,2.053,11.926c-0.275,0.916-0.636,1.801-1.076,2.641
			c0.528,0.774,0.929,1.607,1.193,2.484c0.162,0.537,0.27,0.989,0.363,1.391c0.242,1.034,0.354,1.506,1.19,2.35
			c0.864,0.872,1.974,1.601,3.492,2.293c0.09,0.041,0.236,0.107,0.394,0.177c-0.001-0.039-0.002-0.078-0.004-0.116
			c-0.015-0.423-0.032-0.945-0.022-1.575l0.273-17.843c0.002-0.123-0.235-0.29-0.436-0.408c-0.283-0.168-0.526-0.252-0.724-0.252
			c-0.272,0-0.502,0.169-0.847,0.448c-0.339,0.274-0.761,0.615-1.337,0.615c-0.313,0-0.617-0.105-0.88-0.305
			c-0.69-0.526-1.318-1.63-1.123-2.639c0.182-0.966,0.972-1.618,1.965-1.618c0.614,0,1.286,0.245,1.995,0.729
			c0.035-0.004,0.07-0.01,0.105-0.016c-0.048-0.217-0.141-0.513-0.305-0.796c-0.026-0.036-0.171-0.212-0.358-0.445
			c-1.775-2.21-2.703-3.608-2.524-4.666c0.191-1.082,1.182-1.99,2.162-1.99c0.385,0,0.747,0.13,1.047,0.375
			c0.034,0.028,0.066,0.057,0.099,0.087c0.092-0.607,0.388-1.188,1.116-1.54c0.341-0.165,0.655-0.244,0.962-0.244
			c0.469,0,0.893,0.195,1.192,0.549c0.743,0.876,0.546,2.515,0.257,4.26c-0.028,0.173-0.054,0.324-0.07,0.441
			c-0.146,1.491-0.136,2.393-0.08,3.95c0.01,0.052,0.106,0.35,0.177,0.567c0.225,0.692,0.531,1.639,0.549,2.637l0.32,21.887
			c0.007,0.478,0.028,0.86,0.046,1.166c0.043,0.77,0.074,1.326-0.349,1.772c-0.171,0.182-0.481,0.397-0.99,0.397
			c-0.282,0-0.583-0.061-1.037-0.152l-2.035-0.398c-0.39-0.076-0.738-0.115-1.041-0.115c-0.408,0-0.726,0.068-0.946,0.201
			c-0.201,0.122-0.392,0.323-0.425,0.963c-0.224,4.214-0.236,4.467,1.751,7.119c1.622,2.174,2.606,4.755,2.926,7.672
			c0.263,2.348-0.274,4.414-1.553,5.973c-0.899,1.094-1.551,1.604-1.981,1.942c-0.551,0.433-0.572,0.45-0.572,2.994
			c-0.134,2.793-0.299,5.49-0.457,8.098l-0.021,0.198c-0.993,5.198-0.956,10.115-0.913,15.809c0.009,1.177,0.018,2.382,0.018,3.623
			c0,1.009-0.764,1.83-1.702,1.83H82.244z"/>
		<path style="fill:#FFFFFF;" d="M87.984,5.598c1.052,0,2.12,0.121,3.187,0.373c7.453,1.764,12.115,9.313,10.352,16.766
			c-1.513,6.388-7.271,10.723-13.579,10.723c-0.004,0-0.007,0-0.011,0c1.916,4.67-2.254,15.493-3.589,21.129
			c-3.333,14.091,8.344,7.424,4.093,21.605c-0.322,1.072-0.762,2.076-1.302,3.004c0.631,0.8,1.117,1.695,1.42,2.697
			c0.596,1.973,0.399,2.743,1.801,4.155c0.92,0.929,2.112,1.735,3.787,2.499c0.736,0.335,1.182,0.519,1.446,0.519
			c0.577,0,0.305-0.867,0.336-2.928c0.091-5.948,0.183-11.896,0.273-17.844c0.009-0.563-0.353-0.944-0.927-1.284
			c-0.479-0.284-0.884-0.392-1.232-0.392c-1.098,0-1.645,1.063-2.184,1.063c-0.091,0-0.182-0.03-0.274-0.101
			c-0.406-0.31-0.863-1.052-0.747-1.653c0.079-0.421,0.4-0.808,0.983-0.808c0.37,0,0.846,0.155,1.432,0.555
			c0.17,0.119,0.362,0.157,0.562,0.157c0.208,0,0.425-0.042,0.634-0.081c0.29-0.048,0.431-0.166,0.478-0.329
			c0.095-0.358-0.037-1.187-0.443-1.887c-0.321-0.483-2.936-3.416-2.762-4.442c0.104-0.586,0.663-1.157,1.176-1.157
			c0.146,0,0.287,0.045,0.413,0.149c0.561,0.462,0.672,1.541,0.814,2.269c0.183,0.983,0.877,3.188,1.247,3.188
			c0.001,0,0.002,0,0.003,0c0.346-0.019,0.248-0.159,0.266-0.655c0.015-0.503-0.351-3.097-0.426-3.521
			c-0.155-0.94-0.544-2.161,0.379-2.607c0.206-0.1,0.38-0.145,0.527-0.145c1.221,0,0.525,3.129,0.389,4.113
			c-0.156,1.588-0.146,2.523-0.089,4.124c0.034,0.508,0.701,1.856,0.725,3.186c0.105,7.294,0.213,14.589,0.32,21.884
			c0.026,1.823,0.26,2.321-0.293,2.321c-0.237,0-0.62-0.092-1.226-0.21c-0.555-0.108-1.106-0.218-1.659-0.323
			c-0.454-0.089-0.863-0.133-1.229-0.133c-0.604,0-1.09,0.119-1.465,0.347c-0.647,0.392-0.867,1.035-0.905,1.766
			c-0.233,4.413-0.196,4.906,1.949,7.771c1.585,2.123,2.445,4.557,2.732,7.181c0.209,1.867-0.112,3.743-1.332,5.229
			c-2.521,3.066-2.78,1.055-2.78,5.571c-0.134,2.766-0.3,5.482-0.46,8.108c-1.221,6.39-0.913,12.395-0.913,19.619
			c0,0.457-0.313,0.83-0.702,0.83c-1.443,0-4.797,0-6.935,0c-2.18,0-2.573-2.192-0.397-2.192c1.667,0,4.477,0.312,6.959,0.514
			c0.37-4.893,0.337-9.442,0.005-14.137c-0.181-2.575,0.019-3.292,0.009-3.292c-0.011,0-0.352,1.134-2.192,1.134
			c-0.326,0-0.701-0.036-1.129-0.12c-4.726-0.933-7.493-1.585-10.439-1.735c-2.946,0.15-5.714,0.803-10.438,1.735
			c-0.428,0.084-0.802,0.12-1.129,0.12c-1.84,0-2.181-1.134-2.193-1.134c-0.009,0,0.189,0.717,0.007,3.292
			c-0.331,4.694-0.363,9.244,0.006,14.137c2.482-0.202,5.293-0.514,6.959-0.514c2.176,0,1.781,2.192-0.396,2.192
			c-2.139,0-5.491,0-6.937,0c-0.39,0-0.703-0.373-0.703-0.83c0-7.225,0.309-13.229-0.91-19.619
			c-0.162-2.626-0.327-5.343-0.462-8.108c0-5.135-1.437-4.65-2.03-8.429c-0.624-4.01,1.931-6.38,2.182-11.349
			c0.04-0.781,0.457-5.244,0.418-5.975c-0.038-0.73-0.259-1.374-0.905-1.766c-0.509-0.418-1.011-0.594-1.469-0.594
			c-0.465,0-0.885,0.182-1.224,0.478c-0.927,0.811-0.864,2.42-1.141,3.677c-1.279,5.811-2.558,11.619-3.837,17.429
			c-0.122,0.549,0.156,0.994,0.649,1.442c0.549,0.499,1.033,0.664,1.461,0.664c0.846,0,1.469-0.648,1.934-0.648
			c0.123,0,0.235,0.046,0.337,0.162c0.335,0.387,0.633,1.206,0.399,1.77c-0.139,0.341-0.446,0.621-0.891,0.621
			c-0.403,0-0.919-0.23-1.525-0.854c-0.294-0.309-0.743-0.307-1.156-0.316c-0.015,0-0.03-0.001-0.044-0.001
			c-0.267,0-0.417,0.086-0.489,0.23c-0.165,0.331-0.202,1.169,0.056,1.935c0.218,0.539,2.191,3.937,1.815,4.906
			c-0.196,0.499-0.756,0.913-1.233,0.913c-0.2,0-0.386-0.073-0.524-0.243c-0.457-0.565-0.35-1.644-0.344-2.386
			c0.018-1.002-0.221-3.314-0.586-3.373c-0.041-0.006-0.076-0.01-0.106-0.01c-0.222,0-0.183,0.174-0.286,0.599
			c-0.114,0.488-0.275,3.104-0.286,3.533c-0.038,0.953,0.099,2.227-0.895,2.479c-0.141,0.036-0.265,0.053-0.373,0.053
			c-1.483,0-0.074-3.146,0.269-4.125c0.473-1.524,0.651-2.441,0.915-4.022c0.068-0.503-0.316-1.958-0.071-3.264
			c1.354-7.168,2.71-14.338,4.065-21.506c0.335-1.768-0.139-1.473,1.415-2.453c0.598-0.376,1.288-0.784,1.704-1.009
			c1.123-0.604,1.989-1.247,2.696-1.96c1.401-1.412,1.204-2.183,1.8-4.155c0.308-1.022,0.811-1.937,1.459-2.748
			c-0.668-1.158-1.169-2.412-1.483-3.721c-0.797-3.319,0.805-12.372,2.844-21.347c2.92-12.849,7-24.988,10.022-37.758
			C75.917,9.934,81.676,5.598,87.984,5.598 M87.984,3.598c-7.315,0-13.844,5.157-15.524,12.263
			c-1.429,6.035-3.128,12.047-4.773,17.863c-1.825,6.454-3.711,13.127-5.253,19.913c-3.978,17.511-3.121,21.083-2.839,22.257
			c0.257,1.071,0.623,2.111,1.094,3.105c-0.448,0.733-0.796,1.51-1.041,2.319c-0.173,0.574-0.288,1.061-0.379,1.452
			c-0.227,0.969-0.288,1.229-0.925,1.871c-0.587,0.593-1.315,1.118-2.225,1.608c-0.459,0.248-1.189,0.68-1.82,1.076
			c-1.391,0.878-2.013,1.335-2.199,2.977c-0.024,0.215-0.052,0.457-0.116,0.798l-0.3,1.585l-3.766,19.922
			c-0.212,1.131-0.086,2.252-0.003,2.993c0.017,0.146,0.038,0.336,0.045,0.442c-0.239,1.426-0.399,2.233-0.819,3.593
			c-0.037,0.104-0.085,0.23-0.141,0.375c-0.756,1.985-1.355,3.883-0.396,5.273c0.484,0.702,1.274,1.105,2.167,1.105
			c0.275,0,0.566-0.038,0.864-0.114c0.611-0.155,1.065-0.438,1.403-0.786c0.35,0.162,0.735,0.248,1.134,0.248
			c1.296,0,2.598-0.917,3.095-2.182c0.448-1.156,0.057-2.544-0.958-4.661c0.146,0.02,0.292,0.03,0.439,0.03
			c0.792,0,1.529-0.317,2.072-0.856c0.028,0.396,0.044,0.848,0.044,1.374v0.049l0.002,0.049c0.136,2.789,0.304,5.548,0.463,8.134
			l0.008,0.127l0.023,0.125c0.972,5.097,0.935,9.965,0.893,15.601c-0.009,1.184-0.018,2.396-0.018,3.644
			c0,1.561,1.212,2.83,2.703,2.83h6.937c2.406,0,3.844-1.649,3.844-3.244c0-1.465-1.185-2.948-3.448-2.948
			c-1.295,0-3.111,0.164-5.034,0.338c-0.021,0.002-0.041,0.004-0.062,0.006c-0.208-3.876-0.167-7.685,0.125-11.826
			c0.007-0.098,0.014-0.198,0.02-0.301c0.056,0.001,0.113,0.002,0.17,0.002c0.474,0,0.984-0.053,1.515-0.158
			c0.832-0.164,1.602-0.319,2.324-0.465c3.292-0.663,5.483-1.105,7.729-1.229c2.245,0.124,4.436,0.565,7.727,1.229
			c0.723,0.146,1.494,0.301,2.325,0.465c0.533,0.105,1.043,0.158,1.517,0.158c0.057,0,0.113-0.001,0.169-0.002
			c0.006,0.103,0.013,0.203,0.02,0.301c0.293,4.145,0.336,7.953,0.127,11.826c-0.021-0.002-0.043-0.004-0.063-0.006
			c-1.922-0.174-3.737-0.338-5.032-0.338c-2.264,0-3.448,1.483-3.448,2.948c0,1.595,1.438,3.244,3.846,3.244h6.935
			c1.49,0,2.702-1.27,2.702-2.83c0-1.244-0.009-2.451-0.018-3.631c-0.043-5.641-0.079-10.512,0.896-15.613l0.023-0.125l0.008-0.128
			l0.005-0.072c0.159-2.61,0.323-5.309,0.457-8.062l0.002-0.049v-0.048c0-0.472,0-1.642,0.064-2.11
			c0.039-0.03,0.081-0.062,0.126-0.097c0.465-0.365,1.167-0.917,2.135-2.094c1.455-1.773,2.068-4.098,1.774-6.723
			c-0.338-3.092-1.387-5.837-3.117-8.154c-1.771-2.365-1.771-2.365-1.555-6.469c0.004-0.081,0.012-0.142,0.02-0.185
			c0.065-0.016,0.178-0.033,0.354-0.033c0.238,0,0.521,0.032,0.844,0.096c0.408,0.078,0.806,0.155,1.205,0.234l0.455,0.089
			l0.374,0.074c0.495,0.101,0.853,0.173,1.235,0.173c0.864,0,1.411-0.386,1.718-0.71c0.718-0.76,0.668-1.652,0.619-2.517
			c-0.017-0.294-0.038-0.663-0.044-1.123c-0.107-7.296-0.215-14.591-0.32-21.884c-0.021-1.153-0.367-2.225-0.598-2.934
			c-0.045-0.14-0.104-0.323-0.133-0.426c-0.051-1.448-0.056-2.272,0.081-3.681c0.016-0.105,0.037-0.234,0.061-0.379
			c0.341-2.062,0.54-3.866-0.48-5.07c-0.493-0.582-1.188-0.902-1.955-0.902c0,0,0,0-0.001,0c-0.453,0-0.923,0.115-1.395,0.343
			c-0.567,0.274-0.956,0.641-1.218,1.05c-0.197-0.047-0.401-0.07-0.61-0.07c-1.485,0-2.867,1.234-3.146,2.809
			c-0.208,1.227,0.454,2.509,1.872,4.38c-1.138,0.071-2.099,0.751-2.543,1.759c-0.33-0.365-0.683-0.714-1.047-1.059
			c-1.742-1.649-3.118-2.951-1.739-8.78c0.302-1.276,0.772-2.888,1.271-4.594c1.517-5.193,3.198-10.954,2.81-15.187
			c6.295-0.995,11.604-5.766,13.098-12.07c0.976-4.125,0.278-8.396-1.964-12.028c-2.242-3.631-5.749-6.169-9.873-7.145
			C90.435,3.742,89.207,3.598,87.984,3.598L87.984,3.598z M91.855,69.685c0.93,0,1.578-0.524,1.966-0.837
			c0.077-0.063,0.184-0.149,0.262-0.203c0.026,0.012,0.063,0.029,0.108,0.054l-0.129,8.421l-0.138,8.99
			c0,0.033-0.001,0.065-0.001,0.098c-0.883-0.482-1.579-0.991-2.147-1.564c-0.64-0.645-0.7-0.905-0.928-1.875
			c-0.092-0.391-0.206-0.877-0.379-1.451c-0.238-0.787-0.574-1.542-1.003-2.256c0.353-0.737,0.648-1.504,0.885-2.292
			c0.924-3.079,1.162-5.36,0.949-7.149C91.481,69.663,91.668,69.685,91.855,69.685L91.855,69.685z M52.904,112.922l1.574-7.15
			l2.169-9.856c0.089-0.404,0.145-0.804,0.199-1.19c0.058-0.416,0.151-1.084,0.277-1.352c0.035,0.021,0.081,0.053,0.136,0.099
			l0.11,0.09l0.042,0.026c0.008,0.042,0.018,0.108,0.023,0.205c0.012,0.437-0.178,2.745-0.28,3.985
			c-0.068,0.827-0.124,1.516-0.138,1.784c-0.101,2.007-0.645,3.567-1.17,5.076c-0.689,1.98-1.403,4.028-0.99,6.683
			c0.06,0.385,0.129,0.735,0.205,1.056c-0.053-0.003-0.106-0.005-0.16-0.005c-0.686,0-1.217,0.275-1.605,0.478
			c-0.088,0.046-0.209,0.108-0.296,0.146C52.975,112.979,52.942,112.954,52.904,112.922L52.904,112.922z"/>
	</g>
</g>
<g id="Layer_1">
</g>
</svg>
