<?xml version="1.0" encoding="iso-8859-1"?>
<!-- Generator: Adobe Illustrator 16.0.0, SVG Export Plug-In . SVG Version: 6.00 Build 0)  -->
<!DOCTYPE svg PUBLIC "-//W3C//DTD SVG 1.1//EN" "http://www.w3.org/Graphics/SVG/1.1/DTD/svg11.dtd">
<svg version="1.1" xmlns="http://www.w3.org/2000/svg" xmlns:xlink="http://www.w3.org/1999/xlink" x="0px" y="0px" width="150px"
	 height="150px" viewBox="0 0 150 150" style="enable-background:new 0 0 150 150;" xml:space="preserve">
<g id="_x30_6_x5F_05_copy">
	<g>
		<path d="M95.312,148.924c-0.647-0.039-1.295-0.077-1.943-0.122c-0.311-0.016-0.651-0.021-1-0.021
			c-0.467,0-0.948,0.011-1.434,0.021c-0.51,0.012-1.024,0.022-1.536,0.022c-1.066,0-2.45-0.043-3.698-0.378
			c-1.012-0.272-3.376-1.087-3.521-2.78c-0.089-1.033,0.645-1.917,2.179-2.626c0.33-0.156,0.765-0.23,1.359-0.23
			c0.964,0,2.245,0.193,3.483,0.381c0.962,0.145,1.956,0.295,2.494,0.295c0.491,0,1.799-0.001,2.14-3.644
			c0.063-0.689,0.233-1.655,0.432-2.774c0.446-2.521,1.278-7.211,0.356-8.31c-0.068-0.082-0.137-0.127-0.304-0.127
			c-0.22,0-0.732,0.091-1.686,0.695c-4.171,2.644-9.921,4.16-15.775,4.16c-5.789,0-11.308-1.478-15.54-4.16
			c-0.727-0.461-1.355-0.695-1.867-0.695c-0.422,0-0.77,0.165-1.093,0.519c-1.658,1.813-1.82,7.391-1.524,10.697
			c0.34,3.637,1.648,3.638,2.14,3.639c0.538,0,1.533-0.15,2.495-0.295c1.238-0.188,2.518-0.381,3.482-0.381
			c0.595,0,1.029,0.074,1.366,0.232c1.528,0.707,2.261,1.591,2.173,2.624c-0.145,1.692-2.51,2.508-3.521,2.78
			c-1.25,0.335-2.633,0.378-3.699,0.378c-0.512,0-1.026-0.011-1.537-0.022c-0.485-0.01-0.966-0.021-1.434-0.021
			c-0.348,0-0.689,0.006-1.019,0.022l-3.11,0.194c-2.62-0.022-3.479-1.123-3.764-1.776c-0.252-0.577-0.477-1.763,0.849-3.223
			c1.004-1.095,1.572-2.907,1.523-4.852c-0.277-9.354-3.33-14.249-6.281-18.982c-2.701-4.332-5.252-8.424-4.828-15.217
			c0.387-6.22,3.057-9.979,6.149-14.331c1.201-1.69,2.443-3.438,3.634-5.458c0.011-0.02,0.023-0.04,0.037-0.063
			c-0.231,0.107-0.476,0.215-0.731,0.318c-1.881,0.759-3.879,1.293-5.813,1.81c-4.039,1.08-8.214,2.195-11.624,5.445
			c-0.217,0.207-0.794,0.756-0.895,0.956c-0.263,0.933-0.243,1.69,0.079,2.201l0.227,0.36c0.735,1.174,1.496,2.388,2.367,3.429
			c0.12,0.145,0.305,0.326,0.511,0.532c0.876,0.878,1.562,1.611,1.742,2.403c0.04,0.177,0.237,0.809,1.136,1.62
			c0.709,0.64,0.837,1.282,0.819,1.709c-0.043,1.016-0.876,1.648-1.323,1.988c-0.437,0.334-0.881,0.481-1.357,0.481
			c-0.682,0-1.337-0.299-1.809-0.82c-0.158,0.393-0.407,0.723-0.708,0.944c-0.388,0.287-0.856,0.44-1.351,0.44
			c-0.771,0-1.509-0.373-1.976-0.998c-0.716-0.971-0.462-2.017-0.258-2.856c0.248-1.02,0.365-1.686-0.299-2.508
			c-0.223-0.276-0.47-0.434-0.752-0.478c0.031,0.317,0.115,0.655,0.198,0.986c0.132,0.533,0.27,1.084,0.22,1.615
			c-0.181,1.923-0.436,3.66-1.73,5.463c-0.516,0.722-0.536,1.163-0.564,1.774c-0.022,0.491-0.05,1.104-0.352,1.826
			c-0.41,0.983-1.365,1.62-2.432,1.62c-0.346,0-0.685-0.068-1.007-0.201c-1.233-0.514-2.637-2.188-2.032-3.646
			c0.362-1.099,1.396-1.865,2.395-2.607c1.42-1.054,2.646-1.964,2.488-3.866c-0.063-0.747-0.133-1.428-0.199-2.073
			c-0.129-1.257-0.251-2.443-0.278-3.736c-0.059-2.702,1.133-6.582,3.525-8.769c3.741-3.419,8.256-5.292,12.623-7.103
			c4.099-1.701,7.971-3.307,10.819-6.043c2.917-2.799,1.092-6.709,0.172-8.261c-0.988-1.671-2.403-3.231-4.208-4.639
			c-1.746-1.363-2.373-1.649-2.591-1.649c-0.087,0.05-0.361,0.418-0.562,0.688c-0.376,0.505-0.891,1.196-1.691,1.924
			c-1.402,1.278-3.222,1.982-5.123,1.982c-4.2,0-7.616-3.417-7.616-7.618c0-4.201,3.417-7.619,7.616-7.619
			c1.774,0,3.501,0.624,4.865,1.757c0.666,0.554,1.159,1.03,1.552,1.448c-0.506-1.196-0.786-2.51-0.786-3.888
			c0-5.521,4.492-10.012,10.014-10.012c10.597,0,11.833,14.007,12.572,22.377c0.075,0.847,0.144,1.634,0.218,2.338
			c0.07,0.676,0.288,1.854,0.675,2.956c0.78,2.219,1.417,2.279,3.792,2.501l4.346,0.415c0.507,0.049,0.962,0.073,1.354,0.073
			c2.379,0,2.459-0.621,2.844-3.604c0.079-0.62,0.168-1.302,0.292-2.047c0.576-3.458,1.083-6.926,1.503-9.861l0.442-3.124
			c1.177-8.334,2.393-16.952,4.302-24.716c2.196-8.917,4.978-15.521,8.754-20.779c2.803-3.308,6.795-5.169,11.002-5.169
			c3.275,0,6.346,1.103,8.88,3.189c2.907,2.392,4.709,5.774,5.072,9.522c0.364,3.749-0.753,7.413-3.146,10.32
			c-2.686,3.266-6.655,5.139-10.892,5.139c-1.022,0-2.046-0.111-3.041-0.331c-1.716-0.378-3.266-0.571-4.607-0.571
			c-3.216,0-5.222,1.046-6.131,3.197c-5.009,11.824-5.261,33.124-5.219,39.37c0.004,0.603,0.005,0.806,1.961,0.928l0.124,0.004
			c0.19,0,0.254-0.033,0.255-0.033c0.104-0.163,0.073-0.97,0.053-1.504l-0.018-0.494c-0.099-3.659-0.157-7.574,0.285-11.673
			c0.722-6.891,1.928-13.501,3.227-17.677c1.31-4.209,5.153-7.038,9.564-7.038c5.522,0,10.016,4.492,10.016,10.013
			s-4.493,10.013-10.016,10.013c-1.636,0-3.073,0.199-4.272,0.59c-2.125,0.688-3.379,2.198-3.948,4.75
			c-0.552,2.466-0.383,6.111-0.22,9.637c0.05,1.085,0.1,2.161,0.129,3.193c0.002,0.069,0.008,0.117,0.015,0.149
			c0.004,0,0.071,0.002,0.116,0.002c0.126,0,0.266-0.018,0.416-0.046c0.077-0.014,0.12-0.03,0.14-0.04
			c-0.001-0.01,0.009-0.048,0.015-0.113c0.05-0.477,0.092-0.934,0.132-1.375c0.061-0.66,0.118-1.288,0.193-1.898
			c1.053-8.493,9.092-14.564,16.264-17.414c1.04-0.414,2.13-0.624,3.239-0.624c3.478,0,6.577,2.057,7.898,5.241
			c0.874,2.105,0.876,4.426,0.005,6.533c-0.871,2.106-2.51,3.748-4.614,4.621c-1.046,0.434-2.146,0.653-3.269,0.653
			c-2.031,0-4.002-0.726-5.55-2.045c-1.495-1.275-2.823-1.922-3.948-1.922c-2.572,0-3.838,3.648-4.14,6.771
			c-0.413,4.287,0.188,6.647,2.577,10.104c2.012,2.915,5.435,4.932,9.058,7.065c5.118,3.015,10.41,6.132,12.253,12.172
			c0.939,3.068,1.186,5.635,0.733,7.625c-0.284,1.258-0.641,2.394-1.017,3.597c-0.194,0.622-0.399,1.276-0.611,2
			c-0.535,1.833,0.484,2.971,1.666,4.287c0.83,0.926,1.689,1.883,1.836,3.104c0.094,0.465-0.036,1.024-0.387,1.545
			c-0.5,0.74-1.463,1.377-2.344,1.548c-0.17,0.033-0.339,0.049-0.505,0.049c-1.254,0-2.339-0.894-2.58-2.124
			c-0.151-0.769-0.057-1.375,0.02-1.861c0.095-0.604,0.162-1.042-0.199-1.854c-0.906-2.023-0.809-3.776-0.602-5.694
			c0.058-0.531,0.302-1.043,0.538-1.539c0.148-0.313,0.301-0.632,0.394-0.929c-0.017-0.001-0.033-0.001-0.051-0.001
			c-0.266,0-0.53,0.106-0.785,0.317c-0.814,0.674-0.833,1.352-0.794,2.4c0.031,0.864,0.07,1.939-0.819,2.742
			c-0.464,0.411-1.052,0.635-1.662,0.635c-0.66,0-1.286-0.273-1.717-0.752c-0.25-0.275-0.427-0.646-0.503-1.062
			c-0.44,0.323-0.962,0.487-1.472,0.487c-0.644,0-1.242-0.264-1.641-0.724c-0.427-0.485-1.119-1.272-0.958-2.278
			c0.067-0.422,0.321-1.027,1.146-1.513c1.041-0.613,1.361-1.193,1.435-1.356c0.334-0.742,1.151-1.325,2.187-2.009
			c0.243-0.161,0.462-0.303,0.607-0.419c1.055-0.84,2.037-1.871,2.987-2.867l0.314-0.33c0.415-0.436,0.586-1.173,0.506-2.189
			c-0.348-4.47-5.95-7.125-11.367-9.692c0,0-2.475-1.179-2.866-1.361c0.323,0.783,0.73,1.804,1.122,3.09
			c2.882,9.448,2.102,16.989-3.094,29.889c-0.515,1.279-1.394,2.824-2.41,4.612c-2.844,5.001-6.739,11.85-3.44,15.448
			c1.329,1.462,1.104,2.647,0.854,3.225c-0.286,0.654-1.146,1.756-3.693,1.78h-0.037L95.312,148.924z M53.214,61.333
			c2.154,1.996,3.935,4.679,5.318,8.019c0.706,1.7,0.954,1.702,2.882,1.718l0.893,0.009c0.754,0,0.916-0.083,0.951-0.119
			c0.001-0.001,0.131-0.144,0.11-0.81c-0.039-1.333-0.16-2.462-0.358-3.355c-0.572-2.552-1.826-4.062-3.946-4.75
			c-1.205-0.391-2.643-0.588-4.274-0.588C54.255,61.457,53.728,61.414,53.214,61.333z"/>
		<path style="fill:#FFFFFF;" d="M106.887,3.792c2.904,0,5.819,0.965,8.244,2.961c5.586,4.596,6.386,12.852,1.79,18.435
			c-2.588,3.147-6.339,4.774-10.119,4.774c-0.946,0-1.895-0.102-2.826-0.307c-1.837-0.405-3.437-0.594-4.822-0.594
			c-3.867,0-6.063,1.471-7.052,3.808c-4.434,10.465-5.375,28.333-5.298,39.766c0.009,1.359,0.587,1.775,2.898,1.919
			c0.065,0.004,0.127,0.006,0.187,0.006c1.558,0,1.336-1.38,1.29-3.059c-0.103-3.808-0.147-7.584,0.279-11.539
			c0.67-6.4,1.831-13.127,3.188-17.488c1.142-3.67,4.565-6.334,8.609-6.334c4.976,0,9.016,4.035,9.016,9.013
			c0,4.978-4.04,9.013-9.016,9.013c-1.791,0-3.308,0.223-4.583,0.64c-2.735,0.886-4.041,2.917-4.613,5.483
			c-0.756,3.374-0.239,8.625-0.115,13.076c0.023,0.813,0.448,1.123,1.131,1.123c0.183,0,0.384-0.022,0.601-0.063
			c0.687-0.128,0.912-0.522,0.965-1.033c0.123-1.18,0.197-2.242,0.322-3.253c0.986-7.952,8.647-13.828,15.641-16.607
			c0.941-0.375,1.914-0.553,2.87-0.553c2.966,0,5.77,1.719,6.975,4.624c1.597,3.845-0.229,8.253-4.069,9.848
			c-0.944,0.392-1.923,0.577-2.885,0.577c-1.799,0-3.542-0.647-4.901-1.806c-1.783-1.521-3.313-2.161-4.597-2.161
			c-3.074,0-4.747,3.663-5.135,7.675c-0.455,4.719,0.35,7.295,2.749,10.769c5.051,7.316,18.179,9.133,21.178,18.961
			c0.835,2.729,1.153,5.179,0.714,7.111c-0.418,1.85-0.985,3.396-1.612,5.537c-1.127,3.861,3.188,5.444,3.469,7.791
			c0.173,0.884-1.042,1.82-1.928,1.992c-0.105,0.021-0.211,0.03-0.314,0.03c-0.766,0-1.446-0.54-1.599-1.316
			c-0.289-1.465,0.565-2.105-0.248-3.93c-0.816-1.823-0.708-3.443-0.521-5.18c0.089-0.817,0.98-1.895,1.025-2.991
			c0.012-0.109,0.015-0.217,0.009-0.325l-0.016,0.059c-0.351-0.203-0.735-0.318-1.132-0.318c-0.473,0-0.96,0.165-1.422,0.546
			c-2.178,1.803-0.389,4.037-1.646,5.171c-0.28,0.249-0.639,0.378-0.992,0.378c-0.361,0-0.718-0.137-0.974-0.421
			c-0.383-0.422-0.436-1.335,0.164-2.048c1.112-1.327,1.028-1.761,1.605-2.453c0.423-0.509,0.854-1.004,1.298-1.493
			c0.203-0.226,0.361-0.463,0.314-0.786c-0.079-0.484-0.305-0.681-0.61-0.681c-0.757,0-2.009,1.199-2.773,2.185
			c-0.667,0.854-1.075,1.557-1.128,2.601c-0.062,1.202-0.866,1.771-1.588,1.771c-0.344,0-0.668-0.129-0.885-0.379
			c-0.403-0.464-1.401-1.485-0.062-2.273c0.988-0.582,1.589-1.25,1.84-1.81c0.336-0.747,1.928-1.593,2.507-2.057
			c1.225-0.975,2.317-2.154,3.399-3.286c0.647-0.681,0.879-1.699,0.78-2.959c-0.414-5.319-6.991-8.16-12.84-10.947
			c-2.175-1.035-3.267-1.581-3.695-1.581c-0.725,0,0.44,1.557,1.471,4.935c2.884,9.455,1.942,16.789-3.065,29.223
			c-2.018,5.015-10.666,15.648-5.66,21.11c1.58,1.737,0.703,3.302-2.112,3.329c-1.043-0.066-2.081-0.123-3.123-0.195
			c-0.346-0.018-0.703-0.023-1.068-0.023c-0.96,0-1.973,0.043-2.971,0.043c-1.207,0-2.395-0.063-3.439-0.344
			c-2.329-0.627-4.286-2.097-1.181-3.533c0.208-0.098,0.535-0.138,0.939-0.138c1.675,0,4.671,0.676,5.978,0.676
			c2.394-0.001,2.955-2.622,3.136-4.55c0.267-2.984,2.858-12.305-0.512-12.305c-0.562,0-1.289,0.26-2.221,0.851
			c-4.066,2.577-9.603,4.005-15.24,4.005c-5.292,0-10.672-1.259-15.004-4.005c-0.932-0.591-1.726-0.851-2.403-0.851
			c-4.058,0-3.88,9.32-3.613,12.305c0.18,1.928,0.741,4.547,3.135,4.55c1.308,0,4.303-0.676,5.978-0.676
			c0.404,0,0.732,0.04,0.94,0.138c3.106,1.437,1.147,2.906-1.182,3.533c-1.045,0.28-2.231,0.344-3.439,0.344
			c-0.999,0-2.011-0.043-2.97-0.043c-0.365,0-0.723,0.006-1.069,0.023c-1.042,0.069-2.079,0.129-3.123,0.195
			c-2.816-0.027-3.689-1.592-2.112-3.329c1.071-1.168,1.843-3.155,1.782-5.549c-0.548-18.479-11.956-20.597-11.11-34.111
			c0.518-8.313,5.406-12.156,9.646-19.344c1.179-1.997,1.489-2.646,1.172-2.646c-0.356,0-1.506,0.822-3.102,1.466
			c-5.742,2.318-12.484,2.438-17.752,7.459c-0.539,0.513-1.05,1.016-1.148,1.354c-0.348,1.218-0.325,2.263,0.176,3.059
			c0.833,1.326,1.667,2.696,2.673,3.898c0.476,0.57,1.863,1.718,2.045,2.516c0.134,0.597,0.59,1.373,1.441,2.141
			c1.155,1.041-0.026,1.841-0.515,2.217c-0.193,0.147-0.431,0.22-0.677,0.22c-0.791,0-1.671-0.739-1.467-2.079
			c0.157-1.034-0.102-1.801-0.583-2.774c-0.584-1.182-1.654-2.706-2.406-2.706c-0.247,0-0.459,0.164-0.61,0.559
			c-0.11,0.305-0.005,0.57,0.15,0.83c0.337,0.568,0.658,1.142,0.972,1.726c0.428,0.795,0.258,1.204,1.083,2.724
			c0.444,0.817,0.212,1.701-0.249,2.039c-0.228,0.169-0.493,0.247-0.759,0.247c-0.444,0-0.892-0.218-1.175-0.597
			c-1.006-1.364,1.197-3.197-0.581-5.395c-0.487-0.605-1.091-0.862-1.7-0.862c-0.253,0-0.507,0.045-0.753,0.127l-0.005-0.06
			c-0.028,0.104-0.045,0.211-0.058,0.32c-0.175,1.083,0.484,2.315,0.408,3.136c-0.164,1.742-0.382,3.349-1.547,4.972
			c-1.161,1.625-0.452,2.423-1.026,3.798c-0.261,0.627-0.869,1.006-1.509,1.006c-0.208,0-0.419-0.04-0.624-0.125
			c-0.831-0.346-1.837-1.507-1.492-2.338c0.746-2.244,5.289-2.935,4.956-6.94c-0.187-2.222-0.434-3.852-0.474-5.748
			c-0.059-2.672,1.187-6.169,3.2-8.009c7.103-6.491,17.389-7.331,23.46-13.162c2.774-2.662,2.149-6.441,0.339-9.493
			c-1.022-1.73-2.48-3.379-4.452-4.917c-1.708-1.333-2.597-1.86-3.207-1.86c-0.967,0-1.228,1.327-2.926,2.872
			c-1.174,1.07-2.735,1.722-4.45,1.722c-3.654,0-6.616-2.964-6.616-6.618s2.962-6.619,6.616-6.619c1.605,0,3.079,0.573,4.226,1.526
			c2.945,2.448,2.172,3.155,5.945,5.13c3.987,2.086,6.596,5.855,8.293,9.953c1.042,2.51,1.928,2.302,4.345,2.341
			c0.122,0.002,0.24,0.003,0.354,0.003c1.32,0,2.117-0.188,2.061-1.96c-0.038-1.304-0.152-2.51-0.382-3.542
			c-0.575-2.563-1.878-4.596-4.613-5.483c-1.276-0.414-2.793-0.637-4.583-0.637c-4.979,0-9.014-4.037-9.014-9.014
			c0-4.977,4.036-9.012,9.014-9.012c10.71,0,11.023,16.443,11.795,23.819c0.082,0.789,0.32,2.026,0.726,3.183
			c1.042,2.967,2.32,2.941,5.022,3.202l3.964,0.378c0.541,0.052,1.021,0.078,1.449,0.078c3.925,0,3.402-2.18,4.122-6.485
			c0.544-3.267,1.033-6.575,1.507-9.884c1.358-9.529,2.595-19.08,4.725-27.742c1.906-7.739,4.526-14.768,8.596-20.435
			C99.344,5.425,103.106,3.791,106.887,3.792 M106.887,1.792c-4.501,0-8.771,1.989-11.715,5.458L95.12,7.312l-0.048,0.066
			c-3.853,5.366-6.685,12.078-8.913,21.123c-1.921,7.814-3.141,16.458-4.32,24.816l-0.442,3.123
			c-0.419,2.928-0.925,6.387-1.499,9.838c-0.128,0.767-0.219,1.466-0.298,2.083c-0.353,2.731-0.353,2.731-1.852,2.731
			c-0.36,0-0.783-0.023-1.259-0.068l-3.965-0.378l-0.384-0.037c-2.33-0.218-2.374-0.222-2.942-1.837
			c-0.357-1.019-0.559-2.105-0.623-2.726c-0.073-0.702-0.142-1.483-0.216-2.324c-0.718-8.139-2.056-23.289-13.568-23.289
			c-6.073,0-11.014,4.94-11.014,11.012c0,0.36,0.017,0.715,0.051,1.066c-1.388-0.898-3.017-1.384-4.683-1.384
			c-4.751,0-8.616,3.866-8.616,8.619c0,4.752,3.865,8.618,8.616,8.618c2.151,0,4.209-0.797,5.797-2.244
			c0.871-0.792,1.419-1.528,1.819-2.065c0.016-0.021,0.032-0.043,0.049-0.066c0.324,0.2,0.848,0.563,1.687,1.218
			c1.706,1.331,3.039,2.797,3.961,4.359c0.8,1.349,2.398,4.729-0.002,7.032c-2.713,2.606-6.501,4.178-10.511,5.841
			c-4.446,1.844-9.044,3.751-12.914,7.288c-2.613,2.388-3.915,6.602-3.851,9.529c0.028,1.332,0.152,2.538,0.283,3.815
			c0.066,0.641,0.135,1.315,0.197,2.057c0.102,1.224-0.525,1.818-2.088,2.979c-1.056,0.784-2.25,1.671-2.751,3.101
			c-0.814,2.107,1.006,4.215,2.6,4.878c0.445,0.185,0.913,0.278,1.392,0.278c1.473,0,2.79-0.878,3.355-2.236
			c0.369-0.885,0.403-1.624,0.428-2.164c0.025-0.552,0.035-0.758,0.38-1.24c0.496-0.691,0.854-1.377,1.12-2.061
			c0.665,0.793,1.644,1.256,2.663,1.256c0.71,0,1.384-0.222,1.95-0.64c0.127-0.094,0.247-0.197,0.356-0.31
			c0.48,0.25,1.015,0.385,1.562,0.385c0.697,0,1.352-0.219,1.891-0.631l0.072-0.054c0.495-0.377,1.655-1.258,1.717-2.743
			c0.027-0.641-0.151-1.594-1.149-2.494c-0.6-0.542-0.802-0.973-0.829-1.093c-0.241-1.059-1.019-1.901-2.011-2.895
			c-0.175-0.175-0.373-0.373-0.449-0.465c-0.829-0.99-1.571-2.175-2.289-3.319l-0.227-0.362c-0.139-0.22-0.137-0.675,0-1.239
			c0.169-0.195,0.515-0.524,0.658-0.661c3.226-3.074,7.096-4.108,11.193-5.203c1.269-0.34,2.567-0.687,3.85-1.101
			c-0.685,1.024-1.374,1.995-2.05,2.947c-3.048,4.291-5.927,8.344-6.332,14.849c-0.445,7.111,2.188,11.335,4.977,15.807
			c2.881,4.621,5.86,9.399,6.13,18.488c0.05,1.983-0.617,3.438-1.257,4.138c-1.774,1.954-1.312,3.659-1.031,4.303
			c0.382,0.875,1.488,2.348,4.598,2.378L54.161,150l0.073-0.005l1.259-0.078c0.623-0.038,1.246-0.076,1.87-0.118
			c0.281-0.014,0.605-0.019,0.937-0.019c0.46,0,0.934,0.011,1.412,0.021c0.517,0.012,1.039,0.022,1.558,0.022
			c1.127,0,2.596-0.047,3.958-0.412c2.605-0.701,4.117-2.001,4.258-3.661c0.088-1.029-0.319-2.492-2.756-3.619
			c-0.463-0.218-1.032-0.322-1.779-0.322c-1.039,0-2.357,0.199-3.631,0.392c-0.882,0.133-1.883,0.284-2.346,0.284
			c-0.734-0.001-1.027-1.488-1.144-2.736c-0.342-3.819,0.039-8.581,1.268-9.925c0.176-0.193,0.271-0.193,0.354-0.193
			c0.145,0,0.564,0.053,1.332,0.539c4.39,2.784,10.099,4.316,16.076,4.316c6.039,0,11.984-1.573,16.311-4.315
			c0.35-0.222,0.611-0.353,0.797-0.43c0.319,1.492-0.397,5.536-0.684,7.151c-0.202,1.142-0.377,2.128-0.443,2.865
			c-0.116,1.239-0.41,2.728-1.145,2.728c-0.462,0-1.462-0.15-2.344-0.284c-1.275-0.192-2.594-0.392-3.633-0.392
			c-0.747,0-1.317,0.104-1.792,0.328c-2.424,1.121-2.83,2.585-2.743,3.613c0.143,1.66,1.653,2.96,4.257,3.661
			c1.363,0.365,2.832,0.412,3.959,0.412c0.519,0,1.041-0.011,1.559-0.022c0.478-0.01,0.951-0.021,1.412-0.021
			c0.331,0,0.654,0.005,0.968,0.021c0.613,0.043,1.263,0.082,1.913,0.121l1.184,0.073L96.507,150l0.073-0.001
			c3.111-0.03,4.218-1.504,4.6-2.38c0.28-0.644,0.742-2.349-1.027-4.295c-2.812-3.067,0.875-9.55,3.567-14.284
			c1.035-1.819,1.929-3.392,2.469-4.734c5.293-13.143,6.081-20.852,3.123-30.552c-0.089-0.291-0.178-0.567-0.267-0.831l0.625,0.297
			c5.16,2.446,10.496,4.975,10.799,8.866c0.054,0.682-0.034,1.214-0.235,1.426l-0.312,0.326c-0.927,0.973-1.885,1.978-2.884,2.773
			c-0.098,0.077-0.332,0.232-0.539,0.369c-1.172,0.774-2.104,1.445-2.547,2.432c-0.051,0.114-0.335,0.497-1.03,0.906
			c-1.159,0.682-1.523,1.581-1.625,2.216c-0.235,1.471,0.729,2.566,1.14,3.034l0.052,0.06c0.587,0.677,1.46,1.066,2.395,1.066
			c0.312,0,0.63-0.046,0.941-0.137c0.087,0.136,0.186,0.265,0.295,0.386c0.615,0.683,1.512,1.077,2.455,1.077
			c0.796,0,1.563-0.271,2.183-0.767c0.123,0.724,0.338,1.468,0.687,2.245c0.24,0.539,0.208,0.743,0.123,1.289
			c-0.084,0.534-0.198,1.268-0.012,2.21c0.332,1.697,1.83,2.93,3.561,2.93c0.232,0,0.466-0.022,0.695-0.066
			c1.156-0.225,2.326-0.998,2.982-1.972c0.478-0.709,0.669-1.518,0.542-2.285c-0.203-1.503-1.197-2.611-2.076-3.59
			c-1.3-1.449-1.796-2.157-1.45-3.34c0.209-0.716,0.413-1.364,0.605-1.98c0.383-1.223,0.744-2.378,1.038-3.677
			c0.498-2.19,0.252-4.854-0.753-8.137c-1.956-6.412-7.665-9.774-12.701-12.74c-3.525-2.077-6.855-4.038-8.743-6.771
			c-2.256-3.267-2.795-5.384-2.403-9.441c0.272-2.826,1.373-5.867,3.144-5.867c0.855,0,2.027,0.597,3.299,1.682
			c1.729,1.474,3.931,2.285,6.199,2.285c1.255,0,2.483-0.245,3.65-0.729c2.353-0.977,4.184-2.811,5.156-5.164
			c0.974-2.354,0.972-4.946-0.006-7.299c-1.476-3.558-4.938-5.857-8.821-5.857c-1.107,0-2.197,0.188-3.246,0.558
			c1.286-1.802,2.044-4.006,2.044-6.384c0-6.073-4.941-11.013-11.016-11.013c-4.852,0-9.079,3.111-10.52,7.74
			c-1.317,4.236-2.538,10.917-3.267,17.874c-0.448,4.154-0.389,8.108-0.289,11.8c0.005,0.173,0.011,0.341,0.018,0.506
			c0.005,0.138,0.011,0.293,0.015,0.445c-0.171-0.019-0.305-0.039-0.409-0.057c-0.036-6.408,0.251-27.26,5.141-38.801
			c0.271-0.641,1.094-2.588,5.21-2.588c1.27,0,2.747,0.184,4.392,0.547c1.066,0.235,2.162,0.354,3.257,0.354
			c4.536,0,8.788-2.006,11.664-5.504c2.562-3.112,3.759-7.037,3.369-11.05c-0.39-4.015-2.319-7.637-5.434-10.199
			C113.726,3.005,110.347,1.792,106.887,1.792L106.887,1.792z M95.68,66.775c-0.063-2.305-0.024-4.463,0.33-6.048
			c0.492-2.204,1.503-3.442,3.278-4.018c1.104-0.36,2.437-0.542,3.967-0.542c0.199,0,0.397-0.005,0.595-0.016
			C100.201,58.896,97.1,62.474,95.68,66.775L95.68,66.775z M60.017,69.978c0,0-0.205-0.151-0.561-1.011
			c-1.045-2.523-2.313-4.691-3.794-6.49c1.167,0.057,2.206,0.231,3.095,0.52c1.773,0.575,2.784,1.814,3.278,4.018
			c0.18,0.808,0.292,1.839,0.331,3.063c-0.019,0-0.038,0-0.059,0c-0.104,0-0.211-0.001-0.323-0.003l-0.562-0.006
			C60.898,70.065,60.178,70.059,60.017,69.978L60.017,69.978L60.017,69.978z"/>
	</g>
	<rect style="fill:none;" width="150" height="150"/>
</g>
<g id="Layer_1">
</g>
</svg>
