<?xml version="1.0" encoding="iso-8859-1"?>
<!-- Generator: Adobe Illustrator 16.0.0, SVG Export Plug-In . SVG Version: 6.00 Build 0)  -->
<!DOCTYPE svg PUBLIC "-//W3C//DTD SVG 1.1//EN" "http://www.w3.org/Graphics/SVG/1.1/DTD/svg11.dtd">
<svg version="1.1" xmlns="http://www.w3.org/2000/svg" xmlns:xlink="http://www.w3.org/1999/xlink" x="0px" y="0px" width="150px"
	 height="150px" viewBox="0 0 150 150" style="enable-background:new 0 0 150 150;" xml:space="preserve">
<g id="_x30_6_x5F_03">
	<rect style="fill:none;" width="150" height="150"/>
	<g>
		<path style="fill-rule:evenodd;clip-rule:evenodd;fill:#E8649A;" d="M108.764,99.69c2.184-1.864,4.127-4.05,5.621-6.594
			c0.299-0.512,0.58-0.921,0.813-1.281c0,0,0.785-1.135,1.154-1.737c1.281-2.14,2.496-3.045,1.922-5.503
			c-1.391-6.018-6.447-3.865-6.738-6.262c-0.154-1.183,0.328-3.043,1.475-3.62c1.316-0.661,3.488,0.005,4.215,4.249
			c0.164,0.994,0.998,1.707,1.76,2.383c0.539,0.481,0.953,0.604,1.287,0.472c0.73-0.294,1.846-1.65,2.33-3.352
			c0.266-1.264,0.846-10.137,2.77-11.166c1.408-0.748,3.967-0.04,4.121,1.669c0.139,1.689-1.408,3.339-2.355,4.579
			c-1.293,1.656-3.748,5.938-3.145,6.609c0.57,0.64,0.641,0.271,1.477-0.363c0.83-0.642,4.408-4.788,4.971-5.494
			c1.266-1.552,2.611-3.913,4.781-2.745c4.518,2.416-2.918,5.841-4.92,7.015c-2.791,1.816-4.279,3.089-6.752,5.32
			c-1.348,1.331-5.691,8.321-6.607,9.719c-0.004,0.006-0.006,0.012-0.01,0.017c-0.002,0.001-0.002,0.003-0.004,0.003
			c0,0.002,0,0.005,0,0.006c-0.053,0.076-0.094,0.134-0.119,0.169c-0.002,0.001-0.002,0.003-0.008,0.005
			c-0.049,0.077-0.104,0.154-0.154,0.23c-9.26,13.723-11.08,11.521-11.303,15.484c-0.557,10.028,4.604,17.373,0.904,26.492
			c-1.795,4.397-3.764,10.068,2.16,10.758c1.336,0.158,2.672-0.014,4.023-0.061c1.004-0.035,2.006-0.054,3.02-0.054
			c0.764,0.099,1.363,0.238,1.691,0.555c0.773,0.738,0.449,1.204-0.123,1.456c-0.611,0.276-1.223,0.244-1.844,0.132
			c-0.615-0.109-1.164-0.185-1.705-0.225c-3-0.222-6.32-0.038-9.318,0.386c-1.086,0.156-2.352,0.29-2.951-0.288
			c-0.889-0.866,0.631-1.777,1.031-2.336c0.496-0.697,0.521-1.757,0.297-2.771c-2.414-10.86-15.559-1.693-27.158-1.637
			c-3.452,0.011-6.421-2.084-8.418,0.044c-1.036,1.107-1.885,3.907-0.911,5.286c0.398,0.562,1.93,1.469,1.032,2.335
			c-0.594,0.583-1.864,0.445-2.948,0.295c-2.996-0.425-6.319-0.612-9.32-0.383c-0.542,0.03-1.084,0.108-1.704,0.222
			c-0.621,0.111-1.234,0.143-1.845-0.134c-0.573-0.258-0.896-0.718-0.126-1.46c0.332-0.313,0.936-0.454,1.688-0.548
			c1.019,0,2.024,0.016,3.026,0.056c1.352,0.042,2.687,0.216,4.029,0.058c3.65-0.427,3.397-1.686,3.601-5.499
			c0.082-1.524-0.134-2.666-0.896-3.369c-0.711-0.665-1.403-1.315-2.058-1.962c-9.213-9.067-12.632-16.487-13.626-23.462
			c-2.431,4.269-6.072,7.882-11.582,11.899c-0.062,0.046-0.125,0.092-0.189,0.139c0,0.001,0,0.003,0,0.006c-0.001,0-0.004,0-0.005,0
			c-0.03,0.021-0.077,0.058-0.139,0.097l0,0c-0.002,0.002-0.003,0.003-0.005,0.005c-0.005,0.003-0.01,0.006-0.016,0.008
			c-1.115,0.806-6.738,4.584-7.797,5.738c-1.762,2.102-2.764,3.368-4.172,5.719c-0.914,1.69-3.503,7.912-5.633,4.266
			c-1.02-1.76,0.881-2.939,2.12-4.024c0.563-0.488,3.871-3.558,4.368-4.259c0.504-0.699,0.799-0.776,0.263-1.22
			c-0.575-0.481-4.025,1.669-5.354,2.785c-0.987,0.813-2.297,2.145-3.696,2.074c-1.418-0.068-2.074-2.155-1.505-3.338
			c0.793-1.62,8.084-2.368,9.109-2.624c1.398-0.443,2.474-1.412,2.689-2.016c0.102-0.277-0.017-0.614-0.421-1.046
			c-0.578-0.607-1.193-1.27-2.012-1.377c-3.518-0.474-4.138-2.243-3.63-3.346c0.445-0.95,1.957-1.406,2.94-1.324
			c1.974,0.174,0.357,4.399,5.356,5.367c2.042,0.393,2.749-0.629,4.468-1.753c0.489-0.318,1.399-1.007,1.399-1.002
			c0.292-0.199,0.618-0.44,1.035-0.706c5.407-3.461,8.667-9.401,10.439-14.642c0.682-2.267,1.283-4.369,1.811-6.326
			c2.138-7.911,1.078-4.962-4.732-9.105c-4.974-3.548-8.218-9.363-8.218-15.94c0-9.083,6.197-16.724,14.593-18.925
			c5.207-1.363,3.986-2.806,1.083-6.374c-2.11-2.595-3.376-5.904-3.376-9.509c0-7.332,5.236-13.443,12.17-14.799
			c3.76-0.735,5.341-2.648,4.602-6.922c-0.12-0.699-0.183-1.417-0.183-2.149c0-6.933,5.62-12.554,12.554-12.554
			c3.385,0,10.645,3.51,15.985,7.519c15.549,11.681,0.6,47.228,2.543,65.529C95.402,94.771,99.26,105.001,108.764,99.69z"/>
		<path style="fill-rule:evenodd;clip-rule:evenodd;" d="M55.213,106.465c-1.25,1.444-1.958,2.96-2.25,4.506
			c-0.5,2.713,0.313,5.525,1.838,8.185c3.036,5.284,3.026,4.695,7.314,2.305c2.873-1.604,7.216-3.309,11.99-4.6
			c4.126-1.114,8.564-1.927,12.669-2.104c3.074-0.138,5.963,0.284,8.385,1.228c3.098,1.202,3.158,3.081,3.805-1.504
			c0.219-1.599,0.025-2.994-0.777-4.023c-2.01-2.572-5.26-4.64-9.168-5.896c-3.912-1.26-8.355-2.042-12.609-2.433
			c-4.926-0.449-9.592-0.361-12.843,0.144C60.2,102.793,57.209,104.15,55.213,106.465z"/>
		<path style="fill-rule:evenodd;clip-rule:evenodd;fill:#FFFFFF;" d="M55.213,106.465c-0.071,0.082-0.14,0.164-0.207,0.246
			l-0.052,0.43c-0.111,0.917,0.547,1.763,1.47,1.875l0.833,0.096c0.923,0.112,1.761-0.552,1.875-1.473l0.465-3.866l-0.703-0.087
			C57.469,104.383,56.214,105.302,55.213,106.465L55.213,106.465z M95.279,107.675c-1.17-0.86-2.506-1.618-3.971-2.253l-0.414,3.486
			c-0.113,0.922,0.551,1.768,1.465,1.88l0.844,0.095c0.918,0.113,1.758-0.551,1.869-1.472L95.279,107.675L95.279,107.675z
			 M87.213,104.021c-1.338-0.369-2.721-0.688-4.125-0.957l-0.355,2.917c-0.105,0.918,0.555,1.764,1.475,1.878l0.836,0.095
			c0.922,0.114,1.764-0.552,1.873-1.467L87.213,104.021L87.213,104.021z M79.857,102.527c-1.152-0.161-2.307-0.295-3.447-0.399
			c-0.25-0.021-0.494-0.043-0.74-0.063l-0.319,2.696c-0.114,0.922,0.548,1.762,1.47,1.874l0.832,0.096
			c0.918,0.112,1.762-0.552,1.875-1.469L79.857,102.527L79.857,102.527z M72.609,101.883c-1.479-0.055-2.901-0.059-4.233-0.021
			l-0.297,2.488c-0.112,0.921,0.542,1.762,1.466,1.874l0.84,0.102c0.917,0.108,1.76-0.559,1.869-1.473L72.609,101.883
			L72.609,101.883z M65.864,102.003c-0.823,0.069-1.592,0.16-2.297,0.269c-0.693,0.107-1.37,0.25-2.027,0.431l-0.261,2.191
			c-0.113,0.914,0.552,1.761,1.47,1.869l0.838,0.102c0.915,0.107,1.763-0.554,1.869-1.467L65.864,102.003z"/>
		<circle style="fill-rule:evenodd;clip-rule:evenodd;fill:#FFFFFF;" cx="53.35" cy="77.445" r="16.825"/>
		<circle style="fill-rule:evenodd;clip-rule:evenodd;fill:#FFFFFF;" cx="61.166" cy="42.634" r="12.901"/>
		<circle style="fill-rule:evenodd;clip-rule:evenodd;fill:#FFFFFF;" cx="75.228" cy="18.762" r="10.137"/>
		<path style="fill-rule:evenodd;clip-rule:evenodd;" d="M43.855,79.789c1.967,0,3.563,1.597,3.563,3.563
			c0,1.965-1.597,3.563-3.563,3.563c-1.968,0-3.563-1.598-3.563-3.563C40.292,81.386,41.887,79.789,43.855,79.789z"/>
		<circle style="fill-rule:evenodd;clip-rule:evenodd;" cx="55.286" cy="44.354" r="3.563"/>
		<circle style="fill-rule:evenodd;clip-rule:evenodd;" cx="71.779" cy="19.534" r="3.563"/>
	</g>
</g>
<g id="Layer_1">
</g>
</svg>
