<?xml version="1.0" encoding="iso-8859-1"?>
<!-- Generator: Adobe Illustrator 16.0.0, SVG Export Plug-In . SVG Version: 6.00 Build 0)  -->
<!DOCTYPE svg PUBLIC "-//W3C//DTD SVG 1.1//EN" "http://www.w3.org/Graphics/SVG/1.1/DTD/svg11.dtd">
<svg version="1.1" xmlns="http://www.w3.org/2000/svg" xmlns:xlink="http://www.w3.org/1999/xlink" x="0px" y="0px" width="150px"
	 height="150px" viewBox="0 0 150 150" style="enable-background:new 0 0 150 150;" xml:space="preserve">
<g id="_x30_6_x5F_05">
	<g>
		<path style="fill:#B61F37;" d="M57.609,71.735c-1.697-4.098-4.306-7.867-8.293-9.953c-3.772-1.976-3-2.682-5.945-5.13
			c-1.146-0.953-2.62-1.526-4.226-1.526c-3.654,0-6.616,2.965-6.616,6.619s2.962,6.618,6.616,6.618c1.715,0,3.276-0.652,4.45-1.722
			c2.769-2.519,1.717-4.459,6.133-1.012c1.972,1.538,3.43,3.187,4.452,4.917c1.81,3.051,2.435,6.831-0.339,9.493
			c-6.071,5.831-16.358,6.671-23.46,13.162c-2.013,1.84-3.259,5.337-3.2,8.009c0.04,1.896,0.287,3.526,0.474,5.748
			c0.333,4.006-4.21,4.696-4.956,6.94c-0.345,0.831,0.661,1.992,1.492,2.338c0.831,0.345,1.787-0.05,2.133-0.881
			c0.574-1.375-0.135-2.173,1.026-3.798c1.165-1.623,1.383-3.229,1.547-4.972c0.076-0.82-0.583-2.053-0.408-3.136
			c0.013-0.109,0.03-0.217,0.058-0.32l0.005,0.06c0.838-0.28,1.764-0.121,2.453,0.735c1.777,2.197-0.425,4.03,0.581,5.395
			c0.453,0.605,1.327,0.8,1.935,0.35c0.46-0.338,0.692-1.222,0.249-2.039c-0.825-1.52-0.656-1.929-1.083-2.724
			c-0.314-0.584-0.635-1.157-0.972-1.726c-0.155-0.26-0.261-0.525-0.15-0.83c0.608-1.597,2.24,0.578,3.016,2.147
			c0.481,0.974,0.74,1.74,0.583,2.774c-0.268,1.758,1.331,2.48,2.144,1.859c0.488-0.376,1.669-1.176,0.515-2.217
			c-0.851-0.768-1.307-1.544-1.441-2.141c-0.182-0.798-1.569-1.945-2.045-2.516c-1.006-1.202-1.839-2.572-2.673-3.898
			c-0.501-0.796-0.524-1.841-0.176-3.059c0.098-0.339,0.609-0.842,1.148-1.354c5.268-5.021,12.01-5.141,17.752-7.459
			c3.013-1.216,4.437-3.066,1.93,1.18c-4.241,7.188-9.129,11.03-9.646,19.344c-0.846,13.515,10.562,15.632,11.11,34.111
			c0.061,2.394-0.711,4.381-1.782,5.549c-1.578,1.737-0.704,3.302,2.112,3.329c1.044-0.066,2.081-0.126,3.123-0.195
			c2.354-0.118,5.24,0.276,7.479-0.324c2.329-0.627,4.288-2.097,1.182-3.533c-1.069-0.503-5.293,0.538-6.917,0.538
			c-2.394-0.003-2.955-2.622-3.135-4.55c-0.312-3.482-0.502-15.589,6.016-11.454c8.947,5.672,22.361,4.997,30.245,0
			c6.519-4.135,3.044,7.972,2.732,11.454c-0.181,1.928-0.742,4.549-3.136,4.55c-1.622,0-5.85-1.041-6.917-0.538
			c-3.105,1.437-1.148,2.906,1.181,3.533c2.238,0.601,5.125,0.206,7.479,0.324c1.042,0.072,2.08,0.129,3.123,0.195
			c2.815-0.027,3.692-1.592,2.112-3.329c-5.006-5.462,3.643-16.096,5.66-21.11c5.008-12.434,5.949-19.768,3.065-29.223
			c-1.64-5.378-3.623-6.138,2.225-3.354c5.849,2.787,12.426,5.628,12.84,10.947c0.099,1.26-0.133,2.278-0.78,2.959
			c-1.082,1.132-2.175,2.312-3.399,3.286c-0.579,0.464-2.171,1.31-2.507,2.057c-0.251,0.56-0.852,1.228-1.84,1.81
			c-1.34,0.788-0.342,1.81,0.062,2.273c0.673,0.776,2.382,0.382,2.473-1.392c0.053-1.044,0.461-1.746,1.128-2.601
			c1.074-1.383,3.107-3.188,3.384-1.504c0.047,0.323-0.111,0.561-0.314,0.786c-0.443,0.489-0.875,0.984-1.298,1.493
			c-0.577,0.692-0.493,1.126-1.605,2.453c-0.6,0.713-0.547,1.626-0.164,2.048c0.506,0.562,1.398,0.547,1.966,0.043
			c1.258-1.134-0.531-3.368,1.646-5.171c0.848-0.699,1.784-0.673,2.554-0.228l0.016-0.059c0.006,0.108,0.003,0.216-0.009,0.325
			c-0.045,1.097-0.937,2.174-1.025,2.991c-0.188,1.736-0.296,3.356,0.521,5.18c0.813,1.824-0.041,2.465,0.248,3.93
			c0.173,0.882,1.026,1.458,1.913,1.286c0.886-0.172,2.101-1.108,1.928-1.992c-0.281-2.347-4.596-3.93-3.469-7.791
			c0.627-2.141,1.194-3.688,1.612-5.537c0.439-1.933,0.121-4.382-0.714-7.111c-2.999-9.828-16.127-11.645-21.178-18.961
			c-2.399-3.474-3.204-6.05-2.749-10.769c0.55-5.689,3.683-10.675,9.731-5.515c2.087,1.778,5.076,2.353,7.786,1.229
			c3.841-1.595,5.666-6.003,4.069-9.848c-1.594-3.842-5.98-5.608-9.845-4.071c-6.993,2.779-14.654,8.655-15.641,16.607
			c-0.125,1.012-0.199,2.073-0.322,3.253c-0.053,0.511-0.278,0.905-0.965,1.033c-1.027,0.193-1.701-0.03-1.731-1.06
			c-0.124-4.45-0.641-9.702,0.115-13.076c0.572-2.566,1.878-4.597,4.613-5.483c1.275-0.417,2.792-0.64,4.583-0.64
			c4.976,0,9.016-4.036,9.016-9.013c0-4.978-4.04-9.013-9.016-9.013c-4.044,0-7.468,2.664-8.609,6.334
			c-1.356,4.361-2.518,11.087-3.188,17.488c-0.427,3.954-0.382,7.73-0.279,11.539c0.048,1.743,0.285,3.164-1.477,3.052
			c-2.312-0.145-2.89-0.561-2.898-1.919c-0.077-11.434,0.864-29.301,5.298-39.766c1.342-3.174,4.912-4.75,11.874-3.213
			c4.656,1.026,9.71-0.532,12.945-4.467c4.596-5.583,3.796-13.839-1.79-18.435c-5.582-4.596-13.755-3.724-18.434,1.791
			c-4.069,5.667-6.689,12.695-8.596,20.435c-2.13,8.662-3.366,18.213-4.725,27.742c-0.474,3.309-0.963,6.618-1.507,9.884
			c-0.798,4.775-0.068,6.935-5.571,6.408l-3.964-0.378c-2.703-0.26-3.98-0.235-5.022-3.202c-0.406-1.157-0.644-2.394-0.726-3.183
			c-0.772-7.375-1.085-23.819-11.795-23.819c-4.979,0-9.014,4.035-9.014,9.012c0,4.978,4.036,9.014,9.014,9.014
			c1.79,0,3.306,0.224,4.583,0.637c2.735,0.888,4.039,2.92,4.613,5.483c0.229,1.031,0.344,2.238,0.382,3.542
			c0.061,1.925-0.884,1.98-2.415,1.957C59.537,74.038,58.651,74.246,57.609,71.735z"/>
		<circle style="fill:#FFFFFF;" cx="107.451" cy="18.599" r="11.111"/>
		<circle style="fill:#FFFFFF;" cx="39.077" cy="61.675" r="5.332"/>
		<circle style="fill:#FFFFFF;" cx="115.419" cy="62.416" r="6.434"/>
		<circle style="fill:#FFFFFF;" cx="103.545" cy="47.11" r="7.553"/>
		<circle style="fill:#FFFFFF;" cx="54.568" cy="53.326" r="7.553"/>
		<circle cx="105.896" cy="25.086" r="2.469"/>
		<circle cx="38.553" cy="63.396" r="1.185"/>
		<circle cx="112.573" cy="65.742" r="1.43"/>
		<circle cx="102.279" cy="51.244" r="1.679"/>
		<circle cx="53.083" cy="55.26" r="1.679"/>
		<path d="M74.056,103.852c4.478-0.481,7.886-2.239,11.121-4.064c5.077-2.85,10.48-6.704,15.512-1.7
			c3.735,3.72,4.397,7.86,3.4,11.464c-0.625,2.247-1.898,4.283-3.477,5.897c-3.43,3.347-6.426,5.659-9.617,7.3
			c-10.89,5.603-26.328,5.547-36.081-2.408c-1.382-1.129-3.136-2.741-4.592-4.586c-1.878-2.378-2.837-5.511-2.226-8.041
			c0.369-1.547,1.325-2.859,3.015-3.646c0.865-0.403,1.736-0.593,2.638-0.676c2.038-0.179,4.171,0.089,6.205,0.35
			C64.789,104.363,69.165,104.381,74.056,103.852z"/>
		<path style="fill:#FFFFFF;" d="M74.827,103.755c1.389-0.201,2.672-0.523,3.882-0.928l0.611,3.296
			c0.165,0.871-0.414,1.7-1.277,1.858l-0.782,0.15c-0.864,0.161-1.71-0.412-1.857-1.276L74.827,103.755L74.827,103.755z
			 M99.393,116.611c-1.102,1.027-2.163,1.943-3.21,2.767l-2.07-2.158c-0.643-0.674-0.614-1.75,0.05-2.391l0.611-0.592
			c0.675-0.636,1.742-0.614,2.391,0.056L99.393,116.611L99.393,116.611z M60.497,123.798c-1.286-0.591-2.523-1.277-3.697-2.063
			l1.452-2.831c0.427-0.834,1.453-1.161,2.276-0.742l0.743,0.39c0.839,0.421,1.161,1.448,0.747,2.274L60.497,123.798L60.497,123.798
			z M68.514,104.218c1.325-0.027,2.66-0.102,4.028-0.22l0.45,2.436c0.166,0.862-0.417,1.7-1.277,1.859l-0.781,0.146
			c-0.868,0.166-1.71-0.416-1.867-1.275L68.514,104.218z"/>
	</g>
	<rect style="fill:none;" width="150" height="150"/>
</g>
<g id="Layer_1">
</g>
</svg>
