<?xml version="1.0" encoding="iso-8859-1"?>
<!-- Generator: Adobe Illustrator 16.0.0, SVG Export Plug-In . SVG Version: 6.00 Build 0)  -->
<!DOCTYPE svg PUBLIC "-//W3C//DTD SVG 1.1//EN" "http://www.w3.org/Graphics/SVG/1.1/DTD/svg11.dtd">
<svg version="1.1" xmlns="http://www.w3.org/2000/svg" xmlns:xlink="http://www.w3.org/1999/xlink" x="0px" y="0px" width="150px"
	 height="150px" viewBox="0 0 150 150" style="enable-background:new 0 0 150 150;" xml:space="preserve">
<g id="_x30_6_x5F_03_x5F_black">
	<rect style="fill:none;" width="150" height="150"/>
	<g>
		<path d="M65.603,149c-0.556,0-1.125-0.072-1.614-0.141c-2.18-0.309-4.417-0.472-6.471-0.472c-0.917,0-1.803,0.032-2.636,0.096
			c-0.467,0.026-0.954,0.09-1.6,0.208c-0.372,0.067-0.682,0.098-0.979,0.098c-0.53,0-1.007-0.1-1.458-0.304
			c-0.821-0.37-1.076-0.92-1.145-1.317c-0.105-0.604,0.143-1.2,0.737-1.773c0.579-0.547,1.427-0.717,2.259-0.82l0.062-0.008h0.062
			c1.033,0,2.051,0.016,3.066,0.057c0.386,0.012,0.78,0.035,1.173,0.059c0.535,0.031,1.068,0.063,1.602,0.063
			c0.405,0,0.764-0.02,1.097-0.059c2.52-0.295,2.532-0.552,2.677-3.696l0.042-0.862c0.072-1.333-0.111-2.152-0.576-2.581
			c-0.723-0.677-1.421-1.333-2.082-1.985c-7.455-7.338-11.78-14.231-13.441-21.485c-2.324,3.324-5.524,6.386-10.254,9.857v0.492
			l-0.688,0.004c-0.264,0.188-0.684,0.479-1.196,0.834c-1.814,1.257-5.589,3.873-6.341,4.691c-1.713,2.044-2.683,3.273-4.051,5.557
			c-0.081,0.151-0.205,0.399-0.347,0.685c-1.314,2.629-2.758,5.194-4.693,5.194c-0.907,0-1.685-0.546-2.314-1.623
			c-1.312-2.263,0.655-3.892,1.83-4.864c0.17-0.142,0.338-0.279,0.494-0.416c0.477-0.413,1.982-1.813,3.066-2.88
			c-0.877,0.515-1.839,1.16-2.486,1.704c-0.141,0.116-0.28,0.236-0.425,0.36c-1.013,0.869-2.273,1.951-3.807,1.951l-0.157-0.004
			c-0.856-0.042-1.631-0.538-2.123-1.363c-0.62-1.04-0.713-2.409-0.234-3.407c0.724-1.478,3.688-2.203,8.565-2.959
			c0.575-0.089,1.009-0.153,1.203-0.202c0.965-0.308,1.672-0.934,1.911-1.253c-0.03-0.04-0.072-0.092-0.131-0.154
			c-0.486-0.512-0.959-1.01-1.412-1.069c-2.72-0.366-3.842-1.445-4.305-2.287c-0.429-0.78-0.467-1.68-0.104-2.468
			c0.618-1.318,2.306-1.916,3.614-1.916c0.109,0,0.216,0.005,0.317,0.014c1.433,0.126,1.844,1.386,2.144,2.306
			c0.417,1.277,0.848,2.598,3.319,3.076c0.236,0.045,0.446,0.067,0.642,0.067c0.727,0,1.185-0.313,2.072-0.962
			c0.307-0.225,0.639-0.467,1.017-0.714c0.354-0.23,0.934-0.661,1.202-0.859c0.063-0.046,0.452-0.32,0.452-0.32
			c0.231-0.162,0.488-0.342,0.791-0.535c5.542-3.547,8.513-9.636,10.029-14.118c0.657-2.185,1.264-4.304,1.793-6.267
			c1.325-4.903,1.325-4.903-0.414-5.742c-0.946-0.457-2.243-1.083-3.933-2.288c-5.409-3.858-8.638-10.122-8.638-16.755
			c0-9.345,6.308-17.525,15.34-19.893c2.439-0.639,2.779-1.147,2.825-1.289c0.164-0.502-1.093-2.048-2.203-3.411
			c-2.384-2.932-3.662-6.533-3.662-10.217c0-7.673,5.458-14.31,12.979-15.781c3.389-0.663,4.421-2.227,3.809-5.771
			c-0.131-0.764-0.198-1.543-0.198-2.319c0-7.474,6.08-13.554,13.554-13.554c3.945,0,11.531,3.925,16.585,7.719
			c10.648,8,7.786,25.784,5.02,42.983c-1.41,8.761-2.741,17.037-2.083,23.24c1.497,14.101,4.562,20.956,9.369,20.956
			c0.001,0,0,0,0.001,0c1.203,0,2.572-0.418,4.07-1.242c2.207-1.897,4.001-4.009,5.332-6.275c0.232-0.397,0.455-0.737,0.654-1.041
			l0.18-0.275c0.021-0.031,0.784-1.132,1.143-1.718c0.277-0.464,0.557-0.878,0.816-1.262c0.89-1.319,1.337-1.981,0.984-3.491
			c-0.715-3.095-2.395-3.577-4.019-4.043c-1.134-0.326-2.545-0.731-2.739-2.326c-0.178-1.363,0.34-3.789,2.019-4.633
			c0.426-0.214,0.901-0.327,1.376-0.327c0.79,0,3.432,0.382,4.273,5.3c0.103,0.62,0.718,1.166,1.369,1.743
			c0.211,0.188,0.339,0.271,0.405,0.307c0.374-0.235,1.239-1.189,1.655-2.651c0.028-0.145,0.098-0.739,0.179-1.428
			c0.688-5.878,1.414-9.455,3.081-10.347c0.512-0.271,1.128-0.415,1.784-0.415c1.719,0,3.636,1.008,3.805,2.876
			c0.152,1.859-1.125,3.467-2.15,4.758c-0.143,0.179-0.28,0.352-0.406,0.518c-0.903,1.157-2.031,3.106-2.624,4.427
			c1.159-1.174,3.775-4.184,4.35-4.905c0.17-0.208,0.333-0.421,0.5-0.638c0.958-1.247,2.151-2.798,3.928-2.798
			c0.534,0,1.076,0.146,1.609,0.433c1.295,0.692,1.954,1.576,1.958,2.627c0.01,2.198-2.957,4-5.997,5.659
			c-0.335,0.183-0.626,0.342-0.849,0.472c-2.67,1.739-4.126,2.979-6.588,5.2c-0.987,0.977-4.236,6.073-5.623,8.249
			c-0.271,0.425-0.499,0.783-0.668,1.045v0.015l-0.162,0.239l-0.033,0.063l-0.014,0.005l-0.19,0.271
			c-4.915,7.283-7.721,10.118-9.397,11.812c-1.443,1.458-1.703,1.721-1.789,3.247c-0.218,3.927,0.477,7.466,1.147,10.888
			c1.029,5.253,2.002,10.214-0.314,15.925c-0.871,2.134-2.491,6.103-1.353,8.029c0.446,0.755,1.33,1.199,2.701,1.359
			c0.335,0.039,0.694,0.059,1.099,0.059c0.543,0,1.087-0.033,1.633-0.066c0.38-0.022,0.76-0.046,1.143-0.059
			c1.015-0.036,2.028-0.055,3.054-0.055h0.064l0.063,0.008c0.84,0.108,1.694,0.284,2.258,0.827c0.596,0.569,0.846,1.168,0.739,1.775
			c-0.058,0.327-0.283,0.933-1.153,1.315c-0.442,0.2-0.918,0.299-1.444,0.299c-0.299,0-0.61-0.031-0.98-0.098
			c-0.61-0.108-1.12-0.176-1.602-0.212c-0.825-0.061-1.702-0.092-2.607-0.092c-2.073,0-4.319,0.163-6.497,0.471
			c-0.52,0.075-1.078,0.145-1.62,0.145c-0.967,0-1.675-0.23-2.165-0.703c-0.482-0.471-0.581-0.966-0.58-1.3
			c0.004-0.89,0.682-1.541,1.177-2.017c0.126-0.121,0.247-0.226,0.316-0.322c0.271-0.381,0.321-1.12,0.133-1.973
			c-0.704-3.169-2.358-4.521-5.529-4.521c-2.422,0-5.46,0.78-8.677,1.606c-3.729,0.957-7.957,2.043-11.97,2.063
			c-1.362,0-2.607-0.28-3.707-0.528c-0.874-0.196-1.699-0.383-2.384-0.383c-0.703,0-1.183,0.191-1.604,0.64
			c-0.843,0.901-1.422,3.177-0.823,4.024c0.068,0.096,0.19,0.201,0.317,0.322c0.495,0.474,1.174,1.123,1.176,2.012
			c0,0.335-0.1,0.831-0.583,1.298C67.287,148.768,66.576,149,65.603,149z"/>
		<path style="fill:#FFFFFF;" d="M75.228,4.209c3.385,0,10.645,3.51,15.985,7.519c15.549,11.681,0.6,47.228,2.543,65.529
			c1.348,12.694,4.174,21.851,10.364,21.851c1.375,0,2.917-0.452,4.644-1.417c2.184-1.864,4.127-4.05,5.621-6.594
			c0.299-0.512,0.58-0.921,0.813-1.281c0,0,0.785-1.135,1.154-1.737c1.281-2.14,2.496-3.045,1.922-5.503
			c-1.391-6.018-6.447-3.865-6.738-6.262c-0.154-1.183,0.328-3.043,1.475-3.62c0.278-0.14,0.595-0.22,0.927-0.22
			c1.243,0,2.715,1.122,3.288,4.469c0.164,0.994,0.998,1.707,1.76,2.383c0.406,0.362,0.74,0.521,1.024,0.521
			c0.093,0,0.18-0.017,0.263-0.05c0.73-0.294,1.846-1.65,2.33-3.352c0.266-1.264,0.846-10.137,2.77-11.166
			c0.378-0.201,0.838-0.296,1.313-0.296c1.295,0,2.695,0.715,2.809,1.966c0.139,1.689-1.408,3.339-2.355,4.579
			c-1.293,1.656-3.748,5.938-3.145,6.609c0.209,0.234,0.352,0.334,0.488,0.334c0.236,0,0.459-0.295,0.988-0.697
			c0.83-0.642,4.408-4.788,4.971-5.494c1.029-1.262,2.111-3.059,3.646-3.059c0.354,0,0.73,0.095,1.136,0.313
			c4.518,2.416-2.918,5.841-4.92,7.015c-2.791,1.816-4.279,3.089-6.752,5.32c-1.348,1.331-5.691,8.321-6.607,9.719
			c-0.004,0.006-0.006,0.012-0.01,0.017c-0.002,0.001-0.002,0.003-0.004,0.003c0,0.002,0,0.005,0,0.006
			c-0.053,0.076-0.094,0.134-0.119,0.169c-0.002,0.001-0.002,0.003-0.008,0.005c-0.049,0.077-0.104,0.154-0.154,0.23
			c-9.26,13.723-11.08,11.521-11.303,15.484c-0.557,10.028,4.604,17.373,0.904,26.492c-1.795,4.397-3.764,10.068,2.16,10.758
			c0.404,0.048,0.81,0.065,1.214,0.065c0.933,0,1.867-0.094,2.81-0.126c1.004-0.035,2.006-0.054,3.02-0.054
			c0.764,0.099,1.363,0.238,1.691,0.555c0.773,0.738,0.449,1.204-0.123,1.456c-0.347,0.156-0.692,0.214-1.041,0.214
			c-0.267,0-0.533-0.033-0.803-0.082c-0.615-0.109-1.164-0.185-1.705-0.225c-0.872-0.064-1.771-0.095-2.682-0.095
			c-2.222,0-4.51,0.18-6.637,0.48c-0.482,0.069-1.001,0.135-1.48,0.135c-0.6,0-1.138-0.102-1.471-0.423
			c-0.889-0.866,0.631-1.777,1.031-2.336c0.496-0.697,0.521-1.757,0.297-2.771c-0.897-4.035-3.275-5.306-6.506-5.306
			c-5.463,0-13.362,3.634-20.652,3.669c-0.009,0-0.018,0-0.026,0c-2.278,0-4.344-0.911-6.06-0.911c-0.875,0-1.659,0.237-2.333,0.955
			c-1.036,1.107-1.885,3.907-0.911,5.286c0.398,0.562,1.93,1.469,1.032,2.335c-0.331,0.324-0.871,0.426-1.472,0.426
			c-0.479,0-0.996-0.064-1.477-0.131c-2.116-0.3-4.395-0.481-6.608-0.481c-0.921,0-1.831,0.031-2.712,0.099
			c-0.542,0.03-1.084,0.108-1.704,0.222c-0.268,0.048-0.534,0.081-0.799,0.081c-0.35,0-0.699-0.058-1.046-0.215
			c-0.573-0.258-0.896-0.718-0.126-1.46c0.332-0.313,0.936-0.454,1.688-0.548c1.019,0,2.024,0.016,3.026,0.056
			c0.943,0.029,1.879,0.123,2.814,0.123c0.405,0,0.809-0.018,1.214-0.065c3.65-0.427,3.397-1.686,3.601-5.499
			c0.082-1.524-0.134-2.666-0.896-3.369c-0.711-0.665-1.403-1.315-2.058-1.962c-9.213-9.067-12.632-16.487-13.626-23.462
			c-2.431,4.269-6.072,7.882-11.582,11.899c-0.062,0.046-0.125,0.092-0.189,0.139c0,0.001,0,0.003,0,0.006c-0.001,0-0.004,0-0.005,0
			c-0.03,0.021-0.077,0.058-0.139,0.097c-0.002,0.002-0.003,0.003-0.005,0.005c-0.005,0.003-0.01,0.006-0.016,0.008
			c-1.115,0.806-6.738,4.584-7.797,5.738c-1.762,2.102-2.764,3.368-4.172,5.719c-0.712,1.318-2.444,5.393-4.183,5.393
			c-0.491,0-0.982-0.324-1.451-1.127c-1.02-1.76,0.881-2.939,2.12-4.024c0.563-0.488,3.871-3.558,4.368-4.259
			c0.504-0.699,0.799-0.776,0.263-1.22c-0.057-0.047-0.141-0.069-0.248-0.069c-0.984,0-3.908,1.848-5.106,2.854
			c-0.962,0.793-2.23,2.077-3.589,2.077c-0.036,0-0.071-0.001-0.107-0.003c-1.418-0.068-2.074-2.155-1.505-3.338
			c0.793-1.62,8.084-2.368,9.109-2.624c1.398-0.443,2.474-1.412,2.689-2.016c0.102-0.277-0.017-0.614-0.421-1.046
			c-0.578-0.607-1.193-1.27-2.012-1.377c-3.518-0.474-4.138-2.243-3.63-3.346c0.411-0.878,1.732-1.334,2.707-1.334
			c0.081,0,0.159,0.004,0.234,0.01c1.974,0.174,0.357,4.399,5.356,5.367c0.305,0.059,0.579,0.086,0.832,0.086
			c1.443,0,2.173-0.883,3.636-1.839c0.487-0.317,1.393-1.002,1.399-1.002l0,0c0.292-0.199,0.618-0.44,1.035-0.706
			c5.407-3.461,8.667-9.401,10.439-14.642c0.682-2.267,1.283-4.369,1.811-6.326c2.138-7.911,1.078-4.962-4.732-9.105
			c-4.974-3.548-8.218-9.363-8.218-15.94c0-9.083,6.197-16.724,14.593-18.925c5.207-1.363,3.986-2.806,1.083-6.374
			c-2.11-2.595-3.376-5.904-3.376-9.509c0-7.332,5.236-13.443,12.17-14.799c3.76-0.735,5.341-2.648,4.602-6.922
			c-0.12-0.699-0.183-1.417-0.183-2.149C62.674,9.831,68.294,4.209,75.228,4.209 M75.228,2.209c-8.025,0-14.554,6.529-14.554,14.554
			c0,0.833,0.071,1.669,0.212,2.488c0.577,3.336-0.464,4.122-3.015,4.621c-7.989,1.563-13.787,8.612-13.787,16.762
			c0,3.913,1.358,7.738,3.824,10.771l0.063,0.077c0.683,0.838,1.5,1.843,1.842,2.436c-0.304,0.154-0.879,0.387-1.941,0.665
			c-9.472,2.483-16.087,11.061-16.087,20.86c0,6.956,3.386,13.523,9.057,17.568c1.76,1.255,3.156,1.929,4.08,2.375
			c0.289,0.14,0.631,0.305,0.836,0.423c-0.031,0.747-0.579,2.774-0.953,4.158c-0.524,1.944-1.125,4.043-1.786,6.238
			c-1.206,3.553-4.05,10.006-9.612,13.566c-0.313,0.199-0.583,0.389-0.825,0.558l-0.26,0.182l0.001,0.002
			c-0.08,0.054-0.151,0.106-0.215,0.153c-0.25,0.185-0.833,0.616-1.149,0.822c-0.41,0.268-0.757,0.521-1.063,0.746
			c-0.85,0.623-1.089,0.769-1.481,0.769c-0.13,0-0.283-0.017-0.455-0.05c-1.89-0.366-2.155-1.177-2.556-2.404
			c-0.32-0.981-0.917-2.808-3.002-2.991c-0.138-0.012-0.271-0.018-0.409-0.018c-1.615,0-3.717,0.778-4.518,2.485
			c-0.502,1.091-0.453,2.319,0.131,3.381c0.573,1.043,1.914,2.374,5.044,2.796c0.052,0.02,0.134,0.083,0.229,0.169
			c-0.21,0.13-0.463,0.259-0.751,0.357c-0.186,0.037-0.65,0.108-1.065,0.173c-5.45,0.845-8.385,1.617-9.308,3.502
			c-0.625,1.3-0.514,3.049,0.27,4.364c0.667,1.118,1.736,1.792,2.936,1.851c0.065,0.003,0.134,0.005,0.203,0.005
			c0.107,0,0.213-0.004,0.318-0.012c-0.515,1.01-0.674,2.244,0.144,3.655c1.026,1.757,2.296,2.124,3.181,2.124
			c2.715,0,4.375-3.321,5.588-5.747c0.128-0.256,0.24-0.48,0.334-0.657c1.31-2.183,2.255-3.382,3.931-5.381
			c0.742-0.773,4.663-3.489,6.149-4.52c0.369-0.256,0.69-0.479,0.941-0.654h1.369l0.002-0.992c3.767-2.799,6.621-5.421,8.812-8.125
			c2,6.713,6.275,13.159,13.186,19.961c0.676,0.667,1.376,1.325,2.094,1.997c0.089,0.082,0.34,0.425,0.266,1.801
			c-0.017,0.307-0.03,0.597-0.042,0.871c-0.044,0.951-0.099,2.135-0.269,2.385c-0.002,0-0.253,0.216-1.524,0.364
			c-0.296,0.035-0.616,0.052-0.981,0.052c-0.494,0-1.003-0.03-1.542-0.063c-0.403-0.023-0.806-0.047-1.21-0.06
			c-0.947-0.038-1.963-0.057-3.088-0.057h-0.124l-0.123,0.016c-0.953,0.118-2.032,0.339-2.814,1.078
			c-1.071,1.033-1.157,2.026-1.043,2.68c0.09,0.52,0.434,1.479,1.722,2.059c0.572,0.259,1.201,0.391,1.867,0.391
			c0.358,0,0.724-0.036,1.152-0.112c0.61-0.111,1.059-0.171,1.462-0.193c0.848-0.064,1.709-0.096,2.6-0.096
			c2.008,0,4.197,0.159,6.328,0.462c0.567,0.078,1.167,0.15,1.757,0.15c1.248,0,2.188-0.326,2.873-0.998
			c0.563-0.543,0.878-1.261,0.877-2.008c-0.003-1.315-0.931-2.202-1.484-2.732c-0.074-0.07-0.146-0.136-0.204-0.197
			c-0.222-0.455,0.166-2.121,0.749-2.745c0.195-0.207,0.393-0.321,0.872-0.321c0.574,0,1.347,0.174,2.165,0.358
			c1.15,0.259,2.453,0.553,3.895,0.553c4.173-0.021,8.464-1.122,12.25-2.095c3.153-0.81,6.133-1.574,8.428-1.574
			c2.714,0,3.947,1.014,4.554,3.739c0.138,0.625,0.085,1.035,0.031,1.164c-0.057,0.06-0.126,0.123-0.197,0.191
			c-0.554,0.531-1.479,1.42-1.484,2.734c-0.003,0.745,0.31,1.461,0.878,2.017c0.694,0.669,1.629,0.99,2.867,0.99
			c0.605,0,1.206-0.074,1.766-0.155c2.127-0.301,4.325-0.46,6.352-0.46c0.881,0,1.733,0.03,2.534,0.089
			c0.446,0.033,0.924,0.097,1.503,0.199c0.425,0.077,0.793,0.113,1.152,0.113c0.662,0,1.29-0.132,1.865-0.392
			c1.278-0.563,1.626-1.526,1.718-2.05c0.115-0.658,0.029-1.657-1.038-2.675c-0.765-0.738-1.806-0.962-2.816-1.092l-0.127-0.017
			h-0.129c-1.022,0-2.033,0.018-3.09,0.055c-0.39,0.014-0.778,0.037-1.167,0.061c-0.55,0.033-1.069,0.064-1.572,0.064
			c-0.364,0-0.685-0.017-0.979-0.052c-1.029-0.119-1.688-0.414-1.96-0.875c-0.887-1.5,0.728-5.453,1.416-7.141
			c2.43-5.99,1.383-11.332,0.37-16.497c-0.658-3.361-1.34-6.838-1.129-10.64c0.064-1.147,0.091-1.175,1.501-2.599
			c1.701-1.719,4.548-4.596,9.463-11.878l0.05-0.074c0.017-0.024,0.033-0.049,0.05-0.073l0.025-0.035l0.12-0.171l0.065-0.082
			l0.026-0.051l0.286-0.412v-0.04c0.146-0.227,0.317-0.496,0.511-0.8c1.24-1.945,4.515-7.082,5.489-8.08
			c2.44-2.201,3.803-3.358,6.424-5.066c0.209-0.122,0.478-0.268,0.783-0.435c3.441-1.877,6.529-3.791,6.518-6.541
			c-0.004-0.994-0.438-2.41-2.488-3.506c-0.676-0.364-1.377-0.55-2.079-0.55c-1.073,0-1.955,0.412-2.696,0.989
			c0.098-0.455,0.138-0.93,0.097-1.424c-0.196-2.174-2.26-3.802-4.802-3.802c-0.819,0-1.598,0.183-2.251,0.53
			c-2.079,1.112-2.846,4.615-3.607,11.114c-0.063,0.527-0.132,1.118-0.17,1.349c-0.193,0.637-0.486,1.147-0.742,1.496
			c-0.339-0.311-0.683-0.658-0.715-0.854c-0.977-5.702-4.273-6.144-5.262-6.144c-0.63,0-1.261,0.15-1.824,0.433
			c-2.012,1.013-2.82,3.675-2.561,5.666c0.271,2.234,2.263,2.807,3.453,3.148c1.529,0.439,2.738,0.786,3.32,3.305
			c0.245,1.05,0.045,1.398-0.839,2.709c-0.258,0.382-0.55,0.814-0.851,1.316c-0.269,0.438-0.873,1.323-1.083,1.627l-0.019,0.026
			l-0.018,0.027L113.341,89c-0.203,0.31-0.433,0.66-0.684,1.088c-1.257,2.141-2.952,4.143-5.04,5.95
			c-1.312,0.71-2.487,1.069-3.497,1.069c-4.145,0-6.963-6.75-8.375-20.062C95.1,70.975,96.421,62.764,97.82,54.07
			c2.683-16.677,5.725-35.58-5.406-43.941C87.228,6.236,79.382,2.209,75.228,2.209L75.228,2.209z"/>
	</g>
</g>
<g id="Layer_1">
</g>
</svg>
