<?xml version="1.0" encoding="iso-8859-1"?>
<!-- Generator: Adobe Illustrator 16.0.0, SVG Export Plug-In . SVG Version: 6.00 Build 0)  -->
<!DOCTYPE svg PUBLIC "-//W3C//DTD SVG 1.1//EN" "http://www.w3.org/Graphics/SVG/1.1/DTD/svg11.dtd">
<svg version="1.1" xmlns="http://www.w3.org/2000/svg" xmlns:xlink="http://www.w3.org/1999/xlink" x="0px" y="0px"
	 width="547.68px" height="554.458px" viewBox="0 0 547.68 554.458" style="enable-background:new 0 0 547.68 554.458;"
	 xml:space="preserve">
<g id="pop_x5F_04">
	<g>
		<path style="fill-rule:evenodd;clip-rule:evenodd;fill:#EA136A;" d="M120.524,375.854c3.32-28.618,3.086-52.072-25.676-64.01
			c-7.958-3.303-18.089-5.32-32.764-7.514c-3.336-0.488-6.744-1.197-10.258-2.139c-34.503-9.29-56.5-41.588-50.98-77.234
			c3.73-24.14,15.861-43.193,38.744-52.78c30.447-12.769,74.7-1.697,95.061,25.892c11.35,15.373,14.459,41.819,6.894,60.251
			c-5.841,14.243-9.493,24.385-10.923,33.352c-3.208,20.217,3.514,53.303,9.953,72.931c5.831,17.757,23.116,17.757,28.946,0
			c5.741-17.488,13.622-50.265,17.39-81.454c4.728-39.126,2.09-47.373-24.717-78.806c-12.935-15.163-18.216-41.266-12.219-59.399
			c10.751-32.564,49.356-56.871,82.257-54.232c24.73,1.984,42.197,16.304,53.266,38.084c16.354,32.154,5.509,69.695-24.387,89.269
			c-3.04,1.995-6.06,3.724-9.077,5.243c-37.052,18.577-40.804,24.883-50.602,65.028c-3.653,14.92-6.18,29.584-8.375,44.513
			c-2.057,13.988-5.127,28.863-3.486,43.006c2.366,20.406,12.37,37.796,35.03,36.056c7.41-0.576,29.882-10.241,46.995-27.666
			c10.796-10.994,15.636-22.41,20.645-36.221c1.298-3.56,2.022-6.317-0.126-10.541c-7.229-14.276-18.6-5.752-20.822-11.582
			c-1.093-2.894-1.044-7.871,1.483-10.021c2.887-2.472,8.768-2.128,13.207,8.091c1.048,2.404,3.575,3.658,5.908,4.898
			c1.651,0.865,2.767,0.92,3.525,0.377c1.646-1.186,3.635-5.275,3.779-9.853c-0.1-3.337-4.123-26.024,0.095-29.794
			c3.069-2.759,9.953-2.56,11.384,1.642c1.411,4.178-1.48,9.276-3.094,12.978c-2.223,4.966-5.77,17.248-3.823,18.566
			c1.84,1.264,1.785,0.287,3.469-1.829c1.696-2.105,8.142-14.753,9.122-16.881c2.233-4.677,4.162-11.449,10.347-9.864
			c12.858,3.303-3.729,16.492-8.059,20.692c-5.89,6.298-8.845,10.409-13.694,17.547c-1.561,2.538-4.581,10.862-7.06,17.945
			c-4.859,13.92-9.592,25.881-18.621,38.449c-13.378,18.599-30.829,28.674-60.357,38.916c-10.53,3.646-5.819,15.007-3.347,23.563
			c3.73,12.857,9.57,27.743,8.252,41.532c-2.111,22.256-19.037,20.272-15.497,43.104c0.201,12.058,1.885,10.673,13.829,11.493
			c3.187-0.21,6.339-0.376,9.486-0.487c3.153-0.1,6.303-0.154,9.5-0.154c2.371,0.287,4.262,0.731,5.304,1.738
			c2.417,2.329,1.418,3.771-0.383,4.567c-1.917,0.864-3.851,0.787-5.797,0.421c-1.934-0.354-3.657-0.576-5.359-0.709
			c-8.208-0.599-17.002,0.442-25.253,0.731c-3.396,0.122-10.568,2.206-13.317-0.433c-2.821-2.704,1.99-5.575,3.248-7.337
			c3.059-4.322,0.393-13.134-2.871-16.615c-2.011-2.15-4.184-3.203-6.523-3.768c-16.587-4.079-53.668-4.079-70.255,0
			c-2.339,0.564-4.506,1.617-6.518,3.768c-3.265,3.481-5.936,12.293-2.871,16.615c1.258,1.762,6.063,4.633,3.242,7.337
			c-2.743,2.639-9.915,0.555-13.312,0.433c-8.257-0.289-17.047-1.33-25.26-0.731c-1.702,0.133-3.42,0.355-5.359,0.709
			c-1.94,0.366-3.875,0.443-5.797-0.421c-1.802-0.797-2.799-2.238-0.383-4.567c1.042-1.007,2.932-1.451,5.304-1.738
			c3.197,0,6.346,0.055,9.504,0.154c3.148,0.111,6.302,0.277,9.488,0.487c11.938-0.82,13.622,0.564,13.821-11.493
			c3.541-22.832-13.384-20.849-15.495-43.104c-2.034-21.248,28.408-60.309-3.93-47.086c-9.244,3.781-17.966,5.985-27.648,6.252
			c-8.507,0.233-6.617-2.594-6.08-10.607c1.031-15.439,4.988-27.688,10.097-41.509c2.599-7.038,5.564-15.396,5.969-18.332
			c0.809-8.591,1.152-13.645,0.61-22.257c-0.671-5.985-5.065-26.723,6.95-21.093c5.779,2.717,2.958,9.166,1.706,14.198
			c-0.598,2.272-3.679,16.117-3.707,18.821c-0.044,2.716-0.709,3.425,1.501,3.635c2.356,0.21,7.421-11.516,8.879-16.77
			c1.108-3.88,2.122-9.655,5.869-11.96c3.779-2.35,9.216,1.884,9.826,5.963c0.854,5.598-16.687,20.539-18.887,23.045
			c-2.804,3.623-3.874,8.046-3.359,10.008c0.25,0.897,1.137,1.563,2.965,1.95c2.583,0.532,5.337,1.165,7.67-0.021
			c9.931-5.065,14.686-1.585,15.34,2.161c0.576,3.27-2.55,7.139-5.232,8.667c-5.42,3.093-8.767-10.717-23.431-4.312
			c-4.351,1.896-5.548,4.489-6.816,8.059c-4.888,13.755-8.407,25.581-7.138,40.811c14.376-3.624,26.712-9.775,33.701-14.598
			C105.062,418.283,118.657,391.958,120.524,375.854z"/>
		<path style="fill-rule:evenodd;clip-rule:evenodd;fill:#FFFFFF;" d="M229.079,104.345c-27.083-2.173-58.855,17.833-67.694,44.624
			c-5.31,16.071-0.017,39.813,12.602,51.54c13.756,12.78,23.919,20.594,41.946,20.118c12.46-0.344,24.506-3.336,36.915-11.472
			c24.607-16.105,33.535-47.006,20.067-73.463C263.81,117.756,249.435,105.974,229.079,104.345z"/>
		<path style="fill-rule:evenodd;clip-rule:evenodd;fill:#FFFFFF;" d="M46.828,184.148c25.06-10.508,61.487-1.396,78.236,21.314
			c10.047,13.611,12.419,37.818,4.078,52.892c-9.083,16.426-16.305,27.022-33.584,32.188c-11.954,3.558-24.329,4.467-38.655,0.599
			c-28.402-7.637-46.502-34.216-41.958-63.555C18.009,207.713,27.996,192.04,46.828,184.148z"/>
		<path style="fill-rule:evenodd;clip-rule:evenodd;fill:#333333;" d="M216.066,149.816c-5.879-0.477-12.769,3.868-14.69,9.687
			c-1.154,3.48,0,8.634,2.732,11.173c2.987,2.782,5.187,4.477,9.106,4.367c2.699-0.078,5.314-0.72,8.001-2.494
			c5.343-3.492,7.283-10.186,4.362-15.939C223.593,152.731,220.478,150.171,216.066,149.816z"/>
		<path style="fill-rule:evenodd;clip-rule:evenodd;fill:#333333;" d="M62.168,225.313c5.442-2.272,13.333-0.299,16.98,4.633
			c2.173,2.949,2.683,8.203,0.876,11.461c-1.962,3.581-3.536,5.875-7.282,6.994c-2.594,0.776-5.276,0.976-8.39,0.132
			c-6.163-1.662-10.086-7.426-9.1-13.799C55.917,230.435,58.089,227.031,62.168,225.313z"/>
	</g>
	<polygon style="fill-rule:evenodd;clip-rule:evenodd;fill:#FFFFFF;" points="547.68,91.098 365.67,91.098 298.228,151.217 
		341.217,91.098 279.186,91.098 279.186,0 547.68,0 	"/>
	<g>
		<path d="M312.316,14.749l16.083,40.139l16.083-40.139h8.413v49.194h-6.487V44.786l0.608-20.678l-16.15,39.835h-4.967
			l-16.116-39.734l0.642,20.577v19.157h-6.487V14.749H312.316z"/>
		<path d="M392.122,51.07h-20.61l-4.629,12.873h-6.689l18.785-49.194h5.677l18.819,49.194h-6.656L392.122,51.07z M373.472,45.765
			h16.725l-8.379-23.009L373.472,45.765z"/>
		<path d="M418.477,14.749l16.083,40.139l16.083-40.139h8.413v49.194h-6.487V44.786l0.608-20.678l-16.15,39.835h-4.967
			l-16.116-39.734l0.642,20.577v19.157h-6.487V14.749H418.477z"/>
		<path d="M498.282,51.07h-20.61l-4.629,12.873h-6.689l18.785-49.194h5.677l18.819,49.194h-6.656L498.282,51.07z M479.632,45.765
			h16.725l-8.379-23.009L479.632,45.765z"/>
		<path d="M520.549,50.034c0.045-2.676,0.349-4.79,0.912-6.342c0.563-1.551,1.711-3.272,3.446-5.162l4.426-4.554
			c1.893-2.135,2.838-4.428,2.838-6.878c0-2.36-0.619-4.208-1.858-5.546c-1.238-1.337-3.04-2.006-5.405-2.006
			c-2.298,0-4.145,0.608-5.541,1.824c-1.397,1.216-2.095,2.85-2.095,4.899h-6.251c0.045-3.649,1.346-6.594,3.902-8.835
			c2.557-2.241,5.884-3.362,9.984-3.362c4.257,0,7.573,1.141,9.95,3.424c2.376,2.283,3.564,5.415,3.564,9.395
			c0,3.936-1.824,7.815-5.474,11.638l-3.683,3.644c-1.645,1.822-2.467,4.442-2.467,7.86H520.549z M520.278,60.768
			c0-1.023,0.31-1.882,0.929-2.575c0.619-0.694,1.537-1.041,2.754-1.041s2.14,0.347,2.771,1.041
			c0.631,0.693,0.946,1.552,0.946,2.575c0,1.023-0.315,1.87-0.946,2.541c-0.631,0.671-1.554,1.006-2.771,1.006
			s-2.135-0.335-2.754-1.006C520.588,62.638,520.278,61.791,520.278,60.768z"/>
	</g>
</g>
<g id="Layer_1">
</g>
</svg>
