<svg xmlns="http://www.w3.org/2000/svg" xmlns:xlink="http://www.w3.org/1999/xlink" width="116" height="116" viewBox="0 0 116 116"><defs><clipPath id="a"><rect width="116" height="116" transform="translate(1384 71)" fill="#1d84d4"/></clipPath></defs><g transform="translate(-1384 -71)" clip-path="url(#a)"><rect width="116" height="116" transform="translate(1384 71)" fill="#1d84d4"/><g transform="translate(1138.242 -45.708) rotate(19)"><path d="M317.139,28.853c-2.709-2.154-5.833-3.07-11.121-3.285a36.76,36.76,0,0,0-6.729.4c-15.651,2.176-17.057,8.108-11.594,20.454a25.379,25.379,0,0,1,2.566,8.567c.646,5.895,5.616,9.488,11.113,10.776,6.473,1.513,8.253,6.165,7.365,11.431-1.724,10.208-6.093,16.865-14.154,22.556-2,1.435-5.094,3.355-6.75,5.3a8.02,8.02,0,0,0-1.024,1.571c-3.44,5.66-5.75,13.621-9.638,18.694a51.033,51.033,0,0,1-6.393,6.675c-1.964,1.551-9.374,6.3-4.2,8.207,2.488.915,3.572-1.8,4.689-3.638.5-.836,3.688-5.794,4.474-6.591s.8-1.208,1.509-.613c.75.632-1.231,5.548-2.356,7.516-.822,1.46-2.23,3.444-1.821,5.224.413,1.8,3.246,2.174,4.631,1.158,1.9-1.381,1.189-10.916,1.29-12.3a5.914,5.914,0,0,1,1.974-3.913c.336-.192.795-.124,1.439.306a4.859,4.859,0,0,1,2.234,2.269c1.408,4.414,3.822,4.8,5.119,3.9,1.134-.787,1.367-2.839,1.034-4.078-.671-2.5-5.73.541-8.117-5.66-1.468-3.814,3.754-10.559,5.6-13.535a6,6,0,0,1,3.033-2.785c7.549-4,6.417-3.626,4.2,3.564-3.717,12.013-4.869,24.7,2.975,34.657,1.559,1.984,2.569,4.456,5.428,6.806,3.1,2.176,2.461,3.838,1.939,7.206-.081,4.821-.752,4.268-5.527,4.6-1.274-.089-2.534-.153-3.793-.2s-2.521-.062-3.8-.062a3.776,3.776,0,0,0-2.118.694c-.968.931-.566,1.507.149,1.829a3.8,3.8,0,0,0,2.319.169,18.528,18.528,0,0,1,2.145-.285,95.99,95.99,0,0,1,10.095.289c1.357.048,4.227.884,5.323-.173,1.127-1.082-.795-2.226-1.3-2.932-1.227-1.726-.157-5.251,1.148-6.638a5.043,5.043,0,0,1,2.608-1.511c8.874-2.18,19.607,1.21,29.219-.946a50.239,50.239,0,0,1,5.23-.942c1.966-.221,3.225-.322,3.983.281.725.58,1,1.8,1,4.175-.262,1.718-.314,3.434-1.259,4.941-.545.861-.95,1.4.252,1.939,1.5.667,2.426.186,3.952-.219,5.406-.458,10.879-.184,16.318-.361,1.156-.237,1.945-.1,2.273-.576,1.487-2.164-2.067-2.678-3.357-2.521q-3.382-.028-6.764-.052H360.7c-2.54-.023-3.7-.111-4.423-.832a4.861,4.861,0,0,1-1.352-3.541c-.023-1.716,2.509-6.06,5.587-10.613,8.276-12.254,4.716-24.914.452-38.279-1.559-4.879-3.555-6.518,2.176-4.295a80.534,80.534,0,0,1,8.5,3.828,5.994,5.994,0,0,1,3.033,2.785c1.846,2.975,7.066,9.721,5.6,13.535-2.385,6.2-7.444,3.157-8.117,5.66-.33,1.239-.1,3.291,1.034,4.078,1.3.9,3.712.512,5.118-3.9a4.865,4.865,0,0,1,2.236-2.269c.642-.429,1.1-.5,1.439-.306a5.905,5.905,0,0,1,1.972,3.913c.1,1.385-.607,10.921,1.29,12.3,1.385,1.016,4.22.64,4.631-1.158.409-1.78-1-3.764-1.819-5.224-1.127-1.968-3.107-6.884-2.358-7.516.706-.595.723-.188,1.511.613s3.977,5.755,4.472,6.591c1.117,1.838,2.2,4.553,4.689,3.638,5.174-1.9-2.234-6.657-4.2-8.207a51.048,51.048,0,0,1-6.395-6.675c-3.888-5.073-6.2-13.035-9.638-18.694a7.838,7.838,0,0,0-1.024-1.571c-1.656-1.943-4.753-3.863-6.75-5.3-11.757-8.3-15.566-10.444-13.107-26.677.52-3.446,2.746-6.207,7.454-7.309,5.5-1.288,10.464-4.881,11.11-10.776a25.375,25.375,0,0,1,2.569-8.567c5.461-12.345,4.055-18.277-11.594-20.454a36.761,36.761,0,0,0-6.729-.4c-5.29.215-8.412,1.131-11.123,3.285-5.193,4.13-8.788,11.559-8.084,18.238a23.069,23.069,0,0,0,7.6,14.862c1.972.9,3.723,5.622,4.821,11.91,1.443,8.276.545,29.648-11.243,30.063-38.845,1.377-27.253-21.688-19.31-43.658C324.879,48.811,328.869,38.182,317.139,28.853Z" transform="translate(0 0)" fill="#f546a0" fill-rule="evenodd"/><path d="M288.124,27.665a30.148,30.148,0,0,1,5.519-.326c4.338.173,6.9.927,9.122,2.692,4.26,3.388,7.208,9.479,6.63,14.959-.778,7.4-6.06,14.553-13.65,15.614-6.172.863-14.263-2.187-15.025-9.139a20.865,20.865,0,0,0-2.106-7.026C274.136,34.316,275.288,29.449,288.124,27.665Z" transform="translate(12.201 1.89)" fill="#fff" fill-rule="evenodd"/><path d="M323.7,27.665a30.147,30.147,0,0,0-5.519-.326c-4.338.173-6.9.927-9.122,2.692-4.262,3.388-7.21,9.479-6.63,14.959.778,7.4,6.058,14.553,13.648,15.614,6.172.863,14.263-2.187,15.027-9.139a20.771,20.771,0,0,1,2.106-7.026C337.688,34.316,336.533,29.449,323.7,27.665Z" transform="translate(40.011 1.89)" fill="#fff" fill-rule="evenodd"/><path d="M295.276,42.129a6.227,6.227,0,0,1-6.938,1.8,4.806,4.806,0,0,1-2.633-3.88c-.023-1.658.064-2.787,1.167-3.942a6,6,0,0,1,2.938-1.741,4.984,4.984,0,0,1,6.006,3.033A4.652,4.652,0,0,1,295.276,42.129Z" transform="translate(22.28 9.205)" fill="#333" fill-rule="evenodd"/><path d="M304.832,42.129a6.227,6.227,0,0,0,6.935,1.8,4.8,4.8,0,0,0,2.635-3.88c.023-1.658-.066-2.787-1.164-3.942a6.007,6.007,0,0,0-2.94-1.741,4.982,4.982,0,0,0-6,3.033A4.642,4.642,0,0,0,304.832,42.129Z" transform="translate(41.645 9.205)" fill="#333" fill-rule="evenodd"/></g></g></svg>