<svg xmlns="http://www.w3.org/2000/svg" xmlns:xlink="http://www.w3.org/1999/xlink" width="116" height="116" viewBox="0 0 116 116"><defs><clipPath id="a"><rect width="116" height="116" transform="translate(1384 71)" fill="#1d84d4"/></clipPath></defs><g transform="translate(-1384 -71)" clip-path="url(#a)"><rect width="116" height="116" transform="translate(1384 71)" fill="#1d84d4"/><g transform="translate(922.608 -107.713)"><path d="M498.4,301.983v11.79h8.581c1.19,0,1.423-.332,1.423.9,0,1.421-.07,1.132-1.476,1.132h-7.826c-3.243,0-3.149.911-2.995-2.032.9-16.841,1.594-34.133,4.531-50.772.317-1.808.081-2.941-2.9-3.1-4.056-.483-20.777,5.049-14.145,8.917a19.444,19.444,0,0,1,5.534,5.624,1.213,1.213,0,0,1-2.039,1.314c0-.021-2.747-4.407-6.011-5.487a1.216,1.216,0,0,1,.118.516s.056,3.346,2.413,4.075a1.209,1.209,0,0,1,.792,1.519,1.221,1.221,0,0,1-1.527.8c-3.243-1.008-3.915-4.527-4.048-5.838-2.33,3.312,1.288,9.625,1.3,9.64a1.213,1.213,0,1,1-2.114,1.189,13,13,0,0,1-1.774-10.346c2.426-9.1,13.49-14.3,21.025-15.268s6.335-9.965,1.773-13.69a16.786,16.786,0,0,1-6.2-13.041c0-39.124,75.559-23.714,82.922,19.35.854,4.993-.516,5.01,4.041,5.372,6.857.55,16.62-.161,21.872-7.327.753-1.035,1.908-.914,2.984-.821,1.99.177,6.262.359,6.63-1.363a1.117,1.117,0,1,1,2.186.464c-.33,1.581-1.761,2.405-3.444,2.824,2.724.218,5.8.145,7.714-.9a1.113,1.113,0,0,1,1.51.456,1.126,1.126,0,0,1-.46,1.517c-3.924,2.131-11.379.96-14.045.436-.225,1.339-.518,3.429-.133,3.344a1.124,1.124,0,0,1,.484,2.2c-1.821.4-2.475-1.014-2.642-2.681-.184-1.883-.4-.744-1.66.25-6.138,4.811-14.532,5.41-20.8,4.985-3.453-.229-2.715,1.605-2.409,4.073.34,2.738.652,5.449.961,8.324,1.365,12.6,2.52,27.035,3.4,43.45.154,2.942.248,2.032-3,2.032H571.13c-1.4,0-1.476.289-1.476-1.132,0-1.232.233-.9,1.423-.9h8.583v-11.79c0-8.2-35.036-3.26-43.244-3.26C528.679,298.723,498.4,293.939,498.4,301.983Z" transform="translate(2)" fill="#ff6f00" fill-rule="evenodd"/><path d="M500.252,210.795a13.634,13.634,0,1,1-13.632,13.634A13.636,13.636,0,0,1,500.252,210.795Z" transform="translate(11.46 3.042)" fill="#fff" fill-rule="evenodd"/><circle cx="2.404" cy="2.404" r="2.404" transform="translate(514.134 224.697)" fill="#333"/></g></g></svg>