<?xml version="1.0" encoding="iso-8859-1"?>
<!-- Generator: Adobe Illustrator 16.0.0, SVG Export Plug-In . SVG Version: 6.00 Build 0)  -->
<!DOCTYPE svg PUBLIC "-//W3C//DTD SVG 1.1//EN" "http://www.w3.org/Graphics/SVG/1.1/DTD/svg11.dtd">
<svg version="1.1" xmlns="http://www.w3.org/2000/svg" xmlns:xlink="http://www.w3.org/1999/xlink" x="0px" y="0px" width="150px"
	 height="150px" viewBox="0 0 150 150" style="enable-background:new 0 0 150 150;" xml:space="preserve">
<g id="_x30_1_x5F_03_x5F_black">
	<rect style="fill:none;" width="150" height="150"/>
	<g>
		<path d="M102.29,149c-1.099,0-1.898-0.256-2.445-0.782c-0.523-0.503-0.634-1.037-0.634-1.396c0-0.974,0.771-1.714,1.335-2.255
			c0.152-0.146,0.343-0.329,0.403-0.414c0.641-0.905-0.708-4.995-1.793-8.281c-0.28-0.85-0.569-1.725-0.852-2.613
			c-1.021-3.208-1.628-3.208-2.838-3.208c-0.394,0-0.834,0.026-1.335,0.055c-0.709,0.041-1.512,0.087-2.475,0.087h-0.17
			c-3.947-0.028-8.327-0.042-12.707-0.042c-4.38,0-8.76,0.014-12.706,0.042h-0.171c-0.962,0-1.766-0.046-2.474-0.087
			c-0.5-0.028-0.941-0.055-1.335-0.055c-1.209,0-1.816,0-2.838,3.209c-0.283,0.891-0.573,1.77-0.854,2.622
			c-1.083,3.282-2.431,7.366-1.79,8.271c0.061,0.086,0.251,0.269,0.403,0.415c0.563,0.54,1.334,1.281,1.334,2.254
			c0,0.359-0.11,0.894-0.635,1.397C57.17,148.743,56.37,149,55.271,149c-0.623,0-1.276-0.08-1.889-0.166
			c-2.615-0.366-5.293-0.56-7.745-0.56c-1.073,0-2.112,0.037-3.088,0.109c-0.622,0.049-1.231,0.13-1.916,0.255
			c-0.421,0.077-0.778,0.113-1.123,0.113c-0.601,0-1.143-0.112-1.655-0.343c-0.898-0.404-1.175-0.995-1.249-1.42
			c-0.113-0.65,0.163-1.304,0.822-1.94c0.647-0.617,1.619-0.809,2.574-0.925l0.06-0.007h0.06c1.218,0,2.417,0.02,3.619,0.061
			c0.463,0.015,0.925,0.043,1.386,0.071c0.651,0.04,1.3,0.08,1.95,0.08c0.476,0,0.9-0.022,1.296-0.067
			c1.309-0.155,2.239-0.688,2.84-1.628c0.975-1.525,1.618-4.938-0.857-12.538c-0.892-2.735-2.363-4.923-3.919-7.239
			c-1.688-2.51-3.421-5.09-4.358-8.406c-1.724,2.337-4.069,4.524-7.459,7.001l-0.326,0.236c-0.175,0.124-0.454,0.316-0.795,0.553
			c-1.25,0.864-4.18,2.889-4.727,3.484c-1.248,1.492-1.958,2.393-2.951,4.048c-0.051,0.097-0.14,0.275-0.243,0.48
			c-1.044,2.093-2.112,3.972-3.689,3.972c-0.528,0-1.291-0.229-1.93-1.325c-0.835-1.433-0.06-2.558,0.736-3.327
			c-0.451,0.242-0.949,0.41-1.488,0.41l-0.126-0.003c-0.726-0.038-1.374-0.454-1.78-1.145c-0.495-0.839-0.564-1.945-0.171-2.751
			c0.58-1.188,2.721-1.729,6.469-2.311c0.423-0.065,0.744-0.112,0.886-0.148c0.498-0.161,0.897-0.452,1.117-0.665
			c-0.305-0.319-0.599-0.614-0.818-0.644c-2.106-0.279-2.989-1.139-3.359-1.811c-0.357-0.648-0.389-1.397-0.086-2.055
			c0.495-1.073,1.843-1.562,2.886-1.562c0.093,0,0.183,0.004,0.269,0.012c1.225,0.103,1.574,1.169,1.806,1.874
			c0.309,0.944,0.577,1.76,2.239,2.082c0.159,0.03,0.299,0.046,0.429,0.046c0.45,0,0.726-0.188,1.363-0.653
			c0.23-0.168,0.479-0.35,0.763-0.535c0.334-0.219,0.965-0.698,0.97-0.701l0.256-0.179c0.165-0.114,0.349-0.242,0.563-0.381
			c4.773-3.058,6.908-8.712,7.757-11.811c1.257-4.594,6.486-6.522,11.543-8.388c6.852-2.527,13.324-4.915,11.304-13.257
			c-0.556-1.67-1.311-1.978-2.683-1.978c-0.601,0-1.292,0.067-2.093,0.146l-0.469,0.045c-2.526,0.242-5.114,0.916-7.691,2.003
			c-3.431,1.449-3.431,1.449-3.651,3.307c-0.058,0.487-0.127,1.069-0.241,1.778c-0.722,4.47-4.526,7.714-9.048,7.714
			c-0.488,0-0.982-0.04-1.467-0.118c-4.991-0.809-8.398-5.527-7.596-10.519c0.722-4.468,4.525-7.71,9.044-7.71
			c0.49,0,0.986,0.039,1.473,0.118c0.425,0.068,0.92,0.104,1.473,0.104c2.631,0,6.184-0.764,9.62-1.502
			c2.62-0.563,5.095-1.095,7.135-1.29c0.511-0.05,0.729-0.982,0.799-1.381c0.528-3.003-1.068-8.078-2.799-8.901
			c-1.717-0.816-3.666-1.23-5.791-1.23c-1.412,0-2.899,0.185-4.421,0.55c-2.698,0.927-5.38,1.411-7.883,1.411
			c-7.559,0-13.299-4.436-14.979-11.576c-1.658-7.044,1.075-16.348,10.916-21.251c2.208-1.1,4.648-1.682,7.054-1.682
			c4.577,0,8.75,1.991,11.75,5.607c2.888,3.478,5.545,8.844,8.114,14.034c3.428,6.923,7.313,14.771,10.666,14.77
			c1.015,0,2.088-0.757,3.19-2.248c1.083-1.464,1.083-1.464,0.716-2.325c-0.17-0.399-0.404-0.946-0.657-1.694
			c-0.634-1.863-0.98-3.864-1.058-6.116c-0.071-2.047,0.135-4.569,0.354-7.239c0.347-4.246,0.705-8.637-0.053-11.179
			c-1.446-4.848,1.32-9.968,6.166-11.414c0.855-0.255,1.738-0.385,2.623-0.385c4.022,0,7.636,2.694,8.788,6.552
			c1.446,4.844-1.319,9.963-6.165,11.411c-0.689,0.206-1.258,0.35-1.733,0.47c-1.813,0.458-1.813,0.458-2.801,4.047
			c-0.742,2.688-1.076,5.342-0.991,7.891c0.028,0.788,0.075,1.62,0.235,2.357c0.367,1.693,1.242,4.535,2.98,4.535
			c0.945,0,2.153-0.748,3.314-2.053c1.762-1.978,3.308-3.254,4.726-3.9c0.791-0.363,1.477-0.532,2.157-0.532
			c1.023,0,1.951,0.405,2.801,0.842c0.467,0.239,0.949,0.517,1.442,0.801c1.215,0.701,2.472,1.425,3.645,1.628
			c3.652,0.631,6.996,0.98,10.19,1.064c0.912-5.377,0.798-10.346-0.347-15.165c-0.417-1.746-0.954-3.524-1.475-5.245
			c-0.379-1.256-0.759-2.512-1.1-3.771c-0.422-1.578-0.737-2.51-2.331-3.356c-1.175-0.624-2.228-0.928-3.217-0.928
			c-1.503,0-2.635,0.733-3.633,1.38c-0.853,0.552-1.657,1.073-2.586,1.073c-0.489,0-0.955-0.147-1.386-0.439
			c-1.301-0.872-2.992-3.118-2.478-5.163c0.408-1.62,1.884-2.667,3.76-2.667c1.394,0,2.987,0.541,4.736,1.606
			c0.31,0.188,0.702,0.276,1.235,0.276c0.462,0,0.974-0.067,1.468-0.132l0.111-0.015c0.498-0.064,0.627-0.174,0.628-0.175
			c0.133-0.426-0.083-2.148-1.103-3.693c-0.125-0.163-0.608-0.696-1.168-1.312c-4.614-5.084-7.191-8.435-6.715-10.519
			c0.431-1.878,2.481-3.526,4.388-3.526c0.671,0,1.303,0.202,1.826,0.584c1.702,1.238,2.132,3.556,2.478,5.418
			c0.051,0.276,0.1,0.541,0.151,0.789c0.394,2.017,1.495,5.083,2.26,6.476c0.001-0.014,0.002-0.029,0.003-0.043
			c0.062-1.019-0.784-7.101-1.02-8.388c-0.054-0.311-0.115-0.621-0.179-0.938c-0.426-2.125-1.069-5.335,2.063-6.524
			c0.679-0.258,1.278-0.383,1.831-0.383c0.898,0,1.65,0.345,2.174,0.997c1.453,1.807,0.794,5.504-0.006,9.137
			c-0.098,0.442-0.183,0.828-0.239,1.128c-0.52,3.695-0.545,5.95-0.477,9.867c0.058,0.929,0.753,3.728,2.065,8.275l0.347,1.193
			c0.801,2.756,1.558,5.358,2.201,8.172c1.425,6.243,1.951,11.372,1.658,16.142c-0.067,1.12-0.102,1.682,0.17,2.696
			c0.27,1.013,0.437,1.84-0.052,2.512c-0.54,0.745-1.411,0.793-3.146,0.889l-0.707,0.04c-0.792,0.049-1.603,0.074-2.409,0.074
			c-2.719,0-5.518-0.274-8.558-0.839c-1.175-0.216-2.362-0.418-3.178-0.458c0.198,0.22,0.487,0.511,0.907,0.888
			c13.44,12.059,16.45,37.258,7.67,64.198c-2.476,7.601-1.832,11.014-0.857,12.538c0.601,0.94,1.531,1.473,2.844,1.628
			c0.393,0.045,0.816,0.067,1.292,0.067c0.649,0,1.298-0.04,1.948-0.08c0.462-0.028,0.925-0.056,1.39-0.071
			c1.2-0.041,2.398-0.061,3.617-0.061h0.061l0.06,0.007c0.954,0.116,1.926,0.307,2.569,0.921c0.664,0.641,0.94,1.294,0.827,1.945
			c-0.074,0.424-0.351,1.015-1.249,1.419c-0.514,0.23-1.055,0.343-1.656,0.343c-0.345,0-0.701-0.036-1.122-0.113
			c-0.684-0.125-1.294-0.206-1.92-0.255c-0.974-0.072-2.013-0.109-3.086-0.109c-2.451,0-5.129,0.193-7.744,0.56
			C103.566,148.92,102.913,149,102.29,149z"/>
		<path style="fill:#FFFFFF;" d="M108.784,6.185c3.619,0.001,1.397,7.671,0.946,10.078c-0.546,3.87-0.563,6.163-0.494,10.069
			c0.082,1.346,1.154,5.242,2.104,8.535c0.91,3.145,1.804,6.119,2.534,9.311c1.359,5.958,1.93,11.058,1.635,15.857
			c-0.072,1.193-0.107,1.861,0.202,3.016c0.574,2.159,0.219,1.99-2.999,2.185c-0.778,0.048-1.561,0.072-2.348,0.072
			c-2.688,0-5.448-0.278-8.376-0.822c-1.467-0.27-2.76-0.481-3.63-0.481c-1.489,0-1.737,0.622,0.509,2.639
			c11.684,10.483,17.018,33.597,7.387,63.144c-1.461,4.486-4.188,14.638,2.819,15.469c0.472,0.054,0.941,0.074,1.41,0.074
			c1.122,0,2.241-0.114,3.371-0.152c1.189-0.04,2.377-0.06,3.584-0.06c0.896,0.108,1.606,0.276,2,0.651
			c0.913,0.882,0.535,1.424-0.143,1.729c-0.413,0.186-0.829,0.255-1.246,0.255c-0.313,0-0.627-0.039-0.941-0.097
			c-0.729-0.134-1.38-0.219-2.023-0.269c-1.029-0.076-2.09-0.112-3.163-0.112c-2.64,0-5.357,0.216-7.883,0.569
			c-0.57,0.08-1.183,0.156-1.75,0.156c-0.713,0-1.354-0.12-1.752-0.503c-1.061-1.018,0.755-2.099,1.228-2.767
			c1.118-1.579-0.814-6.446-2.508-11.774c-1.064-3.346-1.904-3.905-3.791-3.905c-0.95,0-2.166,0.142-3.81,0.142
			c-0.054,0-0.109,0-0.164,0c-3.948-0.028-8.331-0.042-12.713-0.042c-4.383,0-8.765,0.014-12.713,0.042c-0.056,0-0.11,0-0.164,0
			c-1.644,0-2.859-0.142-3.81-0.142c-1.886,0-2.726,0.561-3.791,3.905c-1.692,5.328-3.626,10.195-2.507,11.774
			c0.473,0.668,2.287,1.749,1.226,2.767C56.625,147.88,55.983,148,55.271,148c-0.567,0-1.18-0.076-1.75-0.156
			c-2.526-0.354-5.244-0.569-7.884-0.569c-1.073,0-2.133,0.036-3.163,0.112c-0.643,0.05-1.293,0.135-2.022,0.269
			c-0.315,0.058-0.629,0.097-0.942,0.097c-0.417,0-0.833-0.069-1.245-0.255c-0.677-0.305-1.056-0.847-0.143-1.729
			c0.393-0.375,1.103-0.543,1.999-0.651c1.207,0,2.395,0.02,3.585,0.06c1.128,0.038,2.249,0.152,3.37,0.152
			c0.47,0,0.94-0.021,1.411-0.074c7.009-0.831,4.281-10.982,2.819-15.469c-2.171-6.658-7.672-10.313-8.75-17.901
			c-1.792,3.146-4.473,5.798-8.527,8.759l-0.139,0.104h-0.001c-0.02,0.016-0.054,0.04-0.099,0.073l-0.003,0.003l-0.005,0.004
			l-0.008,0.004c-0.824,0.589-4.959,3.368-5.738,4.218c-1.297,1.55-2.034,2.479-3.072,4.209c-0.521,0.967-1.796,3.967-3.075,3.967
			c-0.361,0-0.722-0.239-1.066-0.829c-0.753-1.291,0.646-2.159,1.556-2.959c0.417-0.358,2.851-2.618,3.217-3.136
			c0.366-0.517,0.588-0.563,0.189-0.898c-0.042-0.034-0.103-0.051-0.181-0.051c-0.723,0-2.872,1.364-3.754,2.101
			c-0.711,0.587-1.646,1.53-2.644,1.53c-0.025,0-0.051-0.001-0.077-0.002c-1.04-0.054-1.526-1.588-1.102-2.459
			c0.58-1.189,5.942-1.734,6.701-1.927c1.023-0.328,1.817-1.037,1.977-1.484c0.073-0.205-0.012-0.453-0.313-0.769
			c-0.425-0.446-0.874-0.937-1.48-1.017c-2.587-0.344-3.041-1.646-2.668-2.456c0.299-0.646,1.264-0.979,1.978-0.979
			c0.063,0,0.123,0.003,0.181,0.008c1.455,0.122,0.267,3.23,3.942,3.941c0.227,0.044,0.431,0.064,0.619,0.064
			c1.058,0,1.595-0.648,2.672-1.351c0.356-0.233,1.027-0.742,1.027-0.742c0.211-0.144,0.453-0.319,0.759-0.518
			c4.544-2.91,7.031-8.199,8.177-12.386c2.688-9.819,26.681-6.342,22.855-22.144c-0.738-2.231-1.916-2.742-3.654-2.742
			c-0.772,0-1.654,0.101-2.658,0.196c-2.655,0.254-5.349,0.965-7.984,2.077c-4.757,2.009-3.818,1.675-4.491,5.847
			c-0.648,4.017-4.119,6.873-8.061,6.873c-0.431,0-0.869-0.035-1.309-0.105c-4.454-0.722-7.483-4.917-6.767-9.372
			c0.648-4.016,4.118-6.87,8.057-6.869c0.433,0,0.872,0.034,1.313,0.105c0.497,0.08,1.044,0.116,1.633,0.116
			c4.755,0,12.181-2.35,16.85-2.797c3.333-0.32,1.619-10.618-1.666-12.18c-1.868-0.888-3.969-1.327-6.22-1.327
			c-1.493,0-3.053,0.193-4.654,0.577c-2.792,0.955-5.346,1.384-7.65,1.384c-16.749,0-20.158-22.691-3.618-30.932
			c2.105-1.049,4.365-1.577,6.608-1.577c4.063,0,8.067,1.734,10.98,5.246c7.084,8.53,12.958,29.165,19.55,29.165
			c1.298,0,2.625-0.801,3.994-2.653c1.855-2.507,1.241-1.871,0.202-4.934c-0.521-1.533-0.922-3.413-1.005-5.83
			c-0.182-5.265,1.564-14.295,0.259-18.669c-1.29-4.323,1.169-8.879,5.493-10.169c0.778-0.232,1.564-0.343,2.337-0.343
			c3.519,0,6.771,2.294,7.83,5.838c1.29,4.322-1.168,8.875-5.493,10.167c-4.047,1.208-3.842,0.232-5.212,5.21
			c-0.763,2.76-1.115,5.522-1.026,8.189c0.031,0.892,0.085,1.741,0.257,2.536c0.854,3.941,2.357,5.323,3.958,5.323
			c1.402,0,2.879-1.059,4.062-2.388c1.606-1.804,3.063-3.049,4.394-3.655c0.658-0.302,1.208-0.442,1.742-0.442
			c0.731,0,1.433,0.263,2.344,0.731c1.663,0.854,3.52,2.204,5.373,2.525c3.753,0.648,7.501,1.052,11.195,1.095
			c1.02-5.43,1.096-10.923-0.208-16.412c-0.723-3.031-1.766-6.029-2.581-9.046c-0.457-1.709-0.888-2.949-2.828-3.979
			c-1.432-0.761-2.643-1.044-3.686-1.044c-3.068,0-4.689,2.453-6.219,2.453c-0.275,0-0.548-0.08-0.825-0.267
			c-1.164-0.78-2.435-2.634-2.068-4.091c0.253-1.004,1.168-1.91,2.79-1.91c1.085,0,2.486,0.406,4.216,1.46
			c0.529,0.322,1.131,0.422,1.756,0.422c0.563,0,1.146-0.082,1.708-0.155c0.835-0.107,1.265-0.375,1.406-0.774
			c0.303-0.87-0.031-2.904-1.176-4.636c-0.909-1.212-8.313-8.56-7.742-11.057c0.322-1.407,1.942-2.749,3.413-2.749
			c0.438,0,0.863,0.12,1.236,0.392c1.611,1.172,1.87,3.819,2.239,5.602c0.473,2.425,2.36,7.88,3.428,7.88c0.002,0,0.004,0,0.005,0
			c1.004-0.017,0.73-0.365,0.808-1.587c0.073-1.22-0.842-7.582-1.034-8.631c-0.395-2.312-1.443-5.322,1.255-6.347
			C107.884,6.284,108.372,6.185,108.784,6.185 M108.785,4.185L108.785,4.185c-0.677,0-1.393,0.147-2.188,0.448
			c-2.852,1.083-3.206,3.498-3.021,5.563c-0.41-0.85-0.977-1.634-1.793-2.228c-0.693-0.506-1.528-0.774-2.413-0.774
			c-2.372,0-4.827,1.97-5.362,4.301c-0.577,2.523,1.997,5.958,6.949,11.415c0.464,0.511,0.942,1.039,1.111,1.249
			c0.548,0.852,0.8,1.727,0.883,2.301c-0.43,0.056-0.834,0.104-1.19,0.104c-0.333,0-0.573-0.044-0.715-0.13
			c-1.908-1.163-3.677-1.752-5.257-1.752c-2.35,0-4.206,1.343-4.729,3.422c-0.091,0.361-0.129,0.724-0.124,1.084
			c-1.755-3.221-5.188-5.339-8.943-5.339c-0.982,0-1.962,0.144-2.91,0.427c-5.374,1.604-8.441,7.282-6.837,12.658
			c0.705,2.362,0.338,6.851,0.015,10.811c-0.221,2.7-0.429,5.25-0.356,7.355c0.082,2.352,0.445,4.446,1.111,6.404
			c0.266,0.783,0.507,1.35,0.684,1.764c0.042,0.1,0.09,0.211,0.13,0.309c-0.188,0.294-0.539,0.77-0.73,1.028
			c-0.509,0.688-1.495,1.843-2.386,1.843c-2.733,0-6.8-8.215-9.77-14.213c-2.595-5.242-5.279-10.662-8.242-14.229
			c-3.192-3.848-7.638-5.967-12.519-5.968c-2.56,0-5.153,0.618-7.5,1.787C22.407,38.944,19.548,49.012,21.239,56.2
			c1.765,7.5,8.027,12.347,15.953,12.347c2.584,0,5.345-0.491,8.204-1.46c1.414-0.333,2.793-0.501,4.1-0.501
			c1.976,0,3.779,0.381,5.362,1.133c0.501,0.239,1.454,1.644,2,4.018c0.513,2.234,0.328,3.859,0.088,4.39
			c-2.045,0.218-4.457,0.735-7.003,1.283c-3.385,0.728-6.885,1.479-9.41,1.479c-0.5,0-0.942-0.03-1.314-0.091
			c-0.539-0.087-1.088-0.131-1.632-0.131c-5.012-0.001-9.231,3.596-10.031,8.551c-0.89,5.536,2.888,10.769,8.422,11.665
			c0.54,0.087,1.087,0.131,1.628,0.131c5.015,0,9.235-3.598,10.035-8.555c0.118-0.734,0.189-1.336,0.247-1.819
			c0.054-0.456,0.115-0.969,0.176-1.146c0.298-0.271,1.663-0.848,2.872-1.357c2.482-1.048,4.971-1.697,7.396-1.929l0.472-0.046
			c0.774-0.076,1.444-0.142,1.996-0.142c0.97,0,1.309,0.06,1.73,1.294c1.667,7.05-2.984,9.157-10.697,12.002
			c-5.295,1.952-10.77,3.972-12.163,9.062c-0.652,2.384-2.672,8.249-7.327,11.229c-0.234,0.152-0.427,0.286-0.6,0.406l-0.204,0.142
			l-0.043,0.029l-0.042,0.031c-0.239,0.181-0.699,0.521-0.916,0.663c-0.296,0.193-0.56,0.385-0.803,0.563
			c-0.524,0.384-0.655,0.461-0.772,0.461c-0.042,0-0.118-0.004-0.235-0.027c-1.089-0.211-1.196-0.538-1.482-1.412
			c-0.235-0.719-0.787-2.401-2.676-2.56c-0.106-0.009-0.225-0.015-0.348-0.015c-1.396,0-3.111,0.662-3.794,2.141
			c-0.438,0.951-0.394,2.029,0.118,2.959c0.349,0.632,1.023,1.39,2.327,1.887c-3.89,0.628-5.898,1.24-6.644,2.769
			c-0.542,1.113-0.46,2.565,0.209,3.699c0.518,0.877,1.324,1.446,2.248,1.598c-0.184,0.719-0.125,1.547,0.409,2.462
			c0.925,1.585,2.147,1.821,2.794,1.821c2.326,0,3.685-2.723,4.584-4.524c0.088-0.177,0.165-0.332,0.23-0.455
			c0.937-1.559,1.591-2.389,2.825-3.865c0.567-0.572,3.55-2.634,4.539-3.316c0.169-0.117,0.323-0.224,0.457-0.316h0.028l0.533-0.396
			l0.139-0.104c2.758-2.015,4.849-3.854,6.487-5.741c1.015,2.621,2.472,4.788,3.896,6.907c1.517,2.257,2.95,4.389,3.799,6.992
			c2.571,7.893,1.532,10.804,0.966,11.688c-0.274,0.429-0.792,1.017-2.119,1.174c-0.351,0.041-0.737,0.061-1.175,0.061
			c-0.609,0-1.231-0.038-1.889-0.078c-0.47-0.028-0.941-0.058-1.414-0.073c-1.214-0.041-2.409-0.061-3.652-0.061H40l-0.12,0.015
			c-1.072,0.13-2.284,0.372-3.14,1.19c-1.144,1.104-1.24,2.153-1.12,2.839c0.094,0.543,0.457,1.545,1.823,2.16
			c0.636,0.286,1.331,0.431,2.066,0.431c0.402,0,0.828-0.042,1.303-0.13c0.649-0.119,1.227-0.195,1.816-0.241
			c0.945-0.07,1.959-0.106,3.008-0.106c2.406,0,5.036,0.19,7.606,0.55c0.648,0.091,1.343,0.176,2.027,0.176
			c1.372,0,2.399-0.349,3.14-1.064c0.774-0.742,0.938-1.56,0.938-2.113c0-1.4-0.988-2.349-1.642-2.977
			c-0.074-0.071-0.168-0.161-0.234-0.229c-0.22-1.066,0.989-4.729,1.877-7.422c0.282-0.856,0.573-1.738,0.858-2.634
			c0.799-2.511,1.051-2.511,1.885-2.511c0.353,0,0.781,0.024,1.278,0.053c0.686,0.04,1.541,0.089,2.532,0.089h0.176
			c3.871-0.027,8.262-0.042,12.701-0.042c4.438,0,8.83,0.015,12.699,0.042h0.178c0.991,0,1.846-0.049,2.531-0.089
			c0.497-0.028,0.926-0.053,1.278-0.053c0.834,0,1.086,0,1.885,2.512c0.283,0.892,0.573,1.771,0.855,2.623
			c0.891,2.699,2.103,6.371,1.88,7.436c-0.059,0.057-0.156,0.15-0.233,0.225c-0.654,0.628-1.643,1.576-1.643,2.977
			c0,0.554,0.163,1.37,0.942,2.118c0.739,0.712,1.767,1.06,3.137,1.06c0.684,0,1.379-0.085,2.028-0.176
			c2.569-0.359,5.199-0.55,7.604-0.55c1.049,0,2.063,0.036,3.015,0.106c0.585,0.046,1.162,0.122,1.811,0.241
			c0.476,0.088,0.901,0.13,1.303,0.13c0.735,0,1.43-0.145,2.065-0.431c1.367-0.614,1.73-1.617,1.825-2.159
			c0.119-0.687,0.023-1.734-1.112-2.832c-0.867-0.826-2.078-1.069-3.149-1.198l-0.12-0.015h-0.12c-1.244,0-2.438,0.02-3.651,0.061
			c-0.474,0.016-0.945,0.045-1.416,0.073c-0.657,0.04-1.278,0.078-1.888,0.078c-0.438,0-0.824-0.02-1.182-0.062
			c-1.32-0.156-1.838-0.744-2.111-1.172c-0.566-0.886-1.605-3.797,0.965-11.69c4.604-14.124,6.117-27.828,4.377-39.632
			c-1.504-10.193-5.287-18.561-10.983-24.336c0.026,0.005,0.052,0.01,0.078,0.015c3.097,0.575,5.956,0.855,8.737,0.855
			c0.825,0,1.657-0.026,2.471-0.076l0.699-0.04c1.855-0.103,3.081-0.17,3.9-1.3c0.806-1.11,0.461-2.408,0.209-3.355
			c-0.23-0.86-0.203-1.306-0.139-2.381c0.299-4.865-0.235-10.084-1.681-16.423c-0.651-2.843-1.411-5.459-2.217-8.229l-0.347-1.193
			c-1.578-5.468-1.977-7.408-2.026-8.063c-0.068-3.903-0.043-6.016,0.469-9.659c0.055-0.286,0.135-0.645,0.225-1.055
			c0.887-4.029,1.54-7.824-0.19-9.978C111.027,4.672,109.979,4.185,108.785,4.185L108.785,4.185z M82.017,44.574
			c0.167-0.083,0.666-0.209,1.11-0.322c0.473-0.12,1.061-0.269,1.774-0.481c4.959-1.482,7.954-6.432,7.126-11.409
			c0.568,0.849,1.278,1.548,1.928,1.983c0.591,0.4,1.246,0.605,1.938,0.605c1.225,0,2.192-0.627,3.13-1.234
			c0.968-0.627,1.882-1.219,3.089-1.219c0.811,0,1.735,0.273,2.747,0.811c1.188,0.63,1.421,1.183,1.835,2.729
			c0.347,1.284,0.733,2.565,1.108,3.805c0.516,1.706,1.049,3.471,1.459,5.188c1.051,4.425,1.207,8.99,0.471,13.902
			c-2.882-0.119-5.899-0.456-9.173-1.021c-0.997-0.173-2.175-0.852-3.314-1.509c-0.486-0.28-0.988-0.57-1.485-0.825
			c-0.96-0.494-2.021-0.952-3.257-0.952c-0.829,0-1.648,0.199-2.576,0.625c-1.543,0.703-3.197,2.059-5.054,4.143
			c-1.128,1.268-2.088,1.718-2.567,1.718c-0.593,0-1.442-1.159-2.003-3.747c-0.144-0.661-0.188-1.439-0.213-2.182
			c-0.082-2.445,0.239-4.999,0.955-7.587C81.393,46.333,81.786,44.905,82.017,44.574L82.017,44.574z"/>
	</g>
</g>
<g id="Layer_1">
</g>
</svg>
