<?xml version="1.0" encoding="iso-8859-1"?>
<!-- Generator: Adobe Illustrator 16.0.0, SVG Export Plug-In . SVG Version: 6.00 Build 0)  -->
<!DOCTYPE svg PUBLIC "-//W3C//DTD SVG 1.1//EN" "http://www.w3.org/Graphics/SVG/1.1/DTD/svg11.dtd">
<svg version="1.1" xmlns="http://www.w3.org/2000/svg" xmlns:xlink="http://www.w3.org/1999/xlink" x="0px" y="0px" width="150px"
	 height="150px" viewBox="0 0 150 150" style="enable-background:new 0 0 150 150;" xml:space="preserve">
<g id="_x30_1_x5F_05_x5F_black">
	<rect style="fill:none;" width="150" height="150"/>
	<g>
		<path d="M98.272,149c-0.919,0-1.594-0.221-2.063-0.675c-0.465-0.449-0.562-0.93-0.561-1.253c0.002-0.854,0.644-1.469,1.112-1.917
			c0.114-0.109,0.224-0.205,0.288-0.292c0.537-0.758,0.007-2.81-0.76-3.628c-0.374-0.398-0.803-0.568-1.432-0.568
			c-0.625,0-1.382,0.17-2.184,0.35c-1.019,0.229-2.172,0.487-3.41,0.487c-2.872-0.013-10.258-0.02-17.737-0.02
			c-8.073,0-16.254,0.008-18.926,0.02c-1.278,0-2.432-0.259-3.451-0.487c-0.802-0.18-1.56-0.35-2.184-0.35
			c-0.63,0-1.058,0.17-1.433,0.569c-0.765,0.817-1.295,2.869-0.757,3.629c0.063,0.085,0.172,0.181,0.287,0.29
			c0.469,0.448,1.11,1.063,1.112,1.917c0,0.323-0.096,0.804-0.562,1.254c-0.467,0.452-1.142,0.674-2.061,0.674
			c-0.499,0-1.019-0.063-1.506-0.132c-2.018-0.286-4.088-0.437-5.987-0.437c-0.844,0-1.661,0.029-2.427,0.088
			c-0.463,0.03-0.926,0.091-1.471,0.192c-0.338,0.062-0.637,0.092-0.917,0.092c-0.499,0-0.95-0.093-1.379-0.283
			c-0.836-0.374-1.053-0.96-1.107-1.275c-0.102-0.587,0.137-1.162,0.708-1.71c0.539-0.516,1.339-0.681,2.125-0.782l0.064-0.009
			h0.065c0.953,0,1.896,0.018,2.836,0.054c0.356,0.012,0.715,0.032,1.075,0.054c0.5,0.03,1,0.061,1.5,0.061
			c0.335,0,0.67-0.014,1.005-0.053c2.269-0.266,2.277-0.44,2.411-3.354l0.039-0.8c0.064-1.192-0.103-1.955-0.51-2.333
			c-4.615-4.284-4.926-8.113-5.356-13.414c-0.066-0.81-0.136-1.674-0.227-2.591c-2.158,2.979-5.115,5.754-9.433,8.906l-0.431,0.321
			h-0.014c-0.181,0.129-0.517,0.36-0.928,0.646c-1.582,1.093-5.286,3.651-5.993,4.424c-1.58,1.886-2.475,3.019-3.729,5.111
			c-0.068,0.128-0.179,0.351-0.306,0.606c-1.223,2.455-2.57,4.852-4.405,4.852c-0.865,0-1.605-0.516-2.2-1.533
			c-1.246-2.136,0.598-3.667,1.7-4.583c0.156-0.13,0.31-0.257,0.453-0.383c0.36-0.311,1.41-1.282,2.332-2.17
			c-0.624,0.394-1.241,0.827-1.69,1.204L9.458,140.1c-0.896,0.767-2.122,1.817-3.564,1.817l-0.144-0.003
			c-0.82-0.041-1.558-0.516-2.024-1.304c-0.583-0.983-0.667-2.274-0.212-3.213c0.681-1.392,3.311-2.044,7.927-2.762
			c0.538-0.084,0.945-0.145,1.126-0.19c0.832-0.266,1.444-0.784,1.684-1.077c-0.021-0.025-0.046-0.054-0.076-0.086
			c-0.457-0.478-0.876-0.917-1.262-0.969c-2.535-0.337-3.585-1.351-4.021-2.141c-0.408-0.741-0.444-1.597-0.099-2.347
			c0.569-1.243,2.157-1.811,3.392-1.811c0.105,0,0.208,0.004,0.307,0.013c1.371,0.116,1.761,1.307,2.045,2.177
			c0.395,1.207,0.769,2.348,2.999,2.78c0.212,0.041,0.401,0.061,0.578,0.061c0.645,0,1.037-0.267,1.863-0.868
			c0.287-0.21,0.597-0.436,0.95-0.665c0.42-0.276,1.227-0.888,1.227-0.888l0.316-0.221c0.205-0.143,0.433-0.302,0.698-0.472
			c3.753-2.403,7.405-7.358,9.53-12.934c0.835-2.188,1.686-4.283,2.528-6.227c0.591-1.364,1.181-2.499,1.655-3.41
			c1.844-3.548,2.037-3.919-2.698-6.74c-2.192-1.309-4.309-1.918-6.662-1.918c-0.313,0-0.633,0.011-0.961,0.033
			c-1.945,0.133-3.949,0.598-5.955,1.38c-2.577,1.004-2.577,1.004-2.769,2.314c-0.056,0.38-0.122,0.834-0.227,1.387
			c-0.659,3.468-3.694,5.985-7.217,5.985c-0.46,0-0.924-0.044-1.379-0.131c-1.93-0.366-3.601-1.462-4.707-3.086
			c-1.106-1.624-1.513-3.58-1.146-5.509c0.654-3.467,3.69-5.984,7.218-5.984c0.459,0,0.923,0.044,1.378,0.13
			c0.818,0.155,1.377,0.225,1.812,0.225c0.727,0,1.136-0.194,2.126-0.661c0.48-0.228,1.059-0.5,1.815-0.814
			c2.86-1.188,5.751-1.891,8.593-2.085c0.29-0.02,0.577-0.029,0.862-0.029c3.753,0,7.048,1.691,9.775,3.346
			c1.126,0.684,1.986,1.314,2.677,1.821c0.774,0.567,1.443,1.057,1.77,1.057c0.54,0,1.794-1.764,2.206-2.344
			c0.652-0.919,1.309-1.783,1.952-2.569l0.046-0.057l7.084-6.457l0.076-0.048c0.432-0.271,0.863-0.518,1.296-0.749
			c0.3-0.159,0.504-0.276,0.643-0.363c-0.07-0.088-0.147-0.183-0.217-0.269c-0.235-0.287-0.521-0.637-0.834-1.079
			c-2.73-3.85-5.112-6.512-7.724-8.632c-4.337-3.527-9.688-5.892-19.085-8.435c-0.532-0.144-0.993-0.269-1.225-0.311
			c-0.018,0.019-0.036,0.038-0.057,0.059c-0.225,0.23-0.563,0.578-1.192,1.024c-1.247,0.886-2.72,1.354-4.259,1.354
			c-1.7,0-3.359-0.596-4.671-1.678c-1.517-1.249-2.456-3.013-2.645-4.969c-0.189-1.956,0.395-3.867,1.645-5.382
			c1.401-1.703,3.472-2.68,5.681-2.68c1.7,0,3.359,0.597,4.672,1.68c0.756,0.624,1.368,1.374,1.821,2.229
			c0.226,0.426,0.386,0.764,0.515,1.037c0.322,0.681,0.322,0.681,1.826,1.094l0.203,0.056c9.968,2.736,16.084,5.518,21.111,9.602
			c3.326,2.703,6.318,6.092,9.7,10.988c0.186,0.27,0.373,0.603,0.567,0.951c0.275,0.496,0.849,1.528,1.165,1.528
			c0.219-0.015,0.433-0.028,0.623-0.043c-0.138-0.3-0.306-0.667-0.488-1.114c-0.996-2.45-2.021-4.541-3.224-6.581
			c-0.593-1.002-1.225-1.989-1.932-3.016c-0.341-0.497-0.633-0.942-0.894-1.341c-1.413-2.156-1.707-2.605-4.281-2.826
			c-1.784-0.152-3.449-0.951-4.69-2.249c-2.797-2.938-2.687-7.602,0.245-10.399c1.375-1.312,3.178-2.034,5.077-2.034
			c2.031,0,3.921,0.809,5.322,2.278c1.576,1.652,2.287,3.895,1.951,6.154c-0.325,2.22-0.043,2.578,1.144,4.085
			c0.357,0.455,0.776,0.987,1.253,1.663c1.038,1.473,1.925,2.838,2.713,4.176c1.829,3.095,3.311,6.313,4.806,10.433
			c0.119,0.327,0.205,0.627,0.282,0.901c0.229,0.808,0.265,0.933,0.817,1.107c0.413,0.129,0.831,0.27,1.246,0.419
			c0.138,0.049,0.253,0.085,0.349,0.111c-0.037-0.233-0.096-0.515-0.145-0.748c-0.112-0.537-0.24-1.146-0.295-1.796
			c-0.369-4.368-0.724-6.544-1.356-8.317c-0.795-2.233-2.31-4.28-5.059-7.996l-0.159-0.215c-0.435-0.589-0.955-1.293-2.213-3.016
			c-4.289-5.886-3.731-10.422-3.283-14.067c0.221-1.809,0.395-3.233-0.581-4.744c-0.312-0.484-0.488-0.717-0.587-0.828
			c-0.081,0.032-0.197,0.079-0.297,0.12c-0.255,0.104-0.563,0.228-0.949,0.351c-0.726,0.231-1.478,0.349-2.233,0.349
			c-3.215,0-6.03-2.059-7.006-5.124c-0.596-1.872-0.427-3.864,0.476-5.61c0.903-1.745,2.431-3.035,4.302-3.63
			c0.726-0.231,1.477-0.348,2.232-0.348c3.214,0,6.028,2.06,7.004,5.125l0.303,0.963c0.615,1.971,0.615,1.971,2.388,4.295
			c2.563,3.367,2.173,6.543,1.76,9.907c-0.332,2.707-0.674,5.507,2.022,9.208c0.289,0.395,2.306,3.12,2.306,3.12
			c3.151,4.258,4.887,6.603,6.043,9.848c1.045,2.929,1.443,6.182,1.907,12.259l8.963-2.146c2.133-1.53,1.675-3.163,0.462-6.618
			c-0.484-1.381-1.034-2.946-1.354-4.673c-1.758-9.542,3.288-13.712,8.631-18.127c1.674-1.383,3.404-2.813,5.029-4.472
			c1.223-1.247,2.188-2.59,3.122-3.889c1.256-1.748,2.441-3.398,4.177-4.805c2.471-2.006,5.582-3.112,8.761-3.112
			c4.219,0,8.159,1.876,10.812,5.148c4.833,5.963,3.919,14.745-2.036,19.577c-2.47,2.007-5.58,3.113-8.759,3.113
			c-4.221,0-8.164-1.879-10.82-5.156c-1.287-1.585-2.089-1.91-2.896-1.91c-1.027,0-2.423,0.556-4.282,1.341
			c-4.604,1.943-6.006,6.033-4.165,12.156c2.291,7.615,6.005,11.979,10.306,17.031c4.702,5.525,10.031,11.786,14.028,23.596
			c1.401,4.136,4.145,9.755,9.258,13.031c0.276,0.173,0.519,0.341,0.733,0.493h0.014l0.342,0.254c0.21,0.156,0.82,0.61,1.172,0.841
			c0.353,0.229,0.661,0.455,0.948,0.665c0.829,0.605,1.224,0.874,1.874,0.874c0.174,0,0.369-0.021,0.58-0.062
			c2.242-0.436,2.617-1.582,3.014-2.796c0.284-0.872,0.675-2.065,2.048-2.185c0.101-0.009,0.203-0.013,0.309-0.013
			c1.236,0,2.829,0.567,3.405,1.814c0.348,0.755,0.311,1.613-0.099,2.356c-0.437,0.792-1.49,1.808-4.032,2.148
			c-0.393,0.052-0.815,0.495-1.225,0.924c-0.054,0.057-0.095,0.104-0.125,0.14c0.241,0.294,0.866,0.821,1.752,1.103
			c0.123,0.029,0.53,0.09,1.069,0.174c4.635,0.721,7.275,1.375,7.958,2.767c0.459,0.95,0.372,2.245-0.213,3.229
			c-0.468,0.787-1.207,1.262-2.027,1.303l-0.146,0.003c-1.438,0-2.615-1.006-3.562-1.814c-0.138-0.118-0.27-0.231-0.396-0.335
			c-0.464-0.389-1.103-0.836-1.744-1.239c0.926,0.894,1.99,1.882,2.365,2.207c0.149,0.132,0.305,0.261,0.464,0.393
			c1.104,0.915,2.952,2.448,1.705,4.589c-0.598,1.022-1.34,1.541-2.207,1.541c-1.841,0-3.192-2.406-4.42-4.87
			c-0.128-0.257-0.238-0.479-0.33-0.65c-1.236-2.06-2.135-3.198-3.751-5.127c-0.679-0.74-4.392-3.303-5.977-4.397
			c-0.402-0.278-0.732-0.506-0.951-0.66h-0.671l-0.001-0.491c-4.315-3.174-7.253-5.973-9.392-8.99
			c-1.568,6.675-5.57,13.021-12.429,19.768c-0.611,0.604-1.255,1.214-1.924,1.835c-0.409,0.379-0.576,1.142-0.512,2.333l0.038,0.801
			c0.135,2.914,0.143,3.089,2.412,3.354c0.335,0.039,0.67,0.053,1.005,0.053c0.499,0,0.998-0.03,1.499-0.061
			c0.359-0.021,0.719-0.042,1.079-0.054c0.937-0.036,1.879-0.054,2.832-0.054h0.064l0.064,0.009
			c0.786,0.102,1.588,0.268,2.125,0.782c0.571,0.548,0.81,1.123,0.708,1.709c-0.055,0.315-0.271,0.901-1.104,1.274
			c-0.433,0.192-0.884,0.285-1.382,0.285c-0.279,0-0.578-0.03-0.914-0.092c-0.548-0.102-1.013-0.163-1.463-0.191
			c-0.778-0.06-1.595-0.089-2.438-0.089c-1.899,0-3.969,0.15-5.984,0.437C99.291,148.937,98.771,149,98.272,149z"/>
		<path style="fill:#FFFFFF;" d="M54.651,28.771c2.692,0,5.191,1.726,6.051,4.429c0.999,3.132,0.723,2.774,2.85,5.562
			c2.315,3.041,1.959,5.944,1.562,9.179c-0.34,2.777-0.722,5.899,2.207,9.918c0.341,0.466,1.384,1.875,2.311,3.126
			c3.12,4.216,4.799,6.484,5.904,9.589c1.044,2.925,1.42,6.251,1.883,12.403c0.051,0.694,0.254,0.646,0.44,0.675l9.906-2.372
			c4.298-2.919,0.712-6.8-0.325-12.402c-2.172-11.789,6.456-14.636,13.392-21.717c2.883-2.94,4.288-6.245,7.214-8.617
			c2.394-1.944,5.271-2.889,8.131-2.889c3.758,0,7.485,1.633,10.035,4.778c4.495,5.546,3.649,13.676-1.89,18.171
			c-2.393,1.944-5.27,2.889-8.129,2.889c-3.761,0-7.49-1.636-10.043-4.786c-1.319-1.625-2.366-2.281-3.674-2.281
			c-1.2,0-2.62,0.554-4.671,1.419c-5.712,2.41-6.48,7.557-4.734,13.366c4.974,16.53,16.88,18.603,24.345,40.659
			c1.643,4.85,4.662,10.347,9.666,13.553c0.387,0.242,0.691,0.468,0.956,0.652l0,0c0.003,0,0.851,0.639,1.297,0.931
			c1.355,0.885,2.032,1.702,3.369,1.702c0.233,0,0.487-0.025,0.769-0.079c4.629-0.899,3.129-4.808,4.96-4.967
			c0.071-0.006,0.146-0.009,0.222-0.009c0.901,0,2.121,0.419,2.498,1.234c0.47,1.022-0.104,2.658-3.356,3.094
			c-0.764,0.101-1.328,0.715-1.865,1.277c-0.377,0.398-0.484,0.71-0.392,0.968c0.202,0.56,1.2,1.455,2.489,1.865
			c0.95,0.24,7.699,0.933,8.433,2.428c0.529,1.098-0.082,3.028-1.392,3.093c-0.032,0.002-0.064,0.002-0.097,0.002
			c-1.254,0-2.429-1.189-3.324-1.923c-1.111-0.933-3.812-2.643-4.723-2.643c-0.1,0-0.178,0.021-0.23,0.064
			c-0.502,0.416-0.222,0.48,0.238,1.129s3.524,3.492,4.046,3.945c1.146,1.007,2.907,2.099,1.961,3.724
			c-0.434,0.743-0.889,1.044-1.343,1.044c-1.61,0-3.214-3.772-3.869-4.993c-1.306-2.179-2.232-3.348-3.865-5.297
			c-0.979-1.068-6.185-4.565-7.222-5.306l-0.009-0.01l-0.007-0.006l-0.005-0.003c-0.055-0.036-0.098-0.068-0.123-0.091h-0.003
			v-0.003l-0.177-0.126c-5.1-3.724-8.474-7.062-10.728-11.02c-0.921,6.46-4.085,13.33-12.615,21.722
			c-0.605,0.598-1.242,1.201-1.903,1.815c-0.703,0.65-0.905,1.715-0.83,3.119c0.188,3.535-0.047,4.699,3.333,5.095
			c0.374,0.044,0.747,0.06,1.121,0.06c0.868,0,1.736-0.087,2.611-0.115c0.929-0.035,1.858-0.053,2.799-0.053
			c0.699,0.091,1.255,0.219,1.562,0.513c0.714,0.685,0.416,1.112-0.113,1.35c-0.323,0.144-0.647,0.197-0.973,0.197
			c-0.243,0-0.487-0.03-0.733-0.075c-0.572-0.106-1.077-0.174-1.579-0.206c-0.814-0.063-1.653-0.091-2.503-0.091
			c-2.053,0-4.165,0.169-6.125,0.446C99.195,147.94,98.716,148,98.272,148c-0.557,0-1.058-0.094-1.367-0.394
			c-0.828-0.801,0.587-1.641,0.959-2.163c0.903-1.273,0.117-3.865-0.845-4.892c-0.624-0.665-1.351-0.885-2.161-0.885
			c-1.583,0-3.489,0.837-5.594,0.837c-0.012,0-0.024,0-0.036,0c-2.832-0.013-10.223-0.02-17.704-0.02
			c-8.074,0-16.255,0.008-18.927,0.02c-0.012,0-0.024,0-0.036,0c-2.104,0-4.011-0.837-5.594-0.837c-0.812,0-1.538,0.22-2.162,0.885
			c-0.96,1.026-1.747,3.618-0.844,4.892c0.372,0.522,1.788,1.362,0.958,2.163c-0.309,0.3-0.81,0.394-1.366,0.394
			c-0.443,0-0.922-0.06-1.367-0.122c-1.961-0.277-4.073-0.446-6.126-0.446c-0.85,0-1.689,0.029-2.503,0.091
			c-0.502,0.032-1.007,0.1-1.578,0.206c-0.246,0.045-0.49,0.075-0.734,0.075c-0.326,0-0.65-0.054-0.973-0.197
			c-0.53-0.237-0.827-0.665-0.113-1.35c0.308-0.294,0.863-0.422,1.562-0.513c0.94,0,1.871,0.018,2.799,0.053
			c0.875,0.028,1.743,0.115,2.612,0.115c0.374,0,0.747-0.016,1.121-0.06c3.38-0.396,3.146-1.56,3.333-5.095
			c0.076-1.404-0.127-2.469-0.829-3.119c-5.678-5.271-4.406-9.748-5.597-18.146c-2.247,3.941-5.607,7.264-10.688,10.973
			l-0.173,0.129h-0.003c-0.026,0.022-0.069,0.053-0.125,0.094l-0.004,0.001l-0.006,0.005l-0.011,0.007
			c-1.033,0.737-6.216,4.222-7.192,5.287c-1.626,1.94-2.548,3.103-3.849,5.272c-0.651,1.214-2.25,4.973-3.853,4.973
			c-0.452,0-0.905-0.299-1.337-1.038c-0.942-1.615,0.811-2.708,1.95-3.71c0.523-0.451,3.573-3.28,4.033-3.925
			c0.459-0.651,0.738-0.713,0.238-1.131c-0.052-0.043-0.129-0.063-0.228-0.063c-0.907,0-3.6,1.709-4.705,2.636
			c-0.89,0.732-2.062,1.915-3.313,1.915c-0.032,0-0.063,0-0.095-0.002c-1.304-0.064-1.914-1.992-1.385-3.081
			c0.729-1.49,7.45-2.179,8.399-2.419c1.282-0.408,2.279-1.298,2.478-1.856c0.092-0.256-0.013-0.565-0.389-0.963
			c-0.536-0.561-1.097-1.172-1.856-1.273c-3.243-0.432-3.811-2.063-3.343-3.077c0.373-0.815,1.586-1.229,2.483-1.229
			c0.077,0,0.151,0.003,0.223,0.009c1.822,0.155,0.333,4.05,4.939,4.942c0.281,0.055,0.535,0.079,0.768,0.079
			c1.33,0,2.005-0.814,3.358-1.695c0.442-0.291,1.285-0.929,1.285-0.929c0.266-0.18,0.568-0.402,0.951-0.647
			c4.096-2.622,7.839-7.946,9.925-13.419c0.836-2.192,1.673-4.253,2.511-6.186c2.873-6.631,5.49-7.272-1.449-11.407
			c-1.999-1.192-4.271-2.059-7.173-2.059c-0.334,0-0.677,0.012-1.029,0.035c-2.067,0.142-4.176,0.637-6.251,1.446
			c-3.74,1.457-3.003,1.219-3.615,4.446c-0.579,3.048-3.243,5.172-6.235,5.172c-0.393,0-0.792-0.037-1.193-0.113
			c-3.447-0.654-5.713-3.98-5.057-7.425c0.575-3.049,3.243-5.173,6.236-5.172c0.393,0,0.792,0.036,1.192,0.112
			c0.865,0.164,1.487,0.242,1.999,0.242c1.382,0,1.959-0.569,4.325-1.552c2.723-1.132,5.521-1.822,8.277-2.011
			c0.267-0.019,0.531-0.027,0.794-0.027c3.374,0,6.399,1.468,9.257,3.201c2.741,1.663,3.88,3.022,4.966,3.022
			c0.817,0,1.604-0.771,3.021-2.765c0.636-0.896,1.272-1.735,1.911-2.516l6.964-6.347c0.412-0.258,0.823-0.494,1.236-0.715
			c2.186-1.159,1.372-1.15-0.065-3.172c-2.626-3.703-5.095-6.545-7.908-8.829c-4.591-3.733-10.322-6.152-19.455-8.624
			c-0.881-0.239-1.324-0.359-1.606-0.359c-0.528,0-0.494,0.421-1.707,1.282c-1.089,0.774-2.381,1.17-3.68,1.17
			c-1.422,0-2.854-0.475-4.036-1.449c-2.709-2.231-3.096-6.237-0.865-8.943c1.256-1.526,3.075-2.316,4.909-2.316
			c1.422,0,2.854,0.476,4.036,1.451c0.666,0.55,1.193,1.207,1.574,1.925c1.154,2.181,0.515,1.955,3.161,2.683
			c9.522,2.614,15.634,5.261,20.746,9.414c3.473,2.822,6.382,6.255,9.508,10.78c0.68,0.985,1.349,2.911,2.554,2.911
			c0.025,0,0.05-0.001,0.075-0.003c2.527-0.164,1.969-0.114,0.986-2.531c-1.02-2.508-2.069-4.645-3.289-6.712
			c-0.605-1.023-1.255-2.038-1.97-3.075c-2.249-3.272-2.317-4.287-5.914-4.596c-1.489-0.127-2.939-0.779-4.052-1.943
			c-2.42-2.542-2.327-6.562,0.212-8.985c1.231-1.174,2.81-1.758,4.386-1.758c1.676,0,3.35,0.66,4.599,1.969
			c1.405,1.473,1.964,3.445,1.685,5.316c-0.496,3.388,0.438,3.452,2.569,6.473c0.979,1.389,1.858,2.731,2.668,4.107
			c1.808,3.06,3.258,6.215,4.728,10.266c0.487,1.342,0.361,2.186,1.738,2.621c0.403,0.126,0.807,0.262,1.208,0.406
			c0.472,0.168,0.824,0.245,1.083,0.245c1.241,0,0.327-1.771,0.162-3.703c-0.347-4.103-0.698-6.57-1.411-8.568
			c-0.85-2.386-2.39-4.46-5.243-8.316c-0.461-0.625-0.956-1.293-2.322-3.164c-4.054-5.563-3.549-9.69-3.098-13.355
			c0.23-1.883,0.44-3.591-0.733-5.408c-0.643-1-0.944-1.321-1.329-1.321c-0.36,0-0.793,0.281-1.648,0.554
			c-0.641,0.205-1.291,0.302-1.93,0.302c-2.693,0-5.194-1.728-6.054-4.427c-1.065-3.344,0.786-6.92,4.128-7.984
			C53.363,28.868,54.012,28.771,54.651,28.771 M54.651,26.771L54.651,26.771c-0.858,0-1.711,0.133-2.536,0.396
			c-2.126,0.677-3.862,2.141-4.887,4.124c-1.026,1.983-1.218,4.247-0.541,6.373c1.109,3.481,4.308,5.82,7.959,5.82
			c0.859,0,1.713-0.133,2.538-0.396c0.22-0.07,0.416-0.14,0.589-0.206c0.031,0.046,0.063,0.097,0.098,0.151
			c0.746,1.155,0.661,2.192,0.431,4.076c-0.245,1.993-0.521,4.239-0.089,6.811c-0.08-0.091-0.163-0.182-0.247-0.27
			c-1.591-1.668-3.738-2.588-6.045-2.588c-2.158,0-4.206,0.821-5.768,2.311c-2.771,2.644-3.323,6.755-1.601,9.982
			c-4.017-2.155-8.888-3.952-15.345-5.725l-0.202-0.055c-0.407-0.112-0.824-0.227-1.066-0.307c-0.038-0.078-0.082-0.169-0.12-0.25
			c-0.134-0.284-0.301-0.635-0.535-1.078c-0.515-0.973-1.211-1.824-2.068-2.532c-1.493-1.231-3.378-1.908-5.31-1.909
			c-2.509,0-4.861,1.11-6.454,3.046c-1.418,1.719-2.082,3.891-1.867,6.113c0.215,2.221,1.282,4.226,3.004,5.645
			c1.491,1.229,3.375,1.905,5.307,1.905c1.748,0,3.421-0.532,4.838-1.54c0.433-0.307,0.748-0.578,0.981-0.797
			c0.191,0.05,0.412,0.11,0.629,0.168c9.272,2.509,14.52,4.821,18.738,8.251c2.539,2.062,4.863,4.662,7.539,8.435
			c0.122,0.171,0.238,0.328,0.349,0.473c-0.328,0.183-0.641,0.368-0.95,0.562l-0.153,0.096l-0.133,0.121l-6.964,6.347l-0.108,0.099
			l-0.093,0.113c-0.657,0.804-1.328,1.687-1.993,2.625c-0.797,1.121-1.235,1.612-1.467,1.828c-0.287-0.172-0.729-0.496-1.102-0.77
			c-0.707-0.519-1.586-1.163-2.75-1.869c-2.846-1.727-6.294-3.491-10.294-3.491c-0.308,0-0.618,0.011-0.931,0.032
			c-2.949,0.201-5.946,0.928-8.908,2.159c-0.782,0.324-1.379,0.606-1.858,0.833c-0.968,0.457-1.215,0.565-1.699,0.565
			c-0.365,0-0.881-0.066-1.626-0.207c-0.516-0.098-1.042-0.147-1.564-0.147c-4.008-0.001-7.458,2.859-8.201,6.801
			c-0.417,2.188,0.045,4.411,1.302,6.256c1.256,1.844,3.155,3.089,5.347,3.505c0.517,0.099,1.043,0.148,1.566,0.148
			c4.003,0,7.452-2.859,8.2-6.799c0.108-0.569,0.177-1.037,0.234-1.428c0.034-0.23,0.074-0.504,0.108-0.673
			c0.358-0.202,1.278-0.561,2.034-0.855c1.912-0.746,3.817-1.188,5.662-1.314c0.3-0.021,0.6-0.03,0.892-0.03
			c2.194,0,4.09,0.548,6.148,1.776c2.796,1.666,3.35,2.408,3.431,2.701c0.106,0.386-0.511,1.572-1.107,2.719
			c-0.481,0.926-1.08,2.078-1.685,3.475c-0.849,1.956-1.705,4.065-2.545,6.268c-2.022,5.304-5.607,10.189-9.135,12.447
			c-0.278,0.179-0.518,0.346-0.732,0.495l-0.261,0.181l-0.044,0.029l-0.042,0.032c-0.22,0.167-0.86,0.645-1.177,0.853
			c-0.361,0.235-0.686,0.471-0.986,0.689c-0.751,0.549-0.959,0.677-1.273,0.677c-0.11,0-0.241-0.015-0.389-0.043
			c-1.651-0.32-1.872-0.993-2.237-2.109c-0.286-0.873-0.88-2.688-2.911-2.862c-0.125-0.011-0.257-0.016-0.393-0.016
			c-1.595,0-3.544,0.741-4.302,2.397c-0.478,1.036-0.43,2.22,0.133,3.242c0.542,0.984,1.798,2.238,4.701,2.641
			c-0.133,0.069-0.281,0.135-0.441,0.19c-0.175,0.034-0.623,0.104-0.989,0.161c-5.063,0.787-7.793,1.516-8.67,3.308
			c-0.608,1.253-0.509,2.886,0.249,4.165c0.641,1.082,1.674,1.735,2.834,1.792c0.065,0.004,0.13,0.005,0.194,0.005
			c0.013,0,0.026,0,0.039,0c-0.402,0.924-0.475,2.03,0.258,3.286c0.98,1.679,2.208,2.03,3.064,2.03c2.607,0,4.164-3.124,5.3-5.406
			c0.112-0.226,0.21-0.424,0.294-0.581c1.2-1.997,2.03-3.05,3.606-4.932c0.7-0.728,4.531-3.375,5.801-4.252
			c0.259-0.179,0.488-0.337,0.676-0.468h0.026l0.335-0.248l0.021-0.014l0.041-0.032l0.138-0.103l0.173-0.129
			c3.427-2.502,6.021-4.782,8.049-7.118c0.002,0.029,0.005,0.059,0.007,0.088c0.432,5.317,0.772,9.518,5.671,14.065
			c0.004,0.004,0.262,0.259,0.193,1.546c-0.015,0.285-0.027,0.554-0.039,0.809c-0.038,0.813-0.084,1.816-0.212,2.109
			c-0.084,0.048-0.404,0.19-1.317,0.298c-0.265,0.03-0.556,0.046-0.888,0.046c-0.46,0-0.936-0.028-1.44-0.059
			c-0.368-0.021-0.736-0.043-1.106-0.056c-0.938-0.035-1.905-0.054-2.864-0.054H31.59l-0.128,0.017
			c-0.954,0.124-1.939,0.337-2.686,1.05c-1.032,0.99-1.115,1.963-1.004,2.605c0.089,0.512,0.425,1.454,1.682,2.016
			c0.556,0.248,1.157,0.372,1.79,0.372c0.341,0,0.7-0.035,1.096-0.108c0.509-0.095,0.935-0.15,1.344-0.177
			c0.766-0.059,1.557-0.087,2.375-0.087c1.854,0,3.875,0.147,5.846,0.427c0.526,0.073,1.087,0.142,1.647,0.142
			c1.192,0,2.094-0.313,2.759-0.958c0.558-0.538,0.865-1.24,0.864-1.973c-0.003-1.279-0.891-2.129-1.421-2.637
			c-0.062-0.059-0.122-0.113-0.171-0.166c-0.156-0.403,0.19-1.822,0.682-2.349c0.137-0.146,0.27-0.251,0.702-0.251
			c0.514,0,1.219,0.158,1.965,0.325c1.069,0.24,2.281,0.512,3.629,0.512c2.544-0.012,10.147-0.02,18.963-0.02
			c8.513,0,15.128,0.008,17.694,0.02c1.395,0,2.606-0.271,3.675-0.512c0.746-0.167,1.451-0.325,1.965-0.325
			c0.432,0,0.563,0.104,0.703,0.254c0.485,0.518,0.828,1.908,0.669,2.357c-0.047,0.049-0.104,0.1-0.16,0.154
			c-0.53,0.508-1.418,1.357-1.421,2.637c-0.002,0.732,0.306,1.434,0.865,1.975c0.664,0.643,1.566,0.956,2.758,0.956
			c0.56,0,1.122-0.068,1.646-0.142c1.974-0.279,3.995-0.427,5.848-0.427c0.818,0,1.609,0.028,2.351,0.085
			c0.434,0.028,0.859,0.084,1.366,0.178c0.4,0.074,0.759,0.109,1.099,0.109c0.632,0,1.232-0.124,1.784-0.369
			c1.263-0.566,1.599-1.509,1.688-2.02c0.111-0.643,0.027-1.615-1.002-2.602c-0.745-0.715-1.732-0.929-2.688-1.053l-0.129-0.017
			h-0.129c-0.958,0-1.925,0.019-2.874,0.054c-0.36,0.013-0.729,0.034-1.097,0.056c-0.504,0.03-0.98,0.059-1.439,0.059
			c-0.332,0-0.623-0.016-0.891-0.046c-0.911-0.107-1.23-0.25-1.314-0.298c-0.129-0.293-0.175-1.297-0.213-2.109
			c-0.012-0.255-0.023-0.523-0.039-0.807c-0.069-1.289,0.188-1.543,0.191-1.546c0.763-0.708,1.381-1.299,1.95-1.86
			c6.319-6.217,10.268-12.122,12.16-18.264c1.984,2.408,4.538,4.734,7.954,7.279v0.985l1.357,0.002
			c0.194,0.135,0.432,0.299,0.7,0.484c1.271,0.878,5.112,3.529,5.813,4.257c1.583,1.892,2.417,2.95,3.622,4.957
			c0.084,0.158,0.183,0.357,0.295,0.583c1.141,2.289,2.702,5.425,5.315,5.425c0.858,0,2.088-0.354,3.069-2.035
			c0.737-1.265,0.661-2.379,0.253-3.306c0.018,0,0.035,0,0.053,0c0.065,0,0.13-0.001,0.195-0.005
			c1.161-0.057,2.195-0.709,2.837-1.79c0.761-1.279,0.861-2.916,0.258-4.169c-0.887-1.807-3.628-2.536-8.709-3.326
			c-0.384-0.06-0.814-0.127-0.991-0.162c-0.169-0.059-0.325-0.128-0.464-0.202c0.001-0.001,0.002-0.001,0.003-0.002
			c2.928-0.402,4.19-1.662,4.735-2.651c0.563-1.024,0.612-2.21,0.133-3.254c-0.768-1.659-2.72-2.399-4.315-2.399
			c-0.135,0-0.266,0.005-0.391,0.016c-2.036,0.178-2.609,1.93-2.917,2.871c-0.367,1.123-0.589,1.802-2.256,2.126
			c-0.144,0.027-0.275,0.042-0.387,0.042c-0.319,0-0.528-0.13-1.284-0.682c-0.3-0.22-0.623-0.455-0.992-0.695
			c-0.209-0.137-0.586-0.407-1.121-0.805c-0.033-0.025-0.075-0.057-0.125-0.091l0.001-0.001l-0.181-0.127
			c-0.246-0.175-0.525-0.371-0.858-0.58c-5.109-3.273-7.729-9.236-8.833-12.499c-4.059-11.99-9.454-18.329-14.214-23.922
			c-4.229-4.967-7.879-9.257-10.11-16.671c-2.515-8.368,2.085-10.309,3.597-10.947c1.694-0.715,3.056-1.262,3.894-1.262
			c0.325,0,0.869,0,2.121,1.542c2.845,3.511,7.072,5.525,11.596,5.525c3.407,0,6.742-1.185,9.39-3.337
			c6.383-5.179,7.362-14.592,2.183-20.982c-2.844-3.507-7.067-5.519-11.589-5.519c-3.407,0-6.742,1.185-9.392,3.336
			c-1.838,1.489-3.119,3.272-4.358,4.997c-0.911,1.269-1.854,2.58-3.022,3.772c-1.59,1.623-3.3,3.035-4.953,4.402
			c-5.33,4.404-10.842,8.958-8.978,19.078c0.334,1.805,0.896,3.409,1.394,4.824c1.185,3.375,1.362,4.353,0.052,5.362l-7.628,1.826
			c-0.435-5.43-0.858-8.513-1.871-11.351c-1.205-3.384-2.972-5.771-6.181-10.106l-0.402-0.543c-0.805-1.088-1.611-2.176-1.902-2.574
			c-2.462-3.379-2.158-5.864-1.836-8.495c0.419-3.413,0.853-6.943-1.956-10.633c-1.668-2.187-1.668-2.187-2.23-3.988
			c-0.088-0.283-0.188-0.603-0.306-0.97C61.5,29.11,58.302,26.771,54.651,26.771L54.651,26.771L54.651,26.771z M70.478,81.896
			c-0.039-0.114-0.086-0.283-0.124-0.416c-0.076-0.268-0.17-0.6-0.305-0.97c-1.517-4.181-3.024-7.45-4.886-10.602
			c-0.8-1.359-1.702-2.748-2.755-4.242c-0.496-0.704-0.934-1.26-1.286-1.707c-1.134-1.441-1.203-1.527-0.939-3.325
			c0.052-0.353,0.083-0.705,0.09-1.055c0.422,0.747,0.917,1.517,1.495,2.31c1.26,1.726,1.781,2.431,2.216,3.021l0.114,0.154
			l0.047,0.063c2.692,3.638,4.175,5.643,4.92,7.736c0.601,1.684,0.941,3.794,1.302,8.065c0.028,0.337,0.075,0.664,0.128,0.972
			C70.489,81.898,70.483,81.897,70.478,81.896L70.478,81.896z M57.652,74.632c-2.202-2.796-4.325-5.013-6.595-6.906
			c0.049,0.005,0.099,0.01,0.148,0.014c2.089,0.179,2.143,0.262,3.529,2.378c0.265,0.404,0.561,0.855,0.906,1.358
			c0.695,1.009,1.315,1.977,1.896,2.96C57.575,74.5,57.613,74.566,57.652,74.632L57.652,74.632z"/>
	</g>
</g>
<g id="Layer_1">
</g>
</svg>
