<?xml version="1.0" encoding="iso-8859-1"?>
<!-- Generator: Adobe Illustrator 16.0.0, SVG Export Plug-In . SVG Version: 6.00 Build 0)  -->
<!DOCTYPE svg PUBLIC "-//W3C//DTD SVG 1.1//EN" "http://www.w3.org/Graphics/SVG/1.1/DTD/svg11.dtd">
<svg version="1.1" xmlns="http://www.w3.org/2000/svg" xmlns:xlink="http://www.w3.org/1999/xlink" x="0px" y="0px" width="150px"
	 height="150px" viewBox="0 0 150 150" style="enable-background:new 0 0 150 150;" xml:space="preserve">
<g id="_x30_1_x5F_01_x5F_black">
	<rect style="fill:none;" width="150" height="150"/>
	<g>
		<path d="M124.027,149c-1.204,0-2.078-0.276-2.672-0.843c-0.567-0.55-0.685-1.121-0.683-1.505c0.003-1.052,0.822-1.837,1.48-2.468
			c0.186-0.177,0.396-0.378,0.472-0.485c0.969-1.366-0.008-4.66-1.147-5.87c-0.397-0.426-2.007-1.41-8.398-1.41
			c-1.11,0-2.324,0.03-3.61,0.09l-4.204,0.197c-8.967,0.425-23.975,1.136-28.417,1.136c-0.315,0-0.578-0.004-0.782-0.012
			c-6.646-0.24-11.826-0.507-17.31-0.789c-3.349-0.172-6.814-0.351-10.803-0.532c-1.286-0.06-2.5-0.09-3.61-0.09
			c-6.392,0-8.001,0.984-8.397,1.407c-1.142,1.213-2.119,4.506-1.147,5.876c0.076,0.105,0.286,0.307,0.471,0.484
			c0.658,0.63,1.477,1.414,1.479,2.466c0.001,0.384-0.116,0.955-0.678,1.5c-0.599,0.571-1.473,0.848-2.677,0.848
			c-0.711,0-1.453-0.093-2.147-0.192c-2.98-0.416-6.035-0.636-8.828-0.636c-1.226,0-2.412,0.042-3.526,0.125
			c-0.688,0.051-1.386,0.143-2.196,0.289c-0.457,0.085-0.869,0.128-1.254,0.128c-0.659,0-1.255-0.122-1.821-0.371
			c-0.972-0.433-1.271-1.063-1.35-1.515c-0.123-0.696,0.179-1.401,0.896-2.093c0.703-0.67,1.786-0.882,2.853-1.011l0.06-0.007h0.06
			c1.381,0,2.743,0.021,4.112,0.065c0.524,0.018,1.044,0.049,1.563,0.081c0.765,0.046,1.488,0.091,2.216,0.091
			c0.555,0,1.05-0.026,1.512-0.081c3.692-0.434,3.722-1.084,3.917-5.313l0.057-1.171c0.102-1.905-0.181-3.1-0.89-3.759
			c-0.971-0.899-1.903-1.79-2.796-2.663c-12.407-12.204-10.4-50.814,3.462-66.636c0.241-0.276,0.426-0.503,0.567-0.689
			c-0.811,0.167-1.888,0.502-2.549,0.708c-3.428,1.075-6.631,1.687-9.79,1.87l-0.652,0.041c-0.544,0.035-0.978,0.063-1.32,0.063
			c-0.584,0-1.241-0.07-1.689-0.586c-0.504-0.581-0.443-1.346-0.311-2.286c0.127-0.899,0.054-1.361-0.139-2.41
			c-0.782-4.255-0.864-8.926-0.258-14.697c0.272-2.565,0.664-4.951,1.079-7.477l0.198-1.211c0.687-4.212,1.009-6.792,0.957-7.67
			c-0.37-3.58-0.625-5.51-1.495-8.789c-0.07-0.216-0.187-0.548-0.32-0.93c-1.151-3.285-2.17-6.641-0.905-8.424
			c0.346-0.487,1.018-1.068,2.256-1.068c0.39,0,0.824,0.059,1.289,0.175c3.026,0.748,2.79,3.752,2.633,5.739
			c-0.023,0.289-0.045,0.572-0.059,0.844c-0.067,1.046-0.158,5.759-0.048,7.28c0.501-1.43,1.062-3.984,1.182-5.653
			c0.021-0.241,0.036-0.483,0.052-0.735c0.112-1.728,0.251-3.877,1.673-5.196c0.54-0.502,1.24-0.768,2.024-0.768
			c1.665,0,3.47,1.245,4.023,2.775c0.668,1.864-1.297,5.178-4.918,10.273c-0.429,0.603-0.798,1.124-0.916,1.325
			c-0.708,1.431-0.686,2.841-0.547,3.28c0.066,0.021,0.211,0.055,0.483,0.057l0.475,0.002c0.905,0,1.552-0.067,1.979-0.404
			c1.692-1.332,3.266-2.007,4.677-2.007c1.488,0,2.719,0.798,3.212,2.083c0.705,1.837-0.567,4.037-1.697,5.013
			c-0.445,0.384-0.958,0.579-1.526,0.579c-0.756,0-1.461-0.345-2.207-0.71c-0.87-0.426-1.77-0.866-2.866-0.866
			c-1.023,0-2.082,0.391-3.237,1.196c-1.31,0.906-1.487,1.761-1.688,3.194c-0.167,1.138-0.366,2.269-0.564,3.401
			c-0.286,1.633-0.582,3.322-0.768,4.969c-0.507,4.415-0.083,8.85,1.296,13.533c2.826-0.421,5.758-1.091,8.934-2.04
			c1.007-0.3,2.041-1.072,3.041-1.819c0.424-0.316,0.838-0.625,1.244-0.896c0.974-0.662,1.847-1.105,2.923-1.105
			c0.481,0,0.997,0.09,1.574,0.275c0.659,0.212,1.34,0.542,2.083,1.01c0.463,0.291,0.789,0.529,1.031,0.709
			c0.018-0.017,0.036-0.035,0.055-0.053c0.214-0.205,0.494-0.472,0.88-0.809c6.171-5.369,13.848-8.326,21.615-8.326
			c8.612,0,16.711,3.454,23.421,9.987c1.65,1.607,3.214,3.405,4.648,5.344c2.663,3.601,5.823,5.504,9.138,5.504
			c0.496,0,0.999-0.043,1.497-0.128c0.05-0.053,0.099-0.107,0.147-0.161c1.948-2.19,3.66-3.604,5.231-4.323
			c0.87-0.399,1.621-0.585,2.362-0.585c1.053,0,1.99,0.371,3.072,0.929c0.511,0.264,1.038,0.567,1.576,0.878
			c1.375,0.792,2.796,1.612,4.137,1.845c4.128,0.712,7.897,1.103,11.489,1.189c1.04-6.056,0.916-11.648-0.374-17.07
			c-0.468-1.958-1.069-3.951-1.651-5.879c-0.42-1.395-0.841-2.79-1.219-4.188c-0.483-1.792-0.845-2.853-2.663-3.821
			c-1.328-0.705-2.521-1.047-3.645-1.047c-1.713,0-2.99,0.828-4.118,1.559c-0.936,0.606-1.819,1.179-2.821,1.179
			c-0.521,0-1.021-0.158-1.481-0.47c-1.426-0.958-3.277-3.416-2.716-5.64c0.441-1.752,2.043-2.885,4.081-2.885
			c1.533,0,3.292,0.597,5.226,1.776c0.365,0.221,0.826,0.325,1.447,0.325c0.528,0,1.107-0.076,1.668-0.15
			c0.72-0.095,0.869-0.244,0.87-0.246c0.187-0.553-0.043-2.49-1.217-4.268c-0.145-0.188-0.679-0.776-1.298-1.458
			c-5.007-5.514-8.005-9.387-7.484-11.657c0.474-2.049,2.71-3.846,4.786-3.846c0.725,0,1.405,0.218,1.969,0.629
			c1.865,1.358,2.341,3.929,2.722,5.995c0.057,0.303,0.11,0.595,0.166,0.868c0.481,2.464,1.878,6.251,2.738,7.606
			c0.003-0.136,0.008-0.283,0.019-0.443c0.072-1.155-0.887-8.048-1.141-9.382c-0.061-0.353-0.13-0.7-0.2-1.054
			c-0.467-2.334-1.173-5.861,2.228-7.158c0.746-0.283,1.401-0.42,2.004-0.42c0.967,0,1.774,0.37,2.337,1.07
			c1.592,1.98,0.858,6.082-0.03,10.113c-0.108,0.491-0.202,0.917-0.266,1.251c-0.587,4.167-0.614,6.68-0.534,11.038
			c0.046,0.725,0.486,2.963,2.311,9.266l0.371,1.28c0.899,3.092,1.749,6.013,2.468,9.162c1.587,6.948,2.176,12.665,1.853,17.991
			c-0.086,1.339-0.108,1.926,0.191,3.044c0.292,1.1,0.475,1.995-0.039,2.704c-0.568,0.786-1.519,0.84-3.41,0.948l-0.802,0.047
			c-0.876,0.053-1.77,0.08-2.658,0.08c-3.037,0-6.163-0.304-9.555-0.931c-0.835-0.154-1.547-0.232-2.114-0.232
			c-0.896,0-1.221,0.192-1.267,0.294c-0.645,1.415,4.625,7.472,8.112,11.479c3.475,3.993,7.068,8.122,8.814,11.348
			c3.135,5.781,3.814,11.896,2.021,18.175c-0.83,2.906-1.614,5.529-2.347,7.977c-0.287,0.954-0.712,2.125-1.203,3.481
			c-1.827,5.035-4.587,12.646-2.475,16.068c0.629,1.02,1.683,1.603,3.222,1.783c0.463,0.055,0.957,0.081,1.513,0.081
			c0.729,0,1.45-0.045,2.216-0.091c0.519-0.032,1.039-0.063,1.561-0.081c1.372-0.044,2.733-0.065,4.115-0.065h0.061l0.06,0.007
			c1.066,0.129,2.148,0.34,2.848,1.007c0.722,0.695,1.024,1.399,0.901,2.096c-0.079,0.453-0.377,1.083-1.347,1.515
			c-0.569,0.251-1.165,0.372-1.824,0.372l0,0c-0.385,0-0.797-0.043-1.261-0.13c-0.804-0.145-1.502-0.236-2.188-0.287
			c-1.115-0.083-2.301-0.125-3.526-0.125c-2.794,0-5.849,0.22-8.834,0.636C125.479,148.907,124.738,149,124.027,149z"/>
		<path style="fill:#FFFFFF;" d="M126.876,7.436c4.041,0.001,1.564,8.563,1.059,11.249c-0.61,4.322-0.632,6.88-0.552,11.241
			c0.094,1.5,1.287,5.854,2.35,9.525c1.018,3.514,2.014,6.832,2.825,10.387c1.521,6.657,2.154,12.35,1.829,17.708
			c-0.085,1.33-0.122,2.074,0.224,3.364c0.641,2.41,0.243,2.218-3.348,2.442c-0.86,0.052-1.724,0.078-2.595,0.078
			c-3.009,0-6.099-0.31-9.374-0.914c-0.914-0.168-1.675-0.249-2.296-0.249c-8.776,0,10.107,15.966,14.781,24.598
			c3.176,5.857,3.544,11.804,1.938,17.424c-0.828,2.901-1.611,5.521-2.343,7.964c-1.75,5.825-9.344,21.471,0.386,22.613
			c0.544,0.064,1.087,0.088,1.629,0.088c1.269,0,2.533-0.13,3.811-0.173c1.359-0.043,2.71-0.064,4.081-0.064
			c1.019,0.123,1.83,0.311,2.277,0.737c1.043,1.004,0.611,1.629-0.161,1.973c-0.471,0.207-0.943,0.286-1.418,0.286
			c-0.357,0-0.716-0.045-1.076-0.112c-0.827-0.149-1.567-0.248-2.3-0.302c-1.171-0.087-2.378-0.128-3.6-0.128
			c-3.006,0-6.102,0.246-8.972,0.646c-0.654,0.094-1.355,0.183-2.005,0.183c-0.806,0-1.531-0.137-1.981-0.566
			c-1.208-1.17,0.854-2.397,1.394-3.153c1.319-1.861,0.171-5.645-1.233-7.137c-1.191-1.275-4.771-1.725-9.127-1.725
			c-1.173,0-2.402,0.033-3.656,0.091c-6.392,0.293-27.283,1.332-32.575,1.332c-0.301,0-0.552-0.004-0.746-0.011
			c-10.693-0.387-17.58-0.841-28.104-1.321c-1.254-0.058-2.482-0.091-3.655-0.091c-4.355,0-7.936,0.45-9.127,1.725
			c-1.405,1.492-2.552,5.275-1.232,7.137c0.538,0.756,2.6,1.983,1.392,3.153c-0.45,0.43-1.175,0.566-1.981,0.566
			c-0.649,0-1.351-0.089-2.005-0.183c-2.87-0.4-5.965-0.646-8.971-0.646c-1.222,0-2.429,0.041-3.6,0.128
			c-0.733,0.054-1.473,0.152-2.299,0.302c-0.36,0.067-0.719,0.112-1.076,0.112c-0.475,0-0.947-0.079-1.417-0.286
			c-0.773-0.344-1.204-0.969-0.163-1.973c0.447-0.427,1.26-0.614,2.278-0.737c1.371,0,2.722,0.021,4.081,0.064
			c1.277,0.043,2.542,0.173,3.812,0.173c0.542,0,1.084-0.023,1.628-0.088c4.927-0.579,4.582-2.274,4.856-7.425
			c0.11-2.048-0.186-3.594-1.208-4.544c-0.966-0.895-1.891-1.778-2.778-2.646c-12.23-12.03-9.603-50.29,3.515-65.262
			c1.6-1.828,1.547-2.449,0.574-2.449c-0.759,0-2.076,0.377-3.605,0.854c-3.32,1.041-6.441,1.646-9.55,1.826
			c-0.84,0.05-1.462,0.102-1.915,0.102c-1.115,0-1.21-0.313-1.01-1.733c0.151-1.071,0.049-1.67-0.146-2.73
			c-0.786-4.278-0.824-8.915-0.247-14.412c0.313-2.946,0.795-5.715,1.269-8.631c0.499-3.059,1.041-6.672,0.968-7.89
			c-0.362-3.514-0.62-5.573-1.527-8.987c-0.688-2.175-3.665-9.166,0.064-9.165c0.303,0,0.651,0.046,1.047,0.145
			c2.541,0.628,1.924,3.444,1.817,5.563c-0.062,0.96-0.195,6.77,0.005,7.86c0.178,0.971,0.031,1.349,0.644,1.349
			c0.073,0,0.157-0.005,0.253-0.016c0.962-0.102,2.067-5.213,2.228-7.445c0.14-1.64,0.09-4.048,1.408-5.269
			c0.377-0.351,0.848-0.501,1.344-0.501c1.256,0,2.668,0.97,3.083,2.115c0.781,2.179-5.07,9.573-5.758,10.755
			c-0.835,1.684-0.917,3.547-0.553,4.293c0.171,0.343,0.584,0.541,1.347,0.546c0.159,0.001,0.32,0.002,0.481,0.002
			c0.935,0,1.883-0.056,2.598-0.619c1.66-1.307,3.02-1.792,4.058-1.792c1.206,0,1.977,0.656,2.279,1.441
			c0.486,1.267-0.458,3.069-1.417,3.898c-0.278,0.24-0.566,0.336-0.872,0.336c-1.239,0-2.771-1.577-5.073-1.577
			c-1.083,0-2.336,0.349-3.809,1.375c-1.635,1.131-1.885,2.292-2.107,3.875c-0.412,2.795-1.018,5.595-1.335,8.396
			c-0.582,5.067,0.078,9.992,1.583,14.755c3.312-0.439,6.628-1.206,9.927-2.191c1.632-0.486,3.15-1.903,4.554-2.842
			c0.898-0.611,1.57-0.937,2.368-0.937c0.381,0,0.791,0.074,1.268,0.228c0.582,0.187,1.197,0.489,1.856,0.904
			c1.05,0.658,1.343,1.033,1.612,1.033c0.276,0,0.528-0.393,1.543-1.277c6.07-5.282,13.455-8.081,20.958-8.081
			c7.91,0,15.952,3.111,22.724,9.704c1.592,1.551,3.11,3.288,4.542,5.222c3.092,4.181,6.601,5.91,9.941,5.91
			c0.684,0,1.36-0.072,2.024-0.211v-0.021c0.124-0.127,0.246-0.258,0.365-0.391c1.79-2.012,3.416-3.4,4.902-4.08
			c0.736-0.338,1.351-0.495,1.946-0.495c0.814,0,1.597,0.293,2.614,0.818c1.854,0.958,3.929,2.459,5.999,2.819
			c4.187,0.722,8.37,1.174,12.495,1.219c1.138-6.056,1.223-12.192-0.235-18.316c-0.809-3.383-1.967-6.729-2.878-10.096
			c-0.513-1.905-0.99-3.289-3.158-4.442c-1.599-0.848-2.95-1.164-4.114-1.164c-3.426,0-5.232,2.738-6.939,2.738
			c-0.307,0-0.611-0.089-0.921-0.298c-1.299-0.873-2.718-2.939-2.307-4.567c0.281-1.118,1.302-2.131,3.111-2.13
			c1.21,0,2.773,0.453,4.705,1.63c0.594,0.359,1.269,0.471,1.968,0.471c0.627,0,1.272-0.089,1.896-0.171
			c0.936-0.123,1.415-0.425,1.571-0.867c0.335-0.97-0.033-3.24-1.313-5.177c-1.016-1.348-9.28-9.554-8.642-12.34
			c0.362-1.57,2.171-3.069,3.812-3.069c0.489,0,0.963,0.133,1.38,0.437c1.795,1.307,2.088,4.264,2.497,6.255
			c0.528,2.706,2.633,8.795,3.827,8.795c0.002,0,0.004,0,0.005,0c1.121-0.015,0.813-0.406,0.902-1.768
			c0.085-1.364-0.935-8.469-1.156-9.634c-0.44-2.582-1.608-5.942,1.401-7.09C125.871,7.547,126.415,7.436,126.876,7.436
			 M126.875,5.436c-0.726,0-1.496,0.158-2.355,0.484c-4.194,1.6-3.323,5.952-2.856,8.29c0.069,0.344,0.137,0.682,0.192,1.007
			c0.013,0.068,0.027,0.149,0.043,0.24c-0.394-2.009-1.039-4.437-2.969-5.842c-0.735-0.536-1.62-0.82-2.558-0.82
			c-2.544,0-5.182,2.115-5.76,4.619c-0.625,2.723,2.23,6.513,7.718,12.556c0.518,0.57,1.052,1.158,1.241,1.396
			c0.709,1.098,0.99,2.244,1.051,2.907l-0.038,0.005c-0.553,0.073-1.074,0.141-1.537,0.141c-0.425,0-0.73-0.06-0.933-0.182
			c-2.087-1.272-4.021-1.918-5.74-1.918c-2.512,0-4.494,1.429-5.051,3.642c-0.687,2.718,1.417,5.563,3.13,6.715
			c0.625,0.423,1.312,0.639,2.037,0.639c1.298,0,2.349-0.681,3.365-1.34c1.109-0.719,2.157-1.398,3.574-1.398
			c0.943,0,2.013,0.313,3.177,0.931c1.397,0.744,1.688,1.428,2.164,3.196c0.385,1.419,0.813,2.842,1.229,4.218
			c0.577,1.914,1.175,3.893,1.636,5.823c1.197,5.03,1.363,10.218,0.501,15.81c-3.281-0.123-6.727-0.501-10.476-1.148
			c-1.163-0.203-2.506-0.977-3.805-1.726c-0.53-0.306-1.078-0.622-1.616-0.899c-1.051-0.541-2.204-1.041-3.532-1.041
			c-0.891,0-1.774,0.215-2.781,0.678c-1.669,0.763-3.458,2.221-5.462,4.456c-0.333,0.043-0.665,0.064-0.995,0.064
			c-2.985,0-5.866-1.763-8.333-5.099c-1.468-1.982-3.067-3.821-4.755-5.465c-6.901-6.72-15.241-10.271-24.119-10.271
			c-8.009,0-15.918,3.044-22.271,8.572c-0.134,0.117-0.256,0.226-0.367,0.327c-0.125-0.084-0.263-0.174-0.413-0.269
			c-0.811-0.51-1.567-0.875-2.307-1.113c-0.678-0.218-1.292-0.323-1.879-0.323c-1.411,0-2.512,0.616-3.492,1.282
			c-0.422,0.282-0.855,0.605-1.273,0.918c-0.93,0.694-1.891,1.413-2.727,1.661c-2.807,0.838-5.417,1.455-7.929,1.873
			c-1.15-4.243-1.485-8.279-1.024-12.292c0.184-1.62,0.477-3.293,0.76-4.911c0.195-1.118,0.398-2.273,0.567-3.422
			c0.205-1.457,0.355-1.892,1.266-2.522c0.987-0.688,1.859-1.021,2.671-1.021c0.864,0,1.623,0.372,2.426,0.765
			c0.815,0.399,1.659,0.812,2.646,0.812c0.803,0,1.557-0.284,2.179-0.822c1.577-1.362,2.805-3.973,1.977-6.128
			c-0.646-1.681-2.234-2.725-4.146-2.725c-1.642,0-3.423,0.747-5.295,2.221c-0.242,0.19-1.026,0.19-1.361,0.19h-0.024
			c0.037-0.496,0.175-1.188,0.507-1.884c0.132-0.208,0.505-0.733,0.837-1.201c3.904-5.494,5.864-8.903,5.045-11.188
			c-0.699-1.931-2.879-3.439-4.966-3.44c-1.041,0-1.977,0.358-2.707,1.037c-0.484,0.449-0.844,0.968-1.114,1.524
			c-0.214-1.696-0.999-3.45-3.398-4.043c-0.541-0.135-1.055-0.204-1.527-0.204h-0.001c-1.3,0-2.39,0.529-3.071,1.489
			c-1.542,2.174-0.512,5.656,0.777,9.334c0.123,0.35,0.23,0.656,0.31,0.902c0.838,3.167,1.09,5.062,1.453,8.581
			c0.02,0.497-0.084,2.12-0.948,7.413l-0.198,1.21c-0.417,2.541-0.811,4.94-1.086,7.532c-0.616,5.872-0.53,10.633,0.269,14.985
			c0.188,1.021,0.237,1.348,0.132,2.089c-0.125,0.892-0.297,2.112,0.546,3.083c0.808,0.93,1.997,0.93,2.444,0.93
			c0.39,0,0.829-0.028,1.385-0.064l0.648-0.041c3.079-0.179,6.196-0.753,9.511-1.754c-5.703,7.626-9.515,19.791-10.307,33.142
			c-0.873,14.712,2.245,27.075,8.342,33.072c0.949,0.928,1.896,1.831,2.821,2.688c0.459,0.427,0.652,1.427,0.569,2.969
			c-0.022,0.416-0.041,0.809-0.058,1.18c-0.186,4.031-0.186,4.031-3.035,4.366c-0.423,0.05-0.879,0.074-1.395,0.074
			c-0.698,0-1.406-0.044-2.155-0.09c-0.528-0.032-1.058-0.063-1.589-0.082c-1.397-0.044-2.752-0.065-4.148-0.065h-0.12l-0.12,0.015
			c-1.238,0.149-2.509,0.407-3.419,1.275c-1.218,1.175-1.321,2.275-1.194,2.994c0.1,0.565,0.482,1.611,1.926,2.253
			c0.692,0.306,1.44,0.459,2.23,0.459c0.448,0,0.92-0.048,1.445-0.146c0.761-0.138,1.425-0.226,2.077-0.272
			c1.092-0.082,2.253-0.123,3.454-0.123c2.748,0,5.755,0.217,8.695,0.626c0.723,0.104,1.506,0.202,2.281,0.202
			c1.474,0,2.574-0.366,3.363-1.12c0.825-0.799,0.994-1.652,0.992-2.229c-0.004-1.478-1.077-2.506-1.788-3.187
			c-0.13-0.124-0.309-0.295-0.362-0.361c-0.565-0.797,0.057-3.511,1.072-4.588c0.047-0.05,1.114-1.096,7.671-1.096
			c1.094,0,2.293,0.03,3.563,0.089c3.987,0.182,7.452,0.36,10.798,0.532c5.488,0.282,10.672,0.549,17.325,0.79
			c0.213,0.008,0.488,0.012,0.818,0.012c4.468,0,19.49-0.712,28.466-1.137c1.704-0.081,3.149-0.149,4.201-0.197
			c1.271-0.059,2.47-0.089,3.564-0.089c6.558,0,7.623,1.046,7.665,1.09c1.02,1.083,1.643,3.798,1.063,4.615
			c-0.036,0.043-0.215,0.214-0.346,0.339c-0.711,0.681-1.785,1.709-1.789,3.187c-0.002,0.578,0.167,1.432,0.981,2.221
			c0.8,0.764,1.899,1.13,3.373,1.13c0.774,0,1.558-0.098,2.29-0.203c2.931-0.408,5.938-0.625,8.687-0.625
			c1.201,0,2.362,0.041,3.451,0.122c0.653,0.048,1.317,0.136,2.093,0.275c0.512,0.097,0.984,0.145,1.432,0.145
			c0.789,0,1.537-0.153,2.224-0.456c1.451-0.646,1.833-1.691,1.933-2.258c0.126-0.718,0.021-1.819-1.19-2.986
			c-0.916-0.874-2.187-1.132-3.424-1.281l-0.12-0.015h-0.12c-1.396,0-2.751,0.021-4.145,0.065c-0.535,0.019-1.064,0.05-1.593,0.082
			c-0.749,0.046-1.456,0.09-2.154,0.09c-0.516,0-0.973-0.024-1.396-0.074c-1.62-0.19-2.196-0.842-2.488-1.315
			c-1.858-3.011,0.91-10.643,2.563-15.202c0.497-1.37,0.927-2.554,1.221-3.534c0.704-2.351,1.502-5.014,2.351-7.99
			c1.868-6.539,1.16-12.906-2.104-18.926c-1.799-3.322-5.429-7.494-8.938-11.528c-2.853-3.277-7.031-8.08-7.78-10.113
			c0.055-0.002,0.114-0.003,0.18-0.003c0.507,0,1.158,0.072,1.934,0.215c3.451,0.637,6.637,0.947,9.736,0.947
			c0.907,0,1.821-0.027,2.716-0.082l0.801-0.047c1.996-0.114,3.315-0.189,4.163-1.36c0.832-1.149,0.465-2.534,0.195-3.545
			c-0.258-0.962-0.243-1.42-0.16-2.723c0.329-5.43-0.267-11.237-1.875-18.281c-0.726-3.177-1.579-6.112-2.482-9.219l-0.372-1.279
			c-1.854-6.41-2.223-8.424-2.271-9.056c-0.078-4.256-0.05-6.731,0.526-10.828c0.062-0.319,0.15-0.72,0.251-1.178
			c0.979-4.444,1.704-8.626-0.166-10.953C129.234,5.936,128.156,5.437,126.875,5.436L126.875,5.436L126.875,5.436L126.875,5.436z"/>
	</g>
</g>
<g id="Layer_1">
</g>
</svg>
