<?xml version="1.0" encoding="iso-8859-1"?>
<!-- Generator: Adobe Illustrator 16.0.0, SVG Export Plug-In . SVG Version: 6.00 Build 0)  -->
<!DOCTYPE svg PUBLIC "-//W3C//DTD SVG 1.1//EN" "http://www.w3.org/Graphics/SVG/1.1/DTD/svg11.dtd">
<svg version="1.1" xmlns="http://www.w3.org/2000/svg" xmlns:xlink="http://www.w3.org/1999/xlink" x="0px" y="0px" width="150px"
	 height="150px" viewBox="0 0 150 150" style="enable-background:new 0 0 150 150;" xml:space="preserve">
<g id="_x30_2_x5F_05">
	<rect style="fill:none;" width="150" height="150"/>
	<g>
		<path style="fill-rule:evenodd;clip-rule:evenodd;fill:#10A3BB;" d="M105.167,59.625c3.779,0,6.844,3.065,6.844,6.843
			c0,5.408-2.164,14.257-2.717,20.476c-0.379,4.258-0.461,7.975-0.388,11.107c0.16,6.788,11.762,6.804,12.139-0.066
			c0.065-1.225,0.156-2.497,0.273-3.813c0.999-11.235-7.653-8.621-7.653-18.882c0-6.612,5.361-11.973,11.973-11.973
			s11.973,5.361,11.973,11.973c0,7.114-13.159,23.855-4.287,20.134c2.438-1.026,4.752-1.714,7.089-2.078
			c2.188-0.339,2.402-0.506,2.333,1.027c-0.038,0.822,0.083,1.264,0.308,2.055c0.901,3.179,1.269,6.687,1.229,10.888
			c-0.021,2.249-0.185,4.376-0.334,6.62c-0.154,2.35-0.302,5.123-0.161,6.04c0.529,2.632,0.877,4.17,1.811,6.687
			c0.731,1.728,3.896,7.516-0.193,6.908c-1.962-0.293-1.7-2.469-1.774-4.078c-0.023-0.731-0.344-5.137-0.572-5.945
			c-0.23-0.809-0.1-1.084-0.775-0.946c-0.719,0.146-1.185,4.094-1.147,5.792c0.014,1.252,0.229,3.068-0.682,4.09
			c-0.917,1.035-2.917,0.266-3.467-0.898c-0.75-1.594,3.143-7.611,3.574-8.56c0.515-1.33,0.439-2.746,0.109-3.285
			c-0.155-0.247-0.481-0.364-1.059-0.314c-0.819,0.07-1.7,0.131-2.285,0.69c-2.512,2.396-4.24,1.787-4.77,0.726
			c-0.461-0.924,0.121-2.355,0.788-3.052c1.339-1.406,3.573,2.415,7.37-0.809c1.151-0.974,1.258-1.871,1.314-3.086
			c0.104-2.146,0.364-4.31,0.405-6.452c0.07-3.874-0.787-7.552-2.27-11.046c-2.475,0.57-4.931,1.392-7.355,2.379
			c-4.013,1.632-4.182,3.539-4.308,7.247c-0.387,11.446-1.153,24.682-7.714,31.133c-0.642,0.63-1.311,1.27-2.009,1.917
			c-0.739,0.686-0.954,1.811-0.875,3.287c0.198,3.729-0.052,4.957,3.518,5.376c1.311,0.151,2.618-0.02,3.935-0.063
			c0.98-0.031,1.961-0.048,2.957-0.048c0.734,0.092,1.322,0.229,1.646,0.538c0.75,0.725,0.438,1.174-0.12,1.424
			c-0.595,0.266-1.196,0.241-1.805,0.129c-0.599-0.113-1.135-0.184-1.663-0.221c-2.931-0.219-6.176-0.033-9.1,0.375
			c-1.061,0.151-2.299,0.282-2.885-0.283c-0.872-0.84,0.62-1.73,1.012-2.278c0.952-1.346,0.122-4.082-0.894-5.163
			c-0.626-0.668-1.298-0.992-2.023-1.171c-19.233-4.721-45.086-17.203-60.741-0.506c-1.229,1.308-2.239,4.632-1.08,6.263
			c0.474,0.668,2.285,1.747,1.225,2.768c-0.713,0.685-2.215,0.526-3.501,0.346c-3.548-0.497-7.485-0.723-11.043-0.461
			c-0.645,0.052-1.293,0.137-2.024,0.269c-0.734,0.141-1.465,0.17-2.186-0.153c-0.678-0.306-1.056-0.849-0.143-1.727
			c0.39-0.38,1.103-0.546,1.997-0.654c1.206,0,2.395,0.016,3.583,0.058c1.604,0.055,3.189,0.262,4.781,0.076
			c4.33-0.509,4.027-2,4.264-6.526c0.098-1.793-0.16-3.155-1.058-3.989c-0.851-0.785-1.663-1.561-2.44-2.323
			c-4.468-4.396-4.614-29.593-9.972-22.458c-1.585,2.119-3.235,3.884-5.068,5.376c-1.716,1.398-1.817,1.651-2.532,0.294
			c-0.381-0.729-0.71-1.05-1.303-1.619c-2.385-2.287-4.472-5.129-6.562-8.773c-1.118-1.952-2.052-3.871-3.058-5.884
			c-1.054-2.104-2.327-4.573-2.913-5.291c-1.786-2.006-2.863-3.156-4.94-4.857c-1.503-1.121-7.16-4.517-3.323-6.059
			c1.84-0.739,2.714,1.271,3.591,2.622c0.391,0.62,2.893,4.261,3.499,4.841c0.607,0.582,0.632,0.887,1.146,0.427
			c0.548-0.49-1.045-4.133-1.936-5.58c-0.644-1.072-1.747-2.531-1.479-3.872c0.268-1.358,2.384-1.704,3.447-0.977
			c1.452,0.995,1.134,8.156,1.239,9.193c0.229,1.407,1.009,2.591,1.567,2.889c0.257,0.135,0.598,0.071,1.07-0.264
			c0.673-0.474,1.403-0.97,1.625-1.749c0.956-3.338,2.755-3.686,3.75-3.036c0.864,0.564,1.085,2.094,0.86,3.03
			c-0.445,1.892-4.304-0.277-5.952,4.423c-0.501,1.422-0.141,2.25,0.425,3.326c0.994,1.904,1.863,3.905,2.911,5.772
			c1.897,3.379,4.495,6.12,7.54,8.388c1.846-1.742,3.551-3.693,5.146-5.769c0.787-1.025,1.096-2.572,1.539-3.779
			c0.419-1.144,0.807-1.684,1.93-2.049c2.828-0.927,2.057-7.993,1.885-10.577c-0.666-9.938-6.512-10.329-6.512-18.993
			c0-5.478,4.443-9.92,9.92-9.92c5.479,0,9.921,4.442,9.921,9.92c0,5.89-4.958,16.294-5.729,24.963
			c-0.316,3.565,3.39,3.506,5.262,2.97c2.406-0.688,1.67-3.161,2.953-8.339c1.244-5.015,1.611-9.355,1.462-13.19
			c-0.209-5.391-1.441-9.78-2.694-13.635c-1.44-4.435-4.399-9.616,0.034-13.339c1.599-1.342,3.771-2.178,5.896-2.178
			c4.532,0,8.21,3.677,8.21,8.21c0,20.981-23.366,43.173,8.324,41.46c4.687-0.254,10.274,2.215,10.42-1.959
			c0.065-1.855,0.184-3.828,0.369-5.91c0.872-9.815-3.548-11.985-3.548-18.539c0-3.967,3.217-7.185,7.182-7.185
			c3.969,0,7.185,3.218,7.185,7.185c0,4.938-2.588,13.24-3.118,19.206c-0.175,1.964-0.286,3.813-0.349,5.542
			c-0.198,5.48,7.953,5.617,7.778,0.444c-0.122-3.605-0.059-7.913,0.381-12.837c0.885-9.956-3.271-13.174-3.271-19.81
			C98.324,62.69,101.389,59.625,105.167,59.625z"/>
		<circle style="fill-rule:evenodd;clip-rule:evenodd;fill:#FFFFFF;" cx="105.167" cy="66.469" r="5.888"/>
		<circle style="fill-rule:evenodd;clip-rule:evenodd;" cx="102.547" cy="64.6" r="1.291"/>
		<path style="fill-rule:evenodd;clip-rule:evenodd;fill:#FFFFFF;" d="M89.718,67.656c3.462,0,6.269,2.806,6.269,6.267
			c0,3.459-2.807,6.266-6.269,6.266c-3.459,0-6.265-2.807-6.265-6.266C83.453,70.461,86.259,67.656,89.718,67.656z"/>
		<circle style="fill-rule:evenodd;clip-rule:evenodd;" cx="87.923" cy="74.862" r="1.38"/>
		<circle style="fill-rule:evenodd;clip-rule:evenodd;fill:#FFFFFF;" cx="58.761" cy="58.87" r="7.233"/>
		<circle style="fill-rule:evenodd;clip-rule:evenodd;" cx="61.481" cy="59.168" r="2.651"/>
		<circle style="fill-rule:evenodd;clip-rule:evenodd;fill:#FFFFFF;" cx="125.724" cy="75.204" r="10.433"/>
		<circle style="fill-rule:evenodd;clip-rule:evenodd;" cx="130.512" cy="75.803" r="2.394"/>
		<circle style="fill-rule:evenodd;clip-rule:evenodd;fill:#FFFFFF;" cx="41.656" cy="73.409" r="8.723"/>
		<circle style="fill-rule:evenodd;clip-rule:evenodd;" cx="37.849" cy="69.919" r="1.796"/>
		<path style="fill-rule:evenodd;clip-rule:evenodd;fill:#FFFFFF;" d="M59.364,121.155l3.256,0.415l-0.381,3.015
			c-0.089,0.719-0.75,1.228-1.466,1.137l-0.651-0.08c-0.717-0.09-1.229-0.751-1.139-1.468L59.364,121.155z"/>
		<path style="fill-rule:evenodd;clip-rule:evenodd;fill:#FFFFFF;" d="M64.471,120.874l3.255,0.411l-0.385,3.021
			c-0.09,0.715-0.75,1.225-1.463,1.135l-0.652-0.082c-0.715-0.092-1.229-0.75-1.14-1.467L64.471,120.874z"/>
		<path style="fill-rule:evenodd;clip-rule:evenodd;fill:#FFFFFF;" d="M99.786,125.348l3.256,0.412l-0.385,3.017
			c-0.089,0.715-0.75,1.225-1.465,1.136l-0.651-0.083c-0.717-0.09-1.229-0.749-1.139-1.466L99.786,125.348z"/>
		<path style="fill-rule:evenodd;clip-rule:evenodd;fill:#FFFFFF;" d="M94.874,123.695l3.256,0.413l-0.381,3.017
			c-0.091,0.717-0.75,1.227-1.468,1.138l-0.649-0.084c-0.718-0.089-1.23-0.75-1.137-1.467L94.874,123.695z"/>
		<path style="fill-rule:evenodd;clip-rule:evenodd;fill:#FFFFFF;" d="M69.686,120.505l3.255,0.412l-0.379,3.02
			c-0.093,0.716-0.752,1.228-1.469,1.137l-0.651-0.084c-0.715-0.088-1.228-0.749-1.137-1.464L69.686,120.505z"/>
		<path style="fill-rule:evenodd;clip-rule:evenodd;fill:#FFFFFF;" d="M74.347,120.945l3.257,0.411l-0.383,3.018
			c-0.091,0.716-0.75,1.23-1.465,1.138l-0.652-0.082c-0.717-0.089-1.229-0.751-1.136-1.469L74.347,120.945z"/>
		<path style="fill-rule:evenodd;clip-rule:evenodd;fill:#FFFFFF;" d="M89.904,122.915l3.257,0.413l-0.383,3.016
			c-0.091,0.718-0.751,1.229-1.466,1.14l-0.651-0.084c-0.717-0.089-1.227-0.75-1.138-1.469L89.904,122.915z"/>
		<path style="fill-rule:evenodd;clip-rule:evenodd;fill:#FFFFFF;" d="M84.563,121.932l3.255,0.412l-0.384,3.019
			c-0.092,0.714-0.75,1.226-1.467,1.136l-0.652-0.081c-0.713-0.093-1.229-0.752-1.138-1.466L84.563,121.932z"/>
		<path style="fill-rule:evenodd;clip-rule:evenodd;fill:#FFFFFF;" d="M79.817,121.331l3.258,0.414l-0.382,3.016
			c-0.091,0.715-0.751,1.227-1.469,1.14l-0.649-0.082c-0.717-0.092-1.228-0.755-1.139-1.47L79.817,121.331z"/>
		<path style="fill-rule:evenodd;clip-rule:evenodd;fill:#FFFFFF;" d="M104.611,126.885l3.255,0.411l-0.384,3.02
			c-0.089,0.717-0.75,1.228-1.466,1.138l-0.651-0.081c-0.714-0.094-1.228-0.754-1.138-1.471L104.611,126.885z"/>
		<path style="fill-rule:evenodd;clip-rule:evenodd;fill:#020202;" d="M111.71,127.3c0.497,0.097,0.84,0.575,0.776,1.068
			c-0.061,0.495-0.509,0.819-1.004,0.723c-8.928-2.13-17.764-4.928-26.831-6.078c-9.068-1.147-18.324-0.638-27.505-0.804
			c-0.504-0.028-0.858-0.453-0.796-0.948c0.063-0.494,0.518-0.872,1.021-0.847c9.182,0.169,18.437-0.343,27.507,0.807
			C93.945,122.371,102.779,125.172,111.71,127.3z"/>
	</g>
</g>
<g id="Layer_1">
</g>
</svg>
