<?xml version="1.0" encoding="iso-8859-1"?>
<!-- Generator: Adobe Illustrator 16.0.0, SVG Export Plug-In . SVG Version: 6.00 Build 0)  -->
<!DOCTYPE svg PUBLIC "-//W3C//DTD SVG 1.1//EN" "http://www.w3.org/Graphics/SVG/1.1/DTD/svg11.dtd">
<svg version="1.1" xmlns="http://www.w3.org/2000/svg" xmlns:xlink="http://www.w3.org/1999/xlink" x="0px" y="0px" width="150px"
	 height="150px" viewBox="0 0 150 150" style="enable-background:new 0 0 150 150;" xml:space="preserve">
<g id="_x30_2_x5F_02_x5F_balck">
	<rect style="fill:none;" width="150" height="150"/>
	<g>
		<path d="M107.419,149c-0.293,0-0.602-0.023-0.906-0.057c-0.923-0.014-15.131-0.248-15.598-0.455
			c-0.831-0.373-1.086-0.927-1.155-1.326c-0.105-0.609,0.146-1.21,0.748-1.787c0.57-0.559,1.433-0.73,2.279-0.833l0.061-0.007h0.06
			c1.05,0,2.075,0.012,3.108,0.052c0.397,0.013,0.799,0.037,1.2,0.061c0.55,0.033,1.098,0.067,1.646,0.067
			c0.401,0,0.759-0.019,1.092-0.057l0.095-0.011l0.096,0.007c0.2,0.016,0.391,0.022,0.572,0.022c2.313,0,2.384-1.181,2.411-1.626
			c0.084-1.396,0.186-2.601,0.273-3.643c0.206-2.46,0.355-4.237-0.107-4.74c-0.37-0.403-1.632-0.449-2.549-0.449
			c-0.4,0-0.843,0.01-1.327,0.026c0,0-9.725-0.276-9.729-0.276c-0.49,0-1.213-0.019-2.078-0.041
			c-1.288-0.033-2.898-0.074-4.613-0.074c-3.368,0-5.963,0.16-7.933,0.49c-2.444,0.407-3.296,0.988-3.586,1.299
			c-0.127,0.136-0.264,0.341-0.385,0.577c-0.767,1.506-0.495,7.994,0.63,9.172c1.326,1.397,0.478,2.422,0.186,2.703
			c-0.445,0.425-1.076,0.629-1.933,0.629c-0.292,0-0.601-0.023-0.904-0.057c-0.975-0.014-15.132-0.253-15.59-0.452
			c-0.84-0.382-1.094-0.935-1.162-1.333c-0.104-0.606,0.147-1.207,0.748-1.784c0.567-0.556,1.431-0.729,2.278-0.833l0.061-0.008
			h0.061c1.049,0,2.073,0.014,3.107,0.053c0.398,0.013,0.801,0.037,1.202,0.062c0.547,0.033,1.093,0.067,1.639,0.067
			c0.404,0,0.762-0.02,1.096-0.059l0.077-0.009l0.321,0.008c0.943,0,1.596-0.213,1.996-0.649c0.519-0.565,0.703-1.606,0.564-3.182
			l-0.049-0.58c-0.084-1.006-0.247-2.949-0.441-4.801c-0.44-4.219-1.34-4.971-3.133-6.471c-0.213-0.178-0.436-0.364-0.669-0.565
			c-5.375-4.633-10.726-13.698-12.569-20.944c-2.396,3.451-5.72,6.621-10.68,10.239l-0.161,0.116
			c-0.056,0.048-0.133,0.109-0.229,0.169l-0.012,0.008c-0.216,0.155-0.654,0.458-1.205,0.839c-1.862,1.287-5.737,3.965-6.51,4.811
			c-1.75,2.097-2.738,3.351-4.114,5.642c-0.077,0.146-0.199,0.392-0.34,0.674c-1.331,2.673-2.795,5.281-4.756,5.281
			c-0.914,0-1.699-0.551-2.333-1.638c-1.333-2.281,0.659-3.93,1.849-4.914c0.173-0.144,0.343-0.284,0.502-0.423
			c0.454-0.389,2.075-1.897,3.198-3.005c-0.915,0.531-1.939,1.215-2.623,1.789c-0.143,0.117-0.285,0.239-0.433,0.365
			c-1.029,0.881-2.311,1.978-3.86,1.978l-0.15-0.003c-0.871-0.043-1.653-0.549-2.149-1.388c-0.623-1.054-0.713-2.437-0.224-3.439
			c0.722-1.479,3.708-2.212,8.621-2.979c0.564-0.088,1.098-0.171,1.268-0.215c1.001-0.318,1.723-0.963,1.958-1.285
			c-0.03-0.04-0.073-0.092-0.134-0.156c-0.51-0.536-0.985-1.037-1.445-1.095c-2.753-0.371-3.887-1.46-4.354-2.309
			c-0.433-0.786-0.473-1.694-0.108-2.49c0.612-1.331,2.313-1.937,3.634-1.937c0.117,0,0.231,0.005,0.34,0.015
			c1.438,0.123,1.855,1.395,2.159,2.323c0.425,1.297,0.865,2.639,3.38,3.123c0.247,0.049,0.463,0.072,0.665,0.072
			c0.733,0,1.198-0.315,2.097-0.972c0.313-0.229,0.651-0.475,1.037-0.726c0.465-0.311,1.359-0.986,1.359-0.986l0.313-0.218
			c0.232-0.161,0.49-0.34,0.792-0.533c5.517-3.529,8.516-9.542,10.061-13.966c5.238-14.954,2.049-27.591-5.668-45.681
			c-2.002-4.691-4.315-8.507-7.07-11.665c-1.343-1.544-2.944-2.219-4.639-2.933c-1.695-0.714-3.449-1.453-5.114-3.06
			c-2.963-2.857-4.596-6.702-4.596-10.827c0-8.294,6.746-15.042,15.039-15.042c11.117,0,18.069,11.247,19.076,30.856
			c0.473,9.218,7.653,19.958,16.007,23.941c2.641,1.26,4.412,1.872,5.415,1.872c0.778,0,0.979-0.238,1.334-2.762
			c0.198-1.41,0.445-3.164,1.21-5.026c0.729-1.774,1.595-3.382,2.501-4.65c2.266-3.194,5.961-5.103,9.882-5.103
			c6.204,0,11.41,4.684,15.479,13.92c0.333,0.755,0.614,1.478,0.881,2.162c1.271,3.266,1.971,5.064,6.058,5.588
			c9.349,1.198,25.485,8.006,28.993,21.178c1.281,4.827,0.37,10.168-2.5,14.653c-0.431,0.775-1.31,1.289-2.264,1.289l0,0
			c-0.441,0-0.878-0.112-1.265-0.325c-1.268-0.709-1.725-2.313-1.023-3.58l0.101-0.182l0.012-0.009
			c0.773-1.351,2.537-5.159,2.556-8.402c-0.831,1.966-2.361,4.065-5.173,4.941c-0.258,0.078-0.518,0.117-0.779,0.117
			c-1.157,0-2.167-0.74-2.513-1.843c-0.212-0.656-0.153-1.365,0.168-1.987c0.324-0.627,0.873-1.09,1.548-1.303
			c1.614-0.499,2.2-2.324,2.411-3.491c-3.018,1.819-5.473,5.479-5.856,6.07l-0.08,0.125c-0.492,0.745-1.315,1.19-2.202,1.19
			c-0.506,0-0.997-0.146-1.421-0.423c-1.214-0.791-1.563-2.414-0.778-3.62c0.116-0.188,3.197-5.113,7.729-7.843
			c1.816-1.06,1.603-1.852,1.532-2.111c-0.931-3.441-13.854-8.015-19.2-8.015c-0.235,0-0.449,0.011-0.639,0.033
			c-1.47,0.082-1.719,0.385-1.742,0.42c-0.179,0.259,0.153,1.308,0.396,2.073c0.216,0.683,0.461,1.456,0.625,2.304
			c5.446,19.383,5.48,34.988,0.089,49.033c-1.266,3.297-1.587,6.894-1.845,9.783c-0.075,0.848-0.146,1.64-0.232,2.354
			c-0.061,0.494-0.004,0.919,0.15,1.136c0.059,0.076,0.151,0.158,0.248,0.251c0.435,0.418,1.031,0.991,1.031,1.806
			c0,0.311-0.094,0.772-0.539,1.201C108.904,148.796,108.274,149,107.419,149z"/>
		<path style="fill:#FFFFFF;" d="M33.97,11.749c11.412,0,17.199,12.793,18.077,29.907c0.497,9.686,7.916,20.664,16.575,24.793
			c2.89,1.378,4.692,1.969,5.845,1.969c2.972,0,1.627-3.928,3.469-8.407c0.697-1.696,1.521-3.235,2.39-4.449
			c2.012-2.836,5.328-4.684,9.068-4.684c0.002,0,0.004,0,0.005,0c6.688,0,11.354,6.046,14.56,13.323
			c1.921,4.359,2.092,7.617,7.727,8.338c10.087,1.292,24.908,8.255,28.153,20.443c1.256,4.729,0.272,9.719-2.376,13.857
			c-0.295,0.529-0.851,0.828-1.421,0.828c-0.266,0-0.534-0.065-0.781-0.201c-0.788-0.44-1.068-1.432-0.632-2.22
			c0.025-0.02,4.866-8.475,1.747-12.911c-0.178,1.756-1.079,6.467-5.425,7.82c-0.16,0.049-0.322,0.072-0.481,0.072
			c-0.696,0-1.341-0.446-1.559-1.142c-0.275-0.854,0.205-1.767,1.063-2.037c3.155-0.976,3.232-5.446,3.228-5.455
			c0.005-0.243,0.057-0.473,0.162-0.688c-4.373,1.442-8.042,7.317-8.05,7.342c-0.317,0.48-0.839,0.741-1.368,0.741
			c-0.302,0-0.605-0.085-0.875-0.261c-0.745-0.485-0.973-1.489-0.486-2.236c0.013-0.021,3.049-4.907,7.406-7.532
			c8.517-4.967-11.708-11.982-18.184-11.982c-0.278,0-0.532,0.014-0.757,0.04c-4.341,0.235-2.24,2.604-1.585,5.98
			c4.48,15.956,6.263,32.527,0.137,48.484c-1.688,4.396-1.748,9.176-2.137,12.375c-0.084,0.691-0.007,1.366,0.33,1.838
			c0.33,0.468,1.611,1.233,0.86,1.956c-0.28,0.267-0.733,0.349-1.236,0.349c-0.274,0-0.563-0.024-0.848-0.057
			c-0.001,0-0.005,0-0.013,0c-0.487,0-15.102-0.309-15.238-0.369c-0.578-0.26-0.901-0.729-0.12-1.478
			c0.335-0.328,0.945-0.47,1.707-0.562c1.037,0,2.05,0.012,3.07,0.051c0.966,0.031,1.925,0.129,2.885,0.129
			c0.401,0,0.804-0.018,1.206-0.063c0.227,0.018,0.442,0.025,0.648,0.025c2.332,0,3.319-1.085,3.409-2.565
			c0.508-8.388,1.626-9.893-3.381-9.893c-0.411,0-0.864,0.01-1.362,0.027l-9.649-0.277c-1.28,0-3.861-0.115-6.736-0.115
			c-2.72,0-5.704,0.104-8.098,0.504c-1.893,0.315-3.417,0.817-4.151,1.602c-0.195,0.208-0.382,0.486-0.545,0.805
			c-0.882,1.733-0.722,8.728,0.797,10.318c0.377,0.397,0.673,0.852,0.215,1.292c-0.281,0.268-0.735,0.351-1.239,0.351
			c-0.273,0-0.561-0.024-0.844-0.057c0,0-0.003,0-0.008,0c-0.406,0-15.108-0.312-15.244-0.37c-0.577-0.263-0.901-0.728-0.12-1.479
			c0.335-0.328,0.944-0.468,1.707-0.562c1.036,0,2.048,0.014,3.07,0.052c0.964,0.031,1.92,0.13,2.878,0.13
			c0.404,0,0.808-0.018,1.212-0.065c0.096,0.004,0.19,0.006,0.281,0.006c3.352,0,3.778-2.403,3.556-4.919
			c-0.051-0.573-0.247-3.059-0.492-5.397c-0.537-5.139-1.876-5.733-4.143-7.688c-5.935-5.116-11.705-15.587-12.736-22.833
			c-2.471,4.339-6.167,8-11.756,12.077l-0.194,0.141c-0.028,0.025-0.074,0.065-0.137,0.104l-0.003,0.001l-0.009,0.006l-0.011,0.007
			c-1.133,0.813-6.836,4.641-7.912,5.816c-1.785,2.137-2.803,3.419-4.234,5.802c-0.716,1.334-2.475,5.47-4.239,5.47
			c-0.497,0-0.995-0.328-1.47-1.142c-1.042-1.783,0.887-2.979,2.146-4.081c0.575-0.492,3.93-3.609,4.437-4.316
			c0.502-0.719,0.809-0.787,0.262-1.243c-0.058-0.048-0.143-0.07-0.252-0.07c-1,0-3.96,1.878-5.173,2.896
			c-0.982,0.809-2.273,2.109-3.65,2.109c-0.034,0-0.068,0-0.103-0.002c-1.437-0.071-2.106-2.191-1.522-3.39
			c0.801-1.642,8.198-2.396,9.239-2.663c1.413-0.447,2.506-1.426,2.724-2.042c0.102-0.283-0.012-0.626-0.427-1.06
			c-0.586-0.616-1.206-1.29-2.042-1.396c-3.567-0.48-4.19-2.272-3.678-3.39c0.413-0.897,1.739-1.354,2.725-1.354
			c0.087,0,0.171,0.004,0.252,0.011c2.003,0.171,0.366,4.455,5.438,5.433c0.313,0.062,0.595,0.09,0.854,0.09
			c1.455,0,2.198-0.896,3.679-1.859c0.491-0.328,1.416-1.026,1.416-1.026c0.294-0.2,0.626-0.439,1.043-0.708
			c5.358-3.428,8.638-9.25,10.464-14.477c5.629-16.068,1.544-29.44-5.692-46.403c-1.837-4.303-4.166-8.41-7.236-11.93
			c-2.86-3.29-6.605-2.961-9.812-6.055c-2.648-2.553-4.29-6.138-4.29-10.107C19.931,18.034,26.218,11.749,33.97,11.749 M33.97,9.749
			c-8.844,0-16.039,7.196-16.039,16.042c0,4.398,1.741,8.5,4.902,11.547c1.799,1.736,3.723,2.546,5.419,3.261
			c1.654,0.696,3.082,1.298,4.271,2.666c2.687,3.081,4.945,6.81,6.906,11.403c7.619,17.858,10.774,30.312,5.644,44.957
			c-1.494,4.275-4.38,10.079-9.654,13.453c-0.316,0.203-0.584,0.389-0.825,0.556l-0.266,0.183l-0.041,0.028l-0.04,0.029
			c-0.245,0.186-0.959,0.718-1.322,0.96c-0.395,0.257-0.749,0.516-1.062,0.743c-0.852,0.622-1.11,0.779-1.507,0.779
			c-0.134,0-0.292-0.018-0.468-0.052c-1.945-0.375-2.216-1.203-2.627-2.455c-0.324-0.989-0.927-2.829-3.027-3.009
			c-0.131-0.011-0.275-0.018-0.422-0.018c-1.684,0-3.742,0.778-4.542,2.518c-0.5,1.089-0.448,2.325,0.14,3.393
			c0.578,1.049,1.93,2.39,5.088,2.815c0.063,0.022,0.163,0.101,0.276,0.203c-0.221,0.14-0.492,0.278-0.802,0.384
			c-0.188,0.039-0.687,0.116-1.132,0.186c-5.487,0.856-8.442,1.637-9.365,3.528c-0.63,1.293-0.525,3.056,0.262,4.387
			c0.67,1.133,1.748,1.817,2.958,1.878c0.07,0.003,0.136,0.004,0.202,0.004c0.127,0,0.252-0.005,0.375-0.016
			c-0.538,1.027-0.713,2.288,0.129,3.73c1.03,1.763,2.307,2.133,3.197,2.133c2.535,0,4.12-2.76,5.651-5.836
			c0.125-0.251,0.235-0.473,0.328-0.647c1.323-2.198,2.242-3.367,3.994-5.465c0.763-0.799,4.79-3.582,6.316-4.637
			c0.522-0.36,0.943-0.652,1.197-0.833c0.125-0.079,0.226-0.157,0.297-0.217l0.127-0.092c4.267-3.112,7.351-5.906,9.689-8.832
			c2.254,7.065,7.203,15.067,12.324,19.482c0.236,0.204,0.463,0.394,0.68,0.575c1.684,1.408,2.381,1.992,2.78,5.807
			c0.192,1.839,0.353,3.752,0.439,4.78l0.05,0.588c0.151,1.714-0.164,2.261-0.306,2.416c-0.258,0.281-0.898,0.324-1.258,0.324
			c-0.067,0-0.135-0.002-0.206-0.005l-0.155-0.006l-0.154,0.019c-0.295,0.034-0.615,0.052-0.979,0.052
			c-0.505,0-1.026-0.032-1.578-0.065c-0.411-0.025-0.823-0.05-1.236-0.063c-0.949-0.035-1.977-0.053-3.134-0.053h-0.123
			l-0.121,0.015c-1.022,0.126-2.077,0.349-2.863,1.118c-1.05,1.01-1.14,2.006-1.027,2.661c0.089,0.521,0.431,1.481,1.718,2.067
			c0.479,0.208,0.479,0.208,8.304,0.387c3.305,0.075,6.95,0.151,7.658,0.162c0.368,0.039,0.676,0.058,0.963,0.058
			c1.126,0,1.983-0.296,2.62-0.903c0.91-0.876,1.413-2.474-0.145-4.115c-0.845-1.096-1.049-6.779-0.463-8.04
			c0.087-0.169,0.173-0.29,0.22-0.34c0.057-0.061,0.616-0.595,3.021-0.996c1.916-0.32,4.457-0.477,7.769-0.477
			c1.699,0,3.301,0.041,4.588,0.074c0.869,0.022,1.597,0.04,2.119,0.041l9.621,0.276l0.063,0.002l0.063-0.002
			c0.473-0.017,0.903-0.026,1.293-0.026c1.144,0,1.614,0.094,1.793,0.15c0.15,0.573,0.006,2.291-0.134,3.956
			c-0.089,1.058-0.189,2.256-0.274,3.665c-0.018,0.29-0.042,0.687-1.413,0.687c-0.157,0-0.322-0.006-0.496-0.02l-0.191-0.015
			l-0.189,0.021c-0.295,0.034-0.614,0.051-0.978,0.051c-0.509,0-1.032-0.031-1.586-0.065c-0.411-0.024-0.822-0.049-1.234-0.063
			c-0.919-0.035-1.919-0.052-3.135-0.052h-0.12l-0.119,0.015c-0.973,0.117-2.074,0.342-2.867,1.118
			c-1.052,1.008-1.14,2.007-1.026,2.664c0.09,0.522,0.435,1.486,1.727,2.066c0.463,0.205,0.463,0.205,8.262,0.383
			c3.436,0.078,6.999,0.151,7.692,0.161c0.369,0.039,0.678,0.058,0.964,0.058c1.124,0,1.979-0.295,2.616-0.9
			c0.553-0.532,0.853-1.215,0.853-1.93c0-1.239-0.838-2.045-1.339-2.525c-0.035-0.034-0.069-0.066-0.102-0.098
			c-0.013-0.076-0.024-0.227,0.003-0.448c0.09-0.736,0.161-1.538,0.236-2.386c0.253-2.828,0.566-6.347,1.782-9.514
			c5.466-14.237,5.448-30.021-0.057-49.666c-0.175-0.869-0.42-1.645-0.638-2.331c-0.11-0.35-0.248-0.784-0.328-1.113
			c0.168-0.029,0.399-0.058,0.712-0.074l0.064-0.004l0.064-0.007c0.143-0.018,0.317-0.026,0.52-0.026
			c4.179,0,14.715,3.284,17.724,6.515c0.446,0.479,0.524,0.763,0.521,0.813c-0.011,0.07-0.223,0.435-1.068,0.928
			c-4.757,2.865-7.965,7.99-8.099,8.207c-1.062,1.629-0.581,3.873,1.095,4.965c0.586,0.382,1.267,0.585,1.967,0.585
			c1.193,0,2.303-0.583,2.985-1.563c0.022,0.092,0.048,0.184,0.077,0.274c0.472,1.505,1.865,2.527,3.462,2.527
			c0.36,0,0.718-0.054,1.064-0.159c1.218-0.379,2.22-0.957,3.045-1.648c-0.499,1.479-1.106,2.773-1.491,3.488l-0.007,0.006
			l-0.202,0.363c-0.967,1.747-0.337,3.96,1.406,4.935c0.543,0.3,1.147,0.455,1.757,0.455c1.293,0,2.486-0.686,3.133-1.792
			c3-4.713,3.946-10.325,2.597-15.407c-3.658-13.742-19.845-20.633-29.832-21.913c-3.498-0.448-4.012-1.769-5.253-4.959
			c-0.272-0.698-0.553-1.42-0.897-2.202c-4.243-9.632-9.758-14.517-16.39-14.517c-4.249,0-8.249,2.066-10.704,5.527
			c-0.947,1.324-1.851,3.001-2.608,4.846c-0.813,1.978-1.07,3.802-1.276,5.267c-0.092,0.653-0.213,1.517-0.356,1.901
			c-0.584-0.005-1.92-0.319-4.972-1.774c-8.057-3.842-14.983-14.2-15.438-23.09C53.007,21.341,45.69,9.749,33.97,9.749L33.97,9.749z
			"/>
	</g>
</g>
<g id="Layer_1">
</g>
</svg>
