<?xml version="1.0" encoding="iso-8859-1"?>
<!-- Generator: Adobe Illustrator 16.0.0, SVG Export Plug-In . SVG Version: 6.00 Build 0)  -->
<!DOCTYPE svg PUBLIC "-//W3C//DTD SVG 1.1//EN" "http://www.w3.org/Graphics/SVG/1.1/DTD/svg11.dtd">
<svg version="1.1" xmlns="http://www.w3.org/2000/svg" xmlns:xlink="http://www.w3.org/1999/xlink" x="0px" y="0px" width="150px"
	 height="150px" viewBox="0 0 150 150" style="enable-background:new 0 0 150 150;" xml:space="preserve">
<g id="_x30_2_x5F_02">
	<rect style="fill:none;" width="150" height="150"/>
	<g>
		<g>
			<path style="fill-rule:evenodd;clip-rule:evenodd;fill:#5DA09C;" d="M68.622,68.449c-8.66-4.129-16.079-15.107-16.575-24.793
				c-0.878-17.114-6.665-29.907-18.077-29.907c-7.751,0-14.039,6.285-14.039,14.042c0,3.969,1.642,7.554,4.29,10.107
				c3.207,3.094,6.952,2.765,9.812,6.055c3.07,3.52,5.399,7.626,7.236,11.93c7.237,16.963,11.321,30.335,5.692,46.403
				c-1.826,5.227-5.106,11.049-10.464,14.477c-0.417,0.269-0.749,0.508-1.043,0.708c0,0-0.925,0.698-1.416,1.026
				c-1.745,1.136-2.466,2.177-4.534,1.77c-5.072-0.978-3.435-5.262-5.438-5.433c-0.996-0.088-2.528,0.366-2.977,1.343
				c-0.512,1.117,0.111,2.909,3.678,3.39c0.835,0.105,1.456,0.779,2.042,1.396c0.415,0.434,0.529,0.776,0.427,1.06
				c-0.218,0.616-1.311,1.595-2.724,2.042c-1.041,0.268-8.438,1.021-9.239,2.663c-0.584,1.198,0.085,3.318,1.522,3.39
				c1.416,0.067,2.746-1.279,3.753-2.107c1.345-1.128,4.839-3.314,5.425-2.825c0.546,0.456,0.24,0.524-0.262,1.243
				c-0.507,0.707-3.862,3.824-4.437,4.316c-1.259,1.103-3.187,2.298-2.146,4.081c2.159,3.697,4.791-2.618,5.708-4.328
				c1.431-2.383,2.449-3.665,4.234-5.802c1.075-1.176,6.779-5.003,7.912-5.816l0,0l0.011-0.007l0.009-0.006l0.003-0.001
				c0.063-0.039,0.108-0.079,0.137-0.104l0,0l0.194-0.141c5.589-4.077,9.285-7.738,11.756-12.077
				c1.031,7.246,6.801,17.717,12.736,22.833c2.267,1.955,3.606,2.55,4.143,7.688c0.245,2.339,0.44,4.824,0.492,5.397
				c0.228,2.584-0.229,5.05-3.837,4.913c-1.365,0.16-2.72-0.021-4.09-0.064c-1.021-0.038-2.034-0.052-3.07-0.052
				c-0.763,0.094-1.372,0.233-1.707,0.562c-0.782,0.752-0.458,1.217,0.12,1.479c0.137,0.06,15.202,0.378,15.252,0.37
				c0.804,0.091,1.65,0.119,2.083-0.294c0.458-0.44,0.162-0.895-0.215-1.292c-1.519-1.591-1.679-8.585-0.797-10.318
				c0.163-0.318,0.35-0.597,0.545-0.805c0.734-0.784,2.259-1.286,4.151-1.602c4.924-0.824,12.343-0.389,14.834-0.389l9.649,0.277
				c6.556-0.229,5.293,0.788,4.743,9.865c-0.098,1.611-1.258,2.754-4.058,2.54c-1.365,0.157-2.721-0.021-4.091-0.065
				c-1.021-0.039-2.033-0.051-3.07-0.051c-0.762,0.092-1.372,0.233-1.707,0.562c-0.781,0.749-0.458,1.218,0.12,1.478
				c0.139,0.062,15.203,0.379,15.251,0.369c0.805,0.091,1.651,0.12,2.084-0.292c0.751-0.723-0.53-1.488-0.86-1.956
				c-0.337-0.472-0.414-1.146-0.33-1.838c0.389-3.199,0.449-7.979,2.137-12.375c6.126-15.957,4.344-32.528-0.137-48.484
				c-0.655-3.376-2.756-5.745,1.585-5.98c5.436-0.648,27.824,6.762,18.94,11.942c-4.357,2.625-7.394,7.512-7.406,7.532
				c-0.486,0.747-0.259,1.751,0.486,2.236c0.744,0.485,1.745,0.273,2.243-0.48c0.008-0.024,3.677-5.899,8.05-7.342
				c-0.105,0.215-0.157,0.444-0.162,0.688c0.005,0.009-0.072,4.479-3.228,5.455c-0.857,0.271-1.338,1.184-1.063,2.037
				c0.268,0.854,1.178,1.332,2.04,1.069c4.346-1.354,5.247-6.064,5.425-7.82c3.119,4.437-1.722,12.892-1.747,12.911
				c-0.437,0.788-0.156,1.779,0.632,2.22c0.777,0.429,1.77,0.149,2.202-0.627c2.648-4.139,3.632-9.128,2.376-13.857
				c-3.245-12.188-18.066-19.15-28.153-20.443c-5.635-0.722-5.806-3.979-7.727-8.338c-3.206-7.277-7.872-13.323-14.56-13.323
				c-3.742-0.001-7.061,1.847-9.073,4.684c-0.868,1.214-1.692,2.753-2.39,4.449C75.381,68.227,78.964,73.38,68.622,68.449z"/>
			<path style="fill-rule:evenodd;clip-rule:evenodd;fill:#FFFFFF;" d="M94.421,73.948c-4.818,2.543-10.783,0.701-13.329-4.11
				c-2.545-4.813-0.71-10.786,4.105-13.33c4.819-2.542,10.785-0.7,13.331,4.113C101.066,65.437,99.231,71.405,94.421,73.948z"/>
			<path style="fill-rule:evenodd;clip-rule:evenodd;" d="M87.086,68.486c-1.301,0.687-2.927,0.188-3.622-1.121
				c-0.694-1.31-0.19-2.932,1.12-3.628c1.311-0.688,2.93-0.19,3.617,1.118C88.901,66.168,88.399,67.792,87.086,68.486z"/>
			<path style="fill-rule:evenodd;clip-rule:evenodd;fill:#FFFFFF;" d="M33.757,15.745c-6.297,0-11.407,5.111-11.407,11.407
				s5.109,11.407,11.407,11.407c6.299,0,11.408-5.111,11.408-11.407C45.165,20.854,40.056,15.749,33.757,15.745z"/>
			<circle style="fill-rule:evenodd;clip-rule:evenodd;" cx="27.061" cy="27.833" r="3.411"/>
		</g>
		<path style="fill-rule:evenodd;clip-rule:evenodd;" d="M101.216,107.163c1.14-0.384,3.432-1.17,4.341,0.02
			c0.195,0.261,0.254,0.649,0.239,1.249c-0.072,2.371-1.413,5.209-2.648,7.209c-1.502,2.43-3.282,3.885-5.349,5.145
			c-6.117,3.761-12.524,4.325-19.477,2.705c-5.621-1.309-10.497-3.808-14.979-8.626c-2.569-2.765-5.306-6.627-6.41-10.589
			c-0.339-1.217-0.521-2.438-0.495-3.643c0.012-0.777,0.125-1.597,0.377-2.636c0.505-1.22,0.867-1.909,1.332-2.201
			c0.838-0.527,2.243,0.323,2.97,0.821c0.978,0.661,1.882,1.469,2.765,2.295c1.954,1.837,3.957,3.624,6.102,5.251
			c4.333,3.283,8.857,5.446,14.803,6.018C90.116,110.686,96.248,108.996,101.216,107.163z"/>
		<polygon style="fill-rule:evenodd;clip-rule:evenodd;fill:#FFFFFF;" points="61.082,95.901 59.626,101.838 64.915,98.992 		"/>
		<polygon style="fill-rule:evenodd;clip-rule:evenodd;fill:#FFFFFF;" points="66.617,100.479 65.379,106.611 70.783,103.929 		"/>
		<polygon style="fill-rule:evenodd;clip-rule:evenodd;fill:#FFFFFF;" points="73.835,106.143 73.069,111.606 78.136,108.095 		"/>
		<polygon style="fill-rule:evenodd;clip-rule:evenodd;fill:#FFFFFF;" points="81.159,109.236 83.268,114.671 86.417,109.617 		"/>
		<polygon style="fill-rule:evenodd;clip-rule:evenodd;fill:#FFFFFF;" points="89.515,109.661 92.719,114.216 94.167,108.926 		"/>
		<polygon style="fill-rule:evenodd;clip-rule:evenodd;fill:#FFFFFF;" points="98.151,107.86 101.67,111.77 102.729,106.325 		"/>
		<polygon style="fill-rule:evenodd;clip-rule:evenodd;fill:#FFFFFF;" points="103.9,115.629 99.426,113.8 100.405,119.598 		"/>
		<polygon style="fill-rule:evenodd;clip-rule:evenodd;fill:#FFFFFF;" points="97.41,121.817 92.89,117.913 91.976,123.961 		"/>
		<polygon style="fill-rule:evenodd;clip-rule:evenodd;fill:#FFFFFF;" points="88.355,124.656 85.234,119.158 83.071,124.876 		"/>
		<polygon style="fill-rule:evenodd;clip-rule:evenodd;fill:#FFFFFF;" points="78.38,124.375 77.88,118.133 73.318,122.702 		"/>
		<polygon style="fill-rule:evenodd;clip-rule:evenodd;fill:#FFFFFF;" points="69.817,120.622 71.095,114.974 65.567,117.721 		"/>
		<polygon style="fill-rule:evenodd;clip-rule:evenodd;fill:#FFFFFF;" points="63.464,115.484 65.827,110.26 59.995,111.665 		"/>
		<polygon style="fill-rule:evenodd;clip-rule:evenodd;fill:#FFFFFF;" points="58.83,109.918 63.062,105.687 56.625,105.095 		"/>
		<path style="fill-rule:evenodd;clip-rule:evenodd;fill:#5DA09C;" d="M101.216,107.163c-4.968,1.83-11.102,3.522-16.429,3.018
			c-5.944-0.571-10.47-2.734-14.803-6.018c-2.148-1.627-4.147-3.414-6.102-5.251c-0.883-0.828-1.781-1.633-2.765-2.295
			c-0.728-0.498-2.132-1.348-2.97-0.821c-0.465,0.289-0.827,0.981-1.332,2.201c-0.251,1.039-0.366,1.858-0.377,2.636
			c-0.023,1.205,0.154,2.427,0.495,3.643c1.106,3.962,3.848,7.824,6.41,10.589c4.482,4.818,9.358,7.319,14.979,8.626
			c6.952,1.62,13.359,1.059,19.477-2.705c2.066-1.26,3.845-2.714,5.349-5.145c1.235-2,2.576-4.838,2.648-7.209
			c0.015-0.602-0.045-0.988-0.239-1.249C104.647,105.993,102.355,106.779,101.216,107.163L101.216,107.163L101.216,107.163z
			 M54.651,97.109c0.502-1.215,1.088-2.566,2.253-3.294c1.83-1.161,3.928-0.22,5.528,0.857c1.096,0.75,2.091,1.63,3.053,2.537
			c1.896,1.779,3.841,3.515,5.909,5.089c4.181,3.163,8.33,5.046,13.612,5.55c4.954,0.473,10.782-1.179,15.398-2.881l0.035-0.014
			l0.028-0.013c0.702-0.238,1.402-0.451,2.139-0.596c1.766-0.331,3.643-0.113,4.813,1.425c0.611,0.805,0.741,1.746,0.712,2.722
			c-0.089,2.842-1.517,5.987-2.991,8.379c-1.599,2.583-3.555,4.345-6.114,5.913c-6.667,4.096-13.703,4.744-21.235,2.982
			c-6.446-1.501-11.624-4.429-16.161-9.313c-2.964-3.188-5.776-7.317-6.956-11.555c-0.384-1.399-0.604-2.853-0.578-4.313
			c0.019-1.067,0.198-2.103,0.446-3.139l0.045-0.171L54.651,97.109z"/>
	</g>
</g>
<g id="Layer_1">
</g>
</svg>
