<?xml version="1.0" encoding="iso-8859-1"?>
<!-- Generator: Adobe Illustrator 16.0.0, SVG Export Plug-In . SVG Version: 6.00 Build 0)  -->
<!DOCTYPE svg PUBLIC "-//W3C//DTD SVG 1.1//EN" "http://www.w3.org/Graphics/SVG/1.1/DTD/svg11.dtd">
<svg version="1.1" xmlns="http://www.w3.org/2000/svg" xmlns:xlink="http://www.w3.org/1999/xlink" x="0px" y="0px" width="150px"
	 height="150px" viewBox="0 0 150 150" style="enable-background:new 0 0 150 150;" xml:space="preserve">
<g id="_x30_3_x5F_02">
	<rect style="fill:none;" width="150" height="150"/>
	<g>
		<path style="fill-rule:evenodd;clip-rule:evenodd;fill:#4D7D3A;" d="M61.368,84.943c-1.476-8.998-6.302-16.608-14.278-22.33
			c-0.26-0.186-0.32-0.548-0.134-0.808c0.186-0.26,0.548-0.319,0.808-0.133c8.917,6.397,12.836,14.616,14.559,20.663
			c0.798,2.81,1.102,0.738,0.712-0.709c-1.59-5.889-5.354-14.134-14.265-20.526c-0.259-0.186-0.319-0.547-0.133-0.808
			c0.187-0.26,0.548-0.319,0.808-0.134C58.051,66.334,62,74.206,63.813,80.185c0.551,1.817,0.952,0.088,0.725-0.702
			c-1.687-5.838-5.492-13.728-14.087-19.895c-0.26-0.187-0.32-0.547-0.134-0.808c0.186-0.26,0.548-0.319,0.808-0.134
			c8.246,5.916,12.217,13.39,14.13,19.263c0.556,1.708,0.917,0.439,0.613-0.544c-1.787-5.753-5.625-13.254-13.87-19.169
			c-0.26-0.186-0.32-0.547-0.134-0.807c0.186-0.26,0.547-0.32,0.808-0.134c8.123,5.827,12.096,13.164,14.042,18.997
			c0.541,1.621,0.98,0.291,0.677-0.633c-1.867-5.709-5.692-13.029-13.593-18.834c-0.257-0.188-0.313-0.55-0.125-0.807
			c0.189-0.257,0.551-0.313,0.808-0.125c7.911,5.813,11.856,13.095,13.839,18.899c0.47,1.375,0.802,0.3,0.52-0.556
			c-1.878-5.696-5.703-12.969-13.563-18.742c-0.258-0.189-0.313-0.551-0.125-0.808c0.188-0.258,0.55-0.313,0.808-0.125
			c7.833,5.754,11.777,12.951,13.78,18.726c0.62,1.79,1.751,0.016,1.465-0.865c-1.848-5.73-5.67-13.131-13.642-18.987
			c-0.257-0.188-0.313-0.55-0.125-0.808c0.189-0.257,0.551-0.313,0.808-0.123c7.548,5.545,11.488,12.432,13.554,18.093
			c0.975,2.666,1.928,1.477,1.211-0.631c-1.907-5.612-5.764-12.625-13.562-18.22c-0.26-0.185-0.32-0.547-0.134-0.808
			c0.187-0.26,0.548-0.319,0.808-0.132c7.879,5.651,11.854,12.723,13.86,18.465c0.822,2.353,1.312,1.736,0.642-0.301
			c-1.865-5.667-5.719-12.858-13.68-18.57c-0.259-0.187-0.32-0.547-0.134-0.807c0.186-0.26,0.548-0.319,0.808-0.134
			c8.07,5.79,12.044,13.068,14.002,18.882c0.799,2.369,1.491,1.681,0.849-0.372c-1.799-5.741-5.642-13.197-13.844-19.082
			c-0.259-0.187-0.319-0.547-0.133-0.808c0.186-0.26,0.548-0.32,0.808-0.133c8.566,6.144,12.519,13.969,14.342,19.936
			c0.533,1.741,1.324,1.121,0.903-0.382c-1.643-5.864-5.43-13.917-14.171-20.187c-0.259-0.186-0.32-0.548-0.132-0.808
			c0.186-0.259,0.547-0.319,0.807-0.133c8.77,6.291,12.704,14.343,14.47,20.36c0.588,2.003,1.255,1.603,0.762-0.246
			c-1.574-5.896-5.331-14.197-14.291-20.625c-0.261-0.187-0.319-0.548-0.134-0.808c0.186-0.26,0.548-0.319,0.808-0.133
			c9.314,6.683,13.174,15.352,14.774,21.458c0.436,1.667,1.392,1.208,1.034-0.342c-1.365-5.924-4.989-14.976-14.6-21.87
			c-0.26-0.186-0.32-0.547-0.133-0.808c0.186-0.26,0.547-0.319,0.808-0.133c9.955,7.143,13.68,16.555,15.073,22.681
			c0.338,1.488,1.043,1.091,0.763-0.317c-1.168-5.857-4.622-15.613-14.83-22.936c-0.259-0.186-0.319-0.548-0.134-0.808
			c0.187-0.259,0.549-0.319,0.809-0.133c10.584,7.593,14.125,17.751,15.31,23.801c0.285,1.449,0.995,1.308,0.755-0.181
			c-0.914-5.628-4.08-16.316-15.058-24.191c-0.26-0.187-0.32-0.548-0.135-0.807c0.188-0.261,0.549-0.32,0.809-0.135
			c11.519,8.264,14.696,19.565,15.573,25.301c0.185,1.222,0.731,1.408,0.571-0.013c-0.565-4.98-3.182-17.064-15.271-25.739
			c-0.261-0.186-0.32-0.547-0.134-0.807c0.186-0.26,0.547-0.32,0.807-0.134c12.524,8.984,15.188,21.561,15.755,26.67
			c0.153,1.391,0.035,1.133,1.128,1.885c2.711,1.864-3.203,2.803,5.21,2.803c7.083,0,13.411,3.231,17.595,8.299
			c3.254,3.942,5.208,8.995,5.208,14.505c0,8.769-4.954,16.383-12.216,20.198c1.474,0.91,3.507,1.541,6.201,1.827
			c5.47-5.175,9.781-10.227,13.346-16.867c1.345-2.495,2.659-3.592,1.868-6.349c-1.911-6.748-7.539-4.03-8.002-6.717
			c-0.232-1.337,0.207-3.479,1.479-4.191c1.442-0.83,3.947-0.199,5.014,4.583c0.247,1.115,1.229,1.87,2.134,2.607
			c0.643,0.503,1.111,0.621,1.489,0.448c0.808-0.372,1.998-1.969,2.443-3.935c0.234-1.443,0.394-11.545,2.515-12.823
			c1.563-0.93,4.498-0.267,4.77,1.667c0.266,1.904-1.409,3.865-2.406,5.318c-1.37,1.959-3.926,6.949-3.195,7.682
			c0.677,0.695,0.744,0.269,1.643-0.496c0.92-0.764,4.742-5.678,5.335-6.516c1.347-1.829,2.751-4.576,5.275-3.381
			c5.272,2.479-2.979,6.795-5.187,8.229c-3.063,2.233-4.671,3.754-7.363,6.43c-0.978,1.068-3.349,5.107-5.07,8.14
			c-3.812,6.653-8.193,12.863-12.68,19.056c-1.427,1.984-1.179,1.983-3.54,1.402l-8.772-2.159c-0.757-0.188-1.497-0.202-2.211-0.086
			c1.238,8.021-1.704,14.387-4.061,20.194c-1.639,4.021-3.441,9.206,1.976,9.839c1.224,0.144,2.445-0.014,3.682-0.056
			c0.918-0.034,1.836-0.048,2.762-0.048c0.698,0.088,1.246,0.216,1.546,0.505c0.707,0.676,0.412,1.102-0.112,1.331
			c-0.558,0.253-1.119,0.226-1.686,0.122c-0.562-0.101-1.063-0.17-1.56-0.206c-2.744-0.202-5.78-0.034-8.523,0.354
			c-0.993,0.142-2.15,0.263-2.697-0.265c-0.815-0.791,0.577-1.625,0.942-2.136c0.452-0.638,0.477-1.606,0.271-2.533
			c-2.207-9.934-14.229-1.551-24.839-1.498c-3.157,0.01-5.872-1.905-7.7,0.041c-0.946,1.01-1.724,3.572-0.833,4.833
			c0.364,0.515,1.765,1.344,0.945,2.135c-0.543,0.534-1.704,0.408-2.697,0.271c-2.739-0.388-5.779-0.561-8.524-0.35
			c-0.495,0.026-0.992,0.098-1.559,0.202c-0.567,0.102-1.128,0.13-1.686-0.124c-0.524-0.235-0.819-0.654-0.116-1.334
			c0.304-0.286,0.856-0.416,1.545-0.5c0.931-0.002,1.85,0.013,2.767,0.051c1.236,0.036,2.458,0.195,3.685,0.053
			c3.339-0.391,3.105-1.542,3.293-5.03c0.074-1.395-0.123-2.439-0.821-3.082c-0.651-0.608-1.283-1.203-1.883-1.794
			c-2.481-2.442-3.749-5.889-4.092-9.771c-7.028-3.377-12.643-6.799-18.943-14.289c-2.246-2.649-4.203-5.315-6.292-8.101
			c-2.189-2.918-4.82-6.321-5.904-7.253c-3.245-2.56-5.193-4.014-8.796-6.035c-2.571-1.288-11.994-4.896-6.739-8.306
			c2.529-1.634,4.429,1.181,6.127,3.003c0.762,0.833,5.568,5.685,6.646,6.398c1.078,0.718,1.204,1.182,1.826,0.325
			c0.673-0.895-2.771-5.996-4.529-7.962c-1.279-1.453-3.338-3.367-3.35-5.485c0.005-2.146,3.062-3.25,4.864-2.441
			c2.449,1.113,4.092,12.111,4.548,13.658c0.759,2.09,2.271,3.664,3.184,3.965c0.424,0.135,0.917-0.049,1.522-0.695
			c0.866-0.91,1.811-1.869,1.902-3.115c0.441-5.346,3.032-6.373,4.692-5.671c1.458,0.622,2.244,2.896,2.182,4.382
			c-0.117,2.998-6.495,0.779-7.569,8.393c-0.326,2.305,0.46,3.467,1.616,4.948c2.042,2.632,3.927,5.43,6.04,7.986
			c2.884,3.486,6.21,5.681,9.74,7.388c-3.276-3.229-5.307-7.717-5.307-12.68c0-7.371,4.547-14.531,10.92-17.026
			c2.614-1.022,5.375-1.146,7.992-0.829C62.254,89.321,62.259,90.367,61.368,84.943z"/>
		<path style="fill-rule:evenodd;clip-rule:evenodd;" d="M94.857,130.769c0.69-1.142,1.93-4.741,2.483-7.615
			c1.408-7.297-4.446-6.148-9.064-4.351c-4.771,1.858-10.33,4.719-12.06,5.519c-6.656,3.084-11.063,3.65-18.075,3.92
			c-4.122,0.159-7.551,1.118-2.639,5.579c2.207,2.006,5.457,3.369,9.174,3.896c3.721,0.53,7.848,0.547,11.745,0.239
			c4.508-0.355,8.7-1.155,11.553-2.113C90.93,134.852,93.415,133.164,94.857,130.769z"/>
		<path style="fill-rule:evenodd;clip-rule:evenodd;fill:#FFFFFF;" d="M94.857,130.769c0.051-0.084,0.101-0.167,0.147-0.251
			l-0.021-0.397c-0.042-0.843-0.766-1.504-1.614-1.463l-0.767,0.043c-0.851,0.042-1.503,0.77-1.462,1.618l0.177,3.558l0.648-0.032
			C93.145,132.997,94.133,131.972,94.857,130.769L94.857,130.769z M58.552,135.876c1.188,0.594,2.51,1.071,3.927,1.418l-0.165-3.207
			c-0.041-0.847-0.768-1.508-1.61-1.468l-0.778,0.045c-0.844,0.04-1.498,0.769-1.457,1.616L58.552,135.876L58.552,135.876z
			 M66.39,137.922c1.262,0.125,2.558,0.198,3.865,0.225l-0.132-2.685c-0.044-0.844-0.771-1.504-1.618-1.463l-0.767,0.042
			c-0.851,0.04-1.508,0.771-1.463,1.613L66.39,137.922L66.39,137.922z M73.251,138.131c1.064-0.032,2.125-0.091,3.17-0.175
			c0.225-0.016,0.45-0.035,0.675-0.056l-0.128-2.479c-0.041-0.849-0.767-1.503-1.615-1.461l-0.766,0.043
			c-0.844,0.039-1.502,0.769-1.462,1.612L73.251,138.131L73.251,138.131z M79.884,137.591c1.342-0.179,2.626-0.394,3.819-0.637
			l-0.118-2.289c-0.04-0.848-0.761-1.504-1.608-1.463l-0.773,0.039c-0.843,0.044-1.501,0.774-1.457,1.617L79.884,137.591
			L79.884,137.591z M85.945,136.439c0.732-0.19,1.412-0.39,2.028-0.597c0.609-0.205,1.197-0.438,1.763-0.702l-0.105-2.016
			c-0.04-0.843-0.771-1.502-1.613-1.458l-0.773,0.04c-0.842,0.042-1.501,0.77-1.457,1.611L85.945,136.439z"/>
		<path style="fill-rule:evenodd;clip-rule:evenodd;fill:#FFFFFF;" d="M56.501,122.376c8.68,0,15.759-7.08,15.759-15.761
			c0-8.679-7.079-15.758-15.759-15.758c-8.68,0-15.759,7.079-15.759,15.758C40.743,115.296,47.822,122.376,56.501,122.376z"/>
		<path style="fill-rule:evenodd;clip-rule:evenodd;" d="M59.396,107.813c3,0,5.447-2.448,5.447-5.447
			c0-3.001-2.447-5.447-5.447-5.447c-3.001,0-5.447,2.446-5.447,5.447C53.949,105.364,56.396,107.813,59.396,107.813z"/>
		<path style="fill-rule:evenodd;clip-rule:evenodd;fill:#FFFFFF;" d="M95.544,113.79c11.489,0,20.861-9.372,20.861-20.86
			c0-11.49-9.372-20.861-20.861-20.861s-20.86,9.371-20.86,20.861C74.684,104.418,84.055,113.79,95.544,113.79z"/>
		<path style="fill-rule:evenodd;clip-rule:evenodd;" d="M100.282,90.716c3.001,0,5.448-2.447,5.448-5.447
			c0-3.001-2.447-5.447-5.448-5.447c-2.999,0-5.446,2.446-5.446,5.447C94.836,88.269,97.283,90.716,100.282,90.716z"/>
	</g>
</g>
<g id="Layer_1">
</g>
</svg>
