<?xml version="1.0" encoding="iso-8859-1"?>
<!-- Generator: Adobe Illustrator 16.0.0, SVG Export Plug-In . SVG Version: 6.00 Build 0)  -->
<!DOCTYPE svg PUBLIC "-//W3C//DTD SVG 1.1//EN" "http://www.w3.org/Graphics/SVG/1.1/DTD/svg11.dtd">
<svg version="1.1" xmlns="http://www.w3.org/2000/svg" xmlns:xlink="http://www.w3.org/1999/xlink" x="0px" y="0px" width="150px"
	 height="150px" viewBox="0 0 150 150" style="enable-background:new 0 0 150 150;" xml:space="preserve">
<g id="_x30_3_x5F_05">
	<rect style="fill:none;" width="150" height="150"/>
	<g>
		<path style="fill-rule:evenodd;clip-rule:evenodd;fill:#47873F;" d="M122.106,106.06c-3.94,6.135-5.363,6.929,1.42,12.8
			c0.4,0.353,0.72,0.665,0.994,0.92c0,0,0.873,0.883,1.346,1.296c1.672,1.478,2.271,2.688,4.524,2.581
			c5.516-0.258,4.44-5.042,6.588-4.916c1.067,0.063,2.622,0.781,2.946,1.878c0.371,1.261-0.566,3.064-4.415,3.017
			c-0.901-0.012-1.656,0.608-2.375,1.168c-0.507,0.4-0.683,0.744-0.621,1.057c0.138,0.687,1.148,1.89,2.573,2.581
			c1.063,0.439,8.771,2.383,9.364,4.24c0.436,1.356-0.602,3.496-2.13,3.351c-1.51-0.147-2.709-1.776-3.646-2.803
			c-1.251-1.406-4.613-4.257-5.307-3.831c-0.655,0.401-0.338,0.522,0.087,1.355c0.422,0.826,3.497,4.642,4.024,5.255
			c1.162,1.36,3.021,2.925,1.646,4.645c-2.854,3.583-4.665-3.503-5.374-5.455c-1.149-2.746-2.028-4.259-3.59-6.79
			c-0.954-1.409-6.399-6.34-7.477-7.375l-0.011-0.011l-0.006-0.005l-0.005-0.004c-0.061-0.056-0.103-0.1-0.131-0.128v-0.005
			l-0.183-0.177c-5.336-5.228-4.202-8.458-10.21-4.025c-3.937,2.902-7.225,5.541-8.193,9.721c-1.308,5.63-0.091,13.558,0.416,19.199
			c6.952-0.469,14.841-1.214,19.507-1.214c6.103,0,4.989,5.187-1.114,5.187c-5.999,0-15.393,0-19.446,0
			c-1.09,0-1.97-0.874-1.972-1.97c0-7.738-0.289-14.018-1.588-21.633c-0.855-4.994-1.553-3.306-7.975-3.305
			c-1.164,0-2.386-0.065-3.639-0.167c-1.693-0.065-3.356-0.235-4.987-0.506c-6.925-0.758-13.822-1.394-16.879,2.793
			c-3.862,5.296-2.609,15.258-2.071,21.246c6.952-0.469,14.84-1.215,19.507-1.215c6.102,0,4.988,5.186-1.115,5.186
			c-5.999,0-15.392,0-19.448,0c-1.087,0-1.969-0.873-1.969-1.966c0-13.657,0.584-17.663-1.769-24.865
			c-3.618-11.078-3.015-6.778-8.351,0.59l-0.149,0.204l-0.001,0.003c-0.022,0.033-0.057,0.084-0.106,0.149l-0.005,0.005
			l-0.004,0.005l-0.009,0.014c-0.889,1.199-5.427,6.976-6.131,8.524c-1.113,2.759-1.725,4.398-2.398,7.299
			c-0.371,2.043-0.963,9.332-4.38,6.28c-1.644-1.464-0.076-3.318,0.841-4.855c0.418-0.692,2.806-4.971,3.084-5.855
			c0.28-0.895,0.57-1.065-0.142-1.351c-0.757-0.305-3.589,3.071-4.588,4.667c-0.751,1.172-1.658,2.978-3.122,3.377
			c-1.481,0.398-2.865-1.534-2.664-2.945c0.275-1.929,7.545-5.143,8.521-5.752c1.288-0.922,2.081-2.278,2.101-2.979
			c0.009-0.319-0.221-0.629-0.789-0.938c-0.802-0.431-1.651-0.916-2.539-0.752c-3.785,0.695-5.014-0.926-4.859-2.229
			c0.135-1.137,1.547-2.108,2.59-2.35c2.094-0.483,1.838,4.412,7.32,3.741c2.238-0.275,2.625-1.57,4.028-3.307
			c0.393-0.486,1.106-1.504,1.106-1.504c0.228-0.298,0.49-0.656,0.825-1.073c1.174-1.426,2.205-3.155,3.072-5.074
			c2.764-6.104,1.845-5.506-0.504-11.458c-2.491-6.299-1.182-8.457-8.519-6.599c-2.358,0.598-4.672,1.686-6.775,4.094
			c-1.277,1.464-2.346,3.189-3.185,5.1c-1.514,3.443-1.18,2.801,0.553,5.345c1.848,2.717,1.147,6.421-1.571,8.271
			c-2.717,1.853-6.423,1.15-8.274-1.568c-1.85-2.718-1.148-6.423,1.568-8.273c2.525-1.72,2.068-2.019,3.327-5.062
			c1.052-2.552,2.448-4.864,4.152-6.816c2.284-2.615,5.484-3.753,8.764-4.556c5.114-1.253,6.351,0.138,5.461-5.123
			c-0.171-1.012-0.305-1.992-0.399-2.931c-0.348-3.515-0.086-3.87-4.166-3.149c-1.916,0.342-3.83,1.015-5.682,1.976
			c-3.338,1.735-2.677,1.438-2.921,4.509c-0.264,3.276-3.135,5.722-6.414,5.458c-3.277-0.263-5.722-3.137-5.459-6.414
			c0.265-3.274,3.136-5.721,6.413-5.457c3.041,0.243,2.876-0.274,5.761-1.855c2.424-1.326,4.963-2.253,7.514-2.704
			c2.559-0.455,4.773,1.37,5.362-1.184c0.104-0.443,0.22-0.875,0.348-1.291c0.679-2.219,0.147-1.674-2.148-2.063
			c-4.194-0.71-7.713-0.958-11.09-0.609c-5.516,0.569-10.917,2.766-18.604,7.178c-2.13,1.221-1.227,0.697-1.584,2.809
			c-0.439,2.585-2.563,4.662-5.301,4.928c-3.273,0.314-6.183-2.082-6.5-5.355c-0.315-3.273,2.081-6.186,5.353-6.498
			c0.809-0.08,1.594,0.006,2.322,0.23c2.209,0.683,1.636,0.956,3.871-0.317c8.043-4.577,13.845-6.872,19.988-7.507
			c4.169-0.431,8.374-0.083,13.445,0.843c1.124,0.206,2.892,1.069,3.667,0.183c1.299-1.479,0.4-1.729-1.023-2.33
			c-2.338-0.986-4.45-1.707-6.627-2.268c-1.081-0.277-2.184-0.52-3.344-0.733c-3.658-0.678-4.376-1.307-6.963,0.874
			c-1.07,0.902-2.464,1.431-3.973,1.396c-3.287-0.077-5.89-2.807-5.814-6.094c0.078-3.288,2.805-5.891,6.092-5.812
			c1.908,0.042,3.585,0.98,4.643,2.402c1.915,2.577,2.578,2,5.99,2.59c1.567,0.27,3.037,0.579,4.493,0.953
			c10.224,2.629,7.034,4.474,13.394-3.719c7.27-9.359,18.63-15.384,31.396-15.384c21.938,0,39.728,17.791,39.728,39.729
			C129.418,91.267,126.627,99.018,122.106,106.06z"/>
		<circle style="fill-rule:evenodd;clip-rule:evenodd;fill:#FFFFFF;" cx="8.544" cy="83.67" r="5.014"/>
		<circle style="fill-rule:evenodd;clip-rule:evenodd;fill:#FFFFFF;" cx="28.469" cy="90.464" r="5.016"/>
		<circle style="fill-rule:evenodd;clip-rule:evenodd;fill:#FFFFFF;" cx="29.603" cy="62.275" r="5.014"/>
		<path style="fill-rule:evenodd;clip-rule:evenodd;fill:#020202;" d="M26.049,60.519c0.661-0.662,1.73-0.658,2.388,0.001
			c0.659,0.659,0.659,1.726,0,2.386c-0.658,0.657-1.728,0.658-2.385,0C25.392,62.247,25.391,61.175,26.049,60.519z"/>
		<path style="fill-rule:evenodd;clip-rule:evenodd;fill:#020202;" d="M7.44,79.605c0.66-0.662,1.729-0.662,2.387-0.002
			c0.659,0.658,0.658,1.727-0.002,2.386c-0.658,0.657-1.726,0.659-2.385,0C6.782,81.33,6.782,80.262,7.44,79.605z"/>
		<circle style="fill-rule:evenodd;clip-rule:evenodd;fill:#020202;" cx="30.602" cy="89.059" r="1.687"/>
		<circle style="fill-rule:evenodd;clip-rule:evenodd;fill:#FFFFFF;" cx="29.287" cy="116.883" r="5.014"/>
		<circle style="fill-rule:evenodd;clip-rule:evenodd;fill:#020202;" cx="30.375" cy="119.061" r="1.687"/>
		<path style="fill-rule:evenodd;clip-rule:evenodd;fill:#020202;" d="M63.175,90.172c-0.083-0.8-0.256-2.424-1.242-2.639
			c-0.211-0.049-0.465,0.025-0.825,0.205c-1.436,0.717-2.786,2.334-3.657,3.654c-1.056,1.608-1.444,3.104-1.633,4.723
			c-0.561,4.805,0.902,8.88,3.864,12.667c2.387,3.064,5.292,5.335,9.507,6.706c2.413,0.785,5.549,1.369,8.28,0.92
			c0.84-0.137,1.641-0.369,2.367-0.725c0.473-0.231,0.936-0.53,1.501-0.979c0.603-0.651,0.925-1.074,0.97-1.438
			c0.086-0.659-0.829-1.277-1.339-1.584c-0.684-0.409-1.432-0.73-2.189-1.034c-1.674-0.68-3.333-1.393-4.931-2.24
			c-3.234-1.719-5.836-3.872-7.866-7.344C64.162,97.953,63.461,93.733,63.175,90.172z"/>
		<polygon style="fill-rule:evenodd;clip-rule:evenodd;fill:#FFFFFF;" points="81.411,111.503 78.196,114.077 78.438,110.034 		"/>
		<polygon style="fill-rule:evenodd;clip-rule:evenodd;fill:#FFFFFF;" points="77.048,109.421 73.656,111.913 73.759,107.848 		"/>
		<polygon style="fill-rule:evenodd;clip-rule:evenodd;fill:#FFFFFF;" points="64.962,98.032 61.272,97.361 64.09,94.981 		"/>
		<polygon style="fill-rule:evenodd;clip-rule:evenodd;fill:#FFFFFF;" points="63.614,92.246 60.235,91.201 63.26,89.016 		"/>
		<polygon style="fill-rule:evenodd;clip-rule:evenodd;fill:#FFFFFF;" points="57.244,90.934 59.625,93.146 55.81,94.19 		"/>
		<polygon style="fill-rule:evenodd;clip-rule:evenodd;fill:#FFFFFF;" points="56.129,102.981 60.372,103.337 57.493,106.273 		"/>
		<polygon style="fill-rule:evenodd;clip-rule:evenodd;fill:#FFFFFF;" points="59.121,108.998 63.078,107.538 61.572,111.616 		"/>
		<polygon style="fill-rule:evenodd;clip-rule:evenodd;fill:#FFFFFF;" points="63.836,113.167 66.929,110.782 66.817,114.94 		"/>
		<polygon style="fill-rule:evenodd;clip-rule:evenodd;fill:#FFFFFF;" points="73.488,116.848 74.874,113.067 77.059,116.833 		"/>
		<path style="fill-rule:evenodd;clip-rule:evenodd;fill:#47873F;" d="M82.489,115.775l-0.079,0.089l-0.094,0.071
			c-0.56,0.448-1.144,0.85-1.789,1.162c-0.884,0.431-1.832,0.704-2.801,0.865c-2.921,0.481-6.236-0.069-9.027-0.977
			c-4.263-1.391-7.518-3.721-10.261-7.233c-3.206-4.106-4.796-8.588-4.187-13.82c0.237-2.004,0.758-3.702,1.88-5.403
			c1.045-1.582,2.56-3.345,4.272-4.199c0.592-0.297,1.203-0.486,1.868-0.338c1.271,0.278,1.932,1.363,2.227,2.537
			c0.128,0.488,0.189,0.977,0.245,1.475v0.022l0,0.022c0.268,3.306,0.909,7.328,2.599,10.221c1.804,3.085,4.125,5.088,7.247,6.746
			c1.543,0.823,3.154,1.515,4.778,2.17c0.825,0.333,1.643,0.688,2.409,1.147c1.113,0.672,2.279,1.688,2.094,3.133
			C83.751,114.381,83.097,115.124,82.489,115.775L82.489,115.775L82.489,115.775z M61.933,87.533
			c-0.211-0.049-0.465,0.025-0.825,0.205c-1.436,0.717-2.786,2.334-3.657,3.654c-1.056,1.608-1.444,3.104-1.633,4.723
			c-0.561,4.805,0.902,8.88,3.864,12.667c2.387,3.064,5.292,5.335,9.507,6.706c2.413,0.785,5.549,1.369,8.28,0.92
			c0.84-0.137,1.641-0.369,2.367-0.725c0.473-0.231,0.936-0.53,1.501-0.979c0.603-0.651,0.925-1.074,0.97-1.438
			c0.086-0.659-0.829-1.277-1.339-1.584c-0.684-0.409-1.432-0.73-2.189-1.034c-1.674-0.68-3.333-1.393-4.931-2.24
			c-3.234-1.719-5.836-3.872-7.866-7.344c-1.82-3.11-2.521-7.33-2.808-10.892C63.092,89.372,62.919,87.748,61.933,87.533
			L61.933,87.533z"/>
		<path style="fill-rule:evenodd;clip-rule:evenodd;fill:#FFFFFF;" d="M94.106,52.293c15.338,0,27.775,12.437,27.775,27.773
			c0,15.337-12.438,27.776-27.775,27.776S66.332,95.403,66.332,80.066C66.332,64.73,78.769,52.293,94.106,52.293z"/>
		<circle style="fill-rule:evenodd;clip-rule:evenodd;" cx="77.287" cy="69.42" r="4.937"/>
	</g>
</g>
<g id="Layer_1">
</g>
</svg>
