<?xml version="1.0" encoding="iso-8859-1"?>
<!-- Generator: Adobe Illustrator 16.0.0, SVG Export Plug-In . SVG Version: 6.00 Build 0)  -->
<!DOCTYPE svg PUBLIC "-//W3C//DTD SVG 1.1//EN" "http://www.w3.org/Graphics/SVG/1.1/DTD/svg11.dtd">
<svg version="1.1" xmlns="http://www.w3.org/2000/svg" xmlns:xlink="http://www.w3.org/1999/xlink" x="0px" y="0px" width="150px"
	 height="150px" viewBox="0 0 150 150" style="enable-background:new 0 0 150 150;" xml:space="preserve">
<g id="_x30_3_x5F_04_x5F_black">
	<rect style="fill:none;" width="150" height="150"/>
	<g>
		<path d="M81.331,149c-2.476,0-3.812-1.341-3.812-2.603c0-1.105,0.991-2.22,3.205-2.22c1.815,0,4.438,0.199,7.214,0.41
			c0.823,0.063,1.654,0.125,2.471,0.184c0.445-5.496,0.429-10.848-0.047-16.752c-0.052-0.64-0.114-1.399-0.179-2.035
			c-0.826,0.764-2.143,1.653-4.149,1.653c-0.604,0-1.242-0.081-1.901-0.241c-10.962-0.595-15.829-1.045-18.74-1.314
			c-1.712-0.158-2.656-0.246-3.685-0.246c-1.228,0-2.657,0.121-5.789,0.387c-1.122,0.096-2.46,0.209-4.083,0.342
			c-0.664,0.162-1.308,0.244-1.915,0.244c-2.007,0-3.324-0.89-4.15-1.653c-0.065,0.636-0.127,1.396-0.179,2.036
			c-0.475,5.903-0.491,11.255-0.047,16.751c0.795-0.058,1.604-0.119,2.406-0.18c2.802-0.213,5.449-0.414,7.28-0.414
			c2.213,0,3.204,1.115,3.204,2.22c0,1.262-1.335,2.603-3.811,2.603H44.058c-1.142,0-2.071-0.93-2.071-2.072
			c0-12.116-1.04-18.318-2.835-24.937c-0.17-0.727-0.552-1.819-1.037-3.204c-1.824-5.212-5.218-14.914-6.007-28.847
			c-0.375-6.527,3.435-11.968,7.119-17.229c0.401-0.573,0.804-1.148,1.203-1.727c0.267-0.387,0.63-0.815,1.015-1.27
			c0.075-0.088,0.159-0.188,0.248-0.293c-4.984,1.564-8.747,3.909-11.488,7.153c-0.658,0.78-1.298,1.637-1.917,2.465
			c-0.458,0.612-0.917,1.226-1.389,1.821c-0.601,0.755-0.799,1.093-0.676,1.919c0.289,1.952,1.266,2.318,2.301,2.707
			c0.75,0.281,1.882,0.706,1.935,2.008c0.047,1.062-0.489,2.802-1.828,3.338c-0.277,0.115-0.582,0.177-0.895,0.177
			c-1.312,0-2.813-1.082-3.09-4.117c-0.026-0.313-0.391-0.693-0.744-1.062c-0.017-0.017-0.032-0.032-0.046-0.047
			c-0.271,0.228-0.693,0.726-0.943,1.407c-0.024,0.092-0.09,0.435-0.181,0.89c-0.829,4.157-1.529,6.519-2.852,7.09
			c-0.333,0.146-0.712,0.223-1.122,0.223c-1.417,0-2.956-0.948-2.969-2.481c-0.009-1.38,1.021-2.489,1.774-3.299
			c0.112-0.12,0.22-0.236,0.318-0.347c0.114-0.125,0.234-0.265,0.356-0.415c-0.472,0.46-0.878,0.867-1.072,1.073
			c-0.128,0.134-0.25,0.268-0.374,0.403c-0.724,0.798-1.625,1.791-2.894,1.791c-0.478,0-0.947-0.146-1.396-0.432
			c-1.182-0.763-1.376-1.61-1.332-2.187c0.128-1.666,2.229-2.736,4.557-3.774c0.235-0.105,0.44-0.196,0.597-0.272
			c1.857-1.005,2.858-1.728,4.69-3.132c0.373-0.308,1.416-1.569,3.072-3.728l0.325-0.428c1.045-1.375,2.033-2.675,3.17-3.999
			c3.955-4.598,7.496-7.222,11.842-8.775c0.538-0.192,1.037-0.364,1.501-0.524c4.399-1.516,5.075-1.749,5.676-7.7
			c0.194-1.912,0.389-3.569,0.562-5.041c0.962-8.193,1.221-10.395-3.132-18.956c-0.869-1.718-1.638-3.408-2.351-5.169
			c-1.294-3.151-2.14-3.521-4.943-4.748l-0.975-0.431c-2.343-1.05-4.036-3.076-4.644-5.558c-0.53-2.131-0.196-4.347,0.942-6.236
			c1.141-1.894,2.951-3.229,5.095-3.759c0.65-0.16,1.316-0.242,1.98-0.242c3.809,0,7.104,2.584,8.013,6.284
			c0.483,1.95,0.236,4.008-0.695,5.796c-1.399,2.674-1.143,3.243,0.091,5.979c0.224,0.496,0.473,1.048,0.741,1.68
			c0.57,1.342,1.135,2.559,1.729,3.719c4.45,8.757,3.958,16.718,3.437,25.146c-0.051,0.83-0.104,1.672-0.151,2.523
			c0.557-4.025,1.684-6.398,2.6-8.327c0.595-1.253,1.066-2.244,1.267-3.41c0.121-0.732,0.196-1.5,0.223-2.275
			c0.04-1.119,0.371-2.315,0.691-3.472c0.447-1.615,0.91-3.285,0.544-4.609c-0.934-3.393-0.934-3.393-2.633-3.822
			c-0.453-0.115-0.995-0.252-1.651-0.447c-4.643-1.391-7.291-6.295-5.904-10.933c1.104-3.694,4.562-6.274,8.411-6.274
			c0.849,0,1.695,0.125,2.515,0.37c2.25,0.67,4.103,2.177,5.219,4.243c1.115,2.064,1.359,4.439,0.687,6.687
			c-1.332,4.476-1.78,14.999-1.885,18.118c-0.074,2.136-0.406,4.046-1.016,5.84c-0.763,2.245-0.815,3.907-0.154,4.94
			c0.721,1.134,2.261,1.866,3.926,1.866c0.428,0,0.839-0.05,1.224-0.149c1.535-0.396,3.471-2.224,6.091-5.75
			c2.882-3.875,5.616-6.813,8.607-9.246c5.442-4.425,12.076-7.442,22.899-10.415l0.233-0.064c1.658-0.455,1.658-0.455,2.025-1.233
			c0.14-0.295,0.313-0.661,0.555-1.121c0.497-0.933,1.157-1.738,1.964-2.398c1.405-1.16,3.188-1.8,5.013-1.8
			c2.373,0,4.599,1.05,6.105,2.88c2.767,3.359,2.285,8.348-1.073,11.122c-1.411,1.163-3.194,1.802-5.021,1.802
			c-1.654,0-3.236-0.502-4.575-1.454c-0.677-0.481-1.042-0.856-1.283-1.105c-0.035-0.035-0.064-0.068-0.093-0.097
			c-0.241,0.037-0.745,0.175-1.359,0.342c-10.237,2.768-16.058,5.34-20.787,9.181l-0.507,0.411
			c-6.488,5.263-9.449,7.665-4.604,14.148c1.791,2.395,6.496,7.965,11.513,7.964c1.202,0,2.363-0.334,3.451-0.994
			c2.947-1.792,6.51-3.625,10.58-3.625c0.304,0,0.611,0.01,0.92,0.031c3.078,0.21,6.208,0.97,9.304,2.258
			c0.821,0.341,1.449,0.637,1.971,0.883c1.054,0.498,1.535,0.725,2.34,0.725c0.479,0,1.093-0.077,1.991-0.249
			c0.488-0.092,0.984-0.139,1.476-0.139c3.788,0,7.052,2.705,7.761,6.432c0.811,4.281-2.011,8.424-6.29,9.236
			c-0.489,0.093-0.987,0.14-1.481,0.14c-3.785,0-7.047-2.703-7.756-6.428c-0.114-0.601-0.187-1.094-0.247-1.507
			c-0.216-1.473-0.216-1.473-3.059-2.578c-2.192-0.855-4.377-1.362-6.494-1.505c-0.363-0.025-0.716-0.037-1.061-0.037
			c-2.559,0-4.87,0.666-7.272,2.095c-5.207,3.104-4.951,3.598-2.96,7.43c0.514,0.99,1.154,2.222,1.795,3.702
			c0.929,2.134,1.853,4.408,2.747,6.759c2.313,6.071,6.291,11.47,10.384,14.088c0.304,0.197,0.565,0.38,0.798,0.543l0.26,0.181
			c0.039,0.028,0.919,0.691,1.38,0.995c0.382,0.248,0.721,0.494,1.035,0.724c0.884,0.645,1.341,0.954,2.058,0.954
			c0.193,0,0.409-0.022,0.642-0.068c2.477-0.479,2.909-1.801,3.328-3.077c0.303-0.921,0.716-2.181,2.146-2.305
			c0.106-0.009,0.217-0.014,0.33-0.014c1.318,0,3.01,0.602,3.608,1.924c0.359,0.783,0.321,1.683-0.108,2.463
			c-0.463,0.84-1.585,1.917-4.301,2.28c-0.45,0.061-0.919,0.553-1.371,1.029c-0.087,0.091-0.145,0.158-0.183,0.206
			c0.239,0.316,0.955,0.946,1.975,1.27c0.146,0.036,0.601,0.104,1.2,0.196c4.854,0.754,7.804,1.478,8.514,2.946
			c0.485,0.985,0.398,2.354-0.219,3.401c-0.493,0.835-1.271,1.337-2.135,1.378l-0.152,0.004c-1.53,0-2.793-1.08-3.807-1.947
			c-0.147-0.126-0.288-0.247-0.424-0.358c-0.653-0.546-1.615-1.192-2.492-1.709c1.086,1.066,2.588,2.466,3.063,2.878
			c0.165,0.146,0.336,0.288,0.511,0.433c1.173,0.975,3.136,2.604,1.813,4.854c-0.627,1.075-1.406,1.621-2.313,1.621
			c-1.938,0-3.384-2.572-4.698-5.207c-0.142-0.283-0.264-0.529-0.364-0.717c-1.339-2.23-2.269-3.409-4.066-5.558
			c-0.759-0.826-4.841-3.642-6.584-4.843c-0.413-0.285-0.748-0.517-0.966-0.67l-0.111-0.044l-0.084-0.098
			c-0.005-0.004-0.241-0.176-0.241-0.176c-2.499-1.825-4.854-3.534-7.09-5.145c0.087,1.874-0.141,3.781-0.684,5.695
			c-0.642,2.25-1.245,4.261-1.807,6.131c-2.903,9.671-4.656,15.507-4.656,31.196c0,1.143-0.929,2.072-2.07,2.072H81.331z
			 M52.19,59.47c-0.026,0.598-0.048,1.2-0.064,1.805c-0.002,0.095,0.007,0.215,0.071,0.334c0.055-0.576,0.021-1.452,0.001-1.944
			C52.196,59.6,52.193,59.535,52.19,59.47z"/>
		<path style="fill:#FFFFFF;" d="M39.133,7.2c3.259,0,6.229,2.213,7.042,5.522c0.442,1.785,0.177,3.583-0.611,5.095
			c-1.91,3.65-0.973,4.341,0.798,8.512c0.563,1.328,1.14,2.573,1.76,3.784c5.412,10.65,3.307,20.028,3.004,31.134
			c-0.018,0.726,0.366,1.24,0.905,1.528c0.172,0.09,0.32,0.131,0.447,0.131c1.18,0,0.578-3.544,0.714-4.681
			c0.805-7.083,3.376-9.101,3.957-12.465c0.126-0.762,0.208-1.564,0.237-2.411c0.09-2.539,1.924-5.756,1.2-8.381
			c-1.305-4.741-1.11-3.813-4.962-4.962c-4.121-1.234-6.462-5.574-5.231-9.688c1.009-3.378,4.103-5.561,7.453-5.561
			c0.737,0,1.487,0.106,2.229,0.328c4.124,1.229,6.465,5.568,5.234,9.685c-1.24,4.169-1.757,13.354-1.927,18.371
			c-0.08,2.297-0.468,4.094-0.963,5.552c-0.93,2.736-0.827,4.585-0.05,5.8c0.964,1.517,2.909,2.327,4.769,2.327
			c0.504,0,1.003-0.06,1.474-0.181c1.496-0.386,3.429-1.795,6.644-6.122c2.713-3.648,5.374-6.576,8.436-9.066
			c5.557-4.518,12.194-7.387,22.533-10.226c2.873-0.79,2.181-0.542,3.434-2.916c0.415-0.779,0.981-1.493,1.712-2.091
			c1.283-1.058,2.836-1.574,4.38-1.574c1.991,0,3.969,0.858,5.334,2.516c2.421,2.94,1.997,7.29-0.938,9.715
			c-1.285,1.058-2.84,1.573-4.385,1.573c-1.412,0-2.815-0.43-3.996-1.269c-1.317-0.937-1.282-1.396-1.854-1.396
			c-0.307,0-0.788,0.132-1.746,0.394c-9.92,2.682-16.142,5.311-21.132,9.363c-6.717,5.457-10.842,8.492-5.281,15.934
			c2.982,3.989,7.589,8.366,12.313,8.366c1.324,0,2.659-0.345,3.97-1.138c3.101-1.886,6.39-3.48,10.062-3.48
			c0.281,0,0.566,0.009,0.853,0.029c2.995,0.205,6.035,0.956,8.987,2.184c2.568,1.066,3.196,1.685,4.694,1.685
			c0.558,0,1.235-0.086,2.179-0.266c0.433-0.082,0.863-0.121,1.288-0.121c3.251,0,6.148,2.31,6.778,5.619
			c0.709,3.744-1.755,7.357-5.494,8.067c-0.435,0.083-0.867,0.122-1.295,0.122c-3.25,0-6.145-2.307-6.773-5.614
			c-0.667-3.504,0.137-3.25-3.926-4.831c-2.254-0.879-4.543-1.418-6.789-1.57c-0.386-0.026-0.761-0.039-1.128-0.039
			c-3.149,0-5.608,0.942-7.784,2.236c-7.531,4.491-4.689,5.185-1.571,12.389c0.913,2.098,1.825,4.337,2.73,6.717
			c2.264,5.944,6.333,11.73,10.779,14.575c0.409,0.265,0.743,0.508,1.03,0.705c0,0,0.917,0.69,1.396,1.006
			c1.474,0.955,2.207,1.843,3.644,1.843c0.254,0,0.529-0.027,0.834-0.087c5.005-0.97,3.39-5.195,5.368-5.367
			c0.078-0.007,0.159-0.01,0.243-0.01c0.974,0,2.295,0.448,2.697,1.336c0.505,1.1-0.107,2.868-3.631,3.34
			c-0.824,0.111-1.436,0.777-2.015,1.386c-0.413,0.428-0.526,0.764-0.428,1.045c0.218,0.606,1.297,1.576,2.694,2.019
			c1.032,0.265,8.331,1.003,9.115,2.625c0.582,1.182-0.084,3.278-1.5,3.345c-0.035,0.002-0.07,0.003-0.105,0.003
			c-1.357,0-2.629-1.284-3.596-2.078c-1.203-1.006-4.128-2.863-5.11-2.863c-0.105,0-0.188,0.021-0.245,0.068
			c-0.548,0.453-0.241,0.522,0.258,1.228c0.502,0.699,3.815,3.775,4.377,4.264c1.238,1.092,3.148,2.272,2.118,4.025
			c-0.469,0.804-0.96,1.128-1.45,1.128c-1.739,0-3.474-4.082-4.183-5.398c-1.414-2.358-2.417-3.618-4.18-5.725
			c-1.062-1.158-6.688-4.941-7.813-5.739l-0.009-0.011l-0.01-0.004l-0.005-0.006c-0.061-0.04-0.104-0.074-0.132-0.097h-0.004
			l-0.193-0.141c-3.194-2.334-6.157-4.479-8.934-6.47c0.487,2.563,0.307,5.1-0.39,7.557c-3.971,13.921-6.501,18.722-6.501,37.6
			c0,0.59-0.482,1.072-1.07,1.072c-2.201,0-7.312,0-10.565,0c-3.315,0-3.925-2.822-0.606-2.822c2.534,0,6.819,0.407,10.597,0.659
			c0.561-6.188,0.517-11.957,0.038-17.897c-0.237-2.904-0.341-3.811-0.644-3.811c-0.503,0-1.556,2.509-4.682,2.509
			c-0.523,0-1.106-0.07-1.753-0.234c-17.804-0.964-19.756-1.567-22.574-1.567c-1.73,0-3.786,0.228-10.035,0.738
			c-0.647,0.164-1.229,0.234-1.752,0.234c-3.127,0-4.18-2.509-4.683-2.509c-0.303,0-0.407,0.907-0.643,3.811
			c-0.478,5.94-0.522,11.707,0.037,17.897c3.778-0.254,8.063-0.659,10.599-0.659c3.315,0,2.709,2.822-0.606,2.822
			c-3.256,0-8.365,0-10.566,0c-0.587,0-1.071-0.482-1.071-1.072c0-12.186-1.054-18.506-2.87-25.198
			c-0.798-3.422-6.013-14.223-7.011-31.846c-0.394-6.854,4.062-12.41,8.146-18.331c0.873-1.264,3.297-3.505,1.901-3.505
			c-0.225,0-0.548,0.058-0.993,0.188c-4.944,1.44-9.417,3.784-12.721,7.694c-1.157,1.374-2.2,2.892-3.326,4.31
			c-0.639,0.804-1.069,1.432-0.882,2.688c0.615,4.157,4.16,2.972,4.227,4.608c0.036,0.81-0.39,2.044-1.201,2.369
			c-0.161,0.067-0.338,0.104-0.523,0.104c-0.861,0-1.875-0.813-2.094-3.208c-0.057-0.683-0.585-1.211-1.069-1.715
			c-0.268-0.278-0.495-0.402-0.695-0.402c-0.052,0-0.103,0.008-0.151,0.024c-0.503,0.151-1.338,1.006-1.752,2.139
			c-0.246,0.839-1.125,6.815-2.491,7.405c-0.217,0.096-0.467,0.141-0.725,0.141c-0.926,0-1.961-0.579-1.969-1.49
			c-0.007-1.149,1.136-2.182,1.839-2.973c0.966-1.056,2.862-3.813,2.483-4.309c-0.132-0.178-0.224-0.251-0.321-0.251
			c-0.154,0-0.32,0.185-0.683,0.421c-0.599,0.384-3.25,2.999-3.671,3.448c-0.741,0.771-1.542,1.879-2.539,1.879
			c-0.271,0-0.556-0.082-0.858-0.274c-2.925-1.889,2.298-3.802,3.72-4.49c1.99-1.076,3.063-1.859,4.863-3.238
			c0.601-0.495,2.047-2.337,3.257-3.913c1.15-1.511,2.225-2.944,3.46-4.384c3.738-4.347,7.139-6.955,11.419-8.485
			c5.762-2.059,7.103-1.805,7.836-9.065C48.888,43.706,50.2,42.274,44.92,31.89c-0.823-1.626-1.589-3.297-2.316-5.091
			c-1.604-3.904-2.865-4.116-6.436-5.716c-1.963-0.879-3.528-2.626-4.081-4.883c-0.968-3.89,1.42-7.826,5.306-8.787
			C37.976,7.269,38.559,7.2,39.133,7.2 M39.133,5.2L39.133,5.2c-0.745,0-1.491,0.091-2.219,0.271
			c-2.405,0.595-4.434,2.091-5.713,4.214c-1.276,2.118-1.65,4.603-1.055,6.997c0.68,2.777,2.578,5.049,5.204,6.226
			c0.349,0.156,0.676,0.299,0.983,0.434c2.713,1.188,3.278,1.435,4.42,4.217c0.72,1.777,1.5,3.492,2.381,5.234
			c4.217,8.295,3.99,10.233,3.032,18.39c-0.173,1.469-0.368,3.135-0.563,5.056c-0.537,5.315-0.79,5.402-5.007,6.856
			c-0.467,0.161-0.97,0.334-1.512,0.528c-4.521,1.616-8.188,4.326-12.263,9.064c-1.158,1.349-2.154,2.659-3.209,4.046l-0.327,0.431
			c-2.099,2.734-2.737,3.403-2.921,3.566c-1.75,1.341-2.723,2.042-4.517,3.014c-0.144,0.068-0.325,0.149-0.531,0.241
			c-2.094,0.934-4.961,2.213-5.146,4.611c-0.053,0.693,0.107,2.019,1.782,3.101c0.621,0.396,1.271,0.594,1.943,0.594
			c0.316,0,0.613-0.043,0.893-0.119c0.07,2.101,2.098,3.394,3.967,3.394c0.549,0,1.065-0.104,1.533-0.311
			c1.723-0.744,2.505-3.214,3.422-7.807c0.022-0.111,0.046-0.231,0.069-0.347c0.569,2.99,2.361,4.08,3.954,4.08
			c0.446,0,0.88-0.087,1.291-0.258c0.979-0.393,1.672-1.265,2.063-2.239c0.004,0.161,0.012,0.323,0.021,0.485
			c0.797,14.071,4.222,23.86,6.062,29.119c0.474,1.356,0.849,2.428,0.998,3.066l0.008,0.035l0.009,0.034
			c1.773,6.537,2.8,12.67,2.8,24.675c0,1.694,1.378,3.072,3.071,3.072h10.566c3.125,0,4.811-1.856,4.811-3.603
			c0-1.603-1.3-3.22-4.204-3.22c-1.869,0-4.534,0.202-7.355,0.417c-0.469,0.035-0.939,0.071-1.409,0.106
			c-0.361-5.097-0.32-10.107,0.123-15.602c0.007-0.089,0.015-0.184,0.023-0.283c0.859,0.467,1.951,0.821,3.309,0.821
			c0.663,0,1.359-0.085,2.074-0.254c1.59-0.13,2.905-0.242,4.01-0.336c3.102-0.263,4.517-0.383,5.703-0.383
			c0.983,0,1.855,0.081,3.593,0.242c2.911,0.27,7.771,0.719,18.688,1.313c0.704,0.164,1.392,0.247,2.046,0.247
			c1.357,0,2.449-0.354,3.309-0.821c0.008,0.1,0.016,0.195,0.023,0.286c0.442,5.492,0.483,10.502,0.121,15.599
			c-0.49-0.036-0.983-0.073-1.473-0.11c-2.796-0.213-5.437-0.413-7.29-0.413c-2.905,0-4.205,1.617-4.205,3.22
			c0,1.09,0.601,2.101,1.649,2.771c0.849,0.544,1.942,0.831,3.162,0.831h10.565c1.693,0,3.07-1.378,3.07-3.072
			c0-15.542,1.736-21.326,4.613-30.908c0.574-1.911,1.167-3.887,1.811-6.143c0.383-1.35,0.617-2.695,0.703-4.03
			c1.798,1.299,3.644,2.641,5.518,4.01l0.136,0.099l0.162,0.194l0.237,0.097l0.188,0.136h0.012c0.192,0.133,0.427,0.295,0.692,0.479
			c1.402,0.967,5.638,3.888,6.419,4.703c1.729,2.067,2.636,3.219,3.938,5.387c0.093,0.175,0.204,0.397,0.33,0.65
			c1.213,2.431,2.874,5.761,5.593,5.761c0.886,0,2.155-0.367,3.178-2.12c0.83-1.412,0.669-2.651,0.148-3.664
			c0.106,0.008,0.214,0.013,0.322,0.013c0.068,0,0.136-0.002,0.204-0.006c1.202-0.056,2.276-0.736,2.943-1.867
			c0.782-1.325,0.884-3.076,0.252-4.358c-0.904-1.87-3.826-2.644-9.254-3.486c-0.438-0.068-0.929-0.145-1.118-0.184
			c-0.289-0.098-0.544-0.227-0.755-0.357c0.105-0.093,0.199-0.164,0.262-0.188c3.099-0.412,4.439-1.741,5.013-2.782
			c0.585-1.061,0.636-2.288,0.14-3.368c-0.776-1.716-2.886-2.501-4.515-2.501c-0.143,0-0.281,0.006-0.413,0.017
			c-2.091,0.182-2.69,2.009-3.013,2.989c-0.402,1.229-0.669,2.04-2.566,2.407c-0.173,0.034-0.324,0.051-0.453,0.051
			c-0.382,0-0.635-0.154-1.469-0.763c-0.313-0.229-0.669-0.487-1.087-0.758c-0.337-0.223-1.039-0.744-1.28-0.926l-0.035-0.026
			l-0.035-0.024l-0.253-0.176c-0.241-0.169-0.513-0.358-0.824-0.561c-3.87-2.476-7.79-7.814-9.996-13.607
			c-0.899-2.364-1.83-4.653-2.766-6.803c-0.653-1.51-1.303-2.759-1.824-3.763c-0.723-1.392-1.347-2.593-1.214-3.075
			c0.116-0.42,0.869-1.287,3.8-3.035c2.271-1.351,4.356-1.954,6.76-1.954c0.324,0,0.657,0.012,0.991,0.035
			c2.018,0.136,4.103,0.62,6.199,1.438c0.875,0.34,1.944,0.756,2.298,0.979c0.042,0.177,0.091,0.512,0.136,0.813
			c0.06,0.412,0.135,0.923,0.254,1.549c0.798,4.195,4.474,7.24,8.738,7.24c0.557,0,1.117-0.053,1.668-0.157
			c4.82-0.915,7.999-5.582,7.086-10.404c-0.799-4.2-4.476-7.247-8.743-7.247c-0.554,0-1.112,0.052-1.66,0.156
			c-0.826,0.158-1.398,0.231-1.807,0.231c-0.558,0-0.856-0.13-1.913-0.629c-0.52-0.245-1.167-0.551-2.015-0.903
			c-3.195-1.329-6.432-2.114-9.617-2.332c-0.329-0.022-0.661-0.034-0.989-0.034c-4.317,0-8.034,1.907-11.101,3.771
			c-0.94,0.569-1.899,0.847-2.931,0.847c-3.167,0-7.171-2.828-10.712-7.563c-4.1-5.486-2.465-7.176,4.434-12.772l0.507-0.411
			c4.611-3.745,10.329-6.264,20.394-8.985c0.295-0.081,0.575-0.157,0.803-0.216c0.255,0.245,0.61,0.559,1.116,0.918
			c1.51,1.073,3.292,1.639,5.155,1.639c2.059,0,4.067-0.721,5.656-2.029c3.784-3.126,4.327-8.746,1.211-12.53
			c-1.698-2.062-4.205-3.244-6.878-3.244c-2.057,0-4.064,0.721-5.652,2.031c-0.903,0.739-1.646,1.646-2.204,2.693
			c-0.256,0.484-0.435,0.862-0.579,1.167c-0.053,0.113-0.114,0.243-0.164,0.342c-0.25,0.087-0.725,0.218-1.222,0.354l-0.234,0.064
			C92.729,32.309,85.987,35.381,80.43,39.9c-3.057,2.486-5.847,5.481-8.779,9.425c-2.409,3.243-4.272,5.052-5.539,5.379
			c-0.303,0.078-0.63,0.118-0.974,0.118c-1.311,0-2.549-0.563-3.081-1.4c-0.478-0.747-0.386-2.196,0.256-4.084
			c0.642-1.889,0.991-3.893,1.068-6.126c0.104-3.09,0.546-13.506,1.845-17.87c0.748-2.501,0.476-5.146-0.766-7.446
			c-1.243-2.3-3.307-3.979-5.813-4.726c-0.912-0.272-1.854-0.411-2.8-0.411c-3.044,0-5.869,1.449-7.691,3.761
			c0.32-1.4,0.311-2.865-0.039-4.279C47.098,8.098,43.403,5.2,39.133,5.2L39.133,5.2L39.133,5.2z M53.745,49.101
			c0.183-5.996-0.228-11.91-3.05-18.239c0.719,0.447,1.508,0.807,2.357,1.061c0.683,0.204,1.243,0.345,1.694,0.459
			c0.397,0.101,0.843,0.213,1.015,0.289c0.216,0.348,0.578,1.663,0.899,2.829c0.292,1.059-0.133,2.594-0.544,4.078
			c-0.336,1.212-0.683,2.466-0.727,3.702c-0.025,0.734-0.097,1.459-0.212,2.156c-0.176,1.016-0.62,1.952-1.183,3.137
			C53.913,48.744,53.829,48.92,53.745,49.101L53.745,49.101z M31.272,85.685c-0.475-1.241-1.731-1.713-2.398-1.963
			c-0.973-0.364-1.461-0.548-1.663-1.916c-0.063-0.419-0.071-0.473,0.469-1.15c0.486-0.612,0.955-1.239,1.408-1.846
			c0.639-0.854,1.242-1.66,1.882-2.421c2-2.368,4.587-4.238,7.844-5.661c-0.136,0.194-0.271,0.388-0.407,0.581
			C35.284,75.768,32.074,80.353,31.272,85.685L31.272,85.685z"/>
	</g>
</g>
<g id="Layer_1">
</g>
</svg>
