<?xml version="1.0" encoding="iso-8859-1"?>
<!-- Generator: Adobe Illustrator 16.0.0, SVG Export Plug-In . SVG Version: 6.00 Build 0)  -->
<!DOCTYPE svg PUBLIC "-//W3C//DTD SVG 1.1//EN" "http://www.w3.org/Graphics/SVG/1.1/DTD/svg11.dtd">
<svg version="1.1" xmlns="http://www.w3.org/2000/svg" xmlns:xlink="http://www.w3.org/1999/xlink" x="0px" y="0px" width="150px"
	 height="150px" viewBox="0 0 150 150" style="enable-background:new 0 0 150 150;" xml:space="preserve">
<g id="_x30_3_x5F_03_x5F_black">
	<rect style="fill:none;" width="150" height="150"/>
	<g>
		<path d="M59.98,149c-0.511,0-1.035-0.066-1.485-0.129c-1.994-0.282-4.035-0.431-5.907-0.431c-0.836,0-1.646,0.029-2.404,0.088
			c-0.428,0.023-0.869,0.081-1.455,0.188c-0.345,0.062-0.633,0.091-0.909,0.091c-0.499,0-0.947-0.095-1.372-0.288
			c-0.782-0.352-1.027-0.882-1.094-1.265c-0.102-0.581,0.133-1.152,0.698-1.698c0.553-0.521,1.345-0.68,2.119-0.773l0.059-0.008
			h0.223c0.89,0,1.77,0.016,2.647,0.052c0.357,0.011,0.725,0.031,1.092,0.053c0.484,0.028,0.967,0.058,1.45,0.058
			c0.329,0,0.657-0.014,0.986-0.052c2.229-0.261,2.237-0.432,2.371-3.292l0.04-0.799c0.063-1.191-0.095-1.92-0.5-2.293
			c-0.663-0.619-1.302-1.22-1.907-1.817c-2.411-2.372-3.866-5.676-4.33-9.825c-7.229-3.514-12.671-7.053-18.769-14.303
			c-1.987-2.344-3.724-4.666-5.563-7.124l-0.764-1.021c-3.75-4.999-5.2-6.617-5.756-7.094c-3.209-2.53-5.121-3.951-8.634-5.922
			c-0.246-0.122-0.621-0.295-1.052-0.495c-3.825-1.771-7.575-3.718-7.76-6.319c-0.085-1.201,0.593-2.278,2.017-3.202
			c0.67-0.434,1.364-0.652,2.064-0.652c1.958,0,3.409,1.641,4.688,3.089c0.221,0.25,0.438,0.495,0.65,0.724
			c0.942,1.029,5.553,5.641,6.467,6.246c0.051,0.034,0.1,0.067,0.147,0.101c-0.64-1.504-2.599-4.504-4.147-6.237
			c-0.178-0.202-0.366-0.407-0.562-0.621c-1.35-1.477-3.031-3.314-3.043-5.524c0.006-2.296,2.352-3.712,4.521-3.712
			c0.631,0,1.237,0.122,1.752,0.353c2.016,0.917,3.291,5.432,4.696,12.419c0.172,0.856,0.321,1.597,0.401,1.868
			c0.667,1.832,1.977,3.104,2.528,3.295c-0.012-0.015,0.161-0.075,0.489-0.426l0.079-0.083c0.768-0.807,1.493-1.567,1.555-2.422
			c0.414-5.012,2.712-6.794,4.726-6.794c0.466,0,0.921,0.093,1.353,0.275c2.021,0.862,2.86,3.698,2.792,5.345
			c-0.071,1.831-1.605,2.407-2.958,2.915c-1.897,0.713-4.048,1.521-4.62,5.575c-0.272,1.922,0.329,2.803,1.414,4.193
			c0.841,1.084,1.654,2.193,2.467,3.304c1.143,1.559,2.324,3.171,3.555,4.661c1.468,1.774,3.144,3.306,5.125,4.666
			c-1.607-2.807-2.463-5.996-2.463-9.321c0-7.784,4.86-15.336,11.556-17.958c1.784-0.697,3.767-1.052,5.892-1.052
			c0.831,0,1.701,0.055,2.585,0.161c0.785,0.096,1.439,0.203,1.982,0.293c0.46,0.076,0.843,0.14,1.115,0.162
			c-0.017-0.507-0.183-1.511-0.356-2.562l-0.092-0.555c-1.447-8.819-6.115-16.113-13.875-21.679
			c-0.707-0.506-0.871-1.494-0.364-2.202c0.296-0.414,0.776-0.66,1.284-0.66c0.035,0,0.069,0.001,0.104,0.003
			c0.011-0.298,0.106-0.595,0.292-0.855c0.298-0.415,0.778-0.661,1.286-0.661c0.035,0,0.069,0.001,0.104,0.003
			c0.011-0.298,0.106-0.596,0.292-0.856c0.292-0.408,0.762-0.653,1.262-0.66c0.031-0.261,0.127-0.512,0.285-0.732
			c0.295-0.413,0.775-0.659,1.284-0.659c0.078,0,0.156,0.005,0.233,0.017c0.026-0.278,0.127-0.545,0.297-0.777
			c0.282-0.383,0.724-0.619,1.194-0.644c0.038-0.241,0.131-0.477,0.285-0.688c0.295-0.404,0.771-0.646,1.273-0.646
			c0.327,0,0.641,0.099,0.908,0.287c-0.289-0.521-0.27-1.187,0.104-1.699c0.298-0.406,0.774-0.646,1.273-0.646
			c0.105,0,0.209,0.01,0.31,0.03c-0.034-0.364,0.058-0.743,0.287-1.064c0.285-0.397,0.737-0.64,1.22-0.66
			c0.035-0.241,0.126-0.477,0.277-0.687c0.295-0.414,0.776-0.661,1.285-0.661c0.035,0,0.069,0.001,0.104,0.003
			c0.011-0.297,0.106-0.595,0.291-0.855c0.297-0.415,0.777-0.661,1.285-0.661c0.057,0,0.113,0.003,0.169,0.009
			c-0.001-0.331,0.101-0.652,0.298-0.926c0.294-0.41,0.774-0.656,1.282-0.656c0.013,0,0.027,0,0.04,0.001
			c0.021-0.277,0.116-0.551,0.288-0.792c0.297-0.415,0.777-0.661,1.285-0.661c0.105,0,0.209,0.01,0.311,0.03
			c-0.036-0.379,0.065-0.753,0.289-1.066c0.295-0.413,0.775-0.659,1.284-0.659c0.034,0,0.069,0.001,0.103,0.003
			c0.011-0.298,0.106-0.596,0.292-0.856c0.298-0.415,0.778-0.66,1.285-0.66c0.035,0,0.069,0.001,0.104,0.003
			c0.011-0.298,0.106-0.597,0.293-0.856c0.292-0.407,0.763-0.653,1.262-0.66c0.031-0.262,0.128-0.513,0.286-0.733
			c0.293-0.412,0.774-0.659,1.283-0.659c0.331,0,0.648,0.102,0.917,0.294c12.874,9.235,15.596,22.22,16.168,27.374l0.034,0.319
			c0.02,0.193,0.028,0.331,0.048,0.437c0.064,0.048,0.149,0.1,0.257,0.171L90.9,64.5c1.312,0.901,1.302,1.882,1.126,2.51
			c0.553,0.062,1.586,0.117,3.518,0.117c7.127,0,13.821,3.157,18.366,8.662c3.506,4.248,5.437,9.625,5.437,15.142
			c0,8.228-4.2,15.772-11.083,20.12c1.052,0.393,2.295,0.68,3.719,0.858c5.84-5.571,9.686-10.465,12.814-16.293
			c0.289-0.538,0.577-1.012,0.844-1.451c0.935-1.539,1.449-2.387,0.944-4.149c-1.006-3.551-3.072-4.033-4.896-4.459
			c-1.33-0.311-2.838-0.662-3.131-2.363c-0.264-1.516,0.182-4.229,1.975-5.233c0.492-0.283,1.063-0.437,1.643-0.437
			c1.074,0,3.694,0.553,4.836,5.674c0.161,0.726,0.892,1.319,1.664,1.948l0.126,0.102c0.357,0.279,0.516,0.299,0.517,0.299
			c0.371-0.19,1.414-1.487,1.809-3.23c0.029-0.19,0.076-0.883,0.131-1.685c0.451-6.644,1.061-10.7,2.843-11.774
			c0.617-0.367,1.373-0.559,2.191-0.559c1.824,0,3.813,1.011,4.085,2.943c0.283,2.03-1.053,3.895-2.126,5.392
			c-0.157,0.22-0.308,0.43-0.446,0.631c-1.135,1.624-2.484,4.327-2.968,5.809c0.891-0.81,4.425-5.313,5.109-6.281
			c0.182-0.248,0.354-0.495,0.528-0.747c1.037-1.492,2.327-3.349,4.373-3.349c0.53,0,1.075,0.13,1.618,0.388
			c1.464,0.688,2.237,1.615,2.299,2.755c0.131,2.429-3.12,4.619-6.462,6.655c-0.357,0.218-0.668,0.406-0.906,0.562
			c-2.924,2.133-4.515,3.628-7.203,6.3c-0.67,0.734-2.471,3.635-4.906,7.925c-3.952,6.898-8.46,13.242-12.739,19.148l-0.313,0.439
			c-0.73,1.031-1.213,1.713-2.329,1.713l0,0c-0.465,0-0.984-0.128-1.77-0.322l-8.95-2.203c-0.276-0.068-0.558-0.11-0.839-0.125
			c0.811,7.251-1.62,13.18-3.777,18.44l-0.489,1.198c-0.79,1.938-2.26,5.545-1.241,7.268c0.394,0.666,1.181,1.059,2.406,1.202
			c0.33,0.039,0.66,0.053,0.99,0.053c0.494,0,0.989-0.03,1.485-0.061c0.351-0.021,0.703-0.042,1.056-0.054
			c0.928-0.035,1.857-0.049,2.796-0.049h0.063l0.063,0.008c0.782,0.099,1.579,0.261,2.115,0.777c0.708,0.677,0.772,1.3,0.701,1.703
			c-0.056,0.315-0.274,0.899-1.106,1.264c-0.413,0.188-0.861,0.281-1.357,0.281c-0.279,0-0.568-0.029-0.909-0.092
			c-0.555-0.099-1.018-0.16-1.452-0.192c-0.753-0.055-1.552-0.083-2.376-0.083c-1.894,0-3.945,0.148-5.936,0.43
			c-0.478,0.068-0.99,0.131-1.49,0.131c-0.908,0-1.576-0.218-2.041-0.666c-0.463-0.449-0.559-0.927-0.558-1.249
			c0.002-0.851,0.638-1.46,1.103-1.905c0.11-0.106,0.216-0.198,0.278-0.283c0.23-0.325,0.273-0.991,0.108-1.735
			c-0.634-2.852-2.121-4.069-4.974-4.069c-2.205,0-4.979,0.712-7.915,1.466c-3.416,0.877-7.288,1.871-10.969,1.89
			c-1.255,0-2.399-0.258-3.408-0.484c-0.794-0.18-1.544-0.349-2.162-0.349c-0.618,0-1.039,0.167-1.406,0.559
			c-0.735,0.785-1.264,2.838-0.745,3.571c0.063,0.085,0.17,0.178,0.282,0.284c0.463,0.444,1.099,1.052,1.1,1.9
			c0.001,0.322-0.096,0.8-0.559,1.247C61.566,148.778,60.896,149,59.98,149z"/>
		<path style="fill:#FFFFFF;" d="M73.115,36.66c0.116,0,0.234,0.035,0.336,0.108c12.524,8.984,15.188,21.561,15.755,26.67
			c0.153,1.391,0.035,1.133,1.128,1.885c2.711,1.864-3.203,2.803,5.21,2.803c7.083,0,13.411,3.231,17.595,8.299
			c3.254,3.942,5.208,8.995,5.208,14.505c0,8.769-4.954,16.383-12.216,20.198c1.474,0.91,3.507,1.541,6.201,1.827
			c5.47-5.175,9.781-10.227,13.346-16.867c1.345-2.495,2.659-3.592,1.868-6.349c-1.911-6.748-7.539-4.03-8.002-6.717
			c-0.232-1.337,0.207-3.479,1.479-4.191c0.337-0.194,0.732-0.309,1.153-0.309c1.382,0.001,3.043,1.228,3.86,4.892
			c0.247,1.115,1.229,1.87,2.134,2.607c0.46,0.36,0.831,0.523,1.144,0.523c0.124,0,0.238-0.026,0.346-0.075
			c0.808-0.372,1.998-1.969,2.443-3.935c0.234-1.443,0.394-11.545,2.515-12.823c0.471-0.28,1.065-0.416,1.675-0.416
			c1.414,0,2.905,0.731,3.095,2.083c0.266,1.904-1.409,3.865-2.406,5.318c-1.37,1.959-3.926,6.949-3.195,7.682
			c0.239,0.246,0.402,0.352,0.553,0.352c0.275,0,0.509-0.354,1.09-0.848c0.92-0.764,4.742-5.678,5.335-6.516
			c1.119-1.52,2.277-3.673,4.085-3.673c0.368,0,0.764,0.089,1.19,0.292c5.272,2.479-2.979,6.795-5.187,8.229
			c-3.063,2.233-4.671,3.754-7.363,6.43c-0.978,1.068-3.349,5.107-5.07,8.14c-3.812,6.653-8.193,12.863-12.68,19.056
			c-0.926,1.287-1.146,1.739-1.832,1.739c-0.371,0-0.879-0.133-1.708-0.337l-8.772-2.159c-0.441-0.109-0.878-0.16-1.307-0.16
			c-0.306,0-0.607,0.025-0.904,0.074c1.238,8.021-1.704,14.387-4.061,20.194c-1.639,4.021-3.441,9.206,1.976,9.839
			c0.369,0.043,0.737,0.06,1.106,0.06c0.855,0,1.712-0.086,2.575-0.115c0.918-0.034,1.836-0.048,2.762-0.048
			c0.698,0.088,1.246,0.216,1.546,0.505c0.707,0.676,0.412,1.102-0.112,1.331c-0.317,0.144-0.636,0.197-0.956,0.197
			c-0.242,0-0.485-0.03-0.729-0.075c-0.562-0.101-1.063-0.17-1.56-0.206c-0.797-0.059-1.617-0.086-2.448-0.086
			c-2.033,0-4.128,0.164-6.075,0.439c-0.44,0.063-0.913,0.121-1.351,0.121c-0.549,0-1.042-0.092-1.347-0.386
			c-0.815-0.791,0.577-1.625,0.942-2.136c0.452-0.638,0.477-1.606,0.271-2.533c-0.82-3.691-2.995-4.854-5.95-4.854
			c-4.997,0-12.222,3.322-18.889,3.355c-0.008,0-0.016,0-0.024,0c-2.083,0-3.973-0.833-5.541-0.833
			c-0.801,0-1.519,0.218-2.135,0.874c-0.946,1.01-1.724,3.572-0.833,4.833c0.364,0.515,1.765,1.344,0.945,2.135
			C61.025,147.907,60.531,148,59.98,148c-0.437,0-0.91-0.059-1.349-0.119c-1.935-0.273-4.019-0.44-6.043-0.44
			c-0.842,0-1.675,0.029-2.481,0.091c-0.495,0.026-0.992,0.098-1.559,0.202c-0.244,0.044-0.486,0.074-0.728,0.074
			c-0.321,0-0.64-0.054-0.958-0.198c-0.524-0.235-0.819-0.654-0.116-1.334c0.304-0.286,0.856-0.416,1.545-0.5
			c0.054,0,0.108,0,0.162,0c0.875,0,1.741,0.015,2.605,0.051c0.866,0.025,1.726,0.111,2.584,0.111c0.367,0,0.733-0.016,1.101-0.059
			c3.339-0.391,3.105-1.542,3.293-5.03c0.074-1.395-0.123-2.439-0.821-3.082c-0.651-0.608-1.283-1.203-1.883-1.794
			c-2.481-2.442-3.749-5.889-4.092-9.771c-7.028-3.377-12.643-6.799-18.943-14.289c-2.246-2.649-4.203-5.315-6.292-8.101
			c-2.189-2.918-4.82-6.321-5.904-7.253c-3.245-2.56-5.193-4.014-8.796-6.035c-2.571-1.288-11.994-4.896-6.739-8.306
			c0.533-0.345,1.038-0.491,1.52-0.491c1.801,0,3.267,2.056,4.607,3.494c0.762,0.833,5.568,5.685,6.646,6.398
			c0.664,0.442,0.967,0.788,1.247,0.788c0.174,0,0.34-0.134,0.579-0.463c0.673-0.895-2.771-5.996-4.529-7.962
			c-1.279-1.453-3.338-3.367-3.35-5.485c0.004-1.668,1.852-2.707,3.521-2.707c0.478,0,0.941,0.085,1.342,0.265
			c2.449,1.113,4.092,12.111,4.548,13.658c0.759,2.09,2.271,3.664,3.184,3.965c0.086,0.027,0.174,0.041,0.266,0.041
			c0.362,0,0.773-0.221,1.256-0.736c0.866-0.91,1.811-1.869,1.902-3.115c0.362-4.389,2.173-5.867,3.729-5.867
			c0.339,0,0.667,0.07,0.963,0.196c1.458,0.622,2.244,2.896,2.182,4.382c-0.117,2.998-6.495,0.779-7.569,8.393
			c-0.326,2.305,0.46,3.467,1.616,4.948c2.042,2.632,3.927,5.43,6.04,7.986c2.884,3.486,6.21,5.681,9.74,7.388
			c-3.276-3.229-5.307-7.717-5.307-12.68c0-7.371,4.547-14.531,10.92-17.026c1.804-0.706,3.678-0.983,5.527-0.983
			c0.83,0,1.654,0.057,2.465,0.154c1.682,0.203,2.754,0.471,3.396,0.471c1.131,0,0.928-0.828,0.359-4.287
			c-1.476-8.998-6.302-16.608-14.278-22.33c-0.26-0.186-0.32-0.548-0.134-0.808c0.113-0.158,0.291-0.241,0.471-0.241
			c0.117,0,0.235,0.035,0.337,0.108c8.917,6.397,12.836,14.616,14.559,20.663c0.289,1.016,0.513,1.394,0.663,1.394
			c0.265,0,0.298-1.179,0.05-2.103c-1.59-5.888-5.354-14.134-14.265-20.526c-0.259-0.186-0.319-0.547-0.133-0.808
			c0.113-0.158,0.291-0.242,0.472-0.242c0.117,0,0.234,0.035,0.336,0.108C58.051,64.334,62,72.206,63.813,78.185
			c0.177,0.585,0.339,0.802,0.469,0.802c0.275,0,0.41-0.968,0.256-1.504c-1.687-5.838-5.492-13.728-14.087-19.895
			c-0.26-0.187-0.32-0.547-0.134-0.808c0.113-0.158,0.291-0.242,0.471-0.242c0.117,0,0.234,0.035,0.336,0.108
			c8.246,5.916,12.217,13.39,14.13,19.263c0.198,0.609,0.372,0.84,0.499,0.84c0.23,0,0.31-0.751,0.114-1.384
			c-1.787-5.753-5.625-13.254-13.87-19.169c-0.26-0.186-0.32-0.547-0.134-0.807c0.113-0.158,0.291-0.242,0.471-0.242
			c0.117,0,0.234,0.035,0.336,0.108c8.123,5.827,12.096,13.164,14.042,18.997c0.184,0.553,0.356,0.762,0.492,0.762
			c0.262,0,0.385-0.785,0.185-1.395c-1.867-5.708-5.692-13.028-13.593-18.834c-0.257-0.188-0.313-0.55-0.125-0.807
			c0.114-0.154,0.29-0.236,0.468-0.236c0.119,0,0.238,0.036,0.34,0.111c7.911,5.813,11.856,13.095,13.839,18.899
			c0.163,0.476,0.309,0.658,0.418,0.658c0.208,0,0.286-0.654,0.102-1.214c-1.878-5.696-5.703-12.969-13.563-18.742
			c-0.258-0.189-0.313-0.551-0.125-0.808c0.113-0.155,0.288-0.236,0.466-0.236c0.119,0,0.239,0.036,0.342,0.112
			c7.833,5.754,11.777,12.951,13.78,18.726c0.193,0.558,0.437,0.77,0.671,0.77c0.517,0,0.991-1.029,0.794-1.635
			c-1.848-5.73-5.67-13.131-13.642-18.987c-0.257-0.188-0.313-0.55-0.125-0.808c0.113-0.154,0.289-0.235,0.466-0.235
			c0.119,0,0.239,0.036,0.342,0.112c7.548,5.545,11.488,12.432,13.554,18.093c0.399,1.092,0.795,1.538,1.074,1.538
			c0.401,0,0.56-0.924,0.137-2.168c-1.907-5.612-5.764-12.625-13.562-18.22c-0.26-0.185-0.32-0.547-0.134-0.808
			c0.113-0.157,0.29-0.241,0.47-0.241c0.117,0,0.235,0.036,0.338,0.109c7.879,5.651,11.854,12.723,13.86,18.465
			c0.369,1.056,0.671,1.514,0.831,1.514c0.197,0,0.18-0.692-0.189-1.815c-1.865-5.667-5.719-12.858-13.68-18.57
			c-0.259-0.187-0.32-0.547-0.134-0.807c0.113-0.158,0.291-0.242,0.472-0.242c0.117,0,0.234,0.035,0.336,0.108
			c8.07,5.79,12.044,13.068,14.002,18.882c0.353,1.045,0.685,1.496,0.89,1.496c0.261,0,0.318-0.721-0.041-1.868
			c-1.799-5.741-5.642-13.197-13.844-19.082c-0.259-0.187-0.319-0.547-0.133-0.808c0.113-0.158,0.291-0.242,0.471-0.242
			c0.117,0,0.235,0.035,0.337,0.109c8.566,6.144,12.519,13.969,14.342,19.936c0.227,0.741,0.5,1.054,0.707,1.054
			c0.279,0,0.438-0.572,0.196-1.436c-1.643-5.864-5.43-13.917-14.171-20.187c-0.259-0.186-0.32-0.548-0.132-0.808
			c0.113-0.158,0.291-0.242,0.471-0.242c0.116,0,0.234,0.035,0.336,0.108c8.77,6.291,12.704,14.343,14.47,20.36
			c0.27,0.918,0.556,1.332,0.739,1.332c0.217,0,0.289-0.576,0.022-1.578c-1.574-5.896-5.331-14.197-14.291-20.625
			c-0.261-0.187-0.319-0.548-0.134-0.808c0.113-0.158,0.291-0.241,0.471-0.241c0.117,0,0.235,0.035,0.337,0.108
			c9.314,6.683,13.174,15.352,14.774,21.458c0.191,0.732,0.482,1.054,0.72,1.054c0.302,0,0.515-0.526,0.314-1.396
			c-1.365-5.924-4.989-14.976-14.6-21.87c-0.26-0.186-0.32-0.547-0.133-0.808c0.113-0.158,0.29-0.242,0.471-0.242
			c0.117,0,0.234,0.035,0.337,0.108c9.955,7.143,13.68,16.555,15.073,22.681c0.148,0.654,0.368,0.944,0.543,0.944
			c0.225,0,0.377-0.472,0.22-1.261c-1.168-5.857-4.622-15.613-14.83-22.936c-0.259-0.186-0.319-0.548-0.134-0.808
			c0.113-0.157,0.292-0.241,0.472-0.241c0.117,0,0.235,0.035,0.337,0.108c10.584,7.593,14.125,17.751,15.31,23.801
			c0.135,0.685,0.364,1.015,0.544,1.015c0.2,0,0.338-0.411,0.211-1.196c-0.914-5.628-4.08-16.316-15.058-24.191
			c-0.26-0.187-0.32-0.548-0.135-0.807c0.114-0.159,0.292-0.243,0.472-0.243c0.117,0,0.234,0.035,0.336,0.108
			c11.519,8.264,14.696,19.565,15.573,25.301c0.096,0.631,0.287,0.986,0.429,0.986c0.132,0,0.22-0.312,0.143-0.999
			c-0.565-4.98-3.182-17.064-15.271-25.739c-0.261-0.186-0.32-0.547-0.134-0.807C72.757,36.744,72.935,36.66,73.115,36.66
			 M73.115,34.66L73.115,34.66L73.115,34.66c-0.832,0-1.617,0.404-2.099,1.081c-0.1,0.14-0.186,0.287-0.255,0.441
			c-0.513,0.169-0.967,0.498-1.29,0.946c-0.122,0.17-0.22,0.351-0.295,0.537c-0.551,0.158-1.042,0.498-1.384,0.973
			c-0.123,0.171-0.221,0.353-0.296,0.54c-0.552,0.159-1.044,0.5-1.386,0.977c-0.151,0.211-0.269,0.44-0.35,0.68
			c-0.612,0.137-1.162,0.495-1.533,1.014c-0.111,0.156-0.203,0.321-0.275,0.49c-0.532,0.164-1.005,0.499-1.337,0.961
			c-0.132,0.183-0.237,0.379-0.316,0.584c-0.572,0.153-1.082,0.5-1.434,0.99c-0.121,0.17-0.219,0.35-0.294,0.536
			c-0.553,0.159-1.046,0.501-1.388,0.979c-0.094,0.131-0.173,0.268-0.239,0.409c-0.499,0.172-0.94,0.496-1.255,0.934
			c-0.153,0.215-0.269,0.445-0.348,0.683c-0.601,0.135-1.144,0.483-1.515,0.988c-0.229,0.313-0.377,0.662-0.448,1.019
			c-0.73,0.068-1.406,0.449-1.842,1.046c-0.098,0.134-0.181,0.274-0.25,0.42c-0.484,0.17-0.915,0.483-1.225,0.904
			c-0.096,0.131-0.177,0.267-0.245,0.408c-0.631,0.13-1.199,0.493-1.58,1.026c-0.101,0.14-0.186,0.289-0.255,0.442
			c-0.513,0.169-0.968,0.498-1.29,0.947c-0.122,0.17-0.219,0.35-0.294,0.536c-0.552,0.159-1.043,0.499-1.385,0.975
			c-0.122,0.171-0.22,0.352-0.295,0.538c-0.553,0.159-1.045,0.5-1.387,0.977c-0.828,1.158-0.56,2.771,0.595,3.599
			c7.535,5.405,12.067,12.48,13.469,21.028l0.092,0.556c0.069,0.417,0.139,0.839,0.197,1.218c-0.505-0.083-1.114-0.18-1.831-0.267
			c-0.924-0.112-1.834-0.169-2.705-0.169c-2.25,0-4.355,0.377-6.256,1.121C41.827,88.492,36.7,96.436,36.7,104.615
			c0,2.057,0.311,4.063,0.91,5.968c-0.632-0.612-1.229-1.26-1.801-1.95c-1.212-1.467-2.384-3.067-3.518-4.614
			c-0.802-1.095-1.632-2.228-2.483-3.324c-1.068-1.369-1.423-1.978-1.215-3.441c0.489-3.468,2.107-4.075,3.981-4.779
			c1.396-0.525,3.508-1.318,3.605-3.815c0.083-1.976-0.917-5.242-3.396-6.3c-0.561-0.237-1.147-0.356-1.748-0.356
			c-2.459,0-5.254,2.023-5.722,7.703c-0.036,0.493-0.621,1.126-1.208,1.744c-0.457-0.441-1.092-1.261-1.502-2.352
			c-0.074-0.28-0.222-1.018-0.365-1.731c-1.542-7.666-2.836-12.029-5.259-13.13c-0.66-0.296-1.387-0.444-2.17-0.444
			c-2.65,0-5.514,1.797-5.521,4.702c0.007,1.247,0.444,2.373,1.051,3.375c-1.134-1.136-2.5-2.141-4.251-2.141
			c-0.896,0-1.772,0.272-2.605,0.812c-2.186,1.418-2.551,3.02-2.473,4.114c0.224,3.145,4.241,5.26,8.337,7.156
			c0.4,0.185,0.75,0.347,1.024,0.482c3.411,1.917,5.292,3.313,8.457,5.809c0.451,0.398,1.769,1.831,5.581,6.912l0.763,1.019
			c1.848,2.471,3.593,4.805,5.603,7.175c6.069,7.216,11.496,10.818,18.603,14.313c0.555,4.128,2.084,7.447,4.555,9.879
			c0.637,0.628,1.298,1.248,1.92,1.829c0.013,0.013,0.256,0.252,0.189,1.515c-0.015,0.282-0.028,0.551-0.04,0.805
			c-0.037,0.79-0.083,1.764-0.206,2.06c-0.091,0.05-0.404,0.184-1.283,0.286c-0.259,0.03-0.543,0.045-0.868,0.045
			c-0.444,0-0.905-0.027-1.392-0.056c-0.377-0.022-0.755-0.044-1.134-0.055c-0.829-0.034-1.708-0.052-2.664-0.052h-0.167h-0.119
			l-0.119,0.015c-0.898,0.109-1.919,0.317-2.675,1.029c-1.037,1.003-1.118,1.97-1.006,2.607c0.089,0.509,0.424,1.445,1.674,2.007
			c0.54,0.246,1.141,0.374,1.777,0.374c0.337,0,0.681-0.034,1.081-0.105c0.551-0.102,0.953-0.154,1.313-0.174
			c0.78-0.06,1.563-0.088,2.375-0.088c1.825,0,3.818,0.146,5.763,0.421c0.491,0.067,1.055,0.139,1.629,0.139
			c1.191,0,2.091-0.315,2.751-0.965c0.545-0.525,0.852-1.225,0.851-1.955c-0.002-1.274-0.883-2.117-1.409-2.621
			c-0.059-0.056-0.116-0.108-0.164-0.157c-0.148-0.4,0.189-1.784,0.667-2.293c0.132-0.141,0.258-0.241,0.675-0.241
			c0.506,0,1.204,0.157,1.942,0.324c1.06,0.238,2.262,0.509,3.599,0.509c3.839-0.019,7.774-1.029,11.247-1.921
			c2.873-0.737,5.588-1.435,7.666-1.435c2.412,0,3.459,0.86,3.998,3.287c0.112,0.509,0.076,0.824,0.044,0.937
			c-0.044,0.045-0.096,0.092-0.147,0.143c-0.526,0.505-1.406,1.35-1.41,2.624c-0.002,0.729,0.303,1.428,0.859,1.968
			c0.665,0.641,1.56,0.95,2.739,0.95c0.563,0,1.117-0.067,1.633-0.142c1.941-0.273,3.945-0.419,5.793-0.419
			c0.8,0,1.574,0.027,2.302,0.08c0.4,0.029,0.83,0.087,1.354,0.181c0.39,0.071,0.745,0.106,1.082,0.106
			c0.633,0,1.232-0.127,1.782-0.376c1.235-0.54,1.575-1.482,1.666-1.995c0.114-0.644,0.033-1.617-0.998-2.603
			c-0.739-0.714-1.725-0.924-2.678-1.044l-0.125-0.016h-0.125c-1.019,0-1.946,0.017-2.836,0.049
			c-0.355,0.013-0.716,0.034-1.075,0.056c-0.5,0.03-0.972,0.059-1.426,0.059c-0.326,0-0.612-0.016-0.873-0.046
			c-0.607-0.071-1.388-0.253-1.662-0.718c-0.767-1.296,0.738-4.989,1.306-6.38l0.489-1.198c2.071-5.053,4.391-10.708,3.962-17.598
			l8.263,2.034l0.177,0.043c0.856,0.212,1.422,0.352,2.009,0.352c1.634,0,2.368-1.037,3.146-2.135l0.311-0.437
			c4.29-5.923,8.816-12.291,12.791-19.229c3.396-5.98,4.498-7.429,4.785-7.755c2.673-2.655,4.165-4.056,7.046-6.159
			c0.226-0.146,0.513-0.319,0.839-0.519c3.6-2.192,7.101-4.583,6.94-7.563c-0.057-1.056-0.602-2.539-2.875-3.607
			c-0.673-0.319-1.361-0.481-2.041-0.481c-1.594,0-2.783,0.841-3.721,1.86c0.246-0.772,0.36-1.593,0.24-2.452
			c-0.31-2.206-2.443-3.806-5.075-3.806c-0.998,0-1.931,0.241-2.697,0.696c-2.177,1.312-2.85,5.429-3.335,12.57
			c-0.043,0.631-0.091,1.339-0.124,1.601c-0.219,0.912-0.635,1.649-0.968,2.092c-0.539-0.44-1.101-0.92-1.179-1.273
			c-1.337-5.992-4.787-6.459-5.813-6.459c-0.754,0-1.498,0.199-2.152,0.575c-1.124,0.63-1.82,1.755-2.192,2.952
			c-0.85-1.742-1.905-3.389-3.151-4.898c-4.735-5.736-11.71-9.026-19.137-9.026c-1.111,0-1.898-0.018-2.457-0.043
			c-0.136-1.18-0.988-1.974-1.62-2.408c-0.087-0.061-0.168-0.115-0.242-0.164l-0.03-0.292c-0.588-5.289-3.378-18.608-16.578-28.076
			C74.174,34.826,73.656,34.66,73.115,34.66L73.115,34.66L73.115,34.66z M110.571,110.665c6.112-4.646,9.775-11.894,9.775-19.735
			c0-1.643-0.164-3.272-0.484-4.867c0.552,0.223,1.118,0.354,1.6,0.467c1.779,0.416,3.315,0.774,4.159,3.755
			c0.387,1.348,0.079,1.855-0.835,3.361c-0.265,0.436-0.564,0.929-0.869,1.493c-3.015,5.617-6.713,10.356-12.278,15.714
			C111.268,110.798,110.912,110.735,110.571,110.665L110.571,110.665z"/>
	</g>
</g>
<g id="Layer_1">
</g>
</svg>
