<?xml version="1.0" encoding="iso-8859-1"?>
<!-- Generator: Adobe Illustrator 16.0.0, SVG Export Plug-In . SVG Version: 6.00 Build 0)  -->
<!DOCTYPE svg PUBLIC "-//W3C//DTD SVG 1.1//EN" "http://www.w3.org/Graphics/SVG/1.1/DTD/svg11.dtd">
<svg version="1.1" xmlns="http://www.w3.org/2000/svg" xmlns:xlink="http://www.w3.org/1999/xlink" x="0px" y="0px" width="150px"
	 height="150px" viewBox="0 0 150 150" style="enable-background:new 0 0 150 150;" xml:space="preserve">
<g id="_x30_3_x5F_03">
	<rect style="fill:none;" width="150" height="150"/>
	<g>
		<g>
			<path style="fill-rule:evenodd;clip-rule:evenodd;fill:#90C972;" d="M98.069,49.815c-4.394,5.425-6.956,13.007-10.443,19.609
				c-1.768,3.349-4.205,7.087-7.15,10.277c-5.534,5.99-8.311,9.383-12.404,1.628c-1.148-2.176-1.394-4.506-0.112-7.581
				c1.435-3.438,3.456-6.652,6.688-7.947c4.121-1.655,8.514,1.132,10.777-3.709c1.298-2.782,0.096-6.09-2.682-7.384
				c-2.777-1.297-5.934-0.022-7.384,2.679c-2.244,4.181-0.661,4.597-4.704,8.241c-3.123,2.809-5.511,6.773-7.441,9.658
				c-1.734,2.6-1.73,4.565-3.705,5.396c-2.167,0.912-6.136,0.291-3.542-6.386c2.074-5.338,5.579-12.263,7.01-16.105
				c2.605-6.996,6.557-13.957,7.68-20.847c1.171-7.205-0.809-14.793-6.294-19.811c-7.934-7.242-20.237-6.698-27.5,1.239
				c-7.243,7.915-6.694,20.239,1.232,27.489c3.354,3.064,7.498,4.636,11.693,5.042c13.027,1.261,9.582,8.241,4.366,16.306
				c-3.454,5.341-7.685,11.16-8.42,16.108c-0.313,2.102-2.034,3.495-4.622,3.941c-2.556,0.44-5.107,0.713-7.625,0.745
				c-0.696-3.699-0.749-7.442,0.142-11.182c0.492-2.065,1.2-4.105,1.759-6.16c0.31-1.167,0.602-2.012,1.923-2.71
				c4.36-2.318,5.713,1.854,7.309,0.777c0.794-0.531,1.662-1.794,1.412-2.788c-0.29-1.141-1.833-2.097-4.774-0.307
				c-0.685,0.418-1.549,0.289-2.359,0.185c-0.57-0.074-0.86-0.257-0.958-0.53c-0.204-0.589,0.023-1.98,0.802-3.16
				c0.619-0.825,5.663-5.828,5.274-7.53c-0.288-1.246-2.062-2.414-3.167-1.605c-1.097,0.796-1.275,2.602-1.525,3.817
				c-0.325,1.652-1.61,5.377-2.341,5.365c-0.681-0.008-0.496-0.246-0.547-1.078c-0.052-0.832,0.571-5.168,0.704-5.881
				c0.269-1.574,0.984-3.626-0.856-4.324c-3.832-1.456-1.991,4.822-1.647,6.648c0.373,2.637,0.38,4.199,0.336,6.86
				c-0.057,0.917-0.788,3.572-1.436,5.814c-0.62,2.141-1.226,4.166-1.727,6.343c-0.928,4.06-1.314,7.533-1.115,10.803
				c0.051,0.813,0.075,1.269-0.137,2.055c-0.391,1.471-0.145,1.354,2.042,1.486c2.341,0.145,4.73-0.029,7.309-0.508
				c2.709-0.499,4.546-0.71,2.125,1.467c-7.957,7.143-11.592,22.89-5.031,43.016c1.047,3.222,1.17,4.956,0.984,8.405
				c-0.161,3.084,0.043,4.099-2.904,4.446c-1.088,0.128-2.17-0.013-3.257-0.051c-0.814-0.029-1.623-0.042-2.445-0.042
				c-0.608,0.074-1.091,0.188-1.36,0.445c-0.622,0.599-0.364,0.969,0.096,1.176c0.494,0.22,0.991,0.199,1.492,0.107
				c0.5-0.09,0.938-0.149,1.379-0.185c2.426-0.178,5.104-0.022,7.523,0.313c0.877,0.124,1.901,0.231,2.386-0.236
				c0.723-0.693-0.515-1.432-0.833-1.886c-0.765-1.074,0.551-6.702,1.707-10.333c1.103-3.464,1.852-2.542,5.289-2.567
				c11.557-0.068,19.96,1.332,29.963,1.05c5.017-0.143,5.497-1.376,6.54,2.602c0.999,3.789,1.738,7.883,1.052,8.85
				c-0.381,0.535-1.839,1.404-0.982,2.226c0.57,0.551,1.774,0.42,2.813,0.277c2.849-0.401,6.018-0.579,8.879-0.367
				c0.521,0.04,1.039,0.108,1.627,0.216c0.585,0.111,1.173,0.133,1.762-0.126c0.537-0.242,0.839-0.681,0.108-1.388
				c-0.316-0.308-0.889-0.444-1.605-0.523c-0.969,0-1.922,0.013-2.881,0.043c-1.286,0.046-2.563,0.21-3.844,0.063
				c-3.48-0.41-3.238-1.606-3.432-5.245c-0.029-0.629-0.189-3.101-0.301-5.747c-0.354-8.296,7.586-13.463,3.396-22.635
				c1.71,0.125,4.477,5.803,9.946,9.796c0.06,0.044,0.12,0.09,0.18,0.134c0.002,0,0.003,0.001,0.004,0.002
				c0.029,0.022,0.073,0.056,0.129,0.097c0.001,0,0.003,0.002,0.003,0.002c0.002,0.001,0.005,0.003,0.007,0.005
				s0.004,0.007,0.006,0.009c1.072,0.761,6.432,4.358,7.438,5.461c1.68,2.009,2.635,3.209,3.981,5.449
				c0.863,1.61,3.332,7.542,5.364,4.066c0.969-1.669-0.841-2.798-2.018-3.834c-0.54-0.463-3.696-3.391-4.168-4.055
				c-0.475-0.672-0.761-0.738-0.246-1.167c0.548-0.46,3.834,1.593,5.103,2.657c0.939,0.773,2.192,2.041,3.519,1.974
				c1.352-0.066,1.978-2.058,1.429-3.181c-0.752-1.539-7.698-2.254-8.678-2.497c-1.322-0.424-2.356-1.346-2.562-1.924
				c-0.097-0.265,0.01-0.584,0.403-0.994c0.553-0.579,1.135-1.215,1.916-1.317c3.352-0.446,3.943-2.134,3.457-3.182
				c-0.416-0.912-1.861-1.341-2.793-1.261c-1.886,0.16-0.349,4.189-5.11,5.107c-1.946,0.377-2.62-0.597-4.258-1.668
				c-0.467-0.304-1.331-0.961-1.334-0.96c-0.27-0.187-0.587-0.416-0.981-0.67C85.435,108.981,82.199,95.396,84.44,85.39
				c1.313-5.849,4.863-19.004,12.331-15.936c1.89,0.777,3.099,3.605,4.773,5.228c3.029,2.932,7.029,4.906,11.547,5.368
				c10.688,1.087,20.249-6.706,21.334-17.381c1.087-10.703-6.699-20.246-17.384-21.345C109.646,40.572,102.666,44.145,98.069,49.815
				z"/>
			<path style="fill-rule:evenodd;clip-rule:evenodd;fill:#FFFFFF;" d="M117.637,43.375c9.504,0.977,16.428,9.464,15.461,18.983
				c-0.965,9.494-9.469,16.427-18.974,15.458c-9.509-0.973-16.434-9.469-15.455-18.974C99.618,49.329,108.126,42.409,117.637,43.375
				z"/>
			<path style="fill-rule:evenodd;clip-rule:evenodd;fill:#FFFFFF;" d="M52.758,14.514c9.504,0.977,16.428,9.465,15.461,18.983
				c-0.965,9.494-9.468,16.426-18.974,15.459c-9.508-0.974-16.434-9.47-15.455-18.976C34.74,20.468,43.249,13.548,52.758,14.514z"/>
			<path style="fill-rule:evenodd;clip-rule:evenodd;" d="M106.212,51.84c1.995,0.201,3.454,1.997,3.249,4
				c-0.204,2.002-1.995,3.465-3.997,3.259c-2.006-0.205-3.458-1.996-3.25-4C102.411,53.096,104.196,51.631,106.212,51.84z"/>
			<path style="fill-rule:evenodd;clip-rule:evenodd;" d="M41.333,22.979c1.995,0.2,3.454,1.997,3.25,3.999
				s-1.995,3.464-3.997,3.259c-2.006-0.206-3.459-1.996-3.25-3.999C37.531,24.236,39.318,22.77,41.333,22.979z"/>
			<circle style="fill-rule:evenodd;clip-rule:evenodd;fill:#FFFFFF;" cx="80.38" cy="59.683" r="4.651"/>
			<circle style="fill-rule:evenodd;clip-rule:evenodd;" cx="80.142" cy="57.715" r="1.661"/>
		</g>
		<g>
			<path style="fill-rule:evenodd;clip-rule:evenodd;" d="M76.455,120.328c-2.809,4.761-7.349,7.274-12.447,8.053
				c-4.913,0.754-9.694-0.212-13.55-3.715c-6.46-5.878-7.6-14.483-2.911-22.066c2.793-4.523,7.138-6.883,12.049-7.635
				c5.101-0.775,10.11,0.276,14.039,4.008C79.668,104.699,80.763,113.02,76.455,120.328z"/>
			<polygon style="fill-rule:evenodd;clip-rule:evenodd;fill:#FFFFFF;" points="79.026,107.139 74.907,108.807 79.413,110.945 			
				"/>
			<polygon style="fill-rule:evenodd;clip-rule:evenodd;fill:#FFFFFF;" points="78.934,116.083 72.963,116.177 76.922,120.752 			
				"/>
			<polygon style="fill-rule:evenodd;clip-rule:evenodd;fill:#FFFFFF;" points="53.821,128.334 56.391,123.104 58.339,129.243 			
				"/>
			<polygon style="fill-rule:evenodd;clip-rule:evenodd;fill:#FFFFFF;" points="63.122,93.836 62.777,102.065 68.445,95.337 			"/>
			<polygon style="fill-rule:evenodd;clip-rule:evenodd;fill:#FFFFFF;" points="46.505,103.261 50.371,108.052 44.817,108.218 			
				"/>
			<polygon style="fill-rule:evenodd;clip-rule:evenodd;fill:#FFFFFF;" points="44.616,113.324 47.246,114.861 44.923,116.954 			
				"/>
			<path style="fill-rule:evenodd;clip-rule:evenodd;fill:#90C972;" d="M76.455,120.328c4.308-7.308,3.213-15.629-2.82-21.355
				c-4.541-4.314-10.045-4.618-14.039-4.008c-4.912,0.754-9.256,3.111-12.049,7.635c-4.688,7.583-3.55,16.187,2.911,22.066
				c3.856,3.503,8.637,4.469,13.55,3.715C69.106,127.603,73.646,125.089,76.455,120.328L76.455,120.328L76.455,120.328z
				 M77.673,121.156c-3.038,5.154-7.943,7.918-13.459,8.767c-5.325,0.81-10.511-0.276-14.683-4.071
				c-7.327-6.66-8.495-15.521-3.187-24.114c3.029-4.896,7.729-7.494,13.05-8.31c5.521-0.844,10.944,0.343,15.197,4.383
				C81.397,104.271,82.535,112.915,77.673,121.156L77.673,121.156z"/>
		</g>
	</g>
</g>
<g id="Layer_1">
</g>
</svg>
