<?xml version="1.0" encoding="iso-8859-1"?>
<!-- Generator: Adobe Illustrator 16.0.0, SVG Export Plug-In . SVG Version: 6.00 Build 0)  -->
<!DOCTYPE svg PUBLIC "-//W3C//DTD SVG 1.1//EN" "http://www.w3.org/Graphics/SVG/1.1/DTD/svg11.dtd">
<svg version="1.1" xmlns="http://www.w3.org/2000/svg" xmlns:xlink="http://www.w3.org/1999/xlink" x="0px" y="0px" width="150px"
	 height="150px" viewBox="0 0 150 150" style="enable-background:new 0 0 150 150;" xml:space="preserve">
<g id="_x30_4_x5F_04">
	<rect style="fill:none;" width="150" height="150"/>
	<g>
		<path style="fill-rule:evenodd;clip-rule:evenodd;fill:#8E4599;" d="M58.551,104.511c-0.389-0.019-0.712-0.013-0.988-0.015
			c0,0-0.909,0.029-1.365,0.016c-1.632-0.059-2.557,0.285-3.701-0.904c-2.802-2.905,0.175-4.908-1.031-5.919
			c-0.6-0.505-1.786-0.901-2.51-0.48c-0.829,0.481-1.237,1.913,0.833,3.819c0.483,0.444,0.576,1.153,0.675,1.813
			c0.069,0.466-0.009,0.734-0.201,0.872c-0.418,0.293-1.557,0.428-2.664,0.081c-0.784-0.302-5.854-3.139-7.105-2.451
			c-0.912,0.505-1.434,2.161-0.55,2.849c0.876,0.683,2.33,0.418,3.343,0.341c1.373-0.116,4.587,0.057,4.743,0.632
			c0.147,0.541-0.082,0.447-0.724,0.676c-0.642,0.227-4.19,0.712-4.778,0.77c-1.298,0.142-3.073,0.042-3.207,1.646
			c-0.282,3.335,4.239,0.48,5.596-0.202c1.988-0.885,3.214-1.243,5.317-1.807c1.213-0.268,6.584-0.156,7.674-0.165l0,0l0.011,0.002
			h0.005h0.005c0.059,0,0.104-0.002,0.133-0.003l0.001-0.002l0.001,0.002l0.186-0.005c4.314-0.077,7.737-0.524,10.738-1.547
			c1.979-0.674,2.622-1.523,1.714,1.645c-3.27,11.417-15.697,21.146-8.345,30.766c1.005,1.314,2.268,2.711,3.866,4.188
			c0.601,0.556,0.773,1.47,0.71,2.669c-0.16,3.027,0.04,4.026-2.855,4.366c-1.065,0.124-2.126-0.016-3.195-0.052
			c-0.798-0.026-1.594-0.037-2.4-0.037c-0.598,0.071-1.076,0.182-1.336,0.437c-0.609,0.586-0.357,0.951,0.096,1.153
			c0.484,0.217,0.973,0.199,1.464,0.104c0.488-0.09,0.921-0.146,1.353-0.177c2.381-0.178,5.013-0.028,7.388,0.305
			c0.861,0.121,1.864,0.227,2.342-0.23c0.71-0.684-0.505-1.405-0.82-1.852c-0.773-1.091-0.101-3.313,0.724-4.19
			c0.507-0.543,1.054-0.808,1.644-0.95c3.053-0.751,19.855-3.043,22.323-0.412c1,1.064,1.817,3.761,0.878,5.084
			c-0.385,0.542-1.856,1.419-0.996,2.247c0.58,0.557,1.799,0.43,2.843,0.282c2.883-0.404,6.078-0.588,8.968-0.371
			c0.522,0.038,1.051,0.106,1.643,0.217c0.596,0.11,1.191,0.134,1.775-0.128c0.551-0.247,0.855-0.688,0.116-1.402
			c-0.317-0.308-0.896-0.442-1.621-0.531c-0.98,0-1.945,0.017-2.912,0.048c-1.299,0.046-2.587,0.215-3.881,0.063
			c-3.512-0.413-3.269-1.621-3.462-5.298c-0.515-9.594,11.023-17.482,0.946-29.994c-2.001-2.482-4.976-4.924-6.617-7.612
			c-1.911-3.126-0.896-2.441,1.778-2.214c3.83,0.324,7.991-0.149,13.092-1.316l0.222-0.048l0,0l0.001-0.002
			c0.034-0.007,0.086-0.019,0.159-0.035l0.004-0.003h0.006l0.013-0.005c1.289-0.309,7.583-2.009,9.089-2.048
			c2.645,0.048,4.191,0.117,6.793,0.575c1.799,0.406,7.957,2.451,6.652-1.398c-0.628-1.849-2.688-1.214-4.26-1.001
			c-0.71,0.103-5.029,0.569-5.854,0.489c-0.826-0.082-1.066,0.097-1.053-0.584c0.015-0.722,3.754-1.865,5.404-2.129
			c1.216-0.206,3.008-0.32,3.841-1.377c0.84-1.072-0.26-2.87-1.481-3.197c-1.673-0.446-6.815,4.377-7.653,4.963
			c-1.201,0.73-2.584,0.908-3.163,0.683c-0.265-0.104-0.438-0.402-0.49-0.97c-0.077-0.805-0.173-1.666,0.266-2.334
			c1.879-2.851,0.985-4.415-0.136-4.743c-0.975-0.284-2.256,0.532-2.815,1.3c-1.125,1.542,2.966,3.034,0.514,7.276
			c-1.001,1.731-2.191,1.602-4.097,2.145c-0.532,0.15-1.611,0.379-1.611,0.379c-0.325,0.083-0.707,0.172-1.162,0.305
			c-35.13,10.339-25.459-42.103-25.631-69.303C79.687,17.226,70.232,5.776,58.023,5.776c-6.024,0-10.91,4.884-10.91,10.911
			c0,6.026,4.932,10.179,10.91,10.911c11.101,1.36,15.614-0.973,16.05,6.483c0.324,5.543-5.31,4.565-10.243,4.811
			c-1.265,0.063-2.992,0.199-4.09,0.792c-0.506,0.272-0.96,0.63-1.344,1.052c-0.578,0.558-0.929,1.203-1.081,1.881
			c-0.15,0.479-0.231,0.986-0.231,1.515c0,2.79,2.262,5.052,5.052,5.052c2.82,0,11.9-2.069,12.14,1.972
			c0.313,5.281-3.256,5.783-12.447,4.546c-1.925-0.259-2.995-0.16-4.643-0.16c-3.418,0-6.189,2.77-6.189,6.188
			c0,3.417,2.771,6.188,6.189,6.188c4.507,0,15.323-6.206,16.712,0.991c0.53,2.735-1.162,7.621-4.397,7.783
			c-1.376,0.068-5.329-1.253-6.162-1.253c-2.627,0-4.755,2.128-4.755,4.755c0,2.629,2.128,4.756,4.755,4.756
			C80.731,84.949,75.8,105.256,58.551,104.511z"/>
		<g>
			<path style="fill-rule:evenodd;clip-rule:evenodd;fill:#252422;" d="M67.641,125.615c-0.731-0.247-2.211-0.753-2.795,0.015
				c-0.126,0.166-0.164,0.413-0.152,0.804c0.046,1.533,0.906,3.354,1.703,4.645c0.969,1.563,2.112,2.499,3.442,3.316
				c3.946,2.419,8.072,2.785,12.55,1.741c3.621-0.845,6.762-2.454,9.648-5.561c1.653-1.778,3.419-4.265,4.128-6.82
				c0.218-0.78,0.337-1.568,0.321-2.345c-0.009-0.501-0.083-1.026-0.245-1.696c-0.323-0.786-0.561-1.233-0.859-1.42
				c-0.539-0.339-1.441,0.209-1.911,0.528c-0.633,0.427-1.213,0.945-1.781,1.479c-1.261,1.186-2.548,2.337-3.929,3.382
				c-2.793,2.115-5.708,3.51-9.537,3.877C74.791,127.887,70.844,126.798,67.641,125.615z"/>
			<polygon style="fill-rule:evenodd;clip-rule:evenodd;fill:#FFFFFF;" points="93.493,118.361 94.432,122.188 91.024,120.354 			
				"/>
			<polygon style="fill-rule:evenodd;clip-rule:evenodd;fill:#FFFFFF;" points="89.928,121.313 90.729,125.261 87.241,123.535 			
				"/>
			<polygon style="fill-rule:evenodd;clip-rule:evenodd;fill:#FFFFFF;" points="85.284,124.959 85.775,128.476 82.509,126.218 			
				"/>
			<polygon style="fill-rule:evenodd;clip-rule:evenodd;fill:#FFFFFF;" points="80.56,126.955 79.201,130.453 77.172,127.198 			"/>
			<polygon style="fill-rule:evenodd;clip-rule:evenodd;fill:#FFFFFF;" points="75.182,127.223 73.115,130.16 72.182,126.754 			"/>
			<polygon style="fill-rule:evenodd;clip-rule:evenodd;fill:#FFFFFF;" points="69.616,126.067 67.351,128.586 66.667,125.078 			
				"/>
			<polygon style="fill-rule:evenodd;clip-rule:evenodd;fill:#FFFFFF;" points="65.913,131.074 68.796,129.893 68.163,133.625 			
				"/>
			<polygon style="fill-rule:evenodd;clip-rule:evenodd;fill:#FFFFFF;" points="70.093,135.061 73.002,132.543 73.596,136.438 			
				"/>
			<polygon style="fill-rule:evenodd;clip-rule:evenodd;fill:#FFFFFF;" points="75.926,136.887 77.938,133.345 79.333,137.025 			
				"/>
			<polygon style="fill-rule:evenodd;clip-rule:evenodd;fill:#FFFFFF;" points="82.352,136.706 82.676,132.687 85.613,135.631 			
				"/>
			<polygon style="fill-rule:evenodd;clip-rule:evenodd;fill:#FFFFFF;" points="87.868,134.287 87.042,130.646 90.608,132.417 			
				"/>
			<polygon style="fill-rule:evenodd;clip-rule:evenodd;fill:#FFFFFF;" points="91.96,130.981 90.437,127.613 94.196,128.515 			"/>
			<polygon style="fill-rule:evenodd;clip-rule:evenodd;fill:#FFFFFF;" points="94.947,127.392 92.221,124.667 96.367,124.286 			
				"/>
			<path style="fill-rule:evenodd;clip-rule:evenodd;fill:#8E4599;" d="M97.635,119.142c-0.321-0.786-0.7-1.653-1.448-2.124
				c-1.181-0.744-2.532-0.141-3.562,0.558c-0.707,0.479-1.345,1.045-1.967,1.629c-1.22,1.146-2.471,2.266-3.807,3.277
				c-2.694,2.043-5.366,3.252-8.771,3.576c-3.19,0.306-6.942-0.758-9.917-1.855l-0.019-0.009l-0.02-0.006
				c-0.455-0.155-0.905-0.296-1.379-0.385c-1.137-0.212-2.347-0.074-3.1,0.915c-0.396,0.521-0.476,1.125-0.458,1.759
				c0.054,1.827,0.976,3.856,1.927,5.396c1.03,1.663,2.29,2.796,3.937,3.807c4.297,2.637,8.828,3.057,13.682,1.925
				c4.151-0.969,7.484-2.855,10.407-6.001c1.911-2.056,3.721-4.716,4.478-7.444c0.252-0.902,0.395-1.837,0.377-2.778
				c-0.013-0.685-0.127-1.353-0.288-2.021l-0.027-0.11L97.635,119.142L97.635,119.142z M67.641,125.615
				c3.203,1.183,7.15,2.271,10.583,1.945c3.829-0.367,6.744-1.761,9.537-3.877c1.381-1.045,2.668-2.196,3.929-3.382
				c0.568-0.534,1.148-1.051,1.781-1.479c0.47-0.32,1.372-0.867,1.911-0.528c0.299,0.187,0.536,0.634,0.859,1.42
				c0.162,0.67,0.236,1.195,0.245,1.696c0.016,0.776-0.104,1.564-0.321,2.345c-0.709,2.556-2.475,5.042-4.128,6.82
				c-2.887,3.106-6.027,4.716-9.648,5.561c-4.479,1.044-8.604,0.678-12.55-1.741c-1.33-0.817-2.474-1.753-3.442-3.316
				c-0.797-1.29-1.657-3.111-1.703-4.645c-0.011-0.391,0.026-0.638,0.152-0.804C65.43,124.862,66.91,125.368,67.641,125.615
				L67.641,125.615z"/>
		</g>
		<circle style="fill-rule:evenodd;clip-rule:evenodd;fill:#FFFFFF;" cx="58.024" cy="16.687" r="9.525"/>
		<circle style="fill-rule:evenodd;clip-rule:evenodd;fill:#FFFFFF;" cx="62.136" cy="44.132" r="4.174"/>
		<circle style="fill-rule:evenodd;clip-rule:evenodd;fill:#FFFFFF;" cx="57.184" cy="61.729" r="5.226"/>
		<circle style="fill-rule:evenodd;clip-rule:evenodd;" cx="55.53" cy="61.729" r="1.654"/>
		<circle style="fill-rule:evenodd;clip-rule:evenodd;" cx="60.575" cy="43.756" r="1.654"/>
		<circle style="fill-rule:evenodd;clip-rule:evenodd;" cx="51.838" cy="18.29" r="1.654"/>
		<circle style="fill-rule:evenodd;clip-rule:evenodd;fill:#FFFFFF;" cx="63.339" cy="80.193" r="3.876"/>
		<circle style="fill-rule:evenodd;clip-rule:evenodd;" cx="62.087" cy="80.549" r="1.654"/>
	</g>
</g>
<g id="Layer_1">
</g>
</svg>
