<?xml version="1.0" encoding="iso-8859-1"?>
<!-- Generator: Adobe Illustrator 16.0.0, SVG Export Plug-In . SVG Version: 6.00 Build 0)  -->
<!DOCTYPE svg PUBLIC "-//W3C//DTD SVG 1.1//EN" "http://www.w3.org/Graphics/SVG/1.1/DTD/svg11.dtd">
<svg version="1.1" xmlns="http://www.w3.org/2000/svg" xmlns:xlink="http://www.w3.org/1999/xlink" x="0px" y="0px" width="150px"
	 height="150px" viewBox="0 0 150 150" style="enable-background:new 0 0 150 150;" xml:space="preserve">
<g id="_x30_4_x5F_03">
	<rect style="fill:none;" width="150" height="150"/>
	<g>
		<path style="fill-rule:evenodd;clip-rule:evenodd;fill:#835EA7;" d="M130.6,60.549c0-10.745-8.713-19.457-19.457-19.457
			c-10.744,0-18.152,8.793-19.459,19.457c-2.424,19.793,1.738,27.86-11.561,28.619c-11.892,0.68-12.264-3.014-10.865-8.438
			c0.634-2.468,1.245-5.382,2.09-8.23c2.401-8.093-1.797-14.116-9.307-13.614c-5.43,0.363-10.537,5.853-7.681,13.667
			c0.987,2.699,2.343,5.883,2.995,8.709c1.121,4.848,0.074,8.923-7.679,8.269c-14.592-1.231-7.823-20.313-7.823-30.478
			c0-6.094-4.938-11.034-11.034-11.034c-6.095,0-10.775,4.946-11.034,11.034c-0.393,9.151,8.438,19.346,10.452,29.057
			c1.292,6.233,1.242,12.705-6.518,8.312C16.536,92.48,7.551,88.656,7.325,81.76c-0.049-1.514,0.282-2.721,1.095-3.498
			c1.357-1.297,2.723-2.646,4.24-3.748c0.719-0.523,2.665-1.45,3.109-2.324c0.33-0.654,1.084-1.423,2.297-2.064
			c1.646-0.874,0.507-2.146,0.05-2.722c-0.764-0.962-2.829-0.586-3.031,1.532c-0.12,1.245-0.646,2.061-1.488,3.05
			c-1.358,1.596-3.886,3.646-4.127,1.615c-0.039-0.388,0.162-0.664,0.416-0.923c0.556-0.562,1.099-1.131,1.632-1.716
			c0.73-0.798,0.652-1.324,2.052-2.848c0.755-0.821,0.742-1.914,0.308-2.44c-0.575-0.7-1.648-0.729-2.35-0.157
			c-1.565,1.289,0.457,4.058-2.247,6.095c-1.051,0.792-2.17,0.708-3.065,0.137l-0.021,0.068c0-0.13,0.007-0.259,0.026-0.388
			c0.112-1.31,1.236-2.55,1.388-3.522c0.318-2.068,0.534-4-0.345-6.224c-0.875-2.225,0.181-2.945-0.084-4.71
			c-0.16-1.067-1.153-1.801-2.22-1.642c-1.066,0.157-2.572,1.211-2.415,2.279c0.212,2.822,5.287,4.948,3.73,9.503
			c-0.863,2.527-1.626,4.347-2.225,6.536c-0.627,2.288-0.376,5.234,0.473,8.544c2.316,9.023,11.83,12.865,18.763,18.12
			c4.498,3.409,3.867,5.275,5.473,10.454c0.761,2.455,1.736,5.037,2.894,7.916c2.587,6.428,13.668,20.051,7.253,27.05
			c-2.024,2.229-0.901,4.233,2.706,4.269c1.337-0.086,2.667-0.16,4.002-0.25c3.016-0.154,6.712,0.354,9.582-0.416
			c2.984-0.803,5.494-2.687,1.514-4.526c-1.368-0.646-6.784,0.687-8.864,0.687c-3.067,0-3.786-3.356-4.017-5.827
			c-0.399-4.465-4.853-19.977,3.499-14.68c10.104,6.404,27.293,7.268,38.759,0c8.35-5.297,8.104,10.215,7.705,14.68
			c-0.23,2.471-0.951,5.827-4.018,5.827c-2.08,0-7.496-1.333-8.865-0.687c-3.98,1.84-1.469,3.724,1.516,4.526
			c2.869,0.77,6.566,0.262,9.582,0.416c1.336,0.09,2.664,0.164,4.002,0.25c3.607-0.035,4.729-2.04,2.705-4.269
			c-1.373-1.497-2.359-4.042-2.281-7.11c0.289-9.801,5.457-27.209,14.902-32.352c1.375-0.748,2.883-1.328,4.074-1.779
			c8.135-3.083,18.346-4.08,23.117-12.084c1.748-2.935,2.822-5.69,2.865-8.063c0.045-2.27-0.174-4.229-0.287-6.898
			c-0.207-4.808,5.26-5.415,6.26-8.062c0.453-0.98-0.695-2.416-1.674-2.869c-0.977-0.454-2.137-0.029-2.59,0.95
			c-0.754,1.619,0.055,2.607-1.412,4.494c-1.473,1.885-1.811,3.798-2.088,5.874c-0.129,0.975,0.598,2.481,0.338,3.77
			c-0.02,0.129-0.051,0.256-0.086,0.38l-0.002-0.071c-1.02,0.296-2.117,0.061-2.9-0.997c-2.02-2.718,0.701-4.802-0.434-6.48
			c-0.514-0.748-1.551-1.022-2.301-0.514c-0.564,0.383-0.885,1.427-0.395,2.428c0.914,1.857,0.691,2.34,1.166,3.311
			c0.346,0.713,0.707,1.412,1.08,2.108c0.17,0.32,0.287,0.642,0.139,1.001c-0.805,1.882-2.65-0.799-3.504-2.713
			c-0.527-1.188-0.801-2.119-0.564-3.346c0.404-2.09-1.473-3.035-2.477-2.326c-0.602,0.423-2.053,1.322-0.719,2.625
			c0.98,0.958,1.488,1.909,1.619,2.63c0.18,0.964,1.783,2.402,2.326,3.106c1.145,1.486,2.076,3.165,3.008,4.791
			c0.563,0.977,0.537,2.229,0.064,3.667c-2.164,6.55-11.863,7.683-19.867,9.435c-2.326,0.508-3.742,0.782-4.672,1.016
			c-6.832,1.711-8.219-15.29-0.436-18.176C118.057,80.856,130.6,78.728,130.6,60.549z"/>
		<g>
			<circle style="fill-rule:evenodd;clip-rule:evenodd;fill:#FFFFFF;" cx="111.098" cy="61.727" r="16.361"/>
			<path style="fill-rule:evenodd;clip-rule:evenodd;fill:#010103;" d="M118.902,59.131c2.1,0.487,4.195-0.82,4.678-2.918
				c0.488-2.098-0.818-4.193-2.916-4.68c-2.1-0.486-4.193,0.822-4.68,2.919C115.498,56.551,116.805,58.646,118.902,59.131z"/>
		</g>
		<g>
			<circle style="fill-rule:evenodd;clip-rule:evenodd;fill:#FFFFFF;" cx="30.772" cy="58.964" r="8.952"/>
			<circle style="fill-rule:evenodd;clip-rule:evenodd;fill:#010103;" cx="35.182" cy="55.041" r="2.134"/>
		</g>
		<g>
			<circle style="fill-rule:evenodd;clip-rule:evenodd;fill:#FFFFFF;" cx="63.063" cy="67.847" r="6.916"/>
			<circle style="fill-rule:evenodd;clip-rule:evenodd;fill:#010103;" cx="67.335" cy="66.252" r="1.649"/>
		</g>
		<path style="fill-rule:evenodd;clip-rule:evenodd;fill:#010103;" d="M40.618,94.401c-1.387-0.885-4.191-2.693-5.793-1.397
			c-0.35,0.276-0.55,0.773-0.724,1.582c-0.695,3.196,0.149,7.416,1.141,10.496c1.205,3.733,3.094,6.26,5.426,8.63
			c6.928,7.04,15.28,9.917,25.099,10.051c7.936,0.109,15.259-1.612,22.835-6.565c4.332-2.835,9.273-7.075,12.047-12.003
			c0.852-1.505,1.502-3.079,1.869-4.693c0.238-1.041,0.355-2.167,0.357-3.637c-0.26-1.793-0.521-2.846-1.039-3.38
			c-0.947-0.985-3.098-0.312-4.234,0.109c-1.531,0.563-2.998,1.334-4.447,2.15c-3.225,1.807-6.48,3.533-9.873,4.992
			c-6.869,2.946-13.622,4.341-21.743,3.127C54.266,102.778,46.645,98.5,40.618,94.401z"/>
		<path style="fill-rule:evenodd;clip-rule:evenodd;fill:#FFFFFF;" d="M40.618,94.401c-0.463-0.294-1.083-0.691-1.763-1.043
			l-0.357,7.048l5.561-3.768C42.868,95.9,41.716,95.149,40.618,94.401L40.618,94.401z M35.119,104.693
			c0.042,0.133,0.081,0.263,0.123,0.389c0.687,2.131,1.598,3.866,2.686,5.405l2.889-6.631L35.119,104.693L35.119,104.693z
			 M41.75,114.766c1.813,1.696,3.722,3.123,5.724,4.307l0.698-7.57L41.75,114.766L41.75,114.766z M52.505,121.469
			c2.037,0.756,4.159,1.313,6.366,1.69l-0.89-7.463L52.505,121.469L52.505,121.469z M65.782,123.763
			c2.153,0.028,4.263-0.079,6.345-0.349l-4.001-6.648L65.782,123.763L65.782,123.763z M78.072,122.161
			c2.018-0.6,4.02-1.385,6.031-2.382l-5.885-4.994L78.072,122.161L78.072,122.161z M88.141,117.496
			c0.154-0.1,0.309-0.197,0.461-0.299c1.551-1.017,3.18-2.211,4.762-3.554l-6.557-3.401L88.141,117.496L88.141,117.496z
			 M95.826,111.379l-3.818-6.319l7.99,1.215C98.836,108.095,97.396,109.809,95.826,111.379L95.826,111.379z M97.887,93.492
			c-0.102,0.033-0.195,0.069-0.285,0.102c-1.531,0.563-2.998,1.334-4.447,2.15l-0.713,0.399l5.426,4.913L97.887,93.492
			L97.887,93.492z M88.939,98.031c-1.857,0.966-3.734,1.878-5.658,2.705l-0.209,0.088l5.543,4.694L88.939,98.031L88.939,98.031z
			 M77.416,102.848c-1.855,0.531-3.735,0.928-5.667,1.172l4.958,5.615L77.416,102.848L77.416,102.848z M66.353,104.288
			c-1.558-0.039-3.157-0.18-4.814-0.425c-0.556-0.084-1.113-0.186-1.672-0.305l2.214,6.797L66.353,104.288L66.353,104.288z
			 M54.859,102.079c-1.827-0.679-3.639-1.493-5.407-2.39l0.175,6.938L54.859,102.079z"/>
	</g>
</g>
<g id="Layer_1">
</g>
</svg>
