<?xml version="1.0" encoding="iso-8859-1"?>
<!-- Generator: Adobe Illustrator 16.0.0, SVG Export Plug-In . SVG Version: 6.00 Build 0)  -->
<!DOCTYPE svg PUBLIC "-//W3C//DTD SVG 1.1//EN" "http://www.w3.org/Graphics/SVG/1.1/DTD/svg11.dtd">
<svg version="1.1" xmlns="http://www.w3.org/2000/svg" xmlns:xlink="http://www.w3.org/1999/xlink" x="0px" y="0px" width="150px"
	 height="150px" viewBox="0 0 150 150" style="enable-background:new 0 0 150 150;" xml:space="preserve">
<g id="_x30_4_x5F_05_x5F_black">
	<rect style="fill:none;" width="150" height="150"/>
	<g>
		<path d="M106.151,149c-0.811,0-1.41-0.198-1.834-0.604c-0.431-0.415-0.521-0.861-0.521-1.164c0-0.783,0.588-1.348,0.978-1.721
			c0.086-0.083,0.169-0.155,0.222-0.223c0.935-2.132-1.214-21.237-3.205-22.958c-1.109-0.008-2.219-0.027-3.328-0.052
			c-5.297,1.085-12.104,1.682-19.182,1.682c-8.95,0-19.789-1.051-25.083-3.926c-1.089,9.031-1.294,16.692-0.659,24.508
			c0.867-0.063,1.75-0.13,2.626-0.196c3.122-0.237,6.07-0.462,8.102-0.462c2.526,0,3.422,1.26,3.422,2.338
			c0,1.337-1.433,2.758-4.088,2.758H51.997c-1.2,0-2.176-0.976-2.176-2.175c0-1.762,0.016-3.472,0.031-5.143
			c0.079-8.712,0.146-16.236-2.017-24.322c-0.365-1.363-0.741-2.671-1.109-3.953c-1.347-4.688-2.633-9.16-2.846-14.641
			c-0.62,0.869-1.271,1.653-1.961,2.365l-0.236,0.245c-0.597,0.621-0.991,1.032-1.625,1.032c-0.739,0-1.15-0.6-1.422-0.997
			c-0.238-0.348-0.396-0.468-0.818-0.788c-1.881-1.423-3.625-3.26-5.489-5.78c-0.834-1.127-1.552-2.225-2.312-3.386l-0.332-0.507
			c-1.604-2.453-2.142-3.108-2.32-3.281c-1.385-1.23-2.165-1.884-3.683-2.857c-0.085-0.048-0.248-0.135-0.435-0.235
			c-1.916-1.027-3.636-2.073-3.641-3.556c-0.002-0.527,0.227-1.281,1.325-1.88c0.368-0.201,0.747-0.303,1.126-0.303
			c0.73,0,1.304,0.363,1.771,0.813c-0.14-0.371-0.217-0.77-0.184-1.191c0.106-1.33,1.414-2.047,2.59-2.047
			c0.436,0,0.849,0.096,1.195,0.277c1.119,0.588,1.57,2.615,2.014,6.151c0.049,0.393,0.083,0.689,0.112,0.821
			c0.12,0.416,0.347,0.767,0.528,0.979c0.274-0.247,0.521-0.487,0.55-0.663c0.512-3.136,2.3-3.38,2.835-3.38
			c0.331,0,0.663,0.078,0.959,0.225c1.079,0.539,1.524,1.977,1.397,3.056c-0.137,1.184-1.166,1.487-1.846,1.688
			c-0.869,0.257-1.62,0.478-1.958,1.981c-0.144,0.636-0.004,0.882,0.418,1.502c0.358,0.526,0.703,1.064,1.047,1.604
			c0.461,0.723,0.938,1.47,1.437,2.157c1.278,1.76,2.887,3.241,4.899,4.509c0.853-1.085,1.687-2.308,2.484-3.646
			c1.538-2.581,1.167-4.969,0.698-7.992c-0.119-0.765-0.241-1.552-0.335-2.37c-1.165-10.065-2.797-16.664-14.405-16.664
			c-12.686,0-23.006-10.32-23.006-23.005c0-12.685,10.32-23.004,23.006-23.004c12.685,0,23.004,10.32,23.004,23.004
			c0,6.754-3.048,10.464-5.273,13.173c-1.403,1.708-2.417,2.942-2.275,4.285c0.147,1.396,1.589,3.166,4.409,5.411
			c6.688,5.327,11.369,6.806,15.431,7.609c0.429,0.085,0.903,0.128,1.409,0.128c3.162,0,7.084-1.67,8.742-3.723
			c0.633-0.785,0.874-1.539,0.716-2.241c-0.239-1.058-1.389-2.11-3.325-3.041c-0.504-0.242-1.122-0.472-1.837-0.737
			c-1.135-0.421-2.421-0.899-3.78-1.622c-6.354-3.376-10.302-9.94-10.302-17.13c0-10.691,8.699-19.389,19.391-19.389
			c10.69,0,19.388,8.698,19.388,19.389c0,4.059-1.243,7.949-3.595,11.249c-1.138,1.595-2.248,2.635-3.14,3.472
			c-1.981,1.857-2.723,2.553-0.962,7.101c0.736,1.903,1.755,2.939,3.635,3.694c1.665,0.668,3.143,1.007,4.391,1.007
			c3.675,0,5.439-2.906,7.532-7.012c0.793-1.554,1.055-4.204,1.182-6.062c0.309-4.486-0.004-4.703-1.042-5.42
			c-0.912-0.631-2.291-1.585-3.981-4.446c-1.5-2.542-1.92-5.516-1.183-8.375c0.737-2.859,2.543-5.26,5.085-6.76
			c1.7-1.004,3.639-1.535,5.604-1.535c3.898,0,7.549,2.083,9.528,5.436c2.262,3.832,2.012,8.62-0.637,12.198
			c-1.754,2.369-3.512,3.096-4.924,3.681c-1.862,0.77-2.889,1.194-3.174,5.458c-0.354,5.271-1.144,8.196-4.884,11.602
			c-0.707,0.644-1.053,1.225-0.926,1.553c0.254,0.658,2.023,1.28,3.641,1.28c3.059-0.011,4.912-0.408,5.53-1.18
			c0.571-0.712,0.267-2.1-0.12-3.856c-0.494-2.249-1.108-5.048-0.263-8.203c1.162-4.335,3.93-7.978,7.793-10.257
			c2.623-1.548,5.611-2.367,8.643-2.367c6.01,0,11.637,3.21,14.686,8.378c2.313,3.918,2.961,8.503,1.825,12.91
			c-1.135,4.407-3.918,8.107-7.837,10.419c-2.028,1.198-4.72,1.78-8.227,1.78c-3.668,0-7.75-0.626-11.698-1.231
			c-2.07-0.317-4.027-0.617-5.908-0.829c-0.333-0.037-0.763-0.106-1.244-0.184c-0.366-0.06-0.765-0.124-1.176-0.182
			c-0.511-0.071-0.964-0.107-1.345-0.107c-0.476,0-0.74,0.056-0.875,0.101c0.28,0.706,2.134,2.259,3.998,2.652
			c1.592,0.337,2.823,0.672,3.909,0.967c1.983,0.539,3.416,0.929,5.642,0.929c1.162,0,2.525-0.107,4.168-0.327
			c0.57-0.076,1.151-0.114,1.727-0.114c4.617,0,8.939,2.466,11.282,6.436c1.776,3.009,2.275,6.53,1.403,9.915
			c-0.872,3.384-3.011,6.227-6.02,8.003c-2.016,1.189-4.312,1.818-6.641,1.818c-4.614,0-8.936-2.466-11.278-6.434
			c-1.987-3.366-1.475-6.507-1.063-9.03c0.415-2.546,0.582-4.046-0.824-5.287c-1.852-1.637-2.705-2.046-3.033-2.147
			c-0.128,0.661,0.178,2.454,0.368,3.568c0.117,0.688,0.236,1.389,0.324,2.06c0.271,2.062,0.398,4.113,0.382,6.099
			c-0.026,2.825,1.199,5.907,2.457,8.821c1.165,2.695,3.298,6.385,6.838,8.651c0.216,0.139,0.403,0.268,0.57,0.385h0.018
			l0.299,0.224c0.138,0.104,0.687,0.515,0.995,0.718c0.295,0.191,0.557,0.382,0.799,0.56c0.661,0.482,0.974,0.695,1.462,0.695
			c0.138,0,0.287-0.017,0.453-0.048c1.773-0.345,2.072-1.255,2.388-2.22c0.237-0.727,0.598-1.826,1.854-1.934
			c0.086-0.008,0.179-0.012,0.274-0.012c1.081,0,2.476,0.504,2.985,1.611c0.311,0.676,0.277,1.445-0.09,2.111
			c-0.383,0.694-1.299,1.583-3.488,1.875c-0.264,0.035-0.594,0.381-0.913,0.715c-0.003,0.004-0.007,0.008-0.011,0.012
			c0.224,0.222,0.679,0.563,1.291,0.759c0.088,0.02,0.422,0.068,0.863,0.138c3.923,0.608,6.162,1.171,6.761,2.398
			c0.406,0.831,0.335,1.973-0.178,2.841c-0.418,0.71-1.084,1.139-1.826,1.177l-0.13,0.003c-0.73,0-1.39-0.3-1.965-0.68
			c0.914,0.789,2.119,2.073,1.131,3.764c-0.658,1.129-1.442,1.366-1.982,1.366c-1.628,0-2.739-1.96-3.828-4.143
			c-0.107-0.215-0.201-0.402-0.278-0.545c-1.02-1.698-1.731-2.602-3.108-4.248c-0.552-0.602-3.646-2.738-4.968-3.65
			c-0.389-0.269-1.025-0.718-1.025-0.718l-0.129-0.097c-3.509-2.559-5.951-4.831-7.754-7.255c-0.065,0.414-0.134,0.833-0.202,1.256
			c-0.657,4.073-1.403,8.69-1.252,12.353c0.055,1.352,0.126,7.451,0.178,11.905c0.029,2.448,0.056,4.761,0.066,4.968l0.031,0.663
			c0.108,2.393,0.11,2.438,1.863,2.645c0.273,0.032,0.546,0.044,0.819,0.044c0.419,0,0.837-0.026,1.256-0.053
			c0.295-0.018,0.589-0.036,0.885-0.046c0.788-0.027,1.574-0.039,2.369-0.039h0.061l0.06,0.007c0.684,0.083,1.385,0.225,1.876,0.699
			c0.645,0.621,0.702,1.199,0.636,1.574c-0.052,0.295-0.253,0.841-1.017,1.182c-0.371,0.168-0.781,0.253-1.217,0.253
			c-0.247,0-0.51-0.026-0.802-0.082c-0.429-0.076-0.819-0.128-1.206-0.157c-0.624-0.046-1.292-0.07-1.982-0.07
			c-1.584,0-3.311,0.125-4.993,0.361C107.016,148.947,106.576,149,106.151,149z"/>
		<path style="fill:#FFFFFF;" d="M28.262,21.618c12.151,0,22.004,9.853,22.004,22.004c0,14.679-14.989,13.914-2.763,23.651
			c6.364,5.069,11.122,6.871,15.859,7.808c0.504,0.1,1.043,0.147,1.604,0.147c3.422,0,7.639-1.767,9.52-4.095
			c1.701-2.108,1.49-4.675-2.954-6.812c-1.376-0.661-3.425-1.194-5.581-2.34c-5.813-3.089-9.771-9.207-9.771-16.248
			c0-10.155,8.234-18.389,18.391-18.389c10.152,0,18.388,8.234,18.388,18.389c0,3.977-1.265,7.659-3.409,10.669
			c-3.688,5.168-7.054,4.193-4.22,11.514c0.877,2.268,2.175,3.45,4.194,4.261c1.859,0.746,3.422,1.079,4.764,1.079
			c4.268,0,6.29-3.372,8.423-7.558c0.778-1.525,1.11-3.849,1.289-6.447c0.58-8.432-1.221-3.773-5.16-10.444
			c-2.82-4.779-1.231-10.944,3.549-13.765c1.603-0.946,3.36-1.396,5.097-1.396c3.44,0,6.792,1.768,8.667,4.944
			c2.115,3.584,1.751,7.947-0.579,11.095c-3.928,5.305-7.742,1.466-8.292,9.667c-0.332,4.938-0.96,7.652-4.559,10.929
			c-3.417,3.111,0.8,4.572,3.388,4.572c0.008,0,0.017,0,0.025,0c12.127-0.044,3.929-5.929,6.088-13.98
			c1.049-3.913,3.571-7.434,7.335-9.654c2.559-1.51,5.364-2.228,8.135-2.228c5.488,0,10.835,2.819,13.824,7.886
			c4.501,7.625,1.968,17.46-5.658,21.959c-2.059,1.216-4.737,1.642-7.719,1.642c-5.459,0-11.938-1.429-17.494-2.055
			c-0.582-0.064-1.457-0.229-2.393-0.361c-0.576-0.08-1.068-0.117-1.484-0.117c-4.353,0-0.35,4.041,2.916,4.731
			c4.529,0.958,6.154,1.917,9.758,1.917c1.17,0,2.548-0.102,4.301-0.336c0.531-0.071,1.063-0.105,1.594-0.105
			c4.137,0,8.167,2.124,10.421,5.943c3.394,5.747,1.483,13.156-4.264,16.549c-1.928,1.138-4.043,1.68-6.132,1.68
			c-4.135,0-8.163-2.124-10.417-5.942c-3.568-6.045,1.729-11.188-2.087-14.559c-1.967-1.738-3.163-2.431-3.859-2.431
			c-1.613,0-0.537,3.725-0.135,6.791c0.261,1.992,0.39,3.986,0.373,5.96c-0.029,3.087,1.314,6.39,2.539,9.227
			c1.477,3.416,3.787,6.901,7.217,9.097c0.317,0.205,0.573,0.389,0.794,0.543c0.001,0,0.706,0.532,1.077,0.776
			c1.134,0.738,1.697,1.42,2.811,1.42c0.195,0,0.407-0.021,0.643-0.066c3.859-0.749,2.609-4.008,4.137-4.139
			c0.061-0.005,0.124-0.008,0.189-0.008c0.75,0,1.764,0.349,2.077,1.029c0.39,0.85-0.087,2.215-2.802,2.577
			c-0.635,0.084-1.104,0.597-1.553,1.066c-0.316,0.329-0.403,0.589-0.328,0.805c0.169,0.472,1.003,1.215,2.075,1.558
			c0.795,0.2,6.422,0.776,7.03,2.022c0.445,0.912-0.065,2.524-1.156,2.58c-0.026,0.001-0.053,0.002-0.079,0.002
			c-1.048,0-2.029-0.992-2.774-1.604c-0.926-0.776-3.183-2.206-3.94-2.206c-0.082,0-0.146,0.017-0.189,0.053
			c-0.419,0.351-0.186,0.402,0.199,0.945c0.384,0.54,2.938,2.912,3.374,3.288c0.956,0.839,2.424,1.752,1.634,3.104
			c-0.362,0.62-0.741,0.871-1.119,0.871c-1.342,0-2.679-3.146-3.226-4.162c-1.09-1.817-1.863-2.79-3.223-4.415
			c-0.817-0.894-5.157-3.81-6.021-4.426l-0.008-0.007l-0.005-0.003l-0.004-0.002c-0.048-0.035-0.083-0.06-0.105-0.077l-0.001-0.001
			l-0.146-0.108c-4.254-3.103-7.066-5.888-8.946-9.188c-0.722,5.082-2.064,11.437-1.859,16.384
			c0.087,2.14,0.216,16.375,0.244,16.886c0.153,2.947-0.04,3.916,2.776,4.247c0.313,0.037,0.625,0.05,0.937,0.05
			c0.725,0,1.447-0.072,2.176-0.099c0.775-0.026,1.551-0.038,2.334-0.038c0.583,0.07,1.046,0.179,1.302,0.426
			c0.593,0.571,0.349,0.926-0.094,1.123c-0.268,0.121-0.538,0.166-0.81,0.166c-0.204,0-0.409-0.025-0.615-0.064
			c-0.475-0.085-0.897-0.14-1.315-0.172c-0.67-0.05-1.36-0.073-2.06-0.073c-1.72,0-3.49,0.141-5.132,0.371
			c-0.371,0.052-0.77,0.101-1.139,0.101c-0.465,0-0.883-0.078-1.142-0.326c-0.69-0.664,0.489-1.368,0.798-1.802
			c1.243-1.752-1.016-24.521-3.881-24.541c-1.185-0.008-2.37-0.028-3.555-0.055c-5.376,1.112-12.267,1.684-19.091,1.684
			c-11.046,0-21.915-1.498-25.878-4.628c-1.213,9.361-1.623,17.876-0.776,27.276c4.147-0.282,8.854-0.725,11.641-0.725
			c3.643,0,2.978,3.096-0.666,3.096c-3.577,0-9.185,0-11.604,0c-0.647,0-1.176-0.524-1.176-1.175
			c0-10.956,0.599-19.936-2.021-29.724c-1.991-7.44-4.319-13.265-3.904-21.913c-1.103,2.088-2.289,3.797-3.696,5.247
			c-0.621,0.641-0.902,0.974-1.144,0.974c-0.18,0-0.338-0.184-0.598-0.563c-0.325-0.477-0.58-0.672-1.039-1.02
			c-1.85-1.399-3.537-3.209-5.289-5.578c-0.938-1.268-1.746-2.527-2.611-3.847c-0.905-1.384-1.994-2.998-2.46-3.45
			c-1.408-1.252-2.254-1.965-3.84-2.981c-1.14-0.658-5.358-2.563-2.812-3.951c0.231-0.126,0.446-0.181,0.647-0.181
			c0.866,0,1.485,1.009,2.07,1.715c0.32,0.4,2.362,2.73,2.832,3.088c0.298,0.225,0.425,0.392,0.559,0.392
			c0.077,0,0.157-0.056,0.274-0.189c0.342-0.387-1.065-2.794-1.804-3.729c-0.537-0.695-1.423-1.622-1.348-2.577
			c0.057-0.714,0.856-1.125,1.593-1.125c0.264,0,0.52,0.053,0.73,0.163c1.093,0.574,1.456,5.591,1.614,6.304
			c0.274,0.962,0.914,1.722,1.326,1.885c0.046,0.018,0.094,0.026,0.146,0.026c0.161,0,0.351-0.091,0.58-0.298
			c0.43-0.384,0.896-0.789,0.989-1.352c0.311-1.903,1.145-2.543,1.849-2.543c0.185,0,0.361,0.044,0.516,0.121
			c0.649,0.324,0.927,1.371,0.848,2.042c-0.156,1.354-3.021,0.158-3.786,3.567c-0.233,1.033,0.087,1.579,0.567,2.284
			c0.849,1.246,1.618,2.567,2.5,3.784c1.597,2.198,3.632,3.896,5.938,5.228c1.145-1.365,2.175-2.863,3.114-4.439
			c2.145-3.599,0.969-6.902,0.497-10.988c-1.241-10.725-3.213-17.549-15.398-17.549c-12.152,0-22.006-9.854-22.006-22.005
			C6.256,31.471,16.109,21.618,28.262,21.618 M28.262,19.618c-13.237,0-24.006,10.769-24.006,24.004
			c0,13.236,10.769,24.005,24.006,24.005c10.442,0,12.17,5.053,13.412,15.779c0.097,0.844,0.221,1.639,0.34,2.408
			c0.456,2.936,0.785,5.056-0.569,7.327c-0.6,1.007-1.22,1.946-1.854,2.807c-1.552-1.083-2.824-2.318-3.862-3.747
			c-0.48-0.662-0.928-1.363-1.402-2.106c-0.35-0.547-0.699-1.094-1.063-1.628c-0.324-0.476-0.324-0.476-0.27-0.718
			c0.209-0.933,0.455-1.005,1.265-1.244c0.702-0.207,2.344-0.691,2.557-2.534c0.171-1.448-0.441-3.312-1.941-4.061
			c-0.439-0.218-0.925-0.332-1.409-0.332c-1.108,0-2.368,0.593-3.165,2.129c-0.471-3.397-1.016-5.189-2.41-5.922
			c-0.49-0.257-1.064-0.393-1.66-0.393c-1.729,0-3.156,1.044-3.511,2.496c-0.21-0.045-0.431-0.07-0.666-0.07
			c-0.548,0-1.088,0.143-1.605,0.425c-1.612,0.879-1.849,2.107-1.847,2.761c0.007,2.202,2.511,3.545,4.168,4.434
			c0.158,0.085,0.298,0.16,0.41,0.224c1.414,0.909,2.167,1.538,3.5,2.723c0.108,0.117,0.595,0.695,2.163,3.093l0.333,0.509
			c0.768,1.174,1.493,2.282,2.345,3.434c1.922,2.599,3.73,4.5,5.69,5.982c0.42,0.318,0.459,0.354,0.594,0.552
			c0.321,0.469,0.984,1.436,2.25,1.436c1.061,0,1.686-0.65,2.347-1.34l0.232-0.242c0.143-0.146,0.283-0.296,0.422-0.448
			c0.449,4.454,1.555,8.302,2.706,12.305c0.365,1.271,0.743,2.584,1.104,3.935c2.128,7.955,2.061,15.416,1.983,24.056
			c-0.015,1.674-0.031,3.387-0.031,5.151c0,1.751,1.425,3.175,3.176,3.175h11.604c1.302,0,2.466-0.305,3.366-0.88
			c1.094-0.699,1.722-1.748,1.722-2.878c0-1.661-1.367-3.338-4.422-3.338c-2.07,0-5.037,0.226-8.178,0.465
			c-0.542,0.041-1.087,0.083-1.629,0.123c-0.505-7.002-0.327-13.936,0.568-21.92c7.209,3.134,20.04,3.408,24.253,3.408
			c7.095,0,13.927-0.596,19.271-1.679c0.902,0.02,1.806,0.035,2.708,0.044c1.676,3.014,3.45,18.319,2.809,21.477
			c-0.452,0.433-1.272,1.23-1.272,2.43c-0.001,0.701,0.293,1.37,0.826,1.884c0.612,0.588,1.462,0.885,2.528,0.885
			c0.485,0,0.966-0.058,1.413-0.119c1.641-0.23,3.319-0.353,4.857-0.353c0.666,0,1.309,0.023,1.912,0.067
			c0.352,0.027,0.706,0.074,1.11,0.146c0.334,0.063,0.657,0.096,0.968,0.096c0.578,0,1.127-0.115,1.632-0.343
			c1.179-0.525,1.501-1.428,1.587-1.919c0.088-0.502,0.085-1.492-0.928-2.468c-0.704-0.68-1.634-0.872-2.45-0.971l-0.119-0.015
			h-0.12c-0.84,0-1.625,0.013-2.402,0.039c-0.307,0.011-0.609,0.029-0.912,0.048c-0.421,0.026-0.817,0.05-1.195,0.05
			c-0.264,0-0.493-0.012-0.703-0.036c-0.475-0.056-0.73-0.12-0.86-0.163c-0.065-0.314-0.096-0.981-0.12-1.533l-0.032-0.668
			c-0.01-0.244-0.036-2.521-0.064-4.931c-0.055-4.708-0.123-10.567-0.179-11.933c-0.136-3.289,0.481-7.43,1.089-11.215
			c1.676,1.873,3.79,3.711,6.54,5.717l0.106,0.079c0.026,0.021,0.061,0.045,0.102,0.075l0.142,0.104l0.016,0.009
			c0.183,0.128,0.461,0.32,0.801,0.556c1.048,0.724,4.213,2.908,4.807,3.515c1.307,1.563,1.995,2.438,2.979,4.072
			c0.068,0.13,0.149,0.294,0.242,0.479c0.933,1.87,2.343,4.696,4.724,4.696c0.657,0,1.901-0.242,2.847-1.863
			c0.569-0.975,0.608-1.854,0.387-2.613c0.989-0.127,1.853-0.716,2.4-1.645c0.687-1.164,0.771-2.65,0.215-3.788
			c-0.787-1.613-2.981-2.236-7.281-2.913c1.583-0.503,2.367-1.358,2.755-2.062c0.522-0.947,0.567-2.044,0.125-3.011
			c-0.699-1.518-2.46-2.195-3.896-2.195c-0.126,0-0.248,0.005-0.364,0.016c-1.911,0.163-2.454,1.822-2.715,2.619
			c-0.295,0.903-0.431,1.315-1.628,1.548c-0.102,0.02-0.19,0.03-0.262,0.03c-0.155,0-0.286-0.075-0.872-0.503
			c-0.256-0.188-0.532-0.388-0.848-0.593c-0.074-0.049-0.33-0.224-0.938-0.678l-0.532-0.398l-0.037-0.001
			c-0.114-0.078-0.237-0.161-0.37-0.246c-3.335-2.135-5.356-5.643-6.466-8.211c-1.215-2.814-2.4-5.784-2.375-8.414
			c0.017-2.032-0.114-4.131-0.39-6.238c-0.092-0.696-0.213-1.409-0.331-2.098c-0.079-0.464-0.175-1.027-0.251-1.561
			c0.345,0.266,0.763,0.61,1.269,1.057c0.974,0.859,0.915,1.828,0.499,4.378c-0.437,2.682-0.981,6.021,1.189,9.698
			c2.521,4.271,7.173,6.926,12.14,6.926c2.508,0,4.979-0.677,7.148-1.957c3.24-1.913,5.541-4.973,6.479-8.615
			c0.939-3.644,0.402-7.434-1.511-10.673c-2.004-3.396-5.355-5.771-9.142-6.602c3.595-0.021,6.389-0.65,8.537-1.918
			c4.148-2.447,7.095-6.365,8.297-11.031c1.202-4.666,0.516-9.52-1.933-13.667c-3.228-5.47-9.185-8.869-15.547-8.87
			c-3.209,0-6.374,0.866-9.151,2.506c-0.253,0.149-0.502,0.304-0.746,0.464c2.298-3.777,2.356-8.527,0.079-12.387
			c-2.158-3.656-6.139-5.927-10.39-5.927c-2.145,0-4.259,0.579-6.113,1.674c-2.771,1.635-4.741,4.253-5.545,7.371
			c-0.804,3.118-0.346,6.361,1.29,9.133c1.802,3.051,3.29,4.08,4.274,4.761c0.531,0.367,0.533,0.376,0.578,0.525
			c0.252,0.85,0.089,3.224,0.035,4.004c-0.122,1.77-0.366,4.284-1.075,5.675c-2.279,4.472-3.779,6.467-6.642,6.467
			c-1.12,0-2.473-0.315-4.019-0.935c-1.609-0.646-2.442-1.494-3.074-3.126c-1.518-3.92-1.133-4.28,0.713-6.011
			c0.925-0.867,2.074-1.945,3.27-3.62c2.474-3.472,3.781-7.563,3.781-11.831c0-11.243-9.146-20.389-20.388-20.389
			c-11.244,0-20.391,9.146-20.391,20.389c0,7.561,4.151,14.463,10.833,18.014c1.417,0.753,2.795,1.265,3.901,1.676
			c0.692,0.257,1.289,0.479,1.752,0.701c2.278,1.095,2.705,2.015,2.782,2.359c0.088,0.389-0.087,0.858-0.519,1.394
			c-1.467,1.816-5.114,3.351-7.963,3.351c-0.441,0-0.85-0.037-1.214-0.109c-3.938-0.779-8.481-2.216-15.002-7.411
			c-3.193-2.542-3.958-3.978-4.038-4.734c-0.093-0.882,0.72-1.922,2.054-3.545c2.321-2.826,5.5-6.695,5.5-13.808
			C52.266,30.387,41.498,19.618,28.262,19.618L28.262,19.618z M103.573,72.288c0.095-0.126,0.248-0.302,0.494-0.526
			c3.994-3.637,4.834-6.726,5.207-12.274c0.245-3.644,0.922-3.924,2.559-4.602c0.424-0.175,0.894-0.37,1.395-0.622
			c-1.34,1.803-2.34,3.86-2.938,6.091c-0.909,3.391-0.238,6.446,0.252,8.676c0.248,1.13,0.589,2.677,0.316,3.017
			c-0.105,0.132-0.831,0.792-4.731,0.806C105.058,72.854,104.041,72.557,103.573,72.288L103.573,72.288z M119.441,82.594
			c-2.092,0-3.399-0.355-5.379-0.894c-1.1-0.299-2.345-0.638-3.965-0.98c-0.499-0.105-1.011-0.321-1.479-0.58
			c0.175,0.027,0.346,0.056,0.511,0.082c0.5,0.081,0.946,0.151,1.295,0.19c1.856,0.209,3.804,0.507,5.864,0.823
			c2.476,0.38,5.003,0.768,7.46,1.007c-0.091,0.01-0.182,0.021-0.271,0.033C121.878,82.489,120.559,82.594,119.441,82.594
			L119.441,82.594z"/>
	</g>
</g>
<g id="Layer_1">
</g>
</svg>
