<?xml version="1.0" encoding="iso-8859-1"?>
<!-- Generator: Adobe Illustrator 16.0.0, SVG Export Plug-In . SVG Version: 6.00 Build 0)  -->
<!DOCTYPE svg PUBLIC "-//W3C//DTD SVG 1.1//EN" "http://www.w3.org/Graphics/SVG/1.1/DTD/svg11.dtd">
<svg version="1.1" xmlns="http://www.w3.org/2000/svg" xmlns:xlink="http://www.w3.org/1999/xlink" x="0px" y="0px" width="150px"
	 height="150px" viewBox="0 0 150 150" style="enable-background:new 0 0 150 150;" xml:space="preserve">
<g id="_x30_5_x5F_03">
	<rect style="fill:none;" width="150" height="150"/>
	<g>
		<path style="fill-rule:evenodd;clip-rule:evenodd;fill:#005A9F;" d="M72.059,7.75c-12.776,0-23.137,10.361-23.137,23.135
			c0,7.055,3.159,13.371,8.138,17.615c3.093,2.635,6.578,4.041,9.149,7.416c2.175,2.857,2.96,6.066-1.668,7.4
			c-4.309,1.243-4.241-1.621-6.19-5.323c-2.291-4.349-3.966-7.857-6.442-11.356c-1.586-2.24-4.232-3.698-7.229-3.695
			c-4.92,0.007-8.79,3.936-8.79,8.79c0,4.853,3.937,8.79,8.79,8.79c9.503,0,6.27,9.765,2.298,14.543
			c-2.393,2.883-2.096,3.515-5.932,2.593c-3.187-0.766-6.388-2.151-8.946-4.484c-0.301-0.275-0.564-0.49-0.785-0.675
			c0,0-0.75-0.586-1.109-0.907c-1.272-1.141-2.246-1.49-2.369-3.214c-0.3-4.222,3.444-3.83,3.153-5.454
			c-0.146-0.81-0.832-1.924-1.695-2.074c-0.991-0.17-2.28,0.705-1.899,3.632c0.091,0.682-0.314,1.316-0.679,1.913
			c-0.254,0.419-0.501,0.583-0.746,0.564c-0.534-0.042-1.539-0.701-2.196-1.725c-0.43-0.771-2.598-6.461-4.067-6.748
			c-1.073-0.209-2.607,0.771-2.359,1.921c0.245,1.137,1.596,1.902,2.461,2.522c1.181,0.831,3.65,3.132,3.394,3.697
			c-0.248,0.534-0.368,0.303-1.038,0.056c-0.671-0.247-3.854-2.245-4.363-2.594c-1.14-0.758-2.496-2.033-3.687-0.833
			c-2.468,2.493,3.089,3.236,4.638,3.601c2.193,0.626,3.422,1.162,5.493,2.122c1.154,0.602,5.397,4.301,6.279,5.031l0.009,0.008
			l0.007,0.003l0.004,0.003c0.047,0.039,0.083,0.068,0.108,0.087v0.001l0.155,0.122c3.449,2.782,6.449,4.703,9.484,5.905
			c3.897,1.539-1.518,2.317-1.518,17.461c0,12.957,7.625,22.792,15.141,30.183c0.92,0.909,1.885,1.825,2.893,2.757
			c1.063,0.982,1.369,2.602,1.258,4.73c-0.286,5.362-0.23,10.872-5.359,11.478c-1.89,0.22-3.767-0.026-5.666-0.095
			c-1.409-0.044-2.821-0.067-4.248-0.067c-1.063,0.131-1.905,0.328-2.37,0.778c-1.08,1.039-0.631,1.683,0.172,2.042
			c0.855,0.387,1.721,0.348,2.594,0.188c0.865-0.16,1.632-0.264,2.398-0.317c4.216-0.312,8.878-0.046,13.091,0.545
			c1.523,0.213,3.301,0.398,4.148-0.41c1.254-1.214-0.894-2.489-1.452-3.28c-1.373-1.933,0.12-9.619,1.581-11.168
			c0.901-0.964,1.866-1.436,2.913-1.69c2.996-0.735,5.506,0.008,8.588,0.008c3.146,0,5.682-0.759,8.746-0.008
			c1.047,0.255,2.01,0.727,2.913,1.69c1.459,1.549,2.954,9.235,1.583,11.168c-0.561,0.791-2.708,2.066-1.453,3.28
			c0.845,0.809,2.626,0.623,4.146,0.41c4.212-0.591,8.876-0.856,13.092-0.545c0.767,0.054,1.534,0.157,2.398,0.317
			c0.873,0.16,1.737,0.199,2.594-0.188c0.803-0.359,1.252-1.003,0.17-2.042c-0.464-0.45-1.306-0.647-2.369-0.778
			c-1.425,0-2.837,0.023-4.248,0.067c-1.897,0.068-3.776,0.314-5.665,0.095c-5.129-0.605-5.074-6.115-5.356-11.478
			c-0.113-2.129,0.192-3.748,1.254-4.73c1.008-0.932,1.973-1.848,2.893-2.757c6.899-6.783,14.563-16.714,14.961-29.001
			c1.944,2.614,4.572,5.009,8.143,7.614l0.156,0.119h0.002c0.025,0.02,0.062,0.046,0.113,0.08l0.004,0.004l0.004,0.005l0.01,0.007
			c0.931,0.663,5.604,3.805,6.485,4.765c1.463,1.751,2.297,2.8,3.472,4.757c0.754,1.4,2.909,6.577,4.678,3.546
			c0.853-1.458-0.731-2.44-1.758-3.346c-0.471-0.402-3.225-2.958-3.636-3.542s-0.666-0.638-0.216-1.017
			c0.482-0.396,3.342,1.396,4.451,2.318c0.823,0.679,1.912,1.784,3.071,1.727c1.176-0.059,1.726-1.794,1.247-2.777
			c-0.658-1.343-6.717-1.967-7.571-2.182c-1.158-0.369-2.056-1.17-2.235-1.675c-0.08-0.23,0.014-0.512,0.354-0.866
			c0.482-0.508,0.988-1.062,1.671-1.151c2.924-0.39,3.437-1.86,3.017-2.774c-0.368-0.796-1.623-1.17-2.441-1.101
			c-1.646,0.14-0.299,3.654-4.452,4.459c-1.699,0.327-2.287-0.523-3.72-1.456c-0.687-0.452-1.325-0.979-2.017-1.423
			c-3.128-2.001-5.391-4.998-6.976-8.102c-2.03-3.971-2.049-4.817-3.121-8.695c-1.095-3.958-2.854-7.64-5.146-10.916
			c-3.359-4.796-5.148-4.32-1.128-9.673c1.587-2.119,3.594-4.14,6.129-6.044c5.117-3.838,4.729-2.22,9.957-2.22
			c4.851,0,8.789-3.936,8.789-8.789c0-4.854-3.938-8.79-8.789-8.79c-1.886,0-3.633,0.593-5.063,1.604
			c-1.69,1.194-2.838,2.32-3.963,3.541c-4.415,4.786-12.608,18.237-17.743,19.315c-0.771,0.162-1.464-0.031-2.038-0.697
			c-4.475-5.176-3.361-14.899-0.044-20.555c2.298-3.915,5.388-7.501,5.388-13.964C95.193,18.11,84.833,7.75,72.059,7.75z"/>
		<path style="fill-rule:evenodd;clip-rule:evenodd;fill:#020202;" d="M98.871,111.85c-4.688,7.941-12.258,12.138-20.763,13.437
			c-8.199,1.258-16.172-0.357-22.604-6.199c-10.779-9.806-12.677-24.16-4.854-36.813c4.661-7.542,11.904-11.479,20.1-12.73
			c8.508-1.298,16.862,0.46,23.418,6.686C104.224,85.776,106.061,99.661,98.871,111.85z"/>
		<polygon style="fill-rule:evenodd;clip-rule:evenodd;fill:#FFFFFF;" points="103.16,89.85 96.284,92.632 103.81,96.199 		"/>
		<polygon style="fill-rule:evenodd;clip-rule:evenodd;fill:#FFFFFF;" points="103.007,104.767 93.048,104.929 99.652,112.56 		"/>
		<polygon style="fill-rule:evenodd;clip-rule:evenodd;fill:#FFFFFF;" points="61.11,125.206 65.398,116.481 68.653,126.724 		"/>
		<polygon style="fill-rule:evenodd;clip-rule:evenodd;fill:#FFFFFF;" points="76.629,67.655 76.058,81.386 85.511,70.162 		"/>
		<polygon style="fill-rule:evenodd;clip-rule:evenodd;fill:#FFFFFF;" points="49.632,83.381 56.078,91.372 46.815,91.65 		"/>
		<polygon style="fill-rule:evenodd;clip-rule:evenodd;fill:#FFFFFF;" points="46.197,100.085 50.584,102.651 46.713,106.141 		"/>
		<path style="fill-rule:evenodd;clip-rule:evenodd;fill:#005A9F;" d="M100.902,113.233c-5.07,8.598-13.25,13.21-22.454,14.621
			c-8.885,1.355-17.533-0.459-24.491-6.792c-12.22-11.107-14.174-25.89-5.316-40.223c5.053-8.168,12.896-12.504,21.772-13.86
			c9.202-1.407,18.256,0.57,25.348,7.307C107.114,85.062,109.017,99.483,100.902,113.233L100.902,113.233L100.902,113.233z
			 M98.871,111.85c7.189-12.188,5.353-26.073-4.704-35.62c-6.558-6.228-14.914-7.988-23.418-6.686
			c-8.195,1.251-15.438,5.188-20.1,12.73c-7.822,12.653-5.928,27.005,4.854,36.813c6.433,5.845,14.405,7.457,22.604,6.199
			C86.613,123.987,94.182,119.791,98.871,111.85L98.871,111.85z"/>
		<circle style="fill-rule:evenodd;clip-rule:evenodd;fill:#FFFFFF;" cx="72.059" cy="30.885" r="20.795"/>
		<circle style="fill-rule:evenodd;clip-rule:evenodd;" cx="61.476" cy="40.537" r="3.238"/>
		<circle style="fill-rule:evenodd;clip-rule:evenodd;fill:#FFFFFF;" cx="118.657" cy="50.43" r="7.446"/>
		<circle style="fill-rule:evenodd;clip-rule:evenodd;" cx="120.664" cy="52.907" r="2.638"/>
		<circle style="fill-rule:evenodd;clip-rule:evenodd;fill:#FFFFFF;" cx="44.679" cy="51.731" r="7.065"/>
		<circle style="fill-rule:evenodd;clip-rule:evenodd;" cx="41.269" cy="53.113" r="2.095"/>
	</g>
</g>
<g id="Layer_1">
</g>
</svg>
