<?xml version="1.0" encoding="iso-8859-1"?>
<!-- Generator: Adobe Illustrator 16.0.0, SVG Export Plug-In . SVG Version: 6.00 Build 0)  -->
<!DOCTYPE svg PUBLIC "-//W3C//DTD SVG 1.1//EN" "http://www.w3.org/Graphics/SVG/1.1/DTD/svg11.dtd">
<svg version="1.1" xmlns="http://www.w3.org/2000/svg" xmlns:xlink="http://www.w3.org/1999/xlink" x="0px" y="0px" width="150px"
	 height="150px" viewBox="0 0 150 150" style="enable-background:new 0 0 150 150;" xml:space="preserve">
<g id="_x30_6_x5F_02">
	<rect style="fill:none;" width="150" height="150"/>
	<g>
		<path style="fill-rule:evenodd;clip-rule:evenodd;fill:#CB4292;" d="M75.615,91.213c-4.515-0.953-5.436-3.571-6.296-6.812
			c-0.335-4.618-0.154-9.991-1.055-14.914c-0.503-2.763-1.346-5.384-2.811-7.654c-2.82-4.373-6.867-7.229-11.445-9.06
			c-10.555-4.219-20.381-1.755-30.668,1.611c-8.749,2.862-13.523,12.278-10.661,21.026c2.861,8.75,12.278,13.524,21.026,10.662
			c6.163-2.016,10.354-7.284,11.292-13.279c0.74-4.729,1.868-8.103,3.28-10.379c0.664-1.07,1.446-1.811,2.343-1.967
			c4.829-0.844,8.454,3.025,10.394,7.337c1.27,2.824,1.474,7.191,1.235,11.264c-0.368,6.286-3.048,9.695-5.582,15.549
			c-3.271,7.557-4.626,15.277-3.992,22.948c0.302,3.65,0.337,3.354-1.936,6.273c-7.052-2.177-19.057-2.231-22.352-8.84
			c-0.637-1.278-0.828-2.444-0.436-3.431c0.653-1.645,1.295-3.339,2.163-4.881c0.411-0.729,1.716-2.289,1.751-3.213
			c0.027-0.691,0.373-1.647,1.159-2.674c1.069-1.396-0.408-2.04-1.026-2.354c-1.032-0.525-2.656,0.609-1.998,2.505
			c0.387,1.114,0.257,2.021-0.076,3.2c-0.539,1.903-1.901,4.654-2.905,3.009c-0.187-0.317-0.124-0.635-0.006-0.955
			c0.256-0.701,0.498-1.401,0.726-2.113c0.311-0.971,0.039-1.391,0.641-3.25c0.324-1-0.116-1.932-0.696-2.214
			c-0.769-0.372-1.7,0.023-2.076,0.791c-0.835,1.719,1.985,3.298,0.468,6.107c-0.59,1.094-1.583,1.462-2.574,1.322l0.008,0.066
			c-0.051-0.11-0.095-0.224-0.13-0.342c-0.418-1.168,0.059-2.674-0.194-3.565c-0.54-1.899-1.113-3.64-2.742-5.202
			c-1.625-1.563-1.002-2.597-1.923-4.006c-0.556-0.853-1.697-1.092-2.549-0.536c-0.853,0.554-1.73,2.05-1.175,2.902
			c1.291,2.337,6.478,2.167,6.934,6.684c0.253,2.506,0.314,4.367,0.66,6.48c0.361,2.208,1.734,4.635,3.763,7.139
			c6.032,7.442,16.024,7.209,24.179,10.511c1.68,0.681,1.488,1.026,2.436-0.581c1.42-2.409,1.414-1.307,1.76,0.465
			c0.773,3.969,2.956,8.074,4.984,11.518c0.911,1.949,1.382,4.369,1.455,6.732c0.033,1.324-0.393,2.422-0.985,3.067
			c-0.876,0.961-0.389,1.825,1.166,1.84c0.574-0.036,1.15-0.072,1.727-0.107c1.301-0.064,2.894,0.151,4.131-0.178
			c1.289-0.348,2.37-1.16,0.654-1.954c-0.588-0.278-2.928,0.297-3.827,0.298c-1.32,0-1.629-1.45-1.725-2.514
			c-0.176-1.926-0.269-8.309,3.333-6.021c1.015,0.643,2.856,1.129,5.123,1.473c2.931,0.273,6.223,0.361,9.252,0.292
			c6.641,0.154,14.549-0.461,17.129-2.096c3.602-2.285,3.51,4.096,3.336,6.021c-0.098,1.065-0.408,2.513-1.732,2.515
			c-0.896,0-3.232-0.576-3.824-0.299c-1.715,0.794-0.633,1.607,0.654,1.953c1.238,0.333,2.832,0.115,4.133,0.18
			c0.574,0.039,1.15,0.07,1.727,0.108c1.555-0.014,2.039-0.881,1.166-1.842c-0.592-0.646-1.02-1.744-0.984-3.066
			c0.186-6.291,1.018-7.091,3.887-12.301c1.672-3.04,3.387-7.019,4.475-11.658v0.3l0.594-2.451c3.428,2.743,6.207,3.677,6.836,0.219
			c4.24-13.721,4.313-13.08,5.205-28.682c0.127-2.245,2.754-3.2,2.883-6.043c0.086-1.938,0.143-3.922,0.49-5.83
			c0.164-0.905,0.955-2.987,0.66-3.958c-0.221-0.727-0.205-1.84,0.242-3.187c0.607-1.83-1.154-1.966-1.908-2.071
			c-1.258-0.175-2.533,1.584-1.17,3.312c0.801,1.016,0.99,2.001,1.068,3.341c0.123,2.166-0.301,5.505-1.93,4.159
			c-0.307-0.262-0.355-0.612-0.348-0.986c0.014-0.819,0.01-1.632-0.01-2.45c-0.023-1.118-0.459-1.454-0.5-3.595
			c-0.023-1.154-0.814-1.96-1.514-2.044c-0.93-0.111-1.754,0.633-1.867,1.563c-0.252,2.082,3.238,2.706,2.674,6.161
			c-0.488,2.99-4.326,2.981-6.049,0.841c-3.121-3.879,1.059-7.737,0.268-10.555c-0.223-1.094-2.059-1.585-3.15-1.363
			c-1.094,0.222-1.801,1.289-1.578,2.381c0.365,1.811,1.646,2.136,1.582,4.608c-0.07,2.472,0.824,4.272,1.863,6.17
			c0.49,0.892,2.021,1.698,2.592,2.933c0.988,1.864-0.408,4.449,1.344,7.352c4.35,7.204,0.809,17.67-3.451,24.304
			c-0.928,1.443-1.168,1.983-2.572,0.457c-0.738-0.798-0.887-1.715-0.871-2.754c0.078-5.066-0.758-10.218-2.387-15.058
			c-0.854-2.533-1.988-5.114-3.453-7.725c-2.377-4.229-4.453-8.351-6.35-12.401C92.316,63.545,71.296,35.257,80.541,19.91
			c5.18-8.604,18.609-9.119,24.844-0.743c2.521,3.387,3.506,7.688,1.719,12.541c-2.014,5.472-0.957,11.854,3.275,16.426
			c6.008,6.491,16.145,6.883,22.637,0.875c6.492-6.009,6.883-16.146,0.875-22.637c-4.895-5.288-11.775-10.285-18.986-14.396
			C101.08,4.087,83.902,0.174,74.386,16.613c-13.03,22.505,17.567,47.412,12.924,69.711C86.033,92.454,80.484,92.242,75.615,91.213z
			"/>
		<path style="fill-rule:evenodd;clip-rule:evenodd;fill:#FFFFFF;" d="M136.313,37.884c-0.361,7.703-6.902,13.656-14.607,13.293
			c-7.701-0.362-13.654-6.902-13.293-14.606c0.363-7.703,6.902-13.656,14.607-13.293C130.721,23.64,136.676,30.18,136.313,37.884z"
			/>
		<circle style="fill-rule:evenodd;clip-rule:evenodd;fill:#FFFFFF;" cx="28.436" cy="70.521" r="14.534"/>
		<circle style="fill-rule:evenodd;clip-rule:evenodd;fill:#343433;" cx="114.953" cy="33.513" r="3.103"/>
		<circle style="fill-rule:evenodd;clip-rule:evenodd;fill:#343433;" cx="36.987" cy="69.403" r="3.23"/>
		<path style="fill-rule:evenodd;clip-rule:evenodd;fill:#343433;" d="M59.41,105.045c3.718-7.114,11.424-10.59,18.401-0.407
			c4.934,7.202,9.629,8.396,12.803,8.128c3.627-0.306,5.27-2.454,6.637-5.51c0.904-2.015,1.486-3.655,2.941-4.327
			c2.773-1.28,4.805,0.721,5.803,3.182c2.307,5.7,1.521,12.864-1.611,18.093c-5.104,8.522-21.756,13.291-33.455,10.579
			c-4.788-1.109-8.082-3.499-10.245-6.729C56.526,121.846,55.923,111.712,59.41,105.045z"/>
		<path style="fill-rule:evenodd;clip-rule:evenodd;fill:#FFFFFF;" d="M95.516,110.249c0.408-0.506,0.768-1.073,1.102-1.695
			c0.795,0.794,3.02,2.301,3.699,3.036c0.668,0.589-0.4,1.393-0.973,1.762c-0.447,0.285-0.783,0.735-1.174,0.254
			C97.648,112.873,96.32,111.28,95.516,110.249z"/>
		<path style="fill-rule:evenodd;clip-rule:evenodd;fill:#FFFFFF;" d="M78.662,135.538c-1.896,0.032-3.761-0.078-5.542-0.342
			c0.436-2.769,0.844-6.08,1.335-7.569c0.443-2.022,3.278-0.758,4.676-0.01c1.084,0.582,2.375,0.759,1.838,2.096
			C80.541,130.611,79.463,133.486,78.662,135.538L78.662,135.538z M71.962,135c0.53-2.924,1.881-7.683,2.003-9.695
			c0.333-2.042-2.769-1.912-4.344-1.732c-1.223,0.141-2.487-0.171-2.48,1.269c0.121,1.825,0.103,5.748,0.146,8.736
			c1.104,0.493,2.315,0.899,3.641,1.205C71.269,134.861,71.615,134.934,71.962,135z"/>
	</g>
</g>
<g id="Layer_1">
</g>
</svg>
