<?xml version="1.0" encoding="iso-8859-1"?>
<!-- Generator: Adobe Illustrator 16.0.0, SVG Export Plug-In . SVG Version: 6.00 Build 0)  -->
<!DOCTYPE svg PUBLIC "-//W3C//DTD SVG 1.1//EN" "http://www.w3.org/Graphics/SVG/1.1/DTD/svg11.dtd">
<svg version="1.1" xmlns="http://www.w3.org/2000/svg" xmlns:xlink="http://www.w3.org/1999/xlink" x="0px" y="0px" width="150px"
	 height="150px" viewBox="0 0 150 150" style="enable-background:new 0 0 150 150;" xml:space="preserve">
<g id="_x30_6_x5F_04">
	<rect style="fill:none;" width="150" height="150"/>
	<g>
		<g>
			<path style="fill-rule:evenodd;clip-rule:evenodd;fill:#EC1B7A;" d="M49.273,71.851c-9.718-5.27-13.615-21.244-13.566-31.619
				c0.056-11.53,3.319-5.738,6.797-13.326c0.441-0.963,0.688-2.036,0.688-3.165c0-4.2-3.404-7.605-7.605-7.605
				c-4.199,0-7.604,3.405-7.604,7.605c0,43.946,35.42,64.065,20.699,91.549c-1.798,4.714-5.021,9.302-8.545,11.558
				c-0.33,0.213-0.592,0.402-0.82,0.559c0,0-0.721,0.548-1.105,0.802c-1.373,0.888-1.937,1.702-3.552,1.388
				c-3.972-0.763-2.689-4.125-4.26-4.258c-0.774-0.066-1.979,0.292-2.332,1.052c-0.397,0.875,0.09,2.279,2.884,2.652
				c0.653,0.082,1.136,0.611,1.602,1.096c0.323,0.345,0.409,0.607,0.334,0.828c-0.174,0.485-1.033,1.253-2.137,1.604
				c-0.816,0.205-6.606,0.8-7.231,2.083c-0.457,0.936,0.068,2.592,1.189,2.649c1.108,0.057,2.152-1.001,2.939-1.646
				c1.051-0.886,3.789-2.597,4.25-2.214c0.43,0.358,0.189,0.413-0.207,0.97c-0.396,0.555-3.023,2.997-3.474,3.384
				c-0.981,0.861-2.491,1.799-1.681,3.194c1.693,2.896,3.751-2.051,4.467-3.391c1.122-1.865,1.919-2.864,3.316-4.54
				c0.842-0.914,5.306-3.915,6.197-4.552l0.01-0.008v-0.004h0.003c0.05-0.033,0.091-0.063,0.11-0.078v-0.004l0.15-0.109
				c4.559-3.332,6.873-8.061,8.29-8.163c-3.491,7.642,3.124,11.946,2.827,18.859c-0.09,2.204-0.226,4.263-0.25,4.789
				c-0.156,3.032,0.042,4.027-2.857,4.368c-1.067,0.126-2.129-0.013-3.198-0.049c-0.797-0.028-1.597-0.038-2.406-0.038
				c-0.594,0.07-1.076,0.182-1.339,0.438c-0.604,0.588-0.355,0.955,0.099,1.156c0.482,0.218,0.973,0.196,1.467,0.105
				c0.487-0.09,0.922-0.147,1.351-0.181c2.392-0.178,5.025-0.026,7.403,0.308c0.859,0.116,1.864,0.228,2.342-0.232
				c0.711-0.685-0.505-1.409-0.82-1.855c-0.577-0.803,0.049-4.216,0.874-7.375c0.906-3.451,1.646-2.464,5.853-2.087
				c3.055,0.274,17.558,0.274,20.613,0c4.206-0.377,4.945-1.364,5.852,2.087c0.826,3.159,1.452,6.572,0.872,7.375
				c-0.315,0.446-1.528,1.171-0.821,1.855c0.481,0.46,1.486,0.349,2.346,0.232c2.378-0.334,5.012-0.485,7.402-0.308
				c0.43,0.033,0.864,0.091,1.353,0.181c0.49,0.091,0.983,0.112,1.465-0.105c0.455-0.201,0.704-0.568,0.099-1.156
				c-0.265-0.256-0.745-0.367-1.341-0.438c-0.807,0-1.61,0.01-2.402,0.038c-1.072,0.036-2.133,0.175-3.201,0.049
				c-2.899-0.341-2.701-1.336-2.856-4.368c-0.028-0.526-0.16-2.585-0.252-4.789c-0.296-6.913,6.321-11.218,2.827-18.859
				c1.418,0.103,3.734,4.831,8.292,8.163l0.152,0.109v0.004c0.02,0.016,0.057,0.045,0.105,0.078h0.005v0.004l0.011,0.008
				c0.892,0.637,5.354,3.638,6.194,4.552c1.401,1.676,2.197,2.675,3.318,4.54c0.716,1.34,2.775,6.286,4.467,3.391
				c0.811-1.396-0.697-2.333-1.682-3.194c-0.45-0.387-3.077-2.829-3.472-3.384c-0.396-0.557-0.637-0.611-0.207-0.97
				c0.46-0.383,3.2,1.328,4.25,2.214c0.786,0.645,1.83,1.702,2.94,1.646c1.121-0.058,1.647-1.714,1.188-2.649
				c-0.625-1.283-6.414-1.878-7.23-2.083c-1.106-0.351-1.965-1.118-2.138-1.604c-0.075-0.221,0.013-0.483,0.335-0.828
				c0.466-0.484,0.945-1.014,1.601-1.096c2.795-0.373,3.284-1.777,2.885-2.652c-0.354-0.76-1.559-1.118-2.333-1.052
				c-1.57,0.133-0.288,3.495-4.26,4.258c-1.613,0.314-2.18-0.5-3.552-1.388c-0.382-0.254-1.105-0.802-1.105-0.802
				c-0.228-0.156-0.491-0.346-0.816-0.559c-3.526-2.256-6.75-6.844-8.551-11.558c-1.445-3.332-2.694-6.228-3.79-8.758
				c-0.266-2.818-1.242-6.108-2.094-15.445c-0.466-5.107,3.938-9.672,7.43-13.444c4.398-4.752,2.891-1.736,6.998,1.392
				c10.999,8.379,20.528,2.683,23.965-5.676c2.313-5.628,1.867-12.463-2.751-17.028c-10.338-10.22-20.231-4.538-26.968,6.089
				c-2.743,4.328-12.594,31.293-16.905,21.057c-3.267-7.757,2.018-19.106,6.983-25.247c5.521-6.828,4.704-1.833,10.382-4.688
				c0.721-0.363,1.378-0.883,1.916-1.554c1.998-2.497,1.596-6.141-0.902-8.139c-2.496-1.998-6.14-1.594-8.139,0.902
				c-7.96,9.94-11.229,20.272-13.428,29.772c-2.541,10.979-2.266,7.98-11.511-1.628c-4.671-4.854-3.903-13.151-3.42-19.884
				c0.608-8.48,1.538-4.153,8.318-4.317c18.153-0.44,23.247-14.099,19.909-25.492c-2.249-7.669-8.318-14.312-16.8-15.2
				C52.979,6.012,47.501,19.958,49.32,36.387C50.061,43.073,62.097,78.807,49.273,71.851z"/>
			<circle style="fill-rule:evenodd;clip-rule:evenodd;fill:#FFFFFF;" cx="35.385" cy="23.725" r="6.713"/>
			<circle style="fill-rule:evenodd;clip-rule:evenodd;fill:#FFFFFF;" cx="93.609" cy="48.384" r="4.864"/>
			<circle style="fill-rule:evenodd;clip-rule:evenodd;fill:#FFFFFF;" cx="69.428" cy="27.972" r="18.221"/>
			<circle style="fill-rule:evenodd;clip-rule:evenodd;fill:#FFFFFF;" cx="111.349" cy="66.879" r="14.025"/>
			<circle style="fill-rule:evenodd;clip-rule:evenodd;" cx="78.059" cy="32.768" r="5.206"/>
			<circle style="fill-rule:evenodd;clip-rule:evenodd;" cx="107" cy="60.817" r="4.007"/>
			<circle style="fill-rule:evenodd;clip-rule:evenodd;" cx="39.974" cy="25.37" r="1.553"/>
			<circle style="fill-rule:evenodd;clip-rule:evenodd;" cx="94.87" cy="49.939" r="1.724"/>
		</g>
		<path style="fill-rule:evenodd;clip-rule:evenodd;" d="M55.331,114.282c-0.924,1.027-1.462,2.117-1.693,3.234
			c-0.405,1.965,0.139,4.014,1.208,5.967c1.593,2.912,4.316,5.244,6.911,6.283c2.22,0.892,4.703,1.305,7.146,1.637
			c2.236,0.306,4.078,0.343,5.867,0.063c1.738-0.267,3.423-0.827,5.363-1.718c1.771-0.896,3.229-1.979,4.352-3.325
			c1.271-1.524,2.107-3.383,2.475-5.664c0.186-1.153,0.066-2.174-0.499-2.929c-1.419-1.896-3.747-3.448-6.563-4.418
			c-2.818-0.975-6.034-1.611-9.114-1.956c-3.57-0.401-6.954-0.407-9.321-0.092C59.012,111.69,56.819,112.63,55.331,114.282z"/>
		<path style="fill-rule:evenodd;clip-rule:evenodd;fill:#FFFFFF;" d="M84.61,114.221l-3.026-0.426l-0.394,2.802
			c-0.093,0.666,0.375,1.288,1.037,1.382l0.606,0.087c0.667,0.091,1.287-0.374,1.38-1.039L84.61,114.221z"/>
		<path style="fill-rule:evenodd;clip-rule:evenodd;fill:#FFFFFF;" d="M73.396,110.975l-3.024-0.429l-0.399,2.805
			c-0.093,0.664,0.374,1.286,1.039,1.382l0.605,0.087c0.667,0.089,1.287-0.374,1.383-1.042L73.396,110.975z"/>
		<path style="fill-rule:evenodd;clip-rule:evenodd;fill:#FFFFFF;" d="M68.121,110.568l-3.025-0.428l-0.395,2.803
			c-0.095,0.665,0.373,1.287,1.037,1.382l0.606,0.085c0.667,0.095,1.288-0.373,1.382-1.039L68.121,110.568z"/>
		<path style="fill-rule:evenodd;clip-rule:evenodd;fill:#FFFFFF;" d="M58.56,112.39l-3.025-0.426l-0.396,2.803
			c-0.095,0.667,0.373,1.288,1.038,1.382l0.606,0.088c0.663,0.091,1.287-0.375,1.381-1.041L58.56,112.39z"/>
		<path style="fill-rule:evenodd;clip-rule:evenodd;fill:#FFFFFF;" d="M58.436,128.689l-3.026-0.429l0.398-2.805
			c0.093-0.664,0.715-1.13,1.381-1.037l0.604,0.087c0.664,0.094,1.133,0.716,1.039,1.379L58.436,128.689z"/>
		<path style="fill-rule:evenodd;clip-rule:evenodd;fill:#FFFFFF;" d="M62.493,130.713l-3.024-0.432l0.396-2.803
			c0.093-0.663,0.716-1.133,1.38-1.039l0.606,0.087c0.666,0.095,1.132,0.713,1.038,1.383L62.493,130.713z"/>
		<path style="fill-rule:evenodd;clip-rule:evenodd;fill:#FFFFFF;" d="M79.789,131.506l-3.026-0.426l0.396-2.805
			c0.093-0.665,0.714-1.133,1.38-1.039l0.605,0.087c0.665,0.095,1.133,0.716,1.039,1.381L79.789,131.506z"/>
		<path style="fill-rule:evenodd;clip-rule:evenodd;fill:#FFFFFF;" d="M83.933,129.048l-3.024-0.431l0.396-2.8
			c0.095-0.666,0.715-1.136,1.381-1.042l0.604,0.088c0.668,0.091,1.136,0.715,1.039,1.378L83.933,129.048z"/>
		<path style="fill-rule:evenodd;clip-rule:evenodd;fill:#EC1B7A;" d="M55.485,114.361c1.46-1.633,3.609-2.563,6.015-2.893
			c2.322-0.315,5.64-0.311,9.139,0.082c3.018,0.338,6.172,0.963,8.937,1.923c2.757,0.957,5.039,2.488,6.426,4.359
			c0.558,0.746,0.672,1.755,0.489,2.894c-0.365,2.256-1.189,4.093-2.436,5.604c-1.102,1.33-2.532,2.406-4.268,3.291
			c-1.905,0.883-3.558,1.439-5.263,1.707c-1.753,0.274-3.561,0.243-5.753-0.058c-2.394-0.326-4.83-0.73-7.004-1.608
			c-2.543-1.028-5.211-3.329-6.77-6.206c-1.045-1.926-1.579-3.953-1.178-5.895C54.047,116.457,54.576,115.379,55.485,114.361
			L55.485,114.361L55.485,114.361z M68.322,134.561c2.25,0.312,4.463,0.403,6.717,0.052c2.16-0.343,4.165-1.06,6.145-1.977
			l0.053-0.025l0.057-0.031c2.031-1.03,3.865-2.372,5.321-4.132c1.726-2.087,2.726-4.53,3.154-7.19
			c0.306-1.893,0.07-3.828-1.098-5.403c-1.956-2.636-4.943-4.456-8.009-5.519c-3.082-1.068-6.413-1.725-9.652-2.087
			c-3.184-0.354-6.777-0.502-9.958-0.069c-3.046,0.414-5.968,1.646-8.045,3.97c-1.212,1.36-2.071,2.951-2.439,4.743
			c-0.581,2.82,0.16,5.655,1.512,8.146c1.792,3.313,4.938,6.285,8.443,7.701C63.011,133.747,65.674,134.204,68.322,134.561
			L68.322,134.561z"/>
	</g>
</g>
<g id="Layer_1">
</g>
</svg>
