<?xml version="1.0" encoding="iso-8859-1"?>
<!-- Generator: Adobe Illustrator 16.0.0, SVG Export Plug-In . SVG Version: 6.00 Build 0)  -->
<!DOCTYPE svg PUBLIC "-//W3C//DTD SVG 1.1//EN" "http://www.w3.org/Graphics/SVG/1.1/DTD/svg11.dtd">
<svg version="1.1" xmlns="http://www.w3.org/2000/svg" xmlns:xlink="http://www.w3.org/1999/xlink" x="0px" y="0px" width="150px"
	 height="150px" viewBox="0 0 150 150" style="enable-background:new 0 0 150 150;" xml:space="preserve">
<g id="_x30_6_x5F_02_x5F_black">
	<rect style="fill:none;" width="150" height="150"/>
	<g>
		<path d="M61.139,148.999c-1.661-0.016-2.246-0.791-2.447-1.253c-0.147-0.336-0.387-1.231,0.552-2.261
			c0.37-0.403,0.753-1.235,0.725-2.368c-0.073-2.361-0.557-4.613-1.361-6.334c-1.902-3.221-4.242-7.552-5.06-11.75l-0.001-0.006
			c-0.538,0.909-0.927,1.5-1.765,1.5c-0.393,0-0.722-0.151-1.139-0.343c-0.185-0.085-0.407-0.188-0.685-0.3
			c-2.508-1.016-5.276-1.708-7.953-2.378c-6.042-1.513-12.288-3.076-16.627-8.43c-2.269-2.801-3.605-5.359-3.973-7.607
			c-0.233-1.424-0.342-2.754-0.458-4.162c-0.061-0.741-0.125-1.522-0.211-2.379c-0.224-2.217-1.879-3.026-3.632-3.884
			c-1.244-0.608-2.53-1.237-3.182-2.417c-0.409-0.625-0.412-1.523,0.029-2.47c0.333-0.715,0.886-1.371,1.477-1.755
			c0.462-0.301,0.999-0.461,1.55-0.461c0.965,0,1.855,0.482,2.381,1.29c0.471,0.72,0.619,1.354,0.749,1.913
			c0.162,0.694,0.279,1.196,1.03,1.918c1.785,1.713,2.419,3.571,3.01,5.649c0.158,0.558,0.122,1.158,0.084,1.793
			c-0.027,0.453-0.055,0.918-0.002,1.314c0.407-0.09,0.731-0.354,0.967-0.79c0.627-1.162,0.271-1.957-0.181-2.964
			c-0.388-0.866-0.872-1.943-0.307-3.106c0.446-0.909,1.371-1.495,2.356-1.495c0.369,0,0.724,0.081,1.055,0.241
			c0.417,0.203,0.787,0.573,1.038,1.048c0.062-0.12,0.132-0.236,0.211-0.348c0.494-0.695,1.272-1.11,2.081-1.11
			c0.356,0,0.693,0.08,1.002,0.237c0.636,0.318,1.657,0.83,1.901,1.89c0.102,0.444,0.093,1.146-0.535,1.965
			c-0.853,1.112-0.946,1.892-0.954,2.104c-0.034,0.885-0.636,1.827-1.421,2.969c-0.187,0.271-0.355,0.513-0.458,0.696
			c-0.749,1.33-1.339,2.824-1.911,4.269l-0.194,0.49c-0.265,0.668-0.13,1.548,0.402,2.615c2.178,4.369,9.027,5.674,15.07,6.825
			c2.155,0.41,4.204,0.801,6.017,1.31c1.562-1.996,1.56-2.02,1.329-4.793l-0.021-0.247c-0.646-7.813,0.724-15.695,4.071-23.428
			c0.684-1.581,1.368-2.964,2.029-4.301c1.795-3.631,3.213-6.499,3.471-10.909c0.195-3.326,0.153-7.898-1.149-10.795
			c-1.934-4.298-4.984-6.864-8.16-6.864c-0.377,0-0.764,0.034-1.15,0.102c-0.535,0.093-1.11,0.615-1.665,1.509
			c-1.398,2.255-2.456,5.622-3.142,10.007c-1.033,6.605-5.62,11.999-11.968,14.075c-1.785,0.584-3.634,0.88-5.496,0.88
			c-7.661,0-14.41-4.896-16.792-12.181c-1.467-4.485-1.1-9.273,1.035-13.484c2.135-4.21,5.78-7.337,10.266-8.804
			c5.756-1.884,12.468-3.893,19.284-3.893c4.242,0,8.189,0.753,12.067,2.303c5.207,2.083,9.215,5.261,11.915,9.447
			c1.401,2.17,2.367,4.792,2.954,8.017c0.616,3.368,0.734,6.88,0.85,10.277c0.055,1.63,0.107,3.172,0.212,4.65
			c0.853,3.191,1.676,5.189,5.512,5.999c1.705,0.36,3.126,0.535,4.346,0.535c3.544,0,5.503-1.478,6.164-4.649
			c1.995-9.586-2.714-19.607-7.699-30.217c-6.2-13.194-12.612-26.838-5.112-39.792c4.587-7.924,11.26-11.942,19.833-11.942
			c6.47,0,14.093,2.399,22.046,6.937c5.53,3.153,13.354,8.243,19.225,14.586c6.375,6.887,5.958,17.676-0.929,24.05
			c-3.155,2.92-7.26,4.528-11.557,4.528c0,0,0,0-0.001,0c-4.729,0-9.283-1.99-12.493-5.458c-4.37-4.722-5.703-11.408-3.479-17.451
			c1.929-5.238,0.204-9.199-1.582-11.599c-2.65-3.56-6.836-5.602-11.483-5.602c-4.966,0-9.341,2.341-11.702,6.263
			c-6.93,11.505,4.31,31.344,12.516,45.829c2.314,4.085,4.501,7.944,5.967,11.072c2.071,4.423,4.137,8.458,6.316,12.335
			c1.442,2.571,2.63,5.228,3.528,7.896c1.675,4.975,2.518,10.297,2.439,15.393c-0.015,0.995,0.154,1.572,0.605,2.06
			c0.216,0.235,0.37,0.381,0.477,0.472c0.121-0.166,0.273-0.405,0.405-0.611l0.115-0.18c4.153-6.469,7.546-16.438,3.436-23.246
			c-1.147-1.902-1.118-3.685-1.095-5.116c0.015-0.918,0.027-1.711-0.276-2.283c-0.256-0.552-0.782-1.025-1.291-1.482
			c-0.512-0.46-0.995-0.896-1.293-1.438c-1.133-2.068-2.063-3.998-1.987-6.68c0.031-1.168-0.286-1.685-0.687-2.34
			c-0.324-0.53-0.692-1.131-0.876-2.042c-0.16-0.789-0.004-1.595,0.442-2.268c0.445-0.672,1.127-1.131,1.917-1.292
			c0.235-0.048,0.492-0.072,0.763-0.072c1.548,0,3.271,0.761,3.566,2.215c0.374,1.323-0.141,2.789-0.638,4.207
			c-0.718,2.044-1.396,3.975,0.17,5.921c0.567,0.705,1.488,1.144,2.402,1.144c0.609,0,1.665-0.197,1.88-1.519
			c0.241-1.475-0.461-2.221-1.273-3.085c-0.736-0.783-1.571-1.67-1.406-3.034c0.168-1.376,1.343-2.454,2.676-2.454
			c0.1,0,0.201,0.006,0.304,0.019c0.541,0.065,1.095,0.357,1.533,0.827c0.025-0.368,0.119-0.728,0.284-1.068
			c0.446-0.92,1.345-1.515,2.291-1.515c0.104,0,0.208,0.007,0.313,0.022l0.108,0.014c0.651,0.086,1.862,0.246,2.471,1.218
			c0.37,0.59,0.417,1.312,0.141,2.144c-0.494,1.485-0.305,2.351-0.234,2.581c0.274,0.904-0.008,2.081-0.405,3.526
			c-0.098,0.354-0.186,0.669-0.228,0.9c-0.303,1.657-0.378,3.425-0.451,5.134l-0.024,0.562c-0.083,1.834-1.027,3.027-1.786,3.986
			c-0.59,0.745-1.056,1.333-1.098,2.069c-0.842,14.723-0.979,15.163-4.481,26.447l-0.749,2.418
			c-0.498,2.604-2.104,2.996-3.021,2.996c-1.127,0-2.5-0.572-4.173-1.742l-2.208,9.114v-2.11c-0.887,2.274-1.822,4.163-2.599,5.574
			c-0.298,0.542-0.574,1.036-0.83,1.493c-2.187,3.91-2.774,4.961-2.933,10.355c-0.03,1.127,0.353,1.959,0.722,2.361
			c0.939,1.035,0.698,1.93,0.551,2.267c-0.201,0.461-0.787,1.236-2.445,1.251l-1.804-0.11c-0.154-0.008-0.333-0.011-0.516-0.011
			c-0.256,0-0.519,0.006-0.783,0.012c-0.286,0.006-0.574,0.013-0.861,0.013c-0.617,0-1.421-0.026-2.164-0.226
			c-1.393-0.374-2.2-1.06-2.275-1.931c-0.046-0.535,0.17-1.298,1.461-1.896c0.243-0.114,0.543-0.168,0.938-0.168
			c0.567,0,1.293,0.109,1.994,0.216c0.516,0.077,1.049,0.158,1.313,0.158c0.391-0.001,0.639-0.541,0.736-1.605
			c0.181-1.995,0-4.522-0.689-5.277c-0.118-0.129-0.202-0.14-0.278-0.14c-0.116,0-0.381,0.043-0.836,0.332
			c-3.331,2.11-12.835,2.274-15.669,2.274c-0.681,0-1.356-0.009-2.02-0.023c-0.616,0.015-1.292,0.022-1.973,0.022
			c-2.572,0-5.113-0.11-7.349-0.318c-2.636-0.398-4.489-0.942-5.565-1.624c-0.457-0.29-0.721-0.333-0.838-0.333
			c-0.075,0-0.159,0.011-0.277,0.14c-0.665,0.729-0.872,3.257-0.688,5.279c0.096,1.065,0.341,1.604,0.729,1.604
			c0.264,0,0.797-0.081,1.313-0.158c0.702-0.106,1.429-0.216,1.995-0.216c0.398,0,0.699,0.055,0.947,0.172
			c1.283,0.594,1.5,1.357,1.454,1.893c-0.074,0.869-0.882,1.556-2.276,1.932c-0.744,0.197-1.546,0.223-2.162,0.223
			c-0.286,0-0.573-0.006-0.858-0.012c-0.265-0.006-0.527-0.012-0.783-0.012c-0.184,0-0.365,0.003-0.54,0.012l-1.749,0.108H61.139z
			 M29.172,99.666c-0.175,0.646-0.212,1.055-0.246,1.423c-0.035,0.382-0.07,0.776-0.233,1.286c-0.143,0.444-0.29,0.885-0.443,1.322
			c0.25-0.487,0.51-1.123,0.713-1.84C29.211,100.979,29.319,100.352,29.172,99.666z M122.902,71.127
			c0.036,0.958,0.163,1.469,0.276,1.925c0.1,0.405,0.203,0.823,0.216,1.402c0.02,0.82,0.023,1.636,0.01,2.459
			c0.196-0.598,0.355-1.761,0.279-3.104C123.615,72.646,123.473,71.896,122.902,71.127z"/>
		<path style="fill:#FFFFFF;" d="M93.354,3.168c7.12,0,14.742,2.921,21.551,6.806c7.211,4.112,14.092,9.109,18.986,14.396
			c6.008,6.491,5.617,16.628-0.875,22.637c-3.082,2.853-6.984,4.262-10.878,4.262c-4.308,0-8.604-1.727-11.759-5.137
			c-4.232-4.573-5.289-10.955-3.275-16.426c1.787-4.854,0.803-9.154-1.719-12.541c-3.002-4.033-7.671-6.005-12.285-6.004
			c-4.969,0-9.873,2.287-12.559,6.748C71.296,33.256,92.316,61.544,98.975,75.75c1.896,4.051,3.973,8.172,6.35,12.401
			c1.465,2.61,2.6,5.191,3.453,7.725c1.629,4.84,2.465,9.991,2.387,15.058c-0.016,1.039,0.133,1.956,0.871,2.754
			c0.588,0.639,0.972,0.916,1.287,0.916c0.438,0,0.746-0.534,1.285-1.373c4.26-6.634,7.801-17.1,3.451-24.304
			c-1.752-2.902-0.355-5.487-1.344-7.352c-0.57-1.234-2.102-2.041-2.592-2.933c-1.039-1.898-1.934-3.698-1.863-6.17
			c0.064-2.472-1.217-2.797-1.582-4.608c-0.223-1.093,0.484-2.159,1.578-2.381c0.172-0.035,0.363-0.052,0.563-0.052
			c1.067,0,2.399,0.494,2.587,1.415c0.791,2.818-3.389,6.676-0.268,10.555c0.791,0.983,2.028,1.517,3.182,1.517
			c1.359,0,2.604-0.74,2.867-2.357c0.564-3.455-2.926-4.079-2.674-6.161c0.105-0.868,0.83-1.574,1.683-1.574
			c0.061,0,0.122,0.004,0.185,0.011c0.699,0.084,1.49,0.89,1.514,2.044c0.041,2.141,0.477,2.477,0.5,3.595
			c0.02,0.818,0.023,1.631,0.01,2.45c-0.008,0.374,0.041,0.725,0.348,0.986c0.26,0.215,0.489,0.311,0.69,0.311
			c1.06,0,1.343-2.649,1.239-4.47c-0.078-1.34-0.268-2.326-1.068-3.341c-1.3-1.648-0.2-3.324,0.995-3.324
			c0.058,0,0.116,0.004,0.175,0.012c0.754,0.104,2.516,0.241,1.908,2.071c-0.447,1.346-0.463,2.459-0.242,3.187
			c0.295,0.971-0.496,3.052-0.66,3.958c-0.348,1.908-0.404,3.893-0.49,5.83c-0.129,2.843-2.756,3.798-2.883,6.043
			c-0.893,15.602-0.965,14.961-5.205,28.682c-0.286,1.571-1.016,2.236-2.049,2.236c-1.24,0-2.917-0.959-4.787-2.455l-0.594,2.451
			v-0.3c-1.088,4.64-2.803,8.618-4.475,11.658c-2.869,5.21-3.701,6.01-3.887,12.301c-0.035,1.322,0.393,2.421,0.984,3.066
			c0.873,0.961,0.389,1.828-1.166,1.842c-0.576-0.038-1.152-0.069-1.727-0.108c-0.189-0.01-0.385-0.013-0.584-0.013
			c-0.531,0-1.092,0.024-1.645,0.024c-0.668,0-1.325-0.035-1.904-0.191c-1.287-0.346-2.369-1.159-0.654-1.953
			c0.115-0.054,0.295-0.075,0.518-0.075c0.927,0,2.584,0.374,3.307,0.374c1.324-0.002,1.635-1.449,1.732-2.515
			c0.148-1.639,0.237-6.508-1.964-6.508c-0.384,0-0.837,0.148-1.372,0.487c-2.325,1.474-8.979,2.119-15.133,2.119
			c-0.673,0-1.341-0.008-1.996-0.023c-0.655,0.015-1.322,0.022-1.996,0.022c-2.44,0-4.959-0.101-7.256-0.314
			c-2.267-0.344-4.108-0.83-5.123-1.473c-0.536-0.34-0.989-0.488-1.373-0.488c-2.199,0-2.109,4.87-1.96,6.51
			c0.096,1.063,0.404,2.514,1.725,2.514c0.724-0.001,2.382-0.374,3.308-0.374c0.224,0,0.405,0.021,0.52,0.076
			c1.716,0.794,0.635,1.606-0.654,1.954c-0.578,0.153-1.234,0.188-1.902,0.188c-0.551,0-1.11-0.023-1.64-0.023
			c-0.201,0-0.398,0.003-0.589,0.013c-0.576,0.035-1.152,0.071-1.727,0.107c-1.555-0.015-2.042-0.879-1.166-1.84
			c0.593-0.646,1.019-1.743,0.985-3.067c-0.073-2.363-0.544-4.783-1.455-6.732c-2.028-3.443-4.21-7.549-4.984-11.518
			c-0.204-1.042-0.285-1.854-0.607-1.854c-0.225,0-0.568,0.397-1.153,1.389c-0.499,0.846-0.682,1.15-0.988,1.15
			c-0.276,0-0.652-0.247-1.448-0.569c-8.155-3.302-18.146-3.068-24.179-10.511c-2.029-2.504-3.402-4.931-3.763-7.139
			c-0.346-2.113-0.407-3.975-0.66-6.48c-0.456-4.517-5.643-4.347-6.934-6.684c-0.555-0.853,0.323-2.349,1.175-2.902
			c0.311-0.203,0.66-0.3,1.005-0.3c0.602,0,1.19,0.294,1.544,0.836c0.921,1.409,0.298,2.443,1.923,4.006
			c1.629,1.563,2.202,3.303,2.742,5.202c0.252,0.892-0.224,2.397,0.194,3.565c0.036,0.118,0.079,0.231,0.13,0.342l-0.008-0.066
			c0.132,0.019,0.265,0.028,0.396,0.028c0.853,0,1.667-0.403,2.178-1.351c1.517-2.81-1.304-4.389-0.468-6.107
			c0.279-0.568,0.861-0.933,1.457-0.933c0.209,0,0.419,0.045,0.619,0.142c0.58,0.282,1.021,1.214,0.696,2.214
			c-0.602,1.859-0.33,2.279-0.641,3.25c-0.228,0.712-0.47,1.412-0.726,2.113c-0.118,0.32-0.181,0.638,0.006,0.955
			c0.215,0.354,0.447,0.504,0.684,0.504c0.866,0,1.797-2.018,2.221-3.513c0.333-1.179,0.463-2.086,0.076-3.2
			c-0.55-1.581,0.49-2.634,1.449-2.634c0.19,0,0.378,0.042,0.549,0.129c0.619,0.314,2.096,0.958,1.026,2.354
			c-0.787,1.026-1.132,1.982-1.159,2.674c-0.035,0.924-1.34,2.484-1.751,3.213c-0.868,1.542-1.51,3.236-2.163,4.881
			c-0.392,0.986-0.201,2.152,0.436,3.431c3.295,6.608,15.3,6.663,22.352,8.84c2.272-2.92,2.238-2.623,1.936-6.273
			c-0.634-7.671,0.721-15.392,3.992-22.948c2.534-5.854,5.213-9.263,5.582-15.549c0.238-4.073,0.034-8.44-1.235-11.264
			c-1.759-3.909-4.902-7.454-9.072-7.454c-0.43,0-0.871,0.038-1.322,0.117c-0.896,0.156-1.679,0.897-2.343,1.967
			c-1.412,2.276-2.54,5.65-3.28,10.379c-0.938,5.995-5.128,11.264-11.292,13.279c-1.721,0.563-3.467,0.83-5.185,0.83
			c-7.014,0-13.543-4.464-15.842-11.492c-2.862-8.748,1.912-18.165,10.661-21.026c6.408-2.097,12.635-3.844,18.973-3.843
			c3.837,0,7.715,0.641,11.696,2.232c4.578,1.832,8.625,4.688,11.445,9.06c1.465,2.27,2.308,4.891,2.811,7.654
			c0.9,4.923,0.72,10.296,1.055,14.914c0.86,3.24,1.781,5.858,6.296,6.812c1.501,0.317,3.067,0.557,4.553,0.557
			c3.332,0,6.259-1.206,7.143-5.445c4.643-22.299-25.955-47.207-12.924-69.711C79.216,6.269,86.018,3.168,93.354,3.168
			 M93.354,1.168l-0.001,2L93.354,1.168c-8.956,0-15.92,4.186-20.699,12.441c-7.762,13.406-1.237,27.291,5.072,40.718
			c4.913,10.454,9.553,20.328,7.625,29.588c-0.563,2.7-2.113,3.853-5.185,3.853c-1.149,0-2.504-0.168-4.139-0.514
			c-3.325-0.701-3.947-2.268-4.729-5.186c-0.099-1.432-0.15-2.934-0.204-4.519c-0.116-3.433-0.236-6.983-0.865-10.424
			c-0.61-3.354-1.624-6.095-3.098-8.378c-2.814-4.363-6.98-7.671-12.383-9.833c-3.998-1.598-8.066-2.375-12.438-2.375
			c-6.962,0-13.765,2.035-19.595,3.942c-4.739,1.55-8.591,4.854-10.847,9.302c-2.255,4.449-2.644,9.508-1.093,14.247
			c2.518,7.698,9.648,12.87,17.743,12.87c1.967,0,3.921-0.313,5.807-0.93c6.708-2.193,11.554-7.892,12.646-14.871
			c0.666-4.252,1.676-7.494,3.003-9.634c0.501-0.809,0.882-1.033,0.986-1.051c0.331-0.058,0.659-0.087,0.979-0.087
			c4.105,0,6.585,4.803,7.248,6.274c0.951,2.115,1.328,5.783,1.063,10.326c-0.247,4.208-1.625,6.995-3.37,10.524
			c-0.667,1.348-1.356,2.742-2.051,4.347c-3.414,7.885-4.81,15.929-4.15,23.908l0.021,0.247c0.102,1.221,0.168,2.027,0.071,2.37
			c-0.069,0.243-0.34,0.625-0.785,1.201c-1.682-0.436-3.523-0.787-5.449-1.153c-5.815-1.108-12.405-2.363-14.362-6.289
			c-0.388-0.779-0.519-1.419-0.367-1.8l0.194-0.491c0.559-1.414,1.137-2.876,1.853-4.146c0.07-0.124,0.244-0.377,0.411-0.62
			c0.877-1.276,1.552-2.345,1.596-3.498c0.008-0.217,0.176-0.786,0.748-1.533c0.864-1.129,0.866-2.145,0.715-2.798
			c-0.35-1.519-1.745-2.217-2.341-2.515l-0.082-0.042c-0.444-0.226-0.947-0.346-1.455-0.346c-0.847,0-1.665,0.32-2.309,0.882
			c-0.179-0.144-0.373-0.269-0.582-0.37c-0.471-0.228-0.973-0.343-1.494-0.343c-1.364,0-2.641,0.806-3.252,2.052
			c-0.041,0.084-0.078,0.167-0.111,0.249c-0.464-0.835-1.062-1.646-1.874-2.425c-0.535-0.515-0.601-0.799-0.747-1.423
			c-0.135-0.576-0.318-1.365-0.886-2.233c-0.711-1.09-1.915-1.742-3.218-1.742c-0.746,0-1.471,0.216-2.098,0.625
			c-0.739,0.479-1.426,1.291-1.835,2.168c-0.571,1.223-0.558,2.469,0.033,3.432c0.811,1.419,2.284,2.14,3.586,2.776
			c1.857,0.908,2.917,1.499,3.077,3.086c0.086,0.85,0.149,1.625,0.209,2.36c0.117,1.429,0.228,2.778,0.467,4.242
			c0.401,2.455,1.769,5.097,4.183,8.074c4.549,5.613,10.961,7.219,17.162,8.771c2.765,0.692,5.377,1.346,7.82,2.335
			c0.26,0.105,0.469,0.202,0.642,0.281c0.464,0.214,0.945,0.435,1.557,0.435c0.509,0,0.918-0.133,1.262-0.352
			c1.065,3.659,3.018,7.257,4.696,10.112c0.726,1.591,1.162,3.669,1.23,5.865c0.022,0.884-0.278,1.456-0.459,1.653
			c-0.93,1.02-1.202,2.266-0.734,3.34c0.239,0.55,1.046,1.831,3.354,1.853L61.201,150l0.072-0.005l1.723-0.107
			c0.136-0.007,0.3-0.009,0.467-0.009c0.249,0,0.503,0.006,0.761,0.011c0.292,0.007,0.587,0.013,0.879,0.013
			c0.677,0,1.563-0.029,2.416-0.256c2.476-0.667,2.953-2.05,3.019-2.814c0.059-0.698-0.126-2.003-2.039-2.888
			c-0.371-0.176-0.808-0.261-1.359-0.261c-0.642,0-1.406,0.115-2.145,0.227c-0.248,0.037-0.551,0.083-0.794,0.113
			c-0.036-0.145-0.075-0.356-0.102-0.659c-0.155-1.7-0.002-3.382,0.258-4.16c0.003,0.002,0.007,0.005,0.01,0.007
			c1.213,0.768,3.141,1.344,5.896,1.762l0.057,0.009l0.057,0.005c2.267,0.212,4.84,0.323,7.442,0.323
			c0.673,0,1.341-0.007,1.996-0.021c0.655,0.015,1.323,0.022,1.996,0.022c2.902,0,12.646-0.176,16.203-2.43
			c0.004-0.003,0.009-0.005,0.013-0.008c0.261,0.777,0.415,2.459,0.261,4.159c-0.027,0.304-0.067,0.517-0.104,0.661
			c-0.249-0.031-0.562-0.078-0.8-0.114c-0.738-0.111-1.501-0.227-2.143-0.227c-0.548,0-0.982,0.084-1.367,0.265
			c-1.903,0.881-2.089,2.186-2.028,2.885c0.065,0.765,0.544,2.147,3.013,2.811c0.854,0.229,1.744,0.26,2.423,0.26
			c0.294,0,0.59-0.007,0.883-0.013c0.258-0.006,0.514-0.012,0.762-0.012c0.166,0,0.328,0.003,0.484,0.01
			c0.277,0.02,0.592,0.039,0.906,0.058l0.788,0.05l0.074,0.005l0.075-0.001c2.305-0.021,3.112-1.301,3.353-1.85
			c0.47-1.074,0.199-2.321-0.724-3.337c-0.188-0.205-0.489-0.778-0.466-1.669c0.152-5.144,0.661-6.056,2.807-9.891
			c0.257-0.459,0.534-0.955,0.833-1.498c0.229-0.417,0.472-0.874,0.723-1.369v5.798l3.849-15.89
			c1.332,0.772,2.485,1.142,3.532,1.142c0.983,0,3.322-0.369,3.992-3.752l0.733-2.365c3.538-11.397,3.676-11.843,4.525-26.687
			c0.022-0.401,0.35-0.834,0.883-1.507c0.803-1.015,1.903-2.404,2.001-4.56l0.024-0.565c0.071-1.675,0.146-3.407,0.436-4.997
			c0.03-0.167,0.121-0.496,0.208-0.814c0.441-1.604,0.751-2.922,0.398-4.083c-0.021-0.068-0.193-0.712,0.227-1.975
			c0.467-1.407,0.126-2.402-0.242-2.99c-0.858-1.371-2.431-1.578-3.187-1.678l-0.104-0.014c-0.149-0.021-0.3-0.031-0.449-0.031
			c-1.294,0-2.517,0.776-3.145,1.985c-0.269-0.111-0.551-0.187-0.843-0.222c-0.145-0.018-0.285-0.026-0.425-0.026
			c-1.057,0-2.021,0.462-2.7,1.21c0.039-0.547,0.003-1.102-0.146-1.666c-0.462-2.019-2.66-2.938-4.53-2.938
			c-0.337,0-0.661,0.031-0.963,0.093c-1.051,0.213-1.957,0.824-2.551,1.719c-0.594,0.896-0.802,1.969-0.588,3.021
			c0.218,1.08,0.653,1.791,1.003,2.362c0.374,0.613,0.563,0.92,0.54,1.794c-0.083,2.924,0.949,5.066,2.107,7.183
			c0.382,0.694,0.952,1.207,1.503,1.702c0.414,0.372,0.882,0.793,1.028,1.109l0.022,0.05l0.026,0.048
			c0.183,0.346,0.172,1.02,0.159,1.799c-0.024,1.478-0.058,3.502,1.239,5.649c3.544,5.871,1.01,15.056-3.14,21.742
			c-0.033-0.187-0.048-0.424-0.043-0.738c0.08-5.207-0.781-10.646-2.491-15.726c-0.919-2.728-2.132-5.44-3.604-8.065
			c-2.167-3.856-4.222-7.87-6.282-12.271c-1.483-3.164-3.679-7.039-6.003-11.141C86.698,49.49,75.625,29.945,82.254,18.941
			c2.179-3.619,6.233-5.78,10.846-5.78c4.328,0,8.222,1.895,10.681,5.199c1.64,2.202,3.221,5.837,1.446,10.656
			c-2.354,6.397-0.942,13.477,3.685,18.476c3.398,3.672,8.22,5.778,13.227,5.778c4.55,0,8.896-1.703,12.236-4.794
			c7.292-6.749,7.733-18.172,0.984-25.463c-5.958-6.437-13.873-11.587-19.464-14.775C107.791,3.613,99.997,1.169,93.354,1.168
			L93.354,1.168z M118.32,76.917c-0.609,0-1.247-0.303-1.623-0.771c-1.113-1.383-0.809-2.651-0.1-4.695
			c0.27,1.132,1.041,1.952,1.601,2.547c0.837,0.89,1.171,1.29,1.016,2.239C119.175,76.475,119.103,76.917,118.32,76.917
			L118.32,76.917z"/>
	</g>
</g>
<g id="Layer_1">
</g>
</svg>
