<?xml version="1.0" encoding="iso-8859-1"?>
<!-- Generator: Adobe Illustrator 16.0.0, SVG Export Plug-In . SVG Version: 6.00 Build 0)  -->
<!DOCTYPE svg PUBLIC "-//W3C//DTD SVG 1.1//EN" "http://www.w3.org/Graphics/SVG/1.1/DTD/svg11.dtd">
<svg version="1.1" xmlns="http://www.w3.org/2000/svg" xmlns:xlink="http://www.w3.org/1999/xlink" x="0px" y="0px"
	 width="476.896px" height="489.398px" viewBox="0 0 476.896 489.398" style="enable-background:new 0 0 476.896 489.398;"
	 xml:space="preserve">
<g id="pop_x5F_02">
	<g>
		<path style="fill-rule:evenodd;clip-rule:evenodd;fill:#67BC47;" d="M153.701,178.928c-2.153-7.144-4.727-13.786-8.029-17.983
			c-5.474-6.963-13.973-11.431-23.518-11.431c-48.869,0-63.752,104.316-65.78,137.179c-0.396,6.385,2.749,15.858-5.972,11.792
			c-4.728-2.214-9.693-6.54-14.594-14.07c-3.945-6.063-12.003-17.828-9.429-25.035c2.163-6.076,5.084-17.481-3.598-17.534
			c-1.772-0.012-3.224,1.43-3.237,3.205c-0.016,1.791,1.426,3.258,3.192,3.258c1.046,0.012-0.653,4.763-2.089,8.341
			c-1.628,3.99-1.284,3.655-5.586,3.333c-3.729-0.283-8.245-0.797-7.816-1.711c0.76-1.609,0.086-3.54-1.532-4.299
			c-1.603-0.786-3.534-0.117-4.29,1.506c-3.325,6.963,5.351,9.627,11.826,10.619c-2.906,2.433-6.652,5.328-6.968,4.377
			c-0.569-1.688-2.4-2.601-4.083-2.047c-1.686,0.578-2.593,2.407-2.033,4.093c1.863,5.573,6.97,4.505,11.655,1.995
			c7.376-3.913,5.352-5.381,9.098,2.857c9.589,21.111,20.112,30.237,29.828,33.03c7.25,2.073,4.747,7.183,4.847,13.786
			c0.827,55.762,9.477,112.695,13.059,158.173c-0.448,9.563-0.727,6.603,8.792,6.603c7.656,0,15.312,0,22.967,0
			c4.126,0,4.335,0.953,4.335-3.682c0-3.989-0.685-2.921-4.18-2.921c-6.034,0-19.147,0-25.185,0c0-10.568,0-21.137,0-31.704
			c0-9.462,0.628-6.256,10.166-3.732c30.015,7.929,125.272,27.777,269.646-2.215c4.692-0.979,6.144-2.124,6.144,3.553
			c0,11.366,0,22.732,0,34.099c-6.037,0-19.15,0-25.188,0c-3.492,0-4.178-1.068-4.178,2.921c0,4.635,0.213,3.682,4.332,3.682
			c7.658,0,15.314,0,22.971,0c9.516,0,9.242,2.961,8.788-6.603l-1.989-36.776c-0.209-3.926,45.102-2.291,44.882,1.48
			c-0.67,11.753,0,23.53,0,35.296c-6.037,0-19.146,0-25.184,0c-3.494,0-4.177-1.068-4.177,2.921c0,4.635,0.208,3.682,4.331,3.682
			c7.658,0,15.311,0,22.97,0c9.514,0,9.243,2.961,8.793-6.603c2.245-43.174,8.727-97.726,5.805-149.458
			c-0.284-5.059-4.133-14.134,2.999-10.801c4.725,2.202,9.692,6.526,14.597,14.057c3.952,6.075,12.011,17.828,9.429,25.036
			c-2.162,6.076-5.09,17.493,3.599,17.546c1.775,0,3.225-1.43,3.236-3.219c0.02-1.776-1.423-3.244-3.191-3.257
			c-1.05-0.014,0.655-4.75,2.091-8.328c1.622-4.003,1.28-3.656,5.587-3.334c3.732,0.283,8.238,0.798,7.813,1.712
			c-0.76,1.597-0.09,3.526,1.532,4.3c1.608,0.772,3.526,0.103,4.286-1.519c3.334-6.964-5.349-9.616-11.823-10.608
			c2.903-2.432,6.648-5.341,6.97-4.388c0.567,1.686,2.395,2.612,4.081,2.059c1.687-0.579,2.594-2.419,2.033-4.105
			c-1.865-5.561-6.97-4.506-11.655-1.983c-7.375,3.914-5.349,5.382-9.094-2.87c-9.59-21.109-20.119-30.224-29.831-33.017
			c-7.305-2.085-6.875-7.864-6.706-14.635c4.188-171.214-157.665-232.575-241.373-119.391
			C158.888,202.098,164.484,214.751,153.701,178.928z"/>
		<path style="fill-rule:evenodd;clip-rule:evenodd;fill:#FFFFFF;" d="M99.683,199.587c-9.475-11.674-7.688-28.833,3.99-38.307
			c11.678-9.475,28.834-7.686,38.311,3.99c9.475,11.688,7.685,28.833-3.993,38.32C126.312,213.065,109.16,211.276,99.683,199.587z"
			/>
		<path style="fill-rule:evenodd;clip-rule:evenodd;fill:#FFFFFF;" d="M204.61,308.731c-37.162-45.813-30.15-113.083,15.649-150.245
			c45.805-37.162,113.084-30.146,150.243,15.652c37.163,45.8,30.153,113.083-15.648,150.244
			C309.048,361.546,241.769,354.529,204.61,308.731z"/>
		<circle style="fill-rule:evenodd;clip-rule:evenodd;fill:#333333;" cx="126.703" cy="173.745" r="4.802"/>
		<path style="fill-rule:evenodd;clip-rule:evenodd;fill:#333333;" d="M284.531,194.31c-6.555-8.084-5.319-19.952,2.759-26.504
			c8.077-6.552,19.944-5.315,26.493,2.755c6.556,8.083,5.319,19.952-2.758,26.504C302.948,203.616,291.083,202.38,284.531,194.31z"
			/>
	</g>
	<polygon style="fill-rule:evenodd;clip-rule:evenodd;fill:#FFFFFF;" points="345.176,91.099 126.682,91.099 171.409,139.576 
		102.229,91.099 40.198,91.099 40.198,0 345.176,0 	"/>
	<g>
		<path d="M56.544,14.749l16.083,40.139L88.71,14.749h8.413v49.194h-6.487V44.786l0.608-20.678l-16.15,39.835h-4.967L54.011,24.209
			l0.642,20.577v19.157h-6.487V14.749H56.544z"/>
		<path d="M105.941,45.327c0-3.582,0.704-6.803,2.112-9.664c1.407-2.86,3.367-5.068,5.879-6.622s5.377-2.332,8.599-2.332
			c4.979,0,9.005,1.723,12.079,5.169c3.075,3.447,4.612,8.031,4.612,13.751v0.439c0,3.559-0.682,6.752-2.044,9.579
			c-1.363,2.827-3.312,5.029-5.846,6.605c-2.534,1.577-5.445,2.365-8.734,2.365c-4.955,0-8.97-1.723-12.045-5.169
			c-3.074-3.446-4.612-8.008-4.612-13.684V45.327z M112.227,46.07c0,4.055,0.94,7.31,2.821,9.765
			c1.88,2.455,4.397,3.683,7.551,3.683c3.177,0,5.699-1.244,7.568-3.733c1.87-2.489,2.805-5.975,2.805-10.457
			c0-4.009-0.952-7.259-2.854-9.748c-1.904-2.488-4.433-3.733-7.586-3.733c-3.086,0-5.575,1.228-7.467,3.683
			C113.172,37.983,112.227,41.498,112.227,46.07z"/>
		<path d="M152.94,27.385l0.169,4.055c2.68-3.153,6.295-4.73,10.846-4.73c5.113,0,8.593,1.96,10.44,5.879
			c1.216-1.757,2.798-3.176,4.747-4.257c1.948-1.081,4.251-1.622,6.909-1.622c8.019,0,12.096,4.246,12.231,12.738v24.496h-6.251
			V39.819c0-2.613-0.597-4.567-1.791-5.862c-1.193-1.295-3.198-1.943-6.014-1.943c-2.32,0-4.246,0.693-5.777,2.078
			c-1.532,1.385-2.422,3.25-2.67,5.592v24.259h-6.284V39.988c0-5.316-2.602-7.974-7.805-7.974c-4.1,0-6.904,1.746-8.413,5.237
			v26.692h-6.251V27.385H152.94z"/>
		<path d="M213.588,27.385l0.169,4.055c2.68-3.153,6.295-4.73,10.846-4.73c5.113,0,8.593,1.96,10.44,5.879
			c1.216-1.757,2.798-3.176,4.747-4.257c1.948-1.081,4.251-1.622,6.909-1.622c8.019,0,12.096,4.246,12.231,12.738v24.496h-6.251
			V39.819c0-2.613-0.597-4.567-1.791-5.862c-1.193-1.295-3.198-1.943-6.014-1.943c-2.32,0-4.246,0.693-5.777,2.078
			c-1.532,1.385-2.422,3.25-2.67,5.592v24.259h-6.284V39.988c0-5.316-2.602-7.974-7.805-7.974c-4.1,0-6.904,1.746-8.413,5.237
			v26.692h-6.251V27.385H213.588z"/>
		<path d="M280.318,54.787l8.514-27.402h6.69l-14.697,42.201c-2.275,6.082-5.891,9.123-10.847,9.123l-1.182-0.102l-2.332-0.439V73.1
			l1.689,0.135c2.117,0,3.768-0.428,4.95-1.284c1.183-0.856,2.156-2.422,2.923-4.697l1.385-3.716L264.37,27.385h6.825
			L280.318,54.787z"/>
		<path d="M308.43,50.034c0.045-2.676,0.349-4.79,0.912-6.342c0.563-1.551,1.711-3.272,3.446-5.162l4.426-4.554
			c1.893-2.135,2.838-4.428,2.838-6.878c0-2.36-0.619-4.208-1.858-5.546c-1.238-1.337-3.04-2.006-5.405-2.006
			c-2.298,0-4.145,0.608-5.541,1.824c-1.397,1.216-2.095,2.85-2.095,4.899h-6.251c0.045-3.649,1.346-6.594,3.902-8.835
			c2.557-2.241,5.884-3.362,9.984-3.362c4.257,0,7.573,1.141,9.95,3.424c2.376,2.283,3.564,5.415,3.564,9.395
			c0,3.936-1.824,7.815-5.474,11.638l-3.683,3.644c-1.645,1.822-2.467,4.442-2.467,7.86H308.43z M308.159,60.768
			c0-1.023,0.31-1.882,0.929-2.575c0.619-0.694,1.537-1.041,2.754-1.041s2.14,0.347,2.771,1.041
			c0.631,0.693,0.946,1.552,0.946,2.575c0,1.023-0.315,1.87-0.946,2.541c-0.631,0.671-1.554,1.006-2.771,1.006
			s-2.135-0.335-2.754-1.006C308.469,62.638,308.159,61.791,308.159,60.768z"/>
	</g>
</g>
<g id="Layer_1">
</g>
</svg>
