<?xml version="1.0" encoding="iso-8859-1"?>
<!-- Generator: Adobe Illustrator 16.0.0, SVG Export Plug-In . SVG Version: 6.00 Build 0)  -->
<!DOCTYPE svg PUBLIC "-//W3C//DTD SVG 1.1//EN" "http://www.w3.org/Graphics/SVG/1.1/DTD/svg11.dtd">
<svg version="1.1" xmlns="http://www.w3.org/2000/svg" xmlns:xlink="http://www.w3.org/1999/xlink" x="0px" y="0px"
	 width="527.381px" height="533.517px" viewBox="0 0 527.381 533.517" style="enable-background:new 0 0 527.381 533.517;"
	 xml:space="preserve">
<g id="pop_x5F_03">
	<g>
		<path style="fill-rule:evenodd;clip-rule:evenodd;fill:#FF9600;" d="M390.716,349.6c-1.467,12.485-4.086,24.688-8.4,38.729
			c-2.831,9.245-6.073,18.442-10.025,27.845c-3.912,9.291-7.865,18.545-11.531,28.033c-1.421,3.691-2.723,7.461-3.818,11.35
			c-4.566,16.084-6.721,30.084-8.037,48.519c-0.324,4.559-0.947,6.848-0.293,9.591c2.249,9.418,10.642,10.665,19.829,9.742
			c2.856-0.284,5.712-0.663,8.379-0.419c8.731,0.782,9.544,10.933-2.509,10.516c-9.931-0.34-26.046-0.08-34.967-0.781
			c-3.495-0.347-6.2-1.151-7.588-3.281c-4.322-6.609,3.707-6.94,5.82-11.232c1.246-2.516,2.209-5,2.934-7.462
			c4.466-15.018,0.341-29.217-0.867-45.631c-0.906-12.281,2.446-15.847-10.206-12.55c-34.478,9.009-97.005,9.009-131.482,0
			c-12.652-3.297-9.3,0.269-10.207,12.55c-1.207,16.414-5.333,30.613-0.876,45.631c0.726,2.462,1.696,4.946,2.935,7.462
			c2.114,4.292,10.151,4.623,5.821,11.232c-1.38,2.13-4.086,2.935-7.581,3.281c-8.92,0.701-25.035,0.441-34.966,0.781
			c-12.052,0.417-11.24-9.733-2.508-10.516c2.666-0.244,5.514,0.135,8.369,0.419c9.189,0.923,17.582-0.324,19.83-9.742
			c0.662-2.743,0.031-5.032-0.292-9.591c-1.317-18.435-3.463-32.435-8.03-48.519c-1.104-3.889-2.397-7.658-3.826-11.35
			c-3.66-9.488-7.619-18.742-11.524-28.033c-3.959-9.402-7.202-18.6-10.033-27.845c-4.314-14.04-6.926-26.243-8.4-38.729
			c-3.636-30.73,5.679-32.355-17.803-30.802c-18.402,1.207-38.69-2.918-56.343,0.157c-12.068,2.667-19.096,4.402-30.588,8.905
			c-7.873,3.519-34.21,18.583-31.773-0.253c1.167-9.063,11.193-8.036,18.592-8.534c3.345-0.173,23.577-2.035,27.276-3.155
			c3.691-1.136,4.97-0.544,4.275-3.644c-0.733-3.297-18.923-5.08-26.724-4.771c-5.766,0.181-14.08,1.316-18.867-2.761
			c-4.836-4.133-1.452-13.395,3.841-16.021c7.249-3.589,35.258,13.771,39.643,15.672c6.176,2.241,12.668,1.783,15.113,0.214
			c1.128-0.726,1.641-2.232,1.357-4.883c-0.402-3.762-0.741-7.801-3.369-10.451c-11.248-11.326-8.581-19.325-3.762-21.857
			c4.212-2.209,10.837,0.347,14.104,3.345c6.578,6.035-10.783,16.635,4.354,33.815c7.832,8.874,31.662,6.239,42.681,5.979
			c9.442-0.229,16.383-2.271,16.974-14.687c12.731-265.204,237.408-268.548,255.494-10.05c1.334,19.072,3.66,22.915,12.447,23.837
			c11.003,1.16,39.439,4.401,47.8-5.079c15.145-17.181-2.225-27.78,4.354-33.815c3.266-2.998,9.899-5.554,14.11-3.345
			c4.82,2.532,7.479,10.531-3.762,21.857c-2.627,2.65-2.974,6.689-3.377,10.451c-0.283,2.65,0.237,4.157,1.358,4.883
			c2.444,1.569,8.944,2.027,15.112-0.214c4.386-1.9,32.396-19.261,39.652-15.672c5.292,2.626,8.676,11.888,3.84,16.021
			c-4.795,4.077-13.108,2.941-18.874,2.761c-7.801-0.309-25.982,1.475-26.725,4.771c-0.694,3.1,0.584,2.508,4.283,3.644
			c3.691,1.128,23.924,2.982,27.276,3.155c7.398,0.498,17.416-0.528,18.583,8.534c2.438,18.836-23.892,3.771-31.771,0.253
			c-11.486-4.503-18.522-6.238-30.583-8.905c-18.078-3.155-42.311,0.355-61.879-0.48C386.599,317.771,394.029,321.614,390.716,349.6
			z"/>
		<path style="fill-rule:evenodd;clip-rule:evenodd;fill:#FFFFFF;" d="M234.017,331.236c-67.362-10.096-81.11-63.331-68.017-121.977
			c10.53-47.185,36.773-87.958,86.427-95.813c46.002-7.288,75.297,31.165,94.354,70.178c11.138,22.811,17.259,47.863,16.037,69.665
			C358.825,324.618,297.285,340.709,234.017,331.236z"/>
		<path style="fill-rule:evenodd;clip-rule:evenodd;fill:#333333;" d="M274.37,206.195c18.126-5.594,21.235-21.061,15.185-36.671
			c-4.867-12.55-14.719-21.297-28.72-21.392c-12.967-0.078-20.067,10.577-23.679,22.117c-2.115,6.744-2.761,13.905-1.507,19.853
			C239.728,209.578,257.356,211.448,274.37,206.195z"/>
	</g>
	<polygon style="fill-rule:evenodd;clip-rule:evenodd;fill:#FFFFFF;" points="262.256,91.099 107.27,91.099 151.997,139.576 
		82.816,91.099 20.786,91.099 20.786,0 262.256,0 	"/>
	<g>
		<path d="M52.024,44.685v19.259h-6.487V14.749h18.144c5.384,0,9.602,1.374,12.653,4.122c3.053,2.748,4.579,6.386,4.579,10.913
			c0,4.776-1.493,8.453-4.478,11.032c-2.984,2.58-7.259,3.869-12.822,3.869H52.024z M52.024,39.38h11.656
			c3.469,0,6.127-0.818,7.975-2.454c1.847-1.636,2.771-4,2.771-7.091c0-2.933-0.924-5.28-2.771-7.04
			c-1.848-1.76-4.382-2.674-7.603-2.741H52.024V39.38z"/>
		<path d="M111.692,51.07h-20.61l-4.629,12.873h-6.689l18.785-49.194h5.677l18.819,49.194h-6.656L111.692,51.07z M93.042,45.766
			h16.725l-8.379-23.009L93.042,45.766z"/>
		<path d="M136.155,44.685v19.259h-6.487V14.749h18.144c5.384,0,9.602,1.374,12.653,4.122c3.053,2.748,4.579,6.386,4.579,10.913
			c0,4.776-1.493,8.453-4.478,11.032c-2.984,2.58-7.259,3.869-12.822,3.869H136.155z M136.155,39.38h11.656
			c3.469,0,6.127-0.818,7.975-2.454c1.847-1.636,2.771-4,2.771-7.091c0-2.933-0.924-5.28-2.771-7.04
			c-1.848-1.76-4.382-2.674-7.603-2.741h-12.028V39.38z"/>
		<path d="M195.823,51.07h-20.61l-4.629,12.873h-6.689l18.785-49.194h5.677l18.819,49.194h-6.656L195.823,51.07z M177.173,45.766
			h16.725l-8.379-23.009L177.173,45.766z"/>
		<path d="M218.09,50.034c0.045-2.676,0.349-4.79,0.912-6.342c0.563-1.551,1.711-3.272,3.446-5.162l4.426-4.554
			c1.893-2.135,2.838-4.428,2.838-6.878c0-2.36-0.619-4.208-1.858-5.546c-1.238-1.337-3.04-2.006-5.405-2.006
			c-2.298,0-4.145,0.608-5.541,1.824c-1.397,1.216-2.095,2.85-2.095,4.899h-6.251c0.045-3.649,1.346-6.594,3.902-8.835
			c2.557-2.241,5.884-3.362,9.984-3.362c4.257,0,7.573,1.141,9.95,3.424c2.376,2.283,3.564,5.415,3.564,9.395
			c0,3.936-1.824,7.815-5.474,11.638l-3.683,3.644c-1.645,1.822-2.467,4.442-2.467,7.86H218.09z M217.819,60.768
			c0-1.023,0.31-1.882,0.929-2.575c0.619-0.694,1.537-1.041,2.754-1.041s2.14,0.347,2.771,1.041
			c0.631,0.693,0.946,1.552,0.946,2.575c0,1.023-0.315,1.87-0.946,2.541c-0.631,0.671-1.554,1.006-2.771,1.006
			s-2.135-0.335-2.754-1.006C218.129,62.638,217.819,61.791,217.819,60.768z"/>
	</g>
</g>
<g id="Layer_1">
</g>
</svg>
