<svg xmlns="http://www.w3.org/2000/svg" xmlns:xlink="http://www.w3.org/1999/xlink" width="116" height="116" viewBox="0 0 116 116"><defs><clipPath id="a"><rect width="116" height="116" transform="translate(1384 71)" fill="#3dacd6"/></clipPath></defs><g transform="translate(-1384 -71)" clip-path="url(#a)"><rect width="116" height="116" transform="translate(1384 71)" fill="#1d84d4"/><g transform="translate(786.497 -72.691) rotate(-20)"><path d="M549.926,460.782c-6.093.47-8.784-4.209-9.419-9.693-.442-3.8.383-7.8.937-11.566.588-4.014,1.269-7.955,2.25-11.966,2.636-10.8,3.643-12.49,13.607-17.485a23.818,23.818,0,0,0,2.439-1.409,18.425,18.425,0,0,0,6.557-24c-2.977-5.858-7.671-9.707-14.321-10.239-8.847-.713-19.226,5.825-22.117,14.579-1.611,4.877-.189,11.894,3.285,15.971,7.208,8.452,7.919,10.67,6.646,21.19a128.409,128.409,0,0,1-4.675,21.9,6.953,6.953,0,0,1-2.741,4.035c-6.055,3.459-10.688,2.255-14.819,3.884-4.077,1.608-7.027,7.027-12.822.69-1.153-1.258-4.593-4.728-1.98-5.862a33.767,33.767,0,0,1,5.7-1.827c1.925-.446,3.891-.648,5.814-1.1,1.3-.305,2.125-.607,3.384.223,3.589,2.375.958,5.147,2.448,5.923a2.678,2.678,0,0,0,2.72-.086c.751-.695.842-2.276-1.75-3.78a3.14,3.14,0,0,1-1.125-1.729c-.181-.469-.161-.767.005-.953a3.84,3.84,0,0,1,2.75-.705c.891.13,6.823,1.909,7.962.9.83-.737.988-2.582-.089-3.092s-2.52.107-3.557.421c-1.4.439-4.786,1.007-5.083.446-.277-.528-.018-.483.6-.87a51.169,51.169,0,0,1,4.793-1.909c1.318-.453,3.185-.758,2.954-2.461-.483-3.535-4.521.486-5.776,1.511a33.052,33.052,0,0,1-5.112,3.115,43.174,43.174,0,0,1-5.362,1.406c-2.138.477-3.687.707-5.937,1.09-2.536.435-5.24.751-7.415,2.092-1.878,1.158-2.682,1.755-2.225,4.028.862,4.326,4.056,8.851,5.648,12.8,1.7,4.194.855,6.021,1.518,10.193,1.123,7.081,7.02,9.544,6.931,15.762a3.272,3.272,0,0,1-.906,2.382c-.49.484-1.271.546-2.977.56h-2.187c-1.52.009-3.034.023-4.551.033-.865-.1-3.257.24-2.257,1.7.219.321.751.23,1.527.388,3.659.119,7.341-.067,10.976.242,1.027.276,1.646.6,2.655.147.809-.36.537-.723.17-1.306a8.252,8.252,0,0,1-.846-3.32c0-1.6.181-2.417.672-2.808.512-.405,1.357-.339,2.676-.19a32.837,32.837,0,0,1,3.521.635c6.464,1.45,13.68-.834,19.651.634a3.388,3.388,0,0,1,1.751,1.014c.877.935,1.6,3.3.772,4.466-.339.477-1.63,1.244-.872,1.974.737.709,2.668.147,3.58.118a63.648,63.648,0,0,1,6.79-.2,13.423,13.423,0,0,1,1.441.19,2.544,2.544,0,0,0,1.558-.114c.484-.212.753-.6.1-1.23a2.591,2.591,0,0,0-1.425-.467c-.858,0-1.706.014-2.554.046s-1.694.072-2.552.13c-3.21-.223-3.663.151-3.717-3.092-.951-6.136,3.6-5.6,4.167-11.588a31.194,31.194,0,0,0,.025-6.924,20.4,20.4,0,0,0-2.131-6.85,4.966,4.966,0,0,1-.823-2.557c.133-.827.955-.942,1.611-1.172,7.936-2.752,12.631-5.46,16.227-10.465a37.878,37.878,0,0,0,5.005-10.333,39.483,39.483,0,0,1,1.9-4.823,33.078,33.078,0,0,1,3.682-4.721c1.162-1.127,5.625-4.675,2.166-5.563-1.662-.425-2.18,1.4-2.782,2.65a50.808,50.808,0,0,1-2.45,4.542c-.456.569-.439.832-.934.493-.523-.356.432-3.654,1.027-4.995.435-.993,1.211-2.364.83-3.485s-2.232-1.186-3.059-.446c-1.134,1.014-.051,7.113-.025,8.012a3.811,3.811,0,0,1-1.018,2.648c-.2.147-.5.132-.946-.1a3.152,3.152,0,0,1-1.588-1.316c-1.193-2.75-2.775-2.838-3.552-2.174a2.682,2.682,0,0,0-.4,2.692c.6,1.569,3.656-.723,5.6,3.115a3.069,3.069,0,0,1,.035,2.834c-1.35,3.714-2.648,6.781-5.553,9.739C557.96,458.03,551.916,460.629,549.926,460.782Z" transform="translate(0 0)" fill="#6de0f2" fill-rule="evenodd"/><path d="M536.48,376.511c-7.282-.586-15.825,4.793-18.2,12-1.427,4.319,0,10.706,3.391,13.856,3.7,3.438,6.43,5.539,11.276,5.409a18.313,18.313,0,0,0,9.926-3.082,15.169,15.169,0,0,0,5.395-19.754C545.816,380.117,541.952,376.95,536.48,376.511Z" transform="translate(14.65 1.581)" fill="#fff" fill-rule="evenodd"/><path d="M534.594,385.219a4.11,4.11,0,0,0-3.947,2.6,3.4,3.4,0,0,0,3.18,4.179,3.983,3.983,0,0,0,2.153-.669,3.291,3.291,0,0,0,1.172-4.284A3.08,3.08,0,0,0,534.594,385.219Z" transform="translate(24.315 8.181)" fill="#333" fill-rule="evenodd"/></g></g></svg>