<?xml version="1.0" encoding="iso-8859-1"?>
<!-- Generator: Adobe Illustrator 16.0.0, SVG Export Plug-In . SVG Version: 6.00 Build 0)  -->
<!DOCTYPE svg PUBLIC "-//W3C//DTD SVG 1.1//EN" "http://www.w3.org/Graphics/SVG/1.1/DTD/svg11.dtd">
<svg version="1.1" xmlns="http://www.w3.org/2000/svg" xmlns:xlink="http://www.w3.org/1999/xlink" x="0px" y="0px" width="150px"
	 height="150px" viewBox="0 0 150 150" style="enable-background:new 0 0 150 150;" xml:space="preserve">
<g id="_x30_1_x5F_02_x5F_black">
	<rect style="fill:none;" width="150" height="150"/>
	<g>
		<path d="M65.267,149c-0.48,0-0.973-0.061-1.391-0.119c-0.979-0.138-1.982-0.243-2.981-0.313c-0.576,0.003-1.209,0.023-1.834,0.064
			c-0.316,0.035-0.679,0.075-1.087,0.149c-0.262,0.051-0.509,0.076-0.742,0.076c-0.403,0-0.785-0.079-1.136-0.234
			c-0.034-0.019-0.066-0.036-0.096-0.053c-0.408,0.034-0.778,0.086-1.203,0.166c-0.306,0.061-0.592,0.092-0.861,0.092
			c-0.474,0-0.919-0.099-1.325-0.292c-0.775-0.34-0.985-0.904-1.039-1.21c-0.1-0.566,0.128-1.121,0.678-1.647
			c0.521-0.521,1.318-0.669,2.026-0.743l0.104-0.005c0.882,0,1.756,0.01,2.625,0.052c0.33,0.008,0.684,0.026,1.039,0.046
			c0.433,0.024,0.865,0.048,1.298,0.048c0.313,0,0.626-0.013,0.939-0.05c2.027-0.238,2.032-0.343,2.156-3.02l0.036-0.731
			c0.087-1.76-1.313-3.037-3.085-4.654c-0.247-0.225-0.497-0.453-0.747-0.687c-4.507-4.217-8.311-10.726-9.806-16.556
			c-1.443,2.005-3.271,3.911-5.62,5.87c-1.827,1.524-3.612,2.774-5.502,4.098l-1.209,0.85c-2.414,1.701-3.091,2.304-3.28,2.511
			c-1.439,1.714-2.259,2.752-3.445,4.727c-0.063,0.118-0.166,0.324-0.284,0.562c-1.143,2.285-2.403,4.515-4.141,4.515
			c-0.569,0-1.395-0.251-2.096-1.45c-1.174-2.028,0.538-3.463,1.561-4.32c0.151-0.127,0.3-0.251,0.439-0.375
			c0.252-0.211,0.887-0.792,1.556-1.423c-0.318,0.221-0.615,0.441-0.862,0.646l-0.359,0.304c-0.84,0.719-1.991,1.703-3.357,1.703
			l-0.112-0.002c-0.797-0.041-1.503-0.497-1.948-1.253c-0.548-0.931-0.627-2.148-0.196-3.031c0.644-1.328,3.108-1.94,7.432-2.604
			c0.478-0.073,0.839-0.125,1-0.165c0.699-0.229,1.236-0.667,1.473-0.936c-0.01-0.011-0.021-0.023-0.033-0.036
			c-0.425-0.443-0.786-0.819-1.116-0.863c-2.385-0.324-3.373-1.282-3.781-2.029c-0.385-0.704-0.418-1.515-0.09-2.224
			c0.542-1.184,2.029-1.725,3.182-1.725c0.114,0,0.225,0.005,0.33,0.016c1.303,0.107,1.674,1.237,1.944,2.063
			c0.359,1.095,0.698,2.13,2.716,2.521c0.194,0.037,0.366,0.056,0.524,0.056c0.393,0,0.695-0.108,1.155-0.415
			c0.173-0.115,0.35-0.244,0.537-0.381c0.261-0.189,0.542-0.395,0.86-0.603c1.569-1.052,3.358-2.25,4.718-3.582
			c3.047-2.982,4.813-6.838,5.757-9.547l0.041-0.099c0.729-1.54,1.949-4.116,1.826-4.654c-0.107-0.046-0.844-0.178-1.436-0.285
			c-0.457-0.082-0.979-0.177-1.565-0.308c-2.34,0.529-4.736,0.797-7.123,0.797c-14.188,0-26.951-9.496-31.036-23.094
			c-2.492-8.292-1.605-17.06,2.497-24.687c4.103-7.627,10.928-13.2,19.22-15.691c3.044-0.915,6.186-1.378,9.336-1.378
			c0.815,0,1.642,0.032,2.455,0.094c3.342,0.256,6.262,0.38,8.927,0.38c14.671,0,21.7-3.727,35.377-12.878
			c6.617-4.43,14.343-6.772,22.342-6.772c22.183,0,40.229,18.048,40.229,40.232c0,20.663-16.059,38.225-36.597,40.066
			c-1.031,0.514-1.714,0.898-1.859,1.364c-0.292,0.932,0.873,3.221,1.921,5.11c0.814,1.469,1.71,2.821,2.659,4.02
			c1.562,1.966,7.287,7.22,10.093,8.078c0.2,0.061,0.407,0.091,0.636,0.091c0.2,0,0.415-0.022,0.656-0.067
			c2.536-0.498,2.981-1.855,3.411-3.168c0.307-0.934,0.726-2.212,2.171-2.336c0.107-0.011,0.229-0.016,0.354-0.016
			c1.326,0,3.031,0.607,3.643,1.943c0.369,0.8,0.331,1.716-0.106,2.511c-0.472,0.856-1.614,1.954-4.381,2.323
			c-0.461,0.058-0.935,0.548-1.393,1.021l-0.082,0.085c-0.059,0.063-0.101,0.116-0.131,0.157c0.25,0.344,0.983,0.993,2.039,1.334
			c0.127,0.028,0.564,0.093,1.143,0.182c4.995,0.77,8.031,1.508,8.766,3.004c0.494,1.015,0.401,2.407-0.228,3.469
			c-0.498,0.841-1.283,1.347-2.151,1.388l-0.161,0.004c-1.562,0-2.851-1.105-3.887-1.994c-0.146-0.126-0.288-0.247-0.423-0.358
			c-0.702-0.585-1.75-1.281-2.682-1.818c1.122,1.107,2.75,2.624,3.234,3.044c0.176,0.157,0.355,0.307,0.538,0.459
			c1.187,0.99,3.173,2.648,1.835,4.917c-0.639,1.092-1.429,1.647-2.349,1.647c-1.97,0-3.442-2.618-4.782-5.301
			c-0.144-0.289-0.269-0.54-0.372-0.731c-1.378-2.295-2.373-3.554-4.161-5.685c-0.198-0.216-0.878-0.808-2.823-2.215
			c-0.926-0.67-1.837-1.311-2.734-1.941c-3.036-2.136-5.904-4.152-8.764-6.863c-1.811-1.716-3.324-3.447-4.583-5.245
			c-1.685,7.443-6.11,14.51-13.76,22.03c-0.68,0.67-1.378,1.34-2.125,2.031c-0.478,0.447-0.668,1.291-0.596,2.651l0.042,0.886
			c0.145,3.17,0.159,3.501,2.76,3.806c0.342,0.042,0.706,0.062,1.117,0.062c0.53,0,1.06-0.032,1.59-0.063
			c0.422-0.025,0.844-0.05,1.266-0.062c1.033-0.044,2.071-0.054,3.126-0.054h0.058l0.058,0.007c0.813,0.094,1.722,0.268,2.306,0.838
			c0.602,0.576,0.855,1.182,0.748,1.793c-0.069,0.401-0.328,0.956-1.161,1.325c-0.468,0.206-0.955,0.306-1.493,0.306
			c-0.306,0-0.629-0.032-0.988-0.101c-0.555-0.102-1.073-0.169-1.629-0.211c-0.85-0.063-1.756-0.094-2.688-0.094
			c-2.119,0-4.412,0.164-6.632,0.474c-0.538,0.079-1.12,0.153-1.676,0.153c-0.974,0-1.687-0.233-2.181-0.714
			c-0.485-0.469-0.587-0.97-0.587-1.308c0-0.9,0.688-1.563,1.19-2.047c0.131-0.126,0.256-0.234,0.326-0.334
			c0.629-0.881,0.034-3.22-0.84-4.146c-1.02-1.091-2.243-1.619-3.741-1.619c-0.932,0-1.983,0.198-3.216,0.606
			c-0.197,0.064-0.478,0.149-0.824,0.253c-2.075,0.623-8.39,2.52-9.152,4.766c-0.092,0.271-0.143,0.657,0.286,1.251
			c0.051,0.064,0.122,0.128,0.196,0.199c0.361,0.347,0.906,0.87,0.909,1.618c0.001,0.293-0.083,0.727-0.496,1.131
			c-0.419,0.393-0.982,0.576-1.738,0.576c-0.222,0-0.455-0.016-0.687-0.039C65.699,148.987,65.493,149,65.267,149z"/>
		<path style="fill:#FFFFFF;" d="M107.444,25.279c21.661,0,39.229,17.568,39.229,39.232c0,20.531-15.78,37.382-35.871,39.087
			c-2.955,1.459-3.803,2.051-0.539,7.938c0.794,1.432,1.706,2.839,2.751,4.156c1.642,2.067,7.523,7.478,10.584,8.413
			c0.282,0.087,0.586,0.135,0.928,0.135c0.256,0,0.534-0.027,0.841-0.085c5.115-1.003,3.467-5.317,5.482-5.49
			c0.086-0.008,0.176-0.012,0.27-0.012c0.994,0,2.322,0.462,2.733,1.359c0.522,1.133-0.113,2.947-3.71,3.427
			c-0.841,0.105-1.468,0.79-2.061,1.401c-0.416,0.448-0.535,0.793-0.43,1.069c0.218,0.622,1.326,1.61,2.748,2.069
			c1.053,0.258,8.508,1.023,9.318,2.675c0.589,1.21-0.089,3.349-1.529,3.417c-0.038,0.002-0.075,0.003-0.113,0.003
			c-1.389,0-2.688-1.312-3.674-2.124c-1.228-1.022-4.216-2.917-5.227-2.917c-0.109,0-0.195,0.022-0.254,0.07
			c-0.546,0.459-0.237,0.533,0.269,1.242c0.515,0.716,3.9,3.86,4.474,4.357c1.264,1.123,3.219,2.329,2.167,4.112
			c-0.481,0.823-0.984,1.155-1.487,1.155c-1.779,0-3.55-4.163-4.274-5.507c-1.446-2.411-2.469-3.7-4.274-5.853
			c-0.438-0.479-1.648-1.402-3.004-2.383c-4.015-2.904-7.744-5.258-11.396-8.72c-2.443-2.316-4.33-4.646-5.793-7.208
			c-1.013,7.142-4.507,14.732-13.938,24.006c-0.673,0.663-1.364,1.326-2.104,2.011c-0.774,0.726-0.997,1.889-0.915,3.438
			c0.205,3.908-0.056,5.194,3.685,5.632c0.411,0.051,0.822,0.068,1.233,0.068c0.961,0,1.921-0.1,2.882-0.125
			c1.035-0.044,2.06-0.054,3.1-0.054c0.773,0.09,1.39,0.235,1.723,0.561c0.79,0.757,0.468,1.228-0.12,1.488
			c-0.361,0.159-0.724,0.22-1.088,0.22c-0.268,0-0.535-0.032-0.804-0.083c-0.631-0.116-1.179-0.184-1.738-0.226
			c-0.899-0.066-1.826-0.097-2.764-0.097c-2.27,0-4.604,0.181-6.771,0.483c-0.502,0.074-1.041,0.144-1.537,0.144
			c-0.605,0-1.147-0.104-1.483-0.431c-0.919-0.888,0.648-1.824,1.051-2.397c1.004-1.405,0.137-4.274-0.931-5.406
			c-1.32-1.411-2.851-1.933-4.469-1.933c-1.147,0-2.339,0.263-3.53,0.657c-1.995,0.656-13.291,3.5-10.188,7.804
			c0.276,0.398,1.353,1.029,0.721,1.648C67.379,147.931,67,148,66.578,148c-0.229,0-0.472-0.021-0.711-0.048
			c-0.187,0.034-0.39,0.048-0.6,0.048c-0.406,0-0.84-0.052-1.251-0.109c-0.98-0.138-2.008-0.247-3.051-0.32
			c-0.668,0-1.323,0.021-1.969,0.063c-0.38,0.041-0.766,0.085-1.2,0.163c-0.189,0.036-0.377,0.061-0.565,0.061
			c-0.245,0-0.488-0.041-0.731-0.148c-0.095-0.054-0.179-0.107-0.252-0.159c-0.059,0.005-0.117,0.008-0.176,0.013
			c-0.466,0.029-0.937,0.093-1.459,0.19c-0.226,0.045-0.453,0.075-0.678,0.075c-0.3,0-0.599-0.053-0.895-0.194
			c-0.487-0.214-0.761-0.6-0.1-1.232c0.277-0.277,0.791-0.403,1.438-0.471c0.866,0,1.724,0.01,2.577,0.051
			c0.795,0.019,1.589,0.095,2.384,0.095c0.352,0,0.705-0.015,1.058-0.057c3.112-0.366,2.899-1.427,3.072-4.691
			c0.126-2.529-2.038-4.153-4.148-6.124c-4.808-4.499-9.101-12.161-9.996-18.438c-1.58,2.771-3.746,5.205-6.753,7.715
			c-2.18,1.818-4.338,3.267-6.648,4.897c-1.475,1.04-2.976,2.143-3.442,2.654c-1.504,1.791-2.355,2.874-3.563,4.886
			c-0.603,1.116-2.084,4.591-3.568,4.591c-0.417,0-0.835-0.275-1.233-0.955c-0.871-1.505,0.747-2.502,1.803-3.444
			c0.486-0.406,3.313-3.028,3.736-3.631c0.417-0.589,0.679-0.653,0.218-1.027c-0.049-0.042-0.123-0.061-0.216-0.061
			c-0.846,0-3.328,1.579-4.349,2.427c-0.829,0.682-1.915,1.776-3.078,1.776c-0.024,0-0.048,0-0.072-0.001
			c-1.208-0.063-1.772-1.85-1.285-2.847c0.673-1.39,6.896-2.021,7.773-2.236c1.187-0.386,2.112-1.211,2.294-1.734
			c0.083-0.233-0.015-0.514-0.359-0.887c-0.502-0.523-1.015-1.083-1.72-1.176c-2.998-0.408-3.525-1.909-3.094-2.842
			c0.342-0.749,1.449-1.145,2.274-1.145c0.08,0,0.156,0.003,0.229,0.011c1.688,0.139,0.31,3.745,4.571,4.569
			c0.261,0.051,0.498,0.074,0.714,0.074c0.687,0,1.186-0.234,1.709-0.582c0.413-0.274,0.843-0.621,1.391-0.979
			c1.662-1.113,3.453-2.316,4.871-3.704c2.896-2.835,4.815-6.529,6.002-9.933c3.231-6.824,2.301-5.678-2.08-6.7
			c-2.38,0.556-4.766,0.822-7.123,0.822c-13.508,0-25.993-8.783-30.079-22.382c-4.994-16.617,4.432-34.14,21.047-39.133
			c3.013-0.905,6.056-1.336,9.049-1.336c0.797,0,1.59,0.031,2.378,0.091c3.31,0.253,6.282,0.383,9.003,0.383
			c15.099,0,22.407-3.997,35.933-13.047C91.889,27.711,99.382,25.279,107.444,25.279 M107.444,23.279
			c-8.197,0-16.115,2.4-22.898,6.941c-13.498,9.031-20.426,12.709-34.82,12.709c-2.64,0-5.535-0.123-8.851-0.377
			c-0.839-0.064-1.69-0.097-2.531-0.097c-3.248,0-6.486,0.478-9.624,1.42c-8.548,2.569-15.584,8.313-19.813,16.175
			c-4.229,7.863-5.143,16.9-2.574,25.448c4.211,14.018,17.368,23.807,31.994,23.807c2.387,0,4.782-0.26,7.125-0.772
			c0.524,0.112,0.993,0.197,1.386,0.268c0.132,0.024,0.274,0.05,0.413,0.075c-0.362,0.987-1.114,2.576-1.529,3.452l-0.045,0.096
			l-0.035,0.102c-0.91,2.607-2.604,6.314-5.513,9.162c-1.294,1.267-3.042,2.438-4.584,3.472c-0.315,0.206-0.61,0.42-0.883,0.619
			c-0.175,0.128-0.339,0.248-0.5,0.355c-0.348,0.231-0.459,0.248-0.603,0.248c-0.093,0-0.205-0.013-0.333-0.038
			c-1.442-0.278-1.625-0.837-1.957-1.85c-0.275-0.84-0.848-2.586-2.831-2.749c-0.1-0.011-0.244-0.018-0.393-0.018
			c-1.462,0-3.366,0.724-4.093,2.313c-0.459,0.992-0.416,2.131,0.124,3.116c0.481,0.879,1.552,1.983,3.931,2.443
			c-0.19,0.032-0.492,0.078-0.748,0.117c-4.766,0.731-7.34,1.42-8.182,3.158c-0.579,1.185-0.487,2.746,0.236,3.973
			c0.618,1.05,1.619,1.686,2.745,1.743h0c-0.31,0.844-0.321,1.841,0.331,2.966c0.946,1.616,2.134,1.953,2.964,1.953
			c2.501,0,4.026-3.049,5.035-5.067c0.104-0.207,0.195-0.391,0.272-0.535c1.127-1.871,1.922-2.88,3.321-4.546
			c0.122-0.125,0.703-0.658,3.098-2.348c0.407-0.288,0.809-0.569,1.207-0.848c1.909-1.336,3.711-2.598,5.57-4.148
			c1.799-1.502,3.304-2.977,4.572-4.488c1.811,5.479,5.381,11.254,9.529,15.135c0.254,0.237,0.507,0.468,0.757,0.696
			c1.751,1.598,2.822,2.639,2.76,3.868c-0.013,0.253-0.025,0.499-0.036,0.731c-0.032,0.688-0.07,1.53-0.166,1.843
			c-0.116,0.05-0.417,0.149-1.106,0.23c-0.246,0.029-0.515,0.043-0.824,0.043c-0.396,0-0.808-0.022-1.243-0.046
			c-0.356-0.02-0.713-0.039-1.07-0.048c-0.97-0.046-1.923-0.052-2.647-0.052h-0.104l-0.104,0.011
			c-0.831,0.087-1.883,0.283-2.646,1.046c-0.973,0.931-1.052,1.884-0.94,2.513c0.088,0.498,0.416,1.41,1.62,1.951
			c0.534,0.25,1.115,0.377,1.729,0.377c0.336,0,0.686-0.037,1.07-0.114c0.29-0.054,0.558-0.095,0.813-0.122
			c0.443,0.176,0.917,0.266,1.413,0.266c0.298,0,0.607-0.031,0.944-0.097c0.329-0.06,0.646-0.097,0.992-0.134
			c0.569-0.036,1.149-0.055,1.728-0.057c0.953,0.068,1.909,0.17,2.842,0.301c0.452,0.063,0.988,0.129,1.53,0.129
			c0.226,0,0.437-0.011,0.638-0.033c0.249,0.022,0.467,0.033,0.673,0.033c1.007,0,1.816-0.279,2.405-0.831
			c0.549-0.537,0.833-1.194,0.829-1.881c-0.005-1.171-0.793-1.928-1.216-2.335c-0.037-0.035-0.072-0.067-0.104-0.1
			c-0.076-0.112-0.147-0.24-0.124-0.308c0.179-0.528,1.366-1.989,8.492-4.129c0.357-0.107,0.646-0.194,0.848-0.261
			c1.133-0.375,2.082-0.557,2.905-0.557c1.224,0,2.179,0.413,3.009,1.299c0.623,0.661,1.021,2.396,0.769,2.867
			c-0.06,0.065-0.137,0.136-0.216,0.212c-0.56,0.539-1.496,1.441-1.497,2.767c-0.001,0.751,0.317,1.473,0.895,2.03
			c0.685,0.666,1.626,0.992,2.873,0.992c0.62,0,1.245-0.079,1.828-0.165c2.161-0.302,4.406-0.462,6.479-0.462
			c0.909,0,1.789,0.03,2.617,0.091c0.522,0.04,0.993,0.101,1.522,0.198c0.414,0.078,0.798,0.116,1.166,0.116
			c0.67,0,1.308-0.131,1.895-0.39c1.306-0.579,1.653-1.544,1.745-2.068c0.115-0.66,0.027-1.664-1.048-2.694
			c-0.786-0.768-1.896-0.989-2.876-1.103l-0.114-0.014h-0.116c-0.929,0-2.032,0.007-3.185,0.056c-0.4,0.01-0.834,0.035-1.267,0.062
			c-0.535,0.032-1.04,0.062-1.53,0.062c-0.37,0-0.694-0.018-0.99-0.054c-1.354-0.158-1.598-0.386-1.607-0.396
			c-0.18-0.24-0.235-1.473-0.28-2.464c-0.013-0.281-0.026-0.578-0.043-0.892c-0.073-1.382,0.175-1.771,0.285-1.873
			c0.712-0.659,1.415-1.331,2.141-2.046c7.096-6.978,11.474-13.592,13.503-20.486c1.014,1.26,2.158,2.492,3.448,3.715
			c2.913,2.762,5.81,4.799,8.877,6.955c0.895,0.629,1.801,1.267,2.724,1.934c1.984,1.437,2.536,1.943,2.678,2.089
			c1.76,2.099,2.686,3.272,4.032,5.514c0.096,0.18,0.209,0.406,0.338,0.666c1.234,2.471,2.924,5.854,5.677,5.854
			c0.894,0,2.177-0.372,3.214-2.146c0.858-1.455,0.666-2.731,0.109-3.77c0.135,0.013,0.271,0.02,0.409,0.02
			c0.072,0,0.145-0.002,0.217-0.006c1.202-0.057,2.283-0.74,2.956-1.876c0.794-1.338,0.901-3.112,0.269-4.413
			c-0.94-1.914-3.941-2.699-9.515-3.558c-0.413-0.063-0.875-0.135-1.069-0.173c-0.32-0.111-0.6-0.258-0.825-0.403
			c0.125-0.113,0.239-0.202,0.312-0.228c3.167-0.42,4.529-1.771,5.111-2.828c0.592-1.076,0.642-2.32,0.138-3.415
			c-0.793-1.731-2.915-2.521-4.55-2.521c-0.158,0-0.311,0.007-0.456,0.021c-2.089,0.179-2.694,2.026-3.02,3.02
			c-0.417,1.272-0.692,2.113-2.661,2.499c-0.162,0.03-0.32,0.048-0.456,0.048c-0.129,0-0.238-0.016-0.342-0.047
			c-2.403-0.735-7.986-5.708-9.604-7.745c-0.915-1.153-1.779-2.46-2.568-3.882c-1.699-3.064-1.866-4.017-1.843-4.302
			c0.17-0.181,0.741-0.484,1.187-0.709c10.107-0.952,19.465-5.59,26.386-13.085c7.049-7.635,10.932-17.564,10.932-27.96
			C148.674,41.775,130.179,23.279,107.444,23.279L107.444,23.279z"/>
	</g>
</g>
<g id="Layer_1">
</g>
</svg>
