<?xml version="1.0" encoding="iso-8859-1"?>
<!-- Generator: Adobe Illustrator 16.0.0, SVG Export Plug-In . SVG Version: 6.00 Build 0)  -->
<!DOCTYPE svg PUBLIC "-//W3C//DTD SVG 1.1//EN" "http://www.w3.org/Graphics/SVG/1.1/DTD/svg11.dtd">
<svg version="1.1" xmlns="http://www.w3.org/2000/svg" xmlns:xlink="http://www.w3.org/1999/xlink" x="0px" y="0px" width="150px"
	 height="150px" viewBox="0 0 150 150" style="enable-background:new 0 0 150 150;" xml:space="preserve">
<g id="_x30_1_x5F_01">
	<rect style="fill:none;" width="150" height="150"/>
	<g>
		<g>
			<path style="fill-rule:evenodd;clip-rule:evenodd;fill:#E98B23;" d="M101.493,70.726c-3.911,0.816-8.241-0.662-11.966-5.699
				c-1.432-1.934-2.95-3.671-4.542-5.222c-13.194-12.846-31.213-12.472-43.682-1.623c-2.007,1.747-1.031,1.576-3.156,0.244
				c-0.659-0.415-1.274-0.717-1.856-0.904c-1.476-0.474-2.308-0.193-3.635,0.709c-1.403,0.938-2.922,2.356-4.554,2.842
				c-3.299,0.985-6.615,1.751-9.927,2.191c-1.505-4.763-2.165-9.688-1.583-14.755c0.317-2.802,0.924-5.601,1.335-8.396
				c0.222-1.583,0.472-2.745,2.107-3.875c5.376-3.747,7.823,1.533,9.753-0.135c0.959-0.829,1.903-2.631,1.417-3.898
				c-0.562-1.462-2.749-2.474-6.337,0.351c-0.838,0.661-1.997,0.624-3.08,0.617c-0.763-0.005-1.176-0.203-1.347-0.546
				c-0.364-0.746-0.282-2.61,0.553-4.293c0.688-1.183,6.539-8.577,5.758-10.755c-0.578-1.598-3.096-2.853-4.427-1.614
				c-1.318,1.221-1.268,3.629-1.408,5.269c-0.16,2.232-1.265,7.343-2.228,7.445c-0.906,0.097-0.698-0.247-0.897-1.333
				c-0.2-1.091-0.067-6.9-0.005-7.86c0.106-2.119,0.724-4.934-1.817-5.563c-5.274-1.313-1.856,6.668-1.112,9.02
				c0.907,3.414,1.165,5.473,1.527,8.987c0.072,1.217-0.469,4.831-0.968,7.89c-0.474,2.917-0.956,5.685-1.269,8.631
				c-0.577,5.498-0.539,10.134,0.247,14.412c0.195,1.06,0.297,1.659,0.146,2.73c-0.281,1.999,0.022,1.803,2.925,1.631
				c3.108-0.18,6.229-0.785,9.55-1.826c3.491-1.087,5.878-1.658,3.031,1.595c-13.118,14.972-15.745,53.231-3.515,65.262
				c0.887,0.867,1.812,1.751,2.778,2.646c1.022,0.95,1.317,2.496,1.208,4.544c-0.274,5.15,0.071,6.846-4.856,7.425
				c-1.818,0.214-3.618-0.023-5.44-0.085c-1.359-0.043-2.71-0.064-4.081-0.064c-1.019,0.123-1.831,0.311-2.278,0.737
				c-1.041,1.004-0.61,1.629,0.163,1.973c0.824,0.363,1.655,0.331,2.494,0.174c0.826-0.149,1.566-0.248,2.299-0.302
				c4.052-0.302,8.534-0.045,12.571,0.518c1.465,0.211,3.173,0.393,3.986-0.384c1.208-1.17-0.854-2.397-1.392-3.153
				c-1.32-1.861-0.173-5.645,1.232-7.137c1.512-1.618,6.874-1.906,12.783-1.634c10.524,0.48,17.411,0.935,28.104,1.321
				c3.617,0.131,26.566-1.012,33.321-1.321c5.91-0.272,11.271,0.016,12.783,1.634c1.404,1.492,2.553,5.275,1.233,7.137
				c-0.539,0.756-2.602,1.983-1.394,3.153c0.813,0.776,2.521,0.595,3.986,0.384c4.037-0.563,8.52-0.819,12.571-0.518
				c0.732,0.054,1.473,0.152,2.3,0.302c0.839,0.157,1.669,0.189,2.494-0.174c0.772-0.344,1.204-0.969,0.161-1.973
				c-0.447-0.427-1.259-0.614-2.277-0.737c-1.371,0-2.722,0.021-4.081,0.064c-1.822,0.062-3.62,0.299-5.439,0.085
				c-9.729-1.143-2.136-16.788-0.386-22.613c0.731-2.443,1.515-5.063,2.343-7.964c1.605-5.62,1.237-11.566-1.938-17.424
				c-5.005-9.243-26.305-26.897-12.485-24.35c4.224,0.78,8.138,1.068,11.969,0.836c3.591-0.224,3.988-0.032,3.348-2.442
				c-0.346-1.29-0.309-2.034-0.224-3.364c0.325-5.358-0.309-11.051-1.829-17.708c-0.812-3.555-1.808-6.874-2.825-10.387
				c-1.063-3.671-2.256-8.024-2.35-9.525c-0.08-4.361-0.059-6.919,0.552-11.241c0.563-2.992,3.573-13.276-2.706-10.895
				c-3.01,1.148-1.842,4.508-1.401,7.09c0.222,1.166,1.241,8.27,1.156,9.634c-0.089,1.361,0.219,1.752-0.902,1.768
				c-1.194,0.016-3.303-6.086-3.832-8.795c-0.409-1.992-0.702-4.948-2.497-6.255c-1.815-1.324-4.721,0.595-5.191,2.632
				c-0.639,2.786,7.626,10.992,8.642,12.34c1.279,1.937,1.647,4.207,1.313,5.177c-0.156,0.442-0.636,0.744-1.571,0.867
				c-1.32,0.173-2.739,0.381-3.864-0.299c-4.819-2.937-7.347-1.366-7.816,0.5c-0.411,1.627,1.008,3.694,2.307,4.567
				c2.614,1.769,4.827-5.067,11.975-1.276c2.168,1.153,2.646,2.538,3.158,4.442c0.911,3.367,2.069,6.713,2.878,10.096
				c1.458,6.125,1.373,12.26,0.235,18.316c-4.125-0.045-8.309-0.497-12.495-1.219c-2.07-0.36-4.145-1.862-5.999-2.819
				c-1.762-0.908-2.816-1.124-4.561-0.323c-1.486,0.679-3.112,2.068-4.902,4.08c-0.119,0.133-0.241,0.264-0.365,0.391V70.726z"/>
			<path style="fill-rule:evenodd;clip-rule:evenodd;fill:#FFFFFF;" d="M82.631,99.461c9.657-11.899,7.836-29.369-4.06-39.023
				c-11.901-9.652-29.372-7.83-39.021,4.067c-9.652,11.891-7.834,29.368,4.062,39.025C55.512,113.177,72.98,111.355,82.631,99.461z"
				/>
			<path style="fill-rule:evenodd;clip-rule:evenodd;" d="M71.661,77.916c1.699-2.099,1.386-5.183-0.717-6.885
				c-2.1-1.702-5.18-1.382-6.88,0.717c-1.705,2.099-1.384,5.183,0.712,6.883C66.875,80.332,69.959,80.012,71.661,77.916z"/>
		</g>
		<g>
			<path style="fill-rule:evenodd;clip-rule:evenodd;" d="M122.231,106.427c2.075,4.753,1.479,9.764-0.749,14.346
				c-2.144,4.416-5.521,7.839-10.324,9.2c-8.052,2.28-15.239-1.212-18.422-8.955c-1.899-4.613-1.296-9.387,0.851-13.803
				c2.225-4.582,5.803-8.146,10.819-9.451C112.099,95.761,119.051,99.139,122.231,106.427z"/>
			<polygon style="fill-rule:evenodd;clip-rule:evenodd;fill:#FFFFFF;" points="113.609,97.542 112.601,101.779 116.723,99.179 			
				"/>
			<polygon style="fill-rule:evenodd;clip-rule:evenodd;fill:#FFFFFF;" points="120.371,102.211 117.139,107.156 122.813,106.259 
							"/>
			<polygon style="fill-rule:evenodd;clip-rule:evenodd;fill:#FFFFFF;" points="115.812,129.103 113.249,124.308 119.004,125.861 
							"/>
			<polygon style="fill-rule:evenodd;clip-rule:evenodd;fill:#FFFFFF;" points="94.672,103.744 100.755,108.251 98.767,100.15 			
				"/>
			<polygon style="fill-rule:evenodd;clip-rule:evenodd;fill:#FFFFFF;" points="92.903,121.859 98.692,121.154 95.748,125.789 			
				"/>
			<polygon style="fill-rule:evenodd;clip-rule:evenodd;fill:#FFFFFF;" points="99.393,128.693 102.021,127.329 102.335,130.307 			
				"/>
			<path style="fill-rule:evenodd;clip-rule:evenodd;fill:#E98B23;" d="M122.231,106.427c-3.181-7.288-10.133-10.666-17.825-8.663
				c-5.02,1.306-8.595,4.869-10.819,9.451c-2.146,4.419-2.75,9.189-0.851,13.803c3.183,7.743,10.367,11.235,18.422,8.955
				c4.804-1.361,8.18-4.781,10.324-9.2C123.71,116.19,124.307,111.18,122.231,106.427L122.231,106.427L122.231,106.427z
				 M123.537,105.854c2.247,5.142,1.637,10.583-0.771,15.541c-2.322,4.784-6.021,8.479-11.219,9.948
				c-9.125,2.587-16.526-1.01-20.131-9.783c-2.057-4.998-1.438-10.186,0.888-14.967c2.41-4.958,6.316-8.797,11.741-10.21
				c8.684-2.261,15.903,1.247,19.491,9.473V105.854z"/>
		</g>
	</g>
</g>
<g id="Layer_1">
</g>
</svg>
