<?xml version="1.0" encoding="iso-8859-1"?>
<!-- Generator: Adobe Illustrator 16.0.0, SVG Export Plug-In . SVG Version: 6.00 Build 0)  -->
<!DOCTYPE svg PUBLIC "-//W3C//DTD SVG 1.1//EN" "http://www.w3.org/Graphics/SVG/1.1/DTD/svg11.dtd">
<svg version="1.1" xmlns="http://www.w3.org/2000/svg" xmlns:xlink="http://www.w3.org/1999/xlink" x="0px" y="0px" width="150px"
	 height="150px" viewBox="0 0 150 150" style="enable-background:new 0 0 150 150;" xml:space="preserve">
<g id="_x30_1_x5F_05">
	<rect style="fill:none;" width="150" height="150"/>
	<g>
		<g>
			<path style="fill-rule:evenodd;clip-rule:evenodd;fill:#ECC91A;" d="M54.083,87.455c0.412-0.258,0.823-0.494,1.236-0.715
				c2.186-1.159,1.372-1.15-0.065-3.172c-2.626-3.703-5.095-6.545-7.908-8.829c-4.591-3.733-10.322-6.152-19.455-8.624
				c-2.527-0.685-1.451-0.398-3.313,0.922c-2.281,1.621-5.454,1.585-7.716-0.279c-2.709-2.231-3.096-6.237-0.865-8.943
				c2.23-2.711,6.238-3.098,8.945-0.865c0.666,0.55,1.193,1.207,1.574,1.925c1.154,2.181,0.515,1.955,3.161,2.683
				c9.522,2.614,15.634,5.261,20.746,9.414c3.473,2.822,6.382,6.255,9.508,10.78c0.694,1.006,1.376,2.99,2.629,2.908
				c2.527-0.164,1.969-0.114,0.986-2.531c-1.02-2.508-2.069-4.645-3.289-6.712c-0.605-1.023-1.255-2.038-1.97-3.075
				c-2.249-3.272-2.317-4.287-5.914-4.596c-1.489-0.127-2.939-0.779-4.052-1.943c-2.42-2.542-2.327-6.562,0.212-8.985
				s6.561-2.33,8.985,0.211c1.405,1.473,1.964,3.445,1.685,5.316c-0.496,3.388,0.438,3.452,2.569,6.473
				c0.979,1.389,1.858,2.731,2.668,4.107c1.808,3.059,3.258,6.215,4.728,10.266c0.487,1.342,0.361,2.186,1.738,2.621
				c0.403,0.126,0.807,0.262,1.208,0.406c2.738,0.977,1.444-1.124,1.245-3.458c-0.347-4.103-0.698-6.57-1.411-8.568
				c-0.85-2.386-2.39-4.46-5.243-8.316c-0.461-0.625-0.956-1.293-2.322-3.164c-4.054-5.563-3.549-9.69-3.098-13.355
				c0.23-1.883,0.44-3.591-0.733-5.408c-1.244-1.933-1.207-1.332-2.977-0.768c-3.344,1.066-6.919-0.785-7.983-4.125
				c-1.065-3.344,0.786-6.92,4.128-7.984c3.344-1.064,6.916,0.783,7.98,4.127c0.999,3.132,0.723,2.774,2.85,5.562
				c2.315,3.041,1.959,5.944,1.562,9.179c-0.34,2.777-0.722,5.899,2.207,9.918c0.341,0.466,1.384,1.875,2.311,3.126
				c3.12,4.216,4.799,6.484,5.904,9.589c1.044,2.925,1.42,6.251,1.883,12.403c0.051,0.694,0.254,0.646,0.44,0.675l9.906-2.372
				c4.298-2.919,0.712-6.8-0.325-12.402c-2.172-11.789,6.456-14.636,13.392-21.717c2.883-2.94,4.288-6.245,7.214-8.617
				c5.538-4.498,13.676-3.649,18.166,1.89c4.495,5.546,3.649,13.676-1.89,18.171c-5.538,4.5-13.678,3.649-18.172-1.896
				c-2.53-3.116-4.062-2.67-8.345-0.861c-5.712,2.41-6.48,7.557-4.734,13.366c4.974,16.53,16.88,18.603,24.345,40.659
				c1.643,4.85,4.662,10.347,9.666,13.553c0.387,0.242,0.691,0.468,0.956,0.652c0-0.002,0.85,0.639,1.297,0.931
				c1.593,1.039,2.248,1.985,4.138,1.623c4.629-0.899,3.129-4.808,4.96-4.967c0.91-0.077,2.311,0.341,2.72,1.226
				c0.47,1.022-0.104,2.658-3.356,3.094c-0.764,0.101-1.328,0.715-1.865,1.277c-0.377,0.398-0.484,0.71-0.392,0.968
				c0.202,0.56,1.2,1.455,2.489,1.865c0.95,0.24,7.699,0.933,8.433,2.428c0.529,1.098-0.082,3.028-1.392,3.093
				c-1.29,0.063-2.503-1.169-3.421-1.921c-1.232-1.034-4.422-3.026-4.953-2.578c-0.502,0.416-0.222,0.48,0.238,1.129
				s3.524,3.492,4.046,3.945c1.146,1.007,2.907,2.099,1.961,3.724c-1.972,3.376-4.372-2.384-5.212-3.949
				c-1.306-2.179-2.232-3.348-3.865-5.297c-0.979-1.068-6.185-4.565-7.222-5.306l0,0l-0.009-0.01l-0.007-0.006l-0.005-0.003
				c-0.055-0.036-0.098-0.068-0.123-0.091h-0.003v-0.003l-0.177-0.126c-5.1-3.724-8.474-7.062-10.728-11.02
				c-0.921,6.46-4.085,13.33-12.615,21.722c-0.605,0.598-1.242,1.201-1.903,1.815c-0.703,0.65-0.905,1.715-0.83,3.119
				c0.188,3.535-0.047,4.699,3.333,5.095c1.243,0.145,2.481-0.015,3.732-0.056c0.929-0.035,1.858-0.053,2.799-0.053
				c0.699,0.091,1.255,0.219,1.562,0.513c0.714,0.685,0.416,1.112-0.113,1.35c-0.565,0.251-1.132,0.228-1.706,0.122
				c-0.572-0.106-1.077-0.174-1.579-0.206c-2.781-0.212-5.856-0.037-8.628,0.355c-1.005,0.141-2.18,0.267-2.735-0.271
				c-0.828-0.801,0.587-1.641,0.959-2.163c0.903-1.273,0.117-3.865-0.845-4.892c-1.85-1.971-4.593-0.033-7.791-0.048
				c-5.889-0.027-31.482-0.023-36.631,0c-3.198,0.015-5.943-1.923-7.792,0.048c-0.96,1.026-1.747,3.618-0.844,4.892
				c0.372,0.522,1.788,1.362,0.958,2.163c-0.555,0.538-1.729,0.412-2.733,0.271c-2.772-0.393-5.848-0.567-8.629-0.355
				c-0.502,0.032-1.007,0.1-1.578,0.206c-0.574,0.105-1.142,0.129-1.707-0.122c-0.53-0.237-0.827-0.665-0.113-1.35
				c0.308-0.294,0.863-0.422,1.562-0.513c0.94,0,1.871,0.018,2.799,0.053c1.251,0.041,2.49,0.2,3.732,0.056
				c3.38-0.396,3.146-1.56,3.333-5.095c0.076-1.404-0.127-2.469-0.829-3.119c-5.678-5.271-4.406-9.748-5.597-18.146
				c-2.247,3.941-5.607,7.264-10.688,10.973l-0.173,0.129h-0.003c-0.026,0.022-0.069,0.053-0.125,0.094l-0.004,0.001l-0.006,0.005
				l-0.011,0.007c-1.033,0.737-6.216,4.222-7.192,5.287c-1.626,1.94-2.548,3.103-3.849,5.272c-0.835,1.556-3.226,7.296-5.19,3.935
				c-0.942-1.615,0.811-2.708,1.95-3.71c0.523-0.451,3.573-3.28,4.033-3.925c0.459-0.651,0.738-0.713,0.238-1.131
				c-0.534-0.441-3.708,1.545-4.933,2.572c-0.913,0.751-2.121,1.976-3.409,1.913c-1.304-0.064-1.914-1.992-1.385-3.081
				c0.729-1.49,7.45-2.179,8.399-2.419c1.282-0.408,2.279-1.298,2.478-1.856c0.092-0.256-0.013-0.565-0.389-0.963
				c-0.536-0.561-1.097-1.172-1.856-1.273c-3.243-0.432-3.811-2.063-3.343-3.077c0.405-0.885,1.8-1.298,2.706-1.221
				c1.822,0.155,0.333,4.05,4.939,4.942c1.882,0.363,2.536-0.581,4.126-1.616c0.442-0.291,1.285-0.929,1.285-0.929
				c0.266-0.18,0.568-0.402,0.951-0.647c4.096-2.622,7.839-7.946,9.925-13.419c0.836-2.192,1.673-4.253,2.511-6.186
				c2.873-6.631,5.49-7.272-1.449-11.407c-2.229-1.33-4.798-2.254-8.202-2.023c-2.067,0.142-4.176,0.637-6.251,1.446
				c-3.74,1.457-3.003,1.219-3.615,4.446c-0.655,3.448-3.979,5.714-7.428,5.059c-3.447-0.654-5.713-3.98-5.057-7.425
				c0.651-3.449,3.98-5.714,7.428-5.06c3.199,0.606,3.082,0.037,6.324-1.31c2.723-1.132,5.521-1.822,8.277-2.011
				c3.697-0.254,6.971,1.306,10.051,3.174c4.805,2.916,4.689,4.898,7.987,0.258c0.636-0.896,1.272-1.735,1.911-2.516L54.083,87.455z
				"/>
			<path style="fill-rule:evenodd;clip-rule:evenodd;fill:#FFFFFF;" d="M113.138,48.755c0.699,0.86,1.955,0.989,2.813,0.294
				c0.866-0.695,0.99-1.96,0.295-2.816c-0.691-0.86-1.952-0.992-2.812-0.293C112.566,46.634,112.441,47.894,113.138,48.755
				L113.138,48.755z M108.646,57.571c-3.945-4.867-3.199-12.023,1.667-15.971c4.867-3.949,12.021-3.207,15.968,1.666
				c3.954,4.873,3.208,12.022-1.659,15.97C119.752,63.192,112.6,62.443,108.646,57.571L108.646,57.571z"/>
			<path style="fill-rule:evenodd;clip-rule:evenodd;" d="M113.138,48.755c-0.697-0.862-0.57-2.122,0.296-2.815
				c0.859-0.699,2.12-0.567,2.812,0.293c0.695,0.856,0.571,2.121-0.295,2.816C115.092,49.745,113.838,49.615,113.138,48.755z"/>
			<circle style="fill-rule:evenodd;clip-rule:evenodd;fill:#FFFFFF;" cx="20.792" cy="61.715" r="5.35"/>
			<circle style="fill-rule:evenodd;clip-rule:evenodd;fill:#FFFFFF;" cx="52.825" cy="61.462" r="5.351"/>
			<circle style="fill-rule:evenodd;clip-rule:evenodd;fill:#FFFFFF;" cx="55.448" cy="37.171" r="5.351"/>
			<circle style="fill-rule:evenodd;clip-rule:evenodd;" cx="54.365" cy="37.274" r="1.8"/>
			<circle style="fill-rule:evenodd;clip-rule:evenodd;" cx="52.288" cy="64.33" r="1.801"/>
			<circle style="fill-rule:evenodd;clip-rule:evenodd;" cx="20.845" cy="63.918" r="1.801"/>
			<circle style="fill-rule:evenodd;clip-rule:evenodd;fill:#FFFFFF;" cx="11.38" cy="102.425" r="5.352"/>
			<circle style="fill-rule:evenodd;clip-rule:evenodd;" cx="10.559" cy="104.892" r="1.801"/>
		</g>
		<path style="fill-rule:evenodd;clip-rule:evenodd;" d="M50.443,108.563c-1.17,1.9-1.716,3.795-1.756,5.642
			c-0.079,3.247,1.382,6.349,3.649,9.153c3.386,4.179,8.396,7.095,12.832,8.01c3.802,0.776,7.872,0.713,11.858,0.534
			c3.649-0.164,6.595-0.644,9.366-1.602c2.691-0.927,5.211-2.317,8.047-4.293c2.561-1.937,4.568-4.089,5.966-6.561
			c1.586-2.794,2.377-5.999,2.301-9.732c-0.037-1.893-0.52-3.482-1.647-4.524c-2.81-2.605-6.962-4.408-11.731-5.14
			c-4.773-0.73-10.081-0.818-15.083-0.471c-5.806,0.397-11.2,1.365-14.88,2.561C55.549,103.367,52.336,105.496,50.443,108.563z"/>
		<path style="fill-rule:evenodd;clip-rule:evenodd;fill:#FFFFFF;" d="M97.065,99.977l-4.941,0.194l0.181,4.577
			c0.048,1.093,0.971,1.947,2.057,1.902l0.986-0.038c1.098-0.039,1.947-0.97,1.904-2.055L97.065,99.977z"/>
		<path style="fill-rule:evenodd;clip-rule:evenodd;fill:#FFFFFF;" d="M78.254,98.049l-4.939,0.201l0.188,4.58
			c0.041,1.086,0.968,1.941,2.048,1.902l0.992-0.047c1.087-0.045,1.939-0.965,1.902-2.055L78.254,98.049z"/>
		<path style="fill-rule:evenodd;clip-rule:evenodd;fill:#FFFFFF;" d="M69.738,98.935l-4.936,0.193l0.181,4.59
			c0.043,1.082,0.964,1.937,2.053,1.887l0.99-0.035c1.089-0.04,1.945-0.972,1.901-2.054L69.738,98.935z"/>
		<path style="fill-rule:evenodd;clip-rule:evenodd;fill:#FFFFFF;" d="M55.035,104.61l-4.939,0.196l0.182,4.587
			c0.049,1.087,0.969,1.933,2.057,1.894l0.989-0.04c1.088-0.039,1.937-0.965,1.901-2.048L55.035,104.61z"/>
		<path style="fill-rule:evenodd;clip-rule:evenodd;fill:#FFFFFF;" d="M59.571,130.614l-4.948,0.19l-0.176-4.577
			c-0.044-1.092,0.804-2.008,1.893-2.059l0.987-0.04c1.091-0.043,2.018,0.818,2.058,1.902L59.571,130.614z"/>
		<path style="fill-rule:evenodd;clip-rule:evenodd;fill:#FFFFFF;" d="M66.617,132.656l-4.941,0.194l-0.188-4.59
			c-0.04-1.08,0.818-2.001,1.9-2.05l0.991-0.037c1.087-0.046,2.014,0.813,2.057,1.904L66.617,132.656z"/>
		<path style="fill-rule:evenodd;clip-rule:evenodd;fill:#FFFFFF;" d="M94.394,128.908l-4.938,0.2l-0.181-4.582
			c-0.048-1.09,0.808-2.017,1.897-2.06l0.986-0.041c1.086-0.038,2.021,0.817,2.057,1.902L94.394,128.908z"/>
		<path style="fill-rule:evenodd;clip-rule:evenodd;fill:#FFFFFF;" d="M100.286,123.789l-4.938,0.194l-0.182-4.581
			c-0.049-1.089,0.81-2.014,1.896-2.057l0.992-0.037c1.083-0.046,2.011,0.808,2.048,1.898L100.286,123.789z"/>
		<path style="fill-rule:evenodd;clip-rule:evenodd;fill:#ECC91A;" d="M50.718,108.642c-1.159,1.885-1.69,3.759-1.73,5.577
			c-0.073,3.212,1.36,6.283,3.587,9.048c3.307,4.135,8.23,7.029,12.579,7.93c3.717,0.768,7.711,0.705,11.626,0.525
			c3.583-0.153,6.471-0.628,9.182-1.572c2.637-0.916,5.112-2.288,7.881-4.247c2.516-1.909,4.484-4.038,5.854-6.481
			c1.545-2.763,2.329-5.93,2.254-9.626c-0.041-1.866-0.518-3.445-1.621-4.473c-2.746-2.58-6.832-4.351-11.504-5.077
			c-4.678-0.731-9.877-0.812-14.79-0.474c-5.686,0.39-10.971,1.348-14.586,2.522C55.717,103.51,52.566,105.617,50.718,108.642
			L50.718,108.642L50.718,108.642z M77.02,137.097c-4.326,0.195-8.694,0.244-12.954-0.633c-5.996-1.244-11.87-5.068-15.685-9.82
			c-2.877-3.582-4.876-7.882-4.768-12.543c0.07-2.965,0.972-5.749,2.515-8.266c2.635-4.302,6.925-7.112,11.658-8.655
			c4.945-1.611,10.71-2.417,15.887-2.773c5.265-0.365,10.759-0.29,15.978,0.521c5.194,0.8,10.48,2.838,14.359,6.472
			c2.312,2.176,3.257,5.184,3.317,8.289c0.085,4.365-0.8,8.547-2.941,12.363c-1.812,3.231-4.345,5.9-7.277,8.13l-0.077,0.064
			l-0.087,0.054c-2.878,2.04-5.869,3.764-9.21,4.927c-3.489,1.218-7.041,1.711-10.712,1.871H77.02z"/>
	</g>
</g>
<g id="Layer_1">
</g>
</svg>
