<?xml version="1.0" encoding="iso-8859-1"?>
<!-- Generator: Adobe Illustrator 16.0.0, SVG Export Plug-In . SVG Version: 6.00 Build 0)  -->
<!DOCTYPE svg PUBLIC "-//W3C//DTD SVG 1.1//EN" "http://www.w3.org/Graphics/SVG/1.1/DTD/svg11.dtd">
<svg version="1.1" xmlns="http://www.w3.org/2000/svg" xmlns:xlink="http://www.w3.org/1999/xlink" x="0px" y="0px" width="150px"
	 height="150px" viewBox="0 0 150 150" style="enable-background:new 0 0 150 150;" xml:space="preserve">
<g id="_x30_2_x5F_04_x5F_black">
	<rect style="fill:none;" width="150" height="150"/>
	<g>
		<path d="M99.993,149c-0.939,0-1.628-0.222-2.104-0.678c-0.477-0.459-0.575-0.946-0.574-1.274c0.001-0.872,0.662-1.504,1.144-1.965
			c0.119-0.113,0.232-0.211,0.298-0.301c0.681-1.369,0.027-13.397-1.831-22.295l-0.209-1.004c-0.979-4.718-1.166-5.118-2.515-5.36
			c-1.119-0.201-3.193-0.304-6.165-0.304c-3.372,0-7.353,0.129-10.55,0.233c-2.223,0.072-4.142,0.135-5.276,0.135
			c-0.558,0-1.054-0.009-1.495-0.017c-0.344-0.006-0.654-0.012-0.936-0.012c-1.861,0-1.861,0-2.893,3.925
			c-2.26,8.586-3.117,23.249-2.37,24.737c0.04,0.051,0.153,0.148,0.271,0.262c0.482,0.461,1.143,1.093,1.145,1.965
			c0,0.328-0.098,0.815-0.571,1.271c-0.482,0.46-1.17,0.681-2.107,0.681c-0.53,0-1.07-0.067-1.536-0.13
			c-2.125-0.297-4.286-0.453-6.25-0.453c-0.851,0-1.675,0.028-2.45,0.086c-0.533,0.049-1.023,0.113-1.529,0.202
			c-0.348,0.065-0.652,0.097-0.947,0.097c-0.508,0-0.966-0.095-1.401-0.29c-0.804-0.367-1.052-0.906-1.119-1.295
			c-0.102-0.591,0.139-1.174,0.716-1.732c0.523-0.502,1.252-0.683,2.187-0.799l0.062-0.008h0.062c0.979,0,1.949,0.018,2.921,0.05
			c0.373,0.012,0.744,0.034,1.115,0.057c0.516,0.031,1.03,0.063,1.544,0.063c0.383,0,0.722-0.018,1.038-0.056
			c2.376-0.276,2.387-0.52,2.52-3.493l0.039-0.821c0.012-0.244,0.045-3.087,0.08-6.098c0.064-5.537,0.151-13.121,0.221-14.796
			c0.054-1.281,0.022-2.735-0.092-4.324c-0.134-2.451-0.694-4.948-1.763-7.876c-0.631-1.729-1.38-3.454-2.105-5.122
			c-2.673-6.152-5.427-12.49-2.969-20.506c-0.782,0.853-1.657,1.922-2.52,2.975c-2.749,3.357-6.514,7.955-11.612,11.673L38.94,96.8
			l-0.263,0.19h-0.013c-0.384,0.271-0.952,0.662-1.637,1.136c-3.008,2.077-9.268,6.4-10.556,7.804
			c-2.893,3.465-4.404,5.382-6.605,9.055c-0.137,0.258-0.331,0.649-0.554,1.099c-2.034,4.091-4.252,8.085-7.04,8.085
			c-1.229,0-2.308-0.778-3.206-2.313c-1.854-3.175,0.944-5.504,2.796-7.046c0.283-0.234,0.56-0.465,0.818-0.693
			c1.03-0.889,6.189-5.691,6.89-6.687c0.106-0.148,0.206-0.28,0.298-0.398c-1.611,0.514-5.193,2.71-7.043,4.26
			c-0.229,0.188-0.46,0.386-0.701,0.591c-1.559,1.332-3.498,2.988-5.736,2.988c-0.072,0-0.144-0.002-0.215-0.005
			c-1.194-0.058-2.235-0.736-2.932-1.912c-0.881-1.488-1.02-3.505-0.337-4.904c1.031-2.115,5.848-3.257,13.287-4.413
			c0.941-0.146,1.754-0.272,2.051-0.348c1.991-0.637,3.433-2.042,3.632-2.612l0,0c0,0-0.022-0.21-0.455-0.66l-0.11-0.114
			c-0.831-0.869-1.617-1.69-2.538-1.809c-4.134-0.556-5.808-2.14-6.486-3.37c-0.597-1.085-0.652-2.334-0.15-3.426
			c0.825-1.796,3.271-2.735,5.261-2.735c0.163,0,0.322,0.006,0.473,0.02c1.906,0.164,2.449,1.828,2.928,3.295
			c0.692,2.12,1.476,4.523,5.812,5.362c0.423,0.082,0.801,0.121,1.158,0.121c1.416,0,2.32-0.66,3.689-1.66
			c0.491-0.358,1.021-0.745,1.626-1.14c0.593-0.389,1.643-1.17,2.039-1.464c0.066-0.05,0.128-0.096,0.189-0.136l-0.001-0.003
			l0.267-0.188c0.406-0.286,0.867-0.61,1.419-0.971c6.7-4.279,13.198-13.082,16.968-22.979c4.727-12.393,9.671-22.842,14.697-31.06
			c0.892-1.46,0.503-2.153,0.375-2.381c-1.066-1.901-6.153-2.751-10.721-2.751c-0.862,0-1.669,0.032-2.274,0.09
			c-3.484,0.34-7.04,1.268-10.565,2.757c-4.863,2.048-4.863,2.048-5.185,4.788c-0.077,0.658-0.17,1.444-0.323,2.401
			c-0.958,5.9-5.982,10.18-11.946,10.18c-0.647,0-1.302-0.053-1.946-0.157c-6.591-1.064-11.087-7.294-10.024-13.888
			c0.947-5.899,5.971-10.181,11.945-10.181c0.646,0,1.3,0.053,1.943,0.156c0.596,0.096,1.288,0.145,2.057,0.145
			c3.618,0,8.475-1.043,13.172-2.051c3.545-0.761,6.895-1.48,9.64-1.745c1.833-0.175,3.529-0.348,5.1-0.507
			c4.632-0.47,8.291-0.842,11.056-0.842c5.789,0,8.167,1.699,9.089,6.491c0.581,3.02,0.578,7.23,0.574,13.604v0.166
			c-0.005,3.157,0.943,5.852,2.743,7.792c1.586,1.711,3.018,2.579,4.255,2.578c2.769,0,4.984-4.356,7.127-8.568l0.085-0.167
			c1.005-1.965,1.332-5.274,1.491-7.592c0.39-5.69-0.06-6.001-1.393-6.924c-1.112-0.77-2.793-1.933-4.859-5.43
			c-3.767-6.381-1.638-14.639,4.747-18.409c2.068-1.222,4.426-1.868,6.816-1.868c4.74,0,9.183,2.536,11.595,6.617
			c2.752,4.654,2.444,10.477-0.782,14.833c-2.13,2.879-4.271,3.765-5.992,4.476c-2.314,0.958-3.711,1.535-4.073,6.963
			c-0.346,5.086-2.864,9.41-4.702,12.567c-1.157,1.986-2.353,4.041-1.959,4.726c0.144,0.25,0.837,0.831,4.159,0.831
			c3.968-0.015,6.258-0.521,7.082-1.551c0.778-0.97,0.391-2.736-0.1-4.973c-0.605-2.76-1.359-6.195-0.323-10.048
			c1.415-5.298,4.801-9.755,9.534-12.548c3.209-1.896,6.866-2.898,10.575-2.898c7.355,0,14.242,3.931,17.974,10.258
			c2.832,4.792,3.627,10.402,2.238,15.796c-1.39,5.395-4.796,9.923-9.592,12.751c-2.475,1.462-5.769,2.172-10.069,2.172
			c-4.525,0-9.572-0.773-14.452-1.521c-2.563-0.393-4.981-0.764-7.312-1.026c-0.415-0.044-0.952-0.131-1.554-0.23
			c-0.446-0.073-0.932-0.153-1.432-0.224c-0.644-0.09-1.216-0.136-1.698-0.136c-1.125,0-1.387,0.247-1.389,0.249
			c-0.039,0.617,2.479,3.057,5.204,3.633c1.962,0.415,3.482,0.828,4.824,1.191c2.477,0.672,4.265,1.157,7.057,1.157
			c1.448,0,3.143-0.132,5.183-0.404c0.693-0.092,1.4-0.139,2.102-0.139c5.636,0,10.909,3.008,13.763,7.85
			c2.167,3.67,2.775,7.965,1.712,12.094c-1.063,4.128-3.67,7.596-7.34,9.764c-2.459,1.449-5.259,2.215-8.098,2.215
			c-5.628,0-10.899-3.007-13.759-7.849c-2.415-4.094-1.789-7.932-1.287-11.016c0.527-3.235,0.736-5.144-1.1-6.766
			c-2.766-2.442-3.79-2.735-4.08-2.756c-0.31,0.622,0.125,3.171,0.388,4.715c0.146,0.854,0.294,1.726,0.402,2.56
			c0.331,2.522,0.489,5.05,0.472,7.511c-0.032,3.547,1.494,7.389,3.061,11.021c2.688,6.209,6.023,9.269,10.877,12.453
			c0.362,0.236,0.682,0.469,0.978,0.685c0.863,0.632,1.274,0.91,1.957,0.91c0.183,0,0.386-0.021,0.606-0.063
			c2.33-0.451,2.74-1.699,3.137-2.906c0.293-0.893,0.694-2.114,2.096-2.228c0.097-0.009,0.211-0.014,0.329-0.014
			c1.261,0,2.883,0.581,3.464,1.858c0.351,0.759,0.313,1.633-0.104,2.391c-0.447,0.813-1.529,1.854-4.145,2.2
			c-0.414,0.057-0.834,0.502-1.278,0.974c-0.065,0.066-0.112,0.119-0.146,0.16c0.245,0.309,0.9,0.868,1.845,1.177
			c0.112,0.024,0.521,0.085,1.063,0.168c4.688,0.722,7.537,1.419,8.229,2.846c0.467,0.955,0.384,2.275-0.208,3.282
			c-0.477,0.811-1.231,1.302-2.071,1.347l-0.151,0.003c-1.471,0-2.679-1.032-3.65-1.862c-0.143-0.122-0.281-0.24-0.412-0.348
			c-0.544-0.457-1.317-0.987-2.063-1.442c0.991,0.961,2.22,2.105,2.663,2.495c0.145,0.126,0.302,0.255,0.462,0.388
			c1.141,0.941,3.049,2.517,1.764,4.705c-0.608,1.043-1.365,1.573-2.249,1.573c-1.879,0-3.268-2.473-4.528-5.004
			c-0.133-0.267-0.248-0.499-0.343-0.677c-1.274-2.121-2.162-3.245-3.878-5.296c-0.435-0.476-2.185-1.783-5.173-3.855l-0.29-0.201
			c-1.242-0.86-2.314-1.604-3.54-2.54c-3.771-2.878-6.48-5.535-8.497-8.364c-0.107,0.68-0.22,1.37-0.333,2.07
			c-0.821,5.07-1.752,10.817-1.56,15.391c0.07,1.698,0.159,9.398,0.224,15.021c0.034,2.902,0.065,5.644,0.077,5.873l0.038,0.813
			c0.133,2.981,0.144,3.226,2.52,3.502c0.317,0.038,0.657,0.056,1.04,0.056c0.515,0,1.029-0.032,1.545-0.063
			c0.37-0.022,0.74-0.045,1.112-0.057c0.975-0.032,1.944-0.05,2.922-0.05h0.063l0.062,0.008c0.936,0.116,1.665,0.297,2.185,0.798
			c0.579,0.56,0.82,1.143,0.718,1.733c-0.066,0.388-0.313,0.928-1.113,1.292c-0.439,0.198-0.897,0.293-1.404,0.293
			c-0.295,0-0.6-0.031-0.957-0.099c-0.5-0.087-0.993-0.152-1.538-0.201c-0.758-0.057-1.582-0.085-2.433-0.085
			c-1.964,0-4.123,0.156-6.243,0.452C101.066,148.933,100.524,149,99.993,149z"/>
		<path style="fill:#FFFFFF;" d="M101.641,6.446c4.258,0,8.408,2.19,10.733,6.125c2.619,4.43,2.162,9.832-0.725,13.729
			c-4.857,6.566-9.582,1.812-10.26,11.968c-0.799,11.751-13.726,19.19-1.504,19.19c0.027,0,0.056,0,0.084,0
			c15.01-0.056,4.859-7.341,7.541-17.312c1.293-4.841,4.418-9.197,9.076-11.946c3.165-1.87,6.639-2.76,10.067-2.76
			c6.793,0,13.412,3.491,17.112,9.766c5.576,9.434,2.439,21.612-7,27.178c-2.55,1.506-5.868,2.034-9.562,2.034
			c-6.758,0-14.774-1.766-21.651-2.542c-0.725-0.077-1.801-0.286-2.957-0.45c-0.714-0.1-1.324-0.146-1.839-0.146
			c-5.388,0-0.43,5.006,3.608,5.86c5.606,1.185,7.622,2.37,12.088,2.37c1.446,0,3.149-0.125,5.314-0.413
			c0.656-0.087,1.313-0.13,1.97-0.13c5.123,0,10.114,2.628,12.901,7.357c4.201,7.113,1.838,16.287-5.275,20.488
			c-2.388,1.407-5.004,2.076-7.589,2.076c-5.119,0-10.105-2.629-12.897-7.357c-4.416-7.484,2.141-13.847-2.586-18.022
			c-2.437-2.151-3.918-3.008-4.778-3.008c-1.996,0-0.66,4.608-0.165,8.405c0.322,2.461,0.48,4.934,0.463,7.375
			c-0.035,3.826,1.627,7.91,3.143,11.424c2.66,6.145,5.928,9.402,11.246,12.893c1.406,0.918,2.104,1.759,3.483,1.759
			c0.241,0,0.504-0.025,0.794-0.081c4.775-0.926,3.234-4.967,5.125-5.119c0.08-0.008,0.163-0.011,0.249-0.011
			c0.928,0,2.171,0.433,2.554,1.272c0.484,1.049-0.107,2.74-3.469,3.186c-0.789,0.107-1.363,0.736-1.92,1.326
			c-0.398,0.404-0.506,0.73-0.41,0.992c0.213,0.582,1.242,1.5,2.57,1.934c0.984,0.242,7.953,0.955,8.703,2.5
			c0.553,1.131-0.08,3.121-1.434,3.193c-0.032,0.002-0.065,0.002-0.098,0.002c-1.294,0-2.508-1.229-3.43-1.984
			c-1.147-0.963-3.934-2.729-4.879-2.729c-0.104,0-0.186,0.021-0.24,0.067c-0.518,0.434-0.227,0.496,0.246,1.17
			c0.484,0.664,3.645,3.6,4.18,4.07c1.188,1.035,3.004,2.166,2.023,3.836c-0.448,0.769-0.918,1.079-1.387,1.079
			c-1.66,0-3.314-3.894-3.99-5.153c-1.35-2.25-2.305-3.449-3.992-5.465c-0.684-0.75-3.375-2.652-5.369-4.035
			c-1.357-0.941-2.492-1.721-3.793-2.715c-4.502-3.436-7.58-6.631-9.693-10.348c-0.898,6.289-2.561,14.156-2.303,20.281
			c0.109,2.648,0.268,20.275,0.301,20.904c0.188,3.648-0.051,4.85,3.441,5.256c0.385,0.046,0.77,0.063,1.155,0.063
			c0.895,0,1.79-0.091,2.69-0.121c0.963-0.031,1.922-0.049,2.889-0.049c0.721,0.09,1.295,0.217,1.615,0.525
			c0.734,0.711,0.426,1.148-0.117,1.396c-0.328,0.147-0.658,0.202-0.989,0.202c-0.257,0-0.515-0.032-0.772-0.081
			c-0.59-0.104-1.113-0.168-1.633-0.215c-0.822-0.061-1.667-0.089-2.522-0.089c-2.136,0-4.335,0.176-6.382,0.462
			c-0.458,0.063-0.949,0.121-1.404,0.121c-0.576,0-1.095-0.095-1.414-0.4c-0.855-0.824,0.6-1.697,0.986-2.23
			c1.031-1.451,0.117-14.57-1.662-23.086c-1.121-5.355-1.254-6.736-3.525-7.145c-1.324-0.238-3.653-0.319-6.342-0.319
			c-5.729,0-13.09,0.368-15.826,0.368c-0.995,0-1.788-0.028-2.431-0.028c-2.506,0-2.746,0.433-3.86,4.671
			c-2.148,8.162-3.375,23.939-2.238,25.539c0.387,0.533,1.842,1.406,0.986,2.23c-0.321,0.306-0.838,0.4-1.414,0.4
			c-0.454,0-0.944-0.059-1.401-0.121c-2.049-0.286-4.248-0.462-6.385-0.462c-0.855,0-1.702,0.028-2.524,0.089
			c-0.518,0.047-1.043,0.111-1.629,0.215c-0.259,0.049-0.517,0.081-0.773,0.081c-0.332,0-0.663-0.055-0.99-0.202
			c-0.544-0.248-0.853-0.686-0.118-1.396c0.321-0.309,0.895-0.436,1.615-0.525c0.968,0,1.928,0.018,2.889,0.049
			c0.901,0.03,1.796,0.121,2.692,0.121c0.385,0,0.77-0.017,1.156-0.063c3.494-0.406,3.251-1.607,3.439-5.256
			c0.035-0.629,0.191-18.256,0.301-20.904c0.059-1.4,0.018-2.895-0.094-4.438c-0.158-2.891-0.879-5.566-1.821-8.146
			c-3.237-8.877-9.111-16.619-3.9-28.018c-2.889,0.209-7.576,9.82-16.834,16.572l-0.305,0.23c-0.05,0.035-0.118,0.092-0.218,0.164
			h-0.008l-0.012,0.006l-0.02,0.018c-1.807,1.291-10.871,7.379-12.578,9.24c-2.841,3.4-4.453,5.424-6.727,9.217
			c-1.137,2.127-3.93,8.697-6.736,8.697c-0.792,0-1.585-0.523-2.342-1.818c-1.646-2.818,1.42-4.727,3.413-6.484
			c0.91-0.785,6.25-5.73,7.046-6.861c0.811-1.139,1.299-1.248,0.418-1.973c-0.09-0.076-0.226-0.111-0.398-0.111
			c-1.582,0-6.291,2.983-8.225,4.604c-1.559,1.278-3.608,3.346-5.794,3.346c-0.055,0-0.111-0.001-0.167-0.004
			c-2.279-0.109-3.345-3.48-2.419-5.379c1.272-2.611,13.029-3.809,14.686-4.23c2.242-0.715,3.988-2.273,4.329-3.252
			c0.163-0.449-0.016-0.992-0.678-1.682c-0.941-0.982-1.919-2.053-3.241-2.223c-5.674-0.762-6.672-3.609-5.855-5.387
			c0.655-1.426,2.781-2.152,4.353-2.152c0.134,0,0.264,0.005,0.389,0.016c3.189,0.275,0.573,7.084,8.635,8.643
			c0.494,0.096,0.938,0.14,1.348,0.14c2.321,0,3.499-1.423,5.861-2.962c0.777-0.51,2.248-1.621,2.254-1.621
			c0.463-0.324,0.992-0.705,1.659-1.141c7.165-4.576,13.712-13.894,17.355-23.459c4.843-12.697,9.706-22.866,14.616-30.894
			c3.365-5.511-5.938-6.655-11.198-6.655c-0.957,0-1.781,0.038-2.37,0.094c-3.614,0.353-7.277,1.318-10.859,2.832
			c-6.473,2.726-5.197,2.277-6.106,7.952c-0.886,5.453-5.601,9.338-10.958,9.338c-0.589,0-1.186-0.047-1.787-0.144
			c-6.057-0.978-10.174-6.682-9.196-12.741c0.875-5.454,5.597-9.34,10.958-9.34c0.588,0,1.185,0.047,1.784,0.144
			c0.674,0.108,1.417,0.157,2.216,0.157c6.463,0,16.566-3.19,22.908-3.801c7.291-0.699,12.433-1.345,16.06-1.345
			c5.18,0,7.268,1.317,8.106,5.68c0.568,2.952,0.561,7.303,0.557,13.58c-0.006,3.678,1.182,6.501,3.01,8.473
			c1.905,2.056,3.542,2.898,4.989,2.898c3.423,0,5.782-4.723,8.103-9.282c0.965-1.888,1.377-4.765,1.598-7.978
			c0.715-10.439-1.51-4.672-6.389-12.931c-3.492-5.915-1.523-13.545,4.395-17.039C97.316,7.003,99.492,6.446,101.641,6.446
			 M101.641,4.446c-2.569,0-5.103,0.694-7.325,2.007c-6.858,4.049-9.146,12.922-5.1,19.777c2.179,3.687,3.968,4.925,5.151,5.744
			c0.77,0.532,0.806,0.585,0.901,0.906c0.302,1.018,0.181,3.413,0.063,5.127c-0.153,2.23-0.464,5.404-1.384,7.204l-0.087,0.172
			c-1.818,3.573-4.08,8.021-6.234,8.021c-0.936,0-2.153-0.781-3.522-2.258c-1.625-1.753-2.481-4.211-2.477-7.11v-0.168
			c0.004-6.431,0.007-10.68-0.593-13.793c-1.165-6.06-4.868-7.302-10.07-7.302c-2.815,0-6.497,0.374-11.157,0.847
			c-1.569,0.159-3.264,0.332-5.094,0.507c-2.804,0.27-6.18,0.995-9.755,1.762c-4.646,0.998-9.45,2.029-12.962,2.029
			c-0.716,0-1.355-0.044-1.898-0.132c-0.694-0.112-1.402-0.169-2.102-0.169c-6.468,0-11.907,4.636-12.932,11.023
			c-1.151,7.137,3.717,13.881,10.852,15.033c0.696,0.112,1.405,0.169,2.105,0.169c6.457,0,11.896-4.634,12.933-11.018
			c0.158-0.987,0.253-1.797,0.33-2.448c0.165-1.4,0.231-1.778,0.423-1.965c0.481-0.469,2.103-1.152,4.156-2.017
			c3.435-1.452,6.892-2.354,10.277-2.685c0.57-0.055,1.344-0.085,2.175-0.085c5.58,0,9.239,1.155,9.848,2.241
			c0.19,0.339-0.089,0.933-0.357,1.372C62.75,45.507,57.778,56.013,53.03,68.462c-3.697,9.707-10.044,18.323-16.563,22.487
			c-0.581,0.379-1.05,0.709-1.464,1.001l-0.266,0.188l0.001,0.002c-0.077,0.052-0.147,0.104-0.212,0.152
			c-0.352,0.262-1.421,1.058-1.993,1.432c-0.629,0.41-1.18,0.813-1.666,1.167c-1.393,1.019-2.053,1.468-3.099,1.468
			c-0.288,0-0.613-0.034-0.967-0.103c-3.759-0.728-4.387-2.652-5.052-4.69c-0.489-1.498-1.228-3.761-3.792-3.981
			c-0.182-0.016-0.368-0.023-0.561-0.023c-2.237,0-5.122,1.038-6.17,3.317c-0.636,1.384-0.569,2.96,0.183,4.326
			c0.789,1.433,2.683,3.269,7.224,3.878c0.582,0.074,1.279,0.804,1.954,1.51l0.079,0.082c-0.458,0.481-1.427,1.229-2.72,1.655
			c-0.301,0.068-1.117,0.195-1.908,0.317c-8.149,1.267-12.799,2.433-14.032,4.964c-0.834,1.711-0.683,4.063,0.376,5.852
			c0.86,1.453,2.225,2.328,3.745,2.401c0.086,0.004,0.174,0.006,0.262,0.006c2.607,0,4.791-1.865,6.385-3.228
			c0.229-0.196,0.45-0.385,0.662-0.559c-0.619,0.572-1.126,1.031-1.4,1.268c-0.269,0.236-0.539,0.461-0.813,0.689
			c-1.853,1.543-5.302,4.413-3.021,8.318c1.358,2.322,2.962,2.81,4.069,2.81c3.359,0,5.762-4.269,7.935-8.641
			c0.208-0.418,0.39-0.784,0.542-1.071c2.143-3.571,3.631-5.461,6.487-8.88c1.278-1.356,7.633-5.745,10.359-7.628
			c0.546-0.377,1.019-0.703,1.384-0.958h0.014l0.533-0.381c0.072-0.053,0.133-0.1,0.184-0.139l0.027-0.019l0.039-0.031l0.305-0.23
			c5.129-3.74,8.92-8.348,11.697-11.739c-0.783,6.501,1.572,11.922,3.869,17.209c0.719,1.654,1.462,3.364,2.083,5.066
			c1.034,2.832,1.575,5.237,1.703,7.57c0.114,1.586,0.145,3.002,0.093,4.244c-0.07,1.691-0.158,9.283-0.222,14.826
			c-0.034,2.967-0.066,5.77-0.079,6.062c-0.015,0.289-0.027,0.564-0.039,0.825c-0.04,0.884-0.088,1.983-0.239,2.237c0,0,0,0,0,0
			c-0.013,0-0.296,0.18-1.395,0.308c-0.281,0.033-0.582,0.049-0.925,0.049c-0.474,0-0.964-0.029-1.484-0.062
			c-0.379-0.022-0.76-0.046-1.141-0.059c-1.034-0.033-2-0.05-2.956-0.05h-0.124l-0.124,0.016c-0.979,0.122-1.991,0.336-2.753,1.067
			c-1.038,1.005-1.123,1.982-1.012,2.626c0.088,0.513,0.425,1.458,1.685,2.032c0.567,0.256,1.177,0.383,1.82,0.383
			c0.354,0,0.728-0.037,1.143-0.115c0.456-0.08,0.92-0.142,1.44-0.188c0.718-0.053,1.518-0.081,2.344-0.081
			c1.919,0,4.031,0.153,6.108,0.442c0.541,0.074,1.113,0.141,1.677,0.141c1.207,0,2.12-0.312,2.793-0.952
			c0.576-0.555,0.887-1.263,0.886-2.002c-0.002-1.298-0.911-2.167-1.453-2.686c-0.028-0.026-0.055-0.052-0.082-0.077
			c-0.552-2.43,0.354-15.959,2.456-23.944c0.268-1.019,0.708-2.69,0.994-3.128c0.11-0.022,0.363-0.052,0.932-0.052
			c0.276,0,0.58,0.006,0.918,0.012c0.447,0.008,0.948,0.017,1.513,0.017c1.15,0,3.078-0.063,5.309-0.135
			c3.19-0.104,7.162-0.233,10.518-0.233c2.912,0,4.927,0.097,5.987,0.288c0.672,0.12,0.793,0.143,1.713,4.578l0.209,1.008
			c1.698,8.126,2.415,19.366,1.904,21.59c-0.027,0.024-0.055,0.051-0.082,0.077c-0.543,0.519-1.451,1.388-1.453,2.686
			c-0.002,0.739,0.31,1.447,0.877,1.994c0.679,0.648,1.593,0.96,2.802,0.96c0.565,0,1.139-0.066,1.673-0.14
			c2.083-0.29,4.194-0.443,6.113-0.443c0.826,0,1.625,0.028,2.375,0.083c0.484,0.044,0.95,0.105,1.435,0.19
			c0.391,0.074,0.765,0.111,1.118,0.111c0.642,0,1.251-0.127,1.81-0.378c1.271-0.58,1.605-1.525,1.694-2.038
			c0.11-0.644,0.025-1.62-1.007-2.619c-0.764-0.737-1.777-0.951-2.759-1.073l-0.123-0.016h-0.124c-0.953,0-1.92,0.017-2.953,0.05
			c-0.383,0.013-0.763,0.036-1.142,0.059c-0.521,0.032-1.011,0.062-1.484,0.062c-0.344,0-0.644-0.016-0.919-0.049
			c-1.164-0.135-1.416-0.328-1.426-0.336c-0.127-0.225-0.177-1.329-0.216-2.218c-0.012-0.259-0.024-0.531-0.039-0.818
			c-0.011-0.272-0.042-2.976-0.075-5.837c-0.064-5.627-0.153-13.335-0.225-15.048c-0.186-4.413,0.71-10.014,1.515-14.987
			c1.881,2.239,4.243,4.416,7.271,6.727c1.242,0.95,2.323,1.699,3.575,2.567l0.291,0.201c3.843,2.665,4.78,3.479,5.009,3.716
			c1.648,1.969,2.513,3.066,3.751,5.127c0.088,0.164,0.19,0.372,0.309,0.608c1.168,2.346,2.768,5.559,5.423,5.559
			c0.869,0,2.115-0.359,3.114-2.071c0.774-1.318,0.669-2.479,0.218-3.439c0.051,0.001,0.103,0.002,0.154,0.002
			c0.065,0,0.13-0.001,0.195-0.004c1.19-0.064,2.24-0.733,2.89-1.839c0.767-1.304,0.862-2.965,0.243-4.23
			c-0.892-1.837-3.722-2.584-8.975-3.393c-0.38-0.059-0.804-0.124-0.989-0.159c-0.22-0.078-0.416-0.173-0.586-0.271
			c0.042-0.033,0.079-0.059,0.109-0.074c3.002-0.406,4.296-1.694,4.852-2.704c0.572-1.04,0.621-2.241,0.133-3.298
			c-0.764-1.678-2.746-2.434-4.369-2.434c-0.15,0-0.296,0.007-0.436,0.02c-2.038,0.164-2.624,1.95-2.939,2.909
			c-0.389,1.184-0.623,1.897-2.38,2.237c-0.153,0.029-0.294,0.045-0.413,0.045c-0.35,0-0.571-0.136-1.368-0.718
			c-0.309-0.225-0.642-0.468-1.022-0.716c-4.689-3.078-7.914-6.032-10.504-12.013c-1.522-3.531-3.009-7.261-2.978-10.61
			c0.018-2.511-0.144-5.084-0.479-7.653c-0.112-0.858-0.263-1.742-0.408-2.597c-0.154-0.905-0.358-2.101-0.442-3.01
			c0.55,0.363,1.351,0.966,2.487,1.969c1.446,1.277,1.271,2.802,0.774,5.854c-0.528,3.243-1.187,7.28,1.412,11.685
			c3.038,5.146,8.641,8.341,14.62,8.341c3.018,0,5.992-0.813,8.604-2.354c8.055-4.757,10.737-15.177,5.981-23.228
			c-3.031-5.144-8.635-8.34-14.623-8.34c-0.744,0-1.496,0.05-2.233,0.148c-1.996,0.266-3.647,0.396-5.051,0.396
			c-2.658,0-4.304-0.447-6.795-1.123c-1.354-0.367-2.89-0.784-4.88-1.204c-1.372-0.291-2.722-1.149-3.563-1.89
			c0.332,0.019,0.701,0.056,1.104,0.112c0.488,0.069,0.966,0.147,1.406,0.22c0.618,0.102,1.152,0.189,1.615,0.238
			c2.297,0.259,4.708,0.628,7.26,1.02c4.917,0.754,10.002,1.533,14.604,1.533c4.484,0,7.944-0.756,10.578-2.312
			c5.025-2.963,8.595-7.709,10.051-13.362c1.456-5.654,0.623-11.533-2.346-16.556c-3.909-6.629-11.127-10.748-18.834-10.748
			c-3.889,0-7.722,1.05-11.085,3.038c-4.959,2.926-8.507,7.597-9.991,13.152c-1.099,4.085-0.315,7.652,0.313,10.519
			c0.398,1.818,0.775,3.536,0.296,4.133c-0.278,0.348-1.442,1.158-6.226,1.176h-0.076c-2.022,0-2.882-0.227-3.208-0.356
			c0.158-0.754,1.138-2.437,1.872-3.698c1.888-3.242,4.474-7.682,4.835-13c0.321-4.811,1.305-5.217,3.459-6.108
			c1.737-0.719,4.118-1.704,6.414-4.806c3.466-4.679,3.795-10.935,0.838-15.936C111.506,7.169,106.733,4.446,101.641,4.446
			L101.641,4.446z"/>
	</g>
</g>
<g id="Layer_1">
</g>
</svg>
