<?xml version="1.0" encoding="iso-8859-1"?>
<!-- Generator: Adobe Illustrator 16.0.0, SVG Export Plug-In . SVG Version: 6.00 Build 0)  -->
<!DOCTYPE svg PUBLIC "-//W3C//DTD SVG 1.1//EN" "http://www.w3.org/Graphics/SVG/1.1/DTD/svg11.dtd">
<svg version="1.1" xmlns="http://www.w3.org/2000/svg" xmlns:xlink="http://www.w3.org/1999/xlink" x="0px" y="0px" width="150px"
	 height="150px" viewBox="0 0 150 150" style="enable-background:new 0 0 150 150;" xml:space="preserve">
<g id="_x30_2_x5F_04">
	<rect style="fill:none;" width="150" height="150"/>
	<g>
		<g>
			<path style="fill-rule:evenodd;clip-rule:evenodd;fill:#7BCFE4;" d="M54.905,28.117c-7.126,0.687-19,4.629-25.124,3.644
				c-6.062-0.978-11.77,3.144-12.741,9.196c-0.978,6.06,3.14,11.764,9.196,12.741c6.061,0.979,11.762-3.142,12.745-9.194
				c0.909-5.675-0.366-5.227,6.106-7.952c3.582-1.514,7.245-2.479,10.859-2.832c3.826-0.366,17.544,0.048,13.568,6.561
				c-4.91,8.028-9.773,18.197-14.616,30.894c-3.644,9.566-10.19,18.883-17.355,23.459c-0.667,0.436-1.196,0.816-1.659,1.141
				c-0.006,0-1.477,1.111-2.254,1.621c-2.779,1.811-3.918,3.461-7.209,2.822c-8.062-1.559-5.445-8.367-8.635-8.643
				c-1.587-0.135-4.03,0.59-4.741,2.137c-0.816,1.777,0.182,4.625,5.855,5.387c1.322,0.17,2.3,1.24,3.241,2.223
				c0.662,0.689,0.841,1.232,0.678,1.682c-0.341,0.979-2.087,2.537-4.329,3.252c-1.656,0.422-13.413,1.619-14.686,4.23
				c-0.926,1.898,0.14,5.27,2.419,5.379c2.248,0.109,4.362-2.031,5.961-3.342c2.145-1.797,7.701-5.27,8.623-4.492
				c0.881,0.725,0.393,0.834-0.418,1.973c-0.796,1.131-6.136,6.076-7.046,6.861c-1.993,1.758-5.06,3.666-3.413,6.484
				c3.439,5.883,7.62-4.152,9.078-6.879c2.273-3.793,3.886-5.816,6.727-9.217c1.707-1.861,10.771-7.949,12.578-9.24l0.02-0.018
				l0.012-0.006h0.008c0.1-0.072,0.168-0.129,0.218-0.164l0,0l0.305-0.23c9.258-6.752,13.945-16.363,16.834-16.572
				c-5.211,11.398,0.663,19.141,3.9,28.018c0.942,2.58,1.663,5.256,1.821,8.146c0.111,1.543,0.152,3.037,0.094,4.438
				c-0.109,2.648-0.266,20.275-0.301,20.904c-0.188,3.648,0.055,4.85-3.439,5.256c-1.283,0.152-2.559-0.016-3.848-0.059
				c-0.961-0.031-1.921-0.049-2.889-0.049c-0.721,0.09-1.294,0.217-1.615,0.525c-0.734,0.711-0.426,1.148,0.118,1.396
				c0.581,0.262,1.171,0.232,1.764,0.121c0.586-0.104,1.111-0.168,1.629-0.215c2.875-0.213,6.039-0.027,8.909,0.373
				c1.035,0.141,2.24,0.268,2.814-0.279c0.855-0.824-0.6-1.697-0.986-2.23c-1.137-1.6,0.09-17.377,2.238-25.539
				c1.4-5.326,1.42-4.643,6.291-4.643c4.02,0,18.023-0.795,22.168-0.049c2.271,0.408,2.404,1.789,3.525,7.145
				c1.779,8.516,2.693,21.635,1.662,23.086c-0.387,0.533-1.842,1.406-0.986,2.23c0.572,0.547,1.781,0.42,2.818,0.279
				c2.867-0.4,6.031-0.586,8.904-0.373c0.52,0.047,1.043,0.111,1.633,0.215c0.592,0.111,1.18,0.141,1.762-0.121
				c0.543-0.248,0.852-0.686,0.117-1.396c-0.32-0.309-0.895-0.436-1.615-0.525c-0.967,0-1.926,0.018-2.889,0.049
				c-1.287,0.043-2.564,0.211-3.846,0.059c-3.492-0.406-3.254-1.607-3.441-5.256c-0.033-0.629-0.191-18.256-0.301-20.904
				c-0.258-6.125,1.404-13.992,2.303-20.281c2.113,3.717,5.191,6.912,9.693,10.348c1.301,0.994,2.436,1.773,3.793,2.715
				c1.994,1.383,4.686,3.285,5.369,4.035c1.688,2.016,2.643,3.215,3.992,5.465c0.867,1.615,3.342,7.563,5.377,4.074
				c0.98-1.67-0.836-2.801-2.023-3.836c-0.535-0.471-3.695-3.406-4.18-4.07c-0.473-0.674-0.764-0.736-0.246-1.17
				c0.555-0.465,3.846,1.594,5.119,2.662c0.945,0.773,2.197,2.047,3.527,1.982c1.354-0.072,1.986-2.063,1.434-3.193
				c-0.75-1.545-7.719-2.258-8.703-2.5c-1.328-0.434-2.357-1.352-2.57-1.934c-0.096-0.262,0.012-0.588,0.41-0.992
				c0.557-0.59,1.131-1.219,1.92-1.326c3.361-0.445,3.953-2.137,3.469-3.186c-0.418-0.918-1.863-1.35-2.803-1.262
				c-1.891,0.152-0.35,4.193-5.125,5.119c-1.951,0.373-2.625-0.6-4.277-1.678c-5.318-3.49-8.586-6.748-11.246-12.893
				c-1.516-3.514-3.178-7.598-3.143-11.424c0.018-2.441-0.141-4.914-0.463-7.375c-0.709-5.435-3.141-12.533,4.943-5.397
				c4.727,4.176-1.83,10.538,2.586,18.022c4.201,7.115,13.369,9.477,20.486,5.281c7.113-4.201,9.477-13.375,5.275-20.487
				c-3.145-5.336-9.092-7.997-14.871-7.228c-8.852,1.181-9.98-0.389-17.402-1.957c-4.424-0.936-9.953-6.855-1.77-5.715
				c1.156,0.164,2.232,0.373,2.957,0.45c10.637,1.199,23.998,4.769,31.213,0.508c9.439-5.566,12.576-17.745,7-27.178
				c-5.568-9.441-17.744-12.581-27.18-7.006c-4.658,2.749-7.783,7.105-9.076,11.946c-2.682,9.971,7.469,17.256-7.541,17.312
				c-12.363,0.034,0.619-7.413,1.42-19.19c0.678-10.156,5.402-5.401,10.26-11.968c2.887-3.896,3.344-9.299,0.725-13.729
				c-3.498-5.921-11.127-7.891-17.041-4.396c-5.918,3.494-7.887,11.124-4.395,17.039c4.879,8.259,7.104,2.491,6.389,12.931
				c-0.221,3.213-0.633,6.09-1.598,7.978c-3.301,6.487-6.68,13.302-13.092,6.384c-1.828-1.972-3.016-4.795-3.01-8.473
				c0.004-6.277,0.012-10.628-0.557-13.58C77.646,25.035,72.606,26.421,54.905,28.117z"/>
			<path style="fill-rule:evenodd;clip-rule:evenodd;fill:#FFFFFF;" d="M127.108,30.66c-9.027,0-16.35,7.318-16.35,16.344
				c0,9.029,7.322,16.353,16.35,16.353c9.025,0,16.346-7.324,16.346-16.353C143.454,37.979,136.134,30.66,127.108,30.66z"/>
			<circle style="fill-rule:evenodd;clip-rule:evenodd;" cx="117.877" cy="47.118" r="3.696"/>
			<path style="fill-rule:evenodd;clip-rule:evenodd;fill:#FFFFFF;" d="M101.517,9.756c-6.045,0-10.945,4.904-10.945,10.953
				c0,6.038,4.9,10.944,10.945,10.944c6.045-0.002,10.947-4.906,10.947-10.944C112.464,14.66,107.562,9.756,101.517,9.756z"/>
			<path style="fill-rule:evenodd;clip-rule:evenodd;fill:#FFFFFF;" d="M123.976,73.806c-6.785,0-12.295,5.506-12.295,12.294
				c0,6.789,5.51,12.295,12.295,12.295c6.797,0,12.303-5.506,12.303-12.295C136.278,79.313,130.772,73.806,123.976,73.806z"/>
			<path style="fill-rule:evenodd;clip-rule:evenodd;" d="M94.946,15.935c-1.496,0-2.703,1.206-2.703,2.697
				c0.002,1.491,1.207,2.704,2.697,2.704c1.496,0,2.703-1.213,2.703-2.704S96.437,15.935,94.946,15.935z"/>
			<path style="fill-rule:evenodd;clip-rule:evenodd;" d="M122.12,76.393c-1.727,0-3.129,1.4-3.129,3.129
				c0,1.729,1.402,3.122,3.129,3.122c1.725,0,3.127-1.391,3.127-3.122C125.247,77.793,123.843,76.393,122.12,76.393z"/>
			<path style="fill-rule:evenodd;clip-rule:evenodd;fill:#FFFFFF;" d="M21.432,36.242c-2.423,3.401-2.292,9.203,0.56,12.502
				c3.563,4.124,11.221,3.08,13.819-1.549c0.941-1.683,1.507-3.521,1.401-5.812c-0.181-4.536-3.565-8.161-8.145-8.48
				C25.965,32.7,23.275,33.674,21.432,36.242z"/>
			<path style="fill-rule:evenodd;clip-rule:evenodd;" d="M29.183,41.683c-0.924,1.296-0.874,3.504,0.217,4.76
				c1.357,1.573,4.279,1.173,5.271-0.587c0.354-0.646,0.567-1.344,0.529-2.216c-0.067-1.727-1.358-3.114-3.103-3.235
				C30.916,40.328,29.888,40.7,29.183,41.683z"/>
		</g>
		<path style="fill-rule:evenodd;clip-rule:evenodd;" d="M64.292,84.825c-0.963,1.111-1.51,2.283-1.723,3.475
			c-0.395,2.094,0.23,4.256,1.408,6.309c1.756,3.059,4.701,5.471,7.479,6.521c2.377,0.898,5.025,1.279,7.627,1.576
			c2.385,0.281,4.34,0.275,6.234-0.057c1.842-0.326,3.619-0.959,5.656-1.951c1.861-0.984,3.383-2.172,4.547-3.629
			c1.318-1.643,2.166-3.637,2.504-6.066c0.176-1.227,0.021-2.311-0.598-3.1c-1.545-1.979-4.051-3.574-7.068-4.547
			c-3.014-0.969-6.441-1.574-9.719-1.875c-3.801-0.346-7.398-0.279-9.904,0.111C68.136,81.993,65.833,83.038,64.292,84.825z"/>
		<path style="fill-rule:evenodd;clip-rule:evenodd;fill:#FFFFFF;" d="M95.382,84.112l-3.221-0.389l-0.355,2.988
			c-0.084,0.707,0.422,1.355,1.135,1.443l0.645,0.074c0.709,0.09,1.354-0.422,1.441-1.133L95.382,84.112z"/>
		<path style="fill-rule:evenodd;clip-rule:evenodd;fill:#FFFFFF;" d="M89.093,81.856l-3.221-0.389l-0.359,2.984
			c-0.084,0.711,0.428,1.359,1.139,1.447l0.645,0.078c0.705,0.084,1.355-0.428,1.445-1.135L89.093,81.856z"/>
		<path style="fill-rule:evenodd;clip-rule:evenodd;fill:#FFFFFF;" d="M83.399,80.909l-3.223-0.386l-0.355,2.987
			c-0.088,0.707,0.424,1.357,1.137,1.445l0.639,0.074c0.711,0.086,1.357-0.428,1.447-1.131L83.399,80.909z"/>
		<path style="fill-rule:evenodd;clip-rule:evenodd;fill:#FFFFFF;" d="M77.792,80.596l-3.221-0.385l-0.359,2.985
			c-0.084,0.709,0.422,1.361,1.131,1.445l0.648,0.076c0.705,0.084,1.359-0.424,1.441-1.137L77.792,80.596z"/>
		<path style="fill-rule:evenodd;clip-rule:evenodd;fill:#FFFFFF;" d="M72.554,81.013l-3.225-0.388l-0.357,2.989
			c-0.084,0.707,0.422,1.357,1.135,1.445l0.646,0.074c0.707,0.084,1.357-0.428,1.439-1.133L72.554,81.013z"/>
		<path style="fill-rule:evenodd;clip-rule:evenodd;fill:#FFFFFF;" d="M67.677,82.745l-3.225-0.385l-0.359,2.984
			c-0.082,0.711,0.426,1.359,1.135,1.445l0.646,0.08c0.709,0.08,1.361-0.432,1.441-1.139L67.677,82.745z"/>
		<path style="fill-rule:evenodd;clip-rule:evenodd;fill:#FFFFFF;" d="M72.261,102.112l-3.219-0.385l0.355-2.984
			c0.086-0.707,0.736-1.219,1.441-1.137l0.646,0.08c0.707,0.082,1.219,0.732,1.137,1.441L72.261,102.112z"/>
		<path style="fill-rule:evenodd;clip-rule:evenodd;fill:#FFFFFF;" d="M90.649,102.577l-3.225-0.385l0.357-2.988
			c0.088-0.709,0.732-1.221,1.445-1.135l0.643,0.076c0.709,0.086,1.221,0.736,1.137,1.445L90.649,102.577z"/>
		<path style="fill-rule:evenodd;clip-rule:evenodd;fill:#7BCFE4;" d="M78.536,106.073L78.536,106.073
			c-2.818-0.32-5.658-0.744-8.324-1.758c-3.754-1.424-7.162-4.516-9.137-7.99c-1.492-2.621-2.345-5.611-1.788-8.619
			c0.354-1.916,1.229-3.625,2.489-5.092c2.154-2.519,5.229-3.888,8.453-4.396c3.365-0.533,7.186-0.459,10.576-0.148
			c3.451,0.314,7.006,0.93,10.301,2.002c3.279,1.06,6.492,2.925,8.625,5.683c1.275,1.646,1.57,3.697,1.289,5.711
			c-0.396,2.842-1.406,5.453-3.193,7.707c-1.504,1.906-3.428,3.369-5.561,4.512l-0.055,0.031l-0.059,0.027
			c-2.08,1.018-4.195,1.822-6.482,2.234C83.288,106.403,80.935,106.351,78.536,106.073L78.536,106.073z M64.456,84.907
			c-0.947,1.102-1.482,2.258-1.697,3.438c-0.381,2.068,0.229,4.207,1.379,6.234c1.721,3.02,4.607,5.402,7.326,6.438
			c2.332,0.887,4.926,1.264,7.479,1.555c2.336,0.271,4.254,0.262,6.109-0.068c1.807-0.322,3.547-0.949,5.551-1.93
			c1.828-0.973,3.318-2.15,4.459-3.59c1.293-1.633,2.125-3.6,2.461-6.002c0.17-1.217,0.027-2.283-0.578-3.064
			c-1.516-1.957-3.975-3.535-6.924-4.488c-2.959-0.957-6.318-1.551-9.537-1.842c-3.723-0.342-7.246-0.273-9.707,0.115
			C68.235,82.103,65.968,83.138,64.456,84.907L64.456,84.907z"/>
	</g>
</g>
<g id="Layer_1">
</g>
</svg>
