<?xml version="1.0" encoding="iso-8859-1"?>
<!-- Generator: Adobe Illustrator 16.0.0, SVG Export Plug-In . SVG Version: 6.00 Build 0)  -->
<!DOCTYPE svg PUBLIC "-//W3C//DTD SVG 1.1//EN" "http://www.w3.org/Graphics/SVG/1.1/DTD/svg11.dtd">
<svg version="1.1" xmlns="http://www.w3.org/2000/svg" xmlns:xlink="http://www.w3.org/1999/xlink" x="0px" y="0px" width="150px"
	 height="150px" viewBox="0 0 150 150" style="enable-background:new 0 0 150 150;" xml:space="preserve">
<g id="_x30_2_x5F_01">
	<rect style="fill:none;" width="150" height="150"/>
	<g>
		<path style="fill-rule:evenodd;clip-rule:evenodd;fill:#55C2D9;" d="M108.47,87.855l8.561-1.551
			c3.995,6.299,7.922,12.535,11.22,19.229c1.362,2.762,3.219,6.447,4.025,7.441c2.213,2.496,3.548,3.93,6.123,6.047
			c1.864,1.396,8.877,5.633,4.112,7.537c-2.291,0.914-3.371-1.584-4.456-3.27c-0.48-0.768-3.577-5.297-4.332-6.023
			c-0.753-0.721-0.782-1.1-1.421-0.531c-0.682,0.609,1.287,5.135,2.386,6.938c0.8,1.338,2.16,3.15,1.826,4.814
			c-0.338,1.688-2.969,2.105-4.283,1.201c-1.8-1.242-1.384-10.137-1.512-11.418c-0.281-1.756-1.248-3.227-1.938-3.596
			c-0.319-0.17-0.743-0.094-1.331,0.32c-0.838,0.588-1.745,1.203-2.024,2.168c-1.197,4.146-3.437,4.566-4.665,3.762
			c-1.07-0.701-1.343-2.602-1.063-3.77c0.56-2.346,5.346,0.361,7.407-5.475c0.845-2.383-0.256-3.414-1.299-5.691
			c-2.771-6.027-6.282-10.705-10.814-15.553l-5.883,3.252c-3.802,2.102-4.637,3.014-4.746,5.145
			c0.512,6.586,0.123,8.859-0.656,13.773c-1.026,6.475-1.977,13.242-1.744,18.932c0.152,3.697,0.376,7.156,0.421,8.037
			c0.27,5.088-0.067,6.762,4.798,7.336c1.794,0.209,3.576-0.025,5.374-0.086c1.339-0.045,2.676-0.066,4.032-0.066
			c1.004,0.121,1.806,0.309,2.246,0.734c1.024,0.99,0.601,1.602-0.162,1.941c-0.812,0.363-1.634,0.332-2.46,0.178
			c-0.819-0.152-1.55-0.246-2.272-0.303c-4.003-0.293-8.427-0.043-12.418,0.518c-1.446,0.201-3.136,0.381-3.937-0.391
			c-1.193-1.148,0.844-2.361,1.377-3.111c1.183-1.668-0.659-9.955-2.468-15.922c-2.103-6.951-2.89-5.326-9.693-5.371
			c-4.039-0.027-8.063-0.051-12.081-0.07c-4.016,0.02-8.042,0.043-12.08,0.07c-6.805,0.045-7.59-1.58-9.695,5.371
			c-1.807,5.967-3.65,14.256-2.467,15.922c0.531,0.75,2.571,1.963,1.379,3.111c-0.803,0.771-2.491,0.592-3.937,0.391
			c-3.991-0.561-8.416-0.811-12.419-0.518c-0.723,0.057-1.455,0.15-2.273,0.303c-0.825,0.154-1.649,0.186-2.46-0.178
			c-0.761-0.34-1.186-0.951-0.16-1.941c0.438-0.426,1.24-0.613,2.246-0.734c1.356,0,2.693,0.021,4.03,0.066
			c1.801,0.061,3.581,0.295,5.374,0.086c4.867-0.574,4.528-2.248,4.797-7.336c0.048-0.881,0.269-4.34,0.423-8.037
			c0.209-5.119-4.086-20.225-3.441-31.938c0.183-3.33,0.975-3.811-2.281-1.781c-4.167,2.596-7.757,5.742-10.047,9.1
			c-0.371,0.539-0.704,0.969-0.979,1.344c0,0-0.954,1.188-1.396,1.82c-1.566,2.25-2.957,3.156-2.511,5.889
			c1.091,6.699,6.783,4.711,6.929,7.35c0.076,1.313-0.584,3.313-1.878,3.861c-1.487,0.631-3.819-0.262-4.302-4.965
			c-0.115-1.102-0.976-1.939-1.764-2.734c-0.555-0.564-0.998-0.73-1.373-0.607c-0.819,0.264-2.146,1.666-2.792,3.502
			c-0.388,1.363-1.669,11.045-3.854,12.029c-1.596,0.723-4.353-0.242-4.392-2.127c-0.035-1.865,1.786-3.555,2.91-4.846
			c1.537-1.727,4.543-6.23,3.926-7.018c-0.583-0.742-0.684-0.338-1.64,0.297c-0.953,0.635-5.175,4.922-5.847,5.656
			c-1.499,1.605-3.148,4.094-5.444,2.662c-4.774-2.98,3.622-6.191,5.906-7.332c3.19-1.789,4.909-3.072,7.785-5.336
			c1.582-1.365,6.838-8.707,7.946-10.168l0.012-0.014l0.005-0.008l0.004-0.008c0.061-0.078,0.108-0.139,0.139-0.176l0.002-0.002l0,0
			l0.192-0.246c3.64-4.689,7.014-8.33,10.53-11.146c3.633-2.908,2.94-1.146,1.229-5.428c-1.366-3.418-2.069-7.164-1.953-11.076
			c0.25-8.492,4.303-15.978,10.479-20.873c7.619-6.042,17.168-6.332,25.099-6.146c1.984,0.046,2.912-0.759,4.336-5.162
			c2.204-6.817,7.552-12.896,11.882-17.118c2.14-2.085,2.398-1.519,1.904-4.125c-0.221-1.155-0.053-2.39,0.563-3.497
			c1.399-2.509,4.562-3.408,7.069-2.011c2.508,1.395,3.41,4.56,2.013,7.069c-1.002,1.803-2.92,2.774-4.852,2.66
			c-3.546-0.21-1.651-1.846-5.058,1.471c-4.107,4-9.153,9.692-11.271,15.94c-1.373,4.049-1.177,5.499,0.36,6.583
			c4.813,3.407,6.197,1.565,8.979-1.879c4.498-5.578,11.665-9.337,17.222-11.731c2.743-1.184,2.783-0.56,3.252-3.173
			c0.209-1.156,0.808-2.247,1.78-3.062c2.203-1.841,5.479-1.552,7.321,0.651c1.843,2.202,1.551,5.482-0.65,7.321
			c-1.583,1.324-3.722,1.545-5.482,0.75c-3.238-1.466-0.882-2.315-5.25-0.437c-5.267,2.264-12.017,5.777-16.23,10.851
			c-3.313,3.991-3.099,5.237-1.17,7.32c1.697,1.83,2.369,2.694,3.9,4.146c1.026,0.968,1.362-0.659,4.608-2.805
			c5.979-3.952,13.947-5.365,19.968-5.962c2.973-0.295,2.822,0.309,4.063-2.038c0.549-1.04,1.45-1.899,2.622-2.376
			c2.656-1.089,5.691,0.182,6.781,2.838c1.088,2.654-0.186,5.692-2.841,6.779c-1.908,0.781-4.014,0.346-5.45-0.947
			c-2.642-2.378-0.14-2.474-4.871-2.008c-5.705,0.561-13.201,1.863-18.754,5.423c-4.995,3.201-3.582,10.642-1.271,17.111
			C102.493,86.215,101.971,89.035,108.47,87.855z"/>
		<path style="fill-rule:evenodd;clip-rule:evenodd;fill:#FFFFFF;" d="M100.943,24.158c0.27-1.713-0.904-3.324-2.618-3.592
			c-1.714-0.27-3.323,0.904-3.594,2.618c-0.27,1.713,0.903,3.322,2.616,3.591C99.063,27.047,100.673,25.876,100.943,24.158z"/>
		<circle style="fill-rule:evenodd;clip-rule:evenodd;fill:#FFFFFF;" cx="116.139" cy="36.974" r="3.143"/>
		<circle style="fill-rule:evenodd;clip-rule:evenodd;fill:#FFFFFF;" cx="128.493" cy="55.2" r="3.145"/>
		<path style="fill-rule:evenodd;clip-rule:evenodd;fill:#252422;" d="M93.475,119.984c0.884-1.436,1.293-2.857,1.326-4.248
			c0.058-2.441-1.045-4.779-2.75-6.885c-2.546-3.146-6.318-5.344-9.655-6.025c-2.855-0.586-5.923-0.539-8.922-0.4
			c-2.749,0.115-4.965,0.479-7.046,1.197c-2.027,0.701-3.923,1.744-6.057,3.234c-1.926,1.455-3.436,3.076-4.487,4.934
			c-1.192,2.105-1.791,4.514-1.734,7.328c0.03,1.424,0.396,2.619,1.239,3.402c2.112,1.961,5.243,3.314,8.83,3.863
			c3.591,0.555,7.585,0.615,11.352,0.357c4.365-0.299,8.424-1.027,11.193-1.924C89.631,123.891,92.053,122.287,93.475,119.984z"/>
		<path style="fill-rule:evenodd;clip-rule:evenodd;fill:#FFFFFF;" d="M58.393,126.445l3.721-0.148l-0.138-3.447
			c-0.033-0.82-0.729-1.461-1.547-1.43l-0.744,0.031c-0.818,0.031-1.461,0.727-1.43,1.545L58.393,126.445z"/>
		<path style="fill-rule:evenodd;clip-rule:evenodd;fill:#FFFFFF;" d="M65.923,127.855l3.72-0.146l-0.136-3.447
			c-0.033-0.82-0.728-1.461-1.546-1.43l-0.745,0.029c-0.818,0.033-1.461,0.729-1.429,1.549L65.923,127.855z"/>
		<path style="fill-rule:evenodd;clip-rule:evenodd;fill:#FFFFFF;" d="M72.546,127.891l3.72-0.148l-0.139-3.445
			c-0.03-0.82-0.727-1.463-1.544-1.43l-0.743,0.029c-0.82,0.031-1.463,0.73-1.429,1.545L72.546,127.891z"/>
		<path style="fill-rule:evenodd;clip-rule:evenodd;fill:#FFFFFF;" d="M78.955,127.227l3.72-0.146l-0.137-3.449
			c-0.033-0.816-0.73-1.461-1.547-1.428l-0.745,0.029c-0.817,0.035-1.461,0.73-1.428,1.547L78.955,127.227z"/>
		<path style="fill-rule:evenodd;clip-rule:evenodd;fill:#FFFFFF;" d="M84.813,125.805l3.718-0.148l-0.137-3.447
			c-0.033-0.818-0.728-1.461-1.547-1.428l-0.743,0.029c-0.819,0.033-1.462,0.727-1.429,1.545L84.813,125.805z"/>
		<path style="fill-rule:evenodd;clip-rule:evenodd;fill:#FFFFFF;" d="M90.021,122.953l3.717-0.145l-0.136-3.449
			c-0.035-0.818-0.73-1.461-1.548-1.43l-0.744,0.031c-0.818,0.031-1.46,0.727-1.428,1.547L90.021,122.953z"/>
		<path style="fill-rule:evenodd;clip-rule:evenodd;fill:#55C2D9;" d="M73.48,98.512c-2.764,0.119-5.438,0.49-8.061,1.406
			c-2.516,0.877-4.763,2.178-6.934,3.707l-0.063,0.043l-0.058,0.047c-2.209,1.68-4.113,3.686-5.477,6.115
			c-1.613,2.879-2.278,6.021-2.211,9.307c0.047,2.338,0.751,4.602,2.496,6.234c2.917,2.736,6.894,4.266,10.803,4.869
			c3.926,0.611,8.061,0.67,12.025,0.395c3.893-0.266,8.23-0.875,11.95-2.086c3.56-1.162,6.794-3.277,8.775-6.514
			c1.159-1.898,1.841-3.99,1.893-6.217c0.08-3.51-1.427-6.744-3.589-9.439c-2.873-3.574-7.291-6.455-11.803-7.389
			C80.023,98.328,76.734,98.361,73.48,98.512L73.48,98.512L73.48,98.512z M93.272,119.924c-1.393,2.275-3.765,3.861-6.576,4.775
			c-2.713,0.887-6.691,1.605-10.974,1.898c-3.69,0.252-7.607,0.193-11.128-0.354c-3.516-0.549-6.587-1.885-8.656-3.826
			c-0.829-0.775-1.188-1.957-1.215-3.363c-0.058-2.781,0.53-5.164,1.697-7.242c1.028-1.838,2.509-3.441,4.398-4.879
			c2.09-1.473,3.949-2.502,5.935-3.195c2.04-0.711,4.215-1.068,6.908-1.184c2.94-0.135,5.948-0.182,8.748,0.4
			c3.27,0.676,6.969,2.852,9.466,5.959c1.672,2.084,2.753,4.395,2.699,6.811C94.54,117.098,94.141,118.504,93.272,119.924
			L93.272,119.924z"/>
		<path style="fill-rule:evenodd;clip-rule:evenodd;fill:#FFFFFF;" d="M42.067,76.834c0.379-12.867,11.122-22.995,23.99-22.616
			c12.867,0.378,22.994,11.121,22.616,23.988c-0.379,12.868-11.12,22.997-23.988,22.618C51.818,100.443,41.689,89.703,42.067,76.834
			z"/>
		<circle style="fill-rule:evenodd;clip-rule:evenodd;fill:#252422;" cx="51.532" cy="82.685" r="4.613"/>
	</g>
</g>
<g id="Layer_1">
</g>
</svg>
