<?xml version="1.0" encoding="iso-8859-1"?>
<!-- Generator: Adobe Illustrator 16.0.0, SVG Export Plug-In . SVG Version: 6.00 Build 0)  -->
<!DOCTYPE svg PUBLIC "-//W3C//DTD SVG 1.1//EN" "http://www.w3.org/Graphics/SVG/1.1/DTD/svg11.dtd">
<svg version="1.1" xmlns="http://www.w3.org/2000/svg" xmlns:xlink="http://www.w3.org/1999/xlink" x="0px" y="0px" width="150px"
	 height="150px" viewBox="0 0 150 150" style="enable-background:new 0 0 150 150;" xml:space="preserve">
<g id="_x30_2_x5F_03_x5F_black">
	<rect style="fill:none;" width="150" height="150"/>
	<g>
		<path d="M102.526,149c-1.353,0-2.327-0.306-2.98-0.935c-0.606-0.582-0.734-1.193-0.734-1.603c0-1.143,0.915-2.021,1.649-2.727
			c0.23-0.221,0.468-0.449,0.563-0.583c0.076-0.106,0.685-1.162-0.323-6.746c-1.091-6.066-2.399-6.549-3.996-6.549
			c-1.178,0-2.749,0.39-4.739,0.883c-3.675,0.91-8.708,2.156-15.83,2.156c-6.751,0-11.697-1.061-15.308-1.835
			c-2.067-0.443-3.7-0.793-4.951-0.793c-1.813,0-3.176,0.44-4.201,6.137c-1.007,5.584-0.398,6.642-0.325,6.743
			c0.097,0.138,0.334,0.365,0.564,0.586c0.735,0.706,1.65,1.585,1.65,2.727c0,0.41-0.127,1.021-0.735,1.604
			C52.177,148.694,51.202,149,49.85,149c-0.8,0-1.638-0.103-2.426-0.214c-3.44-0.479-6.959-0.732-10.176-0.732
			c-1.403,0-2.763,0.048-4.041,0.142c-0.805,0.062-1.611,0.17-2.534,0.34c-0.533,0.096-0.979,0.14-1.407,0.14
			c-0.741,0-1.407-0.136-2.036-0.417c-1.056-0.478-1.376-1.15-1.46-1.632c-0.129-0.742,0.201-1.502,0.982-2.258
			c0.771-0.745,1.989-0.979,3.19-1.122l0.059-0.007h0.059c1.777,0,3.276,0.024,4.718,0.077c0.592,0.021,1.183,0.057,1.773,0.093
			c0.882,0.054,1.716,0.105,2.558,0.105c0.644,0,1.218-0.031,1.754-0.095c4.367-0.517,4.408-1.392,4.632-6.245l0.065-1.338
			c0.104-2.012,0.417-4.496,0.748-7.126c1.139-9.056,2.699-21.459-3.398-24.403c-12.998-5.424-20.084-10.093-25.065-21.896
			c-1.178-2.786-1.768-4.709-2.506-7.492c-0.411-1.55-1.66-6.266-2.223-7.344c-1.484-2.577-2.395-4.057-4.235-6.329
			c-0.126-0.14-0.333-0.359-0.572-0.611c-2.183-2.308-4.261-4.724-3.621-6.67c0.31-0.942,1.152-1.543,2.504-1.786
			c0.225-0.04,0.437-0.058,0.636-0.058c2.264,0,3.031,2.147,3.592,3.714c0.083,0.234,0.166,0.464,0.251,0.682
			c0.267,0.71,1.422,3.439,2.145,4.969c-0.183-1.256-0.554-2.892-0.95-3.991c-0.066-0.188-0.138-0.38-0.212-0.579
			c-0.531-1.416-1.191-3.177-0.514-4.77c0.441-1.053,1.516-1.684,2.872-1.684c1.09,0,2.135,0.409,2.794,1.093
			c1.217,1.263,0.848,4.567-0.201,9.847c-0.121,0.611-0.236,1.188-0.255,1.383c-0.051,1.23,0.381,2.254,0.631,2.592
			c0.06-0.015,0.151-0.044,0.278-0.101c0.786-0.337,1.463-0.629,1.718-1.112c1.63-3.109,3.449-3.573,4.388-3.573
			c0.771,0,1.494,0.296,2.036,0.833c1.25,1.249,1.02,3.492,0.457,4.686c-0.604,1.299-1.922,1.299-2.484,1.299
			c-0.194,0-0.4-0.007-0.614-0.014c-0.21-0.007-0.429-0.016-0.657-0.016c-1.195,0-2.579,0.181-3.879,2.34
			c-0.708,1.176-0.509,1.862-0.114,3.229c0.117,0.406,0.243,0.843,0.356,1.333c0.552,2.385,0.944,3.76,2.149,6.053
			c5.061,9.622,16.004,15.282,18.63,15.678c0.985,0.149,1.773,0.223,2.412,0.223c1.455,0,2.074-0.365,2.602-0.954
			c5.428-6.051,4.548-14.104,3.696-21.892c-0.182-1.662-0.37-3.38-0.485-5.022c-0.572-4.848-0.736-4.9-2.012-5.306
			c-0.73-0.232-1.73-0.55-3.091-1.37c-3.012-1.815-4.81-4.995-4.81-8.506c0-5.472,4.452-9.924,9.924-9.924
			c3.349,0,6.449,1.672,8.294,4.472c1.936,2.941,1.963,8.028,1.816,11.599c-0.287,7.191,0.081,18.719,2.271,20.998
			c0.233,0.241,0.38,0.244,0.438,0.244c0,0,0.102-0.01,0.102-0.01c1.004-0.183,1.515-0.457,1.858-2.178
			c0.988-4.935,1.596-9.431,1.807-13.365c0.513-9.532-1.703-12.604-3.847-15.574C59.564,47.154,58,44.987,58,40.381
			c0-8.23,6.696-14.926,14.927-14.926s14.926,6.696,14.926,14.926c0,5.17,0.612,9.424,1.205,13.538
			c0.724,5.028,1.407,9.776,1.072,16c-0.443,8.285,0.832,11.467,1.979,12.677c0.512,0.539,1.109,0.802,1.827,0.802
			c0.127,0,0.255-0.009,0.383-0.023c4.761-0.553,6.859-3.731,7.781-6.3c2.083-5.8,0.234-13.729-4.298-18.443
			c-3.321-3.455-6.697-11.263-4.396-16.939c1.088-2.686,3.896-5.939,11.088-6.19c0.125-0.004,0.25-0.006,0.374-0.006
			c6.047,0,10.966,5.074,10.966,11.311c0,0.574-0.317,1.657-1.1,4.271c-1.559,5.208-4.166,13.925-4.269,20.875l-0.919,16.114
			c-0.056,0.985-0.149,1.918-0.235,2.776c-0.177,1.754-0.358,3.567,0.075,4.047c0.1,0.11,0.307,0.166,0.616,0.166
			c0.777,0,2.029-0.361,3.72-1.074c3.879-1.639,12.349-6.89,16.631-15.032c1.205-2.292,1.597-3.667,2.147-6.052
			c0.114-0.489,0.24-0.926,0.356-1.331c0.396-1.368,0.595-2.054-0.113-3.23c-1.3-2.16-2.684-2.34-3.879-2.34
			c-0.228,0-0.447,0.008-0.657,0.015c-0.215,0.008-0.42,0.015-0.614,0.015c-0.563,0-1.88,0-2.486-1.304
			c-0.56-1.189-0.791-3.432,0.456-4.679c0.545-0.54,1.268-0.835,2.038-0.835c0.939,0,2.758,0.464,4.39,3.575
			c0.254,0.482,0.932,0.773,1.65,1.082c0.168,0.074,0.278,0.11,0.346,0.128c0.251-0.341,0.682-1.369,0.627-2.647
			c-0.016-0.138-0.131-0.717-0.252-1.329c-1.049-5.278-1.418-8.581-0.2-9.844c0.658-0.684,1.703-1.093,2.793-1.093
			c1.356,0,2.432,0.632,2.874,1.69c0.676,1.585,0.017,3.345-0.513,4.759c-0.075,0.2-0.147,0.393-0.212,0.576
			c-0.397,1.104-0.771,2.743-0.953,4c0.721-1.527,1.878-4.258,2.142-4.959c0.09-0.23,0.172-0.461,0.256-0.696
			c0.561-1.567,1.328-3.713,3.591-3.713c0.199,0,0.411,0.019,0.635,0.059c1.353,0.243,2.195,0.844,2.505,1.786
			c0.641,1.947-1.438,4.363-3.621,6.671c-0.237,0.252-0.445,0.471-0.601,0.646c-1.813,2.239-2.723,3.719-4.227,6.331
			c-0.537,1.033-1.791,5.755-2.202,7.307c-0.737,2.782-1.328,4.705-2.508,7.494c-3.801,9.011-8.856,14.161-18.65,19.004
			c-2.065,1.021-3.568,1.618-4.666,2.054c-1.31,0.521-1.897,0.765-2.094,1.101c-0.247,0.423-0.27,1.457-0.305,3.171
			c-0.025,1.191-0.056,2.673-0.169,4.646l-1.421,24.893l0.063,1.279c0.225,4.855,0.265,5.729,4.633,6.247
			c0.536,0.063,1.109,0.095,1.754,0.095c0.842,0,1.676-0.052,2.559-0.105c0.59-0.036,1.181-0.072,1.774-0.093
			c1.419-0.052,2.962-0.077,4.715-0.077h0.059l0.059,0.007c1.201,0.143,2.419,0.376,3.19,1.121c0.781,0.757,1.111,1.516,0.982,2.259
			c-0.083,0.48-0.403,1.154-1.455,1.63c-0.633,0.283-1.299,0.419-2.04,0.419c-0.429,0-0.874-0.044-1.403-0.139
			c-0.927-0.171-1.733-0.279-2.541-0.341c-1.275-0.094-2.635-0.142-4.038-0.142c-3.217,0-6.736,0.253-10.178,0.732
			C104.165,148.897,103.326,149,102.526,149z"/>
		<path style="fill:#FFFFFF;" d="M72.927,26.455c7.69,0,13.926,6.235,13.926,13.926c0,11.38,2.891,18.129,2.278,29.483
			c-0.608,11.375,1.909,14.533,4.806,14.533c0.165,0,0.332-0.011,0.499-0.03c11.804-1.371,11.948-18.254,4.088-26.429
			C93.279,52.483,88.78,37.05,104.53,36.5c0.113-0.004,0.227-0.006,0.339-0.006c5.531,0,9.966,4.733,9.966,10.311
			c0,1.56-5.222,15.167-5.368,25.131l-0.917,16.072c-0.263,4.607-1.358,8.046,1.454,8.046c0.908,0,2.226-0.359,4.108-1.153
			c4.55-1.922,12.902-7.455,17.127-15.487c1.261-2.398,1.675-3.859,2.237-6.293c0.515-2.217,1.309-3.335,0.125-5.302
			c-1.519-2.523-3.274-2.825-4.735-2.825c-0.458,0-0.888,0.03-1.271,0.03c-0.728,0-1.292-0.107-1.579-0.726
			c-0.464-0.985-0.569-2.725,0.256-3.55c0.329-0.326,0.791-0.542,1.331-0.542c1.02,0,2.314,0.772,3.504,3.04
			c0.429,0.814,1.344,1.193,2.196,1.56c0.312,0.139,0.567,0.203,0.776,0.203c0.192,0,0.345-0.054,0.465-0.154
			c0.549-0.455,1.139-1.944,1.07-3.553c-0.116-1.167-2.112-9.004-0.731-10.436c0.483-0.502,1.295-0.787,2.073-0.787
			c0.839,0,1.64,0.331,1.952,1.076c0.606,1.424-0.276,3.28-0.746,4.617c-0.648,1.799-1.577,6.188-0.859,6.604
			c0.19,0.112,0.324,0.164,0.429,0.164c0.266,0,0.353-0.334,0.74-0.895c0.535-0.785,2.467-5.375,2.758-6.149
			c0.613-1.57,1.089-3.761,2.911-3.761c0.144,0,0.297,0.014,0.459,0.043c4.588,0.824-0.886,5.875-2.288,7.453
			c-1.907,2.354-2.837,3.875-4.346,6.496c-0.555,1.063-1.585,4.845-2.303,7.55c-0.732,2.763-1.304,4.622-2.462,7.36
			c-3.815,9.044-8.818,13.872-18.173,18.497c-9.145,4.521-7.149,0.607-7.788,11.811l-1.424,24.945
			c0.314,5.912-0.079,7.854,5.579,8.523c0.625,0.074,1.248,0.102,1.871,0.102c1.452,0,2.902-0.148,4.367-0.199
			c1.558-0.057,3.108-0.076,4.681-0.076c1.172,0.139,2.1,0.352,2.613,0.848c1.19,1.152,0.694,1.857-0.19,2.258
			c-0.54,0.241-1.083,0.33-1.628,0.33c-0.408,0-0.817-0.05-1.227-0.123c-0.954-0.176-1.8-0.289-2.642-0.354
			c-1.34-0.099-2.719-0.145-4.114-0.145c-3.455,0-7.011,0.281-10.315,0.742c-0.746,0.105-1.545,0.204-2.285,0.204
			c-0.932,0-1.77-0.156-2.287-0.655c-1.387-1.33,0.988-2.746,1.602-3.615c0.697-0.979,0.488-3.928-0.156-7.5
			c-1.029-5.724-2.348-7.371-4.98-7.371c-3.576,0-9.577,3.039-20.569,3.039c-10.558,0-16.597-2.628-20.259-2.628
			c-2.799,0-4.209,1.537-5.185,6.96c-0.644,3.572-0.852,6.521-0.156,7.5c0.614,0.869,2.987,2.285,1.602,3.615
			C51.619,147.844,50.782,148,49.85,148c-0.74,0-1.54-0.099-2.286-0.204c-3.305-0.461-6.861-0.742-10.316-0.742
			c-1.396,0-2.775,0.046-4.114,0.145c-0.842,0.064-1.687,0.178-2.641,0.354c-0.41,0.073-0.818,0.123-1.226,0.123
			c-0.544,0-1.088-0.089-1.628-0.33c-0.885-0.4-1.381-1.105-0.19-2.258c0.513-0.496,1.441-0.709,2.612-0.848
			c1.573,0,3.123,0.02,4.682,0.076c1.465,0.051,2.915,0.199,4.368,0.199c0.623,0,1.246-0.027,1.871-0.102
			c5.658-0.67,5.264-2.611,5.579-8.523c0.478-9.209,5.372-28.336-3.214-32.482C29.71,97.716,23.375,92.942,18.767,82.023
			c-1.157-2.737-1.729-4.598-2.461-7.36c-0.717-2.705-1.748-6.487-2.303-7.55c-1.509-2.621-2.438-4.142-4.345-6.496
			c-1.402-1.578-6.877-6.629-2.289-7.453c0.162-0.029,0.315-0.042,0.459-0.042c1.822,0,2.299,2.191,2.912,3.76
			c0.291,0.774,2.222,5.364,2.758,6.149c0.387,0.56,0.474,0.895,0.74,0.895c0.105,0,0.238-0.052,0.43-0.164
			c0.716-0.417-0.211-4.805-0.859-6.604c-0.471-1.336-1.353-3.193-0.747-4.618c0.313-0.745,1.113-1.076,1.952-1.076
			c0.779,0,1.591,0.285,2.074,0.787c1.38,1.432-0.615,9.27-0.731,10.436c-0.069,1.608,0.521,3.099,1.071,3.553
			c0.119,0.1,0.271,0.154,0.463,0.154c0.209,0,0.465-0.064,0.777-0.203c0.853-0.367,1.767-0.745,2.196-1.56
			c1.189-2.268,2.484-3.04,3.503-3.04c0.54,0,1.003,0.217,1.331,0.542c0.825,0.824,0.721,2.565,0.257,3.55
			c-0.288,0.619-0.852,0.726-1.58,0.726c-0.384,0-0.813-0.03-1.271-0.03c-1.46,0-3.217,0.302-4.736,2.825
			c-1.183,1.967-0.389,3.085,0.125,5.302c0.563,2.434,0.977,3.894,2.238,6.292c5.086,9.669,16.151,15.718,19.367,16.202
			c1.009,0.153,1.848,0.233,2.561,0.233c1.597,0,2.554-0.402,3.346-1.286c6.953-7.75,4.112-18.454,3.464-27.652
			c-0.917-7.787-1.224-4.836-5.585-7.462c-2.591-1.562-4.326-4.403-4.326-7.65c0-4.929,3.996-8.924,8.924-8.924
			c3.119,0,5.863,1.6,7.459,4.022c1.808,2.747,1.783,7.84,1.652,11.007C57.473,62.273,57,81.575,61.301,81.575
			c0.091,0,0.184-0.009,0.279-0.026c1.515-0.275,2.261-0.969,2.66-2.965c1.068-5.334,1.625-9.763,1.825-13.508
			C66.991,47.889,59,50.461,59,40.381C59,32.69,65.235,26.455,72.927,26.455 M72.927,24.455C64.145,24.455,57,31.6,57,40.381
			c0,4.929,1.733,7.331,3.409,9.652c2.042,2.83,4.154,5.755,3.659,14.935c-0.208,3.887-0.81,8.335-1.789,13.223
			c-0.212,1.061-0.368,1.238-0.805,1.34c-1.407-1.615-2.264-10.64-1.884-20.16c0.153-3.706,0.115-9.004-1.98-12.187
			c-2.031-3.083-5.444-4.923-9.13-4.923c-6.023,0-10.924,4.9-10.924,10.924c0,3.808,2.028,7.396,5.293,9.363
			c1.463,0.881,2.571,1.233,3.305,1.467c0.2,0.063,0.44,0.14,0.561,0.192c0.325,0.617,0.646,3.308,0.76,4.279
			c0.117,1.646,0.304,3.357,0.485,5.013c0.828,7.57,1.684,15.398-3.446,21.116c-0.305,0.341-0.655,0.622-1.857,0.622
			c-0.588,0-1.327-0.069-2.261-0.211C37.625,94.608,27.171,88.749,22.5,79.87c-1.156-2.199-1.515-3.46-2.059-5.813
			c-0.122-0.523-0.254-0.981-0.371-1.385c-0.397-1.375-0.457-1.658,0.011-2.436c1.033-1.716,1.98-1.855,3.022-1.855
			c0.215,0,0.423,0.008,0.622,0.015c0.227,0.008,0.443,0.015,0.649,0.015c1.671,0,2.813-0.633,3.393-1.883
			c0.798-1.693,0.842-4.311-0.657-5.808c-0.734-0.729-1.708-1.127-2.745-1.127c-1.165,0-3.399,0.534-5.275,4.111
			c-0.05,0.096-0.312,0.24-0.591,0.373c-0.091-0.334-0.162-0.76-0.149-1.234c0.03-0.208,0.139-0.755,0.236-1.243
			c1.166-5.87,1.477-9.141-0.06-10.736c-0.844-0.876-2.158-1.399-3.514-1.399c-1.746,0-3.201,0.882-3.796,2.303
			c-0.126,0.296-0.215,0.594-0.273,0.893c-0.691-0.866-1.673-1.538-3.114-1.538c-0.264,0-0.537,0.024-0.811,0.074
			c-2.17,0.39-2.981,1.551-3.279,2.458c-0.813,2.471,1.354,5.039,3.844,7.67c0.216,0.228,0.405,0.427,0.551,0.59
			c1.773,2.192,2.624,3.571,4.111,6.154c0.242,0.486,0.808,2.126,2.128,7.108c0.75,2.828,1.35,4.784,2.552,7.626
			c5.079,12.034,12.607,17.002,25.596,22.429c5.396,2.675,3.894,14.625,2.796,23.356c-0.333,2.648-0.648,5.149-0.754,7.199
			c-0.025,0.47-0.046,0.918-0.065,1.342c-0.092,1.988-0.165,3.558-0.583,4.223c-0.205,0.325-0.756,0.791-3.168,1.076
			c-0.496,0.059-1.032,0.087-1.636,0.087c-0.812,0-1.63-0.05-2.497-0.103c-0.599-0.037-1.199-0.073-1.802-0.095
			c-1.451-0.053-2.961-0.077-4.75-0.077h-0.118l-0.117,0.014c-1.375,0.163-2.783,0.444-3.767,1.396
			c-1.288,1.246-1.402,2.399-1.272,3.148c0.102,0.588,0.502,1.679,2.028,2.369c0.77,0.344,1.568,0.508,2.453,0.508
			c0.489,0,0.991-0.049,1.579-0.154c0.896-0.165,1.669-0.27,2.44-0.328c1.248-0.092,2.583-0.139,3.961-0.139
			c3.171,0,6.643,0.25,10.04,0.723c0.819,0.116,1.7,0.224,2.562,0.224c1.624,0,2.826-0.397,3.675-1.215
			c0.859-0.825,1.04-1.719,1.04-2.323c0-1.568-1.178-2.699-1.958-3.448c-0.127-0.121-0.308-0.295-0.401-0.397
			c-0.076-0.26-0.344-1.61,0.454-6.032c0.956-5.314,2.054-5.314,3.217-5.314c1.146,0,2.732,0.34,4.741,0.771
			c3.655,0.784,8.661,1.857,15.518,1.857c7.244,0,12.346-1.264,16.07-2.186c1.924-0.477,3.443-0.854,4.499-0.854
			c0.929,0,1.982,0,3.012,5.726c0.799,4.427,0.53,5.774,0.455,6.032c-0.092,0.101-0.274,0.276-0.402,0.398
			c-0.779,0.749-1.957,1.88-1.957,3.448c0,0.604,0.181,1.498,1.043,2.325c0.847,0.814,2.048,1.212,3.672,1.212
			c0.862,0,1.742-0.107,2.565-0.224c3.393-0.473,6.864-0.723,10.035-0.723c1.379,0,2.714,0.047,3.967,0.139
			c0.767,0.06,1.539,0.163,2.427,0.326c0.598,0.107,1.1,0.156,1.589,0.156c0.885,0,1.684-0.165,2.443-0.504
			c1.535-0.694,1.935-1.785,2.037-2.374c0.13-0.748,0.016-1.901-1.271-3.146c-0.985-0.953-2.394-1.234-3.769-1.397l-0.117-0.014
			h-0.118c-1.765,0-3.319,0.025-4.753,0.077c-0.599,0.021-1.199,0.058-1.798,0.095c-0.867,0.053-1.686,0.103-2.497,0.103
			c-0.604,0-1.14-0.028-1.637-0.087c-2.412-0.285-2.964-0.751-3.168-1.076c-0.419-0.665-0.491-2.235-0.583-4.224
			c-0.018-0.391-0.037-0.801-0.06-1.233l1.418-24.835c0.113-1.991,0.145-3.483,0.169-4.682c0.025-1.182,0.049-2.301,0.159-2.655
			c0.232-0.161,0.961-0.451,1.609-0.708c1.113-0.442,2.639-1.048,4.74-2.087c10.037-4.963,15.222-10.251,19.129-19.513
			c1.202-2.843,1.803-4.798,2.553-7.625c1.323-4.988,1.887-6.625,2.127-7.107c1.486-2.582,2.337-3.96,4.112-6.155
			c0.146-0.163,0.335-0.362,0.55-0.589c2.49-2.632,4.657-5.199,3.845-7.671c-0.298-0.906-1.108-2.068-3.277-2.458
			c-0.276-0.049-0.549-0.074-0.813-0.074c-1.442,0-2.425,0.673-3.115,1.54c-0.06-0.302-0.149-0.604-0.277-0.904
			c-0.591-1.41-2.045-2.292-3.791-2.292c-1.357,0-2.671,0.523-3.515,1.4c-1.537,1.593-1.226,4.864-0.06,10.732
			c0.097,0.488,0.206,1.037,0.235,1.246c0.013,0.475-0.059,0.901-0.149,1.235c-0.279-0.133-0.541-0.278-0.593-0.376
			c-1.874-3.574-4.108-4.108-5.273-4.108c-1.036,0-2.009,0.398-2.739,1.122c-1.503,1.502-1.459,4.12-0.657,5.822
			c0.576,1.24,1.718,1.874,3.389,1.874c0.205,0,0.423-0.007,0.649-0.015c0.199-0.007,0.407-0.015,0.622-0.015
			c1.042,0,1.989,0.14,3.021,1.856c0.469,0.778,0.408,1.062,0.011,2.437c-0.117,0.403-0.249,0.86-0.37,1.382
			c-0.544,2.354-0.903,3.615-2.06,5.814c-4.15,7.892-12.369,12.985-16.135,14.575c-1.833,0.773-2.758,0.96-3.193,0.991
			c-0.079-0.662,0.061-2.052,0.167-3.107c0.085-0.847,0.182-1.807,0.239-2.819l0.917-16.073l0.002-0.042l0.001-0.042
			c0.1-6.811,2.684-15.444,4.227-20.603c0.849-2.835,1.142-3.851,1.142-4.558c0-6.788-5.368-12.311-11.966-12.311
			c-0.136,0-0.271,0.002-0.408,0.007c-7.729,0.27-10.781,3.854-11.98,6.814c-2.572,6.345,1.225,14.497,4.602,18.009
			c4.217,4.386,6.008,12.035,4.078,17.412c-0.827,2.303-2.705,5.15-6.955,5.645c-0.092,0.011-0.181,0.017-0.269,0.017
			c-0.446,0-0.776-0.146-1.102-0.489c-0.829-0.875-2.153-3.589-1.707-11.937c0.341-6.321-0.382-11.341-1.081-16.195
			c-0.587-4.079-1.194-8.296-1.194-13.395C88.853,31.6,81.708,24.455,72.927,24.455L72.927,24.455z"/>
	</g>
</g>
<g id="Layer_1">
</g>
</svg>
