<?xml version="1.0" encoding="iso-8859-1"?>
<!-- Generator: Adobe Illustrator 16.0.0, SVG Export Plug-In . SVG Version: 6.00 Build 0)  -->
<!DOCTYPE svg PUBLIC "-//W3C//DTD SVG 1.1//EN" "http://www.w3.org/Graphics/SVG/1.1/DTD/svg11.dtd">
<svg version="1.1" xmlns="http://www.w3.org/2000/svg" xmlns:xlink="http://www.w3.org/1999/xlink" x="0px" y="0px" width="150px"
	 height="150px" viewBox="0 0 150 150" style="enable-background:new 0 0 150 150;" xml:space="preserve">
<g id="_x30_3_x5F_04">
	<rect style="fill:none;" width="150" height="150"/>
	<g>
		<g>
			<path style="fill-rule:evenodd;clip-rule:evenodd;fill:#51B748;" d="M73.256,52.519c2.713-3.648,5.374-6.576,8.436-9.066
				c5.557-4.518,12.194-7.387,22.533-10.226c2.873-0.79,2.181-0.542,3.434-2.916c0.415-0.779,0.981-1.493,1.712-2.091
				c2.938-2.423,7.29-2.001,9.714,0.942c2.421,2.94,1.997,7.29-0.938,9.715c-2.459,2.025-5.907,2.062-8.381,0.304
				c-2.023-1.438-0.856-1.751-3.601-1.002c-9.92,2.682-16.142,5.311-21.132,9.363c-6.717,5.457-10.842,8.492-5.281,15.934
				c3.818,5.107,10.301,10.852,16.283,7.228c3.339-2.031,6.896-3.724,10.914-3.452c2.995,0.205,6.035,0.956,8.987,2.184
				c3.523,1.462,3.396,2.084,6.873,1.419c3.743-0.708,7.354,1.756,8.066,5.498c0.709,3.743-1.755,7.356-5.494,8.066
				c-3.745,0.711-7.356-1.75-8.068-5.492c-0.667-3.504,0.137-3.25-3.926-4.831c-2.254-0.879-4.543-1.418-6.789-1.57
				c-3.701-0.253-6.483,0.752-8.912,2.197c-7.531,4.491-4.689,5.185-1.571,12.389c0.913,2.098,1.825,4.337,2.73,6.717
				c2.264,5.944,6.333,11.73,10.779,14.575c0.409,0.265,0.743,0.508,1.03,0.705c0,0,0.917,0.69,1.396,1.006
				c1.733,1.124,2.442,2.154,4.478,1.756c5.005-0.97,3.39-5.195,5.368-5.367c0.982-0.084,2.504,0.362,2.94,1.326
				c0.505,1.1-0.107,2.868-3.631,3.34c-0.824,0.111-1.436,0.777-2.015,1.386c-0.413,0.428-0.526,0.764-0.428,1.045
				c0.218,0.606,1.297,1.576,2.694,2.019c1.032,0.265,8.331,1.003,9.115,2.625c0.582,1.182-0.084,3.278-1.5,3.345
				c-1.397,0.069-2.709-1.261-3.701-2.075c-1.333-1.114-4.778-3.273-5.355-2.795c-0.548,0.453-0.241,0.522,0.258,1.228
				c0.502,0.699,3.815,3.775,4.377,4.264c1.238,1.092,3.148,2.272,2.118,4.025c-2.13,3.651-4.724-2.583-5.633-4.271
				c-1.414-2.358-2.417-3.618-4.18-5.725c-1.062-1.158-6.688-4.941-7.813-5.739l-0.009-0.011l-0.01-0.004l-0.005-0.006
				c-0.061-0.04-0.104-0.074-0.132-0.097h-0.004l-0.193-0.141c-3.194-2.334-6.157-4.479-8.934-6.47
				c0.487,2.563,0.307,5.1-0.39,7.557c-3.971,13.921-6.501,18.722-6.501,37.6c0,0.59-0.482,1.072-1.07,1.072
				c-2.201,0-7.312,0-10.565,0c-3.315,0-3.925-2.822-0.606-2.822c2.534,0,6.819,0.407,10.597,0.659
				c0.561-6.188,0.517-11.957,0.038-17.897c-0.697-8.543-0.244,0.199-7.078-1.536c-28.734-1.556-16.179-2.172-32.608-0.829
				c-6.834,1.735-6.382-7.007-7.078,1.536c-0.478,5.94-0.522,11.707,0.037,17.897c3.778-0.254,8.063-0.659,10.599-0.659
				c3.315,0,2.709,2.822-0.606,2.822c-3.256,0-8.365,0-10.566,0c-0.587,0-1.071-0.482-1.071-1.072
				c0-12.186-1.054-18.506-2.87-25.198c-0.798-3.422-6.013-14.223-7.011-31.846c-0.394-6.854,4.062-12.41,8.146-18.331
				c1.013-1.467,4.117-4.251,0.909-3.317c-4.944,1.44-9.417,3.784-12.721,7.694c-1.157,1.374-2.2,2.892-3.326,4.31
				c-0.639,0.804-1.069,1.432-0.882,2.688c0.615,4.157,4.16,2.972,4.227,4.608c0.036,0.81-0.39,2.044-1.201,2.369
				c-0.913,0.38-2.352-0.195-2.617-3.104c-0.057-0.683-0.585-1.211-1.069-1.715c-0.338-0.351-0.61-0.457-0.847-0.378
				c-0.503,0.151-1.338,1.006-1.752,2.139c-0.246,0.839-1.125,6.815-2.491,7.405c-0.994,0.438-2.684-0.185-2.694-1.35
				c-0.007-1.149,1.136-2.182,1.839-2.973c0.966-1.056,2.862-3.813,2.483-4.309c-0.343-0.462-0.414-0.214-1.004,0.17
				c-0.599,0.384-3.25,2.999-3.671,3.448c-0.942,0.979-1.983,2.507-3.396,1.604c-2.925-1.889,2.298-3.802,3.72-4.49
				c1.99-1.076,3.063-1.859,4.863-3.238c0.601-0.495,2.047-2.337,3.257-3.913c1.15-1.511,2.225-2.944,3.46-4.384
				c3.738-4.347,7.139-6.955,11.419-8.485c5.762-2.059,7.103-1.805,7.836-9.065C48.888,45.706,50.2,44.274,44.92,33.89
				c-0.823-1.626-1.589-3.297-2.316-5.091c-1.604-3.904-2.865-4.116-6.436-5.716c-1.963-0.879-3.528-2.626-4.081-4.883
				c-0.968-3.89,1.42-7.826,5.306-8.787c3.886-0.958,7.825,1.417,8.782,5.31c0.442,1.785,0.177,3.583-0.611,5.095
				c-1.91,3.65-0.973,4.341,0.798,8.512c0.563,1.328,1.14,2.573,1.76,3.784c5.412,10.65,3.307,20.028,3.004,31.134
				c-0.018,0.726,0.366,1.24,0.905,1.528c1.766,0.924,1.01-3.29,1.162-4.55c0.805-7.083,3.376-9.101,3.957-12.465
				c0.126-0.762,0.208-1.564,0.237-2.411c0.09-2.539,1.924-5.756,1.2-8.381c-1.305-4.741-1.11-3.813-4.962-4.962
				c-4.121-1.234-6.462-5.574-5.231-9.688c1.231-4.121,5.564-6.463,9.682-5.233c4.124,1.229,6.465,5.568,5.234,9.685
				c-1.24,4.169-1.757,13.354-1.927,18.371c-0.08,2.297-0.468,4.094-0.963,5.552c-0.93,2.736-0.827,4.585-0.05,5.8
				c1.225,1.928,4.037,2.715,6.243,2.146C68.108,58.254,70.041,56.846,73.256,52.519z"/>
			<path style="fill-rule:evenodd;clip-rule:evenodd;fill:#FFFFFF;" d="M39.193,10.356c-3.377,0-6.109,2.737-6.109,6.109
				c0,3.375,2.732,6.11,6.109,6.11c3.375-0.001,6.114-2.734,6.114-6.11C45.308,13.092,42.569,10.356,39.193,10.356z"/>
			<path style="fill-rule:evenodd;clip-rule:evenodd;" d="M36.588,12.731c-1.131,0-2.057,0.925-2.057,2.059
				c0,1.135,0.924,2.059,2.056,2.059c1.139,0,2.062-0.924,2.062-2.059C38.649,13.655,37.727,12.736,36.588,12.731z"/>
			<path style="fill-rule:evenodd;clip-rule:evenodd;fill:#FFFFFF;" d="M50.716,28.804c-2.292-2.794-1.897-6.928,0.902-9.226
				c2.796-2.297,6.928-1.896,9.224,0.903c2.293,2.793,1.893,6.928-0.896,9.225C57.15,32.006,53.016,31.602,50.716,28.804z"/>
			<path style="fill-rule:evenodd;clip-rule:evenodd;" d="M57.05,24.903c-0.772-0.94-0.642-2.328,0.293-3.105
				c0.949-0.777,2.336-0.635,3.112,0.301c0.776,0.94,0.636,2.332-0.302,3.105C59.207,25.978,57.822,25.846,57.05,24.903z"/>
			<path style="fill-rule:evenodd;clip-rule:evenodd;fill:#FFFFFF;" d="M113.875,27.586c-3.212,0-5.809,2.601-5.809,5.814
				c0,3.207,2.597,5.809,5.809,5.809c3.209,0,5.809-2.601,5.809-5.809C119.684,30.187,117.084,27.586,113.875,27.586z"/>
			<path style="fill-rule:evenodd;clip-rule:evenodd;" d="M113.55,34.092c-1.08,0-1.958,0.875-1.958,1.954
				c0,1.077,0.878,1.958,1.958,1.958c1.079-0.002,1.956-0.881,1.956-1.958C115.508,34.967,114.629,34.093,113.55,34.092z"/>
			<path style="fill-rule:evenodd;clip-rule:evenodd;fill:#FFFFFF;" d="M124.097,71.804c-3.208,0-5.813,2.602-5.813,5.809
				c0,3.21,2.604,5.812,5.813,5.812c3.209,0,5.813-2.601,5.813-5.812C129.905,74.406,127.306,71.804,124.097,71.804z"/>
			<path style="fill-rule:evenodd;clip-rule:evenodd;" d="M124.991,78.338c-1.081,0-1.958,0.876-1.958,1.956
				c0,1.079,0.877,1.956,1.958,1.956c1.076-0.004,1.953-0.877,1.953-1.956C126.944,79.213,126.067,78.338,124.991,78.338z"/>
		</g>
		<path style="fill-rule:evenodd;clip-rule:evenodd;" d="M90.205,90.329c1.068,1.735,1.565,3.454,1.605,5.133
			c0.066,2.952-1.262,5.781-3.326,8.324c-3.076,3.8-7.634,6.455-11.665,7.279c-3.454,0.707-7.16,0.65-10.786,0.487
			c-3.322-0.146-5.998-0.577-8.518-1.452c-2.447-0.844-4.741-2.104-7.318-3.907c-2.326-1.757-4.153-3.715-5.427-5.962
			c-1.433-2.543-2.159-5.456-2.09-8.857c0.035-1.717,0.477-3.165,1.499-4.111c2.549-2.369,6.336-4.003,10.669-4.669
			c4.341-0.669,9.166-0.74,13.717-0.43c5.28,0.356,10.184,1.24,13.531,2.327C85.563,85.609,88.49,87.544,90.205,90.329z"/>
		<path style="fill-rule:evenodd;clip-rule:evenodd;fill:#FFFFFF;" d="M47.811,82.521l4.494,0.183l-0.166,4.165
			c-0.041,0.986-0.882,1.766-1.871,1.726l-0.901-0.036c-0.987-0.04-1.763-0.881-1.725-1.867L47.811,82.521z"/>
		<path style="fill-rule:evenodd;clip-rule:evenodd;fill:#FFFFFF;" d="M64.915,80.776l4.493,0.179l-0.166,4.161
			c-0.038,0.993-0.879,1.771-1.868,1.728l-0.898-0.034c-0.989-0.042-1.765-0.879-1.727-1.869L64.915,80.776z"/>
		<path style="fill-rule:evenodd;clip-rule:evenodd;fill:#FFFFFF;" d="M72.656,81.576l4.5,0.179l-0.168,4.165
			c-0.038,0.988-0.878,1.77-1.868,1.728l-0.902-0.034c-0.986-0.04-1.765-0.881-1.725-1.874L72.656,81.576z"/>
		<path style="fill-rule:evenodd;clip-rule:evenodd;fill:#FFFFFF;" d="M86.029,86.74l4.492,0.179l-0.163,4.163
			c-0.04,0.993-0.88,1.768-1.868,1.731l-0.899-0.038c-0.989-0.04-1.768-0.879-1.726-1.867L86.029,86.74z"/>
		<path style="fill-rule:evenodd;clip-rule:evenodd;fill:#FFFFFF;" d="M81.91,110.382l4.494,0.181l0.168-4.166
			c0.036-0.992-0.736-1.83-1.725-1.872l-0.902-0.035c-0.988-0.038-1.83,0.74-1.87,1.727L81.91,110.382z"/>
		<path style="fill-rule:evenodd;clip-rule:evenodd;fill:#FFFFFF;" d="M75.501,112.241l4.493,0.178l0.17-4.165
			c0.035-0.988-0.745-1.828-1.729-1.872l-0.9-0.031c-0.988-0.044-1.829,0.732-1.869,1.727L75.501,112.241z"/>
		<path style="fill-rule:evenodd;clip-rule:evenodd;fill:#FFFFFF;" d="M50.239,108.833l4.492,0.179l0.168-4.164
			c0.038-0.988-0.741-1.829-1.727-1.871l-0.899-0.036c-0.991-0.038-1.833,0.736-1.871,1.729L50.239,108.833z"/>
		<path style="fill-rule:evenodd;clip-rule:evenodd;fill:#FFFFFF;" d="M44.88,104.177l4.494,0.181l0.169-4.17
			c0.034-0.986-0.74-1.826-1.727-1.865l-0.901-0.04c-0.986-0.038-1.833,0.742-1.869,1.727L44.88,104.177z"/>
		<path style="fill-rule:evenodd;clip-rule:evenodd;fill:#51B748;" d="M89.962,90.404c-1.679-2.751-4.55-4.667-7.947-5.774
			c-3.282-1.068-8.087-1.941-13.264-2.292c-4.459-0.309-9.191-0.23-13.449,0.429c-4.249,0.656-7.958,2.276-10.462,4.622
			c-0.997,0.937-1.437,2.363-1.469,4.065c-0.065,3.363,0.642,6.24,2.052,8.752c1.242,2.223,3.034,4.157,5.314,5.898
			c2.526,1.778,4.772,3.024,7.171,3.859c2.47,0.858,5.097,1.293,8.352,1.432c3.553,0.161,7.187,0.212,10.574-0.483
			c3.949-0.818,8.419-3.443,11.438-7.203c2.022-2.521,3.328-5.313,3.259-8.234C91.495,93.82,91.009,92.117,89.962,90.404
			L89.962,90.404L89.962,90.404z M66.042,116.28c-3.336-0.145-6.574-0.592-9.741-1.697c-3.042-1.061-5.757-2.632-8.382-4.482
			l-0.071-0.049l-0.075-0.059c-2.666-2.029-4.969-4.455-6.618-7.393c-1.949-3.478-2.755-7.275-2.671-11.245
			c0.056-2.825,0.909-5.563,3.013-7.54c3.531-3.299,8.337-5.147,13.058-5.886c4.745-0.732,9.743-0.803,14.536-0.471
			c4.705,0.321,9.945,1.056,14.44,2.521c4.306,1.403,8.211,3.958,10.607,7.875c1.397,2.285,2.22,4.822,2.283,7.509
			c0.099,4.247-1.721,8.156-4.336,11.409c-3.473,4.322-8.807,7.804-14.265,8.929C73.948,116.503,69.974,116.459,66.042,116.28
			L66.042,116.28z"/>
	</g>
</g>
<g id="Layer_1">
</g>
</svg>
