<?xml version="1.0" encoding="iso-8859-1"?>
<!-- Generator: Adobe Illustrator 16.0.0, SVG Export Plug-In . SVG Version: 6.00 Build 0)  -->
<!DOCTYPE svg PUBLIC "-//W3C//DTD SVG 1.1//EN" "http://www.w3.org/Graphics/SVG/1.1/DTD/svg11.dtd">
<svg version="1.1" xmlns="http://www.w3.org/2000/svg" xmlns:xlink="http://www.w3.org/1999/xlink" x="0px" y="0px" width="150px"
	 height="150px" viewBox="0 0 150 150" style="enable-background:new 0 0 150 150;" xml:space="preserve">
<g id="_x30_3_x5F_01">
	<rect style="fill:none;" width="150" height="150"/>
	<g>
		<path style="fill-rule:evenodd;clip-rule:evenodd;fill:#69BC47;" d="M38.093,102.941c-3.051,4.284-5.935,8.2-10.82,10.069
			c-1.721,0.662-3.534,1.153-5.281,1.765c-0.992,0.353-1.738,0.553-2.89-0.053c-3.802-1.99-1.473-5.007-3.029-5.623
			c-0.773-0.312-2.104-0.315-2.691,0.357c-0.681,0.763-0.608,2.339,2.117,3.573c0.64,0.283,0.97,0.968,1.292,1.604
			c0.228,0.445,0.238,0.744,0.086,0.947c-0.321,0.438-1.423,0.952-2.657,0.974c-0.896-0.038-6.964-1.205-7.993-0.09
			c-0.756,0.814-0.722,2.663,0.401,3.063c1.108,0.395,2.493-0.361,3.489-0.784c1.345-0.574,4.649-1.479,4.999-0.95
			c0.33,0.501,0.065,0.479-0.503,0.922c-0.572,0.451-3.988,2.13-4.566,2.387c-1.258,0.573-3.087,1.071-2.68,2.734
			c0.833,3.461,4.433-0.94,5.578-2.083c1.712-1.561,2.825-2.331,4.761-3.606c0.682-0.41,2.947-1.188,4.874-1.824
			c1.84-0.603,3.594-1.164,5.397-1.872c6.05-2.382,9.895-5.087,12.956-9.404c1.446-2.036,2.544-2.54,3.359-2.146
			c0.073,0.438-0.06,1.495-0.203,3.194c-0.285,3.337-1.173,6.61-2.369,10.002h0c-4.645,13.171,4.963,18.922,4.513,27.545
			c-0.166,3.101,0.043,4.126-2.924,4.477c-1.095,0.129-2.187-0.02-3.281-0.051c-0.816-0.029-1.633-0.044-2.459-0.044
			c-0.614,0.075-1.105,0.188-1.373,0.449c-0.626,0.603-0.367,0.975,0.097,1.182c0.496,0.221,0.999,0.199,1.502,0.108
			c0.498-0.092,0.947-0.145,1.39-0.182c0.057-0.003,0.113-0.008,0.169-0.014c0.063,0.063,0.146,0.108,0.238,0.147
			c0.406,0.186,0.82,0.168,1.234,0.088c0.414-0.074,0.779-0.118,1.145-0.148c0.614-0.045,1.24-0.068,1.881-0.062
			c0.988,0.062,1.968,0.17,2.907,0.303c0.587,0.08,1.241,0.158,1.762,0.058c0.643,0.076,1.321,0.101,1.668-0.235
			c0.598-0.581-0.427-1.191-0.691-1.565c-0.654-0.921-0.085-2.796,0.608-3.542c0.431-0.455,0.893-0.679,1.393-0.798
			c11.045-2.715,23.654,0.057,34.554-0.407c10.899,0.464,18.9-2.308,29.944,0.407c0.505,0.119,0.961,0.343,1.396,0.798
			c0.69,0.746,1.262,2.621,0.61,3.542c-0.271,0.374-1.291,0.984-0.695,1.565c0.344,0.336,1.025,0.312,1.672,0.235
			c0.516,0.101,1.169,0.022,1.762-0.058c0.936-0.133,1.917-0.241,2.903-0.303c0.641-0.007,1.269,0.017,1.884,0.062
			c0.362,0.03,0.731,0.074,1.143,0.148c0.412,0.08,0.826,0.098,1.237-0.088c0.087-0.039,0.172-0.084,0.239-0.147
			c0.055,0.006,0.109,0.011,0.163,0.014c0.444,0.037,0.895,0.09,1.392,0.182c0.5,0.091,1.003,0.112,1.502-0.108
			c0.463-0.207,0.723-0.579,0.098-1.182c-0.268-0.261-0.759-0.374-1.374-0.449c-0.824,0-1.643,0.015-2.457,0.044
			c-1.098,0.031-2.183,0.18-3.283,0.051c-2.96-0.351-2.757-1.376-2.923-4.477c-0.385-7.404,2.974-8.203,2.974-15.998
			c0-8.204-3.961-12.398-3.801-25.21c0.025-2.015,0.841-2.856,5.074,0.262c2.819,1.418,5.526,2.422,8.273,3.037
			c2.571,0.581,2.817,0.802,2.852-1.033c0.024-0.979,0.204-1.497,0.529-2.419c1.33-3.714,2.05-7.854,2.342-12.855
			c0.155-2.672,0.127-5.221,0.131-7.901c0-2.812,0.049-6.117,0.292-7.196c0.841-3.09,1.378-4.891,2.687-7.812
			c1.01-1.992,5.241-8.629,0.325-8.23c-2.356,0.188-2.22,2.797-2.438,4.706c-0.087,0.869-0.818,6.085-1.154,7.03
			c-0.346,0.939-0.208,1.282-1.006,1.066c-0.838-0.238-1.077-4.97-0.897-6.987c0.118-1.482,0.519-3.628-0.482-4.919
			c-1.008-1.307-3.446-0.548-4.194,0.794c-1.024,1.83,3.127,9.307,3.565,10.466c0.506,1.626,0.302,3.301-0.13,3.917
			c-0.209,0.284-0.606,0.392-1.281,0.29c-0.976-0.149-2.022-0.29-2.672-1.003c-2.793-3.056-4.9-2.468-5.612-1.245
			c-0.623,1.062-0.042,2.813,0.695,3.693c1.478,1.778,4.441-2.587,8.698,1.551c1.294,1.251,1.348,2.328,1.323,3.773
			c-0.052,2.565,0.085,5.156-0.042,7.709c-0.224,4.613-1.543,8.922-3.585,12.959c-2.895-0.876-5.748-2.049-8.557-3.414
			c-3.839-1.881-4.212-2.065-4.773-5.306c-0.345-1.995-0.67-2.659,1.807-2.432c14.72,1.353,10.685-1.3-0.985-2.151
			c-1.97-0.143-3.408-2.398-0.057-2.364c6.608,0.073,5.805-2.088-0.903-2.105c-2.385-0.004-3.695-1.527-0.422-1.896
			c12.997-1.466,9.769-3.342-1.122-1.952c-3.482,0.444-3.644-0.823-1.084-1.853c6.6-2.658,4.996-3.405-1.015-2.154
			c-2.381,0.496-4.772-1.207-1.02-2.522c15.683-5.482,10.537-6.106-1.438-1.661c-2.917,1.079-4.575,0.044-1.015-1.48
			c5.046-2.16,3.031-3.619-1.662-1.568c-2.81,1.225-4.538,0.61-1.212-1.524c17.684-11.34,9.71-9.038-1.721-1.292
			c-2.733,1.851-4.744,0.979-1.53-1.352c8.092-5.867,5.752-6.844-1.585-1.427c-3.143,2.32-5.068,1.722-1.817-1.653
			c17.321-17.969,6.482-10.296-2.111-0.674c-2.742,3.067-5.601,2.061-2.673-1.238c8.67-9.768,4.896-8.886-2.224-0.604
			c-2.15,2.497-4.719,2.773-2.361-0.769c11.087-16.65,5.307-12.177-2.056-0.563c-1.825,2.88-3.511,3.353-1.435-0.345
			c6.863-12.222,3.365-10.542-2.144-0.394c-1.549,2.854-2.357,3.694-0.943-0.263c8.445-23.642,1.838-12.429-2.156,0.112
			c-1.096,3.442-2.322,3.559-1.219-0.096c4.837-16.026,1.032-11.47-2.305,0.58c-0.646,2.327-0.999,2.678-0.797-0.102
			c1.803-24.798-0.969-18.631-2.011,0.164c-0.165,2.98-0.849,2.926-0.637-0.03c1.319-18.395-1.362-13.082-2.071,0.455
			c-0.16,3.059-1.286,3.176-1.502-0.082c-1.487-22.389-3.213-14.268-1.993,0.346c0.312,3.724-0.586,3.815-1.03,0.138
			c-1.786-14.851-3.577-10.874-1.949,1.004c0.374,2.727,0.258,3.633-0.839,0.151c-7.841-24.871-5.956-10.971-1.719,1.167
			c1.05,3.009,0.056,2.958-0.93,0.326c-7.056-18.813-6.946-12.014-1.766,1.063c1.021,2.579,0.488,2.5-0.791,0.324
			c-11.491-19.574-11.349-15.363-1.825,0.84c1.811,3.079,0.144,3.711-1.498,1.084c-9.648-15.403-9.255-10.59-1.686,1.15
			c1.941,3.008,0.617,3.36-1.512,0.879c-15.052-17.547-11.4-9.937-1.526,1.309c2.753,3.137,1.494,3.338-1.028,0.651
			c-10.354-11.036-9.866-7.241-1.139,1.783c2.519,2.602,1.61,3.459-1.137,1.13c-12.67-10.749-11.982-7.312-1.479,1.432
			c3.134,2.605,2.388,3.565-0.877,1.424c-17.113-11.23-12.804-5.666-0.794,1.897c2.975,1.87,2.037,3.142-0.738,1.604
			c-12.573-6.972-11.859-4.088-1.056,1.773c2.744,1.488,2.418,2.695-0.266,1.668c-16.795-6.436-16.689-4.355-1.708,1.52
			c5.176,2.029,1.459,2.142,0.545,9.443C45.364,99.208,44.301,97.559,38.093,102.941z"/>
		<path style="fill-rule:evenodd;clip-rule:evenodd;fill:#FFFFFF;" d="M115.202,124.855l-3.953,0.334l-0.309-3.66
			c-0.078-0.867,0.576-1.639,1.441-1.713l0.787-0.069c0.873-0.072,1.646,0.576,1.723,1.444L115.202,124.855z"/>
		<path style="fill-rule:evenodd;clip-rule:evenodd;fill:#FFFFFF;" d="M109.239,126.478l-3.944,0.337l-0.313-3.663
			c-0.075-0.869,0.571-1.639,1.441-1.712l0.792-0.063c0.869-0.074,1.641,0.57,1.715,1.441L109.239,126.478z"/>
		<path style="fill-rule:evenodd;clip-rule:evenodd;fill:#FFFFFF;" d="M66.393,130.139l-3.949,0.334l-0.315-3.662
			c-0.075-0.867,0.575-1.638,1.45-1.713l0.79-0.066c0.864-0.072,1.642,0.574,1.712,1.446L66.393,130.139z"/>
		<path style="fill-rule:evenodd;clip-rule:evenodd;fill:#FFFFFF;" d="M72.616,130.839l-3.955,0.344l-0.311-3.662
			c-0.077-0.869,0.574-1.639,1.449-1.714l0.788-0.067c0.865-0.078,1.641,0.577,1.713,1.449L72.616,130.839z"/>
		<path style="fill-rule:evenodd;clip-rule:evenodd;fill:#FFFFFF;" d="M103.175,128.236l-3.951,0.335l-0.315-3.663
			c-0.066-0.871,0.574-1.642,1.451-1.715l0.791-0.065c0.865-0.08,1.64,0.571,1.71,1.442L103.175,128.236z"/>
		<path style="fill-rule:evenodd;clip-rule:evenodd;fill:#FFFFFF;" d="M97.558,128.895l-3.953,0.339l-0.31-3.663
			c-0.072-0.869,0.573-1.641,1.441-1.715l0.79-0.065c0.873-0.073,1.647,0.573,1.72,1.443L97.558,128.895z"/>
		<path style="fill-rule:evenodd;clip-rule:evenodd;fill:#FFFFFF;" d="M78.684,130.511l-3.953,0.328l-0.311-3.65
			c-0.074-0.872,0.574-1.646,1.443-1.722l0.79-0.066c0.868-0.077,1.637,0.578,1.712,1.442L78.684,130.511z"/>
		<path style="fill-rule:evenodd;clip-rule:evenodd;fill:#FFFFFF;" d="M85.239,130.316l-3.949,0.341l-0.31-3.667
			c-0.072-0.866,0.572-1.64,1.443-1.714l0.792-0.074c0.867-0.065,1.647,0.581,1.717,1.449L85.239,130.316z"/>
		<path style="fill-rule:evenodd;clip-rule:evenodd;fill:#FFFFFF;" d="M90.996,129.825l-3.948,0.338l-0.314-3.661
			c-0.074-0.867,0.577-1.641,1.447-1.717l0.789-0.066c0.866-0.076,1.637,0.578,1.713,1.448L90.996,129.825z"/>
		<path style="fill-rule:evenodd;clip-rule:evenodd;fill:#FFFFFF;" d="M60.304,129.542l-3.947,0.336l-0.314-3.662
			c-0.076-0.868,0.574-1.641,1.444-1.711l0.79-0.073c0.873-0.071,1.643,0.576,1.717,1.45L60.304,129.542z"/>
		<path style="fill-rule:evenodd;clip-rule:evenodd;" d="M51.818,130.85c-0.617,0.014-1.141-0.466-1.191-1.066
			c-0.057-0.6,0.396-1.101,1.004-1.107c11.079,0.255,22.227,1.324,33.233,0.383c11-0.935,21.807-3.886,32.694-6.016
			c0.602-0.088,1.126,0.326,1.175,0.918c0.052,0.604-0.394,1.166-0.987,1.261c-10.895,2.129-21.691,5.074-32.699,6.014
			C74.047,132.174,62.899,131.102,51.818,130.85z"/>
		<circle style="fill-rule:evenodd;clip-rule:evenodd;fill:#FFFFFF;" cx="78.631" cy="89.486" r="24.823"/>
		<circle style="fill-rule:evenodd;clip-rule:evenodd;" cx="64.698" cy="79.933" r="3.646"/>
	</g>
</g>
<g id="Layer_1">
</g>
</svg>
