<?xml version="1.0" encoding="iso-8859-1"?>
<!-- Generator: Adobe Illustrator 16.0.0, SVG Export Plug-In . SVG Version: 6.00 Build 0)  -->
<!DOCTYPE svg PUBLIC "-//W3C//DTD SVG 1.1//EN" "http://www.w3.org/Graphics/SVG/1.1/DTD/svg11.dtd">
<svg version="1.1" xmlns="http://www.w3.org/2000/svg" xmlns:xlink="http://www.w3.org/1999/xlink" x="0px" y="0px" width="150px"
	 height="150px" viewBox="0 0 150 150" style="enable-background:new 0 0 150 150;" xml:space="preserve">
<g id="_x30_3_x5F_05_x5F_black">
	<rect style="fill:none;" width="150" height="150"/>
	<g>
		<path d="M63.143,149c-1.637,0-2.969-1.33-2.969-2.966c0-2.526,0.02-4.723,0.038-6.67c0.078-8.606,0.111-12.169-1.757-17.885
			c-0.543-1.662-1.616-4.949-2.251-5.893c-0.344,0.407-0.882,1.315-1.367,2.135c-0.75,1.268-1.684,2.846-2.972,4.624l-0.308,0.426
			l-0.014,0.014c-0.217,0.294-0.507,0.673-0.862,1.137c-1.494,1.953-4.603,6.016-5.121,7.155c-1.089,2.701-1.682,4.301-2.334,7.111
			c-0.031,0.178-0.075,0.469-0.125,0.804c-0.417,2.782-1.046,6.986-3.726,6.986c-0.704,0-1.434-0.333-2.17-0.99
			c-2.062-1.836-0.599-4.139,0.276-5.516c0.129-0.203,0.256-0.403,0.373-0.599c0.402-0.666,1.748-3.091,2.495-4.57
			c-0.846,0.896-1.844,2.132-2.434,3.074c-0.108,0.17-0.214,0.342-0.324,0.521c-0.777,1.268-1.743,2.844-3.383,3.291
			c-0.219,0.059-0.44,0.088-0.662,0.088c-0.83,0-1.638-0.404-2.276-1.14c-0.745-0.859-1.121-2.008-0.98-2.999
			c0.246-1.718,3.044-3.442,7.795-5.842c0.569-0.287,1-0.502,1.186-0.618c0.965-0.692,1.493-1.636,1.607-2.034
			c-0.048-0.038-0.125-0.092-0.245-0.156l-0.095-0.052c-0.558-0.3-1.135-0.61-1.604-0.61c-0.059,0-0.119,0.005-0.179,0.016
			c-0.663,0.122-1.288,0.184-1.858,0.184c-1.926,0-2.947-0.694-3.464-1.276c-0.548-0.617-0.808-1.433-0.712-2.237
			c0.205-1.723,2.087-2.912,3.358-3.206c0.17-0.039,0.341-0.059,0.507-0.059c1.157,0,1.809,0.896,2.385,1.686
			c0.771,1.058,1.568,2.152,3.665,2.152c0.27,0,0.558-0.019,0.867-0.056c1.33-0.164,1.74-0.731,2.557-1.861
			c0.243-0.336,0.505-0.698,0.815-1.081c0.378-0.468,1.062-1.445,1.065-1.45l0.227-0.301c0.184-0.244,0.392-0.52,0.638-0.825
			c1.096-1.331,2.083-2.964,2.94-4.859c2.087-4.61,1.975-4.867,0.599-8.009c-0.319-0.729-0.697-1.595-1.122-2.67
			c-0.513-1.298-0.875-2.441-1.165-3.361c-0.884-2.799-1.131-3.248-2.576-3.248c-0.807,0-1.952,0.195-3.603,0.613
			c-2.633,0.667-4.566,1.833-6.268,3.782c-1.196,1.371-2.213,3-3.022,4.844c-1.028,2.339-1.028,2.339-0.306,3.308
			c0.216,0.29,0.473,0.636,0.77,1.071c2.157,3.171,1.334,7.505-1.834,9.661c-1.159,0.791-2.512,1.209-3.911,1.209
			c-2.306,0-4.457-1.137-5.753-3.041c-2.158-3.169-1.336-7.504,1.832-9.662c1.681-1.145,1.775-1.408,2.299-2.869
			c0.168-0.47,0.372-1.036,0.667-1.748c1.108-2.689,2.563-5.075,4.322-7.092c2.543-2.912,6.118-4.096,9.279-4.87
			c1.201-0.294,2.19-0.446,2.985-0.569c0.875-0.135,1.702-0.263,1.858-0.479c0.297-0.411-0.025-2.312-0.13-2.936
			c-0.175-1.033-0.313-2.042-0.409-2.998l-0.063-0.666c-0.073-0.784-0.156-1.674-0.297-1.856c0,0.001,0,0.001-0.001,0.001
			c-0.012,0-0.115-0.035-0.38-0.035c-0.499,0-1.262,0.117-2.255,0.292c-1.795,0.32-3.61,0.953-5.395,1.879
			c-2.268,1.179-2.268,1.179-2.313,2.385c-0.014,0.36-0.03,0.79-0.071,1.315c-0.289,3.588-3.332,6.398-6.927,6.398
			c-0.187,0-0.375-0.008-0.564-0.022c-3.822-0.307-6.682-3.667-6.376-7.491c0.29-3.587,3.332-6.396,6.926-6.396
			c0.187,0,0.375,0.008,0.563,0.022c0.44,0.035,0.808,0.055,1.126,0.054c1.076,0,1.398-0.196,2.466-0.849
			c0.425-0.26,0.936-0.572,1.608-0.94c2.561-1.401,5.192-2.347,7.82-2.812c0.349-0.063,0.705-0.093,1.088-0.093
			c0.663,0,1.272,0.093,1.81,0.174c0.392,0.059,0.762,0.114,1.045,0.114c0.337,0,0.476,0,0.619-0.619
			c0.11-0.469,0.232-0.923,0.367-1.361c0.08-0.259,0.132-0.451,0.167-0.592c-0.084-0.009-0.173-0.018-0.254-0.026
			c-0.348-0.035-0.771-0.079-1.273-0.164c-3.025-0.513-5.504-0.751-7.801-0.751c-1.046,0-2.033,0.05-3.019,0.151
			c-5.198,0.537-10.304,2.513-18.209,7.05c-0.427,0.245-0.798,0.457-0.985,0.584c0,0.014,0,0.028,0,0.043
			c0.004,0.304,0.011,0.763-0.111,1.481c-0.524,3.087-3.07,5.453-6.19,5.756c-0.227,0.022-0.451,0.032-0.673,0.032
			c-3.597,0-6.571-2.702-6.918-6.286c-0.178-1.85,0.374-3.658,1.554-5.092c1.182-1.435,2.85-2.322,4.699-2.499
			c0.229-0.022,0.459-0.034,0.688-0.034c0.688,0,1.369,0.103,2.024,0.304c0.433,0.134,0.763,0.252,1.029,0.348
			c0.25,0.09,0.509,0.183,0.587,0.183c0.129,0,0.693-0.321,1.29-0.662l0.174-0.099c8.43-4.797,14.334-7.008,20.38-7.633
			c1.229-0.127,2.447-0.189,3.726-0.189c2.93,0,6.108,0.332,10.001,1.043c0.303,0.056,0.648,0.152,1.009,0.256
			c0.498,0.142,1.062,0.304,1.458,0.303c0.154,0,0.246-0.025,0.268-0.05c0.128-0.146,0.215-0.259,0.273-0.344
			c-0.19-0.097-0.465-0.211-0.685-0.303l-0.247-0.104c-2.279-0.961-4.34-1.667-6.487-2.221c-1.074-0.275-2.146-0.51-3.276-0.718
			c-0.557-0.103-1.046-0.205-1.484-0.296c-0.903-0.188-1.555-0.324-2.091-0.324c-0.681,0-1.291,0.203-2.563,1.276
			c-1.25,1.053-2.841,1.633-4.48,1.633l-0.16-0.002c-3.834-0.09-6.88-3.283-6.791-7.117c0.088-3.745,3.204-6.791,6.946-6.791
			l0.17,0.002c2.154,0.048,4.131,1.07,5.421,2.804c1.241,1.67,1.617,1.715,3.424,1.93c0.539,0.064,1.169,0.14,1.935,0.272
			c1.62,0.278,3.115,0.596,4.571,0.97c2.289,0.589,3.926,1.142,5.121,1.546c1.121,0.379,1.931,0.653,2.417,0.652
			c0.62,0,1.12-0.636,2.759-2.84c0.558-0.75,1.227-1.651,2.058-2.722C65.29,45.82,77.021,40.072,89.69,40.072
			c22.457,0,40.728,18.271,40.728,40.729c0,8.07-2.514,16.077-7.47,23.799c-0.311,0.483-0.605,0.934-0.882,1.355
			c-3.147,4.807-3.477,5.31,2.114,10.148c0.3,0.264,0.551,0.5,0.772,0.71l0.248,0.233c0.039,0.038,0.884,0.892,1.323,1.275
			c0.371,0.328,0.688,0.64,0.983,0.93c0.956,0.939,1.436,1.411,2.613,1.411c0.072,0,0.146-0.002,0.223-0.006
			c2.775-0.13,3.455-1.5,4.113-2.825c0.463-0.934,1.04-2.095,2.439-2.095l0.141,0.005c1.302,0.076,3.355,0.931,3.847,2.593
			c0.257,0.872,0.084,1.799-0.475,2.545c-0.599,0.801-1.909,1.756-4.75,1.756l-0.162-0.001c-0.521,0-1.073,0.431-1.657,0.887
			l-0.091,0.07c-0.104,0.082-0.17,0.146-0.21,0.191c0.18,0.372,0.865,1.215,1.984,1.758c0.121,0.048,0.661,0.214,1.233,0.391
			c5.077,1.565,8.119,2.794,8.646,4.444c0.335,1.043,0.076,2.408-0.644,3.396c-0.596,0.817-1.409,1.267-2.291,1.267l0,0
			c-0.08,0-0.16-0.004-0.242-0.012c-1.692-0.165-2.911-1.556-3.89-2.673c-0.139-0.158-0.271-0.311-0.399-0.451
			c-0.744-0.836-1.939-1.89-2.926-2.632c0.979,1.325,2.703,3.477,3.227,4.085c0.149,0.175,0.309,0.351,0.471,0.53
			c1.093,1.209,2.923,3.233,1.198,5.391c-0.725,0.91-1.513,1.372-2.343,1.372c-2.406,0-3.652-3.787-4.477-6.294
			c-0.106-0.321-0.197-0.601-0.275-0.815c-1.095-2.612-1.948-4.089-3.501-6.606c-0.675-0.994-4.399-4.458-6.189-6.122
			c-0.508-0.473-0.909-0.846-1.13-1.058l-0.337-0.331c-1.533-1.502-2.531-2.817-3.333-3.875c-1.003-1.322-1.51-1.958-2.084-1.958
			c-0.841,0-2.402,1.081-3.504,1.894c-3.892,2.869-6.938,5.363-7.813,9.142c-1.047,4.504-0.395,10.765,0.13,15.796
			c0.075,0.727,0.149,1.434,0.216,2.113c1.717-0.12,3.478-0.254,5.223-0.387c5.16-0.393,10.033-0.763,13.38-0.763
			c3.733,0,5.058,1.746,5.058,3.242c0,1.912-2.163,3.944-6.172,3.944H103.31c-1.636,0-2.969-1.331-2.972-2.968
			c0-7.558-0.264-13.783-1.573-21.467c-0.471-2.748-0.716-2.748-1.625-2.748c-0.419,0-0.919,0.042-1.523,0.092
			c-0.996,0.082-2.235,0.184-3.841,0.184c-1.089,0-2.306-0.056-3.72-0.17c-1.675-0.064-3.396-0.238-5.07-0.517
			c-2.58-0.28-5.137-0.539-7.44-0.539c-4.314,0-7.004,0.933-8.467,2.936c-3.375,4.629-2.548,13.449-2.001,19.287l0.028,0.305
			c1.721-0.121,3.486-0.255,5.234-0.388c5.154-0.393,10.022-0.763,13.367-0.763c3.732,0,5.058,1.746,5.058,3.241
			c0,1.912-2.164,3.944-6.173,3.944H63.143z"/>
		<path style="fill:#FFFFFF;" d="M89.69,41.072c21.938,0,39.728,17.791,39.728,39.729c0,8.466-2.791,16.217-7.312,23.259
			c-3.94,6.135-5.363,6.929,1.42,12.8c0.4,0.353,0.72,0.665,0.994,0.92c0,0,0.873,0.883,1.346,1.296
			c1.604,1.417,2.221,2.588,4.255,2.588c0.087,0,0.177-0.003,0.27-0.007c5.444-0.255,4.467-4.919,6.506-4.918
			c0.026,0,0.055,0,0.082,0.002c1.067,0.063,2.622,0.781,2.946,1.878c0.366,1.244-0.542,3.018-4.266,3.018
			c-0.05,0-0.1,0-0.149-0.001c-0.009,0-0.017,0-0.025,0c-0.89,0-1.638,0.613-2.35,1.168c-0.507,0.4-0.683,0.744-0.621,1.057
			c0.138,0.687,1.148,1.89,2.573,2.581c1.063,0.439,8.771,2.383,9.364,4.24c0.422,1.313-0.535,3.357-1.982,3.357
			c-0.049,0-0.098-0.002-0.147-0.007c-1.51-0.147-2.709-1.776-3.646-2.803c-1.166-1.311-4.164-3.874-5.129-3.874
			c-0.07,0-0.131,0.014-0.178,0.043c-0.655,0.401-0.338,0.522,0.087,1.355c0.422,0.826,3.497,4.642,4.024,5.255
			c1.162,1.36,3.021,2.925,1.646,4.645c-0.561,0.704-1.081,0.996-1.562,0.996c-1.961,0-3.243-4.883-3.813-6.451
			c-1.149-2.746-2.028-4.259-3.59-6.79c-0.954-1.409-6.399-6.34-7.477-7.375l-0.011-0.011l-0.006-0.005l-0.005-0.004
			c-0.061-0.056-0.103-0.1-0.131-0.128v-0.005l-0.183-0.177c-3.579-3.506-4.247-6.113-6.112-6.113c-0.915,0-2.119,0.628-4.098,2.088
			c-3.937,2.902-7.225,5.541-8.193,9.721c-1.308,5.63-0.091,13.558,0.416,19.199c6.952-0.469,14.841-1.214,19.507-1.214
			c6.103,0,4.989,5.187-1.114,5.187c-5.999,0-15.393,0-19.446,0c-1.09,0-1.97-0.874-1.972-1.97c0-7.738-0.289-14.018-1.588-21.633
			c-0.511-2.979-0.964-3.58-2.61-3.58c-1.114,0-2.773,0.275-5.364,0.275c-1.164,0-2.386-0.065-3.639-0.167
			c-1.693-0.065-3.356-0.235-4.987-0.506c-2.606-0.285-5.209-0.553-7.604-0.553c-3.969,0-7.368,0.735-9.274,3.346
			c-3.862,5.296-2.609,15.258-2.071,21.246c6.952-0.469,14.84-1.215,19.507-1.215c6.102,0,4.988,5.186-1.115,5.186
			c-5.999,0-15.392,0-19.448,0c-1.087,0-1.969-0.873-1.969-1.966c0-13.657,0.584-17.663-1.769-24.865
			c-1.579-4.835-2.354-6.74-3.169-6.74c-1.053,0-2.174,3.178-5.181,7.33l-0.149,0.204l-0.001,0.003
			c-0.022,0.033-0.057,0.084-0.106,0.149l-0.005,0.005l-0.004,0.005l-0.009,0.014c-0.889,1.199-5.427,6.976-6.131,8.524
			c-1.113,2.759-1.725,4.398-2.398,7.299c-0.308,1.697-0.769,7.017-2.876,7.017c-0.429,0-0.926-0.221-1.504-0.736
			c-1.644-1.464-0.076-3.318,0.841-4.855c0.418-0.692,2.806-4.971,3.084-5.855c0.28-0.895,0.57-1.065-0.142-1.351
			c-0.032-0.013-0.068-0.02-0.108-0.02c-0.888,0-3.524,3.159-4.48,4.687c-0.751,1.172-1.658,2.978-3.122,3.377
			c-0.134,0.036-0.267,0.053-0.398,0.053c-1.32,0-2.448-1.715-2.266-2.998c0.275-1.929,7.545-5.143,8.521-5.752
			c1.288-0.922,2.081-2.278,2.101-2.979c0.009-0.319-0.221-0.629-0.789-0.938c-0.692-0.372-1.42-0.784-2.178-0.784
			c-0.12,0-0.24,0.01-0.361,0.032c-0.627,0.115-1.184,0.167-1.676,0.167c-2.478,0-3.312-1.309-3.183-2.396
			c0.135-1.137,1.547-2.108,2.59-2.35c0.099-0.022,0.192-0.033,0.282-0.033c1.679,0,1.805,3.838,6.049,3.838
			c0.307,0,0.636-0.021,0.989-0.063c2.238-0.275,2.625-1.57,4.028-3.307c0.393-0.486,1.106-1.504,1.106-1.504
			c0.228-0.298,0.49-0.656,0.825-1.073c1.174-1.426,2.205-3.155,3.072-5.074c2.764-6.104,1.845-5.506-0.504-11.458
			c-1.917-4.847-1.583-7.242-4.671-7.242c-0.925,0-2.157,0.215-3.848,0.644c-2.358,0.598-4.672,1.686-6.775,4.094
			c-1.277,1.464-2.346,3.189-3.185,5.1c-1.514,3.443-1.18,2.801,0.553,5.345c1.848,2.717,1.147,6.421-1.571,8.271
			c-1.026,0.699-2.192,1.035-3.348,1.035c-1.903,0-3.774-0.911-4.926-2.604c-1.85-2.718-1.148-6.423,1.568-8.273
			c2.525-1.72,2.068-2.019,3.327-5.062c1.052-2.552,2.448-4.864,4.152-6.816c2.284-2.615,5.484-3.753,8.764-4.556
			c5.114-1.253,6.351,0.138,5.461-5.123c-0.171-1.012-0.305-1.992-0.399-2.931c-0.255-2.579-0.182-3.457-1.737-3.457
			c-0.564,0-1.343,0.116-2.429,0.308c-1.916,0.342-3.83,1.015-5.682,1.976c-3.338,1.735-2.677,1.438-2.921,4.509
			c-0.25,3.114-2.857,5.478-5.93,5.478c-0.16,0-0.322-0.007-0.484-0.02c-3.277-0.263-5.722-3.137-5.459-6.414
			c0.251-3.112,2.858-5.477,5.93-5.477c0.16,0,0.321,0.007,0.483,0.02c0.472,0.038,0.866,0.058,1.207,0.058
			c1.856,0,2.117-0.577,4.555-1.913c2.424-1.326,4.963-2.253,7.514-2.704c0.311-0.055,0.615-0.077,0.914-0.077
			c1.086,0,2.075,0.288,2.855,0.288c0.77,0,1.336-0.28,1.593-1.395c0.104-0.443,0.22-0.875,0.348-1.291
			c0.679-2.219,0.147-1.673-2.148-2.063c-2.924-0.495-5.52-0.766-7.969-0.766c-1.063,0-2.099,0.051-3.121,0.157
			c-5.516,0.569-10.917,2.766-18.604,7.178c-2.13,1.221-1.227,0.697-1.584,2.809c-0.439,2.585-2.563,4.662-5.301,4.928
			c-0.194,0.019-0.386,0.027-0.577,0.027c-3.032,0-5.625-2.303-5.923-5.383c-0.315-3.273,2.081-6.186,5.353-6.498
			c0.199-0.02,0.397-0.029,0.593-0.029c0.599,0,1.18,0.09,1.729,0.26c1.092,0.338,1.504,0.575,1.912,0.575
			c0.417,0,0.829-0.249,1.959-0.893c8.043-4.577,13.845-6.872,19.988-7.507c1.198-0.124,2.399-0.184,3.623-0.184
			c3.034,0,6.208,0.367,9.822,1.027c0.757,0.139,1.806,0.575,2.646,0.575c0.408,0,0.768-0.103,1.021-0.392
			c1.299-1.479,0.4-1.729-1.023-2.33c-2.338-0.986-4.45-1.707-6.627-2.268c-1.081-0.277-2.184-0.52-3.344-0.733
			c-1.749-0.324-2.826-0.637-3.756-0.637c-1.016,0-1.857,0.373-3.207,1.511c-1.038,0.875-2.379,1.398-3.835,1.398
			c-0.046,0-0.092,0-0.138-0.001c-3.287-0.077-5.89-2.807-5.814-6.094c0.077-3.239,2.724-5.814,5.946-5.814
			c0.048,0,0.098,0.001,0.146,0.002c1.908,0.042,3.585,0.98,4.643,2.402c1.915,2.577,2.578,2,5.99,2.59
			c1.567,0.27,3.037,0.579,4.493,0.953c4.652,1.196,6.526,2.23,7.788,2.23c1.51,0,2.14-1.484,5.606-5.949
			C65.564,47.097,76.925,41.072,89.69,41.072 M89.69,39.072c-12.98,0-24.999,5.889-32.975,16.157c-0.839,1.082-1.522,2-2.071,2.739
			c-0.842,1.133-1.639,2.206-1.982,2.436c-0.356-0.02-1.189-0.301-2.07-0.599c-1.21-0.409-2.868-0.969-5.192-1.567
			c-1.482-0.381-3.004-0.704-4.652-0.987c-0.794-0.137-1.455-0.216-1.985-0.279c-1.689-0.201-1.755-0.209-2.739-1.533
			c-1.477-1.984-3.738-3.154-6.204-3.208l-0.19-0.002c-4.28,0-7.845,3.484-7.946,7.767c-0.081,3.509,2.133,6.548,5.266,7.676
			c-3.993,1.246-8.315,3.255-13.611,6.268l-0.175,0.1c-0.317,0.181-0.641,0.366-0.852,0.475c-0.063-0.022-0.13-0.046-0.192-0.068
			c-0.277-0.1-0.622-0.223-1.072-0.362c-0.75-0.232-1.531-0.349-2.319-0.349c-0.262,0-0.527,0.013-0.79,0.039
			c-2.108,0.201-4.018,1.216-5.369,2.857c-1.351,1.64-1.982,3.708-1.778,5.822c0.397,4.101,3.799,7.191,7.913,7.191
			c0.255,0,0.514-0.012,0.769-0.036c3.57-0.347,6.481-3.054,7.081-6.584c0.078-0.462,0.109-0.835,0.121-1.129
			c0.145-0.084,0.307-0.177,0.466-0.269c7.794-4.473,12.789-6.414,17.835-6.935c0.951-0.098,1.905-0.146,2.916-0.146
			c2.239,0,4.666,0.234,7.635,0.737c0.143,0.024,0.278,0.045,0.407,0.063c-0.063,0.227-0.123,0.458-0.179,0.692
			c-0.173-0.021-0.374-0.051-0.582-0.082c-0.544-0.082-1.221-0.184-1.959-0.184c-0.443,0-0.856,0.035-1.264,0.107
			c-2.733,0.484-5.467,1.465-8.124,2.918c-0.698,0.383-1.226,0.705-1.65,0.965c-1.041,0.636-1.15,0.703-1.944,0.703
			c-0.277,0-0.62-0.018-1.047-0.051c-0.215-0.018-0.43-0.026-0.643-0.026c-4.111,0-7.592,3.213-7.923,7.315
			c-0.35,4.375,2.922,8.219,7.293,8.568c0.215,0.018,0.431,0.026,0.644,0.026c4.113,0,7.594-3.214,7.924-7.317
			c0.043-0.544,0.06-0.988,0.074-1.359c0.007-0.192,0.016-0.417,0.028-0.574c0.333-0.225,1.107-0.628,1.748-0.961
			c1.694-0.879,3.414-1.479,5.111-1.781c0.602-0.106,1.207-0.207,1.663-0.252c0.035,0.285,0.067,0.634,0.097,0.959l0.064,0.671
			c0.099,0.98,0.239,2.012,0.418,3.067c0.194,1.146,0.24,1.749,0.239,2.063c-0.3,0.067-0.75,0.137-1.134,0.196
			c-0.814,0.126-1.827,0.282-3.071,0.587c-3.313,0.811-7.067,2.061-9.794,5.183c-1.832,2.1-3.344,4.579-4.495,7.37
			c-0.305,0.735-0.514,1.32-0.683,1.79c-0.49,1.365-0.509,1.419-1.92,2.38c-3.624,2.47-4.563,7.427-2.096,11.052
			c1.483,2.178,3.942,3.479,6.58,3.479c1.293,0,2.551-0.313,3.686-0.908c-0.667,0.672-1.152,1.509-1.264,2.45
			c-0.129,1.089,0.219,2.189,0.957,3.02c0.653,0.735,1.914,1.612,4.211,1.612c0.631,0,1.316-0.067,2.038-0.2
			c0.122,0,0.349,0.095,0.59,0.212c-0.199,0.261-0.474,0.556-0.828,0.819c-0.179,0.102-0.646,0.338-1.063,0.548
			c-5.285,2.669-8.024,4.421-8.334,6.592c-0.181,1.271,0.285,2.726,1.214,3.797c0.831,0.957,1.907,1.484,3.031,1.484
			c0.309,0,0.618-0.041,0.918-0.121c0.283-0.077,0.549-0.18,0.798-0.303c-0.285,1.252-0.114,2.643,1.278,3.883
			c0.923,0.823,1.877,1.242,2.834,1.242c3.541,0,4.275-4.906,4.715-7.838c0.045-0.301,0.084-0.565,0.122-0.776
			c0.631-2.707,1.182-4.198,2.273-6.905c0.521-1.09,3.762-5.324,4.99-6.929c0.394-0.516,0.708-0.926,0.891-1.172l0.036-0.047
			c0.067-0.091,0.119-0.164,0.154-0.217l0.113-0.154c1.321-1.824,2.268-3.424,3.028-4.709c0.115-0.194,0.237-0.4,0.359-0.604
			c0.538,1.374,1.152,3.256,1.448,4.162c1.817,5.561,1.785,9.074,1.708,17.564c-0.018,1.951-0.038,4.15-0.038,6.68
			c0,2.187,1.781,3.966,3.969,3.966h19.448c4.659,0,7.173-2.547,7.173-4.944c0-2.111-1.873-4.241-6.058-4.241
			c-3.383,0-8.27,0.372-13.443,0.766c-1.417,0.107-2.846,0.216-4.253,0.317c-0.526-5.673-1.155-13.778,1.877-17.936
			c1.257-1.723,3.691-2.524,7.658-2.524c2.238,0,4.745,0.252,7.333,0.535c1.684,0.276,3.412,0.452,5.139,0.521
			c1.423,0.114,2.653,0.17,3.759,0.17c1.646,0,2.909-0.104,3.923-0.187c0.581-0.048,1.082-0.089,1.441-0.089
			c0.079,0,0.142,0.002,0.192,0.005c0.094,0.23,0.247,0.75,0.446,1.913c1.299,7.612,1.56,13.792,1.56,21.295
			c0.004,2.19,1.785,3.97,3.972,3.97h19.446c4.658,0,7.172-2.548,7.172-4.944c0-2.111-1.873-4.242-6.058-4.242
			c-3.385,0-8.276,0.372-13.456,0.766c-1.416,0.107-2.844,0.216-4.249,0.317c-0.038-0.377-0.078-0.762-0.119-1.151
			c-0.516-4.956-1.158-11.125-0.15-15.465c0.8-3.452,3.585-5.727,7.432-8.563c1.984-1.464,2.671-1.673,2.873-1.695
			c0.273,0.172,0.854,0.938,1.325,1.56c0.778,1.026,1.844,2.431,3.426,3.98l0.055,0.054l0.113,0.113
			c0.054,0.055,0.113,0.114,0.191,0.187l0.011,0.01c0.227,0.217,0.623,0.585,1.119,1.048c1.472,1.367,5.355,4.979,6.046,5.957
			c1.533,2.487,2.328,3.864,3.401,6.423c0.072,0.201,0.155,0.455,0.25,0.744c0.914,2.78,2.296,6.981,5.427,6.981
			c1.149,0,2.201-0.589,3.126-1.75c1.162-1.454,1.098-2.853,0.606-4.038c0.265,0.077,0.541,0.133,0.83,0.161
			c0.118,0.012,0.23,0.017,0.342,0.017c1.192,0,2.321-0.611,3.1-1.678c0.913-1.252,1.222-2.937,0.787-4.291
			c-0.667-2.086-3.656-3.353-9.304-5.094c-0.454-0.14-0.962-0.296-1.156-0.366c-0.394-0.2-0.715-0.444-0.954-0.668
			c0.222-0.158,0.438-0.296,0.547-0.307l0.171,0.001c3.254,0,4.814-1.173,5.551-2.157c0.749-1,0.979-2.249,0.634-3.425
			c-0.593-2.005-2.889-3.201-4.748-3.31c-0.066-0.004-0.133-0.006-0.197-0.007c-0.001,0-0.001,0-0.001,0
			c-2.021,0-2.844,1.659-3.336,2.649c-0.625,1.26-1.077,2.17-3.265,2.271c-0.061,0.003-0.119,0.005-0.176,0.005
			c-0.717,0-0.927-0.156-1.912-1.125c-0.293-0.288-0.626-0.614-1.019-0.962c-0.351-0.307-1.02-0.972-1.248-1.203l-0.029-0.03
			l-0.031-0.029l-0.241-0.227c-0.23-0.217-0.489-0.462-0.793-0.729c-1.813-1.57-3.899-3.507-4.043-4.65
			c-0.105-0.839,0.818-2.251,2.099-4.205c0.277-0.424,0.574-0.877,0.886-1.362c5.063-7.886,7.629-16.075,7.629-24.34
			C131.418,57.792,112.699,39.072,89.69,39.072L89.69,39.072z M34.96,66.102c1.076-0.874,1.43-0.874,1.717-0.874
			c0.433,0,1.075,0.134,1.887,0.303c0.445,0.093,0.941,0.196,1.505,0.3c0.537,0.099,1.059,0.204,1.575,0.316
			c-1.293-0.109-2.518-0.162-3.705-0.162C36.92,65.986,35.938,66.024,34.96,66.102L34.96,66.102z M34.745,108.848
			c0.118-0.385,0.468-1.183,0.759-1.843c0.769-1.751,1.73-3.295,2.86-4.589c1.56-1.786,3.336-2.856,5.76-3.471
			c1.546-0.392,2.645-0.582,3.357-0.582c0.771,0,0.817,0,1.622,2.55c0.295,0.935,0.663,2.097,1.189,3.428
			c0.432,1.095,0.822,1.986,1.136,2.702c1.31,2.991,1.31,2.991-0.593,7.195c-0.822,1.816-1.762,3.373-2.794,4.628
			c-0.268,0.333-0.482,0.616-0.671,0.868l-0.198,0.261l-0.026,0.033l-0.024,0.035c-0.188,0.268-0.737,1.04-1.023,1.395
			c-0.331,0.41-0.605,0.789-0.847,1.124c-0.817,1.131-0.999,1.348-1.869,1.454c-0.262,0.032-0.513,0.049-0.745,0.049
			c-1.588,0-2.12-0.73-2.856-1.741c-0.608-0.835-1.527-2.097-3.193-2.097c-0.242,0-0.488,0.028-0.732,0.085
			c-0.381,0.088-0.772,0.227-1.156,0.409c2.848-2.624,3.424-7.023,1.181-10.321c-0.308-0.451-0.573-0.809-0.795-1.106
			C34.969,109.158,34.834,108.978,34.745,108.848L34.745,108.848z"/>
	</g>
</g>
<g id="Layer_1">
</g>
</svg>
