<?xml version="1.0" encoding="iso-8859-1"?>
<!-- Generator: Adobe Illustrator 16.0.0, SVG Export Plug-In . SVG Version: 6.00 Build 0)  -->
<!DOCTYPE svg PUBLIC "-//W3C//DTD SVG 1.1//EN" "http://www.w3.org/Graphics/SVG/1.1/DTD/svg11.dtd">
<svg version="1.1" xmlns="http://www.w3.org/2000/svg" xmlns:xlink="http://www.w3.org/1999/xlink" x="0px" y="0px" width="150px"
	 height="150px" viewBox="0 0 150 150" style="enable-background:new 0 0 150 150;" xml:space="preserve">
<g id="_x30_4_x5F_01">
	<rect style="fill:none;" width="150" height="150"/>
	<g>
		<g>
			<path style="fill-rule:evenodd;clip-rule:evenodd;" d="M54.333,11.966c3.337-2.609,8.163-2.021,10.771,1.311
				c2.613,3.337,2.024,8.165-1.309,10.773c-3.338,2.615-8.162,2.023-10.773-1.309C50.409,19.402,50.998,14.576,54.333,11.966
				L54.333,11.966z"/>
			<path style="fill-rule:evenodd;clip-rule:evenodd;" d="M57.509,18.112c0.004,0.082,0.008,0.162,0.019,0.243
				C57.517,18.274,57.513,18.194,57.509,18.112z"/>
			<path style="fill-rule:evenodd;clip-rule:evenodd;fill:#C1A6CF;" d="M63.087,9.995c-7.232-3.809-17.081,4.786-11.017,13.49
				c14.201,10.621,18.189,18.75,18.417,27.887c0.117,4.805,0.07,7.326-3.223,10.997c-2.438,2.713-5.015,5.233-7.769,7.452
				c-3.979-3.478-7.295-7.563-9.562-12.463c-1.256-2.704-2.247-5.575-3.426-8.33c-0.66-1.555-1.073-2.744-0.225-4.667
				c2.799-6.351,7.921-2.919,8.742-5.495c0.413-1.273,0.274-3.423-0.863-4.305c-1.311-1.006-3.85-0.721-5.535,3.811
				c-0.392,1.059-1.464,1.668-2.45,2.257c-0.69,0.409-1.17,0.464-1.516,0.25c-0.74-0.476-1.692-2.203-1.861-4.187
				c-0.027-1.449,1.182-11.359-0.726-12.896c-1.396-1.124-4.375-0.874-4.894,0.979c-0.514,1.836,0.862,3.983,1.638,5.541
				c1.078,2.107,2.895,7.337,2.086,7.959c-0.769,0.584-0.769,0.154-1.55-0.714c-0.779-0.876-3.86-6.202-4.332-7.104
				c-1.073-1.971-2.071-4.857-4.708-4.029c-5.493,1.724,1.997,7.057,3.966,8.771c2.698,2.588,4.068,4.305,6.33,7.284
				c0.738,1.061,2.239,4.618,3.472,7.663c1.183,2.901,2.269,5.669,3.608,8.5c2.507,5.285,5.101,9.46,8.167,12.893
				c0.76,0.854,1.183,1.339,1.638,2.389c0.84,1.969,1.01,1.622,3.54-0.131c0.892-0.616,1.756-1.273,2.603-1.979
				c7.783-6.476,5.185-7.863,3.53,4.812c-0.235,1.792-0.442,3.659-0.61,5.607c-2.563,29.967,3.953,45.609,3.306,57.949
				c-0.252,4.789,0.061,6.373-4.512,6.906c-1.689,0.203-3.368-0.023-5.063-0.08c-1.256-0.043-2.517-0.063-3.791-0.063
				c-0.949,0.115-1.708,0.289-2.119,0.691c-0.969,0.932-0.568,1.506,0.15,1.832c0.765,0.334,1.537,0.303,2.317,0.158
				c0.769-0.141,1.459-0.223,2.144-0.273l0.261-0.027c0.1,0.094,0.229,0.168,0.37,0.229c0.629,0.285,1.263,0.26,1.902,0.137
				c0.637-0.113,1.205-0.186,1.767-0.223c0.947-0.078,1.914-0.109,2.901-0.104c1.526,0.104,3.039,0.262,4.486,0.469
				c0.914,0.125,1.924,0.242,2.721,0.086c0.996,0.119,2.041,0.156,2.576-0.359c0.924-0.898-0.658-1.836-1.07-2.42
				c-1.006-1.42-0.125-4.313,0.945-5.461c0.666-0.705,1.371-1.049,2.146-1.232c4.082,0.295,4.73,0.295,8.813,0
				c0.775,0.184,1.48,0.527,2.15,1.232c1.07,1.148,1.949,4.041,0.941,5.461c-0.41,0.584-1.994,1.521-1.066,2.42
				c0.531,0.516,1.576,0.479,2.574,0.359c0.799,0.156,1.807,0.039,2.723-0.086c1.445-0.207,2.955-0.365,4.484-0.469
				c0.984-0.006,1.953,0.025,2.902,0.104c0.561,0.037,1.127,0.109,1.764,0.223c0.639,0.123,1.275,0.148,1.904-0.137
				c0.143-0.061,0.27-0.135,0.371-0.229l0.262,0.027c0.684,0.051,1.373,0.133,2.141,0.273c0.779,0.145,1.555,0.176,2.318-0.158
				c0.717-0.326,1.117-0.9,0.15-1.832c-0.412-0.402-1.172-0.576-2.119-0.691c-1.273,0-2.535,0.02-3.791,0.063
				c-1.693,0.057-3.371,0.283-5.066,0.08c-14.521-1.693-2.08-40.91-0.127-47.928c3.5-12.589,3.176-26.535-0.215-39.78
				c-2.371-9.274-4.305-7.615,2.211-15.891c4.658,2.499,8.803,5.742,12.104,10.011c1.832,2.358,3.441,4.935,5.201,7.356
				c0.992,1.368,1.662,2.436,1.258,4.496c-1.305,6.815-7.064,4.616-7.291,7.31c-0.117,1.336,0.502,3.399,1.807,4.005
				c1.5,0.688,3.91-0.157,4.543-4.95c0.145-1.119,1.055-1.953,1.883-2.746c0.582-0.556,1.037-0.717,1.424-0.584
				c0.826,0.299,2.139,1.769,2.746,3.666c0.354,1.404,1.389,11.337,3.592,12.408c1.611,0.784,4.459-0.126,4.549-2.05
				c0.094-1.902-1.727-3.688-2.834-5.032c-1.518-1.814-4.459-6.505-3.811-7.293c0.617-0.74,0.715-0.322,1.672,0.351
				c0.953,0.679,5.145,5.183,5.807,5.956c1.49,1.681,3.105,4.272,5.49,2.874c4.967-2.904-3.523-6.431-5.82-7.663
				c-3.211-1.918-4.932-3.286-7.801-5.685c-0.957-0.868-3.215-4-5.096-6.693c-1.799-2.566-3.479-5.021-5.416-7.48
				c-3.625-4.592-7.086-8.08-10.84-10.742c-0.934-0.663-1.453-1.04-2.129-1.962c-1.264-1.729-1.352-1.356-3.426,0.917
				c-5.838,6.393-3.078,7.891-7.498-0.396C84.682,26.907,74.936,16.231,63.087,9.995z"/>
			<path style="fill-rule:evenodd;clip-rule:evenodd;fill:#FFFFFF;" d="M58.802,15.306l0.069-0.055l0,0l0.069-0.05l0.071-0.047
				l0.071-0.046l0.071-0.046l0.075-0.042l0.073-0.041l0,0l0.074-0.039l0,0l0.074-0.037l0.078-0.033l0.074-0.032l0,0l0.079-0.03
				l0.077-0.028l0.076-0.026h0.002l0.077-0.023h0.002l0.078-0.023l0.079-0.021l0,0l0.078-0.017l0.081-0.017l0.08-0.016l0,0
				l0.08-0.012l0.081-0.01l0.08-0.01l0.081-0.006l0.08-0.004l0,0l0.081-0.006l0,0h0.083h0.078l0.081,0.006l0.08,0.004l0.081,0.009
				l0.08,0.007l0,0l0.081,0.012l0.08,0.014l0,0l0.078,0.014l0.079,0.018l0.078,0.017l0,0l0.079,0.021l0,0l0.077,0.023l0.079,0.023
				l0,0l0.074,0.026h0.002l0.076,0.026l0.074,0.03l0.076,0.03l0.073,0.035h0.003l0.072,0.035l0.071,0.036l0.074,0.04l0.069,0.039
				l0.072,0.044l0.069,0.042l0.067,0.047l0.069,0.048l0.066,0.05l0.065,0.053l0.065,0.055l0.063,0.055l0.063,0.057l0.061,0.059
				l0.059,0.061l0.059,0.061l0.057,0.065l0.057,0.065l0.055,0.066c1.146,1.463,0.887,3.586-0.577,4.727
				c-1.463,1.146-3.58,0.889-4.725-0.577l-0.053-0.067l-0.053-0.069V19.89l-0.048-0.068l0,0l-0.048-0.073l-0.044-0.071l-0.044-0.074
				l0,0l-0.038-0.074l0,0l-0.04-0.074v-0.002l-0.035-0.074l-0.034-0.076l0,0l-0.033-0.076l0,0l-0.032-0.076v-0.002l-0.026-0.076
				l-0.051-0.156l-0.022-0.079v-0.002L57.6,18.756l0,0l-0.034-0.159l-0.013-0.081l0,0l-0.014-0.08l0,0l-0.012-0.08l0,0
				c-0.011-0.081-0.015-0.161-0.019-0.243l0,0l-0.002-0.08V18.03l-0.003-0.078v-0.003l0.003-0.08l0,0l0.002-0.081l0,0l0.004-0.08
				l0,0l0.009-0.08l0,0l0.009-0.079v-0.002l0.012-0.078l0.013-0.081l0.015-0.078v-0.002l0.015-0.078l0,0l0.021-0.079l0,0
				l0.018-0.077h0.002l0.022-0.078l0.002-0.002l0.021-0.076l0.025-0.075l0,0l0.029-0.077l0.029-0.076v-0.002l0.031-0.073
				l0.032-0.073v-0.002l0.035-0.071l0.039-0.073l0.039-0.072l0,0l0.039-0.072l0.044-0.069l0.044-0.069l0.048-0.068l0.047-0.067l0,0
				l0.049-0.067h0.002l0.05-0.065l0.057-0.065l0.053-0.063l0.059-0.062l0.059-0.061l0.062-0.061l0.061-0.057l0.065-0.057
				l0.065-0.057L58.802,15.306L58.802,15.306z M54.333,11.966c-3.336,2.61-3.925,7.437-1.311,10.775
				c2.611,3.332,7.436,3.924,10.773,1.309c3.333-2.608,3.922-7.437,1.309-10.773C62.497,9.944,57.67,9.356,54.333,11.966
				L54.333,11.966z"/>
			<path style="fill-rule:evenodd;clip-rule:evenodd;" d="M58.802,15.306c1.462-1.146,3.574-0.887,4.724,0.574
				c1.146,1.463,0.887,3.586-0.577,4.727c-1.463,1.146-3.58,0.889-4.725-0.577C57.074,18.563,57.334,16.45,58.802,15.306z"/>
		</g>
		<path style="fill-rule:evenodd;clip-rule:evenodd;fill:#FFFFFF;" d="M83.193,76.634l-3.807-0.311l-0.301,3.383
			c-0.07,0.8,0.555,1.513,1.396,1.58l0.76,0.064c0.84,0.067,1.58-0.532,1.652-1.334L83.193,76.634z"/>
		<path style="fill-rule:evenodd;clip-rule:evenodd;fill:#FFFFFF;" d="M77.324,77.189l-3.811-0.317l-0.303,3.385
			c-0.072,0.801,0.557,1.514,1.393,1.583l0.766,0.064c0.836,0.063,1.58-0.532,1.652-1.339L77.324,77.189z"/>
		<path style="fill-rule:evenodd;clip-rule:evenodd;" d="M69.133,75.982c-0.586-0.014-1.099,0.428-1.147,0.979
			c-0.048,0.558,0.377,1.012,0.971,1.027c5.941-0.131,11.902-0.498,17.848-0.645c0.555,0,1.004-0.45,1.004-1
			c0-0.554-0.449-1.003-1.004-1.003h-0.023l-0.027,0.004H86.75C80.881,75.497,74.998,75.852,69.133,75.982z"/>
	</g>
</g>
<g id="Layer_1">
</g>
</svg>
