<?xml version="1.0" encoding="iso-8859-1"?>
<!-- Generator: Adobe Illustrator 16.0.0, SVG Export Plug-In . SVG Version: 6.00 Build 0)  -->
<!DOCTYPE svg PUBLIC "-//W3C//DTD SVG 1.1//EN" "http://www.w3.org/Graphics/SVG/1.1/DTD/svg11.dtd">
<svg version="1.1" xmlns="http://www.w3.org/2000/svg" xmlns:xlink="http://www.w3.org/1999/xlink" x="0px" y="0px" width="150px"
	 height="150px" viewBox="0 0 150 150" style="enable-background:new 0 0 150 150;" xml:space="preserve">
<g id="_x30_4_x5F_02_x5F_black">
	<rect style="fill:none;" width="150" height="150"/>
	<g>
		<path d="M119.202,149c-1.067,0-1.845-0.248-2.376-0.759c-0.513-0.494-0.62-1.018-0.62-1.369c0.001-0.949,0.745-1.663,1.289-2.184
			c0.145-0.139,0.324-0.312,0.38-0.391c0.507-0.853-0.268-6.149-2.234-12.664c-1.098-3.613-1.612-3.834-2.5-3.936
			c-4.86-0.552-10.024-0.82-15.786-0.82c-7.193,0-14.479,0.422-21.525,0.829c-6.338,0.366-12.892,0.745-19.364,0.817l-0.197,0.001
			c-0.75,0-1.488-0.045-2.201-0.089c-0.638-0.039-1.258-0.078-1.84-0.078c-2.069,0-2.64,0.549-2.927,1.497
			c-1.519,5.001-2.561,13.225-2.021,14.386c0.047,0.063,0.174,0.172,0.306,0.298c0.505,0.485,1.196,1.149,1.198,2.051
			c0,0.339-0.102,0.841-0.59,1.313c-0.501,0.481-1.226,0.715-2.218,0.715c-0.563,0-1.145-0.072-1.645-0.14
			c-2.235-0.323-4.543-0.493-6.685-0.493c-0.932,0-1.835,0.032-2.687,0.096c-0.521,0.038-1.044,0.107-1.647,0.22
			c-0.379,0.069-0.698,0.101-1.007,0.101c-0.538,0-1.022-0.099-1.481-0.304c-0.839-0.382-1.096-0.938-1.165-1.339
			c-0.105-0.609,0.147-1.214,0.75-1.796c0.578-0.555,1.448-0.734,2.304-0.846l0.064-0.009h0.065c1.055,0,2.106,0.02,3.153,0.062
			c0.395,0.013,0.795,0.036,1.196,0.061c0.558,0.033,1.116,0.067,1.675,0.067c0.412,0,0.777-0.02,1.119-0.058
			c2.616-0.31,2.631-0.645,2.774-3.851l0.042-0.875c0.015-0.286,0.055-1.45,0.104-2.912c0.068-2.001,0.155-4.556,0.225-6.2
			c0.219-5.438-0.182-10.335-0.607-15.52c-0.562-6.853-1.143-13.938-0.194-22.451l0.087-0.786c0.204-1.828,0.38-3.405,0.442-4.539
			c0.018-0.317-0.004-0.507-0.026-0.611c-0.687,0.094-2.11,0.979-2.596,1.281c-2.301,1.433-4.335,3.081-5.882,4.766
			c-0.988,1.074-2.409,2.986-3.409,4.417c-0.266,0.383-0.527,0.719-0.769,1.029c-0.827,1.063-1.204,1.548-1.001,2.785
			c0.417,2.57,1.767,3.057,3.072,3.526c0.93,0.335,2.205,0.794,2.284,2.253c0.07,1.243-0.521,3.292-2.052,3.948
			c-0.347,0.146-0.706,0.218-1.074,0.218c-1.519,0-3.272-1.278-3.635-4.867c-0.048-0.467-0.546-0.967-1.028-1.45
			c-0.102-0.104-0.176-0.169-0.226-0.209c-0.316,0.218-1.01,0.946-1.384,2.016c-0.041,0.148-0.124,0.609-0.236,1.218
			c-0.923,4.961-1.754,7.966-3.273,8.646c-0.399,0.18-0.853,0.272-1.345,0.272c-1.632,0-3.416-1.074-3.451-2.81
			c-0.035-1.633,1.206-2.997,2.112-3.993c0.132-0.145,0.259-0.284,0.376-0.418c0.624-0.702,1.375-1.765,1.95-2.699
			c-1.127,1.074-2.712,2.679-3.211,3.215c-0.155,0.166-0.309,0.34-0.466,0.517c-0.862,0.976-1.935,2.189-3.418,2.189
			c-0.536,0-1.067-0.162-1.579-0.482c-1.383-0.864-1.625-1.824-1.583-2.479c0.123-1.945,2.774-3.329,5.48-4.579
			c0.292-0.135,0.545-0.252,0.739-0.349c2.302-1.281,3.55-2.206,5.841-4.006c0.802-0.698,3.469-4.302,4.345-5.485
			c0.384-0.52,0.747-1.038,1.106-1.553c0.86-1.23,1.75-2.503,2.873-3.684c4.109-4.313,6.062-7.148,7.95-9.892
			c2.716-3.946,5.282-7.673,13.878-14.861c6.148-5.135,6.232-5.858,6.776-10.566c0.132-1.139,0.295-2.556,0.573-4.288
			C63.46,32.045,72.673,12.73,89.854,12.73c1.346,0,2.74,0.12,4.146,0.356c4.697,0.784,6.495,4.826,6.192,8.484
			c-0.317,3.824-3.044,7.695-7.642,7.695c-0.851,0-1.742-0.134-2.65-0.399c-0.819-0.236-1.486-0.553-2.132-0.858
			c-0.56-0.266-1.088-0.516-1.702-0.709c-1.045-0.332-2.128-0.5-3.223-0.5c-7.719,0-13.999,8.37-13.999,18.658
			c0,5.484,0.775,10.133,2.242,13.443c1.694,3.825,4.274,5.764,7.667,5.763c1.267,0,2.672-0.266,4.178-0.789
			c4.475-1.554,6.472-3.654,8.784-6.085c1.722-1.81,3.673-3.862,6.871-5.793c2.781-1.681,6.156-2.57,9.76-2.57
			c6.823,0,14.743,3.443,17.054,11.136c0.667,2.221,1.021,4.817,1.082,7.936c0,4.839-2.143,9.352-5.878,12.398
			c-2.203,1.8-3.388,5.105-2.695,7.525c0.468,1.637,1.77,2.637,3.763,2.893c6.301,0.811,17.18,5.414,19.553,14.322
			c0.879,3.306,0.259,6.953-1.703,10.007c-0.336,0.604-1.031,1.01-1.784,1.01c-0.348,0-0.693-0.088-0.999-0.255
			c-0.5-0.279-0.853-0.728-1.003-1.267c-0.149-0.535-0.08-1.096,0.194-1.579l0.059-0.092c0.388-0.673,1.116-2.229,1.467-3.828
			c-0.634,0.844-1.532,1.588-2.805,1.984c-0.205,0.062-0.41,0.093-0.615,0.093c-0.907,0-1.707-0.582-1.989-1.447
			c-0.122-0.379-0.133-0.771-0.039-1.144c-0.242,0.326-0.413,0.579-0.493,0.702l-0.072,0.112c-0.381,0.596-1.032,0.952-1.74,0.952
			c-0.407,0-0.802-0.119-1.141-0.345c-0.453-0.288-0.775-0.751-0.894-1.293c-0.118-0.541-0.018-1.097,0.282-1.563l0.001,0.001
			c0.414-0.688,2.493-3.665,5.251-5.325c0.457-0.267,0.967-0.653,0.867-1.023c-0.575-2.129-9.06-5.083-12.444-5.083
			c-0.141,0-0.268,0.006-0.381,0.02c-1.321,0.076-1.63,0.346-1.694,0.427c-0.18,0.227-0.056,0.939-0.016,1.175
			c1.9,10.761,2.711,20.115,2.711,31.276c-0.041,1.193-0.041,2.199-0.001,3.111c0.09,2.231,0.215,4.357,0.291,5.667
			c0.032,0.539,0.056,0.941,0.065,1.158l0.047,0.979c0.162,3.515,0.183,3.966,3.146,4.315c0.372,0.043,0.775,0.063,1.229,0.063
			c0.619,0,1.238-0.038,1.857-0.075c0.442-0.026,0.884-0.054,1.327-0.067c1.045-0.043,2.146-0.063,3.456-0.063h0.061l0.061,0.008
			c0.927,0.113,1.87,0.301,2.495,0.903c0.637,0.615,0.903,1.25,0.793,1.886c-0.072,0.417-0.343,0.997-1.222,1.395
			c-0.5,0.224-1.023,0.331-1.604,0.331c-0.328,0-0.681-0.035-1.078-0.108c-0.669-0.124-1.249-0.202-1.829-0.246
			c-0.932-0.068-1.924-0.104-2.945-0.104c-2.363,0-4.916,0.187-7.384,0.541C120.456,148.921,119.82,149,119.202,149z
			 M134.529,106.444c-0.508,0.396-0.979,0.854-1.393,1.304c0.086-0.041,0.176-0.075,0.268-0.104
			C133.974,107.468,134.319,106.967,134.529,106.444z"/>
		<path style="fill:#FFFFFF;" d="M89.854,13.73c1.276,0,2.604,0.111,3.979,0.342c8.116,1.354,6.562,14.193-1.283,14.193
			c-0.735,0-1.527-0.113-2.37-0.359c-1.433-0.413-2.397-1.117-3.815-1.562c-1.13-0.359-2.308-0.546-3.521-0.546
			c-8.286,0-14.999,8.802-14.999,19.658c0,9.986,2.57,20.207,10.909,20.207c1.347,0,2.845-0.267,4.506-0.844
			c8.217-2.854,8.633-7.612,15.844-11.968c2.694-1.628,5.955-2.426,9.243-2.426c6.96,0,14.039,3.577,16.096,10.423
			c0.628,2.09,0.98,4.616,1.04,7.668c0,4.68-2.146,8.86-5.51,11.604c-4.061,3.315-5.144,11.322,1.572,12.185
			c6.709,0.862,16.556,5.488,18.713,13.588c0.837,3.144,0.187,6.462-1.578,9.209c-0.198,0.353-0.564,0.55-0.942,0.55
			c-0.177,0-0.355-0.043-0.521-0.133c-0.525-0.294-0.714-0.953-0.418-1.474c0.013-0.018,3.236-5.635,1.156-8.584
			c-0.114,1.169-0.717,4.301-3.602,5.199c-0.106,0.032-0.214,0.048-0.318,0.048c-0.464,0-0.889-0.298-1.039-0.758
			c-0.183-0.57,0.137-1.176,0.707-1.354c2.094-0.647,2.147-3.622,2.147-3.627c0-0.165,0.034-0.315,0.103-0.459
			c-2.903,0.961-5.347,4.86-5.354,4.882c-0.204,0.318-0.548,0.491-0.898,0.491c-0.203,0-0.407-0.058-0.588-0.178
			c-0.497-0.317-0.646-0.98-0.323-1.48c0.006-0.013,2.024-3.262,4.927-5.01c5.661-3.294-7.798-7.963-12.093-7.963
			c-0.184,0-0.351,0.009-0.498,0.026c-2.65,0.148-2.856,1.154-2.578,2.765c1.939,10.984,2.696,20.385,2.696,31.106
			c-0.038,1.088-0.045,2.139,0,3.155c0.127,3.142,0.322,6.083,0.356,6.827c0.229,4.328-0.061,5.754,4.075,6.241
			c0.449,0.052,0.898,0.07,1.347,0.07c1.072,0,2.144-0.108,3.217-0.144c1.144-0.047,2.28-0.063,3.424-0.063
			c0.862,0.105,1.546,0.269,1.922,0.631c0.866,0.837,0.504,1.355-0.146,1.649c-0.395,0.177-0.792,0.242-1.191,0.242
			c-0.298,0-0.598-0.036-0.897-0.092c-0.692-0.129-1.311-0.213-1.935-0.26c-0.982-0.072-1.995-0.106-3.021-0.106
			c-2.522,0-5.119,0.206-7.525,0.551c-0.542,0.073-1.125,0.145-1.666,0.145c-0.685,0-1.302-0.114-1.683-0.479
			c-1.014-0.976,0.719-2.005,1.172-2.645c1.001-1.42-0.563-8.461-2.094-13.531c-1.072-3.53-1.741-4.457-3.344-4.64
			c-5.329-0.605-10.624-0.827-15.899-0.827c-13.699,0-27.26,1.495-40.901,1.646c-0.062,0.001-0.124,0.001-0.186,0.001
			c-1.397,0-2.801-0.167-4.042-0.167c-1.845,0-3.328,0.37-3.884,2.208c-1.398,4.604-2.817,13.926-1.903,15.215
			c0.407,0.575,1.979,1.513,1.058,2.402c-0.344,0.33-0.903,0.434-1.523,0.434c-0.491,0-1.02-0.064-1.512-0.131
			c-2.183-0.315-4.534-0.502-6.819-0.502c-0.937,0-1.863,0.032-2.761,0.099c-0.565,0.041-1.124,0.116-1.755,0.233
			c-0.275,0.051-0.551,0.084-0.825,0.084c-0.36,0-0.719-0.059-1.074-0.217c-0.588-0.268-0.918-0.739-0.128-1.503
			c0.34-0.326,0.961-0.472,1.738-0.573c1.042,0,2.08,0.02,3.113,0.061c0.973,0.031,1.94,0.129,2.911,0.129
			c0.41,0,0.82-0.018,1.232-0.064c3.755-0.444,3.499-1.737,3.701-5.667c0.036-0.676,0.208-6.27,0.329-9.122
			c0.52-12.886-2.444-23.215-0.807-37.902c0.244-2.194,0.462-4.059,0.534-5.382c0.066-1.203-0.287-1.674-0.939-1.674
			c-0.742,0-1.871,0.608-3.208,1.44c-2.335,1.454-4.436,3.136-6.091,4.939c-1.06,1.151-2.552,3.176-3.492,4.521
			c-1.212,1.742-2.283,2.433-1.937,4.548c0.839,5.171,5.233,3.631,5.344,5.673c0.057,1.008-0.453,2.548-1.448,2.975
			c-0.209,0.088-0.44,0.137-0.68,0.137c-1.079,0-2.339-0.995-2.64-3.968c-0.088-0.845-0.752-1.49-1.364-2.105
			c-0.34-0.349-0.627-0.5-0.88-0.5c-0.063,0-0.124,0.01-0.183,0.027c-0.627,0.209-1.652,1.285-2.148,2.705
			c-0.301,1.051-1.287,8.525-2.974,9.28c-0.278,0.126-0.602,0.186-0.937,0.186c-1.149,0-2.428-0.702-2.451-1.83
			c-0.031-1.435,1.373-2.739,2.241-3.732c1.188-1.338,3.507-4.811,3.032-5.418c-0.171-0.218-0.288-0.308-0.408-0.308
			c-0.195,0-0.399,0.236-0.863,0.542c-0.731,0.482-3.987,3.801-4.507,4.36c-0.918,0.977-1.904,2.387-3.152,2.387
			c-0.33,0-0.679-0.099-1.049-0.33c-3.689-2.306,2.792-4.783,4.553-5.664c2.469-1.373,3.792-2.37,6.012-4.114
			c0.832-0.723,2.977-3.577,4.531-5.677c1.311-1.771,2.375-3.539,3.899-5.142c10.247-10.755,7.441-12.716,21.745-24.675
			c7.972-6.658,6.258-6.48,7.695-15.463C64.158,34.012,72.565,13.729,89.854,13.73 M89.854,11.73
			c-17.809-0.001-27.316,19.749-30.275,38.232c-0.28,1.753-0.445,3.183-0.578,4.331c-0.527,4.559-0.583,5.035-6.424,9.913
			c-8.703,7.276-11.306,11.058-14.062,15.062c-1.866,2.711-3.796,5.514-7.85,9.769c-1.176,1.237-2.087,2.541-2.968,3.802
			c-0.354,0.507-0.712,1.019-1.091,1.53c-2.796,3.778-3.833,4.991-4.206,5.33c-2.205,1.731-3.425,2.634-5.661,3.88
			c-0.182,0.09-0.412,0.195-0.674,0.316c-3.104,1.435-5.902,2.929-6.059,5.425c-0.059,0.925,0.25,2.264,2.051,3.39
			c0.673,0.421,1.383,0.634,2.109,0.634c0.626,0,1.186-0.153,1.687-0.396c-0.024,0.198-0.034,0.4-0.03,0.609
			c0.048,2.368,2.301,3.786,4.451,3.786c0.635,0,1.227-0.122,1.759-0.362c1.934-0.865,2.812-3.836,3.841-9.372
			c0.083-0.445,0.176-0.945,0.222-1.138c0.122-0.327,0.28-0.61,0.436-0.837c0.122,0.14,0.218,0.267,0.243,0.346
			c0.426,4.224,2.669,5.738,4.625,5.738c0.501,0,0.991-0.098,1.454-0.292c1.875-0.805,2.771-3.14,2.671-4.932
			c-0.115-2.118-1.955-2.78-2.944-3.137c-1.265-0.455-2.101-0.756-2.423-2.744c-0.128-0.786,0.001-0.98,0.804-2.012
			c0.241-0.311,0.514-0.661,0.801-1.074c0.934-1.337,2.367-3.27,3.322-4.308c1.488-1.622,3.451-3.21,5.677-4.596
			c0.41-0.256,0.748-0.454,1.024-0.608c-0.084,0.982-0.218,2.184-0.367,3.518l-0.088,0.787c-0.959,8.608-0.375,15.744,0.191,22.644
			c0.422,5.153,0.822,10.021,0.604,15.398c-0.07,1.644-0.156,4.201-0.225,6.205c-0.049,1.452-0.088,2.608-0.103,2.892
			c-0.016,0.313-0.029,0.606-0.042,0.885c-0.043,0.956-0.102,2.265-0.286,2.501c-0.002,0.001-0.246,0.24-1.611,0.401
			c-0.295,0.034-0.624,0.051-0.997,0.051c-0.519,0-1.051-0.032-1.615-0.065c-0.41-0.024-0.82-0.049-1.23-0.063
			c-1.024-0.041-2.098-0.062-3.178-0.062h-0.13l-0.129,0.017c-1.024,0.134-2.08,0.361-2.864,1.114
			c-1.07,1.033-1.158,2.032-1.045,2.689c0.09,0.522,0.435,1.487,1.729,2.076c0.595,0.266,1.23,0.396,1.902,0.396
			c0.366,0,0.753-0.038,1.185-0.116c0.571-0.106,1.059-0.172,1.541-0.206c0.831-0.063,1.71-0.094,2.617-0.094
			c2.095,0,4.354,0.167,6.533,0.481c0.551,0.074,1.171,0.151,1.797,0.151c1.263,0,2.214-0.324,2.908-0.991
			c0.583-0.563,0.9-1.285,0.899-2.037c-0.002-1.327-0.943-2.231-1.505-2.771c-0.032-0.03-0.064-0.061-0.095-0.09
			c-0.284-1.793,0.732-9.161,2.074-13.58c0.128-0.425,0.239-0.789,1.97-0.789c0.54,0,1.142,0.037,1.779,0.076
			c0.729,0.045,1.482,0.091,2.263,0.091l0.208-0.001c6.496-0.072,13.062-0.452,19.411-0.819c7.032-0.406,14.303-0.827,21.468-0.827
			c5.724,0,10.851,0.267,15.674,0.814c0.343,0.039,0.697,0.079,1.655,3.233c1.855,6.142,2.506,10.715,2.295,11.875
			c-0.05,0.047-0.112,0.104-0.176,0.166c-0.635,0.608-1.595,1.529-1.597,2.904c0,0.547,0.16,1.353,0.927,2.091
			c0.727,0.698,1.73,1.038,3.069,1.038c0.681,0,1.355-0.084,1.936-0.163c2.436-0.349,4.939-0.532,7.256-0.532
			c0.997,0,1.964,0.034,2.873,0.101c0.54,0.041,1.086,0.114,1.716,0.231c0.462,0.085,0.874,0.126,1.264,0.126
			c0.714,0,1.389-0.14,2.008-0.416c1.353-0.611,1.71-1.603,1.803-2.139c0.117-0.676,0.024-1.705-1.083-2.775
			c-0.841-0.81-2.022-1.05-3.068-1.178l-0.121-0.015h-0.122c-1.323,0-2.438,0.021-3.506,0.064c-0.435,0.014-0.886,0.041-1.337,0.068
			c-0.627,0.037-1.219,0.073-1.798,0.073c-0.415,0-0.782-0.019-1.12-0.058c-1.619-0.19-1.877-0.48-1.913-0.537
			c-0.23-0.367-0.285-1.563-0.344-2.83c-0.014-0.313-0.029-0.644-0.048-0.992c-0.009-0.206-0.033-0.612-0.064-1.156
			c-0.075-1.282-0.201-3.429-0.291-5.646c-0.039-0.893-0.039-1.873,0.001-3.004l0.001-0.035v-0.035
			c0-11.223-0.815-20.63-2.727-31.454c-0.023-0.136-0.039-0.243-0.048-0.329c0.162-0.034,0.408-0.071,0.769-0.091l0.062-0.004
			l0.061-0.007c0.078-0.01,0.167-0.013,0.264-0.013c3.118,0,9.967,2.538,11.305,4.096c-0.059,0.041-0.13,0.088-0.218,0.139
			c-3.019,1.817-5.048,4.8-5.592,5.661l-0.01-0.007c-0.446,0.691-0.595,1.515-0.419,2.317c0.175,0.804,0.653,1.49,1.347,1.933
			c0.474,0.315,1.06,0.492,1.664,0.492c0.644,0,1.255-0.198,1.763-0.555c0.565,0.85,1.52,1.379,2.571,1.379
			c0.303,0,0.604-0.045,0.896-0.134c0.163-0.051,0.321-0.105,0.475-0.166c-0.097,0.194-0.194,0.38-0.291,0.552l-0.001,0.002
			l-0.054,0.095c-0.407,0.716-0.51,1.548-0.289,2.342c0.223,0.798,0.744,1.46,1.469,1.865c0.473,0.258,0.982,0.388,1.497,0.388
			c1.09,0,2.099-0.576,2.65-1.509c2.094-3.282,2.751-7.203,1.803-10.765c-2.517-9.447-13.572-14.181-20.391-15.057
			c-1.611-0.207-2.569-0.919-2.93-2.176c-0.58-2.031,0.481-4.937,2.367-6.477c3.969-3.237,6.245-8.032,6.245-13.153
			c-0.063-3.25-0.431-5.934-1.125-8.243c-2.458-8.185-10.817-11.848-18.011-11.848c-3.786,0-7.34,0.938-10.277,2.714
			c-3.313,2-5.313,4.104-7.078,5.96c-2.223,2.337-4.143,4.355-8.388,5.83c-1.4,0.487-2.695,0.733-3.85,0.733
			c-8.041,0-8.909-12.732-8.909-18.207c0-9.737,5.832-17.658,12.999-17.658c0.992,0,1.973,0.152,2.915,0.452
			c0.557,0.175,1.055,0.411,1.581,0.661c0.65,0.308,1.387,0.657,2.287,0.917c0.992,0.29,1.979,0.437,2.924,0.437
			c5.202,0,8.283-4.333,8.638-8.612c0.403-4.868-2.485-8.796-7.025-9.553C92.706,11.855,91.256,11.73,89.854,11.73L89.854,11.73
			L89.854,11.73z"/>
	</g>
</g>
<g id="Layer_1">
</g>
</svg>
