<?xml version="1.0" encoding="iso-8859-1"?>
<!-- Generator: Adobe Illustrator 16.0.0, SVG Export Plug-In . SVG Version: 6.00 Build 0)  -->
<!DOCTYPE svg PUBLIC "-//W3C//DTD SVG 1.1//EN" "http://www.w3.org/Graphics/SVG/1.1/DTD/svg11.dtd">
<svg version="1.1" xmlns="http://www.w3.org/2000/svg" xmlns:xlink="http://www.w3.org/1999/xlink" x="0px" y="0px" width="150px"
	 height="150px" viewBox="0 0 150 150" style="enable-background:new 0 0 150 150;" xml:space="preserve">
<g id="_x30_4_x5F_01_x5F_black">
	<rect style="fill:none;" width="150" height="150"/>
	<g>
		<path d="M92.291,149c-0.335,0-0.635-0.021-0.912-0.065c-0.4,0.044-0.732,0.065-1.035,0.065c-0.988,0-1.709-0.234-2.206-0.717
			c-0.489-0.474-0.591-0.978-0.591-1.316c0.002-0.903,0.694-1.568,1.2-2.054c0.134-0.129,0.263-0.24,0.335-0.343
			c0.628-0.885,0.025-3.26-0.854-4.204c-0.438-0.461-0.897-0.738-1.508-0.905c-2.04,0.146-3.166,0.213-4.317,0.213
			s-2.277-0.066-4.317-0.213c-0.61,0.167-1.068,0.444-1.509,0.91c-0.875,0.94-1.48,3.315-0.856,4.196
			c0.073,0.104,0.203,0.216,0.336,0.345c0.507,0.485,1.2,1.15,1.203,2.054c0.001,0.339-0.1,0.842-0.588,1.316
			c-0.502,0.483-1.224,0.718-2.21,0.718c-0.303,0-0.634-0.021-1.034-0.065c-0.277,0.044-0.577,0.065-0.912,0.065
			c-0.674,0-1.373-0.088-1.974-0.17c-1.433-0.205-2.917-0.36-4.418-0.462l-0.163,0.001c-0.906,0-1.777,0.034-2.588,0.102
			c-0.538,0.035-1.064,0.102-1.673,0.21c-0.356,0.068-0.686,0.104-0.996,0.104c-0.541,0-1.03-0.103-1.495-0.313
			c-0.078-0.033-0.152-0.069-0.224-0.109c-0.693,0.056-1.31,0.136-1.958,0.254c-0.435,0.081-0.823,0.12-1.185,0.12
			c-0.621,0-1.181-0.113-1.713-0.346c-0.941-0.427-1.226-1.035-1.3-1.471c-0.115-0.669,0.174-1.341,0.857-1.998
			c0.652-0.638,1.68-0.841,2.692-0.964l0.06-0.007h0.061c1.286,0,2.558,0.02,3.825,0.063c0.491,0.016,0.981,0.046,1.47,0.077
			c0.684,0.042,1.365,0.085,2.048,0.085c0.512,0,0.967-0.024,1.392-0.076c3.375-0.394,3.402-0.993,3.581-4.896l0.052-1.07
			c0.236-4.501-0.528-9.623-1.413-15.554c-1.563-10.479-3.508-23.52-1.891-42.428c0.162-1.87,0.368-3.771,0.615-5.653
			c0.38-2.911,0.814-5.11,1.158-6.66c-0.776,0.755-1.78,1.684-3.057,2.747c-0.865,0.721-1.765,1.404-2.674,2.033l-0.569,0.397
			c-1.147,0.804-1.779,1.247-2.489,1.247c-1.141,0-1.6-1.078-1.97-1.943c-0.382-0.882-0.706-1.264-1.465-2.116
			c-3.049-3.413-5.694-7.585-8.323-13.129c-1.143-2.414-2.084-4.737-3.081-7.197l-0.55-1.354c-2.105-5.2-2.993-6.932-3.367-7.469
			c-2.245-2.956-3.599-4.638-6.202-7.134c-0.183-0.158-0.471-0.393-0.802-0.664c-2.983-2.443-5.857-5.025-5.401-7.384
			c0.215-1.112,1.1-1.919,2.63-2.399c0.404-0.127,0.803-0.191,1.184-0.191c2.306,0,3.404,2.162,4.287,3.898
			c0.14,0.274,0.276,0.544,0.415,0.798c0.545,1.044,3.353,5.855,4.131,6.834c-0.28-1.525-1.224-4.322-2.104-6.041
			c-0.114-0.229-0.235-0.459-0.361-0.699c-0.845-1.61-1.896-3.613-1.35-5.567c0.405-1.448,1.859-2.384,3.704-2.384
			c1.059,0,2.072,0.327,2.779,0.896c1.613,1.3,1.66,5.373,1.195,11.968c-0.055,0.772-0.102,1.44-0.097,1.688
			c0.144,1.661,0.963,3.053,1.381,3.35c-0.012-0.027,0.153-0.058,0.486-0.255l0.101-0.06c0.857-0.511,1.666-0.993,1.921-1.684
			c1.599-4.299,3.858-4.941,5.063-4.941c0.738,0,1.436,0.237,2.019,0.684c1.614,1.251,1.673,3.965,1.206,5.407
			c-0.521,1.632-2.047,1.773-3.395,1.897c-1.835,0.169-3.915,0.36-5.384,3.693c-0.688,1.558-0.377,2.442,0.23,3.873
			c0.491,1.146,0.95,2.315,1.409,3.485c0.629,1.601,1.28,3.257,2.003,4.814c1.98,4.28,4.824,8.072,8.682,11.57
			c2.341-1.946,4.637-4.18,6.998-6.806c3.013-3.358,3.085-5.459,2.967-10.304C69.308,42.181,67,33.901,51.472,22.287l-0.129-0.097
			l-0.092-0.132c-2.343-3.363-2.708-7.166-1.002-10.434c1.735-3.323,5.381-5.556,9.074-5.556c1.494,0,2.917,0.351,4.231,1.043
			c11.614,6.113,21.56,16.482,28.763,29.985c0.838,1.571,1.423,2.8,1.851,3.698c0.172,0.36,0.347,0.726,0.497,1.023
			c0.089-0.126,0.182-0.261,0.271-0.39c0.646-0.936,1.624-2.349,3.259-4.139l0.463-0.511c1.056-1.169,1.637-1.813,2.497-1.813
			c0.922,0,1.501,0.792,2.012,1.492c0.568,0.776,0.969,1.075,1.9,1.736c3.736,2.65,7.246,6.125,11.046,10.938
			c1.686,2.139,3.151,4.238,4.704,6.459l0.746,1.067c3.208,4.595,4.462,6.085,4.948,6.526c2.848,2.38,4.543,3.716,7.642,5.567
			c0.216,0.115,0.552,0.281,0.938,0.473c3.448,1.715,6.821,3.589,6.902,5.988c0.038,1.131-0.645,2.115-2.027,2.923
			c-0.606,0.355-1.229,0.536-1.847,0.536l0,0c-1.868,0-3.164-1.551-4.308-2.918c-0.199-0.239-0.396-0.474-0.589-0.692
			c-0.77-0.898-4.581-4.96-5.551-5.738c0.615,1.423,2.158,3.938,3.397,5.419c0.158,0.191,0.325,0.385,0.499,0.587
			c1.188,1.383,2.667,3.105,2.567,5.135c-0.096,2.054-2.216,3.282-4.21,3.282c-0.647,0-1.262-0.132-1.775-0.382
			c-1.859-0.904-2.815-4.856-3.837-11.378c-0.121-0.774-0.227-1.443-0.287-1.686c-0.51-1.585-1.614-2.758-2.09-2.959
			c0.01,0.024-0.144,0.092-0.42,0.356l-0.088,0.084c-0.72,0.688-1.399,1.338-1.493,2.067c-0.739,5.597-3.689,6.032-4.576,6.032
			c-0.471,0-0.947-0.104-1.376-0.3c-1.853-0.86-2.519-3.493-2.386-5.001c0.144-1.708,1.6-2.186,2.885-2.607
			c1.751-0.575,3.735-1.226,4.42-4.803c0.328-1.67-0.173-2.463-1.085-3.721c-0.723-0.995-1.421-2.016-2.119-3.038
			c-0.981-1.435-1.996-2.92-3.063-4.292c-2.887-3.734-6.508-6.795-11.051-9.34c-4.278,5.449-4.205,5.674-2.895,9.678
			c0.393,1.197,0.88,2.686,1.39,4.681c3.579,13.981,3.651,27.916,0.21,40.295c-0.133,0.477-0.313,1.101-0.531,1.851
			c-2.428,8.388-9.818,33.914-4.233,42.319c0.981,1.478,2.304,2.294,4.044,2.497c0.429,0.052,0.886,0.076,1.398,0.076
			c0.684,0,1.366-0.043,2.05-0.086c0.489-0.03,0.979-0.061,1.469-0.076c1.267-0.044,2.539-0.063,3.824-0.063h0.061l0.061,0.007
			c1.011,0.123,2.038,0.326,2.696,0.969c0.678,0.653,0.965,1.325,0.851,1.993c-0.075,0.436-0.358,1.043-1.285,1.465
			c-0.545,0.238-1.105,0.352-1.728,0.352c-0.362,0-0.751-0.039-1.188-0.12c-0.653-0.12-1.277-0.201-1.955-0.254
			c-0.077,0.043-0.158,0.082-0.245,0.119c-0.443,0.201-0.933,0.304-1.474,0.304c-0.311,0-0.642-0.035-1.011-0.105
			c-0.596-0.106-1.121-0.173-1.641-0.207c-0.828-0.068-1.7-0.103-2.605-0.103l-0.225,0.001c-1.438,0.1-2.922,0.254-4.349,0.459
			C93.663,148.912,92.963,149,92.291,149z"/>
		<path style="fill:#FFFFFF;" d="M59.322,7.068c1.271,0,2.555,0.29,3.766,0.928c11.848,6.236,21.594,16.912,28.346,29.571
			c2.128,3.989,2.592,5.71,3.151,5.71c0.604,0,1.319-1.999,4.347-5.314c1.203-1.319,1.738-1.999,2.222-1.999
			c0.351,0,0.674,0.355,1.204,1.082c0.676,0.922,1.195,1.299,2.129,1.962c3.754,2.662,7.215,6.15,10.84,10.742
			c1.938,2.459,3.617,4.914,5.416,7.48c1.881,2.693,4.139,5.825,5.096,6.693c2.869,2.398,4.59,3.767,7.801,5.685
			c2.297,1.232,10.787,4.759,5.82,7.663c-0.477,0.279-0.922,0.399-1.342,0.399c-1.684,0-2.956-1.929-4.148-3.273
			c-0.662-0.773-4.854-5.277-5.807-5.956c-0.599-0.421-0.861-0.742-1.125-0.742c-0.158,0-0.316,0.115-0.547,0.392
			c-0.648,0.788,2.293,5.479,3.811,7.293c1.107,1.344,2.928,3.13,2.834,5.032c-0.068,1.456-1.715,2.331-3.211,2.331
			c-0.48,0-0.946-0.091-1.338-0.281c-2.203-1.071-3.238-11.004-3.592-12.408c-0.607-1.897-1.92-3.367-2.746-3.666
			c-0.084-0.029-0.172-0.044-0.263-0.044c-0.328,0-0.706,0.193-1.161,0.628c-0.828,0.793-1.738,1.627-1.883,2.746
			c-0.51,3.861-2.173,5.16-3.584,5.16c-0.341,0-0.667-0.076-0.959-0.209c-1.305-0.605-1.924-2.669-1.807-4.005
			c0.227-2.693,5.986-0.494,7.291-7.31c0.404-2.061-0.266-3.128-1.258-4.496c-1.76-2.422-3.369-4.998-5.201-7.356
			c-3.301-4.269-7.445-7.512-12.104-10.011c-6.516,8.275-4.582,6.616-2.211,15.891c3.391,13.245,3.715,27.191,0.215,39.78
			c-1.953,7.018-14.395,46.234,0.127,47.928c0.506,0.061,1.011,0.083,1.515,0.083c1.184,0,2.364-0.123,3.552-0.163
			c1.256-0.043,2.518-0.063,3.791-0.063c0.947,0.115,1.707,0.289,2.119,0.691c0.967,0.932,0.566,1.506-0.15,1.832
			c-0.435,0.19-0.873,0.262-1.313,0.262c-0.334,0-0.669-0.041-1.005-0.104c-0.768-0.141-1.457-0.223-2.141-0.273l-0.262-0.027
			c-0.102,0.094-0.229,0.168-0.371,0.229c-0.359,0.163-0.721,0.225-1.084,0.225c-0.272,0-0.546-0.035-0.82-0.088
			c-0.637-0.113-1.203-0.186-1.764-0.223c-0.875-0.072-1.767-0.104-2.672-0.104c-0.076,0-0.153,0.001-0.23,0.001
			c-1.529,0.104-3.039,0.262-4.484,0.469c-0.602,0.082-1.244,0.161-1.84,0.161c-0.311,0-0.609-0.021-0.883-0.075
			c-0.357,0.043-0.721,0.075-1.064,0.075c-0.616,0-1.169-0.104-1.51-0.435c-0.928-0.898,0.656-1.836,1.066-2.42
			c1.008-1.42,0.129-4.313-0.941-5.461c-0.67-0.705-1.375-1.049-2.15-1.232c-2.041,0.147-3.224,0.222-4.406,0.222
			s-2.365-0.074-4.406-0.222c-0.775,0.184-1.48,0.527-2.146,1.232c-1.07,1.148-1.951,4.041-0.945,5.461
			c0.412,0.584,1.994,1.521,1.07,2.42c-0.343,0.331-0.897,0.435-1.513,0.435c-0.344,0-0.707-0.032-1.063-0.075
			c-0.273,0.054-0.571,0.075-0.882,0.075c-0.596,0-1.238-0.079-1.838-0.161c-1.447-0.207-2.959-0.365-4.486-0.469
			c-0.077,0-0.154-0.001-0.231-0.001c-0.907,0-1.797,0.032-2.67,0.104c-0.562,0.037-1.13,0.109-1.767,0.223
			c-0.274,0.053-0.548,0.088-0.82,0.088c-0.362,0-0.723-0.062-1.082-0.225c-0.142-0.061-0.271-0.135-0.37-0.229l-0.261,0.027
			c-0.685,0.051-1.375,0.133-2.144,0.273c-0.336,0.063-0.671,0.104-1.005,0.104c-0.44,0-0.877-0.071-1.313-0.262
			c-0.719-0.326-1.119-0.9-0.15-1.832c0.411-0.402,1.17-0.576,2.119-0.691c1.274,0,2.535,0.02,3.791,0.063
			c1.189,0.04,2.37,0.163,3.552,0.163c0.503,0,1.007-0.022,1.511-0.083c4.573-0.533,4.26-2.117,4.512-6.906
			c0.646-12.34-5.87-27.982-3.306-57.949c0.168-1.948,0.375-3.815,0.61-5.607c0.903-6.917,2.087-9.646,1.711-9.646
			c-0.313,0-1.706,1.892-5.242,4.834c-0.847,0.705-1.711,1.362-2.603,1.979c-1.346,0.932-2.024,1.467-2.49,1.467
			c-0.41,0-0.657-0.414-1.05-1.336c-0.455-1.05-0.878-1.535-1.638-2.389c-3.066-3.433-5.66-7.607-8.167-12.893
			c-1.34-2.831-2.426-5.599-3.608-8.5c-1.232-3.045-2.733-6.603-3.472-7.663c-2.262-2.979-3.632-4.696-6.33-7.284
			c-1.969-1.715-9.459-7.048-3.966-8.771c0.318-0.1,0.612-0.146,0.885-0.146c1.994,0,2.879,2.441,3.823,4.175
			c0.472,0.902,3.553,6.229,4.332,7.104c0.534,0.593,0.703,0.982,1.002,0.982c0.138,0,0.305-0.083,0.548-0.268
			c0.809-0.622-1.008-5.852-2.086-7.959c-0.775-1.558-2.151-3.705-1.638-5.541c0.313-1.119,1.524-1.653,2.741-1.653
			c0.798,0,1.6,0.23,2.152,0.675c1.907,1.537,0.698,11.447,0.726,12.896c0.169,1.983,1.121,3.711,1.861,4.187
			c0.13,0.081,0.279,0.123,0.45,0.123c0.286,0,0.634-0.117,1.065-0.373c0.986-0.589,2.059-1.198,2.45-2.257
			c1.193-3.208,2.814-4.288,4.125-4.288c0.54,0,1.027,0.184,1.41,0.478c1.138,0.882,1.276,3.031,0.863,4.305
			c-0.821,2.576-5.943-0.855-8.742,5.495c-0.849,1.923-0.436,3.112,0.225,4.667c1.179,2.755,2.17,5.626,3.426,8.33
			c2.267,4.9,5.582,8.985,9.562,12.463c2.754-2.219,5.33-4.739,7.769-7.452c3.293-3.671,3.34-6.192,3.223-10.997
			c-0.229-9.137-4.216-17.266-18.417-27.887C47.021,14.239,53.003,7.068,59.322,7.068 M59.322,5.068L59.322,5.068
			c-4.055,0-8.058,2.449-9.96,6.093c-1.884,3.609-1.495,7.789,1.068,11.468l0.185,0.265l0.259,0.193
			c14.342,10.727,17.415,18.285,17.616,26.335c0.116,4.766,0.018,6.569-2.712,9.612c-2.101,2.337-4.149,4.358-6.223,6.139
			c-3.432-3.24-5.993-6.739-7.803-10.654c-0.712-1.533-1.357-3.174-1.98-4.762c-0.454-1.154-0.922-2.348-1.422-3.515
			c-0.579-1.363-0.753-1.896-0.234-3.073c1.232-2.795,2.774-2.937,4.561-3.102c1.322-0.122,3.534-0.325,4.257-2.594
			c0.568-1.752,0.468-4.934-1.544-6.493c-0.767-0.588-1.675-0.896-2.635-0.897c-1.464,0-4.19,0.726-6,5.591
			c-0.121,0.326-0.741,0.722-1.306,1.061c-0.262-0.479-0.558-1.24-0.647-2.138c0.004-0.258,0.05-0.91,0.095-1.542
			c0.5-7.092,0.398-11.235-1.565-12.817c-0.896-0.721-2.105-1.118-3.407-1.118c-2.306,0-4.138,1.222-4.667,3.114
			c-0.223,0.798-0.23,1.59-0.107,2.354c-0.877-1.236-2.1-2.309-3.948-2.309c-0.483,0-0.982,0.08-1.484,0.237
			c-2.376,0.746-3.113,2.132-3.313,3.163c-0.561,2.902,2.399,5.604,5.75,8.348c0.304,0.249,0.571,0.467,0.779,0.646
			c2.528,2.429,3.797,4.002,6.057,6.978c0.298,0.444,1.109,1.979,3.24,7.243l0.551,1.357c1.002,2.474,1.949,4.81,3.104,7.248
			c2.672,5.634,5.368,9.882,8.483,13.37c0.728,0.817,0.974,1.111,1.294,1.852c0.375,0.881,1.083,2.541,2.885,2.541
			c1.026,0,1.793-0.538,3.063-1.428l0.566-0.395c0.931-0.644,1.855-1.346,2.743-2.085c0.293-0.245,0.573-0.481,0.838-0.711
			c-0.192,1.083-0.388,2.324-0.571,3.727c-0.249,1.895-0.458,3.811-0.62,5.694c-1.627,19.027,0.327,32.132,1.898,42.662
			c0.913,6.12,1.634,10.953,1.404,15.354c-0.02,0.378-0.037,0.736-0.052,1.077c-0.068,1.5-0.128,2.796-0.415,3.254
			c-0.187,0.297-0.996,0.543-2.28,0.693c-0.392,0.047-0.808,0.069-1.28,0.069c-0.641,0-1.294-0.041-1.986-0.084
			c-0.499-0.03-0.999-0.062-1.5-0.078c-1.251-0.043-2.514-0.063-3.858-0.063h-0.121l-0.12,0.015
			c-1.187,0.145-2.406,0.395-3.277,1.247c-1.154,1.11-1.257,2.178-1.137,2.876c0.095,0.552,0.462,1.573,1.859,2.207
			c0.678,0.296,1.389,0.44,2.139,0.44c0.423,0,0.872-0.045,1.369-0.137c0.531-0.098,1.042-0.168,1.584-0.218
			c0.013,0.006,0.026,0.012,0.04,0.018c0.55,0.25,1.192,0.386,1.868,0.386c0.374,0,0.766-0.041,1.198-0.124
			c0.544-0.097,1.037-0.159,1.521-0.19c0.816-0.067,1.66-0.101,2.538-0.101l0.16,0.001c1.454,0.1,2.892,0.251,4.274,0.448
			c0.647,0.089,1.386,0.182,2.122,0.182c0.334,0,0.642-0.02,0.931-0.058c0.381,0.039,0.708,0.058,1.015,0.058
			c1.257,0,2.206-0.325,2.9-0.994c0.584-0.567,0.899-1.291,0.897-2.044c-0.005-1.327-0.947-2.231-1.511-2.771
			c-0.081-0.078-0.159-0.149-0.221-0.216c-0.254-0.48,0.153-2.249,0.784-2.927c0.268-0.283,0.531-0.458,0.885-0.576
			c1.949,0.14,3.059,0.202,4.205,0.202s2.256-0.063,4.205-0.202c0.355,0.119,0.623,0.297,0.901,0.591
			c0.619,0.664,1.024,2.435,0.768,2.912c-0.062,0.067-0.141,0.139-0.222,0.217c-0.563,0.541-1.505,1.445-1.508,2.773
			c-0.001,0.753,0.316,1.477,0.896,2.037c0.691,0.671,1.641,0.998,2.901,0.998c0.306,0,0.634-0.019,1.016-0.058
			c0.29,0.038,0.598,0.058,0.932,0.058c0.735,0,1.475-0.093,2.11-0.18c1.395-0.199,2.832-0.351,4.285-0.45l0.159-0.001
			c0.879,0,1.722,0.033,2.508,0.098c0.514,0.034,1.005,0.097,1.577,0.198c0.404,0.078,0.797,0.119,1.171,0.119
			c0.678,0,1.32-0.136,1.91-0.403c0.541,0.05,1.053,0.12,1.587,0.218c0.493,0.092,0.941,0.137,1.365,0.137
			c0.752,0,1.464-0.145,2.115-0.43c1.421-0.646,1.788-1.666,1.883-2.218c0.12-0.697,0.018-1.765-1.146-2.887
			c-0.862-0.841-2.079-1.092-3.266-1.236l-0.12-0.015h-0.121c-1.326,0-2.624,0.021-3.859,0.063
			c-0.498,0.017-0.997,0.048-1.495,0.078c-0.692,0.043-1.346,0.084-1.988,0.084c-0.473,0-0.891-0.022-1.276-0.068
			c-1.456-0.17-2.514-0.824-3.333-2.058c-3.536-5.322-2.068-19.28,4.361-41.488c0.219-0.754,0.4-1.381,0.533-1.86
			c3.489-12.549,3.418-26.662-0.204-40.813c-0.518-2.026-1.012-3.533-1.407-4.744c-0.695-2.122-0.903-2.832-0.66-3.646
			c0.274-0.92,1.163-2.224,2.86-4.421c4.076,2.392,7.359,5.232,10.002,8.65c1.05,1.352,2.056,2.823,3.029,4.247
			c0.688,1.008,1.401,2.051,2.136,3.062c0.871,1.2,1.16,1.68,0.913,2.935c-0.575,3.007-2.047,3.49-3.751,4.05
			c-1.261,0.414-3.371,1.106-3.57,3.478c-0.161,1.836,0.649,4.916,2.958,5.987c0.567,0.26,1.187,0.395,1.801,0.395
			c1.092,0,4.722-0.497,5.566-6.897c0.045-0.345,0.563-0.87,1.036-1.327c0.362,0.409,0.82,1.086,1.106,1.941
			c0.055,0.254,0.162,0.937,0.257,1.544c1.1,7.012,2.124,11.021,4.388,12.123c0.649,0.315,1.414,0.482,2.213,0.482
			c2.463,0,5.085-1.585,5.209-4.237c0.04-0.824-0.128-1.595-0.416-2.31c0.918,0.818,2.029,1.471,3.4,1.471
			c0.799,0,1.591-0.227,2.354-0.674c2.146-1.256,2.555-2.77,2.52-3.819c-0.1-2.951-3.584-4.924-7.456-6.85
			c-0.355-0.177-0.667-0.331-0.911-0.46c-3.011-1.802-4.6-3.052-7.466-5.447c-0.327-0.307-1.419-1.528-4.775-6.334l-0.747-1.069
			c-1.561-2.233-3.035-4.343-4.737-6.504c-3.861-4.891-7.438-8.429-11.254-11.136c-0.894-0.634-1.199-0.866-1.673-1.513
			c-0.552-0.754-1.388-1.899-2.817-1.899c-1.305,0-2.074,0.853-3.24,2.144l-0.459,0.507c-1.166,1.277-2.006,2.366-2.631,3.232
			c-0.404-0.843-0.928-1.914-1.625-3.221c-7.297-13.681-17.387-24.193-29.179-30.4C62.56,5.458,60.979,5.068,59.322,5.068
			L59.322,5.068L59.322,5.068z"/>
	</g>
</g>
<g id="Layer_1">
</g>
</svg>
