<?xml version="1.0" encoding="iso-8859-1"?>
<!-- Generator: Adobe Illustrator 16.0.0, SVG Export Plug-In . SVG Version: 6.00 Build 0)  -->
<!DOCTYPE svg PUBLIC "-//W3C//DTD SVG 1.1//EN" "http://www.w3.org/Graphics/SVG/1.1/DTD/svg11.dtd">
<svg version="1.1" xmlns="http://www.w3.org/2000/svg" xmlns:xlink="http://www.w3.org/1999/xlink" x="0px" y="0px" width="150px"
	 height="150px" viewBox="0 0 150 150" style="enable-background:new 0 0 150 150;" xml:space="preserve">
<g id="_x30_4_x5F_02">
	<rect style="fill:none;" width="150" height="150"/>
	<g>
		<g>
			<path style="fill-rule:evenodd;clip-rule:evenodd;fill:#562D8F;" d="M113.254,128.705c1.603,0.183,2.271,1.109,3.344,4.64
				c1.531,5.07,3.095,12.111,2.094,13.531c-0.453,0.64-2.186,1.669-1.172,2.645c0.681,0.654,2.119,0.502,3.349,0.335
				c3.385-0.485,7.146-0.695,10.546-0.444c0.624,0.047,1.242,0.131,1.935,0.26c0.701,0.129,1.398,0.158,2.089-0.15
				c0.65-0.294,1.013-0.813,0.146-1.649c-0.376-0.362-1.06-0.525-1.922-0.631c-1.144,0-2.28,0.016-3.424,0.063
				c-1.522,0.05-3.041,0.247-4.563,0.073c-4.136-0.487-3.846-1.913-4.075-6.241c-0.034-0.744-0.229-3.686-0.356-6.827
				c-0.045-1.017-0.038-2.067,0-3.155c0-10.722-0.757-20.122-2.696-31.106c-0.278-1.61-0.072-2.616,2.578-2.765
				c3.61-0.427,18.493,4.502,12.591,7.937c-2.902,1.748-4.921,4.997-4.927,5.01c-0.322,0.5-0.174,1.163,0.323,1.48
				c0.494,0.328,1.165,0.188,1.486-0.313c0.007-0.021,2.45-3.921,5.354-4.882c-0.068,0.144-0.103,0.294-0.103,0.459
				c0,0.005-0.054,2.979-2.147,3.627c-0.57,0.178-0.89,0.783-0.707,1.354c0.185,0.564,0.782,0.884,1.357,0.71
				c2.885-0.898,3.487-4.03,3.602-5.199c2.08,2.949-1.144,8.566-1.156,8.584c-0.296,0.521-0.107,1.18,0.418,1.474
				c0.519,0.282,1.173,0.101,1.463-0.417c1.765-2.747,2.415-6.065,1.578-9.209c-2.157-8.1-12.004-12.726-18.713-13.588
				c-6.716-0.862-5.633-8.869-1.572-12.185c3.363-2.744,5.51-6.924,5.51-11.604c-0.06-3.052-0.412-5.578-1.04-7.668
				c-3.028-10.082-16.942-13.072-25.339-7.998c-7.211,4.356-7.627,9.113-15.844,11.968c-11.947,4.152-15.415-7.763-15.415-19.362
				c0-10.856,6.713-19.658,14.999-19.658c1.214,0,2.392,0.187,3.521,0.546c1.418,0.445,2.383,1.148,3.815,1.562
				c9.837,2.868,12.53-12.353,3.653-13.834C73.841,12.71,64.35,34.811,61.553,52.279c-1.437,8.982,0.277,8.805-7.695,15.463
				C39.555,79.701,42.36,81.662,32.113,92.417c-1.524,1.603-2.589,3.37-3.899,5.142c-1.554,2.1-3.7,4.954-4.531,5.677
				c-2.22,1.744-3.543,2.741-6.012,4.114c-1.762,0.881-8.243,3.358-4.553,5.664c1.771,1.106,3.04-0.821,4.201-2.057
				c0.52-0.56,3.776-3.878,4.507-4.36c0.75-0.493,0.821-0.807,1.271-0.234c0.475,0.607-1.843,4.08-3.032,5.418
				c-0.869,0.993-2.272,2.298-2.241,3.732c0.03,1.456,2.152,2.202,3.388,1.645c1.687-0.755,2.672-8.229,2.974-9.28
				c0.497-1.42,1.521-2.496,2.148-2.705c0.298-0.09,0.639,0.037,1.063,0.473c0.612,0.615,1.276,1.261,1.364,2.105
				c0.368,3.634,2.17,4.313,3.32,3.831c0.995-0.427,1.504-1.967,1.448-2.975c-0.111-2.042-4.505-0.502-5.344-5.673
				c-0.346-2.115,0.725-2.806,1.937-4.548c0.939-1.345,2.432-3.369,3.492-4.521c1.656-1.804,3.756-3.485,6.091-4.939
				c2.515-1.563,4.29-2.339,4.148,0.233c-0.072,1.323-0.291,3.188-0.534,5.382c-1.637,14.688,1.327,25.017,0.807,37.902
				c-0.121,2.853-0.293,8.446-0.329,9.122c-0.203,3.93,0.054,5.223-3.701,5.667c-1.385,0.158-2.759-0.02-4.143-0.064
				c-1.034-0.041-2.072-0.061-3.113-0.061c-0.777,0.102-1.398,0.247-1.738,0.573c-0.79,0.764-0.46,1.235,0.128,1.503
				c0.626,0.279,1.262,0.249,1.899,0.133c0.632-0.117,1.19-0.192,1.755-0.233c3.086-0.229,6.502-0.041,9.58,0.403
				c1.115,0.15,2.418,0.289,3.035-0.303c0.92-0.89-0.651-1.827-1.058-2.402c-0.914-1.289,0.505-10.61,1.903-15.215
				c0.946-3.129,4.576-2.003,8.111-2.042C75.347,129.314,94.086,126.528,113.254,128.705z"/>
			<path style="fill-rule:evenodd;clip-rule:evenodd;fill:#FFFFFF;" d="M108.574,54.859c-7.994,0-14.463,6.484-14.463,14.47
				c0,7.985,6.469,14.467,14.463,14.467c7.985,0,14.46-6.481,14.46-14.467C123.034,61.343,116.56,54.859,108.574,54.859z"/>
			<path style="fill-rule:evenodd;clip-rule:evenodd;" d="M103.448,66.385c-1.409,0-2.551,1.143-2.551,2.552
				c0,1.405,1.142,2.552,2.551,2.552c1.411-0.001,2.55-1.146,2.55-2.552C105.998,67.528,104.859,66.385,103.448,66.385z"/>
			<circle style="fill-rule:evenodd;clip-rule:evenodd;fill:#FFFFFF;" cx="92.121" cy="22.584" r="5.586"/>
			<path style="fill-rule:evenodd;clip-rule:evenodd;" d="M94.974,21.447c1.029,0,1.861,0.834,1.861,1.862
				c0,1.024-0.832,1.863-1.861,1.863c-1.027,0-1.857-0.838-1.857-1.863C93.116,22.282,93.946,21.447,94.974,21.447z"/>
		</g>
		<path style="fill-rule:evenodd;clip-rule:evenodd;" d="M82.163,93.895c-4.356-0.766-7.58-2.706-10.636-4.705
			c-4.788-3.12-9.834-7.252-15.09-2.671c-3.905,3.396-4.823,7.417-4.077,11.012c0.468,2.237,1.578,4.322,3.02,6.006
			c3.145,3.502,5.936,5.962,8.955,7.779c10.306,6.198,25.444,7.142,35.524-0.02c1.422-1.017,3.243-2.481,4.796-4.195
			c1.997-2.209,3.141-5.223,2.705-7.74c-0.264-1.538-1.115-2.888-2.72-3.767c-0.819-0.45-1.665-0.693-2.544-0.834
			c-1.986-0.305-4.095-0.185-6.102-0.063C91.218,94.995,86.924,94.731,82.163,93.895z"/>
		<path style="fill-rule:evenodd;clip-rule:evenodd;fill:#FFFFFF;" d="M77.756,92.254l3.8,0.97L80.65,96.75
			c-0.203,0.836-1.065,1.347-1.904,1.132l-0.76-0.203c-0.836-0.206-1.351-1.062-1.132-1.898L77.756,92.254z"/>
		<path style="fill-rule:evenodd;clip-rule:evenodd;fill:#FFFFFF;" d="M83.938,92.964l3.805,0.972l-0.9,3.53
			c-0.208,0.83-1.072,1.347-1.913,1.126l-0.757-0.192c-0.833-0.211-1.346-1.073-1.133-1.907L83.938,92.964z"/>
		<path style="fill-rule:evenodd;clip-rule:evenodd;fill:#FFFFFF;" d="M94.386,114.85l3.816-1.645l-1.521-3.537
			c-0.366-0.843-1.354-1.227-2.186-0.871l-0.757,0.33c-0.843,0.363-1.227,1.348-0.877,2.184L94.386,114.85z"/>
		<path style="fill-rule:evenodd;clip-rule:evenodd;fill:#FFFFFF;" d="M55.992,105.222l2.798,3.067l2.846-2.598
			c0.68-0.618,0.721-1.673,0.109-2.345l-0.553-0.619c-0.628-0.667-1.675-0.721-2.355-0.104L55.992,105.222z"/>
		<path style="fill-rule:evenodd;clip-rule:evenodd;fill:#562D8F;" d="M82.452,92.232c-3.848-0.678-6.788-2.356-10.005-4.459
			c-0.671-0.441-1.345-0.892-2.018-1.336c-2.567-1.696-5.487-3.506-8.652-3.644c-2.464-0.098-4.601,0.846-6.441,2.452
			c-3.754,3.257-5.658,7.69-4.626,12.63c0.519,2.492,1.741,4.832,3.392,6.754l0.015,0.009l0.008,0.025
			c2.774,3.082,5.769,5.952,9.342,8.097c4.725,2.846,10.233,4.545,15.715,5.077c7.511,0.716,15.415-0.74,21.654-5.165
			c1.825-1.296,3.577-2.786,5.076-4.438c2.153-2.388,3.672-5.905,3.116-9.165c-0.373-2.166-1.639-3.897-3.584-4.959
			c-0.954-0.536-2.001-0.849-3.086-1.015c-2.134-0.336-4.313-0.21-6.463-0.083C91.298,93.294,86.988,93.02,82.452,92.232
			L82.452,92.232L82.452,92.232z M82.163,93.895c4.764,0.83,9.049,1.101,13.832,0.803c2.007-0.122,4.115-0.242,6.102,0.063
			c0.879,0.141,1.723,0.384,2.544,0.834c1.604,0.879,2.456,2.229,2.72,3.767c0.436,2.518-0.708,5.531-2.705,7.74
			c-1.553,1.714-3.376,3.179-4.796,4.195c-10.078,7.161-25.218,6.218-35.524,0.02c-3.02-1.817-5.81-4.277-8.955-7.779
			c-1.436-1.684-2.554-3.765-3.02-6.006c-0.746-3.601,0.172-7.616,4.077-11.012c5.256-4.582,10.303-0.449,15.09,2.671
			c3.056,1.999,6.28,3.944,10.633,4.705H82.163z"/>
	</g>
</g>
<g id="Layer_1">
</g>
</svg>
