<?xml version="1.0" encoding="iso-8859-1"?>
<!-- Generator: Adobe Illustrator 16.0.0, SVG Export Plug-In . SVG Version: 6.00 Build 0)  -->
<!DOCTYPE svg PUBLIC "-//W3C//DTD SVG 1.1//EN" "http://www.w3.org/Graphics/SVG/1.1/DTD/svg11.dtd">
<svg version="1.1" xmlns="http://www.w3.org/2000/svg" xmlns:xlink="http://www.w3.org/1999/xlink" x="0px" y="0px" width="150px"
	 height="150px" viewBox="0 0 150 150" style="enable-background:new 0 0 150 150;" xml:space="preserve">
<g id="_x30_4_x5F_05">
	<rect style="fill:none;" width="150" height="150"/>
	<g>
		<g>
			<path style="fill-rule:evenodd;clip-rule:evenodd;fill:#9F80B9;" d="M89.522,74.179c-2.02-0.811-3.317-1.993-4.194-4.261
				c-2.834-7.321,0.531-6.345,4.22-11.514c2.145-3.01,3.409-6.692,3.409-10.669c0-10.155-8.235-18.389-18.388-18.389
				c-10.156,0-18.391,8.234-18.391,18.389c0,7.041,3.958,13.159,9.771,16.248c2.156,1.146,4.205,1.679,5.581,2.34
				c4.444,2.137,4.655,4.704,2.954,6.812c-2.188,2.709-7.541,4.658-11.123,3.947c-4.737-0.938-9.495-2.739-15.859-7.808
				c-12.227-9.738,2.763-8.972,2.763-23.651c0-12.151-9.853-22.004-22.004-22.004c-12.152,0-22.006,9.853-22.006,22.004
				c0,12.151,9.854,22.005,22.006,22.005c12.186,0,14.157,6.825,15.398,17.549c0.472,4.086,1.647,7.39-0.497,10.988
				c-0.939,1.576-1.97,3.074-3.114,4.439c-2.306-1.332-4.341-3.029-5.938-5.228c-0.882-1.217-1.651-2.538-2.5-3.784
				c-0.48-0.705-0.801-1.251-0.567-2.284c0.766-3.409,3.63-2.214,3.786-3.567c0.079-0.671-0.198-1.718-0.848-2.042
				c-0.745-0.369-1.972,0.019-2.364,2.422c-0.093,0.563-0.56,0.968-0.989,1.352c-0.302,0.272-0.535,0.345-0.726,0.271
				c-0.412-0.163-1.052-0.923-1.326-1.885c-0.158-0.713-0.521-5.729-1.614-6.304c-0.799-0.419-2.246-0.008-2.323,0.962
				c-0.075,0.955,0.811,1.882,1.348,2.577c0.738,0.935,2.146,3.342,1.804,3.729c-0.319,0.364-0.361,0.153-0.833-0.202
				c-0.47-0.357-2.512-2.688-2.832-3.088c-0.722-0.87-1.494-2.201-2.718-1.534c-2.547,1.389,1.672,3.293,2.812,3.951
				c1.586,1.017,2.432,1.729,3.84,2.981c0.466,0.452,1.555,2.066,2.46,3.45c0.865,1.319,1.673,2.579,2.611,3.847
				c1.752,2.369,3.439,4.179,5.289,5.578c0.459,0.348,0.714,0.543,1.039,1.02c0.609,0.889,0.659,0.705,1.741-0.411
				c1.407-1.45,2.594-3.159,3.696-5.247c-0.415,8.648,1.913,14.473,3.904,21.913c2.619,9.788,2.021,18.768,2.021,29.724
				c0,0.65,0.528,1.175,1.176,1.175c2.42,0,8.027,0,11.604,0c3.644,0,4.309-3.096,0.666-3.096c-2.786,0-7.493,0.442-11.641,0.725
				c-0.847-9.4-0.437-17.915,0.776-27.276c6.411,5.063,30.889,5.857,44.969,2.944c1.185,0.026,2.37,0.047,3.555,0.055
				c2.865,0.021,5.124,22.789,3.881,24.541c-0.309,0.434-1.488,1.138-0.798,1.802c0.464,0.445,1.441,0.342,2.28,0.226
				c2.31-0.324,4.873-0.47,7.191-0.298c0.418,0.032,0.841,0.087,1.315,0.172c0.479,0.091,0.955,0.11,1.425-0.102
				c0.442-0.197,0.687-0.552,0.094-1.123c-0.256-0.247-0.719-0.355-1.302-0.426c-0.783,0-1.559,0.012-2.334,0.038
				c-1.042,0.037-2.073,0.171-3.112,0.049c-2.816-0.331-2.623-1.3-2.776-4.247c-0.028-0.511-0.157-14.746-0.244-16.886
				c-0.205-4.947,1.138-11.302,1.859-16.384c1.88,3.301,4.692,6.086,8.946,9.188l0.146,0.108l0,0l0.001,0.001
				c0.022,0.018,0.058,0.042,0.105,0.077l0.004,0.002l0.005,0.003l0.008,0.007c0.864,0.616,5.204,3.532,6.021,4.426
				c1.359,1.625,2.133,2.598,3.223,4.415c0.701,1.302,2.701,6.108,4.345,3.291c0.79-1.352-0.678-2.265-1.634-3.104
				c-0.436-0.376-2.99-2.748-3.374-3.288c-0.385-0.543-0.618-0.595-0.199-0.945c0.444-0.369,3.104,1.293,4.13,2.153
				c0.764,0.628,1.775,1.654,2.854,1.603c1.091-0.056,1.602-1.668,1.156-2.58c-0.608-1.246-6.235-1.822-7.03-2.022
				c-1.072-0.343-1.906-1.086-2.075-1.558c-0.075-0.216,0.012-0.476,0.328-0.805c0.449-0.47,0.918-0.982,1.553-1.066
				c2.715-0.362,3.191-1.728,2.802-2.577c-0.341-0.74-1.51-1.088-2.267-1.021c-1.527,0.131-0.277,3.39-4.137,4.139
				c-1.575,0.304-2.121-0.486-3.453-1.354c-0.371-0.244-1.076-0.776-1.077-0.776c-0.221-0.154-0.477-0.338-0.794-0.543
				c-3.43-2.195-5.74-5.681-7.217-9.097c-1.225-2.837-2.568-6.14-2.539-9.227c0.017-1.974-0.112-3.968-0.373-5.96
				c-0.576-4.39-2.532-10.127,3.994-4.36c3.816,3.37-1.481,8.514,2.087,14.559c3.392,5.746,10.802,7.654,16.549,4.263
				c5.747-3.393,7.657-10.802,4.264-16.549c-2.543-4.31-7.348-6.461-12.015-5.838c-7.154,0.958-8.06-0.312-14.059-1.581
				c-3.577-0.756-8.041-5.534-1.432-4.614c0.936,0.132,1.811,0.297,2.393,0.361c8.592,0.968,19.384,3.854,25.213,0.413
				c7.626-4.499,10.159-14.333,5.658-21.959c-4.499-7.626-14.334-10.159-21.959-5.658c-3.764,2.221-6.286,5.742-7.335,9.654
				c-2.159,8.051,6.039,13.937-6.088,13.98c-2.585,0.01-6.842-1.45-3.413-4.572c3.599-3.277,4.227-5.991,4.559-10.929
				c0.55-8.201,4.364-4.362,8.292-9.667c2.33-3.148,2.694-7.511,0.579-11.095c-2.821-4.78-8.986-6.369-13.764-3.547
				c-4.78,2.821-6.369,8.986-3.549,13.765c3.939,6.67,5.74,2.012,5.16,10.444c-0.179,2.598-0.511,4.921-1.289,6.447
				C99.905,73.202,97.294,77.297,89.522,74.179z"/>
			<path style="fill-rule:evenodd;clip-rule:evenodd;fill:#FFFFFF;stroke:#9F80B9;stroke-miterlimit:10;" d="M74.569,63.719
				c8.802,0,15.982-7.18,15.982-15.984c0-8.805-7.181-15.984-15.982-15.984c-8.805,0-15.986,7.18-15.986,15.984
				C58.583,56.54,65.765,63.719,74.569,63.719z"/>
			<path style="fill-rule:evenodd;clip-rule:evenodd;fill:#FFFFFF;stroke:#9F80B9;stroke-miterlimit:10;" d="M28.142,64.316
				c10.461,0,18.993-8.533,18.993-18.993c0-10.461-8.532-18.993-18.993-18.993S9.149,34.863,9.149,45.324
				C9.149,55.784,17.681,64.316,28.142,64.316z"/>
			<circle style="fill-rule:evenodd;clip-rule:evenodd;fill:#020202;" cx="83.913" cy="50.75" r="3.986"/>
			<circle style="fill-rule:evenodd;clip-rule:evenodd;fill:#020202;" cx="17.59" cy="37.486" r="3.985"/>
			<circle style="fill-rule:evenodd;clip-rule:evenodd;fill:#FFFFFF;" cx="128.056" cy="66.798" r="13.206"/>
			<circle style="fill-rule:evenodd;clip-rule:evenodd;fill:#020202;" cx="120.993" cy="62.606" r="2.985"/>
			<circle style="fill-rule:evenodd;clip-rule:evenodd;fill:#FFFFFF;" cx="107.383" cy="45.552" r="8.843"/>
			<circle style="fill-rule:evenodd;clip-rule:evenodd;fill:#FFFFFF;" cx="125.529" cy="98.379" r="9.933"/>
			<circle style="fill-rule:evenodd;clip-rule:evenodd;fill:#020202;" cx="112.896" cy="44.06" r="2.182"/>
			<circle style="fill-rule:evenodd;clip-rule:evenodd;fill:#020202;" cx="128.973" cy="104.235" r="2.527"/>
		</g>
		<g>
			<path style="fill-rule:evenodd;clip-rule:evenodd;" d="M98.581,98.964c1.127,0.383,3.406,1.161,4.307-0.023
				c0.193-0.254,0.251-0.637,0.233-1.234c-0.069-2.364-1.396-5.173-2.624-7.157c-1.49-2.411-3.255-3.852-5.303-5.107
				c-6.079-3.733-12.436-4.296-19.336-2.685c-5.578,1.301-10.414,3.779-14.863,8.563c-2.547,2.742-5.268,6.574-6.36,10.509
				c-0.335,1.204-0.518,2.419-0.495,3.613c0.015,0.771,0.13,1.582,0.381,2.611c0.495,1.213,0.862,1.902,1.32,2.189
				c0.831,0.525,2.221-0.32,2.946-0.813c0.975-0.659,1.867-1.456,2.744-2.281c1.943-1.825,3.926-3.598,6.053-5.209
				c4.301-3.258,8.793-5.406,14.693-5.97C87.564,95.466,93.647,97.141,98.581,98.964z"/>
			<polygon style="fill-rule:evenodd;clip-rule:evenodd;fill:#FFFFFF;" points="58.754,110.139 57.307,104.246 62.559,107.071 			
				"/>
			<polygon style="fill-rule:evenodd;clip-rule:evenodd;fill:#FFFFFF;" points="64.246,105.593 63.013,99.512 68.386,102.17 			"/>
			<polygon style="fill-rule:evenodd;clip-rule:evenodd;fill:#FFFFFF;" points="86.963,96.487 90.147,91.962 91.586,97.21 			"/>
			<polygon style="fill-rule:evenodd;clip-rule:evenodd;fill:#FFFFFF;" points="95.54,98.266 99.03,94.39 100.081,99.792 			"/>
			<polygon style="fill-rule:evenodd;clip-rule:evenodd;fill:#FFFFFF;" points="101.242,90.558 96.803,92.375 97.775,86.626 			"/>
			<polygon style="fill-rule:evenodd;clip-rule:evenodd;fill:#FFFFFF;" points="85.817,81.6 82.719,87.058 80.57,81.384 			"/>
			<polygon style="fill-rule:evenodd;clip-rule:evenodd;fill:#FFFFFF;" points="75.917,81.876 75.419,88.071 70.894,83.535 			"/>
			<polygon style="fill-rule:evenodd;clip-rule:evenodd;fill:#FFFFFF;" points="67.419,85.604 68.691,91.212 63.198,88.486 			"/>
			<polygon style="fill-rule:evenodd;clip-rule:evenodd;fill:#FFFFFF;" points="56.514,96.228 60.712,100.426 54.324,101.012 			"/>
			<path style="fill-rule:evenodd;clip-rule:evenodd;fill:#9F80B9;" d="M102.888,98.94c0.193-0.254,0.251-0.637,0.233-1.234
				c-0.069-2.364-1.396-5.173-2.624-7.157c-1.49-2.411-3.255-3.852-5.303-5.107c-6.079-3.733-12.436-4.296-19.336-2.685
				c-5.578,1.301-10.414,3.779-14.863,8.563c-2.547,2.742-5.268,6.574-6.36,10.509c-0.335,1.204-0.518,2.419-0.495,3.613
				c0.015,0.771,0.13,1.582,0.381,2.611c0.495,1.213,0.862,1.902,1.32,2.189c0.831,0.525,2.221-0.32,2.946-0.813
				c0.975-0.659,1.867-1.456,2.744-2.281c1.943-1.825,3.926-3.598,6.053-5.209c4.301-3.258,8.793-5.406,14.693-5.97
				c5.287-0.504,11.37,1.171,16.304,2.994C99.708,99.347,101.987,100.125,102.888,98.94L102.888,98.94z M52.372,108.936
				l-0.068-0.164l-0.041-0.17c-0.25-1.027-0.425-2.055-0.444-3.116c-0.027-1.446,0.191-2.887,0.579-4.278
				c1.166-4.201,3.955-8.301,6.897-11.467c4.502-4.845,9.641-7.752,16.036-9.245c7.476-1.745,14.457-1.097,21.078,2.968
				c2.536,1.554,4.479,3.302,6.063,5.862c1.467,2.371,2.889,5.495,2.971,8.313c0.028,0.976-0.096,1.906-0.707,2.71
				c-1.159,1.521-3.022,1.735-4.774,1.408c-0.73-0.137-1.422-0.357-2.124-0.593l-0.029-0.011l-0.03-0.011
				c-4.584-1.692-10.364-3.332-15.279-2.862c-5.246,0.501-9.36,2.365-13.513,5.51c-2.058,1.561-3.984,3.284-5.863,5.05
				c-0.959,0.902-1.941,1.773-3.03,2.512c-1.586,1.075-3.669,2.005-5.487,0.858C53.453,111.485,52.867,110.146,52.372,108.936
				L52.372,108.936z"/>
		</g>
	</g>
</g>
<g id="Layer_1">
</g>
</svg>
