<?xml version="1.0" encoding="iso-8859-1"?>
<!-- Generator: Adobe Illustrator 16.0.0, SVG Export Plug-In . SVG Version: 6.00 Build 0)  -->
<!DOCTYPE svg PUBLIC "-//W3C//DTD SVG 1.1//EN" "http://www.w3.org/Graphics/SVG/1.1/DTD/svg11.dtd">
<svg version="1.1" xmlns="http://www.w3.org/2000/svg" xmlns:xlink="http://www.w3.org/1999/xlink" x="0px" y="0px" width="150px"
	 height="150px" viewBox="0 0 150 150" style="enable-background:new 0 0 150 150;" xml:space="preserve">
<g id="_x30_5_x5F_05_x5F_black">
	<rect style="fill:none;" width="150" height="150"/>
	<g>
		<path d="M27.596,149c-0.523,0-0.965-0.131-1.432-0.269c-0.105-0.031-0.214-0.063-0.328-0.095c-2.078-0.172-4.224-0.173-6.3-0.174
			c-1.31-0.001-2.62-0.001-3.929-0.041l-0.088-0.003l-0.086-0.019c-0.213-0.045-0.404-0.064-0.569-0.083
			c-0.461-0.052-1.094-0.123-1.487-0.697c-0.609-0.879-0.4-1.586-0.221-1.929c0.626-1.196,2.5-1.257,2.869-1.257
			c0.129,0,0.249,0.005,0.355,0.016l4.239-0.036h2.076c1.028-0.007,1.901-0.029,2.115-0.239c1.1-1.09-0.204-5.553-0.904-7.949
			c-0.345-1.182-0.643-2.201-0.749-2.921c-0.789-5.419-1.07-10.126-0.861-14.392c0.028-0.559,0.068-1.076,0.105-1.55
			c0.067-0.858,0.149-1.918,0.016-2.22c-0.004,0.001-0.082-0.003-0.141-0.003c-0.543,0-1.571,0.308-3.055,0.915
			c-3.636,1.486-6.89,2.222-10.237,2.314l-0.34,0.004c-0.906,0-1.916-0.092-2.532-0.777c-0.658-0.73-0.557-1.688-0.43-2.901
			c0.037-0.354,0.079-0.751,0.109-1.193c0.389-5.866,1.957-10.495,3.668-15.111c2.044-5.574,2.673-7.898,2.29-14.105
			c-0.022-0.188-0.065-0.492-0.115-0.841c-0.389-2.74-1.04-7.325,1.692-8.025l0.123-0.031h1.03l0.1,0.021
			c0.348,0.072,0.712,0.198,1.081,0.373c2.549,1.196,1.825,3.782,1.346,5.494c-0.069,0.248-0.138,0.491-0.196,0.727
			c-0.206,0.791-0.875,3.848-1.164,5.515c0.605-1.159,1.292-2.804,1.616-3.987l0.152-0.567c0.373-1.423,0.884-3.37,2.38-4.297
			c0.419-0.259,0.884-0.39,1.384-0.39c1.653,0,3.392,1.535,3.649,3.222c0.269,1.756-1.98,4.278-5.955,8.042
			c-0.462,0.438-0.898,0.851-1.03,1.002c-0.654,0.845-1.16,2.074-1.006,2.488c0.029,0.08,0.203,0.126,0.304,0.146l0.126,0.026
			c0.475,0.099,0.923,0.191,1.32,0.191c0.267,0,0.473-0.042,0.649-0.131c1.318-0.672,2.523-1.015,3.577-1.015
			c2.147,0,3.14,1.354,3.338,2.513c0.317,1.744-1.187,3.47-2.357,4.135c-0.343,0.194-0.704,0.293-1.073,0.293
			c-0.866,0-1.534-0.51-2.242-1.049c-0.82-0.626-1.668-1.272-2.941-1.272c-0.661,0-1.405,0.179-2.21,0.53
			c-1.155,0.502-1.463,1.087-1.892,2.302c-1.512,4.237-2.751,8.17-2.577,12.975c4.56-1.304,8.396-3.273,10.559-4.762
			c1.476-1.021,3.057-2.707,4.568-4.876c1.764-2.526,1.891-7.466,2.025-12.696c0.039-1.514,0.079-3.054,0.158-4.577
			c0.468-8.962,0.441-11.861,0.394-17.124c-0.018-1.948-0.038-4.222-0.038-7.242c0-12.375,10.067-22.442,22.442-22.442
			c6.714,0,12.106,2.041,16.028,6.066c6.108,6.269,7.177,15.762,6.999,22.622c-0.068,2.563-0.09,4.045-0.106,5.105
			c-0.037,2.472-0.04,2.674-0.517,8.838c-0.371,4.78,0.105,6.067,0.422,6.41c0.044,0.048,0.057,0.048,0.093,0.048
			c0.105,0,0.701-0.068,2.061-1.409c3.393-3.352,2.246-7.697,1.033-12.298c-0.203-0.768-0.403-1.529-0.58-2.278
			c-2.285-9.708,2.984-14.321,8.563-19.206c1.503-1.316,3.057-2.676,4.537-4.187c1.393-1.419,1.124-3.105,0.57-5.739
			c-0.278-1.326-0.566-2.696-0.566-4.17c0-12.5,10.169-22.669,22.669-22.669s22.67,10.169,22.67,22.669
			c0,4.042-1.078,8.011-3.116,11.478c-1.552,3.115-3.979,5.69-6.986,7.389c-3.674,2.474-8.042,3.804-12.567,3.804
			c-2.454,0-4.867-0.39-7.17-1.159c-1.162-0.387-2.21-0.804-3.135-1.172c-1.94-0.772-3.474-1.382-5.081-1.382
			c-1.988,0-4.104,0.976-6.862,3.165c-3.626,2.875-5.673,6.798-5.765,11.048c-0.099,4.572,2.075,9.125,5.964,12.493
			c1.767,1.53,3.249,2.685,4.557,3.702c4.186,3.258,6.713,5.225,10.803,13.622c2.351,4.135,7.294,9.883,13.392,12.293
			c1.468,0.578,3.353,1.003,5.177,1.412c0.692,0.156,1.368,0.309,1.998,0.464c0.399,0.099,0.726,0.164,1.017,0.164
			c0.273,0,0.627-0.047,1.172-0.397c1.866-1.202,1.79-2.373,1.71-3.612c-0.059-0.901-0.139-2.137,1.08-2.75
			c0.551-0.28,1.263-0.443,1.949-0.443c0.866,0,1.593,0.252,2.101,0.729c0.596,0.567,0.876,1.367,0.772,2.198
			c-0.109,0.883-0.701,2.194-2.894,3.428c-0.329,0.187-0.551,0.745-0.765,1.285c-0.024,0.059-0.042,0.107-0.055,0.146
			c0.285,0.151,0.906,0.363,1.681,0.363c0.094,0,0.188-0.004,0.284-0.01c0.116-0.019,0.507-0.111,1.023-0.23
			c1.59-0.367,4.25-0.981,6.074-0.981c1.034,0,1.729,0.192,2.186,0.606c0.764,0.691,1.16,1.905,0.987,3.02
			c-0.139,0.896-0.642,1.604-1.38,1.941c-0.412,0.188-0.88,0.285-1.39,0.285c-0.001,0-0.001,0-0.001,0
			c-0.936,0-1.885-0.321-2.646-0.578c-0.169-0.058-0.331-0.112-0.484-0.16c-0.463-0.151-1.12-0.313-1.804-0.446
			c1.12,0.453,2.325,0.914,2.729,1.053c0.186,0.065,0.371,0.126,0.561,0.187c1.345,0.435,3.596,1.161,3.237,3.575
			c-0.317,2.137-1.689,2.368-2.265,2.368c-1.533,0-3.305-1.462-4.987-2.96c-0.213-0.189-0.397-0.354-0.545-0.478
			c-1.853-1.406-3.031-2.084-5.27-3.289c-0.261-0.123-1.317-0.495-4.986-1.354l-1.074-0.249c-2.114-0.49-3.94-0.912-6.263-1.647
			c-6.575-2.081-10.987-4.897-14.731-9.579c1.327,11.863-1.017,19.699-13.525,28.761c-0.584,0.573-1.195,1.153-1.829,1.742
			c-0.395,0.365-0.556,1.104-0.492,2.262l0.037,0.781c0.129,2.837,0.137,3.007,2.339,3.266c0.318,0.036,0.64,0.05,0.96,0.05
			c0.493,0,0.984-0.03,1.478-0.061c0.354-0.021,0.708-0.043,1.063-0.055c0.922-0.031,1.841-0.046,2.771-0.046h0.062l0.061,0.008
			c0.772,0.095,1.562,0.253,2.1,0.771c0.564,0.543,0.799,1.113,0.696,1.695c-0.056,0.313-0.271,0.894-1.097,1.258
			c-0.416,0.188-0.862,0.281-1.355,0.281c-0.278,0-0.573-0.03-0.904-0.093c-0.505-0.096-0.957-0.155-1.428-0.188
			c-0.746-0.056-1.536-0.084-2.352-0.084c-1.862,0-3.896,0.146-5.879,0.424c-0.473,0.066-0.979,0.129-1.472,0.129
			c-0.904,0-1.569-0.217-2.033-0.663c-0.462-0.443-0.559-0.92-0.558-1.241c0.001-0.848,0.635-1.453,1.099-1.896
			c0.108-0.104,0.214-0.195,0.275-0.279c0.273-0.386,0.269-1.252-0.018-2.146c-0.421-1.317-1.61-1.807-4.389-1.807
			c-0.406,0-0.816,0.008-1.222,0.017c-0.412,0.009-0.819,0.017-1.216,0.017c-0.258,0-0.511-0.003-0.757-0.013
			c-1.587-0.058-3.55-0.086-6-0.086c-2.568,0-5.392,0.03-8.331,0.062c-3.195,0.033-6.525,0.068-9.811,0.068
			c-7.306,0-16.365-0.153-21.612-1.353c0,0-0.785-0.186-0.929-0.216c-0.015,0.212-0.022,0.54-0.014,1.046
			c0.008,0.475,0.026,0.975,0.044,1.446c0.019,0.517,0.037,1.001,0.04,1.388c0.026,0.181,0.05,0.362,0.074,0.543
			c0.108,0.825,0.201,1.539,0.581,2.135c0.288,0.455,0.628,0.995,0.43,1.648c-0.202,0.663-0.83,0.941-1.037,1.033
			C28.474,148.902,28.039,149,27.596,149z"/>
		<path style="fill:#FFFFFF;" d="M112.174,17.088c11.968,0,21.67,9.703,21.67,21.669c0,4.004-1.086,7.753-2.979,10.971
			c-1.447,2.901-3.674,5.364-6.616,7.025c-3.449,2.32-7.604,3.674-12.075,3.674c-2.395,0-4.7-0.389-6.854-1.108
			c-3.559-1.185-5.89-2.605-8.532-2.605c-2.062,0-4.313,0.865-7.484,3.381c-8.519,6.754-7.917,18.08,0.167,25.08
			c7.47,6.474,9.873,6.245,15.114,17.006c2.233,3.932,7.224,10.138,13.924,12.785c2.116,0.835,5.012,1.352,7.303,1.917
			c0.446,0.11,0.851,0.193,1.256,0.193c0.533,0,1.069-0.144,1.712-0.556c3.876-2.497,1.093-5.502,2.699-6.311
			c0.399-0.203,0.956-0.337,1.5-0.337c0.541,0,1.068,0.132,1.415,0.458c0.796,0.757,0.873,2.451-1.926,4.026
			c-0.655,0.37-0.945,1.136-1.227,1.844c-0.2,0.497-0.183,0.816-0.005,1.02c0.353,0.398,1.404,0.803,2.583,0.803
			c0.117,0,0.235-0.004,0.354-0.013c0.735-0.1,4.698-1.209,7.027-1.209c0.69,0,1.238,0.098,1.515,0.348
			c0.88,0.798,1.026,2.777-0.138,3.311c-0.303,0.139-0.632,0.194-0.975,0.194c-0.959,0-2.016-0.437-2.831-0.692
			c-1.069-0.35-3.226-0.784-4.485-0.784c-0.501,0-0.86,0.069-0.952,0.239c-0.305,0.565-0.026,0.522,0.629,0.943
			c0.654,0.422,4.469,1.889,5.109,2.108c1.405,0.497,3.402,0.854,3.133,2.668c-0.164,1.104-0.645,1.516-1.275,1.516
			c-1.531,0-3.949-2.418-4.892-3.205c-1.979-1.504-3.247-2.224-5.437-3.402c-0.755-0.36-3.146-0.958-5.232-1.446
			c-2.666-0.623-4.608-1.036-7.263-1.876c-7.856-2.487-12.386-5.916-16.584-12.544c2.313,14.414,0.549,22.393-12.621,31.912
			c-0.595,0.584-1.217,1.176-1.863,1.776c-0.688,0.635-0.885,1.677-0.811,3.048c0.182,3.458-0.047,4.598,3.258,4.986
			c0.359,0.041,0.719,0.057,1.077,0.057c0.857,0,1.713-0.087,2.574-0.116c0.911-0.03,1.818-0.045,2.738-0.045
			c0.685,0.084,1.228,0.21,1.528,0.499c0.696,0.67,0.407,1.089-0.111,1.318c-0.314,0.142-0.632,0.195-0.951,0.195
			c-0.239,0-0.479-0.03-0.72-0.075c-0.555-0.105-1.052-0.169-1.543-0.203c-0.788-0.059-1.6-0.086-2.421-0.086
			c-2.016,0-4.092,0.164-6.018,0.434c-0.435,0.062-0.901,0.119-1.333,0.119c-0.546,0-1.036-0.092-1.34-0.384
			c-0.812-0.779,0.571-1.605,0.935-2.11c0.531-0.751,0.465-1.968,0.123-3.036c-0.709-2.218-2.967-2.502-5.341-2.502
			c-0.818,0-1.65,0.033-2.438,0.033c-0.245,0-0.486-0.003-0.721-0.012c-1.757-0.064-3.799-0.087-6.037-0.087
			c-5.361,0-11.834,0.13-18.142,0.13c-8.448,0-16.603-0.233-21.39-1.327c-0.683-0.155-1.159-0.293-1.486-0.293
			c-0.602,0-0.706,0.462-0.679,2.114c0.017,1.021,0.084,2.161,0.084,2.894c0.166,1.085,0.2,2.18,0.811,3.139
			c0.342,0.543,0.599,0.891-0.168,1.23c-0.345,0.153-0.641,0.212-0.924,0.212c-0.503,0-0.965-0.186-1.585-0.353
			c-3.438-0.293-6.911-0.119-10.373-0.226c-0.734-0.154-1.233-0.069-1.437-0.366c-0.852-1.229,0.859-1.621,1.823-1.621
			c0.115,0,0.219,0.005,0.307,0.016c1.43-0.013,2.867-0.022,4.297-0.036c0.231-0.001,0.461-0.001,0.691-0.001
			c0.459,0,0.917,0.001,1.375,0.001c1.611-0.011,2.347-0.065,2.815-0.525c2.081-2.063-1.005-9.287-1.363-11.729
			c-0.808-5.551-1.047-10.209-0.852-14.197c0.149-3.005,0.667-4.821-1.019-4.821c-0.701,0-1.784,0.314-3.433,0.989
			c-3.302,1.35-6.422,2.145-9.887,2.24c-0.109,0.003-0.213,0.004-0.312,0.004c-2.68,0-2.042-1.04-1.856-3.805
			c0.366-5.519,1.777-9.892,3.608-14.831c2.123-5.789,2.738-8.233,2.351-14.515c-0.197-1.787-1.332-7.282,0.828-7.836h0.802
			c0.255,0.053,0.54,0.147,0.854,0.297c2.066,0.97,1.056,3.273,0.608,5.076c-0.209,0.805-1.31,5.76-1.327,6.729
			c-0.012,0.965-0.248,1.222,0.537,1.293c0.008,0.001,0.016,0.001,0.024,0.001c0.853,0,2.645-4.136,3.153-5.99
			c0.39-1.388,0.763-3.454,2.095-4.279c0.269-0.166,0.56-0.239,0.857-0.239c1.2,0,2.482,1.201,2.661,2.372
			c0.307,2-5.967,7.336-6.751,8.237c-0.815,1.05-2.331,3.83-0.146,4.271c0.544,0.112,1.105,0.237,1.644,0.237
			c0.382,0,0.752-0.063,1.099-0.237c1.276-0.65,2.312-0.908,3.127-0.908c1.455,0.001,2.205,0.819,2.352,1.681
			c0.212,1.167-0.905,2.552-1.865,3.098c-0.199,0.113-0.391,0.162-0.579,0.162c-1.294,0-2.462-2.321-5.183-2.321
			c-0.743,0-1.602,0.174-2.611,0.614c-1.558,0.676-1.983,1.605-2.435,2.886c-1.754,4.914-3.014,9.141-2.558,14.591
			c5.135-1.299,9.549-3.502,12.05-5.222c1.675-1.158,3.327-2.983,4.822-5.128c2.476-3.545,1.998-10.845,2.361-17.794
			c0.642-12.292,0.357-13.182,0.357-24.417c0-11.842,9.6-21.442,21.442-21.442c16.665,0,22.409,12.996,22.027,27.662
			c-0.229,8.536,0.059,5.121-0.621,13.892c-0.302,3.897-0.251,7.535,1.513,7.535c0.658,0,1.556-0.508,2.762-1.697
			c4.429-4.375,1.962-10.259,0.725-15.518c-2.729-11.594,5.772-15.25,12.84-22.463c2.767-2.819,0.29-6.528,0.29-10.609
			C90.505,26.791,100.207,17.088,112.174,17.088 M112.174,15.088c-13.051,0-23.669,10.618-23.669,23.669
			c0,1.578,0.313,3.064,0.588,4.375c0.556,2.646,0.685,3.824-0.306,4.833c-1.454,1.484-2.993,2.832-4.481,4.135
			c-4.172,3.652-8.45,7.398-9.297,13.395c-0.13-9.099-2.634-16.387-7.295-21.172c-4.117-4.226-9.751-6.368-16.745-6.368
			c-12.926,0-23.442,10.516-23.442,23.442c0,3.024,0.021,5.3,0.038,7.251c0.047,5.243,0.073,8.131-0.393,17.062
			c-0.081,1.541-0.121,3.099-0.159,4.604c-0.03,1.156-0.06,2.321-0.109,3.457c-0.553-1.347-1.92-2.522-4.089-2.523
			c-1.213,0-2.571,0.379-4.036,1.126c0,0,0,0,0,0c-0.001,0-0.051,0.02-0.191,0.02c-0.175,0-0.389-0.029-0.622-0.072
			c0.147-0.352,0.387-0.79,0.662-1.156c0.146-0.154,0.563-0.549,0.934-0.899c4.415-4.181,6.595-6.708,6.256-8.921
			c-0.331-2.167-2.498-4.069-4.637-4.069c-0.678,0-1.337,0.186-1.907,0.537c-0.303,0.188-0.572,0.403-0.811,0.64
			c-0.052-1.358-0.599-2.742-2.381-3.578c-0.433-0.206-0.873-0.356-1.299-0.445l-0.201-0.042h-0.205h-0.802h-0.252l-0.244,0.063
			c-3.6,0.923-2.87,6.063-2.435,9.135c0.045,0.314,0.084,0.591,0.11,0.813c0.357,5.84-0.14,7.938-2.235,13.652
			c-1.735,4.681-3.328,9.386-3.726,15.387c-0.029,0.427-0.069,0.812-0.105,1.154c-0.135,1.285-0.274,2.614,0.682,3.676
			c0.885,0.981,2.215,1.107,3.275,1.107c0.116,0,0.237-0.001,0.364-0.005c3.476-0.096,6.84-0.854,10.592-2.388
			c0.862-0.353,1.46-0.56,1.873-0.679c-0.017,0.314-0.044,0.666-0.069,0.982c-0.038,0.482-0.078,1.01-0.106,1.577
			c-0.212,4.333,0.072,9.104,0.87,14.585c0.116,0.791,0.423,1.842,0.778,3.059c0.463,1.586,1.662,5.691,1.206,6.85
			c-0.38,0.052-1.15,0.057-1.471,0.059h-0.672l-0.69-0.001l-0.697,0.001l-2.462,0.021l-1.743,0.015
			c-0.12-0.01-0.252-0.015-0.393-0.015c-0.661,0-2.884,0.129-3.755,1.793c-0.229,0.438-0.659,1.602,0.288,2.968
			c0.645,0.942,1.653,1.055,2.194,1.115c0.138,0.016,0.296,0.031,0.475,0.068l0.173,0.036l0.177,0.006
			c1.329,0.041,2.666,0.041,3.959,0.042c2.117,0.001,4.119,0.001,6.122,0.162c0.077,0.022,0.151,0.044,0.223,0.065
			c0.491,0.145,1.048,0.31,1.715,0.31c0.586,0,1.154-0.126,1.735-0.384c0.831-0.368,1.365-0.926,1.587-1.657
			c0.332-1.091-0.211-1.95-0.503-2.411l-0.035-0.056c-0.265-0.417-0.341-0.999-0.438-1.736c-0.021-0.163-0.042-0.326-0.066-0.489
			c-0.004-0.384-0.021-0.852-0.04-1.35c-0.015-0.391-0.03-0.802-0.04-1.2c5.379,1.164,14.321,1.314,21.551,1.314
			c3.292,0,6.612-0.035,9.821-0.069c2.962-0.031,5.759-0.061,8.32-0.061c2.438,0,4.389,0.028,5.964,0.086
			c0.258,0.009,0.523,0.013,0.794,0.013c0.403,0,0.817-0.008,1.236-0.017c0.398-0.009,0.802-0.017,1.201-0.017
			c2.843,0,3.256,0.549,3.436,1.11c0.204,0.637,0.188,1.101,0.144,1.266c-0.042,0.042-0.09,0.086-0.14,0.133
			c-0.525,0.503-1.406,1.344-1.407,2.618c-0.001,0.729,0.307,1.427,0.865,1.964c0.658,0.633,1.55,0.941,2.726,0.941
			c0.554,0,1.103-0.066,1.612-0.139c1.937-0.271,3.922-0.414,5.738-0.414c0.791,0,1.556,0.027,2.272,0.08
			c0.439,0.031,0.855,0.086,1.317,0.174c0.397,0.074,0.753,0.11,1.094,0.11c0.63,0,1.227-0.125,1.773-0.372
			c1.236-0.547,1.573-1.484,1.663-1.993c0.113-0.64,0.033-1.607-0.987-2.59c-0.752-0.723-1.772-0.933-2.672-1.043l-0.121-0.015
			h-0.122c-0.955,0-1.872,0.015-2.805,0.046c-0.364,0.013-0.728,0.034-1.091,0.057c-0.496,0.03-0.965,0.059-1.417,0.059
			c-0.316,0-0.594-0.015-0.85-0.044c-0.846-0.1-1.157-0.228-1.251-0.277c-0.12-0.3-0.164-1.261-0.199-2.039
			c-0.012-0.249-0.023-0.511-0.038-0.787c-0.065-1.221,0.168-1.472,0.17-1.474c0.654-0.607,1.243-1.168,1.801-1.714
			c11.658-8.465,14.692-16.17,14.122-26.605c3.443,3.513,7.542,5.825,13.186,7.612c2.359,0.746,4.203,1.173,6.338,1.667l1.073,0.249
			c3.613,0.846,4.561,1.188,4.793,1.289c2.141,1.153,3.288,1.814,5.082,3.176c0.136,0.114,0.301,0.262,0.489,0.429
			c1.901,1.693,3.766,3.213,5.651,3.213c1.342,0,2.9-0.847,3.254-3.222c0.208-1.401-0.246-2.384-0.937-3.082
			c0.055-0.022,0.109-0.046,0.163-0.07c1.049-0.48,1.761-1.464,1.951-2.697c0.226-1.455-0.286-2.991-1.303-3.913
			c-0.858-0.776-2.042-0.866-2.858-0.866c-1.938,0-4.668,0.63-6.3,1.007c-0.347,0.08-0.77,0.178-0.947,0.212
			c-0.045,0.002-0.09,0.003-0.135,0.003c-0.076,0-0.15-0.003-0.223-0.008c2.435-1.416,3.112-3.002,3.247-4.092
			c0.144-1.149-0.247-2.258-1.072-3.042c-0.703-0.662-1.667-1.009-2.793-1.009c-0.839,0-1.717,0.202-2.408,0.555
			c-1.801,0.906-1.678,2.796-1.619,3.703c0.073,1.138,0.118,1.823-1.255,2.708c-0.369,0.237-0.538,0.237-0.629,0.237
			c-0.202,0-0.492-0.065-0.777-0.135c-0.636-0.157-1.318-0.312-2.019-0.469c-1.786-0.401-3.633-0.816-5.028-1.367
			c-5.829-2.304-10.577-7.814-12.889-11.858c-4.175-8.557-6.769-10.575-11.059-13.915c-1.298-1.011-2.77-2.155-4.516-3.669
			c-3.664-3.173-5.712-7.442-5.619-11.715c0.085-3.947,1.998-7.6,5.385-10.286c3.294-2.614,5.066-2.949,6.242-2.949
			c1.416,0,2.87,0.579,4.711,1.311c0.938,0.373,1.999,0.796,3.189,1.192c2.404,0.803,4.923,1.21,7.485,1.21
			c4.699,0,9.236-1.373,13.127-3.972c3.132-1.786,5.661-4.472,7.323-7.773c2.106-3.606,3.22-7.729,3.22-11.926
			C135.844,25.706,125.226,15.088,112.174,15.088L112.174,15.088z M74.369,86.697c-0.126-0.727-0.221-2.182,0-5.034
			c0.48-6.195,0.483-6.399,0.52-8.9c0.012-0.778,0.027-1.786,0.061-3.284c0.09,0.891,0.247,1.826,0.478,2.809
			c0.178,0.757,0.381,1.527,0.585,2.304c1.377,5.218,2.012,8.585-0.769,11.333C74.881,86.283,74.592,86.529,74.369,86.697
			L74.369,86.697z M22.722,100.188c0.545,0,1.072-0.142,1.566-0.423c0.922-0.524,1.812-1.414,2.358-2.461
			c-0.246,2.167-0.676,4.01-1.478,5.158c-1.445,2.073-2.939,3.673-4.32,4.629c-1.893,1.301-5.12,2.988-9.003,4.237
			c0.067-4.028,1.152-7.423,2.533-11.29c0.384-1.091,0.554-1.379,1.347-1.723c0.684-0.299,1.292-0.449,1.815-0.449
			c0.935,0,1.583,0.495,2.335,1.067C20.644,99.522,21.518,100.188,22.722,100.188L22.722,100.188z"/>
	</g>
</g>
<g id="Layer_1">
</g>
</svg>
