<?xml version="1.0" encoding="iso-8859-1"?>
<!-- Generator: Adobe Illustrator 16.0.0, SVG Export Plug-In . SVG Version: 6.00 Build 0)  -->
<!DOCTYPE svg PUBLIC "-//W3C//DTD SVG 1.1//EN" "http://www.w3.org/Graphics/SVG/1.1/DTD/svg11.dtd">
<svg version="1.1" xmlns="http://www.w3.org/2000/svg" xmlns:xlink="http://www.w3.org/1999/xlink" x="0px" y="0px" width="150px"
	 height="150px" viewBox="0 0 150 150" style="enable-background:new 0 0 150 150;" xml:space="preserve">
<g id="_x30_5_x5F_01_x5F_black">
	<rect style="fill:none;" width="150" height="150"/>
	<g>
		<path d="M98.288,149c-1.142,0-1.973-0.264-2.538-0.807c-0.541-0.521-0.654-1.07-0.654-1.439c0-1.005,0.804-1.775,1.39-2.339
			c0.171-0.164,0.365-0.351,0.432-0.445c0.378-0.569,0.28-3.907-1.524-10.79c-0.733-2.809-4.711-4.173-12.161-4.173
			c-3.411,0-6.961,0.282-10.092,0.531c-2.368,0.188-4.412,0.351-5.916,0.351h-0.286c-1.509,0-3.405-0.197-5.414-0.405
			c-2.334-0.242-4.981-0.517-7.414-0.517c-5.355,0-8.199,1.339-8.949,4.212c-1.804,6.883-1.902,10.222-1.528,10.786
			c0.07,0.1,0.264,0.286,0.436,0.45c0.586,0.563,1.389,1.335,1.389,2.339c0,0.369-0.113,0.918-0.653,1.438
			c-0.568,0.544-1.398,0.808-2.54,0.808c-0.65,0-1.339-0.083-1.987-0.174c-2.742-0.387-5.565-0.591-8.166-0.591
			c-1.141,0-2.246,0.039-3.285,0.116c-0.678,0.049-1.317,0.134-2.014,0.268c-0.438,0.079-0.82,0.117-1.176,0.117
			c-0.628,0-1.194-0.115-1.73-0.352c-0.928-0.415-1.212-1.021-1.289-1.456c-0.117-0.669,0.168-1.342,0.848-1.999
			c0.66-0.644,1.681-0.848,2.686-0.972l0.061-0.008h0.062c1.281,0,2.547,0.027,3.809,0.063c0.486,0.018,0.963,0.047,1.44,0.076
			c0.728,0.045,1.415,0.087,2.107,0.087c0.5,0,0.947-0.022,1.365-0.069c3.354-0.396,3.381-0.992,3.561-4.872l0.053-1.082
			c0.011-0.234,0.037-0.689,0.072-1.299c0.084-1.45,0.219-3.786,0.318-6.231c0.056-7.041-1.386-12.222-2.658-16.792
			c-2.118-7.609-3.791-13.62,3.545-22.789c0.912-1.141,1.717-2.051,2.364-2.783c0.867-0.98,1.763-1.994,1.715-2.334
			c-0.078-0.543-2.044-1.781-4.534-3.35c-2.042-1.286-4.837-3.047-8.438-5.526l-0.772-0.507l-0.003-0.022
			c-0.257-0.186-0.59-0.429-0.979-0.711c-2.143-1.56-7.161-5.214-8.521-5.793c-3.258-1.219-5.044-1.83-8.293-2.501
			c-0.21-0.031-0.544-0.073-0.929-0.121c-3.542-0.44-7.069-1.046-7.886-3.147c-0.389-1-0.091-2.088,0.886-3.235
			C5.179,60.202,6.023,59.79,7,59.79c1.303,0,2.555,0.75,3.66,1.411c0.241,0.145,0.478,0.286,0.708,0.416
			c0.891,0.514,4.73,2.517,6.189,3.138c-1.039-1.045-2.922-2.551-4.305-3.371c-0.194-0.118-0.394-0.233-0.602-0.354
			c-1.464-0.849-3.286-1.906-3.828-3.724c-0.266-0.892-0.071-1.84,0.548-2.67c0.797-1.069,2.188-1.788,3.462-1.788
			c0.13,0,0.259,0.008,0.385,0.022c1.919,0.226,3.955,3.37,6.823,8.724c0.343,0.64,0.639,1.192,0.763,1.38
			c0.922,1.215,2.134,1.804,2.585,1.883c0.048-0.05,0.136-0.161,0.25-0.382l0.046-0.091c0.406-0.801,0.79-1.557,0.655-2.187
			c-0.652-3.144,0.045-4.826,0.744-5.685c0.623-0.765,1.524-1.203,2.474-1.203c0.098,0,0.196,0.004,0.293,0.014
			c1.916,0.176,3.292,2.245,3.655,3.657c0.406,1.581-0.784,2.495-1.74,3.229c-1.389,1.066-2.826,2.169-2.343,5.426
			c0.236,1.603,0.92,2.072,2.284,3.007c0.39,0.268,0.811,0.557,1.256,0.898c0.382,0.294,1.084,0.774,1.462,1.028h0.017l0.469,0.334
			c0.315,0.224,0.673,0.479,1.081,0.791c7.3,5.718,13.478,6.571,16.511,6.571c3.938,0,6.308-1.361,6.615-2.706
			c0.258-1.133-0.97-2.475-3.287-3.589c-0.483-0.233-1.076-0.452-1.761-0.707c-1.091-0.404-2.329-0.863-3.638-1.56
			c-6.115-3.25-9.915-9.569-9.915-16.492v-0.059l0.007-0.058c1.778-15.055,10.569-20.419,18.205-20.419
			c4.413,0,9.087,1.683,13.16,4.74c13.797,10.356,30.037,38.042,36.667,53.492c2.931,7.679,7.943,14.47,13.096,17.761
			c0.478,0.312,0.862,0.584,1.199,0.824l0.125,0.088c0.035,0.026,1.146,0.862,1.72,1.238c0.47,0.307,0.883,0.607,1.265,0.887
			c1.064,0.778,1.706,1.247,2.737,1.247c0.263,0,0.542-0.029,0.855-0.089c3.233-0.626,3.798-2.348,4.343-4.012
			c0.376-1.146,0.843-2.57,2.468-2.71c0.124-0.011,0.254-0.017,0.388-0.017c1.608,0,3.594,0.772,4.277,2.248
			c0.42,0.919,0.374,1.962-0.125,2.867c-0.551,0.999-1.899,2.283-5.19,2.728c-0.646,0.082-1.232,0.695-1.854,1.344l-0.078,0.082
			c-0.167,0.176-0.24,0.293-0.271,0.354c0.211,0.386,1.172,1.344,2.693,1.83c0.159,0.038,0.779,0.135,1.498,0.246
			c6,0.932,9.64,1.812,10.491,3.549c0.57,1.165,0.463,2.778-0.267,4.014c-0.581,0.983-1.456,1.552-2.464,1.601l-0.177,0.004
			c-1.821,0-3.364-1.319-4.604-2.379c-0.183-0.156-0.358-0.307-0.526-0.445c-1.236-1.037-3.282-2.315-4.613-2.95
			c1.069,1.169,4.227,4.123,5.001,4.79c0.208,0.183,0.421,0.36,0.639,0.541c1.497,1.245,3.759,3.127,2.217,5.754
			c-0.735,1.265-1.637,1.906-2.676,1.906c-2.289,0-4.053-3.162-5.663-6.401c-0.172-0.345-0.321-0.646-0.444-0.876
			c-1.68-2.792-2.851-4.276-5.115-6.986c-0.958-1.049-5.848-4.422-8.197-6.043c-0.588-0.405-1.057-0.729-1.337-0.927l-0.475-0.237
			v-0.118l-0.015-0.012c-3.97-2.895-6.902-6.476-9.043-9.091c-0.417-0.51-0.866-1.059-1.305-1.57
			c1.452,5.853-0.593,10.556-2.58,15.128c-0.531,1.222-1.081,2.484-1.55,3.746c-1.104,2.962-1.549,5.367-1.442,7.8
			c0.101,2.485,0.237,4.854,0.32,6.299c0.033,0.577,0.059,1.008,0.069,1.243l0.052,1.068c0.183,3.972,0.206,4.481,3.569,4.879
			c0.411,0.046,0.857,0.068,1.357,0.068c0.692,0,1.379-0.042,2.106-0.087c0.477-0.029,0.954-0.059,1.432-0.075
			c1.271-0.036,2.535-0.063,3.817-0.063h0.062l0.062,0.008c1.005,0.124,2.027,0.328,2.688,0.976
			c0.676,0.652,0.961,1.324,0.845,1.993c-0.076,0.436-0.36,1.041-1.282,1.455c-0.541,0.239-1.107,0.354-1.734,0.354
			c-0.355,0-0.738-0.037-1.17-0.115c-0.693-0.134-1.352-0.221-2.021-0.27c-1.041-0.077-2.146-0.116-3.287-0.116
			c-2.601,0-5.424,0.204-8.165,0.591C99.628,148.917,98.938,149,98.288,149z"/>
		<path style="fill:#FFFFFF;" d="M56.728,35.674c4.203,0,8.616,1.58,12.56,4.54c13.168,9.884,29.402,36.901,36.349,53.086
			c2.833,7.425,7.915,14.657,13.477,18.209c0.516,0.337,0.926,0.632,1.284,0.886c0,0,1.142,0.86,1.751,1.259
			c1.83,1.193,2.743,2.297,4.549,2.297c0.317,0,0.663-0.034,1.045-0.107c6.253-1.21,4.232-6.494,6.707-6.707
			c0.097-0.009,0.197-0.013,0.302-0.013c1.213,0,2.858,0.564,3.37,1.669c0.631,1.38-0.141,3.589-4.542,4.183
			c-1.025,0.131-1.788,0.962-2.52,1.725c-0.507,0.535-0.646,0.956-0.527,1.302c0.271,0.763,1.625,1.971,3.367,2.527
			c1.285,0.325,10.403,1.257,11.396,3.282c0.722,1.475-0.11,4.09-1.881,4.176c-0.043,0.002-0.085,0.003-0.128,0.003
			c-1.694,0-3.288-1.604-4.495-2.597c-1.499-1.258-5.153-3.574-6.386-3.574c-0.134,0-0.239,0.027-0.311,0.087
			c-0.676,0.563-0.299,0.648,0.33,1.53c0.618,0.878,4.758,4.717,5.467,5.327c1.548,1.364,3.929,2.846,2.646,5.031
			c-0.586,1.006-1.2,1.412-1.813,1.412c-2.175,0-4.345-5.102-5.226-6.749c-1.77-2.943-3.023-4.516-5.229-7.156
			c-1.318-1.444-8.354-6.17-9.76-7.17c-0.005-0.006-0.009-0.01-0.017-0.014c0-0.002-0.003-0.004-0.003-0.006
			c-0.003,0-0.005,0-0.007,0c-0.076-0.054-0.13-0.101-0.163-0.124c-0.001,0-0.002-0.001-0.003-0.001c0,0-0.001,0-0.001,0.001
			c-0.081-0.061-0.16-0.123-0.238-0.182c-7.187-5.24-10.821-12.7-13.064-12.862c4,8.754-0.421,14.729-2.95,21.526
			c-0.951,2.553-1.634,5.22-1.504,8.192c0.141,3.471,0.352,6.723,0.39,7.544c0.253,4.781-0.062,6.355,4.503,6.895
			c0.492,0.055,0.983,0.075,1.475,0.075c1.19,0,2.38-0.12,3.574-0.163c1.253-0.035,2.509-0.063,3.781-0.063
			c0.948,0.117,1.698,0.293,2.112,0.698c0.96,0.927,0.562,1.503-0.147,1.821c-0.439,0.194-0.882,0.267-1.325,0.267
			c-0.33,0-0.66-0.04-0.992-0.1c-0.763-0.146-1.451-0.233-2.126-0.282c-1.093-0.081-2.219-0.119-3.359-0.119
			c-2.782,0-5.647,0.226-8.305,0.601c-0.604,0.084-1.25,0.164-1.85,0.164c-0.751,0-1.427-0.126-1.846-0.528
			c-1.122-1.08,0.794-2.22,1.292-2.926c0.909-1.269-0.069-6.643-1.374-11.62c-1.032-3.953-6.802-4.919-13.129-4.919
			c-6.044,0-12.596,0.882-16.007,0.882c-0.052,0-0.104-0.001-0.155-0.001c-0.043,0-0.087,0.001-0.131,0.001
			c-3.198,0-8.263-0.922-12.827-0.922c-4.706,0-8.878,0.979-9.917,4.959c-1.305,4.978-2.282,10.352-1.374,11.62
			c0.498,0.706,2.414,1.846,1.292,2.926c-0.42,0.402-1.096,0.528-1.846,0.528c-0.599,0-1.246-0.08-1.849-0.164
			c-2.657-0.375-5.522-0.601-8.304-0.601c-1.141,0-2.267,0.038-3.359,0.119c-0.677,0.049-1.363,0.136-2.128,0.282
			c-0.33,0.06-0.659,0.1-0.988,0.1c-0.445,0-0.888-0.073-1.328-0.267c-0.711-0.318-1.107-0.895-0.149-1.821
			c0.416-0.405,1.166-0.581,2.113-0.698c1.272,0,2.529,0.027,3.781,0.063c1.195,0.043,2.384,0.163,3.575,0.163
			c0.492,0,0.983-0.021,1.476-0.075c4.563-0.539,4.246-2.115,4.501-6.895c0.037-0.821,0.25-4.073,0.39-7.544
			c0.155-19.19-10.574-24.945,0.668-38.996c6.466-8.087,7.25-4.181-9.107-15.441l-0.248-0.164l-0.003-0.004
			c-0.036-0.023-0.094-0.059-0.174-0.111l-0.001-0.006l-0.006-0.004l-0.019-0.008c-1.409-0.997-8.2-6.067-10.001-6.833
			c-3.222-1.206-5.119-1.866-8.483-2.561c-2.371-0.367-10.798-0.849-7.369-4.875C5.789,61.029,6.381,60.79,7,60.79
			c1.278,0,2.666,1.019,3.878,1.699c0.812,0.468,5.806,3.099,6.84,3.393c0.55,0.159,0.867,0.325,1.088,0.325
			c0.198,0,0.319-0.133,0.463-0.522c0.332-0.88-3.641-4.055-5.508-5.162c-1.371-0.831-3.483-1.833-3.981-3.503
			c-0.479-1.604,1.458-3.173,3.052-3.173c0.09,0,0.18,0.005,0.268,0.016c2.237,0.264,6.138,8.559,6.87,9.664
			c1.104,1.458,2.692,2.334,3.501,2.34c0.368-0.004,0.717-0.275,1.057-0.933c0.476-0.94,1.007-1.936,0.79-2.946
			c-0.862-4.159,0.773-5.679,2.24-5.678c0.066,0,0.133,0.003,0.199,0.009c1.316,0.121,2.475,1.723,2.781,2.911
			c0.619,2.408-5.037,2.252-4.104,8.551c0.38,2.578,1.88,2.988,3.92,4.553c0.576,0.443,1.766,1.235,1.767,1.235
			c0.355,0.254,0.772,0.543,1.261,0.918c6.37,4.989,12.534,6.777,17.12,6.777c7.522,0,10.797-4.813,3.762-8.196
			c-1.323-0.636-3.289-1.144-5.362-2.248c-5.586-2.968-9.385-8.848-9.385-15.609C41.112,41.69,48.523,35.673,56.728,35.674
			 M56.728,33.674c-8.064-0.001-17.343,5.595-19.198,21.302l-0.014,0.117v0.118c0,7.293,4.003,13.951,10.447,17.375
			c1.367,0.728,2.693,1.22,3.758,1.615c0.662,0.245,1.234,0.457,1.675,0.669c2.171,1.044,2.836,2.067,2.745,2.465
			c-0.153,0.673-1.965,1.929-5.64,1.929c-2.904,0-8.831-0.825-15.887-6.352c-0.434-0.333-0.802-0.594-1.126-0.825l-0.206-0.146
			l-0.521-0.373h-0.03c-0.375-0.256-0.872-0.6-1.159-0.82c-0.474-0.364-0.914-0.665-1.301-0.931
			c-1.365-0.937-1.694-1.201-1.86-2.328c-0.396-2.677,0.645-3.476,1.963-4.487c0.999-0.767,2.67-2.05,2.1-4.27
			c-0.51-1.981-2.273-4.197-4.535-4.405c-0.124-0.012-0.253-0.018-0.382-0.018c-1.251,0-2.436,0.573-3.249,1.572
			c-0.836,1.027-1.68,2.991-0.95,6.512c0.051,0.236-0.169,0.738-0.395,1.197c-0.403-0.247-0.917-0.652-1.355-1.212
			c-0.123-0.203-0.421-0.76-0.688-1.256c-3.166-5.912-5.209-8.965-7.588-9.245c-0.164-0.02-0.332-0.029-0.501-0.029
			c-1.598,0-3.272,0.859-4.264,2.19c-0.813,1.09-1.063,2.353-0.705,3.554c0.162,0.544,0.413,1.028,0.721,1.462
			C8.08,58.891,7.552,58.79,7,58.79c-1.267,0-2.397,0.545-3.271,1.577c-1.533,1.8-1.419,3.3-1.053,4.241
			c1.017,2.616,4.693,3.28,8.694,3.777c0.35,0.043,0.657,0.081,0.901,0.118c3.133,0.649,4.886,1.249,8.087,2.446
			c1.311,0.584,6.374,4.271,8.291,5.667c0.238,0.173,0.456,0.332,0.649,0.472l0.007,0.042l0.688,0.458l0.139,0.099l0.035,0.015
			l0.04,0.026l0.248,0.164c3.589,2.471,6.395,4.238,8.443,5.528c1.676,1.056,3.273,2.062,3.909,2.628
			c-0.285,0.392-0.82,0.998-1.307,1.548c-0.654,0.74-1.468,1.661-2.396,2.821c-7.656,9.568-5.835,16.108-3.727,23.682
			c1.253,4.5,2.672,9.599,2.621,16.515c-0.099,2.424-0.234,4.775-0.315,6.183c-0.036,0.615-0.062,1.074-0.073,1.32
			c-0.02,0.366-0.036,0.729-0.052,1.071c-0.069,1.492-0.129,2.78-0.414,3.234c-0.185,0.296-0.992,0.541-2.272,0.692
			c-0.368,0.041-0.778,0.062-1.241,0.062c-0.662,0-1.334-0.041-2.046-0.085c-0.485-0.029-0.971-0.06-1.457-0.077
			c-1.065-0.029-2.449-0.063-3.853-0.063h-0.123l-0.123,0.015c-1.178,0.146-2.389,0.398-3.264,1.252
			c-1.156,1.117-1.254,2.187-1.131,2.885c0.097,0.552,0.467,1.57,1.859,2.193c0.668,0.295,1.386,0.441,2.145,0.441
			c0.416,0,0.856-0.043,1.344-0.132c0.677-0.129,1.279-0.209,1.916-0.255c1.019-0.076,2.099-0.114,3.215-0.114
			c2.555,0,5.33,0.201,8.025,0.581c0.687,0.096,1.417,0.184,2.128,0.184c1.412,0,2.468-0.354,3.229-1.084
			c0.797-0.768,0.964-1.6,0.963-2.163c0-1.43-1.021-2.41-1.696-3.059c-0.079-0.076-0.178-0.171-0.249-0.243
			c-0.195-0.875,0.072-4.132,1.615-10.019c0.389-1.488,1.639-3.466,7.982-3.466c2.381,0,5,0.271,7.311,0.512
			c2.035,0.211,3.956,0.41,5.517,0.41l0.148-0.001l0.138,0.001c1.543,0,3.606-0.164,5.995-0.354
			c3.113-0.247,6.641-0.527,10.013-0.527c6.738,0,10.608,1.185,11.193,3.425c1.545,5.892,1.813,9.147,1.616,10.021
			c-0.067,0.067-0.168,0.164-0.248,0.241c-0.676,0.649-1.696,1.63-1.697,3.06c0,0.563,0.166,1.396,0.96,2.16
			c0.763,0.732,1.819,1.087,3.232,1.087c0.711,0,1.442-0.088,2.126-0.184c2.698-0.38,5.474-0.581,8.028-0.581
			c1.116,0,2.196,0.038,3.211,0.113c0.634,0.046,1.253,0.129,1.897,0.252c0.513,0.093,0.953,0.136,1.369,0.136
			c0.759,0,1.477-0.146,2.134-0.438c1.402-0.629,1.771-1.648,1.867-2.2c0.122-0.698,0.023-1.767-1.14-2.889
			c-0.863-0.846-2.076-1.099-3.256-1.245l-0.122-0.015h-0.123c-1.395,0-2.722,0.032-3.837,0.063
			c-0.502,0.018-0.988,0.048-1.473,0.077c-0.712,0.044-1.385,0.085-2.046,0.085c-0.462,0-0.872-0.021-1.252-0.063
			c-1.27-0.15-2.077-0.396-2.263-0.691c-0.285-0.455-0.345-1.745-0.413-3.239c-0.016-0.342-0.032-0.702-0.053-1.082
			c-0.01-0.224-0.035-0.659-0.068-1.242c-0.083-1.423-0.22-3.807-0.32-6.277c-0.101-2.299,0.325-4.583,1.38-7.413
			c0.461-1.237,1.004-2.487,1.53-3.697c1.574-3.622,3.291-7.569,3.131-12.184c1.992,2.402,4.566,5.326,7.895,7.833v0.233
			l0.938,0.469l1.633,1.219l0.033-0.069c2.146,1.481,6.75,4.677,7.671,5.65c2.196,2.631,3.345,4.088,4.99,6.82
			c0.115,0.218,0.252,0.494,0.408,0.808c1.822,3.666,3.695,6.956,6.559,6.956c0.977,0,2.384-0.417,3.542-2.405
			c1.188-2.024,0.573-3.73-0.416-5.026c0.456,0.136,0.936,0.215,1.437,0.215c0.074,0,0.149-0.002,0.224-0.005
			c1.337-0.065,2.531-0.827,3.277-2.091c0.895-1.514,1.017-3.507,0.304-4.962c-1.054-2.152-4.61-3.068-11.235-4.098
			c-0.558-0.087-1.185-0.184-1.416-0.233c-0.673-0.227-1.226-0.576-1.592-0.874c0.358-0.365,0.757-0.739,0.984-0.768
			c3.719-0.502,5.285-2.038,5.947-3.238c0.653-1.185,0.712-2.556,0.161-3.761c-0.905-1.952-3.323-2.837-5.189-2.837
			c-0.163,0-0.321,0.007-0.474,0.021c-2.283,0.196-2.939,2.198-3.332,3.395c-0.518,1.579-0.927,2.827-3.583,3.341
			c-0.245,0.048-0.47,0.071-0.665,0.071c-0.649,0-1.057-0.257-2.147-1.055c-0.38-0.277-0.81-0.592-1.309-0.917
			c-0.452-0.296-1.337-0.953-1.64-1.182l-0.023-0.018l-0.024-0.017l-0.124-0.088c-0.347-0.246-0.741-0.525-1.223-0.84
			c-4.923-3.145-9.902-9.91-12.702-17.248l-0.014-0.038l-0.017-0.038c-6.673-15.549-23.043-43.431-36.986-53.897
			C66.243,35.429,61.356,33.674,56.728,33.674L56.728,33.674z"/>
	</g>
</g>
<g id="Layer_1">
</g>
</svg>
