<?xml version="1.0" encoding="iso-8859-1"?>
<!-- Generator: Adobe Illustrator 16.0.0, SVG Export Plug-In . SVG Version: 6.00 Build 0)  -->
<!DOCTYPE svg PUBLIC "-//W3C//DTD SVG 1.1//EN" "http://www.w3.org/Graphics/SVG/1.1/DTD/svg11.dtd">
<svg version="1.1" xmlns="http://www.w3.org/2000/svg" xmlns:xlink="http://www.w3.org/1999/xlink" x="0px" y="0px" width="150px"
	 height="150px" viewBox="0 0 150 150" style="enable-background:new 0 0 150 150;" xml:space="preserve">
<g id="_x30_5_x5F_01">
	<rect style="fill:none;" width="150" height="150"/>
	<g>
		<g>
			<path style="fill-rule:evenodd;clip-rule:evenodd;fill:#266291;" d="M39.516,57.21c0,6.762,3.799,12.641,9.385,15.609
				c2.073,1.104,4.04,1.612,5.362,2.248c11.324,5.447-4.062,14.594-20.882,1.419c-0.489-0.375-0.905-0.664-1.261-0.918
				c-0.001,0-1.191-0.792-1.767-1.235c-2.04-1.565-3.541-1.975-3.92-4.553c-0.933-6.299,4.723-6.143,4.104-8.551
				c-0.306-1.188-1.464-2.79-2.781-2.911c-1.511-0.143-3.341,1.321-2.439,5.669c0.217,1.011-0.314,2.006-0.79,2.946
				c-0.339,0.658-0.689,0.929-1.057,0.933c-0.809-0.006-2.397-0.882-3.501-2.34c-0.732-1.104-4.633-9.4-6.87-9.664
				c-1.634-0.193-3.825,1.462-3.319,3.157c0.498,1.67,2.61,2.672,3.981,3.503c1.867,1.106,5.84,4.281,5.508,5.162
				c-0.305,0.825-0.51,0.498-1.551,0.197c-1.034-0.294-6.028-2.925-6.84-3.393c-1.799-1.009-3.985-2.763-5.623-0.83
				c-3.429,4.026,4.999,4.508,7.369,4.875c3.364,0.695,5.261,1.354,8.483,2.561c1.801,0.767,8.592,5.836,10.001,6.833l0.019,0.008
				l0.006,0.004l0.001,0.006c0.08,0.053,0.138,0.088,0.174,0.111l0.003,0.004l0.248,0.164c16.358,11.261,15.573,7.354,9.107,15.441
				c-11.242,14.051-0.513,19.806-0.668,38.996c-0.141,3.471-0.353,6.723-0.39,7.544c-0.255,4.779,0.062,6.355-4.501,6.895
				c-1.686,0.188-3.363-0.027-5.051-0.088c-1.252-0.035-2.509-0.063-3.781-0.063c-0.948,0.117-1.698,0.293-2.113,0.698
				c-0.958,0.927-0.562,1.503,0.149,1.821c0.765,0.337,1.539,0.308,2.315,0.167c0.765-0.146,1.451-0.233,2.128-0.282
				c3.758-0.279,7.917-0.047,11.664,0.481c1.359,0.189,2.94,0.359,3.695-0.364c1.122-1.08-0.794-2.22-1.292-2.926
				c-0.908-1.269,0.069-6.643,1.374-11.62c2.061-7.892,16.443-3.985,22.875-4.038c6.835,0.057,27.257-3.75,29.291,4.038
				c1.305,4.978,2.283,10.352,1.374,11.62c-0.498,0.706-2.414,1.846-1.292,2.926c0.754,0.724,2.336,0.554,3.695,0.364
				c3.747-0.528,7.906-0.761,11.664-0.481c0.675,0.049,1.363,0.136,2.126,0.282c0.778,0.141,1.551,0.172,2.317-0.167
				c0.709-0.318,1.107-0.895,0.147-1.821c-0.414-0.405-1.164-0.581-2.112-0.698c-1.272,0-2.528,0.027-3.781,0.063
				c-1.688,0.061-3.364,0.276-5.049,0.088c-4.564-0.539-4.25-2.113-4.503-6.895c-0.038-0.821-0.249-4.073-0.39-7.544
				c-0.13-2.973,0.553-5.64,1.504-8.192c2.529-6.797,6.95-12.772,2.95-21.526c2.243,0.162,5.878,7.622,13.064,12.862
				c0.078,0.059,0.157,0.121,0.238,0.182c0.001-0.002,0.003,0,0.004,0c0.033,0.023,0.087,0.07,0.163,0.124c0.002,0,0.004,0,0.007,0
				c0,0.002,0.003,0.004,0.003,0.006c0.008,0.004,0.012,0.008,0.017,0.014c1.405,1,8.441,5.726,9.76,7.17
				c2.206,2.641,3.46,4.213,5.229,7.156c1.13,2.113,4.379,9.905,7.039,5.337c1.283-2.186-1.098-3.667-2.646-5.031
				c-0.709-0.61-4.849-4.449-5.467-5.327c-0.629-0.882-1.006-0.968-0.33-1.53c0.721-0.604,5.034,2.093,6.696,3.487
				c1.237,1.017,2.881,2.678,4.623,2.594c1.771-0.086,2.603-2.701,1.881-4.176c-0.992-2.025-10.11-2.957-11.396-3.282
				c-1.742-0.557-3.096-1.765-3.367-2.527c-0.119-0.346,0.021-0.767,0.527-1.302c0.731-0.763,1.494-1.594,2.52-1.725
				c4.401-0.594,5.173-2.803,4.542-4.183c-0.556-1.199-2.448-1.762-3.672-1.656c-2.475,0.213-0.454,5.497-6.707,6.707
				c-2.558,0.493-3.442-0.786-5.594-2.189c-0.609-0.398-1.751-1.259-1.751-1.259c-0.358-0.254-0.769-0.549-1.284-0.886
				c-5.562-3.552-10.644-10.784-13.477-18.209c-6.946-16.186-23.181-43.203-36.349-53.086C57.645,33.477,41.93,36.765,39.516,57.21z
				"/>
			<path style="fill-rule:evenodd;clip-rule:evenodd;fill:#FFFFFF;" d="M57.184,72.567c8.455,0,15.349-6.898,15.349-15.357
				c0.001-8.461-6.896-15.36-15.351-15.36c-8.459,0-15.358,6.898-15.358,15.36C41.824,65.669,48.724,72.567,57.184,72.567z"/>
			<path style="fill-rule:evenodd;clip-rule:evenodd;" d="M48.882,52.845c-2.02-0.625-4.162,0.507-4.791,2.523
				c-0.625,2.021,0.504,4.167,2.523,4.792c2.021,0.625,4.165-0.503,4.792-2.521C52.031,55.614,50.9,53.471,48.882,52.845z"/>
		</g>
		<path style="fill-rule:evenodd;clip-rule:evenodd;" d="M72.155,100.713c-4.353,0.164-7.862-1.042-11.213-2.334
			c-5.257-2.018-10.969-4.949-15.084,0.543c-3.056,4.084-3.111,8.142-1.652,11.449c0.914,2.063,2.417,3.834,4.152,5.159
			c3.751,2.723,6.941,4.518,10.226,5.642c11.208,3.84,25.977,1.623,34.203-7.354c1.163-1.272,2.615-3.063,3.752-5.031
			c1.465-2.539,1.944-5.673,1.005-8.011c-0.57-1.429-1.669-2.55-3.397-3.067c-0.883-0.266-1.744-0.324-2.617-0.277
			c-1.977,0.115-3.981,0.672-5.891,1.204C81.097,99.907,76.911,100.533,72.155,100.713z"/>
		<path style="fill-rule:evenodd;clip-rule:evenodd;fill:#FFFFFF;" d="M67.569,100.048l3.855,0.143l-0.138,3.587
			c-0.021,0.847-0.75,1.514-1.6,1.48l-0.77-0.035c-0.85-0.029-1.519-0.743-1.484-1.598L67.569,100.048z"/>
		<path style="fill-rule:evenodd;clip-rule:evenodd;fill:#FFFFFF;" d="M73.67,99.45l3.867,0.154l-0.141,3.583
			c-0.029,0.843-0.755,1.519-1.609,1.481l-0.767-0.031c-0.848-0.031-1.521-0.754-1.484-1.601L73.67,99.45z"/>
		<path style="fill-rule:evenodd;clip-rule:evenodd;fill:#FFFFFF;" d="M88.252,118.365l3.334-2.372l-2.196-3.084
			c-0.526-0.737-1.554-0.907-2.283-0.392l-0.657,0.476c-0.743,0.521-0.907,1.55-0.396,2.283L88.252,118.365z"/>
		<path style="fill-rule:evenodd;clip-rule:evenodd;fill:#FFFFFF;" d="M49.293,117.029l3.331,2.374l2.203-3.089
			c0.522-0.733,0.344-1.76-0.382-2.281l-0.667-0.481c-0.736-0.514-1.757-0.344-2.283,0.388L49.293,117.029z"/>
		<path style="fill-rule:evenodd;clip-rule:evenodd;fill:#266291;" d="M72.042,97.718c4.423-0.166,8.524-0.774,12.788-1.969
			c2.146-0.602,4.291-1.182,6.529-1.309c1.241-0.07,2.452,0.039,3.648,0.397c2.478,0.743,4.357,2.429,5.317,4.823
			c1.367,3.409,0.601,7.515-1.191,10.624c-1.145,1.982-2.593,3.869-4.138,5.558c-9.038,9.868-25.044,12.392-37.384,8.164
			c-4.01-1.371-7.601-3.572-11.015-6.051l-0.059-0.043c-2.166-1.655-3.972-3.831-5.075-6.33c-2.207-4.996-1.228-10.153,1.994-14.457
			c5.22-6.971,11.999-4.065,18.559-1.545C65.36,96.867,68.402,97.854,72.042,97.718L72.042,97.718z M72.155,100.713
			c-4.354,0.164-7.862-1.042-11.213-2.334c-5.258-2.018-10.969-4.949-15.084,0.543c-3.056,4.084-3.111,8.142-1.653,11.449
			c0.915,2.063,2.418,3.834,4.153,5.159c3.751,2.723,6.942,4.518,10.226,5.644c11.208,3.838,25.977,1.621,34.203-7.356
			c1.163-1.272,2.615-3.063,3.752-5.031c1.465-2.539,1.945-5.673,1.005-8.011c-0.57-1.429-1.669-2.55-3.396-3.067
			c-0.884-0.266-1.746-0.324-2.618-0.277c-1.977,0.115-3.981,0.67-5.891,1.204C81.097,99.907,76.911,100.533,72.155,100.713z"/>
	</g>
</g>
<g id="Layer_1">
</g>
</svg>
