<?xml version="1.0" encoding="iso-8859-1"?>
<!-- Generator: Adobe Illustrator 16.0.0, SVG Export Plug-In . SVG Version: 6.00 Build 0)  -->
<!DOCTYPE svg PUBLIC "-//W3C//DTD SVG 1.1//EN" "http://www.w3.org/Graphics/SVG/1.1/DTD/svg11.dtd">
<svg version="1.1" xmlns="http://www.w3.org/2000/svg" xmlns:xlink="http://www.w3.org/1999/xlink" x="0px" y="0px" width="150px"
	 height="150px" viewBox="0 0 150 150" style="enable-background:new 0 0 150 150;" xml:space="preserve">
<g id="_x30_6_x5F_black">
	<rect style="fill:none;" width="150" height="150"/>
	<g>
		<path d="M89.961,148.903c-0.642-0.038-1.283-0.077-1.927-0.121c-0.347-0.018-0.724-0.024-1.108-0.024
			c-0.515,0-1.044,0.012-1.578,0.023c-0.561,0.013-1.126,0.024-1.688,0.024c-1.157,0-2.661-0.046-4.017-0.409
			c-1.09-0.292-3.639-1.166-3.792-2.96c-0.093-1.088,0.693-2.023,2.336-2.781c0.349-0.164,0.812-0.242,1.449-0.242
			c1.05,0,2.45,0.211,3.806,0.415c1.059,0.159,2.153,0.323,2.751,0.323c0.885,0,2.101-0.422,2.441-4.07
			c0.327-3.629,0.146-9.763-1.692-11.773c-0.375-0.41-0.779-0.601-1.271-0.601c-0.581,0-1.287,0.261-2.1,0.774
			c-4.628,2.928-10.663,4.539-16.995,4.539c-6.403,0-12.689-1.654-17.248-4.539c-1.066-0.674-1.648-0.774-1.901-0.774
			c-0.218,0-0.318,0.065-0.407,0.173c-1.038,1.238-0.121,6.401,0.372,9.175c0.217,1.221,0.404,2.275,0.472,3.029
			c0.341,3.646,1.557,4.067,2.442,4.067c0.597,0,1.691-0.164,2.749-0.323c1.355-0.204,2.757-0.415,3.807-0.415
			c0.637,0,1.1,0.078,1.456,0.245c1.636,0.755,2.422,1.69,2.329,2.778c-0.153,1.794-2.703,2.668-3.792,2.96
			c-1.355,0.363-2.859,0.409-4.017,0.409c-0.562,0-1.127-0.012-1.687-0.024c-0.535-0.012-1.064-0.023-1.579-0.023
			c-0.385,0-0.762,0.007-1.127,0.025c-0.624,0.043-1.264,0.082-1.905,0.12l-1.504,0.094c-2.816-0.023-3.735-1.194-4.039-1.89
			c-0.267-0.611-0.502-1.868,0.915-3.427c3.667-3.992-0.624-11.521-3.757-17.019c-1.114-1.954-2.076-3.642-2.638-5.036
			c-0.705-1.752-1.353-3.477-1.928-5.128c-3.854-10.258-4.807-18.786-3.084-27.632c0.43-2.207,0.183-2.653,0.142-2.709
			c0,0-0.001,0-0.002,0c-0.01,0-0.069-0.017-0.193-0.017c-0.747,0-2.167,0.539-3.966,1.221c-1.344,0.51-3.017,1.144-4.928,1.746
			c-0.278,0.087-0.563,0.132-0.847,0.132c-0.859,0-1.623-0.412-2.093-1.131c-0.966-1.476-0.661-4.046,0.907-7.641
			c1.318-3.025,1.106-7.116,0.882-11.447c-0.286-5.507-0.581-11.201,2.373-15.258c0.242-0.333,0.561-1.165,0.841-1.898
			c0.396-1.035,0.771-2.013,1.239-2.559c2.302-2.673,4.536-4.406,6.639-5.152c1.327-0.472,2.584-0.808,3.916-1.164
			c0.706-0.188,1.45-0.387,2.264-0.622c2.085-0.599,2.573-2.325,3.089-4.151c0.256-0.905,0.518-1.831,0.997-2.592
			c-3.029,2.432-6.85,3.837-10.872,3.837c-9.556,0-17.331-7.758-17.331-17.295c0-2.632,0.575-5.156,1.71-7.5
			C18.516,7.947,25.06,4.539,34.72,4.539c3.843,0,8.167,0.551,12.851,1.637c22.301,5.17,26.528,12.702,34.754,30.755
			c2.769,6.076,6.123,12.897,10.015,17.417c1.55,1.795,3.312,3.349,5.177,4.994c2.301,2.029,4.681,4.128,6.784,6.819
			c4.157,5.324,6.107,8.157,8.774,13.452c3.293,6.54,3.609,9.478,4.049,13.544l0.098,0.896c0.219,1.962,0.849,3.327,1.871,4.058
			l0.677,0.481c1.938,1.384,3.944,2.813,6.03,3.909c0.297,0.156,0.729,0.334,1.213,0.536c1.549,0.646,3.303,1.376,4.054,2.442
			c0.27,0.383,1.122,1.354,3.227,2.105c1.037,0.37,1.708,0.962,1.996,1.759c0.479,1.328-0.325,2.689-0.759,3.421l-0.077,0.133
			c-0.525,0.902-1.56,1.464-2.699,1.464c0,0,0,0-0.001,0c-1.373,0-3.187-0.862-3.778-3.291c-0.36-1.478-1.136-2.378-2.44-3.522
			c-1.643-1.447-3.606-2.579-4.472-2.579c-0.037,0-0.063,0.003-0.081,0.005c0.007,0.026-0.019,0.135-0.013,0.343
			c0.003,0.061,0.008,0.17,0.387,0.456c0.937,0.706,1.825,1.405,2.716,2.136c0.589,0.481,0.929,0.915,1.289,1.375
			c0.452,0.577,0.966,1.231,2.225,2.256c1.687,1.377,1.916,3.475,1.164,4.709c-0.592,0.971-1.657,1.55-2.849,1.55
			c-0.65,0-1.287-0.176-1.842-0.507c-1.482-0.898-1.724-2.476-1.937-3.867c-0.254-1.663-0.494-3.234-2.491-4.328
			c-0.492-0.271-0.983-0.407-1.46-0.407c-0.543,0-1.002,0.178-1.359,0.394c0.251,0.781,0.8,1.528,1.332,2.253
			c0.548,0.744,1.064,1.448,1.298,2.206c0.942,3.081,1.653,5.918,0.809,9.462c-0.4,1.693-0.083,2.578,0.284,3.603
			c0.281,0.785,0.601,1.676,0.592,2.9c-0.008,2.089-1.723,3.79-3.821,3.79c-1.97-0.011-4.928-1.514-4.922-3.753
			c-0.127-1.816,0.911-3.534,2.012-5.354c1.618-2.677,3.146-5.205,1.463-8.492c-0.601-1.173-1.168-2.229-1.705-3.231
			c-1.015-1.89-1.972-3.675-2.845-5.675c-1.354-3.101-1.746-7.397-1.164-12.771c0.078-0.722,0.195-1.459,0.347-2.191
			c0.82-11.051-9.765-20.818-13.033-23.552c-1.881-1.575-2.766-1.745-3.059-1.745c-0.536,0-0.664,1.115-0.693,1.78
			c-0.05,1.207,0.24,2.251,0.725,3.544c0.869,2.327,1.92,4.859,3.032,7.539c1.297,3.126,2.638,6.357,3.813,9.561
			c5.256,14.337,2.492,20.541-1.985,27.741l-0.496,0.793c-3.094,4.947-6.6,10.555-6.904,20.819
			c-0.054,2.148,0.579,4.157,1.691,5.367c1.422,1.563,1.187,2.819,0.92,3.431c-0.304,0.695-1.223,1.866-3.965,1.892h-0.037
			L89.961,148.903z M26.214,80.561c0.06,0.009,0.14,0.018,0.245,0.023c0.103,0.005,0.206,0.008,0.307,0.008
			c3.876,0,5.76-4.245,6.39-6.07c4.82-13.973,9.34-17.157,16.182-21.977c1.635-1.151,3.325-2.342,5.212-3.813
			c6.037-4.706,11.984-9.762,12.611-15.273c0.309-2.712-0.664-5.414-2.973-8.259c-1.799-2.216-4.583-3.539-7.448-3.539
			c-2.439,0-6.994,1.004-10.096,7.733c-0.863,1.869-2.039,3.536-3.449,4.949c0.258-0.092,0.552-0.142,0.867-0.142
			c0.985,0,2.155,0.509,2.844,1.239c0.513,0.542,0.785,1.252,0.764,1.999c-0.021,0.748-0.333,1.443-0.877,1.957
			c-0.613,0.58-1.199,0.833-1.716,1.057c-0.637,0.276-1.097,0.475-1.657,1.317c-1.337,2.015-3.019,2.952-4.919,3.884
			c-0.514,0.251-1.1,0.322-1.719,0.396c-0.431,0.052-0.873,0.105-1.239,0.22c0.158,0.355,0.461,0.607,0.906,0.752
			c0.3,0.098,0.575,0.145,0.839,0.145c0.748,0,1.339-0.405,1.965-0.833c0.64-0.438,1.365-0.934,2.273-0.934
			c0.228,0,0.457,0.032,0.682,0.095c1.371,0.388,2.185,1.773,1.817,3.088c-0.127,0.456-0.413,0.857-0.798,1.165
			c0.532,0.169,1.003,0.496,1.335,0.942c0.451,0.607,0.593,1.345,0.388,2.024c-0.207,0.704-0.684,2.328-2.273,2.328
			c-0.389,0-0.801-0.11-1.225-0.327c-0.955-0.49-1.63-0.563-1.948-0.563c-0.084,0-0.164,0.005-0.237,0.015
			c-0.096,0.014-0.2,0.021-0.31,0.021c-0.868,0-1.897-0.462-2.805-0.869c-0.294-0.132-0.556-0.251-0.751-0.319
			c-1.41-0.485-2.95-0.792-4.44-1.089l-0.505-0.101c-0.113-0.022-0.229-0.034-0.347-0.034c-0.606,0-1.307,0.294-2.085,0.874
			c-0.142,0.153-0.48,0.956-0.682,1.436c-0.342,0.814-0.666,1.583-1.078,2.047c-2.281,2.583-1.473,8.238-0.692,13.708
			c0.346,2.423,0.704,4.929,0.793,7.186c0.046,1.185-0.036,2.095-0.097,2.759C26.244,80.049,26.216,80.361,26.214,80.561z
			 M36.736,50.179c0.438,0.109,0.947,0.202,1.495,0.254c0.305,0.029,0.588,0.048,0.859,0.048c0.458,0,0.83-0.057,1.187-0.19
			c-0.19-0.014-0.37-0.021-0.541-0.021c-0.31,0-0.55,0.022-0.769,0.042c-0.235,0.021-0.452,0.039-0.686,0.039
			c-0.185,0-0.379-0.011-0.598-0.039C37.366,50.27,37.051,50.226,36.736,50.179z"/>
		<path style="fill:#FFFFFF;" d="M34.72,5.539c4.101,0,8.435,0.64,12.625,1.611c21.446,4.972,25.695,11.816,34.07,30.195
			c3.001,6.587,6.287,13.149,10.167,17.655c3.55,4.113,8.215,7.023,11.931,11.776c4.079,5.224,6.035,8.056,8.669,13.286
			c3.446,6.844,3.545,9.593,4.046,14.101c0.242,2.166,0.962,3.816,2.284,4.761c2.201,1.564,4.432,3.207,6.823,4.463
			c1.133,0.595,4.103,1.517,4.914,2.669c0.608,0.865,1.846,1.806,3.708,2.471c2.529,0.904,1.166,2.951,0.632,3.867
			c-0.359,0.618-1.069,0.968-1.835,0.968c-1.128,0-2.376-0.757-2.808-2.527c-0.427-1.75-1.346-2.804-2.752-4.038
			c-1.506-1.325-3.789-2.827-5.132-2.827c-0.68,0-1.119,0.385-1.094,1.373c0.025,0.563,0.369,0.916,0.785,1.229
			c0.91,0.687,1.799,1.385,2.684,2.11c1.205,0.985,1.203,1.751,3.517,3.633c1.245,1.017,1.453,2.573,0.941,3.413
			c-0.431,0.706-1.202,1.07-1.995,1.07c-0.456,0-0.919-0.12-1.328-0.365c-2.497-1.512-0.183-5.87-4.461-8.214
			c-0.668-0.366-1.321-0.53-1.94-0.53c-0.925,0-1.77,0.365-2.461,0.964l-0.047-0.094c0.028,0.185,0.066,0.367,0.117,0.549
			c0.432,1.841,2.289,3.377,2.706,4.729c0.881,2.881,1.589,5.586,0.791,8.936c-0.791,3.347,0.867,4.155,0.849,6.728
			c-0.006,1.548-1.271,2.797-2.821,2.797c-0.002,0-0.004,0-0.006,0c-1.555-0.009-3.92-1.2-3.916-2.75
			c-0.279-4.066,6.523-8.136,3.364-14.305c-1.752-3.42-3.216-5.855-4.523-8.851c-1.366-3.128-1.615-7.377-1.086-12.263
			c0.08-0.737,0.197-1.456,0.345-2.158c0.722-9.238-6.231-18.478-13.384-24.46c-1.484-1.243-2.761-1.978-3.7-1.978
			c-0.993,0-1.609,0.823-1.692,2.736c-0.061,1.463,0.327,2.71,0.787,3.938c1.895,5.069,4.67,11.173,6.844,17.093
			c5.294,14.44,2.142,20.376-1.896,26.868c-3.313,5.327-7.222,11.029-7.551,22.111c-0.064,2.62,0.779,4.794,1.955,6.073
			c1.733,1.904,0.771,3.617-2.317,3.646c-1.144-0.075-2.28-0.136-3.424-0.215c-0.382-0.02-0.775-0.026-1.178-0.026
			c-1.055,0-2.168,0.048-3.266,0.048c-1.319,0-2.615-0.069-3.759-0.375c-2.554-0.686-4.703-2.295-1.295-3.867
			c0.228-0.107,0.586-0.15,1.03-0.15c1.836,0,5.124,0.738,6.557,0.738c2.624,0,3.24-2.867,3.438-4.978
			c0.294-3.267,0.489-13.467-3.961-13.467c-0.741,0-1.612,0.283-2.634,0.93c-4.753,3.007-10.654,4.384-16.459,4.384
			c-6.181,0-12.254-1.563-16.713-4.384c-1.022-0.646-1.819-0.93-2.436-0.93c-3.694,0-0.854,10.2-0.56,13.467
			c0.197,2.11,0.812,4.978,3.438,4.978c1.432,0,4.719-0.738,6.556-0.738c0.444,0,0.803,0.043,1.031,0.15
			c3.407,1.572,1.258,3.182-1.297,3.867c-1.143,0.306-2.438,0.375-3.757,0.375c-1.097,0-2.211-0.048-3.266-0.048
			c-0.402,0-0.796,0.007-1.178,0.026c-1.144,0.079-2.281,0.14-3.424,0.215c-3.087-0.028-4.051-1.741-2.318-3.646
			c5.491-5.978-3.994-17.613-6.208-23.102c-0.656-1.632-1.302-3.333-1.911-5.083c-3.38-8.997-4.889-17.657-3.047-27.111
			c0.566-2.904,0.235-3.917-1.035-3.917c-1.582,0-4.619,1.571-9.194,3.013c-0.175,0.055-0.361,0.086-0.547,0.086
			c-1.371,0-2.759-1.663-0.27-7.372c3.149-7.228-1.83-19.68,3.146-26.516c0.669-0.92,1.35-3.601,2.03-4.395
			c2.055-2.385,4.152-4.129,6.215-4.86c1.973-0.702,3.753-1.085,6.122-1.767c4.269-1.226,3.198-6.177,5.22-7.825
			c0.228-0.215,0.541-0.305,0.885-0.305c0.752,0,1.649,0.43,2.118,0.926c0.683,0.72,0.65,1.859-0.072,2.541
			c-1.196,1.13-2.3,0.714-3.52,2.547c-1.219,1.837-2.795,2.69-4.527,3.541c-0.815,0.399-2.347,0.203-3.399,0.809
			c-0.106,0.055-0.209,0.118-0.306,0.184l0.063-0.018c0.039,0.976,0.568,1.866,1.722,2.241c0.419,0.137,0.799,0.194,1.149,0.194
			c1.932,0,2.915-1.767,4.238-1.767c0.134,0,0.271,0.018,0.413,0.058c0.805,0.228,1.348,1.053,1.123,1.856
			c-0.153,0.546-0.832,1.075-1.708,1.075c-0.098,0-0.198-0.007-0.3-0.021c-0.551-0.073-0.972-0.097-1.316-0.097
			c-0.634,0-1.009,0.081-1.455,0.081c-0.145,0-0.297-0.008-0.468-0.031c-0.727-0.095-1.443-0.205-2.162-0.327
			c-0.113-0.02-0.224-0.033-0.332-0.033c-0.209,0-0.407,0.05-0.587,0.204c-1.408,1.252,1.479,2.08,3.403,2.264
			c0.339,0.032,0.654,0.053,0.955,0.053c0.757,0,1.421-0.131,2.141-0.537c0.409-0.23,0.799-0.328,1.151-0.328
			c1.12,0,1.858,0.984,1.61,1.808c-0.157,0.523-0.422,1.616-1.316,1.616c-0.217,0-0.471-0.064-0.77-0.217
			c-0.932-0.479-1.763-0.673-2.403-0.673c-0.134,0-0.259,0.009-0.375,0.025c-0.054,0.008-0.111,0.011-0.171,0.011
			c-0.931,0-2.501-0.881-3.229-1.133c-1.637-0.563-3.378-0.885-5.075-1.226c-0.179-0.036-0.361-0.053-0.544-0.053
			c-0.859,0-1.76,0.384-2.683,1.072c-0.627,0.469-1.267,2.896-1.91,3.622c-3.684,4.17-0.443,14.175-0.149,21.597
			c0.135,3.441-0.884,4.409,1.037,4.517c0.122,0.007,0.243,0.01,0.362,0.01c3.485,0,5.993-2.856,7.335-6.744
			c5.846-16.946,11.211-17.648,21.063-25.328c9.754-7.604,17.778-15.122,9.8-24.951c-1.922-2.367-4.981-3.909-8.224-3.909
			c-3.984,0-8.244,2.328-11.004,8.314c-2.585,5.599-8.258,9.488-14.842,9.488c-9.02,0-16.331-7.297-16.331-16.295
			c0-2.531,0.576-4.928,1.61-7.065C19.616,7.968,26.726,5.539,34.72,5.539 M34.72,3.539c-10.077,0-16.923,3.598-20.348,10.693
			c-1.2,2.48-1.809,5.15-1.809,7.935c0,10.088,8.223,18.295,18.331,18.295c3.149,0,6.183-0.815,8.846-2.282
			c-0.559,1.936-0.986,2.84-2.335,3.228c-0.809,0.233-1.546,0.43-2.247,0.617c-1.352,0.361-2.628,0.702-3.994,1.188
			c-2.3,0.815-4.61,2.595-7.06,5.439c-0.584,0.68-0.97,1.688-1.417,2.855c-0.205,0.535-0.548,1.431-0.716,1.668
			c-3.161,4.342-2.857,10.216-2.563,15.897c0.218,4.21,0.424,8.186-0.8,10.996c-1.735,3.979-2.005,6.788-0.827,8.588
			c0.659,1.006,1.727,1.583,2.93,1.583c0.386,0,0.771-0.06,1.146-0.178c1.939-0.611,3.627-1.251,4.983-1.766
			c1.061-0.402,2.148-0.814,2.892-1.021c-0.027,0.323-0.088,0.775-0.209,1.4c-1.737,8.915-0.74,17.875,3.138,28.196
			c0.563,1.62,1.218,3.36,1.928,5.126c0.588,1.46,1.566,3.174,2.698,5.159c2.981,5.229,7.063,12.392,3.893,15.843
			c-1.871,2.057-1.391,3.837-1.099,4.508c0.401,0.917,1.566,2.461,4.871,2.491L45.028,150l0.075-0.005
			c0.5-0.033,0.999-0.063,1.497-0.094c0.644-0.038,1.288-0.077,1.934-0.122c0.312-0.016,0.671-0.021,1.04-0.021
			c0.508,0,1.03,0.012,1.557,0.023c0.567,0.013,1.14,0.024,1.709,0.024c1.219,0,2.807-0.05,4.274-0.443
			c2.774-0.744,4.382-2.108,4.53-3.841c0.091-1.066-0.34-2.587-2.913-3.774c-0.482-0.226-1.08-0.334-1.869-0.334
			c-1.125,0-2.564,0.217-3.956,0.426c-1.021,0.153-2.078,0.313-2.6,0.313c-0.764,0-1.251-1.064-1.447-3.164
			c-0.071-0.79-0.262-1.864-0.482-3.107c-0.332-1.87-1.179-6.638-0.697-8.117c0.215,0.069,0.575,0.223,1.114,0.563
			c4.714,2.983,11.196,4.694,17.783,4.694c6.519,0,12.744-1.667,17.529-4.693c0.853-0.54,1.347-0.62,1.564-0.62
			c0.144,0,0.302,0.021,0.534,0.275c1.382,1.512,1.814,6.786,1.435,11.013c-0.195,2.092-0.682,3.156-1.445,3.156
			c-0.522,0-1.58-0.159-2.603-0.313c-1.392-0.209-2.83-0.426-3.954-0.426c-0.79,0-1.388,0.108-1.882,0.341
			c-2.559,1.181-2.99,2.701-2.899,3.768c0.147,1.732,1.755,3.097,4.527,3.841c1.471,0.394,3.059,0.443,4.277,0.443
			c0.569,0,1.142-0.012,1.709-0.024c0.527-0.012,1.049-0.023,1.557-0.023c0.368,0,0.728,0.006,1.076,0.023
			c0.61,0.043,1.256,0.082,1.9,0.121c0.498,0.029,0.995,0.06,1.494,0.093L91.471,150l0.075-0.001
			c3.306-0.03,4.471-1.574,4.871-2.491c0.293-0.671,0.772-2.451-1.093-4.501c-0.733-0.797-1.49-2.439-1.436-4.678
			c0.297-9.983,3.579-15.232,6.753-20.309l0.497-0.795c4.479-7.202,7.477-13.882,2.076-28.613c-1.184-3.224-2.528-6.465-3.829-9.6
			c-1.108-2.672-2.156-5.196-3.02-7.505c-0.44-1.177-0.705-2.115-0.662-3.155c0.014-0.302,0.042-0.528,0.072-0.693
			c0.368,0.163,1.022,0.535,2.038,1.385c3.171,2.652,13.423,12.099,12.683,22.648c-0.151,0.743-0.269,1.489-0.348,2.221
			c-0.602,5.549-0.184,10.017,1.241,13.279c0.89,2.036,1.856,3.839,2.88,5.747c0.542,1.01,1.102,2.053,1.696,3.215
			c1.333,2.604,0.35,4.577-1.429,7.519c-1.12,1.854-2.278,3.77-2.154,5.945c0.052,2.881,3.455,4.665,5.903,4.679
			c2.666,0,4.829-2.148,4.839-4.789c0.01-1.396-0.356-2.418-0.65-3.239c-0.352-0.981-0.584-1.63-0.252-3.036
			c0.9-3.78,0.124-6.878-0.825-9.98c-0.285-0.924-0.877-1.729-1.449-2.509c-0.258-0.351-0.52-0.707-0.737-1.053
			c0.295,0.008,0.61,0.103,0.937,0.282c1.493,0.818,1.717,1.85,1.985,3.603c0.233,1.529,0.524,3.432,2.402,4.569
			c0.719,0.43,1.533,0.654,2.364,0.654c1.543,0,2.928-0.759,3.702-2.028c0.316-0.52,0.493-1.104,0.542-1.71
			c0.534,0.203,1.084,0.302,1.609,0.302c1.494,0,2.86-0.752,3.563-1.962l0.074-0.125c0.479-0.812,1.478-2.499,0.838-4.271
			c-0.271-0.75-0.941-1.769-2.6-2.36c-1.499-0.536-2.401-1.249-2.745-1.738c-0.851-1.208-2.465-1.948-4.487-2.791
			c-0.46-0.192-0.895-0.373-1.133-0.498c-2.026-1.064-4.003-2.475-5.914-3.838l-0.681-0.484c-0.777-0.556-1.269-1.685-1.455-3.354
			l-0.097-0.891c-0.45-4.172-0.775-7.186-4.15-13.887c-2.742-5.447-4.863-8.476-8.879-13.618c-2.161-2.764-4.576-4.894-6.911-6.954
			c-1.839-1.622-3.576-3.154-5.082-4.898c-3.808-4.423-7.122-11.166-9.86-17.178c-4.097-8.99-7.396-15.739-12.563-20.734
			c-5.102-4.931-11.729-7.996-22.875-10.58C43.039,4.099,38.639,3.539,34.72,3.539L34.72,3.539z M45.36,33.399
			c0.856-1.094,1.594-2.294,2.191-3.586c2.127-4.613,5.39-7.152,9.188-7.152c2.566,0,5.06,1.185,6.671,3.169
			c2.131,2.626,3.033,5.084,2.756,7.515c-0.583,5.126-6.363,10.022-12.232,14.598c-1.868,1.456-3.548,2.64-5.173,3.784
			c-1.131,0.797-2.209,1.557-3.245,2.336c0.138-0.293,0.26-0.619,0.365-0.976L45.908,53c0.296-0.983,0.098-2.043-0.543-2.908
			c-0.179-0.24-0.386-0.455-0.616-0.642c0.101-0.19,0.181-0.391,0.24-0.599c0.516-1.844-0.608-3.782-2.504-4.319
			c-0.057-0.016-0.113-0.03-0.169-0.043c0.697-0.582,1.351-1.282,1.939-2.169c0.395-0.593,0.637-0.698,1.221-0.951
			c0.533-0.231,1.264-0.547,2.006-1.249c0.738-0.696,1.16-1.639,1.189-2.654c0.028-1.015-0.34-1.979-1.039-2.716
			C47.049,34.135,46.22,33.653,45.36,33.399L45.36,33.399z M28.777,53.338c0.521-0.364,0.99-0.563,1.332-0.563
			c0.054,0,0.104,0.005,0.153,0.015l0.503,0.101c1.457,0.291,2.964,0.591,4.312,1.055c0.129,0.044,0.414,0.172,0.665,0.285
			c0.95,0.426,2.132,0.957,3.215,0.957c0.158,0,0.31-0.011,0.453-0.031c0.026-0.003,0.059-0.005,0.094-0.005
			c0.143,0,0.672,0.033,1.489,0.452c0.57,0.291,1.135,0.438,1.684,0.438c0.145,0,0.286-0.009,0.422-0.026
			c-4.041,3.536-7.453,8.219-10.889,18.18c-0.529,1.532-2.03,4.982-4.917,5.362c0.057-0.655,0.114-1.502,0.072-2.57
			c-0.091-2.31-0.453-4.841-0.803-7.289c-0.714-5-1.524-10.668,0.453-12.906c0.519-0.585,0.874-1.428,1.249-2.32
			C28.407,54.131,28.636,53.587,28.777,53.338L28.777,53.338z"/>
	</g>
</g>
<g id="Layer_1">
</g>
</svg>
