<?xml version="1.0" encoding="iso-8859-1"?>
<!-- Generator: Adobe Illustrator 16.0.0, SVG Export Plug-In . SVG Version: 6.00 Build 0)  -->
<!DOCTYPE svg PUBLIC "-//W3C//DTD SVG 1.1//EN" "http://www.w3.org/Graphics/SVG/1.1/DTD/svg11.dtd">
<svg version="1.1" xmlns="http://www.w3.org/2000/svg" xmlns:xlink="http://www.w3.org/1999/xlink" x="0px" y="0px" width="150px"
	 height="150px" viewBox="0 0 150 150" style="enable-background:new 0 0 150 150;" xml:space="preserve">
<g id="_x30_6_x5F_01">
	<rect style="fill:none;" width="150" height="150"/>
	<g>
		<path style="fill-rule:evenodd;clip-rule:evenodd;fill:#E81B3C;" d="M45.735,30.975c-2.585,5.599-8.258,9.488-14.842,9.488
			c-9.02,0-16.331-7.297-16.331-16.295c0-2.531,0.576-4.928,1.61-7.065C21.383,6.31,34.987,6.285,47.345,9.151
			c21.446,4.972,25.695,11.816,34.07,30.195c3.001,6.587,6.287,13.149,10.167,17.655c3.55,4.113,8.215,7.023,11.931,11.776
			c4.079,5.224,6.035,8.056,8.669,13.286c3.446,6.844,3.545,9.593,4.046,14.101c0.242,2.166,0.962,3.816,2.284,4.761
			c2.201,1.564,4.432,3.207,6.823,4.463c1.133,0.595,4.103,1.517,4.914,2.669c0.608,0.865,1.846,1.806,3.708,2.471
			c2.529,0.904,1.166,2.951,0.632,3.867c-0.889,1.528-3.918,1.414-4.643-1.56c-0.427-1.75-1.346-2.804-2.752-4.038
			c-2.268-1.996-6.301-4.394-6.226-1.454c0.025,0.563,0.369,0.916,0.785,1.229c0.91,0.687,1.799,1.385,2.684,2.11
			c1.205,0.985,1.203,1.751,3.517,3.633c1.245,1.017,1.453,2.573,0.941,3.413c-0.679,1.112-2.202,1.376-3.323,0.705
			c-2.497-1.512-0.183-5.87-4.461-8.214c-1.665-0.914-3.247-0.565-4.401,0.434l-0.047-0.094c0.028,0.185,0.066,0.367,0.117,0.549
			c0.432,1.841,2.289,3.377,2.706,4.729c0.881,2.881,1.589,5.586,0.791,8.936c-0.791,3.347,0.867,4.155,0.849,6.728
			c-0.006,1.55-1.274,2.8-2.827,2.797c-1.555-0.009-3.92-1.2-3.916-2.75c-0.279-4.066,6.523-8.136,3.364-14.305
			c-1.752-3.42-3.216-5.855-4.523-8.851c-1.366-3.128-1.615-7.377-1.086-12.263c0.08-0.737,0.197-1.456,0.345-2.158
			c0.722-9.238-6.231-18.478-13.384-24.46c-3.056-2.559-5.23-2.962-5.393,0.759c-0.061,1.463,0.327,2.71,0.787,3.938
			c1.895,5.069,4.67,11.173,6.844,17.093c5.294,14.44,2.142,20.376-1.896,26.868c-3.313,5.327-7.222,11.029-7.551,22.111
			c-0.064,2.62,0.779,4.794,1.955,6.073c1.733,1.904,0.771,3.617-2.317,3.646c-1.144-0.075-2.28-0.136-3.424-0.215
			c-2.582-0.131-5.744,0.304-8.202-0.354c-2.554-0.686-4.703-2.295-1.295-3.867c1.169-0.55,5.808,0.588,7.587,0.588
			c2.624,0,3.24-2.867,3.438-4.978c0.343-3.812,0.552-17.062-6.595-12.537c-9.813,6.208-24.526,5.472-33.173,0
			c-7.148-4.524-3.338,8.726-2.995,12.537c0.197,2.11,0.812,4.978,3.438,4.978c1.778,0,6.415-1.138,7.587-0.588
			c3.407,1.572,1.258,3.182-1.297,3.867c-2.455,0.657-5.619,0.223-8.201,0.354c-1.144,0.079-2.281,0.14-3.424,0.215
			c-3.087-0.028-4.051-1.741-2.318-3.646c5.491-5.978-3.994-17.613-6.208-23.102c-0.656-1.632-1.302-3.333-1.911-5.083
			c-3.38-8.997-4.889-17.657-3.047-27.111c1.271-6.523-1.982-3.502-10.229-0.904c-1.47,0.462-3.644-0.803-0.816-7.286
			c3.149-7.228-1.83-19.68,3.146-26.516c0.669-0.92,1.35-3.601,2.03-4.395c2.055-2.385,4.152-4.129,6.215-4.86
			c1.973-0.702,3.753-1.085,6.122-1.767c4.269-1.226,3.198-6.177,5.22-7.825c0.726-0.684,2.319-0.102,3.003,0.621
			c0.683,0.72,0.65,1.859-0.072,2.541c-1.196,1.13-2.3,0.714-3.52,2.547c-1.219,1.837-2.795,2.69-4.527,3.541
			c-0.815,0.399-2.347,0.203-3.399,0.809c-0.106,0.055-0.209,0.118-0.306,0.184l0.063-0.018c0.039,0.976,0.568,1.866,1.722,2.241
			c2.971,0.967,3.998-2.019,5.8-1.515c0.805,0.228,1.348,1.053,1.123,1.856c-0.17,0.607-0.989,1.193-2.009,1.055
			c-1.895-0.252-2.253,0.082-3.239-0.047c-0.727-0.095-1.443-0.205-2.162-0.327c-0.33-0.057-0.646-0.063-0.919,0.171
			c-1.408,1.252,1.479,2.08,3.403,2.264c1.194,0.114,2.091,0.083,3.096-0.484c1.709-0.963,3.087,0.398,2.761,1.48
			c-0.195,0.65-0.557,2.181-2.086,1.399c-1.127-0.579-2.107-0.742-2.778-0.648c-0.896,0.127-2.626-0.854-3.4-1.122
			c-1.637-0.563-3.378-0.885-5.075-1.226c-1.02-0.203-2.106,0.184-3.227,1.019c-0.627,0.469-1.267,2.896-1.91,3.622
			c-3.684,4.17-0.443,14.175-0.149,21.597c0.135,3.441-0.884,4.409,1.037,4.517c3.674,0.205,6.31-2.713,7.697-6.734
			C39.946,59.902,45.312,59.2,55.164,51.521c9.754-7.604,17.778-15.122,9.8-24.951C60.681,21.294,50.742,20.118,45.735,30.975z"/>
		<path style="fill-rule:evenodd;clip-rule:evenodd;" d="M53.209,63.432c-1.916,0.853-3.89,2.504-4.399,4.349
			c-1.587,5.759,5.357,7.152,10.203,6.106c5.237-1.131,4.86-5.248,2.461-8.197c-0.903-1.11-2.096-2.054-3.38-2.614
			C56.774,62.502,55.225,62.535,53.209,63.432z"/>
		<path style="fill-rule:evenodd;clip-rule:evenodd;fill:#FFFFFF;" d="M60.851,64.998c-0.8-0.807-1.748-1.483-2.757-1.922
			c-0.288-0.124-0.587-0.222-0.9-0.287c-0.136,1.387-0.271,3.198-0.256,3.651c-0.089,1.232,1.752,0.985,2.679,0.792
			c0.72-0.15,1.489-0.035,1.407-0.89C60.969,66,60.912,65.534,60.851,64.998L60.851,64.998z M56.612,62.708
			c-0.942-0.073-2.009,0.123-3.254,0.658c-0.405,1.342-0.817,2.705-1.087,3.44c-0.246,0.823,0.531,0.858,1.21,1.145
			c0.873,0.367,2.631,0.962,2.782-0.262C56.417,67.023,56.527,64.508,56.612,62.708z"/>
		<path style="fill-rule:evenodd;clip-rule:evenodd;fill:#FFFFFF;" d="M30.773,10.434c7.591,0,13.745,6.142,13.745,13.715
			c0,7.572-6.154,13.714-13.745,13.714c-7.588,0-13.744-6.142-13.744-13.714C17.029,16.575,23.184,10.434,30.773,10.434z"/>
		<ellipse style="fill-rule:evenodd;clip-rule:evenodd;" cx="24.764" cy="18.287" rx="3.978" ry="3.97"/>
	</g>
</g>
<g id="Layer_1">
</g>
</svg>
