<?xml version="1.0" encoding="iso-8859-1"?>
<!-- Generator: Adobe Illustrator 16.0.0, SVG Export Plug-In . SVG Version: 6.00 Build 0)  -->
<!DOCTYPE svg PUBLIC "-//W3C//DTD SVG 1.1//EN" "http://www.w3.org/Graphics/SVG/1.1/DTD/svg11.dtd">
<svg version="1.1" xmlns="http://www.w3.org/2000/svg" xmlns:xlink="http://www.w3.org/1999/xlink" x="0px" y="0px"
	 width="409.409px" height="559.464px" viewBox="0 0 409.409 559.464" style="enable-background:new 0 0 409.409 559.464;"
	 xml:space="preserve">
<g id="pop_x5F_01">
	<g>
		<path style="fill-rule:evenodd;clip-rule:evenodd;fill:#319AF5;" d="M189.616,336.354c-13.105-26.163-22.196-45.926,1.337-66.182
			c18.289-15.741,30.127-39.537,32.689-63.872c3.022-28.702-12.421-60.632-34.748-78.384c-11.648-9.264-25.068-13.211-47.801-14.124
			c-9.335-0.38-18.702,0.287-28.914,1.711c-67.256,9.353-73.305,34.852-49.832,87.912c4.674,10.547,9.189,19.993,11.036,36.814
			c2.783,25.335,24.128,40.777,47.757,46.304c40.453,9.467,38.267,47.477,20.147,80.579c-4.429,8.1-9.789,16.304-15.801,26.735
			c-6.139,9.951-15.908,26.749-35.484,22.625c-17.044-7.032-66.848-16.442-69.645-33.333c-0.816-4.86,13.495-52.313,23.887-56.438
			c17.85-7.078,21.293,9.628,27.926,6.146c3.292-1.735,7.181-6.239,6.635-10.18c-0.635-4.527-6.188-8.894-18.315-3.229
			c-2.838,1.322-6.118,0.449-9.198-0.298c-2.174-0.529-3.229-1.367-3.473-2.46c-0.548-2.365,0.933-7.641,4.447-11.868
			c2.74-2.93,24.384-20.107,23.606-26.853c-0.575-4.929-6.92-10.214-11.55-7.56c-4.584,2.608-6.044,9.501-7.538,14.099
			c-1.962,6.25-8.525,20.083-11.335,19.75c-2.651-0.332-1.815-1.184-1.66-4.424c0.158-3.228,4.429-19.728,5.236-22.417
			c1.706-5.975,5.357-13.604-1.465-17.085c-14.176-7.273-9.752,17.786-9.204,25.003c0.299,10.341-0.333,16.384-1.649,26.656
			c-3.177,18.337-18.92,46.223-30.313,60.988c-7.336,10.271-10.315,15.615,1.815,24.163c19.602,13.787,40.513,24.186,61.729,35.239
			c26.163,13.972,24.296,18.51,30.874,42.972c7.457,27.679,30.509,28.563,30.155,53.278c-0.054,3.906-1.04,7.652-4.05,10.64
			c-2.18,2.16-5.655,2.437-13.282,2.493c-3.249,0-6.509,0-9.77,0c-6.768,0.058-13.538,0.115-20.305,0.149
			c-3.864-0.46-14.538,1.08-10.077,7.571c0.991,1.448,3.355,1.035,6.816,1.735c16.338,0.54,32.764-0.287,48.993,1.081
			c4.584,1.229,7.351,2.676,11.86,0.666c3.608-1.608,2.393-3.229,0.761-5.826c-2.83-4.515-2.996-9.674-3.789-14.833
			c0.006-7.124,0.822-10.777,3.005-12.524c2.284-1.814,6.055-1.517,11.946-0.839c5.274,0.599,10.504,1.655,15.709,2.815
			c28.857,6.48,61.066-3.699,87.714,2.838c2.81,0.69,5.405,1.954,7.83,4.539c3.918,4.171,7.118,14.741,3.441,19.924
			c-1.506,2.125-7.273,5.56-3.901,8.813c3.298,3.171,11.915,0.667,15.987,0.517c9.905-0.345,20.459-1.598,30.307-0.873
			c2.044,0.148,4.106,0.425,6.434,0.85c2.332,0.437,4.658,0.529,6.956-0.493c2.161-0.966,3.361-2.701,0.454-5.505
			c-1.246-1.194-3.504-1.723-6.359-2.079c-3.838,0-7.617,0.058-11.402,0.195c-3.781,0.127-7.556,0.322-11.382,0.587
			c-14.334-0.988-16.35,0.678-16.592-13.8c-2.32-14.982,2.701-21.062,8.135-27.863c18.195-22.75,13.519-60.827,1.063-85.357
			c-9.226-18.144-13.546-11.708,1.649-27.886c26.657-28.403,36.647-51.486,36.975-88.933c0.114-13.178-1.097-24.669-1.982-37.824
			c-0.499-7.365-0.832-14.615-0.425-17.396c1.947-10.179,3.223-16.12,6.732-25.863c2.758-6.675,14.754-29.115-0.987-26.622
			c-7.566,1.195-6.464,9.571-6.699,15.787c-0.068,2.815-1.137,19.82-1.993,22.934c-0.861,3.137-0.339,4.194-2.953,3.677
			c-2.774-0.528-4.71-15.741-4.642-22.278c0.018-4.837,0.764-11.835-2.77-15.753c-3.572-3.953-11.259-0.908-13.328,3.597
			c-2.838,6.17,12.386,29.242,14.088,32.872c2.027,5.113,1.792,10.571,0.533,12.65c-0.574,0.965-1.827,1.437-4.062,1.264
			c-3.16-0.242-6.555-0.437-8.835-2.585c-9.767-9.146-16.408-6.722-18.413-2.62c-1.746,3.585,0.552,9.077,3.148,11.742
			c5.211,5.366,13.684-9.444,28.449,2.838c2.643,2.194,3.872,4.297,4.498,6.606c2.545,9.433,2.889,28.897,1.976,38.262
			c-3.693,37.928-32.867,71.593-42.541,77.511c-17.774,10.868-12.806,9.341-29.253-1.598
			C223.918,369.318,199.457,356.036,189.616,336.354z"/>
		<path style="fill-rule:evenodd;clip-rule:evenodd;fill:#FFFFFF;" d="M116.629,130.926c8.376-1.171,16.06-1.723,23.724-1.401
			c18.643,0.747,29.65,3.987,39.204,11.582c18.315,14.558,30.983,40.743,28.5,64.286c-3.348,31.815-26.041,62.539-58.66,67.101
			c-26.533,3.711-61.307-9.387-64.582-39.261c-1.52-13.811-5.219-21.555-9.048-30.207
			C56.508,159.502,61.472,138.602,116.629,130.926z"/>
		<path style="fill-rule:evenodd;clip-rule:evenodd;fill:#333333;" d="M155.502,202.698c-6.281,8.192-20.004,12.053-29.81,7.733
			c-5.88-2.597-11.223-10.134-11.321-16.683c-0.101-7.124,0.282-11.973,5.012-16.937c3.266-3.424,7.175-6.055,12.627-7.492
			c10.806-2.826,21.783,2.517,25.812,13.042C160.562,189.496,160.228,196.551,155.502,202.698z"/>
	</g>
	<polygon style="fill-rule:evenodd;clip-rule:evenodd;fill:#FFFFFF;" points="409.409,91.098 232.819,91.098 189.485,122.098 
		208.366,91.098 159.551,91.098 159.551,0 409.409,0 	"/>
	<g>
		<path d="M181.786,63.943V14.749h13.887c4.279,0,8.063,0.946,11.353,2.838c3.288,1.892,5.828,4.584,7.619,8.075
			c1.791,3.492,2.697,7.501,2.72,12.028v3.143c0,4.64-0.896,8.706-2.686,12.197c-1.791,3.492-4.348,6.172-7.67,8.041
			c-3.323,1.87-7.191,2.827-11.606,2.872H181.786z M188.273,20.053v38.585h6.825c5,0,8.892-1.555,11.674-4.667
			c2.781-3.111,4.172-7.541,4.172-13.291v-2.875c0-5.591-1.312-9.936-3.936-13.036c-2.625-3.1-6.347-4.672-11.167-4.717H188.273z"/>
		<path d="M248.753,63.943c-0.36-0.721-0.653-2.004-0.878-3.852c-2.906,3.019-6.375,4.527-10.406,4.527
			c-3.604,0-6.561-1.019-8.869-3.058c-2.31-2.039-3.464-4.623-3.464-7.754c0-3.806,1.447-6.763,4.342-8.869
			c2.895-2.106,6.966-3.159,12.214-3.159h6.082v-2.872c0-2.185-0.653-3.924-1.96-5.22c-1.307-1.295-3.232-1.942-5.777-1.942
			c-2.229,0-4.1,0.563-5.608,1.689c-1.51,1.127-2.264,2.489-2.264,4.088h-6.285c0-1.824,0.647-3.586,1.943-5.288
			c1.295-1.701,3.052-3.046,5.271-4.038c2.219-0.991,4.657-1.487,7.315-1.487c4.212,0,7.512,1.053,9.899,3.159
			c2.388,2.106,3.626,5.006,3.717,8.7v16.826c0,3.357,0.428,6.026,1.283,8.008v0.541H248.753z M238.381,59.179
			c1.959,0,3.817-0.507,5.574-1.521c1.758-1.013,3.029-2.331,3.818-3.953v-7.5h-4.899c-7.658,0-11.487,2.242-11.487,6.724
			c0,1.959,0.653,3.492,1.96,4.595C234.652,58.627,236.331,59.179,238.381,59.179z"/>
		<path d="M262.302,45.36c0-5.609,1.329-10.119,3.986-13.532c2.658-3.413,6.138-5.119,10.44-5.119c4.279,0,7.67,1.465,10.17,4.393
			V12.045h6.251v51.897h-5.744l-0.304-3.919c-2.5,3.063-5.98,4.595-10.44,4.595c-4.235,0-7.687-1.734-10.355-5.203
			c-2.67-3.469-4.004-7.996-4.004-13.583V45.36z M268.553,46.069c0,4.145,0.855,7.388,2.567,9.731s4.076,3.514,7.096,3.514
			c3.964,0,6.858-1.779,8.683-5.338V37.183c-1.869-3.446-4.741-5.169-8.615-5.169c-3.063,0-5.451,1.183-7.163,3.548
			S268.553,41.429,268.553,46.069z"/>
		<path d="M301.326,45.36c0-5.609,1.329-10.119,3.986-13.532c2.658-3.413,6.138-5.119,10.44-5.119c4.279,0,7.67,1.465,10.17,4.393
			V12.045h6.251v51.897h-5.744l-0.304-3.919c-2.5,3.063-5.98,4.595-10.44,4.595c-4.235,0-7.687-1.734-10.355-5.203
			c-2.67-3.469-4.004-7.996-4.004-13.583V45.36z M307.577,46.069c0,4.145,0.855,7.388,2.567,9.731s4.076,3.514,7.096,3.514
			c3.964,0,6.858-1.779,8.683-5.338V37.183c-1.869-3.446-4.741-5.169-8.615-5.169c-3.063,0-5.451,1.183-7.163,3.548
			S307.577,41.429,307.577,46.069z"/>
		<path d="M353.832,54.787l8.514-27.402h6.69l-14.697,42.201c-2.275,6.082-5.891,9.123-10.847,9.123l-1.182-0.102l-2.332-0.439
			v-5.068l1.689,0.135c2.117,0,3.768-0.428,4.95-1.284c1.183-0.856,2.156-2.422,2.923-4.697l1.385-3.716l-13.042-36.153h6.825
			L353.832,54.787z"/>
		<path d="M381.943,50.034c0.045-2.676,0.349-4.79,0.912-6.342c0.563-1.551,1.711-3.272,3.446-5.162l4.426-4.554
			c1.893-2.135,2.838-4.428,2.838-6.878c0-2.36-0.619-4.208-1.858-5.546c-1.238-1.337-3.04-2.006-5.405-2.006
			c-2.298,0-4.145,0.608-5.541,1.824c-1.397,1.216-2.095,2.85-2.095,4.899h-6.251c0.045-3.649,1.346-6.594,3.902-8.835
			c2.557-2.241,5.884-3.362,9.984-3.362c4.257,0,7.573,1.141,9.95,3.424c2.376,2.283,3.564,5.415,3.564,9.395
			c0,3.936-1.824,7.815-5.474,11.638l-3.683,3.644c-1.645,1.822-2.467,4.442-2.467,7.86H381.943z M381.673,60.768
			c0-1.023,0.31-1.882,0.929-2.575c0.619-0.694,1.537-1.041,2.754-1.041s2.14,0.347,2.771,1.041
			c0.631,0.693,0.946,1.552,0.946,2.575c0,1.023-0.315,1.87-0.946,2.541c-0.631,0.671-1.554,1.006-2.771,1.006
			s-2.135-0.335-2.754-1.006C381.982,62.638,381.673,61.791,381.673,60.768z"/>
	</g>
</g>
<g id="Layer_1">
</g>
</svg>
