<svg xmlns="http://www.w3.org/2000/svg" xmlns:xlink="http://www.w3.org/1999/xlink" width="116" height="116" viewBox="0 0 116 116"><defs><clipPath id="a"><rect width="116" height="116" transform="translate(1384 71)" fill="#1d84d4"/></clipPath></defs><g transform="translate(-1384 -71)" clip-path="url(#a)"><rect width="116" height="116" transform="translate(1384 71)" fill="#1d84d4"/><g transform="translate(1180.676 -246.546)"><path d="M250.772,444.072c-3.376-1.445-4.315-1.807-4.315,2.155v7.791h5.671c.786,0,.94-.22.94.593,0,.942-.047.75-.976.75h-5.172c-2.143,0-2.08.6-1.979-1.343.435-8.136.972-15.532,1.594-22.237.335-3.6.682-7.241,1.109-10.868.15-1.261.833-3.13-1.235-2.166a7.313,7.313,0,0,0-2.888,2.783c-.779,1.2-2.373,3.528-1.865,4.954.429,1.2,1.007,3.459-.711,3.467a.639.639,0,0,1-.009-1.279c.208,0-.129-.942-.413-1.648-.323-.79-.254-.724-1.105-.66-.738.055-1.631.158-1.545.338a.643.643,0,0,1-.3.853.632.632,0,0,1-.848-.3c-.659-1.378,1.059-1.9,2.34-2.1-.576-.482-1.316-1.056-1.378-.868a.638.638,0,1,1-1.21-.4c.367-1.1,1.377-.891,2.3-.393,1.459.772,1.059,1.062,1.8-.566,1.9-4.177,3.98-5.982,5.9-6.534,2.113-.6,2.09-2.379,2.388-4.156q.344-2.035.745-4.051c6.014-29.856,19.848-28.815,25.313,3.15.564,3.3-.34,3.309,2.671,3.549,4.532.363,10.982-.105,14.453-4.842.5-.683,1.259-.6,1.971-.542,1.314.117,4.137.235,4.38-.9a.739.739,0,1,1,1.445.308,2.7,2.7,0,0,1-2.275,1.867,10.011,10.011,0,0,0,5.1-.594.736.736,0,0,1,1,.3.745.745,0,0,1-.3,1c-2.593,1.408-7.519.633-9.28.288-.149.884-.343,2.265-.089,2.21a.743.743,0,0,1,.319,1.451c-1.2.268-1.633-.671-1.744-1.772-.124-1.243-.266-.491-1.1.164-4.053,3.181-9.6,3.576-13.742,3.3-2.282-.153-1.794,1.06-1.592,2.689.223,1.808.429,3.6.635,5.5.9,8.33,1.665,17.864,2.245,28.712.1,1.944.164,1.343-1.979,1.343h-5.172c-.929,0-.976.192-.976-.75,0-.813.154-.593.94-.593h5.671v-7.791c0-3.962-.939-3.6-4.315-2.155C267.459,446.519,256.492,446.519,250.772,444.072Z" transform="translate(0 0)" fill="#333" fill-rule="evenodd"/><circle cx="8.483" cy="8.483" r="8.483" transform="translate(253.125 404.398)" fill="#fff"/><path d="M254.83,408.658a1.589,1.589,0,1,1-1.59,1.591A1.591,1.591,0,0,1,254.83,408.658Z" transform="translate(2.852 3.754)" fill="#333" fill-rule="evenodd"/></g></g></svg>