<svg xmlns="http://www.w3.org/2000/svg" xmlns:xlink="http://www.w3.org/1999/xlink" width="116" height="116" viewBox="0 0 116 116"><defs><clipPath id="a"><rect width="116" height="116" transform="translate(1384 71)" fill="#1d84d4"/></clipPath></defs><g transform="translate(-1384 -71)" clip-path="url(#a)"><rect width="116" height="116" transform="translate(1384 71)" fill="#1d84d4"/><g transform="matrix(0.999, 0.052, -0.052, 0.999, 1251.78, -4.979)"><path d="M223.644,140.661a12.059,12.059,0,0,1-1.464-1.53s-1.851.7-2.982,1.035a24.734,24.734,0,0,1-4.982,1.05,14.879,14.879,0,0,1-2.52-.018c-.541-.049-1.659-.074-1.656-.729,0-.333.434-.676.807-1.094.331-.263.686-.514,1.04-.77a11.043,11.043,0,0,0,2.211-2,7.032,7.032,0,0,0,1.471-3.244,9.543,9.543,0,0,0-.888-6.231,10.672,10.672,0,0,0-2.976-3.358,20.4,20.4,0,0,0-10.587-4.017c-5.3-.424-9.264,1.423-12.823,4.6a17.4,17.4,0,0,0-5.5,8.131,14.88,14.88,0,0,0-.79,5.338.875.875,0,0,1-.206.645,5.529,5.529,0,0,1-2.729.487c-1.782.062-3.874-.033-4.561-.013l-4.435-.057-2.548-.1c-.2.914-.417,1.826-.667,2.729l3.3.774c2.809.641,5.577,1.256,8.319,2.068.992.295,2.372.569,2.973,1.357a1.778,1.778,0,0,1,.312.863c.139.894.225,1.79.389,2.683a36.726,36.726,0,0,0,2.569,8.2,67.54,67.54,0,0,0,3.144,6.384q.873,1.665,1.747,3.331c1.446,3.113,2.3,3.7,2.4,7.335-.037.339-.074.675-.11,1.013-.085.785-.359,1.851-1.525,1.851H189c-.353-.021-1.443-.434-2-.22-1.515.589-.56,1.182.581,1.439a22.406,22.406,0,0,0,3.649.13l1.523.082c1.375-.012,1.8-.649,1.031-1.356-1.513-1.382-.739-4.794-.634-6.477.083-1.3-.258-1.591,1.32-1.558,3.706.076,3.488-.075,7.088-.857,1.923-.418,1.413.034,1.55,1.588.184,2.079.811,3.876.132,5.778a5.2,5.2,0,0,1-.445.946c-.322.542-1.542.584-.885,1.422a1.588,1.588,0,0,0,1.153.414c1.355.088,3.8.056,5.314.1,1.83.053,1.708-1.233.382-1.332a8.2,8.2,0,0,0-1.273.054c-1.4.118-2.674-.042-3.014-1.233a3.386,3.386,0,0,1,.045-1.216,24.164,24.164,0,0,1,1.219-6.142,14.722,14.722,0,0,1,.582-1.438c.558-1.2,1.159-2.373,1.752-3.548a33.471,33.471,0,0,0,1.524-3.527,23.355,23.355,0,0,0,1.276-4.9,28.749,28.749,0,0,0,.245-4.3,5.7,5.7,0,0,1,.222-2.425c.433-.958,1.269-1.3,2.248-1.8l2.6-1.322,8.253-4.4A8.187,8.187,0,0,0,223.644,140.661Z" transform="translate(1.307 0.112)" fill="#034258" fill-rule="evenodd"/><path d="M193.688,124.045a10.576,10.576,0,0,0-2.613,2.03,9.054,9.054,0,0,0-2.772,5.659,5.249,5.249,0,0,0,1.6,4.305c2.338,2.688,7.556,4.406,11.476,4.074,3.319-.281,6.552-1.538,8.233-4.042a8.969,8.969,0,0,0,1.472-6.381c-.413-2.091-1.93-3.851-4.811-5.416A12.9,12.9,0,0,0,193.688,124.045Z" transform="translate(2.417 0.259)" fill="#fff" fill-rule="evenodd"/><path d="M199.308,126.29a2.179,2.179,0,0,0-.538.417,1.857,1.857,0,0,0-.568,1.161,1.073,1.073,0,0,0,.329.883,3.126,3.126,0,0,0,2.353.835,2.217,2.217,0,0,0,1.687-.829,1.831,1.831,0,0,0,.3-1.309,1.692,1.692,0,0,0-.987-1.111A2.643,2.643,0,0,0,199.308,126.29Z" transform="translate(2.932 0.438)" fill="#333" fill-rule="evenodd"/><path d="M166.878,140.652a11.02,11.02,0,0,1-2.036-.647,5.74,5.74,0,0,1-1.081-.677c-1.162-.777-3.294-2.5-4.456-3.278a16.215,16.215,0,0,1-3.375-3.358,1.953,1.953,0,0,1,1.59.27c2.214,1.233,4.254,2.641,6.345,4.014a4.807,4.807,0,0,0,2.744.953l1.532.178q-.312,1.366-.708,2.721Z" transform="translate(0.739 0.782)" fill="#034258" fill-rule="evenodd"/><path d="M159.879,124.117c-1.1-.244-2.644.471-2.511,3.255a2.743,2.743,0,0,1-.958,1.741c-.332.376-.627.509-.9.469a4.084,4.084,0,0,1-2.3-1.808c-.409-.763-2.276-6.3-3.906-6.691-1.189-.287-3.021.5-2.859,1.606s1.607,1.924,2.521,2.58c1.252.88,3.806,3.256,3.453,3.765-.333.482-.445.255-1.177-.035s-4.117-2.437-4.66-2.81c-1.211-.809-2.614-2.123-4.077-1.1-3.044,2.137,3.156,3.306,4.869,3.78a40.252,40.252,0,0,1,5.984,2.462c1.324.706,6.224,4.965,6.69,5.315a9.414,9.414,0,0,0,1.1-1.2s-.957-.818-1.327-1.151c-1.321-1.181-2.388-1.591-2.35-3.222.094-4,4.277-3.313,4.114-4.865A2.535,2.535,0,0,0,159.879,124.117Z" transform="translate(0 0.181)" fill="#034258" fill-rule="evenodd"/><path d="M223.5,139.48a5.017,5.017,0,0,0,.82-.9c.866-1.011,2.358-3.15,3.224-4.16a14.125,14.125,0,0,0,2.157-4,1.823,1.823,0,0,0-1.445.62c-1.728,1.687-3.233,3.5-4.8,5.3a4.281,4.281,0,0,1-2.334,1.538c-.471.173-1.2.521-1.67.693.316.528.4,1.139.952,1.575a2.363,2.363,0,0,0,1.309.565C221.872,140.616,223.022,139.882,223.5,139.48Z" transform="translate(4.035 0.669)" fill="#333" fill-rule="evenodd"/><path d="M223.45,123.09c.982-.483,2.7-.144,3.478,2.564.183.634.863,1.056,1.489,1.461a1.127,1.127,0,0,0,1.019.247,3.541,3.541,0,0,0,1.63-2.26c.145-.825.142-6.577,1.582-7.323,1.051-.544,3.073-.194,3.276.9s-.922,2.214-1.589,3.053c-.916,1.129-2.6,3.992-2.1,4.4.475.389.51.144,1.119-.3a51.028,51.028,0,0,0,3.572-3.755c.9-1.052,1.827-2.634,3.568-1.974,3.625,1.371-1.962,3.893-3.458,4.738a35.431,35.431,0,0,0-4.96,3.719c-1.045.978-4.376,6.185-4.71,6.627a10.815,10.815,0,0,1-1.453-.909s.653-1,.9-1.407c.889-1.435,1.779-2.07,1.214-3.632-1.391-3.826-5.193-2.225-5.542-3.755A2.257,2.257,0,0,1,223.45,123.09Z" transform="translate(4.19 0)" fill="#034258" fill-rule="evenodd"/></g></g></svg>