<svg xmlns="http://www.w3.org/2000/svg" xmlns:xlink="http://www.w3.org/1999/xlink" width="116" height="116" viewBox="0 0 116 116"><defs><clipPath id="a"><rect width="116" height="116" transform="translate(1384 71)" fill="#1d84d4"/></clipPath></defs><g transform="translate(-1384 -71)" clip-path="url(#a)"><rect width="116" height="116" transform="translate(1384 71)" fill="#1d84d4"/><g transform="matrix(0.921, -0.391, 0.391, 0.921, 954.842, -195.582)"><path d="M285.538,485.552c.23,5.744,4.192,11.588,9.1,14.445,2.561,1.487,5.321,1.877,9.824,1.4a32.021,32.021,0,0,0,5.648-1.171c4.491-1.306,7.864-2.543,12.642-2.648.474-.012.954-.006,1.436.006.1-2.829,7.044-7.895,2.09-9.453-2.759-.5-2.368.365-6.476-2.505s-4.9-7.8-5.64-11.088c-1.837-8.151-10.649-8.988-16.89-7.165C289.6,469.617,285.226,477.794,285.538,485.552Z" transform="translate(0.541 0)" fill="#ff9600" fill-rule="evenodd"/><path d="M308.44,499.5c-.026-.042-.05-.093-.074-.137l-3.593,1.394c0,.15.012.3.012.458Z" transform="translate(9.361 15.023)" fill="#1d84d4"/><path d="M350.262,539.285c1.146-4.894-.49-8.761-1.162-11.361-1.5-5.822-4.21-14.719-8.2-18.706-.661-1.155-18.116-1.681-19.543-5.461-1.518-4.023-10.191-3.793-12.607-1.378-5.891,5.89-9.109,17.134-12.259,24.347-7.641,17.5,4.643,19.37,11.715,21.278s26.5,3.383,37.047-3.457C347.868,542.853,349.314,543.332,350.262,539.285Z" transform="translate(4.459 15.607)" fill="#ff9600" fill-rule="evenodd"/><path d="M319.061,494.617c-.885,1.355-3.44,5.872-1.8,8.084a3.912,3.912,0,0,0,.481.726c1.018,1.206,2.846,2.59,3.74,3.54,1.277,1.772,6.347,4.084,9.055,7.374a45.444,45.444,0,0,1,6.187,9.808l-17.2-6.912s.7.165.981-.335c.363-.639-.781-1.866-2.337-3.122-2.063-1.3-5.632-3.457-7.028-6.872-3.96-7.1,3.051-18.192,3.628-19.053,7.342-12.078,19.309-10.446,19.843-10.427l-1.24,8.42a12.122,12.122,0,0,0-2.084-.08,8.467,8.467,0,0,0-2.574.445C321.884,489.183,321.428,491,319.061,494.617Z" transform="translate(11.724 4.936)" fill="#ff9600"/><path d="M310,498.772a47.138,47.138,0,0,0,4.583,5.9,40.628,40.628,0,0,0,7.322-2.119,27.009,27.009,0,0,0,4.522-2.281c-2.1-1.547-4.411-2.874-6.3-4.967A67.655,67.655,0,0,1,310,498.772Z" transform="translate(11.757 13.167)" fill="#1d84d4"/><path d="M310.744,501.048a27.258,27.258,0,0,0,5.155,4.9c1.935-1.2,6.547-2.028,11.539-4.916l.343-.2c-2.11-1.785-4.657-2.884-6.991-4.523C317.7,497.826,314.056,499.292,310.744,501.048Z" transform="translate(12.097 13.626)" fill="#1d84d4"/><g transform="translate(306.62 487.873)"><path d="M326.184,483.706c-2.568-1.29-6.181-2.668-9.493-2.514-2.862.13-.8,9.255-.8,9.255,6.693-1.333,16.6,3.682,14.678,7.882-3.522,7.7-22.291,6.264-26.243,15.772-1.123,2.7-4.7,11.1-4.7,11.1s23.752-7.74,19.659-11.836c-1.747-1.745,2.931-1.139,10.795-5.251a19.2,19.2,0,0,0,6.824-5.3C342.117,495.548,334.179,487.713,326.184,483.706Z" transform="translate(-299.62 -481.18)" fill="#ff9600"/></g><path d="M320.392,492.627c2.285-4.754,5.856-5.77,7.569-6.744-2.254-3.266-6.317-3.694-9.558-5.817-3.061,2.429-5.815,6.764-7.718,11.5A11.6,11.6,0,0,1,320.392,492.627Z" transform="translate(12.07 6.183)" fill="#1d84d4"/><path d="M319.825,480.244a19.728,19.728,0,0,0-5.512,6.06,37.382,37.382,0,0,0-3.3,6.687,59.78,59.78,0,0,0,8.277-.843,19.849,19.849,0,0,1,2.725-3.6,17.67,17.67,0,0,1,6.037-3.6C326.332,482.371,321.835,482.192,319.825,480.244Z" transform="translate(12.221 6.264)" fill="#ff9600"/><g transform="translate(284.342 515.307)"><path d="M307.2,506.3a5.888,5.888,0,0,1,3.777.6c.678-.967,2.737-1.881,3.231-2.975.318-.6-.516-3.3-.262-3.928-.663.29-3.443,1.8-4.21,2.1-10.824,3.61-15.242,6.894-19.235,16.378.43.225.857.458,1.289.7C294.852,511.088,304.672,506.49,307.2,506.3Z" transform="translate(-281.522 -499.994)" fill="#ff9600" fill-rule="evenodd"/><path d="M298.446,523.565c-.694.595-2.107.512-3.174-1.945a2.815,2.815,0,0,0-1.419-1.177c-.4-.207-.664-.222-.846-.091a3.406,3.406,0,0,0-.907,2.37c.023.8.989,6.248-.023,7.154-.738.664-2.391.615-2.734-.4s.356-2.227.741-3.112c.535-1.2,1.385-4.144.919-4.464-.44-.3-.427-.066-.833.439s-1.953,3.545-2.19,4.055c-.535,1.126-1,2.752-2.485,2.37-3.088-.792.9-3.962,1.935-4.969a29.462,29.462,0,0,0,3.291-4.216c.659-1.07,2.416-6.47,2.606-6.935a8.5,8.5,0,0,1,1.3.662s-.349,1.04-.478,1.455c-.459,1.486-1.056,2.209-.349,3.611,1.738,3.43,4.471,1.381,5,2.782A2.4,2.4,0,0,1,298.446,523.565Z" transform="translate(-284.342 -494.196)" fill="#ff9600" fill-rule="evenodd"/></g><g transform="translate(340.573 517.572)"><path d="M330.027,508.18a5.868,5.868,0,0,0-3.777.6c-.678-.965-2.737-1.882-3.231-2.976-.315-.6.146-3.631-.108-4.258a40.964,40.964,0,0,0,4.58,2.429c10.826,3.609,15.242,6.894,19.235,16.378-.43.223-.857.456-1.288.693C342.371,512.973,332.55,508.373,330.027,508.18Z" transform="translate(-322.904 -501.547)" fill="#ff9600" fill-rule="evenodd"/><path d="M335.886,525.344c.694.595,2.107.513,3.174-1.942a2.809,2.809,0,0,1,1.419-1.177c.4-.21.664-.222.846-.09a3.4,3.4,0,0,1,.907,2.367c-.023.8-.989,6.248.023,7.157.738.663,2.391.612,2.734-.4s-.354-2.225-.742-3.113c-.532-1.2-1.385-4.144-.917-4.463.44-.3.426-.066.834.442s1.953,3.543,2.189,4.055c.537,1.123,1,2.749,2.485,2.367,3.09-.789-.9-3.96-1.935-4.967a29.612,29.612,0,0,1-3.29-4.217c-.661-1.072-2.418-6.469-2.607-6.935a8.635,8.635,0,0,0-1.3.661s.347,1.043.477,1.458c.459,1.483,1.056,2.211.347,3.611-1.735,3.43-4.468,1.382-5,2.781A2.4,2.4,0,0,0,335.886,525.344Z" transform="translate(-317.194 -495.645)" fill="#ff9600" fill-rule="evenodd"/></g><path d="M353.148,546.873c-.967,0-1.922.015-2.874.045s-1.907.083-2.871.149c-3.612-.248-4.121.17-4.182-3.478-.4-2.549-1.067-3.363,1.465-5.451,5.841-3.242,7.38-10.438,7.2-13.321-.121-1.9-22.94,8.681-32.748,8.477-2.091,0-4.182-.7-6.275-.839-4.8-.509-9.532-.8-14.188-1.464a11.071,11.071,0,0,0,4.6,4.547c2.005,1.922,2.851,2.907,2.807,5.875a3.672,3.672,0,0,1-1.021,2.68c-.55.544-1.425.612-3.348.63h-2.461q-2.561.015-5.121.039c-.976-.117-3.664.27-2.54,1.907.248.362.846.257,1.719.436,4.118.137,8.261-.074,12.351.274,1.155.308,1.853.669,2.989.165.91-.4.6-.815.192-1.467a9.25,9.25,0,0,1-.952-3.739c0-1.8.2-2.72.754-3.159.577-.456,1.527-.382,3.014-.214a38.414,38.414,0,0,1,3.959.713c7.276,1.635,15.4-.935,22.113.718a3.834,3.834,0,0,1,1.974,1.142c.987,1.051,1.8,3.714.868,5.023-.381.535-1.836,1.4-.983,2.222.83.8,3,.165,4.029.128a72.769,72.769,0,0,1,7.639-.22,15.108,15.108,0,0,1,1.622.217,2.9,2.9,0,0,0,1.757-.128c.541-.242.846-.681.114-1.385A2.871,2.871,0,0,0,353.148,546.873Z" transform="translate(3.198 26.583)" fill="#ff9600" fill-rule="evenodd"/><path d="M305.434,497.221a26.158,26.158,0,0,1-4.748.28c-3.73-.149-5.933-.8-7.846-2.316-3.664-2.913-6.2-8.157-5.7-12.87.671-6.368,5.213-12.517,11.743-13.431,5.309-.744,12.269,1.88,12.925,7.86a17.961,17.961,0,0,0,1.81,6.047C317.469,491.5,316.476,495.688,305.434,497.221Z" transform="translate(1.252 1.003)" fill="#fff" fill-rule="evenodd"/><path d="M300.91,481.551a3.47,3.47,0,0,1,3.863-1,2.864,2.864,0,0,1,.82,4.354,3.343,3.343,0,0,1-1.637.971,2.777,2.777,0,0,1-3.345-1.689A2.6,2.6,0,0,1,300.91,481.551Z" transform="translate(7.352 6.299)" fill="#333" fill-rule="evenodd"/><path d="M366.331,489.939c-.232-5.741-4.192-11.588-9.1-14.442-2.561-1.489-5.319-1.877-9.824-1.407a32.052,32.052,0,0,0-5.647,1.174c-4.49,1.307-7.3,3.839-12.08,3.947-.475.009-1.8-.233-2.279-.248-.1,2.829-5.859,6.875-.9,8.433a18.121,18.121,0,0,1,5.572,2.467c4.106,2.87,4.9,7.8,5.639,11.089,1.837,8.151,10.649,8.985,16.892,7.165C362.27,505.877,366.641,497.7,366.331,489.939Z" transform="translate(18.393 3.359)" fill="#ff9600" fill-rule="evenodd"/><path d="M342.262,476.3a26.3,26.3,0,0,1,4.749-.281c3.729.15,5.933.8,7.845,2.317,3.666,2.915,6.2,8.157,5.7,12.868-.671,6.368-5.213,12.517-11.743,13.431-5.309.742-12.268-1.881-12.924-7.861a17.873,17.873,0,0,0-1.812-6.044C330.229,482.027,331.221,477.84,342.262,476.3Z" transform="translate(21.853 4.323)" fill="#fff" fill-rule="evenodd"/><path d="M345.031,494.075a5.357,5.357,0,0,1-5.967,1.546,4.127,4.127,0,0,1-2.264-3.338,4.171,4.171,0,0,1,1-3.392,5.184,5.184,0,0,1,2.529-1.5A4.288,4.288,0,0,1,345.5,490,4,4,0,0,1,345.031,494.075Z" transform="translate(24.034 9.471)" fill="#333" fill-rule="evenodd"/></g></g></svg>