<svg id="_001" data-name="001" xmlns="http://www.w3.org/2000/svg" viewBox="0 0 800 600"><defs><style>.cls-1{fill:#6e593d;}.cls-2{fill:#54442e;}.cls-3{fill:#5c4a32;}.cls-4{fill:#635137;}.cls-5{fill:#574630;}.cls-6{fill:#896f4c;}.cls-7{fill:#614e36;}.cls-8{fill:#846b48;}.cls-9{fill:#987c55;}.cls-10{fill:#8b714d;}.cls-11{fill:#937852;}.cls-12{fill:#9d8058;}.cls-13{fill:#635037;}.cls-14{fill:#473927;}.cls-15{fill:#4d3e2a;}.cls-16{fill:#52422d;}.cls-17{fill:#665339;}.cls-18{fill:#544635;}.cls-19{fill:#6b5644;}.cls-20{fill:#473b30;}.cls-21{fill:#7d6545;}.cls-22{fill:#5c4a34;}.cls-23{fill:#5e4c35;}.cls-24{fill:#635038;}.cls-25{fill:#786243;}.cls-26{fill:#5c4b32;}.cls-27{fill:#594831;}.cls-28{fill:#6e553d;}.cls-29{fill:#57462f;}.cls-30{fill:#61513b;}.cls-31{fill:#453726;}.cls-32{fill:#69553a;}.cls-33{fill:#755f41;}.cls-34{fill:#705b3e;}.cls-35{fill:#7a6344;}.cls-36{fill:#665238;}.cls-37{fill:#6e583c;}.cls-38{fill:#5e4c34;}.cls-39{fill:#69543a;}.cls-40{fill:#2d1f13;}.cls-41{fill:#4eb33c;}.cls-42{fill:#4cb03b;}.cls-43{fill:#4cad3a;}.cls-44{fill:#50b83e;}.cls-45{fill:#51ba3e;}.cls-46{fill:#4db03b;}.cls-47{fill:#4bab39;}.cls-48{fill:#4aab39;}.cls-49{fill:#005900;}.cls-50{fill:#378709;}.cls-51{fill:#055e00;}.cls-52{fill:#0c6d00;}.cls-53{fill:#1b7000;}.cls-54{fill:#37870b;}.cls-55{fill:#40990d;}.cls-56{fill:#44a010;}.cls-57{fill:#4cad14;}.cls-58{fill:#0e2300;}.cls-59{fill:#0a3800;}.cls-60{fill:#0b5900;}.cls-61{fill:#6abc00;}.cls-62{fill:#439900;}.cls-63{fill:#62b700;}.cls-64{fill:#91d300;}.cls-65{fill:#4faa00;}.cls-66{fill:#308200;}.cls-67{fill:#1a6b00;}.cls-68{fill:#247c00;}.cls-69{fill:#a4e000;}.cls-70{fill:#b8ea00;}.cls-71{fill:#ddff15;}.cls-72{fill:#c6f403;}.cls-73{fill:#f4ff1a;}.cls-74{fill:#cefc0d;}.cls-75{fill:#ecc91a;}.cls-75,.cls-76,.cls-77,.cls-82{fill-rule:evenodd;}.cls-76{fill:#fff;}.cls-78{fill:#9e7363;}.cls-79{fill:#74922a;}.cls-80{fill:#afc161;}.cls-81{fill:#98ad48;}.cls-82{fill:#e98b23;}.cls-83{fill:#0b324a;opacity:0.2;}.cls-84{fill:#47342d;}.cls-85{isolation:isolate;}.cls-86{fill:#dd7003;}.cls-87{fill:#372823;}.cls-88{fill:#6b4e43;}.cls-89{fill:#c18f80;}.cls-90{fill:#563429;}.cls-91{fill:#54423c;}.cls-92{fill:#ffc239;}.cls-93{fill:#ff7f15;}</style></defs><title>levels_002_CC_02</title><polygon class="cls-1" points="533.86 379.98 480.07 381.06 481.83 387.7 452.45 411.84 484.36 416.89 535.52 395.42 533.86 379.98"/><polygon class="cls-2" points="296.74 383.63 288.54 383.2 278.85 381.06 279.46 387.4 288.54 395.42 307.33 394.07 306.35 387.4 296.74 383.63"/><polygon class="cls-3" points="675.66 371.43 660.36 388.7 656.8 396.67 683.62 410.94 696.78 399.99 711.54 386.07 716.21 376.86 675.66 371.43"/><polygon class="cls-1" points="650.97 409.72 613.04 420.08 619 431.66 621.89 429.52 647.1 419.69 683.62 410.94 656.8 396.67 650.97 409.72"/><polygon class="cls-4" points="735.41 351.99 708.27 360.44 681.67 364.42 675.66 371.43 716.21 376.86 720.43 368.53 735.41 351.99"/><polygon class="cls-5" points="735.41 351.99 720.43 368.53 716.21 376.86 711.54 386.07 737.76 377.87 749.92 362.61 760.45 333.36 735.41 351.99"/><polygon class="cls-6" points="650.97 409.72 656.8 396.67 660.36 388.7 638.55 390.72 614.39 403.44 613.04 420.08 650.97 409.72"/><polygon class="cls-7" points="548.28 437.03 497.94 472.94 490.56 495.08 470.77 508.68 478.69 522.02 496.4 510.45 514.35 490.58 535.86 464.55 550.29 442.35 548.28 437.03"/><polygon class="cls-7" points="533.86 379.98 535.52 395.42 548.28 394.31 555.63 377.28 533.86 379.98"/><polygon class="cls-8" points="504.99 429.98 538.88 422.6 548.28 394.31 535.52 395.42 504.99 429.98"/><polygon class="cls-9" points="452.45 411.84 480.15 437.03 504.99 429.98 484.36 416.89 452.45 411.84"/><polygon class="cls-10" points="484.36 416.89 504.99 429.98 535.52 395.42 484.36 416.89"/><polygon class="cls-11" points="499.22 459.49 529.92 444.13 545.41 432.63 538.88 422.6 504.99 429.98 480.15 437.03 464.38 461.86 465.79 473.07 484.36 471.57 499.22 459.49"/><polygon class="cls-12" points="545.41 432.63 529.92 444.13 499.22 459.49 484.36 471.57 465.79 473.07 467.07 483.21 497.94 472.94 548.28 437.03 545.41 432.63"/><polygon class="cls-13" points="481.83 387.7 481.83 380.74 432.86 389.72 438.21 401.9 452.45 411.84 481.83 387.7"/><polygon class="cls-14" points="46.48 359.11 90.82 394.74 74 369.25 46.48 359.11"/><polygon class="cls-15" points="74 369.25 90.82 394.74 129.97 409.84 130.81 390.17 74 369.25"/><polygon class="cls-16" points="129.13 366.89 122.69 366.89 130.81 390.17 144.9 373.94 129.13 366.89"/><polygon class="cls-15" points="38.17 331.27 46.48 359.11 74.09 369.28 71.19 357.49 38.17 331.27"/><polygon class="cls-2" points="122.69 366.89 71.19 357.49 74.09 369.28 130.81 390.17 122.69 366.89"/><polygon class="cls-17" points="182.95 373.94 129.13 366.89 144.9 373.94 213.7 381.32 213.29 373.94 182.95 373.94"/><polygon class="cls-18" points="222.76 409.18 213.7 381.32 144.9 373.94 130.81 390.17 170.42 413.62 222.76 409.18"/><polygon class="cls-6" points="464.38 461.86 480.15 437.03 452.45 411.84 435.43 456.49 464.38 461.86"/><polygon class="cls-13" points="300.52 436.28 288.54 446.09 300.52 436.28 300.52 436.28"/><polygon class="cls-13" points="288.54 446.09 300.52 436.28 300.52 436.28 304.64 432.91 307.33 394.07 288.54 395.42 266.05 422.6 288.54 446.09"/><polygon class="cls-19" points="222.76 409.18 170.42 413.62 170.42 413.62 227.72 426.85 227.72 426.85 233.5 421.26 222.76 409.18"/><polygon class="cls-20" points="227.72 426.85 170.42 413.62 160.06 414.5 182.97 431.79 221.45 432.91 227.72 426.85 227.72 426.85"/><polygon class="cls-21" points="398.4 420.08 387.37 394.31 327.56 390.17 328.47 404.81 398.4 420.08"/><polygon class="cls-22" points="368.03 485.18 357.67 470.59 338.87 453.81 324.95 462.25 368.03 485.18"/><polygon class="cls-23" points="311.45 470.44 290.17 483.35 290.17 483.35 290.17 483.35 297.62 488.77 318.6 494.67 341.24 495.34 374.12 507.63 391.14 519.46 405.44 519.88 375.79 496.09 311.45 470.44"/><polygon class="cls-24" points="311.45 470.44 375.79 496.09 368.03 485.18 324.95 462.25 311.45 470.44"/><polygon class="cls-25" points="421.06 498.61 407.57 483.25 368.03 485.18 368.03 485.18 375.79 496.09 421.06 498.61"/><polygon class="cls-1" points="421.06 498.61 375.79 496.09 405.44 519.88 422.84 520.39 436.56 516.25 421.06 498.61"/><polygon class="cls-1" points="384.51 461.86 338.87 453.81 338.87 453.81 357.67 470.59 368.03 485.18 407.57 483.25 400.29 474.95 384.51 461.86"/><polygon class="cls-26" points="418.41 475.96 436.56 498.44 452.45 515.21 478.69 522.02 462.7 495.08 445.25 478.55 418.41 475.96"/><polygon class="cls-6" points="328.47 404.81 338.87 453.81 338.87 453.81 384.51 461.86 398.4 420.08 328.47 404.81"/><polygon class="cls-27" points="438.21 401.9 434.66 389.72 387.37 394.31 398.4 420.08 438.21 401.9"/><polygon class="cls-27" points="418.41 475.96 384.51 461.86 400.29 474.95 436.56 516.25 452.45 515.21 436.56 498.44 418.41 475.96"/><polygon class="cls-28" points="384.51 461.86 418.41 475.96 420.75 450.57 438.21 401.9 398.4 420.08 384.51 461.86"/><polygon class="cls-13" points="418.41 475.96 445.25 478.55 435.43 456.49 452.45 411.84 438.21 401.9 420.75 450.57 418.41 475.96"/><polygon class="cls-29" points="227.72 426.85 221.45 432.91 238.26 452.29 270.49 460.79 268.45 443.22 227.72 426.85"/><polygon class="cls-30" points="233.5 421.26 227.72 426.85 268.45 443.22 266.05 422.6 233.5 421.26"/><polygon class="cls-15" points="285.39 460.79 268.45 443.22 268.45 443.22 270.49 460.79 283.57 478.55 286.24 461.1 285.39 460.79"/><polygon class="cls-2" points="266.05 422.6 268.45 443.22 268.45 443.22 285.39 460.79 286.24 461.1 288.54 446.09 266.05 422.6"/><polygon class="cls-31" points="130.81 390.17 129.97 409.84 160.06 414.5 170.42 413.62 130.81 390.17"/><polygon class="cls-31" points="170.42 413.62 130.81 390.17 170.42 413.62 170.42 413.62"/><polygon class="cls-31" points="170.42 413.62 170.42 413.62 160.06 414.5 170.42 413.62 170.42 413.62"/><polygon class="cls-1" points="279.46 387.4 278.85 381.06 213.29 373.94 213.7 381.32 222.76 409.18 279.46 387.4"/><polygon class="cls-32" points="233.5 421.26 266.05 422.6 288.54 395.42 279.46 387.4 222.76 409.18 233.5 421.26"/><polygon class="cls-33" points="338.87 453.81 328.47 404.81 327.56 390.17 306.35 387.4 307.33 394.07 304.64 432.91 338.87 453.81"/><polygon class="cls-33" points="328.47 404.81 338.87 453.81 338.87 453.81 328.47 404.81"/><polygon class="cls-34" points="286.24 461.1 283.57 478.55 290.17 483.35 311.45 470.44 286.24 461.1"/><polygon class="cls-35" points="300.52 436.28 288.54 446.09 286.24 461.1 311.45 470.44 324.95 462.25 300.52 436.28"/><polygon class="cls-34" points="338.87 453.81 338.87 453.81 304.64 432.91 300.52 436.28 324.95 462.25 338.87 453.81"/><polygon class="cls-34" points="324.95 462.25 324.95 462.25 324.95 462.25 338.87 453.81 338.87 453.81 324.95 462.25"/><polygon class="cls-34" points="324.95 462.25 324.95 462.25 311.45 470.44 311.45 470.44 311.45 470.44 324.95 462.25 324.95 462.25"/><polygon class="cls-34" points="311.45 470.44 311.45 470.44 311.45 470.44 290.17 483.35 290.17 483.35 311.45 470.44"/><polygon class="cls-33" points="464.38 461.86 435.43 456.49 445.25 478.55 462.7 495.08 467.07 483.21 464.38 461.86"/><polygon class="cls-1" points="467.07 483.21 462.7 495.08 470.77 508.68 490.56 495.08 497.94 472.94 467.07 483.21"/><polygon class="cls-33" points="538.88 422.6 548.28 437.03 550.29 442.35 575.12 403.81 538.88 422.6"/><polygon class="cls-35" points="579.42 374.34 555.63 377.28 548.28 394.31 538.88 422.6 575.12 403.81 579.42 374.34"/><polygon class="cls-36" points="597.61 395.42 575.12 403.81 550.29 442.35 584.52 431.99 597.61 395.42"/><polygon class="cls-37" points="597.61 395.42 610.25 373.86 595.54 373.09 579.42 374.34 575.12 403.81 597.61 395.42"/><polygon class="cls-3" points="550.29 442.35 535.86 464.55 514.35 490.58 538.68 485.25 555.11 472.89 566.69 457.37 584.52 431.99 550.29 442.35"/><polygon class="cls-38" points="613.04 420.08 614.39 403.44 597.61 395.42 584.52 431.99 613.04 420.08"/><polygon class="cls-38" points="613.04 420.08 584.52 431.99 566.69 457.37 600.27 445.51 619 431.66 613.04 420.08"/><polygon class="cls-13" points="610.25 373.86 597.61 395.42 614.39 403.44 638.55 390.72 636.24 370.43 610.25 373.86"/><polygon class="cls-39" points="636.24 370.43 638.55 390.72 660.36 388.7 675.66 371.43 681.67 364.42 636.24 370.43"/><polygon class="cls-40" points="735.41 351.99 699.65 363.4 610.25 373.86 579.42 374.34 533.86 379.98 480.07 381.06 432.86 389.72 387.37 394.31 327.56 390.17 306.35 387.4 286.03 382.33 213.29 373.94 182.95 373.94 122.69 366.89 71.19 357.49 38.17 331.27 72.77 363.9 124.29 371.49 142.31 376.93 213.7 381.32 279.46 387.4 307.33 394.07 328.47 404.81 390.89 400.94 438.21 401.9 481.83 387.7 535.52 395.42 551.41 386.35 578.02 383.93 606.42 380.4 675.66 371.43 709.18 366.62 731.76 357.24 760.45 333.36 735.41 351.99"/><polygon class="cls-41" points="511.51 319.57 571.51 363.9 670.51 314.73 511.51 319.57"/><polygon class="cls-41" points="208.29 269.75 193.18 275.74 174.23 279.01 155.76 277.87 120.98 287.33 104.94 297.31 255.28 267.25 208.29 269.75"/><polygon class="cls-41" points="483 262.06 461.67 255.81 422.45 262.67 378.66 254.85 400 283.57 483 262.06"/><polygon class="cls-42" points="477.51 370.9 571.51 363.9 511.51 319.57 477.51 370.9"/><polygon class="cls-43" points="424.93 308.83 483 262.06 400 283.57 424.93 308.83"/><polygon class="cls-44" points="761.83 322.81 756.8 312.18 726.62 303.2 707.78 293.56 681.79 283.75 670.51 314.73 761.83 322.81"/><polygon class="cls-41" points="568.33 290.93 483 262.06 424.93 308.83 568.33 290.93"/><polygon class="cls-41" points="657.91 284.24 568.33 290.93 670.51 314.73 681.79 283.75 657.91 284.24"/><polygon class="cls-45" points="619.56 273.35 602.87 274.44 578.84 265.61 521.97 258.42 483 262.06 568.33 290.93 657.91 284.24 619.56 273.35"/><polygon class="cls-46" points="571.51 363.9 638.01 360.9 702.19 347.2 727.51 342.4 749.51 325.9 761.83 322.81 670.51 314.73 571.51 363.9"/><polygon class="cls-45" points="670.51 314.73 568.33 290.93 424.93 308.83 511.51 319.57 670.51 314.73"/><polygon class="cls-41" points="178.51 350.9 299.51 366.9 251.51 316.9 178.51 350.9"/><polygon class="cls-47" points="213.29 295.03 251.51 316.9 424.93 308.83 213.29 295.03"/><polygon class="cls-43" points="64.01 332.14 80.51 349.9 139.01 356.4 178.51 350.9 251.51 316.9 64.01 332.14"/><polygon class="cls-41" points="511.51 319.57 424.93 308.83 325.75 337.4 511.51 319.57"/><polygon class="cls-43" points="325.75 337.4 299.51 366.9 511.51 319.57 325.75 337.4"/><polygon class="cls-43" points="251.51 316.9 299.51 366.9 325.75 337.4 251.51 316.9"/><polygon class="cls-44" points="424.93 308.83 251.51 316.9 325.75 337.4 424.93 308.83"/><polygon class="cls-41" points="299.51 366.9 334.01 380.4 383.51 376.4 477.51 370.9 511.51 319.57 299.51 366.9"/><polygon class="cls-41" points="251.51 316.9 104.94 297.31 83.37 301.89 59.84 308.43 48.89 318.07 38.27 323.46 64.01 332.14 251.51 316.9"/><polygon class="cls-48" points="378.66 254.85 328.82 257.28 317.69 257.92 307.57 262.67 279.67 262.83 255.28 267.25 400 283.57 378.66 254.85"/><polygon class="cls-45" points="213.29 295.03 104.94 297.31 251.51 316.9 213.29 295.03"/><polygon class="cls-41" points="255.28 267.25 104.94 297.31 213.29 295.03 255.28 267.25"/><polygon class="cls-41" points="424.93 308.83 400 283.57 255.28 267.25 213.29 295.03 424.93 308.83"/><polygon class="cls-49" points="64.01 332.14 38.27 323.46 38.17 331.27 71.19 357.49 80.51 349.9 64.01 332.14"/><polygon class="cls-50" points="477.51 370.9 480.07 381.06 533.86 379.98 579.42 374.34 571.51 363.9 477.51 370.9"/><polygon class="cls-49" points="749.51 325.9 727.51 342.4 735.41 351.99 760.45 333.36 761.83 322.81 749.51 325.9"/><polygon class="cls-51" points="702.19 347.2 699.65 363.4 735.41 351.99 727.51 342.4 702.19 347.2"/><polygon class="cls-52" points="634.77 370.62 699.65 363.4 670.51 365.9 634.77 370.62"/><polygon class="cls-52" points="638.01 360.9 571.51 363.9 579.42 374.34 610.25 373.86 634.77 370.62 670.51 365.9 699.65 363.4 702.19 347.2 638.01 360.9"/><polygon class="cls-53" points="80.51 349.9 71.19 357.49 122.69 366.89 139.01 356.4 80.51 349.9"/><polygon class="cls-54" points="139.01 356.4 122.69 366.89 182.95 373.94 178.51 350.9 139.01 356.4"/><polygon class="cls-55" points="383.51 376.4 334.01 380.4 327.56 390.17 387.37 394.31 432.86 389.72 480.07 381.06 477.51 370.9 383.51 376.4"/><polygon class="cls-56" points="213.29 373.94 286.03 382.33 247.14 377.61 213.29 373.94"/><polygon class="cls-56" points="178.51 350.9 182.95 373.94 213.29 373.94 247.14 377.61 286.03 382.33 299.51 366.9 178.51 350.9"/><polygon class="cls-57" points="299.51 366.9 286.03 382.33 306.35 387.4 327.56 390.17 334.01 380.4 299.51 366.9"/><polygon class="cls-58" points="456.98 281.7 444.88 269.71 412.43 282.84 456.98 281.7"/><polygon class="cls-59" points="403.53 264.75 412.43 282.84 428.65 276.27 403.53 264.75"/><polygon class="cls-60" points="403.53 264.75 407.63 234.06 415.53 270.26 403.53 264.75"/><polygon class="cls-61" points="448.02 254.66 451.26 240.55 430.95 255.9 448.02 254.66"/><polygon class="cls-62" points="407.63 234.06 424.71 216.44 430.95 255.9 407.63 234.06"/><polygon class="cls-63" points="441.46 225.67 430.95 255.9 451.26 240.55 441.46 225.67"/><polygon class="cls-60" points="468.06 266.69 456.98 281.7 444.88 269.71 468.06 266.69"/><polygon class="cls-64" points="441.46 225.67 465.41 240.43 451.26 240.55 441.46 225.67"/><polygon class="cls-65" points="448.02 254.66 468.06 266.69 465.41 240.43 448.02 254.66"/><polygon class="cls-63" points="451.26 240.55 465.41 240.43 448.02 254.66 451.26 240.55"/><polygon class="cls-66" points="448.02 254.66 430.95 255.9 444.88 269.71 448.02 254.66"/><polygon class="cls-67" points="430.95 255.9 415.53 270.26 444.88 269.71 430.95 255.9"/><polygon class="cls-60" points="428.65 276.27 444.88 269.71 415.53 270.26 428.65 276.27"/><polygon class="cls-68" points="415.53 270.26 430.95 255.9 407.63 234.06 415.53 270.26"/><polygon class="cls-65" points="407.63 234.06 413.79 196.59 424.71 216.44 407.63 234.06"/><polygon class="cls-61" points="413.79 196.59 420.3 174.89 424.71 216.44 413.79 196.59"/><polygon class="cls-69" points="420.3 174.89 428.52 152.55 432.77 170.11 420.3 174.89"/><polygon class="cls-70" points="428.52 152.55 433.34 146.26 432.77 170.11 428.52 152.55"/><polygon class="cls-71" points="433.34 146.26 440.25 148.22 439.88 157.5 433.34 146.26"/><polygon class="cls-72" points="432.77 170.11 439.88 157.5 433.34 146.26 432.77 170.11"/><polygon class="cls-73" points="440.25 148.22 449.15 164.95 439.88 157.5 440.25 148.22"/><polygon class="cls-74" points="449.15 164.95 432.77 170.11 439.88 157.5 449.15 164.95"/><polygon class="cls-73" points="449.15 164.95 454.49 186.48 443.84 174.89 449.15 164.95"/><polygon class="cls-74" points="454.49 186.48 449.93 196.59 441.07 181.97 454.49 186.48"/><polygon class="cls-71" points="449.15 164.95 443.84 174.89 432.77 170.11 449.15 164.95"/><polygon class="cls-70" points="465.41 240.43 461.27 215.32 451.17 219.25 465.41 240.43"/><polygon class="cls-74" points="461.27 215.32 451.17 219.25 449.93 196.59 461.27 215.32"/><polygon class="cls-68" points="468.06 266.69 444.88 269.71 448.02 254.66 468.06 266.69"/><polygon class="cls-61" points="441.46 225.67 424.71 216.44 430.95 255.9 441.46 225.67"/><polygon class="cls-70" points="439.49 192.94 433.08 203.13 422.51 195.66 439.49 192.94"/><polygon class="cls-64" points="432.77 170.11 422.51 195.66 420.3 174.89 432.77 170.11"/><polygon class="cls-69" points="441.46 225.67 451.17 219.25 465.41 240.43 441.46 225.67"/><polygon class="cls-69" points="441.46 225.67 424.71 216.44 433.08 203.13 441.46 225.67"/><polygon class="cls-72" points="433.08 203.13 449.93 196.59 451.17 219.25 433.08 203.13"/><polygon class="cls-74" points="439.49 192.94 449.93 196.59 433.08 203.13 439.49 192.94"/><polygon class="cls-71" points="439.49 192.94 441.07 181.97 449.93 196.59 439.49 192.94"/><polygon class="cls-72" points="422.51 195.66 441.07 181.97 439.49 192.94 422.51 195.66"/><polygon class="cls-70" points="441.07 181.97 432.77 170.11 422.51 195.66 441.07 181.97"/><polygon class="cls-70" points="441.46 225.67 451.17 219.25 433.08 203.13 441.46 225.67"/><polygon class="cls-71" points="441.07 181.97 443.84 174.89 454.49 186.48 441.07 181.97"/><polygon class="cls-74" points="432.77 170.11 443.84 174.89 441.07 181.97 432.77 170.11"/><polygon class="cls-72" points="454.49 186.48 461.27 215.32 449.93 196.59 454.49 186.48"/><polygon class="cls-64" points="422.51 195.66 433.08 203.13 424.71 216.44 422.51 195.66"/><polygon class="cls-58" points="499.27 282.2 492.43 275.42 474.09 282.84 499.27 282.2"/><polygon class="cls-59" points="469.05 272.62 474.09 282.84 483.26 279.13 469.05 272.62"/><polygon class="cls-60" points="469.05 272.62 471.37 255.26 475.84 275.73 469.05 272.62"/><polygon class="cls-61" points="494.2 266.91 496.04 258.94 484.56 267.61 494.2 266.91"/><polygon class="cls-62" points="471.37 255.26 481.03 245.31 484.56 267.61 471.37 255.26"/><polygon class="cls-63" points="490.5 250.52 484.56 267.61 496.04 258.94 490.5 250.52"/><polygon class="cls-60" points="505.53 273.71 499.27 282.2 492.43 275.42 505.53 273.71"/><polygon class="cls-64" points="490.5 250.52 504.03 258.87 496.04 258.94 490.5 250.52"/><polygon class="cls-65" points="494.2 266.91 505.53 273.71 504.03 258.87 494.2 266.91"/><polygon class="cls-63" points="496.04 258.94 504.03 258.87 494.2 266.91 496.04 258.94"/><polygon class="cls-66" points="494.2 266.91 484.56 267.61 492.43 275.42 494.2 266.91"/><polygon class="cls-67" points="484.56 267.61 475.84 275.73 492.43 275.42 484.56 267.61"/><polygon class="cls-60" points="483.26 279.13 492.43 275.42 475.84 275.73 483.26 279.13"/><polygon class="cls-68" points="475.84 275.73 484.56 267.61 471.37 255.26 475.84 275.73"/><polygon class="cls-65" points="471.37 255.26 474.85 234.08 481.03 245.31 471.37 255.26"/><polygon class="cls-61" points="474.85 234.08 478.54 221.82 481.03 245.31 474.85 234.08"/><polygon class="cls-69" points="478.54 221.82 483.18 209.19 485.58 219.12 478.54 221.82"/><polygon class="cls-70" points="483.18 209.19 485.91 205.63 485.58 219.12 483.18 209.19"/><polygon class="cls-71" points="485.91 205.63 489.81 206.74 489.6 211.99 485.91 205.63"/><polygon class="cls-72" points="485.58 219.12 489.6 211.99 485.91 205.63 485.58 219.12"/><polygon class="cls-73" points="489.81 206.74 494.84 216.2 489.6 211.99 489.81 206.74"/><polygon class="cls-74" points="494.84 216.2 485.58 219.12 489.6 211.99 494.84 216.2"/><polygon class="cls-73" points="494.84 216.2 497.86 228.37 491.84 221.82 494.84 216.2"/><polygon class="cls-74" points="497.86 228.37 495.28 234.08 490.28 225.82 497.86 228.37"/><polygon class="cls-71" points="494.84 216.2 491.84 221.82 485.58 219.12 494.84 216.2"/><polygon class="cls-70" points="504.03 258.87 501.7 244.67 495.99 246.89 504.03 258.87"/><polygon class="cls-74" points="501.7 244.67 495.99 246.89 495.28 234.08 501.7 244.67"/><polygon class="cls-68" points="505.53 273.71 492.43 275.42 494.2 266.91 505.53 273.71"/><polygon class="cls-61" points="490.5 250.52 481.03 245.31 484.56 267.61 490.5 250.52"/><polygon class="cls-70" points="489.38 232.02 485.76 237.78 479.78 233.56 489.38 232.02"/><polygon class="cls-64" points="485.58 219.12 479.78 233.56 478.54 221.82 485.58 219.12"/><polygon class="cls-69" points="490.5 250.52 495.99 246.89 504.03 258.87 490.5 250.52"/><polygon class="cls-69" points="490.5 250.52 481.03 245.31 485.76 237.78 490.5 250.52"/><polygon class="cls-72" points="485.76 237.78 495.28 234.08 495.99 246.89 485.76 237.78"/><polygon class="cls-74" points="489.38 232.02 495.28 234.08 485.76 237.78 489.38 232.02"/><polygon class="cls-71" points="489.38 232.02 490.28 225.82 495.28 234.08 489.38 232.02"/><polygon class="cls-72" points="479.78 233.56 490.28 225.82 489.38 232.02 479.78 233.56"/><polygon class="cls-70" points="490.28 225.82 485.58 219.12 479.78 233.56 490.28 225.82"/><polygon class="cls-70" points="490.5 250.52 495.99 246.89 485.76 237.78 490.5 250.52"/><polygon class="cls-71" points="490.28 225.82 491.84 221.82 497.86 228.37 490.28 225.82"/><polygon class="cls-74" points="485.58 219.12 491.84 221.82 490.28 225.82 485.58 219.12"/><polygon class="cls-72" points="497.86 228.37 501.7 244.67 495.28 234.08 497.86 228.37"/><polygon class="cls-64" points="479.78 233.56 485.76 237.78 481.03 245.31 479.78 233.56"/><path class="cls-75" d="M489.16,247.52c.59-.38,1.19-.72,1.79-1,3.17-1.68,2-1.67-.1-4.6a62.64,62.64,0,0,0-11.47-12.81c-6.66-5.42-15-8.93-28.23-12.51-3.66-1-2.1-.58-4.8,1.33a9.22,9.22,0,1,1,.52-14.63,9.07,9.07,0,0,1,2.29,2.79c1.67,3.16.74,2.84,4.58,3.89,13.82,3.8,22.69,7.64,30.11,13.66,5,4.1,9.25,9.08,13.79,15.64,1,1.46,2,4.34,3.82,4.22,3.66-.24,2.85-.16,1.43-3.67a72.39,72.39,0,0,0-4.78-9.74c-.87-1.48-1.82-3-2.85-4.46-3.27-4.75-3.37-6.22-8.58-6.67a9.22,9.22,0,1,1,9.91-7.83c-.72,4.91.63,5,3.72,9.39,1.42,2,2.7,4,3.87,6A84.43,84.43,0,0,1,511,241.33c.71,1.95.53,3.17,2.52,3.8.59.19,1.18.38,1.76.59,4,1.42,2.09-1.63,1.8-5-.5-6-1-9.54-2-12.44-1.23-3.46-3.47-6.47-7.61-12.06-.67-.91-1.39-1.88-3.37-4.59-5.88-8.07-5.15-14.06-4.49-19.38.33-2.73.64-5.21-1.07-7.85-1.8-2.8-1.75-1.93-4.32-1.11a9.22,9.22,0,1,1,6-11.58c1.45,4.54,1.05,4,4.13,8.07,3.36,4.41,2.85,8.62,2.27,13.32-.49,4-1.05,8.56,3.2,14.39l3.35,4.53c4.53,6.12,7,9.41,8.57,13.91,1.52,4.25,2.06,9.07,2.73,18,.08,1,.37.94.64,1l14.37-3.44c6.24-4.24,1-9.87-.47-18-3.15-17.1,9.37-21.23,19.43-31.51,4.19-4.26,6.22-9.06,10.47-12.5a18.74,18.74,0,1,1-2.75,26.36c-3.67-4.53-5.89-3.88-12.11-1.25-8.29,3.49-9.4,11-6.87,19.39,7.22,24,24.49,27,35.33,59,2.38,7,6.76,15,14,19.67.56.35,1,.67,1.39.94,0,0,1.23.93,1.88,1.35,2.31,1.51,3.26,2.88,6,2.36,6.72-1.31,4.54-7,7.2-7.21,1.32-.11,3.35.5,3.94,1.78.69,1.48-.15,3.86-4.87,4.49a5,5,0,0,0-2.7,1.85c-.55.58-.7,1-.57,1.41a6,6,0,0,0,3.61,2.7c1.38.35,11.17,1.35,12.24,3.52.76,1.6-.12,4.4-2,4.49s-3.63-1.69-5-2.79c-1.78-1.5-6.41-4.39-7.18-3.74s-.32.7.34,1.64,5.12,5.07,5.87,5.73c1.67,1.46,4.22,3,2.85,5.4-2.86,4.9-6.35-3.46-7.56-5.73a52.71,52.71,0,0,0-5.61-7.69c-1.42-1.55-9-6.62-10.48-7.69h0v0h0l-.18-.13h0l-.26-.18c-7.4-5.4-12.29-10.25-15.56-16-1.34,9.37-5.93,19.34-18.31,31.52-.88.87-1.8,1.74-2.76,2.63s-1.31,2.49-1.2,4.53c.27,5.13-.07,6.82,4.83,7.39a36.35,36.35,0,0,0,5.42-.08c1.35-.05,2.69-.08,4.06-.08a4.15,4.15,0,0,1,2.27.75c1,1,.6,1.61-.17,1.95a4.06,4.06,0,0,1-2.48.18,20.62,20.62,0,0,0-2.29-.3,59.57,59.57,0,0,0-12.51.52c-1.46.2-3.17.39-4-.4-1.2-1.16.85-2.38,1.39-3.13,1.31-1.85.17-5.61-1.23-7.1-2.68-2.86-6.66,0-11.3-.07-8.54,0-45.68,0-53.15,0-4.64,0-8.62-2.79-11.31.07-1.39,1.49-2.53,5.25-1.22,7.1.54.75,2.59,2,1.39,3.13-.81.79-2.51.6-4,.4a59.64,59.64,0,0,0-12.52-.52,20.93,20.93,0,0,0-2.29.3,4,4,0,0,1-2.47-.18c-.77-.34-1.2-1-.17-1.95a4.12,4.12,0,0,1,2.27-.75c1.36,0,2.71,0,4.06.08a36.22,36.22,0,0,0,5.41.08c4.91-.57,4.57-2.26,4.84-7.39.11-2-.18-3.59-1.2-4.53-8.24-7.65-6.39-14.14-8.12-26.33-3.26,5.72-8.14,10.54-15.51,15.92l-.25.19h0l-.18.14h0c-1.49,1.07-9,6.12-10.43,7.67a51.69,51.69,0,0,0-5.59,7.65c-1.21,2.26-4.68,10.58-7.53,5.71-1.36-2.35,1.18-3.93,2.83-5.39.76-.65,5.19-4.76,5.86-5.69s1.07-1,.34-1.64-5.38,2.24-7.16,3.73c-1.32,1.09-3.07,2.87-4.94,2.78s-2.78-2.9-2-4.48c1.06-2.16,10.81-3.16,12.18-3.51a6,6,0,0,0,3.6-2.69c.13-.37,0-.82-.56-1.4a5,5,0,0,0-2.7-1.84c-4.7-.63-5.53-3-4.85-4.47.59-1.28,2.61-1.88,3.93-1.77,2.64.23.48,5.88,7.16,7.17,2.73.53,3.68-.84,6-2.34.64-.43,1.86-1.35,1.86-1.35.39-.26.83-.58,1.38-.94,6-3.8,11.38-11.53,14.4-19.47q1.83-4.77,3.65-9c4.17-9.63,8-10.56-2.1-16.56a19.6,19.6,0,0,0-11.9-2.93,30.5,30.5,0,0,0-9.07,2.1c-5.43,2.11-4.36,1.77-5.25,6.45a9.22,9.22,0,1,1-7.34-10.78c4.64.88,4.47.06,9.18-1.9a38.14,38.14,0,0,1,12-2.91c5.36-.37,10.11,1.89,14.58,4.6,7,4.23,6.81,7.11,11.59.38.92-1.3,1.85-2.52,2.77-3.65Z"/><path class="cls-76" d="M574.84,191.37a2.9,2.9,0,1,0,.43-4.09,2.9,2.9,0,0,0-.43,4.09Zm-6.52,12.79a16.48,16.48,0,1,1,23.18,2.41,16.49,16.49,0,0,1-23.18-2.41Z"/><path class="cls-77" d="M574.84,191.37a2.9,2.9,0,1,1,4.08.42A2.9,2.9,0,0,1,574.84,191.37Z"/><path class="cls-76" d="M440.85,202.41a7.76,7.76,0,1,1-7.76,7.76A7.75,7.75,0,0,1,440.85,202.41Z"/><path class="cls-76" d="M487.33,202a7.77,7.77,0,1,1-7.77,7.76A7.76,7.76,0,0,1,487.33,202Z"/><path class="cls-76" d="M491.14,166.8a7.76,7.76,0,1,1-7.77,7.76A7.76,7.76,0,0,1,491.14,166.8Z"/><path class="cls-77" d="M489.56,172.1a2.61,2.61,0,1,1-2.61,2.61A2.61,2.61,0,0,1,489.56,172.1Z"/><path class="cls-77" d="M486.55,211.35a2.62,2.62,0,1,1-2.61,2.62A2.61,2.61,0,0,1,486.55,211.35Z"/><path class="cls-77" d="M440.93,210.76a2.61,2.61,0,1,1-2.61,2.61A2.61,2.61,0,0,1,440.93,210.76Z"/><path class="cls-76" d="M427.2,261.47a7.77,7.77,0,1,1-7.77,7.77A7.77,7.77,0,0,1,427.2,261.47Z"/><path class="cls-77" d="M426,270.2a2.62,2.62,0,1,1-2.62,2.62A2.61,2.61,0,0,1,426,270.2Z"/><path class="cls-77" d="M483.87,278.14a16.14,16.14,0,0,0-2.54,8.19c-.12,4.71,2,9.21,5.29,13.28a34.15,34.15,0,0,0,18.62,11.62c5.52,1.13,11.42,1,17.2.78a42.38,42.38,0,0,0,25.27-8.56,31.37,31.37,0,0,0,8.65-9.52,26.74,26.74,0,0,0,3.34-14.12c-.05-2.74-.75-5.05-2.39-6.56-4.07-3.78-10.1-6.4-17-7.46a101.42,101.42,0,0,0-21.88-.68,96,96,0,0,0-21.59,3.71C491.28,270.6,486.62,273.69,483.87,278.14Z"/><path class="cls-76" d="M551.52,265.69l-7.17.28.26,6.64a2.89,2.89,0,0,0,3,2.76l1.43-.06a2.87,2.87,0,0,0,2.76-3Z"/><path class="cls-76" d="M524.22,262.89l-7.16.29.27,6.65a2.89,2.89,0,0,0,3,2.76l1.44-.07a2.88,2.88,0,0,0,2.76-3Z"/><path class="cls-76" d="M511.87,264.17l-7.16.28.26,6.66a2.86,2.86,0,0,0,3,2.74l1.44-.05a2.87,2.87,0,0,0,2.75-3Z"/><path class="cls-76" d="M490.54,272.41l-7.17.28.26,6.66a2.9,2.9,0,0,0,3,2.75l1.43-.06a2.88,2.88,0,0,0,2.76-3Z"/><path class="cls-76" d="M497.12,310.14l-7.18.27-.26-6.64a2.88,2.88,0,0,1,2.75-3l1.43-.06a2.89,2.89,0,0,1,3,2.76Z"/><path class="cls-76" d="M507.34,313.1l-7.17.28-.27-6.66a2.89,2.89,0,0,1,2.75-3l1.44-.05a2.89,2.89,0,0,1,3,2.76Z"/><path class="cls-76" d="M547.64,307.66l-7.16.29-.27-6.65a2.87,2.87,0,0,1,2.76-3l1.43-.06a2.88,2.88,0,0,1,3,2.76Z"/><path class="cls-76" d="M556.19,300.24l-7.16.28-.27-6.65a2.87,2.87,0,0,1,2.75-3l1.44-.06a2.87,2.87,0,0,1,3,2.76Z"/><path class="cls-75" d="M484.27,278.26a16,16,0,0,0-2.51,8.09c-.1,4.66,2,9.12,5.21,13.13A33.25,33.25,0,0,0,505.22,311c5.39,1.12,11.19,1,16.87.76a41,41,0,0,0,24.75-8.44,30.93,30.93,0,0,0,8.5-9.4,26.88,26.88,0,0,0,3.27-14c-.06-2.71-.76-5-2.36-6.49-4-3.74-9.91-6.31-16.69-7.37a98.77,98.77,0,0,0-21.46-.68,92.92,92.92,0,0,0-21.16,3.66c-5.41,1.76-10,4.82-12.67,9.21Zm38.16,41.28c-6.27.29-12.61.36-18.79-.91a41.3,41.3,0,0,1-22.76-14.25c-4.17-5.2-7.07-11.44-6.92-18.2a23.83,23.83,0,0,1,3.65-12c3.82-6.25,10.05-10.32,16.92-12.56a98.93,98.93,0,0,1,23.05-4,105.09,105.09,0,0,1,23.18.76c7.54,1.16,15.21,4.12,20.83,9.39,3.36,3.15,4.73,7.52,4.82,12a34.67,34.67,0,0,1-4.27,17.94,38.85,38.85,0,0,1-10.56,11.8l-.11.09-.13.08a48.72,48.72,0,0,1-28.9,9.86Z"/><path class="cls-78" d="M172,267.52l50.28-90.21s-49.53,69.41-60.36,72.19c0,0-29.18-82.64-31.21-117.57v56.58s20.8,50.78,18.05,106.23l-18.05,16.64h24.48L179,323.85l-7-19.4Z"/><polygon class="cls-79" points="231.27 204.83 229.05 100.84 175.35 96.7 179.64 229.04 231.27 204.83"/><polygon class="cls-80" points="166.77 77.98 107.24 86.57 175.35 96.7 229.05 100.84 166.77 77.98"/><polygon class="cls-81" points="94.45 201.32 107.24 86.57 175.35 96.7 179.64 229.04 94.45 201.32"/><polygon class="cls-79" points="241.6 224.95 255.56 204.29 231.4 204.29 207.19 232.67 241.6 224.95"/><polygon class="cls-80" points="239.39 168.13 195.31 163.15 231.4 204.29 255.56 204.29 239.39 168.13"/><polygon class="cls-81" points="187.29 194.64 195.31 163.15 231.4 204.29 207.19 232.67 187.29 194.64"/><path class="cls-82" d="M330.08,245.3c-3.73.77-7.86-.63-11.41-5.43a40.77,40.77,0,0,0-4.32-5c-12.58-12.25-29.75-11.89-41.64-1.55-1.91,1.67-1,1.5-3,.23a8.38,8.38,0,0,0-1.77-.86,3.42,3.42,0,0,0-3.47.68c-1.33.89-2.78,2.24-4.34,2.71a60,60,0,0,1-9.46,2.08,33.71,33.71,0,0,1-1.51-14.06c.31-2.67.88-5.34,1.28-8a4.48,4.48,0,0,1,2-3.69c5.13-3.58,7.46,1.46,9.3-.13.91-.79,1.81-2.51,1.35-3.72-.54-1.39-2.62-2.36-6,.34a4.56,4.56,0,0,1-2.94.58c-.72,0-1.12-.19-1.28-.52a5.54,5.54,0,0,1,.53-4.09c.65-1.12,6.23-8.17,5.49-10.25-.56-1.52-3-2.72-4.22-1.54s-1.21,3.46-1.35,5c-.15,2.12-1.2,7-2.12,7.09s-.66-.23-.85-1.27a74.89,74.89,0,0,1,0-7.49c.1-2,.69-4.7-1.73-5.3-5-1.25-1.77,6.35-1.06,8.59a47.84,47.84,0,0,1,1.46,8.57,58,58,0,0,1-.93,7.52c-.45,2.78-.91,5.42-1.21,8.22a47.75,47.75,0,0,0,.24,13.74,7.12,7.12,0,0,1,.14,2.6c-.27,1.91,0,1.72,2.79,1.56a38,38,0,0,0,9.1-1.74c3.32-1,5.6-1.58,2.89,1.52-12.51,14.27-15,50.73-3.35,62.2.84.82,1.72,1.67,2.64,2.52s1.26,2.38,1.15,4.33c-.26,4.91.07,6.52-4.62,7.07a33.32,33.32,0,0,1-5.19-.08c-1.29,0-2.58-.06-3.89-.06a4,4,0,0,0-2.17.7c-1,1-.58,1.56.16,1.88a3.86,3.86,0,0,0,2.37.17,21.36,21.36,0,0,1,2.19-.29,58.69,58.69,0,0,1,12,.5c1.39.2,3,.37,3.79-.37,1.16-1.11-.81-2.29-1.32-3-1.26-1.77-.17-5.38,1.17-6.8s6.55-1.81,12.18-1.55c10,.45,16.6.89,26.79,1.26,3.45.12,25.32-1,31.76-1.26,5.63-.26,10.74,0,12.18,1.55s2.43,5,1.18,6.8c-.52.72-2.48,1.9-1.33,3,.77.74,2.4.57,3.8.37a58.59,58.59,0,0,1,12-.5,21,21,0,0,1,2.19.29,3.89,3.89,0,0,0,2.38-.17c.73-.32,1.14-.92.15-1.88a4,4,0,0,0-2.17-.7c-1.31,0-2.59,0-3.89.06a33.21,33.21,0,0,1-5.18.08c-9.28-1.08-2-16-.37-21.55.7-2.33,1.44-4.82,2.23-7.59a21.48,21.48,0,0,0-1.85-16.61c-4.77-8.8-25.07-25.63-11.9-23.2a46.45,46.45,0,0,0,11.41.79c3.42-.21,3.8,0,3.19-2.32a8.45,8.45,0,0,1-.21-3.21,59.56,59.56,0,0,0-1.74-16.88c-.78-3.38-1.73-6.55-2.7-9.89a71.09,71.09,0,0,1-2.24-9.08,59.09,59.09,0,0,1,.53-10.72c.54-2.85,3.41-12.65-2.58-10.38-2.87,1.09-1.75,4.3-1.34,6.76a88.94,88.94,0,0,1,1.11,9.18c-.09,1.3.21,1.67-.86,1.68s-3.15-5.8-3.65-8.38c-.4-1.9-.67-4.71-2.39-6s-4.49.57-4.94,2.51c-.61,2.65,7.27,10.48,8.23,11.76,1.22,1.85,1.57,4,1.25,4.93-.14.43-.6.71-1.49.83a5.71,5.71,0,0,1-3.69-.28c-4.59-2.8-7-1.31-7.45.47-.39,1.55,1,3.52,2.2,4.35,2.49,1.69,4.6-4.82,11.42-1.21,2.06,1.1,2.52,2.42,3,4.23.86,3.21,2,6.4,2.74,9.62a41.46,41.46,0,0,1,.22,17.46A74.57,74.57,0,0,1,345.16,244c-2-.34-4-1.77-5.71-2.69s-2.69-1.07-4.35-.3a15.31,15.31,0,0,0-4.67,3.88c-.12.13-.23.26-.35.38Z"/><path class="cls-76" d="M312.1,272.68a26.44,26.44,0,1,0-37.19,3.88A26.43,26.43,0,0,0,312.1,272.68Z"/><path class="cls-77" d="M301.65,252.15a4.66,4.66,0,1,0-6.56.68A4.66,4.66,0,0,0,301.65,252.15Z"/><path class="cls-77" d="M349.84,279.32c2,4.53,1.41,9.31-.71,13.67-2,4.21-5.26,7.48-9.84,8.77-7.67,2.18-14.52-1.15-17.56-8.53-1.81-4.4-1.23-9,.81-13.16,2.12-4.36,5.53-7.76,10.32-9C340.19,269.16,346.81,272.37,349.84,279.32Z"/><polygon class="cls-76" points="341.63 270.85 340.67 274.89 344.59 272.41 341.63 270.85"/><polygon class="cls-76" points="348.07 275.3 344.99 280.02 350.4 279.16 348.07 275.3"/><polygon class="cls-76" points="343.73 300.93 341.28 296.36 346.77 297.84 343.73 300.93"/><polygon class="cls-76" points="323.58 276.76 329.38 281.06 327.48 273.34 323.58 276.76"/><polygon class="cls-76" points="321.89 294.03 327.41 293.36 324.6 297.77 321.89 294.03"/><polygon class="cls-76" points="328.08 300.54 330.58 299.24 330.88 302.08 328.08 300.54"/><path class="cls-82" d="M349.84,279.32c-3-6.95-9.65-10.16-17-8.25-4.79,1.24-8.2,4.64-10.32,9-2,4.21-2.62,8.76-.81,13.16,3,7.38,9.88,10.71,17.56,8.53,4.58-1.29,7.8-4.56,9.84-8.77,2.12-4.36,2.69-9.14.71-13.67Zm1.25-.54c2.14,4.9,1.56,10.08-.74,14.81-2.21,4.56-5.73,8.08-10.69,9.48-8.69,2.46-15.75-1-19.18-9.33-2-4.76-1.38-9.7.84-14.26,2.3-4.73,6-8.39,11.19-9.73,8.28-2.16,15.16,1.19,18.58,9Z"/><path class="cls-83" d="M481.82,345.88l-2-1.17,5.37-3.1-3.25-1.91-5.38,3.11-31.47-18.29a.81.81,0,0,0,.12-1,.84.84,0,0,0-1.15-.31l-.6.35-29.92-17.38,4.67-2.7-3.25-1.9-4.68,2.7-11.45-6.65a1.22,1.22,0,0,0-1.23,2.11l10.24,5.95L362.5,331.87l3.27,1.89,45.3-26.16L441,325l-6.93,4.08-15.22-8.84c-8.73,5-8.78,13.21-.11,18.25s22.77,5,31.5,0l-14.49-8.42,6.93-4.09,31.4,18.25L429.48,370l3.27,1.89,44.6-25.77,3.24,1.89a1.27,1.27,0,0,0,.62.16,1.2,1.2,0,0,0,1.05-.6A1.22,1.22,0,0,0,481.82,345.88Z"/><path class="cls-84" d="M417.43,301.64c0,7.82-4.91,22.15-21.89,22.15s-21.89-15.14-21.89-22.15S383.45,289,395.54,289,417.43,294.64,417.43,301.64Z"/><g class="cls-85"><path class="cls-78" d="M411.34,292.83c8.37,5,8.08,13.07-.65,17.93s-22.58,4.73-30.95-.31-8.08-13.07.64-17.93S403,287.8,411.34,292.83Z"/></g><path class="cls-86" d="M407.91,299.93c-6.56-3.95-17.41-4.06-24.24-.25-5.06,2.82-6.49,7-4.25,10.57l.32.2c8.37,5,22.23,5.18,30.95.31.34-.18.65-.37,1-.57C413.81,306.74,412.58,302.74,407.91,299.93Z"/><path class="cls-87" d="M437.29,327.5,435,326.2l-1.52,2.63-.05-18.53,10.41-18-2.29-1.3-9.9,17.15L421,302l-2.27,3.93,10,5.71s.13,56.58.12,59.15a1.19,1.19,0,0,0,.67,1,3.75,3.75,0,0,0,3.39,0,1.2,1.2,0,0,0,.72-1c0-1.1-.09-36.75-.09-36.75Z"/><path class="cls-87" d="M421.28,304.84A1.8,1.8,0,1,1,421,302,2.08,2.08,0,0,1,421.28,304.84Z"/><path class="cls-78" d="M421.11,304.67a1.56,1.56,0,1,1-.25-2.48A1.79,1.79,0,0,1,421.11,304.67Z"/><path class="cls-87" d="M371,289l-2.28-1.31-1.52,2.63-.05-18.53,10.42-18-2.29-1.3-9.9,17.16L354.7,263.5l-2.27,3.94,10,5.7s.12,56.59.11,59.15a1.17,1.17,0,0,0,.68,1,3.73,3.73,0,0,0,3.38,0,1.21,1.21,0,0,0,.72-1c0-1.1-.08-36.74-.08-36.74Z"/><path class="cls-87" d="M355,266.33a1.8,1.8,0,1,1-.28-2.86A2.08,2.08,0,0,1,355,266.33Z"/><path class="cls-78" d="M354.86,266.17a1.56,1.56,0,1,1-.24-2.48A1.8,1.8,0,0,1,354.86,266.17Z"/><path class="cls-88" d="M438.48,311.64a1.27,1.27,0,0,1-.62-.16l-83-48.25a1.22,1.22,0,0,1,1.23-2.11l83,48.25a1.22,1.22,0,0,1-.61,2.27Z"/><path class="cls-84" d="M405,283.33c-3.1-1.79-7.15-1.42-11.4,1-8.39,4.84-15.2,16.64-15.18,26.29a.92.92,0,0,0,.92.92h0a.93.93,0,0,0,.91-.92c0-9.07,6.38-20.15,14.27-24.71,3.66-2.11,7.06-2.48,9.56-1,2,1.13,3.26,3.31,3.71,6.25l2,1.15C409.46,288.11,407.8,284.94,405,283.33Z"/><g class="cls-85"><path class="cls-84" d="M405.19,333.7a7.62,7.62,0,0,0-3.74-4.31,1.25,1.25,0,0,0-1.18,0l-17.73,12.5a1.28,1.28,0,0,1,1.18,0,7.62,7.62,0,0,1,3.75,4.32c.42,1.21.33,2.12-.18,2.47L405,336.17C405.52,335.82,405.62,334.92,405.19,333.7Z"/><path class="cls-84" d="M383.72,341.89a7.62,7.62,0,0,1,3.75,4.32c.66,1.89.06,3-1.35,2.51a7.62,7.62,0,0,1-3.75-4.32C381.71,342.51,382.31,341.39,383.72,341.89Z"/><path class="cls-89" d="M383.84,342.22a6.93,6.93,0,0,1,3.39,3.9c.59,1.71,0,2.73-1.23,2.27a6.9,6.9,0,0,1-3.39-3.9C382,342.78,382.56,341.76,383.84,342.22Z"/></g><g class="cls-85"><path class="cls-78" d="M387,328.26l16.34,15.62c-.33-.3-1-.22-1.93.32a9.68,9.68,0,0,0-3.83,4.35c-.22.63-.18,1.07.05,1.3l-16.33-15.63c-.24-.22-.27-.66-.06-1.29a9.74,9.74,0,0,1,3.83-4.35C386,328,386.69,328,387,328.26Z"/><path class="cls-90" d="M403.4,345.17a9.65,9.65,0,0,1-3.83,4.36c-1.6.93-2.49.5-2-1a9.68,9.68,0,0,1,3.83-4.35C403,343.26,403.91,343.7,403.4,345.17Z"/><path class="cls-89" d="M403.09,345.35a8.59,8.59,0,0,1-3.42,3.9c-1.44.83-2.23.44-1.78-.87a8.67,8.67,0,0,1,3.43-3.9C402.76,343.64,403.55,344,403.09,345.35Z"/></g><g class="cls-85"><path class="cls-91" d="M405,344.06l-17.06,3.41c-1.55.33-3.18-1.22-3.64-3.45s.43-4.31,2-4.64L403.3,336c-1.55.33-2.44,2.4-2,4.64S403.41,344.39,405,344.06Z"/><path class="cls-84" d="M407,339.42c.45,2.24-.43,4.31-2,4.64s-3.18-1.21-3.64-3.44.43-4.31,2-4.64S406.49,337.19,407,339.42Z"/><path class="cls-89" d="M406.63,339.49c.41,2-.37,3.83-1.76,4.12s-2.83-1.08-3.24-3.06.38-3.83,1.76-4.12S406.23,337.51,406.63,339.49Z"/></g><path class="cls-92" d="M394,333.52c0,3.71-1.84,6.71-4.12,6.71s-4.13-3-4.13-6.71S389.88,323,389.88,323,394,329.81,394,333.52Z"/><path class="cls-92" d="M399.54,329.23c0,3.71-1.85,6.71-4.13,6.71s-4.12-3-4.12-6.71,4.12-10.56,4.12-10.56S399.54,325.52,399.54,329.23Z"/><path class="cls-92" d="M403.35,334.43c0,3.71-1.85,6.71-4.13,6.71s-4.12-3-4.12-6.71,4.12-10.56,4.12-10.56S403.35,330.72,403.35,334.43Z"/><path class="cls-93" d="M396.91,336.89c0,2.13-1.05,3.85-2.36,3.85s-2.36-1.72-2.36-3.85,2.36-6.05,2.36-6.05S396.91,334.77,396.91,336.89Z"/><path class="cls-93" d="M391.23,319.84c0,.71-.36,1.29-.79,1.29s-.79-.58-.79-1.29a5.8,5.8,0,0,1,.79-2A5.8,5.8,0,0,1,391.23,319.84Z"/><path class="cls-93" d="M399.87,322.27c0,.31-.15.55-.33.55s-.34-.24-.34-.55a2.55,2.55,0,0,1,.34-.87A2.6,2.6,0,0,1,399.87,322.27Z"/></svg>