<?xml version="1.0" standalone="no"?>
<!DOCTYPE svg PUBLIC "-//W3C//DTD SVG 20010904//EN"
 "http://www.w3.org/TR/2001/REC-SVG-20010904/DTD/svg10.dtd">
<svg version="1.0" xmlns="http://www.w3.org/2000/svg"
 width="225.000000pt" height="225.000000pt" viewBox="0 0 225.000000 225.000000"
 preserveAspectRatio="xMidYMid meet">
<metadata>
Created by potrace 1.15, written by Peter Selinger 2001-2017
</metadata>
<g transform="translate(0.000000,225.000000) scale(0.100000,-0.100000)"
fill="#ffffff" stroke="none">
<path d="M357 1488 c-126 -335 -225 -613 -220 -618 7 -6 792 -577 938 -683
l51 -36 494 360 c272 198 496 363 497 367 4 12 -454 1225 -459 1216 -5 -8 -92
-275 -223 -681 l-36 -113 -274 0 -274 0 -36 113 c-153 475 -218 673 -224 679
-3 4 -109 -268 -234 -604z m286 9 c32 -100 58 -185 58 -189 -1 -5 -59 -8 -131
-8 -72 0 -130 3 -130 8 0 13 135 372 140 372 3 0 31 -83 63 -183z m1100 0 c37
-100 67 -185 67 -189 0 -5 -58 -8 -130 -8 -71 0 -130 3 -131 8 -1 12 116 371
121 372 3 0 35 -82 73 -183z m-871 -706 c65 -200 117 -365 116 -366 -3 -2
-667 480 -682 495 -10 10 -7 21 46 163 l30 77 186 -2 186 -3 118 -364z m478
364 c0 -5 -69 -219 -187 -579 -22 -68 -38 -104 -43 -95 -6 11 -185 561 -215
657 l-6 22 225 0 c124 0 226 -2 226 -5z m548 -72 c53 -142 56 -153 46 -163
-16 -16 -679 -497 -682 -495 -3 2 227 714 235 728 2 4 87 7 188 7 l183 0 30
-77z"/>
</g>
</svg>
